G04 #@! TF.FileFunction,Paste,Bot*
%FSLAX46Y46*%
G04 Gerber Fmt 4.6, Leading zero omitted, Abs format (unit mm)*
G04 Created by KiCad (PCBNEW (2015-11-11 BZR 6310)-product) date Tue 22 Dec 2015 12:34:02 AM CST*
%MOMM*%
G01*
G04 APERTURE LIST*
%ADD10C,0.100000*%
%ADD11R,0.900000X1.200000*%
%ADD12R,1.200000X0.900000*%
%ADD13R,0.750000X1.200000*%
%ADD14R,1.200000X0.750000*%
G04 APERTURE END LIST*
D10*
D11*
X131090000Y-85380000D03*
X131090000Y-83180000D03*
X133100000Y-85380000D03*
X133100000Y-83180000D03*
X173810000Y-113700000D03*
X173810000Y-115900000D03*
X135090000Y-85380000D03*
X135090000Y-83180000D03*
X137100000Y-85380000D03*
X137100000Y-83180000D03*
D12*
X148746000Y-91904000D03*
X150946000Y-91904000D03*
X148596000Y-86594000D03*
X150796000Y-86594000D03*
X153720000Y-89880000D03*
X151520000Y-89880000D03*
X145550000Y-107570000D03*
X143350000Y-107570000D03*
X145550000Y-109410000D03*
X143350000Y-109410000D03*
D11*
X110529000Y-120051000D03*
X110529000Y-117851000D03*
X113069000Y-120051000D03*
X113069000Y-117851000D03*
D12*
X123010000Y-106500000D03*
X125210000Y-106500000D03*
X122730000Y-93490000D03*
X124930000Y-93490000D03*
X124860000Y-87650000D03*
X122660000Y-87650000D03*
X124880000Y-89430000D03*
X122680000Y-89430000D03*
X126980000Y-95070000D03*
X129180000Y-95070000D03*
D11*
X115609000Y-120051000D03*
X115609000Y-117851000D03*
X118149000Y-120051000D03*
X118149000Y-117851000D03*
X120689000Y-120051000D03*
X120689000Y-117851000D03*
X123229000Y-120051000D03*
X123229000Y-117851000D03*
X125769000Y-120051000D03*
X125769000Y-117851000D03*
X128309000Y-120051000D03*
X128309000Y-117851000D03*
X141009000Y-120051000D03*
X141009000Y-117851000D03*
X143549000Y-120051000D03*
X143549000Y-117851000D03*
X146089000Y-120051000D03*
X146089000Y-117851000D03*
X148629000Y-120051000D03*
X148629000Y-117851000D03*
X151169000Y-120051000D03*
X151169000Y-117851000D03*
X153709000Y-120051000D03*
X153709000Y-117851000D03*
X156249000Y-120051000D03*
X156249000Y-117851000D03*
X158789000Y-120051000D03*
X158789000Y-117851000D03*
X157660000Y-94870000D03*
X157660000Y-97070000D03*
X155614000Y-94864000D03*
X155614000Y-97064000D03*
D13*
X172802000Y-121298000D03*
X172802000Y-119398000D03*
X174834000Y-121298000D03*
X174834000Y-119398000D03*
D14*
X168490000Y-113160000D03*
X166590000Y-113160000D03*
D12*
X153740000Y-84570000D03*
X151540000Y-84570000D03*
D14*
X129170000Y-104680000D03*
X127270000Y-104680000D03*
X129130000Y-91810000D03*
X127230000Y-91810000D03*
X140595000Y-101265000D03*
X138695000Y-101265000D03*
X139640000Y-105030000D03*
X141540000Y-105030000D03*
X137340000Y-107490000D03*
X135440000Y-107490000D03*
X169200000Y-103600000D03*
X167300000Y-103600000D03*
D13*
X142575000Y-101775000D03*
X142575000Y-99875000D03*
D14*
X123010000Y-104690000D03*
X124910000Y-104690000D03*
X122750000Y-91810000D03*
X124650000Y-91810000D03*
X123010000Y-100270000D03*
X124910000Y-100270000D03*
X129170000Y-100270000D03*
X127270000Y-100270000D03*
X179010000Y-117400000D03*
X180910000Y-117400000D03*
X179010000Y-115720000D03*
X180910000Y-115720000D03*
D12*
X168540000Y-116980000D03*
X166340000Y-116980000D03*
D14*
X138712000Y-97176000D03*
X140612000Y-97176000D03*
X140612000Y-99208000D03*
X138712000Y-99208000D03*
M02*
