G04 #@! TF.FileFunction,Copper,L2,Inr,Mixed*
%FSLAX46Y46*%
G04 Gerber Fmt 4.6, Leading zero omitted, Abs format (unit mm)*
G04 Created by KiCad (PCBNEW (2015-11-11 BZR 6310)-product) date Wed 23 Dec 2015 07:39:48 PM CST*
%MOMM*%
G01*
G04 APERTURE LIST*
%ADD10C,0.100000*%
%ADD11C,3.000000*%
%ADD12R,1.727200X2.032000*%
%ADD13O,1.727200X2.032000*%
%ADD14O,1.250000X0.950000*%
%ADD15O,1.000000X1.550000*%
%ADD16R,2.032000X1.727200*%
%ADD17O,2.032000X1.727200*%
%ADD18C,2.500000*%
%ADD19R,2.500000X2.500000*%
%ADD20R,1.200000X1.200000*%
%ADD21C,1.200000*%
%ADD22C,1.998980*%
%ADD23C,0.609600*%
%ADD24C,0.254000*%
G04 APERTURE END LIST*
D10*
D11*
X188100000Y-111500000D03*
X111100000Y-111500000D03*
X188100000Y-80000000D03*
X111100000Y-80000000D03*
D12*
X183300000Y-99520000D03*
D13*
X185840000Y-99520000D03*
X188380000Y-99520000D03*
D12*
X183300000Y-102060000D03*
D13*
X185840000Y-102060000D03*
X188380000Y-102060000D03*
D12*
X183300000Y-104600000D03*
D13*
X185840000Y-104600000D03*
X188380000Y-104600000D03*
D12*
X183300000Y-107140000D03*
D13*
X185840000Y-107140000D03*
X188380000Y-107140000D03*
D12*
X115736000Y-89614000D03*
D13*
X113196000Y-89614000D03*
X110656000Y-89614000D03*
D12*
X115736000Y-92154000D03*
D13*
X113196000Y-92154000D03*
X110656000Y-92154000D03*
D12*
X115736000Y-94694000D03*
D13*
X113196000Y-94694000D03*
X110656000Y-94694000D03*
D12*
X115736000Y-97234000D03*
D13*
X113196000Y-97234000D03*
X110656000Y-97234000D03*
D12*
X115736000Y-99774000D03*
D13*
X113196000Y-99774000D03*
X110656000Y-99774000D03*
D12*
X115736000Y-102314000D03*
D13*
X113196000Y-102314000D03*
X110656000Y-102314000D03*
D12*
X115736000Y-104854000D03*
D13*
X113196000Y-104854000D03*
X110656000Y-104854000D03*
D12*
X115736000Y-107394000D03*
D13*
X113196000Y-107394000D03*
X110656000Y-107394000D03*
D14*
X171655100Y-124373460D03*
X176655100Y-124373460D03*
D15*
X170655100Y-127073460D03*
X177655100Y-127073460D03*
D16*
X110529000Y-122380000D03*
D17*
X110529000Y-124920000D03*
X110529000Y-127460000D03*
D16*
X113069000Y-122380000D03*
D17*
X113069000Y-124920000D03*
X113069000Y-127460000D03*
D16*
X115609000Y-122380000D03*
D17*
X115609000Y-124920000D03*
X115609000Y-127460000D03*
D16*
X118149000Y-122380000D03*
D17*
X118149000Y-124920000D03*
X118149000Y-127460000D03*
D16*
X120689000Y-122380000D03*
D17*
X120689000Y-124920000D03*
X120689000Y-127460000D03*
D16*
X123229000Y-122380000D03*
D17*
X123229000Y-124920000D03*
X123229000Y-127460000D03*
D16*
X125769000Y-122380000D03*
D17*
X125769000Y-124920000D03*
X125769000Y-127460000D03*
D16*
X128309000Y-122380000D03*
D17*
X128309000Y-124920000D03*
X128309000Y-127460000D03*
D16*
X141009000Y-122380000D03*
D17*
X141009000Y-124920000D03*
X141009000Y-127460000D03*
D16*
X143549000Y-122380000D03*
D17*
X143549000Y-124920000D03*
X143549000Y-127460000D03*
D16*
X146089000Y-122380000D03*
D17*
X146089000Y-124920000D03*
X146089000Y-127460000D03*
D16*
X148629000Y-122380000D03*
D17*
X148629000Y-124920000D03*
X148629000Y-127460000D03*
D16*
X151169000Y-122380000D03*
D17*
X151169000Y-124920000D03*
X151169000Y-127460000D03*
D16*
X153709000Y-122380000D03*
D17*
X153709000Y-124920000D03*
X153709000Y-127460000D03*
D16*
X156249000Y-122380000D03*
D17*
X156249000Y-124920000D03*
X156249000Y-127460000D03*
D16*
X158789000Y-122380000D03*
D17*
X158789000Y-124920000D03*
X158789000Y-127460000D03*
D16*
X134532000Y-122380000D03*
D17*
X134532000Y-124920000D03*
X134532000Y-127460000D03*
D16*
X165012000Y-122380000D03*
D17*
X165012000Y-124920000D03*
X165012000Y-127460000D03*
D12*
X118310000Y-84890000D03*
D13*
X115770000Y-84890000D03*
X113230000Y-84890000D03*
X110690000Y-84890000D03*
D18*
X172284000Y-80724000D03*
D19*
X182284000Y-80724000D03*
D18*
X177284000Y-80724000D03*
D20*
X117100000Y-81000000D03*
D21*
X117100000Y-79000000D03*
X119100000Y-81000000D03*
X119100000Y-79000000D03*
X121100000Y-81000000D03*
X121100000Y-79000000D03*
X123100000Y-81000000D03*
X123100000Y-79000000D03*
X125100000Y-81000000D03*
X125100000Y-79000000D03*
X127100000Y-81000000D03*
X127100000Y-79000000D03*
X129100000Y-81000000D03*
X129100000Y-79000000D03*
X131100000Y-81000000D03*
X131100000Y-79000000D03*
X133100000Y-81000000D03*
X133100000Y-79000000D03*
X135100000Y-81000000D03*
X135100000Y-79000000D03*
X137100000Y-81000000D03*
X137100000Y-79000000D03*
X139100000Y-81000000D03*
X139100000Y-79000000D03*
X141100000Y-81000000D03*
X141100000Y-79000000D03*
X143100000Y-81000000D03*
X143100000Y-79000000D03*
X145100000Y-81000000D03*
X145100000Y-79000000D03*
X147100000Y-81000000D03*
X147100000Y-79000000D03*
X149100000Y-81000000D03*
X149100000Y-79000000D03*
X151100000Y-81000000D03*
X151100000Y-79000000D03*
X153100000Y-81000000D03*
X153100000Y-79000000D03*
X155100000Y-81000000D03*
X155100000Y-79000000D03*
D22*
X188750000Y-94650000D03*
X188750000Y-84490000D03*
D23*
X142070000Y-103580000D03*
X138580000Y-105060000D03*
X131170000Y-91810000D03*
X127680000Y-93780000D03*
X132100000Y-86870000D03*
X136050000Y-86800000D03*
X148740000Y-93000000D03*
X148590000Y-87660000D03*
X130410000Y-104690000D03*
X130420000Y-100270000D03*
X152050000Y-91890000D03*
X160430000Y-99570000D03*
X148950000Y-89890000D03*
X151890000Y-86580000D03*
X138630000Y-110740000D03*
X148820000Y-84580000D03*
X148300000Y-107560000D03*
X141375000Y-96075000D03*
X142575000Y-98625000D03*
X142780000Y-105030000D03*
X137230000Y-102060000D03*
X130280000Y-116380000D03*
X129750000Y-109440000D03*
X138640000Y-109440000D03*
X130360000Y-92450000D03*
X126110000Y-104680000D03*
X167290000Y-102630000D03*
X159070000Y-97330000D03*
X180760000Y-95910000D03*
X177730000Y-104950000D03*
X177720000Y-103960000D03*
X164250000Y-100360000D03*
X138585000Y-100255000D03*
X134270000Y-107490000D03*
X182180000Y-117400000D03*
X182200000Y-115720000D03*
X165260000Y-114440000D03*
X171510000Y-119410000D03*
X176140000Y-119410000D03*
X159090000Y-93950000D03*
X171110000Y-100100000D03*
X176570000Y-93930000D03*
X171120000Y-87750000D03*
X155850000Y-85830000D03*
X163500000Y-81000000D03*
X177570000Y-114450000D03*
X169870000Y-115080000D03*
X175450000Y-122960000D03*
X130350000Y-107490000D03*
X129750000Y-108140000D03*
X130350000Y-108790000D03*
X125970000Y-91810000D03*
X126080000Y-100270000D03*
X121660000Y-95070000D03*
X121260000Y-86390000D03*
X171700000Y-121300000D03*
X175975000Y-121300000D03*
X159090000Y-95630000D03*
X172330000Y-113810000D03*
X139665000Y-96025000D03*
X153740000Y-83440000D03*
X153720000Y-88740000D03*
X125470000Y-84900000D03*
X125210000Y-107500000D03*
X126030000Y-93490000D03*
X180270000Y-111310000D03*
X170420000Y-103610000D03*
X146890000Y-109410000D03*
X146890000Y-107570000D03*
X138740000Y-107490000D03*
X121640000Y-100280000D03*
X141990000Y-107560000D03*
X141980000Y-109420000D03*
X129720000Y-110740000D03*
X130330000Y-111390000D03*
X121780000Y-104690000D03*
X121390000Y-91810000D03*
X120110000Y-87090000D03*
X121220000Y-89430000D03*
X130380000Y-95070000D03*
X129660000Y-112040000D03*
X130280000Y-112680000D03*
X129670000Y-113340000D03*
X130270000Y-113990000D03*
X129650000Y-114630000D03*
X130170000Y-115280000D03*
X138620000Y-115950000D03*
X139200000Y-115290000D03*
X138610000Y-114640000D03*
X139210000Y-113990000D03*
X138610000Y-113340000D03*
X139190000Y-112690000D03*
X138640000Y-112040000D03*
X139210000Y-111390000D03*
X171880000Y-107900000D03*
X158850000Y-107520000D03*
X158850000Y-108690000D03*
X175030000Y-116790000D03*
X140575000Y-100225000D03*
X143625000Y-101775000D03*
X134660000Y-105160000D03*
X146275000Y-96075000D03*
X135330000Y-102290000D03*
X128080000Y-81900000D03*
X134040000Y-103270000D03*
X136100000Y-104260000D03*
X130060000Y-81900000D03*
X179930000Y-118590000D03*
X169810000Y-113160000D03*
X177540000Y-115710000D03*
X126660000Y-84920000D03*
X170190000Y-109710000D03*
X169870000Y-116980000D03*
D24*
G36*
X191414492Y-129315000D02*
X107785000Y-129315000D01*
X107785000Y-127819026D01*
X108921642Y-127819026D01*
X108924291Y-127834791D01*
X109178268Y-128362036D01*
X109614680Y-128751954D01*
X110167087Y-128945184D01*
X110402000Y-128800924D01*
X110402000Y-127587000D01*
X110656000Y-127587000D01*
X110656000Y-128800924D01*
X110890913Y-128945184D01*
X111443320Y-128751954D01*
X111799000Y-128434167D01*
X112154680Y-128751954D01*
X112707087Y-128945184D01*
X112942000Y-128800924D01*
X112942000Y-127587000D01*
X113196000Y-127587000D01*
X113196000Y-128800924D01*
X113430913Y-128945184D01*
X113983320Y-128751954D01*
X114339000Y-128434167D01*
X114694680Y-128751954D01*
X115247087Y-128945184D01*
X115482000Y-128800924D01*
X115482000Y-127587000D01*
X115736000Y-127587000D01*
X115736000Y-128800924D01*
X115970913Y-128945184D01*
X116523320Y-128751954D01*
X116879000Y-128434167D01*
X117234680Y-128751954D01*
X117787087Y-128945184D01*
X118022000Y-128800924D01*
X118022000Y-127587000D01*
X118276000Y-127587000D01*
X118276000Y-128800924D01*
X118510913Y-128945184D01*
X119063320Y-128751954D01*
X119419000Y-128434167D01*
X119774680Y-128751954D01*
X120327087Y-128945184D01*
X120562000Y-128800924D01*
X120562000Y-127587000D01*
X120816000Y-127587000D01*
X120816000Y-128800924D01*
X121050913Y-128945184D01*
X121603320Y-128751954D01*
X121959000Y-128434167D01*
X122314680Y-128751954D01*
X122867087Y-128945184D01*
X123102000Y-128800924D01*
X123102000Y-127587000D01*
X123356000Y-127587000D01*
X123356000Y-128800924D01*
X123590913Y-128945184D01*
X124143320Y-128751954D01*
X124499000Y-128434167D01*
X124854680Y-128751954D01*
X125407087Y-128945184D01*
X125642000Y-128800924D01*
X125642000Y-127587000D01*
X125896000Y-127587000D01*
X125896000Y-128800924D01*
X126130913Y-128945184D01*
X126683320Y-128751954D01*
X127039000Y-128434167D01*
X127394680Y-128751954D01*
X127947087Y-128945184D01*
X128182000Y-128800924D01*
X128182000Y-127587000D01*
X128436000Y-127587000D01*
X128436000Y-128800924D01*
X128670913Y-128945184D01*
X129223320Y-128751954D01*
X129659732Y-128362036D01*
X129913709Y-127834791D01*
X129916358Y-127819026D01*
X129795217Y-127587000D01*
X128436000Y-127587000D01*
X128182000Y-127587000D01*
X125896000Y-127587000D01*
X125642000Y-127587000D01*
X123356000Y-127587000D01*
X123102000Y-127587000D01*
X120816000Y-127587000D01*
X120562000Y-127587000D01*
X118276000Y-127587000D01*
X118022000Y-127587000D01*
X115736000Y-127587000D01*
X115482000Y-127587000D01*
X113196000Y-127587000D01*
X112942000Y-127587000D01*
X110656000Y-127587000D01*
X110402000Y-127587000D01*
X109042783Y-127587000D01*
X108921642Y-127819026D01*
X107785000Y-127819026D01*
X107785000Y-124920000D01*
X108845655Y-124920000D01*
X108959729Y-125493489D01*
X109284585Y-125979670D01*
X109594069Y-126186461D01*
X109178268Y-126557964D01*
X108924291Y-127085209D01*
X108921642Y-127100974D01*
X109042783Y-127333000D01*
X110402000Y-127333000D01*
X110402000Y-127313000D01*
X110656000Y-127313000D01*
X110656000Y-127333000D01*
X112942000Y-127333000D01*
X112942000Y-127313000D01*
X113196000Y-127313000D01*
X113196000Y-127333000D01*
X115482000Y-127333000D01*
X115482000Y-127313000D01*
X115736000Y-127313000D01*
X115736000Y-127333000D01*
X118022000Y-127333000D01*
X118022000Y-127313000D01*
X118276000Y-127313000D01*
X118276000Y-127333000D01*
X120562000Y-127333000D01*
X120562000Y-127313000D01*
X120816000Y-127313000D01*
X120816000Y-127333000D01*
X123102000Y-127333000D01*
X123102000Y-127313000D01*
X123356000Y-127313000D01*
X123356000Y-127333000D01*
X125642000Y-127333000D01*
X125642000Y-127313000D01*
X125896000Y-127313000D01*
X125896000Y-127333000D01*
X128182000Y-127333000D01*
X128182000Y-127313000D01*
X128436000Y-127313000D01*
X128436000Y-127333000D01*
X129795217Y-127333000D01*
X129916358Y-127100974D01*
X129913709Y-127085209D01*
X129659732Y-126557964D01*
X129243931Y-126186461D01*
X129553415Y-125979670D01*
X129878271Y-125493489D01*
X129992345Y-124920000D01*
X132848655Y-124920000D01*
X132962729Y-125493489D01*
X133287585Y-125979670D01*
X133602366Y-126190000D01*
X133287585Y-126400330D01*
X132962729Y-126886511D01*
X132848655Y-127460000D01*
X132962729Y-128033489D01*
X133287585Y-128519670D01*
X133773766Y-128844526D01*
X134347255Y-128958600D01*
X134716745Y-128958600D01*
X135290234Y-128844526D01*
X135776415Y-128519670D01*
X136101271Y-128033489D01*
X136143930Y-127819026D01*
X139401642Y-127819026D01*
X139404291Y-127834791D01*
X139658268Y-128362036D01*
X140094680Y-128751954D01*
X140647087Y-128945184D01*
X140882000Y-128800924D01*
X140882000Y-127587000D01*
X141136000Y-127587000D01*
X141136000Y-128800924D01*
X141370913Y-128945184D01*
X141923320Y-128751954D01*
X142279000Y-128434167D01*
X142634680Y-128751954D01*
X143187087Y-128945184D01*
X143422000Y-128800924D01*
X143422000Y-127587000D01*
X143676000Y-127587000D01*
X143676000Y-128800924D01*
X143910913Y-128945184D01*
X144463320Y-128751954D01*
X144819000Y-128434167D01*
X145174680Y-128751954D01*
X145727087Y-128945184D01*
X145962000Y-128800924D01*
X145962000Y-127587000D01*
X146216000Y-127587000D01*
X146216000Y-128800924D01*
X146450913Y-128945184D01*
X147003320Y-128751954D01*
X147359000Y-128434167D01*
X147714680Y-128751954D01*
X148267087Y-128945184D01*
X148502000Y-128800924D01*
X148502000Y-127587000D01*
X148756000Y-127587000D01*
X148756000Y-128800924D01*
X148990913Y-128945184D01*
X149543320Y-128751954D01*
X149899000Y-128434167D01*
X150254680Y-128751954D01*
X150807087Y-128945184D01*
X151042000Y-128800924D01*
X151042000Y-127587000D01*
X151296000Y-127587000D01*
X151296000Y-128800924D01*
X151530913Y-128945184D01*
X152083320Y-128751954D01*
X152439000Y-128434167D01*
X152794680Y-128751954D01*
X153347087Y-128945184D01*
X153582000Y-128800924D01*
X153582000Y-127587000D01*
X153836000Y-127587000D01*
X153836000Y-128800924D01*
X154070913Y-128945184D01*
X154623320Y-128751954D01*
X154979000Y-128434167D01*
X155334680Y-128751954D01*
X155887087Y-128945184D01*
X156122000Y-128800924D01*
X156122000Y-127587000D01*
X156376000Y-127587000D01*
X156376000Y-128800924D01*
X156610913Y-128945184D01*
X157163320Y-128751954D01*
X157519000Y-128434167D01*
X157874680Y-128751954D01*
X158427087Y-128945184D01*
X158662000Y-128800924D01*
X158662000Y-127587000D01*
X158916000Y-127587000D01*
X158916000Y-128800924D01*
X159150913Y-128945184D01*
X159703320Y-128751954D01*
X160139732Y-128362036D01*
X160393709Y-127834791D01*
X160396358Y-127819026D01*
X160275217Y-127587000D01*
X158916000Y-127587000D01*
X158662000Y-127587000D01*
X156376000Y-127587000D01*
X156122000Y-127587000D01*
X153836000Y-127587000D01*
X153582000Y-127587000D01*
X151296000Y-127587000D01*
X151042000Y-127587000D01*
X148756000Y-127587000D01*
X148502000Y-127587000D01*
X146216000Y-127587000D01*
X145962000Y-127587000D01*
X143676000Y-127587000D01*
X143422000Y-127587000D01*
X141136000Y-127587000D01*
X140882000Y-127587000D01*
X139522783Y-127587000D01*
X139401642Y-127819026D01*
X136143930Y-127819026D01*
X136215345Y-127460000D01*
X136101271Y-126886511D01*
X135776415Y-126400330D01*
X135461634Y-126190000D01*
X135776415Y-125979670D01*
X136101271Y-125493489D01*
X136215345Y-124920000D01*
X139325655Y-124920000D01*
X139439729Y-125493489D01*
X139764585Y-125979670D01*
X140074069Y-126186461D01*
X139658268Y-126557964D01*
X139404291Y-127085209D01*
X139401642Y-127100974D01*
X139522783Y-127333000D01*
X140882000Y-127333000D01*
X140882000Y-127313000D01*
X141136000Y-127313000D01*
X141136000Y-127333000D01*
X143422000Y-127333000D01*
X143422000Y-127313000D01*
X143676000Y-127313000D01*
X143676000Y-127333000D01*
X145962000Y-127333000D01*
X145962000Y-127313000D01*
X146216000Y-127313000D01*
X146216000Y-127333000D01*
X148502000Y-127333000D01*
X148502000Y-127313000D01*
X148756000Y-127313000D01*
X148756000Y-127333000D01*
X151042000Y-127333000D01*
X151042000Y-127313000D01*
X151296000Y-127313000D01*
X151296000Y-127333000D01*
X153582000Y-127333000D01*
X153582000Y-127313000D01*
X153836000Y-127313000D01*
X153836000Y-127333000D01*
X156122000Y-127333000D01*
X156122000Y-127313000D01*
X156376000Y-127313000D01*
X156376000Y-127333000D01*
X158662000Y-127333000D01*
X158662000Y-127313000D01*
X158916000Y-127313000D01*
X158916000Y-127333000D01*
X160275217Y-127333000D01*
X160396358Y-127100974D01*
X160393709Y-127085209D01*
X160139732Y-126557964D01*
X159723931Y-126186461D01*
X160033415Y-125979670D01*
X160358271Y-125493489D01*
X160472345Y-124920000D01*
X163328655Y-124920000D01*
X163442729Y-125493489D01*
X163767585Y-125979670D01*
X164082366Y-126190000D01*
X163767585Y-126400330D01*
X163442729Y-126886511D01*
X163328655Y-127460000D01*
X163442729Y-128033489D01*
X163767585Y-128519670D01*
X164253766Y-128844526D01*
X164827255Y-128958600D01*
X165196745Y-128958600D01*
X165770234Y-128844526D01*
X166256415Y-128519670D01*
X166581271Y-128033489D01*
X166695345Y-127460000D01*
X166643720Y-127200460D01*
X169520100Y-127200460D01*
X169520100Y-127475460D01*
X169655098Y-127900138D01*
X169942337Y-128240828D01*
X170353226Y-128442579D01*
X170528100Y-128316414D01*
X170528100Y-127200460D01*
X170782100Y-127200460D01*
X170782100Y-128316414D01*
X170956974Y-128442579D01*
X171367863Y-128240828D01*
X171655102Y-127900138D01*
X171790100Y-127475460D01*
X171790100Y-127200460D01*
X176520100Y-127200460D01*
X176520100Y-127475460D01*
X176655098Y-127900138D01*
X176942337Y-128240828D01*
X177353226Y-128442579D01*
X177528100Y-128316414D01*
X177528100Y-127200460D01*
X177782100Y-127200460D01*
X177782100Y-128316414D01*
X177956974Y-128442579D01*
X178367863Y-128240828D01*
X178655102Y-127900138D01*
X178790100Y-127475460D01*
X178790100Y-127200460D01*
X177782100Y-127200460D01*
X177528100Y-127200460D01*
X176520100Y-127200460D01*
X171790100Y-127200460D01*
X170782100Y-127200460D01*
X170528100Y-127200460D01*
X169520100Y-127200460D01*
X166643720Y-127200460D01*
X166581271Y-126886511D01*
X166437579Y-126671460D01*
X169520100Y-126671460D01*
X169520100Y-126946460D01*
X170528100Y-126946460D01*
X170528100Y-125830506D01*
X170782100Y-125830506D01*
X170782100Y-126946460D01*
X171790100Y-126946460D01*
X171790100Y-126671460D01*
X176520100Y-126671460D01*
X176520100Y-126946460D01*
X177528100Y-126946460D01*
X177528100Y-125830506D01*
X177782100Y-125830506D01*
X177782100Y-126946460D01*
X178790100Y-126946460D01*
X178790100Y-126671460D01*
X178655102Y-126246782D01*
X178367863Y-125906092D01*
X177956974Y-125704341D01*
X177782100Y-125830506D01*
X177528100Y-125830506D01*
X177353226Y-125704341D01*
X176942337Y-125906092D01*
X176655098Y-126246782D01*
X176520100Y-126671460D01*
X171790100Y-126671460D01*
X171655102Y-126246782D01*
X171367863Y-125906092D01*
X170956974Y-125704341D01*
X170782100Y-125830506D01*
X170528100Y-125830506D01*
X170353226Y-125704341D01*
X169942337Y-125906092D01*
X169655098Y-126246782D01*
X169520100Y-126671460D01*
X166437579Y-126671460D01*
X166256415Y-126400330D01*
X165941634Y-126190000D01*
X166256415Y-125979670D01*
X166581271Y-125493489D01*
X166695345Y-124920000D01*
X166645896Y-124671398D01*
X170435832Y-124671398D01*
X170619548Y-125045281D01*
X170944051Y-125333028D01*
X171353969Y-125474689D01*
X171528100Y-125326023D01*
X171528100Y-124500460D01*
X171782100Y-124500460D01*
X171782100Y-125326023D01*
X171956231Y-125474689D01*
X172366149Y-125333028D01*
X172690652Y-125045281D01*
X172874368Y-124671398D01*
X175435832Y-124671398D01*
X175619548Y-125045281D01*
X175944051Y-125333028D01*
X176353969Y-125474689D01*
X176528100Y-125326023D01*
X176528100Y-124500460D01*
X176782100Y-124500460D01*
X176782100Y-125326023D01*
X176956231Y-125474689D01*
X177366149Y-125333028D01*
X177690652Y-125045281D01*
X177874368Y-124671398D01*
X177747834Y-124500460D01*
X176782100Y-124500460D01*
X176528100Y-124500460D01*
X175562366Y-124500460D01*
X175435832Y-124671398D01*
X172874368Y-124671398D01*
X172747834Y-124500460D01*
X171782100Y-124500460D01*
X171528100Y-124500460D01*
X170562366Y-124500460D01*
X170435832Y-124671398D01*
X166645896Y-124671398D01*
X166581271Y-124346511D01*
X166400202Y-124075522D01*
X170435832Y-124075522D01*
X170562366Y-124246460D01*
X171528100Y-124246460D01*
X171528100Y-123420897D01*
X171782100Y-123420897D01*
X171782100Y-124246460D01*
X172747834Y-124246460D01*
X172874368Y-124075522D01*
X175435832Y-124075522D01*
X175562366Y-124246460D01*
X176528100Y-124246460D01*
X176528100Y-123420897D01*
X176782100Y-123420897D01*
X176782100Y-124246460D01*
X177747834Y-124246460D01*
X177874368Y-124075522D01*
X177690652Y-123701639D01*
X177366149Y-123413892D01*
X176956231Y-123272231D01*
X176782100Y-123420897D01*
X176528100Y-123420897D01*
X176353969Y-123272231D01*
X175944051Y-123413892D01*
X175619548Y-123701639D01*
X175435832Y-124075522D01*
X172874368Y-124075522D01*
X172690652Y-123701639D01*
X172366149Y-123413892D01*
X171956231Y-123272231D01*
X171782100Y-123420897D01*
X171528100Y-123420897D01*
X171353969Y-123272231D01*
X170944051Y-123413892D01*
X170619548Y-123701639D01*
X170435832Y-124075522D01*
X166400202Y-124075522D01*
X166256415Y-123860330D01*
X166242087Y-123850757D01*
X166263317Y-123846762D01*
X166479441Y-123707690D01*
X166624431Y-123495490D01*
X166675440Y-123243600D01*
X166675440Y-121516400D01*
X166669743Y-121486118D01*
X170760037Y-121486118D01*
X170902812Y-121831659D01*
X171166951Y-122096259D01*
X171512242Y-122239637D01*
X171886118Y-122239963D01*
X172231659Y-122097188D01*
X172496259Y-121833049D01*
X172639637Y-121487758D01*
X172639638Y-121486118D01*
X175035037Y-121486118D01*
X175177812Y-121831659D01*
X175441951Y-122096259D01*
X175787242Y-122239637D01*
X176161118Y-122239963D01*
X176506659Y-122097188D01*
X176771259Y-121833049D01*
X176914637Y-121487758D01*
X176914963Y-121113882D01*
X176772188Y-120768341D01*
X176508049Y-120503741D01*
X176162758Y-120360363D01*
X175788882Y-120360037D01*
X175443341Y-120502812D01*
X175178741Y-120766951D01*
X175035363Y-121112242D01*
X175035037Y-121486118D01*
X172639638Y-121486118D01*
X172639963Y-121113882D01*
X172497188Y-120768341D01*
X172233049Y-120503741D01*
X171887758Y-120360363D01*
X171513882Y-120360037D01*
X171168341Y-120502812D01*
X170903741Y-120766951D01*
X170760363Y-121112242D01*
X170760037Y-121486118D01*
X166669743Y-121486118D01*
X166631162Y-121281083D01*
X166492090Y-121064959D01*
X166279890Y-120919969D01*
X166028000Y-120868960D01*
X163996000Y-120868960D01*
X163760683Y-120913238D01*
X163544559Y-121052310D01*
X163399569Y-121264510D01*
X163348560Y-121516400D01*
X163348560Y-123243600D01*
X163392838Y-123478917D01*
X163531910Y-123695041D01*
X163744110Y-123840031D01*
X163785439Y-123848400D01*
X163767585Y-123860330D01*
X163442729Y-124346511D01*
X163328655Y-124920000D01*
X160472345Y-124920000D01*
X160358271Y-124346511D01*
X160033415Y-123860330D01*
X160019087Y-123850757D01*
X160040317Y-123846762D01*
X160256441Y-123707690D01*
X160401431Y-123495490D01*
X160452440Y-123243600D01*
X160452440Y-121516400D01*
X160408162Y-121281083D01*
X160269090Y-121064959D01*
X160056890Y-120919969D01*
X159805000Y-120868960D01*
X157773000Y-120868960D01*
X157537683Y-120913238D01*
X157521901Y-120923393D01*
X157516890Y-120919969D01*
X157265000Y-120868960D01*
X155233000Y-120868960D01*
X154997683Y-120913238D01*
X154981901Y-120923393D01*
X154976890Y-120919969D01*
X154725000Y-120868960D01*
X152693000Y-120868960D01*
X152457683Y-120913238D01*
X152441901Y-120923393D01*
X152436890Y-120919969D01*
X152185000Y-120868960D01*
X150153000Y-120868960D01*
X149917683Y-120913238D01*
X149901901Y-120923393D01*
X149896890Y-120919969D01*
X149645000Y-120868960D01*
X147613000Y-120868960D01*
X147377683Y-120913238D01*
X147361901Y-120923393D01*
X147356890Y-120919969D01*
X147105000Y-120868960D01*
X145073000Y-120868960D01*
X144837683Y-120913238D01*
X144821901Y-120923393D01*
X144816890Y-120919969D01*
X144565000Y-120868960D01*
X142533000Y-120868960D01*
X142297683Y-120913238D01*
X142281901Y-120923393D01*
X142276890Y-120919969D01*
X142025000Y-120868960D01*
X139993000Y-120868960D01*
X139757683Y-120913238D01*
X139541559Y-121052310D01*
X139396569Y-121264510D01*
X139345560Y-121516400D01*
X139345560Y-123243600D01*
X139389838Y-123478917D01*
X139528910Y-123695041D01*
X139741110Y-123840031D01*
X139782439Y-123848400D01*
X139764585Y-123860330D01*
X139439729Y-124346511D01*
X139325655Y-124920000D01*
X136215345Y-124920000D01*
X136101271Y-124346511D01*
X135776415Y-123860330D01*
X135762087Y-123850757D01*
X135783317Y-123846762D01*
X135999441Y-123707690D01*
X136144431Y-123495490D01*
X136195440Y-123243600D01*
X136195440Y-121516400D01*
X136151162Y-121281083D01*
X136012090Y-121064959D01*
X135799890Y-120919969D01*
X135548000Y-120868960D01*
X133516000Y-120868960D01*
X133280683Y-120913238D01*
X133064559Y-121052310D01*
X132919569Y-121264510D01*
X132868560Y-121516400D01*
X132868560Y-123243600D01*
X132912838Y-123478917D01*
X133051910Y-123695041D01*
X133264110Y-123840031D01*
X133305439Y-123848400D01*
X133287585Y-123860330D01*
X132962729Y-124346511D01*
X132848655Y-124920000D01*
X129992345Y-124920000D01*
X129878271Y-124346511D01*
X129553415Y-123860330D01*
X129539087Y-123850757D01*
X129560317Y-123846762D01*
X129776441Y-123707690D01*
X129921431Y-123495490D01*
X129972440Y-123243600D01*
X129972440Y-121516400D01*
X129928162Y-121281083D01*
X129789090Y-121064959D01*
X129576890Y-120919969D01*
X129325000Y-120868960D01*
X127293000Y-120868960D01*
X127057683Y-120913238D01*
X127041901Y-120923393D01*
X127036890Y-120919969D01*
X126785000Y-120868960D01*
X124753000Y-120868960D01*
X124517683Y-120913238D01*
X124501901Y-120923393D01*
X124496890Y-120919969D01*
X124245000Y-120868960D01*
X122213000Y-120868960D01*
X121977683Y-120913238D01*
X121961901Y-120923393D01*
X121956890Y-120919969D01*
X121705000Y-120868960D01*
X119673000Y-120868960D01*
X119437683Y-120913238D01*
X119421901Y-120923393D01*
X119416890Y-120919969D01*
X119165000Y-120868960D01*
X117133000Y-120868960D01*
X116897683Y-120913238D01*
X116881901Y-120923393D01*
X116876890Y-120919969D01*
X116625000Y-120868960D01*
X114593000Y-120868960D01*
X114357683Y-120913238D01*
X114341901Y-120923393D01*
X114336890Y-120919969D01*
X114085000Y-120868960D01*
X112053000Y-120868960D01*
X111817683Y-120913238D01*
X111801901Y-120923393D01*
X111796890Y-120919969D01*
X111545000Y-120868960D01*
X109513000Y-120868960D01*
X109277683Y-120913238D01*
X109061559Y-121052310D01*
X108916569Y-121264510D01*
X108865560Y-121516400D01*
X108865560Y-123243600D01*
X108909838Y-123478917D01*
X109048910Y-123695041D01*
X109261110Y-123840031D01*
X109302439Y-123848400D01*
X109284585Y-123860330D01*
X108959729Y-124346511D01*
X108845655Y-124920000D01*
X107785000Y-124920000D01*
X107785000Y-118776118D01*
X178990037Y-118776118D01*
X179132812Y-119121659D01*
X179396951Y-119386259D01*
X179742242Y-119529637D01*
X180116118Y-119529963D01*
X180461659Y-119387188D01*
X180726259Y-119123049D01*
X180869637Y-118777758D01*
X180869963Y-118403882D01*
X180727188Y-118058341D01*
X180463049Y-117793741D01*
X180117758Y-117650363D01*
X179743882Y-117650037D01*
X179398341Y-117792812D01*
X179133741Y-118056951D01*
X178990363Y-118402242D01*
X178990037Y-118776118D01*
X107785000Y-118776118D01*
X107785000Y-117166118D01*
X168930037Y-117166118D01*
X169072812Y-117511659D01*
X169336951Y-117776259D01*
X169682242Y-117919637D01*
X170056118Y-117919963D01*
X170401659Y-117777188D01*
X170666259Y-117513049D01*
X170809637Y-117167758D01*
X170809804Y-116976118D01*
X174090037Y-116976118D01*
X174232812Y-117321659D01*
X174496951Y-117586259D01*
X174842242Y-117729637D01*
X175216118Y-117729963D01*
X175561659Y-117587188D01*
X175826259Y-117323049D01*
X175969637Y-116977758D01*
X175969963Y-116603882D01*
X175827188Y-116258341D01*
X175563049Y-115993741D01*
X175327948Y-115896118D01*
X176600037Y-115896118D01*
X176742812Y-116241659D01*
X177006951Y-116506259D01*
X177352242Y-116649637D01*
X177726118Y-116649963D01*
X178071659Y-116507188D01*
X178336259Y-116243049D01*
X178479637Y-115897758D01*
X178479963Y-115523882D01*
X178337188Y-115178341D01*
X178073049Y-114913741D01*
X177727758Y-114770363D01*
X177353882Y-114770037D01*
X177008341Y-114912812D01*
X176743741Y-115176951D01*
X176600363Y-115522242D01*
X176600037Y-115896118D01*
X175327948Y-115896118D01*
X175217758Y-115850363D01*
X174843882Y-115850037D01*
X174498341Y-115992812D01*
X174233741Y-116256951D01*
X174090363Y-116602242D01*
X174090037Y-116976118D01*
X170809804Y-116976118D01*
X170809963Y-116793882D01*
X170667188Y-116448341D01*
X170403049Y-116183741D01*
X170057758Y-116040363D01*
X169683882Y-116040037D01*
X169338341Y-116182812D01*
X169073741Y-116446951D01*
X168930363Y-116792242D01*
X168930037Y-117166118D01*
X107785000Y-117166118D01*
X107785000Y-114816118D01*
X128710037Y-114816118D01*
X128852812Y-115161659D01*
X129116951Y-115426259D01*
X129233578Y-115474687D01*
X129372812Y-115811659D01*
X129636951Y-116076259D01*
X129982242Y-116219637D01*
X130356118Y-116219963D01*
X130701659Y-116077188D01*
X130966259Y-115813049D01*
X131109637Y-115467758D01*
X131109963Y-115093882D01*
X130967188Y-114748341D01*
X130903991Y-114685034D01*
X131066259Y-114523049D01*
X131209637Y-114177758D01*
X131209963Y-113803882D01*
X131095193Y-113526118D01*
X137670037Y-113526118D01*
X137812812Y-113871659D01*
X137930922Y-113989975D01*
X137813741Y-114106951D01*
X137670363Y-114452242D01*
X137670037Y-114826118D01*
X137812812Y-115171659D01*
X137940913Y-115299983D01*
X137823741Y-115416951D01*
X137680363Y-115762242D01*
X137680037Y-116136118D01*
X137822812Y-116481659D01*
X138086951Y-116746259D01*
X138432242Y-116889637D01*
X138806118Y-116889963D01*
X139151659Y-116747188D01*
X139416259Y-116483049D01*
X139549358Y-116162514D01*
X139731659Y-116087188D01*
X139996259Y-115823049D01*
X140139637Y-115477758D01*
X140139963Y-115103882D01*
X139997188Y-114758341D01*
X139884070Y-114645025D01*
X140006259Y-114523049D01*
X140149637Y-114177758D01*
X140149963Y-113803882D01*
X140007188Y-113458341D01*
X139895161Y-113346118D01*
X168870037Y-113346118D01*
X169012812Y-113691659D01*
X169276951Y-113956259D01*
X169622242Y-114099637D01*
X169996118Y-114099963D01*
X170247441Y-113996118D01*
X171390037Y-113996118D01*
X171532812Y-114341659D01*
X171796951Y-114606259D01*
X172142242Y-114749637D01*
X172516118Y-114749963D01*
X172861659Y-114607188D01*
X173126259Y-114343049D01*
X173269637Y-113997758D01*
X173269963Y-113623882D01*
X173127188Y-113278341D01*
X172863049Y-113013741D01*
X172517758Y-112870363D01*
X172143882Y-112870037D01*
X171798341Y-113012812D01*
X171533741Y-113276951D01*
X171390363Y-113622242D01*
X171390037Y-113996118D01*
X170247441Y-113996118D01*
X170341659Y-113957188D01*
X170606259Y-113693049D01*
X170749637Y-113347758D01*
X170749963Y-112973882D01*
X170607188Y-112628341D01*
X170343049Y-112363741D01*
X169997758Y-112220363D01*
X169623882Y-112220037D01*
X169278341Y-112362812D01*
X169013741Y-112626951D01*
X168870363Y-112972242D01*
X168870037Y-113346118D01*
X139895161Y-113346118D01*
X139879096Y-113330025D01*
X139986259Y-113223049D01*
X140129637Y-112877758D01*
X140129963Y-112503882D01*
X139987188Y-112158341D01*
X139879061Y-112050025D01*
X140006259Y-111923049D01*
X140149637Y-111577758D01*
X140149708Y-111496118D01*
X179330037Y-111496118D01*
X179472812Y-111841659D01*
X179736951Y-112106259D01*
X180082242Y-112249637D01*
X180456118Y-112249963D01*
X180801659Y-112107188D01*
X180986353Y-111922815D01*
X185964630Y-111922815D01*
X186288980Y-112707800D01*
X186889041Y-113308909D01*
X187673459Y-113634628D01*
X188522815Y-113635370D01*
X189307800Y-113311020D01*
X189908909Y-112710959D01*
X190234628Y-111926541D01*
X190235370Y-111077185D01*
X189911020Y-110292200D01*
X189310959Y-109691091D01*
X188526541Y-109365372D01*
X187677185Y-109364630D01*
X186892200Y-109688980D01*
X186291091Y-110289041D01*
X185965372Y-111073459D01*
X185964630Y-111922815D01*
X180986353Y-111922815D01*
X181066259Y-111843049D01*
X181209637Y-111497758D01*
X181209963Y-111123882D01*
X181067188Y-110778341D01*
X180803049Y-110513741D01*
X180457758Y-110370363D01*
X180083882Y-110370037D01*
X179738341Y-110512812D01*
X179473741Y-110776951D01*
X179330363Y-111122242D01*
X179330037Y-111496118D01*
X140149708Y-111496118D01*
X140149963Y-111203882D01*
X140007188Y-110858341D01*
X139743049Y-110593741D01*
X139553996Y-110515239D01*
X139427188Y-110208341D01*
X139163049Y-109943741D01*
X138817758Y-109800363D01*
X138443882Y-109800037D01*
X138098341Y-109942812D01*
X137833741Y-110206951D01*
X137690363Y-110552242D01*
X137690037Y-110926118D01*
X137832812Y-111271659D01*
X137955913Y-111394975D01*
X137843741Y-111506951D01*
X137700363Y-111852242D01*
X137700037Y-112226118D01*
X137842812Y-112571659D01*
X137945948Y-112674975D01*
X137813741Y-112806951D01*
X137670363Y-113152242D01*
X137670037Y-113526118D01*
X131095193Y-113526118D01*
X131067188Y-113458341D01*
X130949070Y-113340017D01*
X131076259Y-113213049D01*
X131219637Y-112867758D01*
X131219963Y-112493882D01*
X131077188Y-112148341D01*
X130989035Y-112060034D01*
X131126259Y-111923049D01*
X131269637Y-111577758D01*
X131269963Y-111203882D01*
X131127188Y-110858341D01*
X130863049Y-110593741D01*
X130637783Y-110500202D01*
X130517188Y-110208341D01*
X130253049Y-109943741D01*
X129907758Y-109800363D01*
X129533882Y-109800037D01*
X129188341Y-109942812D01*
X128923741Y-110206951D01*
X128780363Y-110552242D01*
X128780037Y-110926118D01*
X128922812Y-111271659D01*
X129010974Y-111359975D01*
X128863741Y-111506951D01*
X128720363Y-111852242D01*
X128720037Y-112226118D01*
X128862812Y-112571659D01*
X128985913Y-112694975D01*
X128873741Y-112806951D01*
X128730363Y-113152242D01*
X128730037Y-113526118D01*
X128872812Y-113871659D01*
X128975939Y-113974966D01*
X128853741Y-114096951D01*
X128710363Y-114442242D01*
X128710037Y-114816118D01*
X107785000Y-114816118D01*
X107785000Y-111922815D01*
X108964630Y-111922815D01*
X109288980Y-112707800D01*
X109889041Y-113308909D01*
X110673459Y-113634628D01*
X111522815Y-113635370D01*
X112307800Y-113311020D01*
X112908909Y-112710959D01*
X113234628Y-111926541D01*
X113235370Y-111077185D01*
X112911020Y-110292200D01*
X112310959Y-109691091D01*
X112106322Y-109606118D01*
X141040037Y-109606118D01*
X141182812Y-109951659D01*
X141446951Y-110216259D01*
X141792242Y-110359637D01*
X142166118Y-110359963D01*
X142511659Y-110217188D01*
X142776259Y-109953049D01*
X142919637Y-109607758D01*
X142919963Y-109233882D01*
X142777188Y-108888341D01*
X142513049Y-108623741D01*
X142195587Y-108491919D01*
X142521659Y-108357188D01*
X142786259Y-108093049D01*
X142926165Y-107756118D01*
X145950037Y-107756118D01*
X146092812Y-108101659D01*
X146356951Y-108366259D01*
X146655259Y-108490128D01*
X146358341Y-108612812D01*
X146093741Y-108876951D01*
X145950363Y-109222242D01*
X145950037Y-109596118D01*
X146092812Y-109941659D01*
X146356951Y-110206259D01*
X146702242Y-110349637D01*
X147076118Y-110349963D01*
X147421659Y-110207188D01*
X147686259Y-109943049D01*
X147705746Y-109896118D01*
X169250037Y-109896118D01*
X169392812Y-110241659D01*
X169656951Y-110506259D01*
X170002242Y-110649637D01*
X170376118Y-110649963D01*
X170721659Y-110507188D01*
X170986259Y-110243049D01*
X171129637Y-109897758D01*
X171129963Y-109523882D01*
X170987188Y-109178341D01*
X170723049Y-108913741D01*
X170377758Y-108770363D01*
X170003882Y-108770037D01*
X169658341Y-108912812D01*
X169393741Y-109176951D01*
X169250363Y-109522242D01*
X169250037Y-109896118D01*
X147705746Y-109896118D01*
X147829637Y-109597758D01*
X147829963Y-109223882D01*
X147687188Y-108878341D01*
X147423049Y-108613741D01*
X147124741Y-108489872D01*
X147421659Y-108367188D01*
X147600071Y-108189087D01*
X147766951Y-108356259D01*
X148112242Y-108499637D01*
X148486118Y-108499963D01*
X148831659Y-108357188D01*
X149096259Y-108093049D01*
X149239637Y-107747758D01*
X149239673Y-107706118D01*
X157910037Y-107706118D01*
X158052812Y-108051659D01*
X158105922Y-108104861D01*
X158053741Y-108156951D01*
X157910363Y-108502242D01*
X157910037Y-108876118D01*
X158052812Y-109221659D01*
X158316951Y-109486259D01*
X158662242Y-109629637D01*
X159036118Y-109629963D01*
X159381659Y-109487188D01*
X159646259Y-109223049D01*
X159789637Y-108877758D01*
X159789963Y-108503882D01*
X159647188Y-108158341D01*
X159594078Y-108105139D01*
X159613132Y-108086118D01*
X170940037Y-108086118D01*
X171082812Y-108431659D01*
X171346951Y-108696259D01*
X171692242Y-108839637D01*
X172066118Y-108839963D01*
X172411659Y-108697188D01*
X172676259Y-108433049D01*
X172819637Y-108087758D01*
X172819963Y-107713882D01*
X172677188Y-107368341D01*
X172413049Y-107103741D01*
X172067758Y-106960363D01*
X171693882Y-106960037D01*
X171348341Y-107102812D01*
X171083741Y-107366951D01*
X170940363Y-107712242D01*
X170940037Y-108086118D01*
X159613132Y-108086118D01*
X159646259Y-108053049D01*
X159789637Y-107707758D01*
X159789963Y-107333882D01*
X159647188Y-106988341D01*
X159383049Y-106723741D01*
X159037758Y-106580363D01*
X158663882Y-106580037D01*
X158318341Y-106722812D01*
X158053741Y-106986951D01*
X157910363Y-107332242D01*
X157910037Y-107706118D01*
X149239673Y-107706118D01*
X149239963Y-107373882D01*
X149097188Y-107028341D01*
X148833049Y-106763741D01*
X148487758Y-106620363D01*
X148113882Y-106620037D01*
X147768341Y-106762812D01*
X147589929Y-106940913D01*
X147423049Y-106773741D01*
X147077758Y-106630363D01*
X146703882Y-106630037D01*
X146358341Y-106772812D01*
X146093741Y-107036951D01*
X145950363Y-107382242D01*
X145950037Y-107756118D01*
X142926165Y-107756118D01*
X142929637Y-107747758D01*
X142929963Y-107373882D01*
X142787188Y-107028341D01*
X142523049Y-106763741D01*
X142177758Y-106620363D01*
X141803882Y-106620037D01*
X141458341Y-106762812D01*
X141193741Y-107026951D01*
X141050363Y-107372242D01*
X141050037Y-107746118D01*
X141192812Y-108091659D01*
X141456951Y-108356259D01*
X141774413Y-108488081D01*
X141448341Y-108622812D01*
X141183741Y-108886951D01*
X141040363Y-109232242D01*
X141040037Y-109606118D01*
X112106322Y-109606118D01*
X111526541Y-109365372D01*
X110677185Y-109364630D01*
X109892200Y-109688980D01*
X109291091Y-110289041D01*
X108965372Y-111073459D01*
X108964630Y-111922815D01*
X107785000Y-111922815D01*
X107785000Y-107755913D01*
X109170816Y-107755913D01*
X109364046Y-108308320D01*
X109753964Y-108744732D01*
X110281209Y-108998709D01*
X110296974Y-109001358D01*
X110529000Y-108880217D01*
X110529000Y-107521000D01*
X109315076Y-107521000D01*
X109170816Y-107755913D01*
X107785000Y-107755913D01*
X107785000Y-105215913D01*
X109170816Y-105215913D01*
X109364046Y-105768320D01*
X109681833Y-106124000D01*
X109364046Y-106479680D01*
X109170816Y-107032087D01*
X109315076Y-107267000D01*
X110529000Y-107267000D01*
X110529000Y-104981000D01*
X109315076Y-104981000D01*
X109170816Y-105215913D01*
X107785000Y-105215913D01*
X107785000Y-102675913D01*
X109170816Y-102675913D01*
X109364046Y-103228320D01*
X109681833Y-103584000D01*
X109364046Y-103939680D01*
X109170816Y-104492087D01*
X109315076Y-104727000D01*
X110529000Y-104727000D01*
X110529000Y-102441000D01*
X109315076Y-102441000D01*
X109170816Y-102675913D01*
X107785000Y-102675913D01*
X107785000Y-100135913D01*
X109170816Y-100135913D01*
X109364046Y-100688320D01*
X109681833Y-101044000D01*
X109364046Y-101399680D01*
X109170816Y-101952087D01*
X109315076Y-102187000D01*
X110529000Y-102187000D01*
X110529000Y-99901000D01*
X109315076Y-99901000D01*
X109170816Y-100135913D01*
X107785000Y-100135913D01*
X107785000Y-97595913D01*
X109170816Y-97595913D01*
X109364046Y-98148320D01*
X109681833Y-98504000D01*
X109364046Y-98859680D01*
X109170816Y-99412087D01*
X109315076Y-99647000D01*
X110529000Y-99647000D01*
X110529000Y-97361000D01*
X109315076Y-97361000D01*
X109170816Y-97595913D01*
X107785000Y-97595913D01*
X107785000Y-95055913D01*
X109170816Y-95055913D01*
X109364046Y-95608320D01*
X109681833Y-95964000D01*
X109364046Y-96319680D01*
X109170816Y-96872087D01*
X109315076Y-97107000D01*
X110529000Y-97107000D01*
X110529000Y-94821000D01*
X109315076Y-94821000D01*
X109170816Y-95055913D01*
X107785000Y-95055913D01*
X107785000Y-92515913D01*
X109170816Y-92515913D01*
X109364046Y-93068320D01*
X109681833Y-93424000D01*
X109364046Y-93779680D01*
X109170816Y-94332087D01*
X109315076Y-94567000D01*
X110529000Y-94567000D01*
X110529000Y-92281000D01*
X109315076Y-92281000D01*
X109170816Y-92515913D01*
X107785000Y-92515913D01*
X107785000Y-89975913D01*
X109170816Y-89975913D01*
X109364046Y-90528320D01*
X109681833Y-90884000D01*
X109364046Y-91239680D01*
X109170816Y-91792087D01*
X109315076Y-92027000D01*
X110529000Y-92027000D01*
X110529000Y-89741000D01*
X109315076Y-89741000D01*
X109170816Y-89975913D01*
X107785000Y-89975913D01*
X107785000Y-89252087D01*
X109170816Y-89252087D01*
X109315076Y-89487000D01*
X110529000Y-89487000D01*
X110529000Y-88127783D01*
X110783000Y-88127783D01*
X110783000Y-89487000D01*
X110803000Y-89487000D01*
X110803000Y-89741000D01*
X110783000Y-89741000D01*
X110783000Y-92027000D01*
X110803000Y-92027000D01*
X110803000Y-92281000D01*
X110783000Y-92281000D01*
X110783000Y-94567000D01*
X110803000Y-94567000D01*
X110803000Y-94821000D01*
X110783000Y-94821000D01*
X110783000Y-97107000D01*
X110803000Y-97107000D01*
X110803000Y-97361000D01*
X110783000Y-97361000D01*
X110783000Y-99647000D01*
X110803000Y-99647000D01*
X110803000Y-99901000D01*
X110783000Y-99901000D01*
X110783000Y-102187000D01*
X110803000Y-102187000D01*
X110803000Y-102441000D01*
X110783000Y-102441000D01*
X110783000Y-104727000D01*
X110803000Y-104727000D01*
X110803000Y-104981000D01*
X110783000Y-104981000D01*
X110783000Y-107267000D01*
X110803000Y-107267000D01*
X110803000Y-107521000D01*
X110783000Y-107521000D01*
X110783000Y-108880217D01*
X111015026Y-109001358D01*
X111030791Y-108998709D01*
X111558036Y-108744732D01*
X111929539Y-108328931D01*
X112136330Y-108638415D01*
X112622511Y-108963271D01*
X113196000Y-109077345D01*
X113769489Y-108963271D01*
X114255670Y-108638415D01*
X114265243Y-108624087D01*
X114269238Y-108645317D01*
X114408310Y-108861441D01*
X114620510Y-109006431D01*
X114872400Y-109057440D01*
X116599600Y-109057440D01*
X116834917Y-109013162D01*
X117051041Y-108874090D01*
X117196031Y-108661890D01*
X117247040Y-108410000D01*
X117247040Y-107686118D01*
X124270037Y-107686118D01*
X124412812Y-108031659D01*
X124676951Y-108296259D01*
X125022242Y-108439637D01*
X125396118Y-108439963D01*
X125741659Y-108297188D01*
X126006259Y-108033049D01*
X126149637Y-107687758D01*
X126149647Y-107676118D01*
X137800037Y-107676118D01*
X137942812Y-108021659D01*
X138206951Y-108286259D01*
X138552242Y-108429637D01*
X138926118Y-108429963D01*
X139271659Y-108287188D01*
X139536259Y-108023049D01*
X139679637Y-107677758D01*
X139679963Y-107303882D01*
X139537188Y-106958341D01*
X139273049Y-106693741D01*
X138927758Y-106550363D01*
X138553882Y-106550037D01*
X138208341Y-106692812D01*
X137943741Y-106956951D01*
X137800363Y-107302242D01*
X137800037Y-107676118D01*
X126149647Y-107676118D01*
X126149963Y-107313882D01*
X126007188Y-106968341D01*
X125743049Y-106703741D01*
X125397758Y-106560363D01*
X125023882Y-106560037D01*
X124678341Y-106702812D01*
X124413741Y-106966951D01*
X124270363Y-107312242D01*
X124270037Y-107686118D01*
X117247040Y-107686118D01*
X117247040Y-106378000D01*
X117202762Y-106142683D01*
X117192607Y-106126901D01*
X117196031Y-106121890D01*
X117247040Y-105870000D01*
X117247040Y-104876118D01*
X120840037Y-104876118D01*
X120982812Y-105221659D01*
X121246951Y-105486259D01*
X121592242Y-105629637D01*
X121966118Y-105629963D01*
X122311659Y-105487188D01*
X122576259Y-105223049D01*
X122719637Y-104877758D01*
X122719638Y-104876118D01*
X129470037Y-104876118D01*
X129612812Y-105221659D01*
X129876951Y-105486259D01*
X130222242Y-105629637D01*
X130596118Y-105629963D01*
X130941659Y-105487188D01*
X131082975Y-105346118D01*
X133720037Y-105346118D01*
X133862812Y-105691659D01*
X134126951Y-105956259D01*
X134472242Y-106099637D01*
X134846118Y-106099963D01*
X135191659Y-105957188D01*
X135456259Y-105693049D01*
X135599637Y-105347758D01*
X135599725Y-105246118D01*
X137640037Y-105246118D01*
X137782812Y-105591659D01*
X138046951Y-105856259D01*
X138392242Y-105999637D01*
X138766118Y-105999963D01*
X139111659Y-105857188D01*
X139376259Y-105593049D01*
X139519637Y-105247758D01*
X139519963Y-104873882D01*
X139377188Y-104528341D01*
X139113049Y-104263741D01*
X138767758Y-104120363D01*
X138393882Y-104120037D01*
X138048341Y-104262812D01*
X137783741Y-104526951D01*
X137640363Y-104872242D01*
X137640037Y-105246118D01*
X135599725Y-105246118D01*
X135599879Y-105069932D01*
X135912242Y-105199637D01*
X136286118Y-105199963D01*
X136631659Y-105057188D01*
X136896259Y-104793049D01*
X137039637Y-104447758D01*
X137039963Y-104073882D01*
X136912798Y-103766118D01*
X141130037Y-103766118D01*
X141272812Y-104111659D01*
X141536951Y-104376259D01*
X141882242Y-104519637D01*
X142256118Y-104519963D01*
X142601659Y-104377188D01*
X142866259Y-104113049D01*
X142997860Y-103796118D01*
X169480037Y-103796118D01*
X169622812Y-104141659D01*
X169886951Y-104406259D01*
X170232242Y-104549637D01*
X170606118Y-104549963D01*
X170951659Y-104407188D01*
X171216259Y-104143049D01*
X171359637Y-103797758D01*
X171359963Y-103423882D01*
X171217188Y-103078341D01*
X170953049Y-102813741D01*
X170607758Y-102670363D01*
X170233882Y-102670037D01*
X169888341Y-102812812D01*
X169623741Y-103076951D01*
X169480363Y-103422242D01*
X169480037Y-103796118D01*
X142997860Y-103796118D01*
X143009637Y-103767758D01*
X143009963Y-103393882D01*
X142867188Y-103048341D01*
X142603049Y-102783741D01*
X142257758Y-102640363D01*
X141883882Y-102640037D01*
X141538341Y-102782812D01*
X141273741Y-103046951D01*
X141130363Y-103392242D01*
X141130037Y-103766118D01*
X136912798Y-103766118D01*
X136897188Y-103728341D01*
X136633049Y-103463741D01*
X136287758Y-103320363D01*
X135913882Y-103320037D01*
X135568341Y-103462812D01*
X135303741Y-103726951D01*
X135160363Y-104072242D01*
X135160121Y-104350068D01*
X134847758Y-104220363D01*
X134473882Y-104220037D01*
X134128341Y-104362812D01*
X133863741Y-104626951D01*
X133720363Y-104972242D01*
X133720037Y-105346118D01*
X131082975Y-105346118D01*
X131206259Y-105223049D01*
X131349637Y-104877758D01*
X131349963Y-104503882D01*
X131207188Y-104158341D01*
X130943049Y-103893741D01*
X130597758Y-103750363D01*
X130223882Y-103750037D01*
X129878341Y-103892812D01*
X129613741Y-104156951D01*
X129470363Y-104502242D01*
X129470037Y-104876118D01*
X122719638Y-104876118D01*
X122719963Y-104503882D01*
X122577188Y-104158341D01*
X122313049Y-103893741D01*
X121967758Y-103750363D01*
X121593882Y-103750037D01*
X121248341Y-103892812D01*
X120983741Y-104156951D01*
X120840363Y-104502242D01*
X120840037Y-104876118D01*
X117247040Y-104876118D01*
X117247040Y-103838000D01*
X117202762Y-103602683D01*
X117192607Y-103586901D01*
X117196031Y-103581890D01*
X117221500Y-103456118D01*
X133100037Y-103456118D01*
X133242812Y-103801659D01*
X133506951Y-104066259D01*
X133852242Y-104209637D01*
X134226118Y-104209963D01*
X134571659Y-104067188D01*
X134836259Y-103803049D01*
X134979637Y-103457758D01*
X134979895Y-103162224D01*
X135142242Y-103229637D01*
X135516118Y-103229963D01*
X135861659Y-103087188D01*
X136126259Y-102823049D01*
X136269637Y-102477758D01*
X136269963Y-102103882D01*
X136210974Y-101961118D01*
X142685037Y-101961118D01*
X142827812Y-102306659D01*
X143091951Y-102571259D01*
X143437242Y-102714637D01*
X143811118Y-102714963D01*
X144156659Y-102572188D01*
X144421259Y-102308049D01*
X144564637Y-101962758D01*
X144564963Y-101588882D01*
X144422188Y-101243341D01*
X144158049Y-100978741D01*
X143812758Y-100835363D01*
X143438882Y-100835037D01*
X143093341Y-100977812D01*
X142828741Y-101241951D01*
X142685363Y-101587242D01*
X142685037Y-101961118D01*
X136210974Y-101961118D01*
X136127188Y-101758341D01*
X135863049Y-101493741D01*
X135517758Y-101350363D01*
X135143882Y-101350037D01*
X134798341Y-101492812D01*
X134533741Y-101756951D01*
X134390363Y-102102242D01*
X134390105Y-102397776D01*
X134227758Y-102330363D01*
X133853882Y-102330037D01*
X133508341Y-102472812D01*
X133243741Y-102736951D01*
X133100363Y-103082242D01*
X133100037Y-103456118D01*
X117221500Y-103456118D01*
X117247040Y-103330000D01*
X117247040Y-101298000D01*
X117202762Y-101062683D01*
X117192607Y-101046901D01*
X117196031Y-101041890D01*
X117247040Y-100790000D01*
X117247040Y-100466118D01*
X120700037Y-100466118D01*
X120842812Y-100811659D01*
X121106951Y-101076259D01*
X121452242Y-101219637D01*
X121826118Y-101219963D01*
X122171659Y-101077188D01*
X122436259Y-100813049D01*
X122579637Y-100467758D01*
X122579647Y-100456118D01*
X129480037Y-100456118D01*
X129622812Y-100801659D01*
X129886951Y-101066259D01*
X130232242Y-101209637D01*
X130606118Y-101209963D01*
X130951659Y-101067188D01*
X131216259Y-100803049D01*
X131359637Y-100457758D01*
X131359677Y-100411118D01*
X139635037Y-100411118D01*
X139777812Y-100756659D01*
X140041951Y-101021259D01*
X140387242Y-101164637D01*
X140761118Y-101164963D01*
X141106659Y-101022188D01*
X141371259Y-100758049D01*
X141514637Y-100412758D01*
X141514963Y-100038882D01*
X141398127Y-99756118D01*
X159490037Y-99756118D01*
X159632812Y-100101659D01*
X159896951Y-100366259D01*
X160242242Y-100509637D01*
X160616118Y-100509963D01*
X160961659Y-100367188D01*
X161226259Y-100103049D01*
X161369637Y-99757758D01*
X161369963Y-99383882D01*
X161227188Y-99038341D01*
X160963049Y-98773741D01*
X160617758Y-98630363D01*
X160243882Y-98630037D01*
X159898341Y-98772812D01*
X159633741Y-99036951D01*
X159490363Y-99382242D01*
X159490037Y-99756118D01*
X141398127Y-99756118D01*
X141372188Y-99693341D01*
X141108049Y-99428741D01*
X140762758Y-99285363D01*
X140388882Y-99285037D01*
X140043341Y-99427812D01*
X139778741Y-99691951D01*
X139635363Y-100037242D01*
X139635037Y-100411118D01*
X131359677Y-100411118D01*
X131359963Y-100083882D01*
X131217188Y-99738341D01*
X130953049Y-99473741D01*
X130607758Y-99330363D01*
X130233882Y-99330037D01*
X129888341Y-99472812D01*
X129623741Y-99736951D01*
X129480363Y-100082242D01*
X129480037Y-100456118D01*
X122579647Y-100456118D01*
X122579963Y-100093882D01*
X122437188Y-99748341D01*
X122173049Y-99483741D01*
X121827758Y-99340363D01*
X121453882Y-99340037D01*
X121108341Y-99482812D01*
X120843741Y-99746951D01*
X120700363Y-100092242D01*
X120700037Y-100466118D01*
X117247040Y-100466118D01*
X117247040Y-98758000D01*
X117202762Y-98522683D01*
X117192607Y-98506901D01*
X117194589Y-98504000D01*
X181788960Y-98504000D01*
X181788960Y-100536000D01*
X181833238Y-100771317D01*
X181843393Y-100787099D01*
X181839969Y-100792110D01*
X181788960Y-101044000D01*
X181788960Y-103076000D01*
X181833238Y-103311317D01*
X181843393Y-103327099D01*
X181839969Y-103332110D01*
X181788960Y-103584000D01*
X181788960Y-105616000D01*
X181833238Y-105851317D01*
X181843393Y-105867099D01*
X181839969Y-105872110D01*
X181788960Y-106124000D01*
X181788960Y-108156000D01*
X181833238Y-108391317D01*
X181972310Y-108607441D01*
X182184510Y-108752431D01*
X182436400Y-108803440D01*
X184163600Y-108803440D01*
X184398917Y-108759162D01*
X184615041Y-108620090D01*
X184760031Y-108407890D01*
X184768400Y-108366561D01*
X184780330Y-108384415D01*
X185266511Y-108709271D01*
X185840000Y-108823345D01*
X186413489Y-108709271D01*
X186899670Y-108384415D01*
X187106461Y-108074931D01*
X187477964Y-108490732D01*
X188005209Y-108744709D01*
X188020974Y-108747358D01*
X188253000Y-108626217D01*
X188253000Y-107267000D01*
X188507000Y-107267000D01*
X188507000Y-108626217D01*
X188739026Y-108747358D01*
X188754791Y-108744709D01*
X189282036Y-108490732D01*
X189671954Y-108054320D01*
X189865184Y-107501913D01*
X189720924Y-107267000D01*
X188507000Y-107267000D01*
X188253000Y-107267000D01*
X188233000Y-107267000D01*
X188233000Y-107013000D01*
X188253000Y-107013000D01*
X188253000Y-104727000D01*
X188507000Y-104727000D01*
X188507000Y-107013000D01*
X189720924Y-107013000D01*
X189865184Y-106778087D01*
X189671954Y-106225680D01*
X189354167Y-105870000D01*
X189671954Y-105514320D01*
X189865184Y-104961913D01*
X189720924Y-104727000D01*
X188507000Y-104727000D01*
X188253000Y-104727000D01*
X188233000Y-104727000D01*
X188233000Y-104473000D01*
X188253000Y-104473000D01*
X188253000Y-102187000D01*
X188507000Y-102187000D01*
X188507000Y-104473000D01*
X189720924Y-104473000D01*
X189865184Y-104238087D01*
X189671954Y-103685680D01*
X189354167Y-103330000D01*
X189671954Y-102974320D01*
X189865184Y-102421913D01*
X189720924Y-102187000D01*
X188507000Y-102187000D01*
X188253000Y-102187000D01*
X188233000Y-102187000D01*
X188233000Y-101933000D01*
X188253000Y-101933000D01*
X188253000Y-99647000D01*
X188507000Y-99647000D01*
X188507000Y-101933000D01*
X189720924Y-101933000D01*
X189865184Y-101698087D01*
X189671954Y-101145680D01*
X189354167Y-100790000D01*
X189671954Y-100434320D01*
X189865184Y-99881913D01*
X189720924Y-99647000D01*
X188507000Y-99647000D01*
X188253000Y-99647000D01*
X188233000Y-99647000D01*
X188233000Y-99393000D01*
X188253000Y-99393000D01*
X188253000Y-98033783D01*
X188507000Y-98033783D01*
X188507000Y-99393000D01*
X189720924Y-99393000D01*
X189865184Y-99158087D01*
X189671954Y-98605680D01*
X189282036Y-98169268D01*
X188754791Y-97915291D01*
X188739026Y-97912642D01*
X188507000Y-98033783D01*
X188253000Y-98033783D01*
X188020974Y-97912642D01*
X188005209Y-97915291D01*
X187477964Y-98169268D01*
X187106461Y-98585069D01*
X186899670Y-98275585D01*
X186413489Y-97950729D01*
X185840000Y-97836655D01*
X185266511Y-97950729D01*
X184780330Y-98275585D01*
X184770757Y-98289913D01*
X184766762Y-98268683D01*
X184627690Y-98052559D01*
X184415490Y-97907569D01*
X184163600Y-97856560D01*
X182436400Y-97856560D01*
X182201083Y-97900838D01*
X181984959Y-98039910D01*
X181839969Y-98252110D01*
X181788960Y-98504000D01*
X117194589Y-98504000D01*
X117196031Y-98501890D01*
X117247040Y-98250000D01*
X117247040Y-96218000D01*
X117245746Y-96211118D01*
X138725037Y-96211118D01*
X138867812Y-96556659D01*
X139131951Y-96821259D01*
X139477242Y-96964637D01*
X139851118Y-96964963D01*
X140196659Y-96822188D01*
X140461259Y-96558049D01*
X140584556Y-96261118D01*
X145335037Y-96261118D01*
X145477812Y-96606659D01*
X145741951Y-96871259D01*
X146087242Y-97014637D01*
X146461118Y-97014963D01*
X146806659Y-96872188D01*
X147071259Y-96608049D01*
X147214637Y-96262758D01*
X147214963Y-95888882D01*
X147184898Y-95816118D01*
X158150037Y-95816118D01*
X158292812Y-96161659D01*
X158556951Y-96426259D01*
X158902242Y-96569637D01*
X159276118Y-96569963D01*
X159621659Y-96427188D01*
X159886259Y-96163049D01*
X160029637Y-95817758D01*
X160029963Y-95443882D01*
X159887188Y-95098341D01*
X159762759Y-94973694D01*
X187115226Y-94973694D01*
X187363538Y-95574655D01*
X187822927Y-96034846D01*
X188423453Y-96284206D01*
X189073694Y-96284774D01*
X189674655Y-96036462D01*
X190134846Y-95577073D01*
X190384206Y-94976547D01*
X190384774Y-94326306D01*
X190136462Y-93725345D01*
X189677073Y-93265154D01*
X189076547Y-93015794D01*
X188426306Y-93015226D01*
X187825345Y-93263538D01*
X187365154Y-93722927D01*
X187115794Y-94323453D01*
X187115226Y-94973694D01*
X159762759Y-94973694D01*
X159623049Y-94833741D01*
X159277758Y-94690363D01*
X158903882Y-94690037D01*
X158558341Y-94832812D01*
X158293741Y-95096951D01*
X158150363Y-95442242D01*
X158150037Y-95816118D01*
X147184898Y-95816118D01*
X147072188Y-95543341D01*
X146808049Y-95278741D01*
X146462758Y-95135363D01*
X146088882Y-95135037D01*
X145743341Y-95277812D01*
X145478741Y-95541951D01*
X145335363Y-95887242D01*
X145335037Y-96261118D01*
X140584556Y-96261118D01*
X140604637Y-96212758D01*
X140604963Y-95838882D01*
X140462188Y-95493341D01*
X140198049Y-95228741D01*
X139852758Y-95085363D01*
X139478882Y-95085037D01*
X139133341Y-95227812D01*
X138868741Y-95491951D01*
X138725363Y-95837242D01*
X138725037Y-96211118D01*
X117245746Y-96211118D01*
X117202762Y-95982683D01*
X117192607Y-95966901D01*
X117196031Y-95961890D01*
X117247040Y-95710000D01*
X117247040Y-95256118D01*
X129440037Y-95256118D01*
X129582812Y-95601659D01*
X129846951Y-95866259D01*
X130192242Y-96009637D01*
X130566118Y-96009963D01*
X130911659Y-95867188D01*
X131176259Y-95603049D01*
X131319637Y-95257758D01*
X131319963Y-94883882D01*
X131177188Y-94538341D01*
X130913049Y-94273741D01*
X130567758Y-94130363D01*
X130193882Y-94130037D01*
X129848341Y-94272812D01*
X129583741Y-94536951D01*
X129440363Y-94882242D01*
X129440037Y-95256118D01*
X117247040Y-95256118D01*
X117247040Y-93678000D01*
X117246686Y-93676118D01*
X125090037Y-93676118D01*
X125232812Y-94021659D01*
X125496951Y-94286259D01*
X125842242Y-94429637D01*
X126216118Y-94429963D01*
X126561659Y-94287188D01*
X126781870Y-94067361D01*
X126882812Y-94311659D01*
X127146951Y-94576259D01*
X127492242Y-94719637D01*
X127866118Y-94719963D01*
X128211659Y-94577188D01*
X128476259Y-94313049D01*
X128619637Y-93967758D01*
X128619963Y-93593882D01*
X128477188Y-93248341D01*
X128415074Y-93186118D01*
X147800037Y-93186118D01*
X147942812Y-93531659D01*
X148206951Y-93796259D01*
X148552242Y-93939637D01*
X148926118Y-93939963D01*
X149271659Y-93797188D01*
X149536259Y-93533049D01*
X149679637Y-93187758D01*
X149679963Y-92813882D01*
X149537188Y-92468341D01*
X149273049Y-92203741D01*
X148965701Y-92076118D01*
X151110037Y-92076118D01*
X151252812Y-92421659D01*
X151516951Y-92686259D01*
X151862242Y-92829637D01*
X152236118Y-92829963D01*
X152581659Y-92687188D01*
X152846259Y-92423049D01*
X152989637Y-92077758D01*
X152989963Y-91703882D01*
X152847188Y-91358341D01*
X152583049Y-91093741D01*
X152237758Y-90950363D01*
X151863882Y-90950037D01*
X151518341Y-91092812D01*
X151253741Y-91356951D01*
X151110363Y-91702242D01*
X151110037Y-92076118D01*
X148965701Y-92076118D01*
X148927758Y-92060363D01*
X148553882Y-92060037D01*
X148208341Y-92202812D01*
X147943741Y-92466951D01*
X147800363Y-92812242D01*
X147800037Y-93186118D01*
X128415074Y-93186118D01*
X128213049Y-92983741D01*
X127867758Y-92840363D01*
X127493882Y-92840037D01*
X127148341Y-92982812D01*
X126928130Y-93202639D01*
X126827188Y-92958341D01*
X126563049Y-92693741D01*
X126217758Y-92550363D01*
X125843882Y-92550037D01*
X125498341Y-92692812D01*
X125233741Y-92956951D01*
X125090363Y-93302242D01*
X125090037Y-93676118D01*
X117246686Y-93676118D01*
X117202762Y-93442683D01*
X117192607Y-93426901D01*
X117196031Y-93421890D01*
X117247040Y-93170000D01*
X117247040Y-91996118D01*
X120450037Y-91996118D01*
X120592812Y-92341659D01*
X120856951Y-92606259D01*
X121202242Y-92749637D01*
X121576118Y-92749963D01*
X121921659Y-92607188D01*
X122186259Y-92343049D01*
X122329637Y-91997758D01*
X122329638Y-91996118D01*
X130230037Y-91996118D01*
X130372812Y-92341659D01*
X130636951Y-92606259D01*
X130982242Y-92749637D01*
X131356118Y-92749963D01*
X131701659Y-92607188D01*
X131966259Y-92343049D01*
X132109637Y-91997758D01*
X132109963Y-91623882D01*
X131967188Y-91278341D01*
X131703049Y-91013741D01*
X131357758Y-90870363D01*
X130983882Y-90870037D01*
X130638341Y-91012812D01*
X130373741Y-91276951D01*
X130230363Y-91622242D01*
X130230037Y-91996118D01*
X122329638Y-91996118D01*
X122329963Y-91623882D01*
X122187188Y-91278341D01*
X121923049Y-91013741D01*
X121577758Y-90870363D01*
X121203882Y-90870037D01*
X120858341Y-91012812D01*
X120593741Y-91276951D01*
X120450363Y-91622242D01*
X120450037Y-91996118D01*
X117247040Y-91996118D01*
X117247040Y-91138000D01*
X117202762Y-90902683D01*
X117192607Y-90886901D01*
X117196031Y-90881890D01*
X117247040Y-90630000D01*
X117247040Y-89616118D01*
X120280037Y-89616118D01*
X120422812Y-89961659D01*
X120686951Y-90226259D01*
X121032242Y-90369637D01*
X121406118Y-90369963D01*
X121751659Y-90227188D01*
X121902992Y-90076118D01*
X148010037Y-90076118D01*
X148152812Y-90421659D01*
X148416951Y-90686259D01*
X148762242Y-90829637D01*
X149136118Y-90829963D01*
X149481659Y-90687188D01*
X149746259Y-90423049D01*
X149889637Y-90077758D01*
X149889963Y-89703882D01*
X149747188Y-89358341D01*
X149483049Y-89093741D01*
X149137758Y-88950363D01*
X148763882Y-88950037D01*
X148418341Y-89092812D01*
X148153741Y-89356951D01*
X148010363Y-89702242D01*
X148010037Y-90076118D01*
X121902992Y-90076118D01*
X122016259Y-89963049D01*
X122159637Y-89617758D01*
X122159963Y-89243882D01*
X122028666Y-88926118D01*
X152780037Y-88926118D01*
X152922812Y-89271659D01*
X153186951Y-89536259D01*
X153532242Y-89679637D01*
X153906118Y-89679963D01*
X154251659Y-89537188D01*
X154516259Y-89273049D01*
X154659637Y-88927758D01*
X154659963Y-88553882D01*
X154517188Y-88208341D01*
X154253049Y-87943741D01*
X153907758Y-87800363D01*
X153533882Y-87800037D01*
X153188341Y-87942812D01*
X152923741Y-88206951D01*
X152780363Y-88552242D01*
X152780037Y-88926118D01*
X122028666Y-88926118D01*
X122017188Y-88898341D01*
X121753049Y-88633741D01*
X121407758Y-88490363D01*
X121033882Y-88490037D01*
X120688341Y-88632812D01*
X120423741Y-88896951D01*
X120280363Y-89242242D01*
X120280037Y-89616118D01*
X117247040Y-89616118D01*
X117247040Y-88598000D01*
X117202762Y-88362683D01*
X117063690Y-88146559D01*
X116851490Y-88001569D01*
X116599600Y-87950560D01*
X114872400Y-87950560D01*
X114637083Y-87994838D01*
X114420959Y-88133910D01*
X114275969Y-88346110D01*
X114267600Y-88387439D01*
X114255670Y-88369585D01*
X113769489Y-88044729D01*
X113196000Y-87930655D01*
X112622511Y-88044729D01*
X112136330Y-88369585D01*
X111929539Y-88679069D01*
X111558036Y-88263268D01*
X111030791Y-88009291D01*
X111015026Y-88006642D01*
X110783000Y-88127783D01*
X110529000Y-88127783D01*
X110296974Y-88006642D01*
X110281209Y-88009291D01*
X109753964Y-88263268D01*
X109364046Y-88699680D01*
X109170816Y-89252087D01*
X107785000Y-89252087D01*
X107785000Y-85251913D01*
X109204816Y-85251913D01*
X109398046Y-85804320D01*
X109787964Y-86240732D01*
X110315209Y-86494709D01*
X110330974Y-86497358D01*
X110563000Y-86376217D01*
X110563000Y-85017000D01*
X109349076Y-85017000D01*
X109204816Y-85251913D01*
X107785000Y-85251913D01*
X107785000Y-84528087D01*
X109204816Y-84528087D01*
X109349076Y-84763000D01*
X110563000Y-84763000D01*
X110563000Y-83403783D01*
X110817000Y-83403783D01*
X110817000Y-84763000D01*
X110837000Y-84763000D01*
X110837000Y-85017000D01*
X110817000Y-85017000D01*
X110817000Y-86376217D01*
X111049026Y-86497358D01*
X111064791Y-86494709D01*
X111592036Y-86240732D01*
X111963539Y-85824931D01*
X112170330Y-86134415D01*
X112656511Y-86459271D01*
X113230000Y-86573345D01*
X113803489Y-86459271D01*
X114289670Y-86134415D01*
X114500000Y-85819634D01*
X114710330Y-86134415D01*
X115196511Y-86459271D01*
X115770000Y-86573345D01*
X116343489Y-86459271D01*
X116829670Y-86134415D01*
X116839243Y-86120087D01*
X116843238Y-86141317D01*
X116982310Y-86357441D01*
X117194510Y-86502431D01*
X117446400Y-86553440D01*
X119173600Y-86553440D01*
X119350626Y-86520130D01*
X119313741Y-86556951D01*
X119170363Y-86902242D01*
X119170037Y-87276118D01*
X119312812Y-87621659D01*
X119576951Y-87886259D01*
X119922242Y-88029637D01*
X120296118Y-88029963D01*
X120641659Y-87887188D01*
X120682800Y-87846118D01*
X147650037Y-87846118D01*
X147792812Y-88191659D01*
X148056951Y-88456259D01*
X148402242Y-88599637D01*
X148776118Y-88599963D01*
X149121659Y-88457188D01*
X149386259Y-88193049D01*
X149529637Y-87847758D01*
X149529963Y-87473882D01*
X149387188Y-87128341D01*
X149123049Y-86863741D01*
X148887948Y-86766118D01*
X150950037Y-86766118D01*
X151092812Y-87111659D01*
X151356951Y-87376259D01*
X151702242Y-87519637D01*
X152076118Y-87519963D01*
X152421659Y-87377188D01*
X152686259Y-87113049D01*
X152829637Y-86767758D01*
X152829963Y-86393882D01*
X152687188Y-86048341D01*
X152423049Y-85783741D01*
X152077758Y-85640363D01*
X151703882Y-85640037D01*
X151358341Y-85782812D01*
X151093741Y-86046951D01*
X150950363Y-86392242D01*
X150950037Y-86766118D01*
X148887948Y-86766118D01*
X148777758Y-86720363D01*
X148403882Y-86720037D01*
X148058341Y-86862812D01*
X147793741Y-87126951D01*
X147650363Y-87472242D01*
X147650037Y-87846118D01*
X120682800Y-87846118D01*
X120906259Y-87623049D01*
X121034587Y-87314001D01*
X121072242Y-87329637D01*
X121446118Y-87329963D01*
X121791659Y-87187188D01*
X121922957Y-87056118D01*
X131160037Y-87056118D01*
X131302812Y-87401659D01*
X131566951Y-87666259D01*
X131912242Y-87809637D01*
X132286118Y-87809963D01*
X132631659Y-87667188D01*
X132896259Y-87403049D01*
X133039637Y-87057758D01*
X133039699Y-86986118D01*
X135110037Y-86986118D01*
X135252812Y-87331659D01*
X135516951Y-87596259D01*
X135862242Y-87739637D01*
X136236118Y-87739963D01*
X136581659Y-87597188D01*
X136846259Y-87333049D01*
X136989637Y-86987758D01*
X136989963Y-86613882D01*
X136847188Y-86268341D01*
X136583049Y-86003741D01*
X136237758Y-85860363D01*
X135863882Y-85860037D01*
X135518341Y-86002812D01*
X135253741Y-86266951D01*
X135110363Y-86612242D01*
X135110037Y-86986118D01*
X133039699Y-86986118D01*
X133039963Y-86683882D01*
X132897188Y-86338341D01*
X132633049Y-86073741D01*
X132287758Y-85930363D01*
X131913882Y-85930037D01*
X131568341Y-86072812D01*
X131303741Y-86336951D01*
X131160363Y-86682242D01*
X131160037Y-87056118D01*
X121922957Y-87056118D01*
X122056259Y-86923049D01*
X122199637Y-86577758D01*
X122199963Y-86203882D01*
X122057188Y-85858341D01*
X121793049Y-85593741D01*
X121447758Y-85450363D01*
X121073882Y-85450037D01*
X120728341Y-85592812D01*
X120463741Y-85856951D01*
X120335413Y-86165999D01*
X120297758Y-86150363D01*
X119923882Y-86150037D01*
X119716985Y-86235525D01*
X119770031Y-86157890D01*
X119821040Y-85906000D01*
X119821040Y-85086118D01*
X124530037Y-85086118D01*
X124672812Y-85431659D01*
X124936951Y-85696259D01*
X125282242Y-85839637D01*
X125656118Y-85839963D01*
X126001659Y-85697188D01*
X126054879Y-85644061D01*
X126126951Y-85716259D01*
X126472242Y-85859637D01*
X126846118Y-85859963D01*
X127191659Y-85717188D01*
X127456259Y-85453049D01*
X127599637Y-85107758D01*
X127599934Y-84766118D01*
X147880037Y-84766118D01*
X148022812Y-85111659D01*
X148286951Y-85376259D01*
X148632242Y-85519637D01*
X149006118Y-85519963D01*
X149351659Y-85377188D01*
X149616259Y-85113049D01*
X149740562Y-84813694D01*
X187115226Y-84813694D01*
X187363538Y-85414655D01*
X187822927Y-85874846D01*
X188423453Y-86124206D01*
X189073694Y-86124774D01*
X189674655Y-85876462D01*
X190134846Y-85417073D01*
X190384206Y-84816547D01*
X190384774Y-84166306D01*
X190136462Y-83565345D01*
X189677073Y-83105154D01*
X189076547Y-82855794D01*
X188426306Y-82855226D01*
X187825345Y-83103538D01*
X187365154Y-83562927D01*
X187115794Y-84163453D01*
X187115226Y-84813694D01*
X149740562Y-84813694D01*
X149759637Y-84767758D01*
X149759963Y-84393882D01*
X149617188Y-84048341D01*
X149353049Y-83783741D01*
X149007758Y-83640363D01*
X148633882Y-83640037D01*
X148288341Y-83782812D01*
X148023741Y-84046951D01*
X147880363Y-84392242D01*
X147880037Y-84766118D01*
X127599934Y-84766118D01*
X127599963Y-84733882D01*
X127457188Y-84388341D01*
X127193049Y-84123741D01*
X126847758Y-83980363D01*
X126473882Y-83980037D01*
X126128341Y-84122812D01*
X126075121Y-84175939D01*
X126003049Y-84103741D01*
X125657758Y-83960363D01*
X125283882Y-83960037D01*
X124938341Y-84102812D01*
X124673741Y-84366951D01*
X124530363Y-84712242D01*
X124530037Y-85086118D01*
X119821040Y-85086118D01*
X119821040Y-83874000D01*
X119776762Y-83638683D01*
X119768677Y-83626118D01*
X152800037Y-83626118D01*
X152942812Y-83971659D01*
X153206951Y-84236259D01*
X153552242Y-84379637D01*
X153926118Y-84379963D01*
X154271659Y-84237188D01*
X154536259Y-83973049D01*
X154679637Y-83627758D01*
X154679963Y-83253882D01*
X154537188Y-82908341D01*
X154273049Y-82643741D01*
X153927758Y-82500363D01*
X153553882Y-82500037D01*
X153208341Y-82642812D01*
X152943741Y-82906951D01*
X152800363Y-83252242D01*
X152800037Y-83626118D01*
X119768677Y-83626118D01*
X119637690Y-83422559D01*
X119425490Y-83277569D01*
X119173600Y-83226560D01*
X117446400Y-83226560D01*
X117211083Y-83270838D01*
X116994959Y-83409910D01*
X116849969Y-83622110D01*
X116841600Y-83663439D01*
X116829670Y-83645585D01*
X116343489Y-83320729D01*
X115770000Y-83206655D01*
X115196511Y-83320729D01*
X114710330Y-83645585D01*
X114500000Y-83960366D01*
X114289670Y-83645585D01*
X113803489Y-83320729D01*
X113230000Y-83206655D01*
X112656511Y-83320729D01*
X112170330Y-83645585D01*
X111963539Y-83955069D01*
X111592036Y-83539268D01*
X111064791Y-83285291D01*
X111049026Y-83282642D01*
X110817000Y-83403783D01*
X110563000Y-83403783D01*
X110330974Y-83282642D01*
X110315209Y-83285291D01*
X109787964Y-83539268D01*
X109398046Y-83975680D01*
X109204816Y-84528087D01*
X107785000Y-84528087D01*
X107785000Y-80422815D01*
X108964630Y-80422815D01*
X109288980Y-81207800D01*
X109889041Y-81808909D01*
X110673459Y-82134628D01*
X111522815Y-82135370D01*
X112307800Y-81811020D01*
X112833987Y-81285750D01*
X115865000Y-81285750D01*
X115865000Y-81726310D01*
X115961673Y-81959699D01*
X116140302Y-82138327D01*
X116373691Y-82235000D01*
X116814250Y-82235000D01*
X116973000Y-82076250D01*
X116973000Y-81127000D01*
X116023750Y-81127000D01*
X115865000Y-81285750D01*
X112833987Y-81285750D01*
X112908909Y-81210959D01*
X113234628Y-80426541D01*
X113235370Y-79577185D01*
X112927067Y-78831036D01*
X115852193Y-78831036D01*
X115882518Y-79321413D01*
X116011836Y-79633617D01*
X116237263Y-79683129D01*
X116121570Y-79798822D01*
X116171499Y-79848751D01*
X116140302Y-79861673D01*
X115961673Y-80040301D01*
X115865000Y-80273690D01*
X115865000Y-80714250D01*
X116023750Y-80873000D01*
X116973000Y-80873000D01*
X116973000Y-80853000D01*
X117227000Y-80853000D01*
X117227000Y-80873000D01*
X117247000Y-80873000D01*
X117247000Y-81127000D01*
X117227000Y-81127000D01*
X117227000Y-82076250D01*
X117385750Y-82235000D01*
X117826309Y-82235000D01*
X118059698Y-82138327D01*
X118238327Y-81959699D01*
X118260224Y-81906836D01*
X118399515Y-82046371D01*
X118853266Y-82234785D01*
X119344579Y-82235214D01*
X119798657Y-82047592D01*
X120100221Y-81746554D01*
X120399515Y-82046371D01*
X120853266Y-82234785D01*
X121344579Y-82235214D01*
X121798657Y-82047592D01*
X122100221Y-81746554D01*
X122399515Y-82046371D01*
X122853266Y-82234785D01*
X123344579Y-82235214D01*
X123798657Y-82047592D01*
X124100221Y-81746554D01*
X124399515Y-82046371D01*
X124853266Y-82234785D01*
X125344579Y-82235214D01*
X125798657Y-82047592D01*
X126100221Y-81746554D01*
X126399515Y-82046371D01*
X126853266Y-82234785D01*
X127201591Y-82235089D01*
X127282812Y-82431659D01*
X127546951Y-82696259D01*
X127892242Y-82839637D01*
X128266118Y-82839963D01*
X128611659Y-82697188D01*
X128876259Y-82433049D01*
X128958548Y-82234877D01*
X129181584Y-82235072D01*
X129262812Y-82431659D01*
X129526951Y-82696259D01*
X129872242Y-82839637D01*
X130246118Y-82839963D01*
X130591659Y-82697188D01*
X130856259Y-82433049D01*
X130938555Y-82234859D01*
X131344579Y-82235214D01*
X131798657Y-82047592D01*
X132100221Y-81746554D01*
X132399515Y-82046371D01*
X132853266Y-82234785D01*
X133344579Y-82235214D01*
X133798657Y-82047592D01*
X134100221Y-81746554D01*
X134399515Y-82046371D01*
X134853266Y-82234785D01*
X135344579Y-82235214D01*
X135798657Y-82047592D01*
X136100221Y-81746554D01*
X136399515Y-82046371D01*
X136853266Y-82234785D01*
X137344579Y-82235214D01*
X137798657Y-82047592D01*
X138100221Y-81746554D01*
X138399515Y-82046371D01*
X138853266Y-82234785D01*
X139344579Y-82235214D01*
X139798657Y-82047592D01*
X140100221Y-81746554D01*
X140399515Y-82046371D01*
X140853266Y-82234785D01*
X141344579Y-82235214D01*
X141798657Y-82047592D01*
X142100221Y-81746554D01*
X142399515Y-82046371D01*
X142853266Y-82234785D01*
X143344579Y-82235214D01*
X143798657Y-82047592D01*
X144100221Y-81746554D01*
X144399515Y-82046371D01*
X144853266Y-82234785D01*
X145344579Y-82235214D01*
X145798657Y-82047592D01*
X146100221Y-81746554D01*
X146399515Y-82046371D01*
X146853266Y-82234785D01*
X147344579Y-82235214D01*
X147798657Y-82047592D01*
X148100221Y-81746554D01*
X148399515Y-82046371D01*
X148853266Y-82234785D01*
X149344579Y-82235214D01*
X149798657Y-82047592D01*
X150100221Y-81746554D01*
X150399515Y-82046371D01*
X150853266Y-82234785D01*
X151344579Y-82235214D01*
X151798657Y-82047592D01*
X152100221Y-81746554D01*
X152399515Y-82046371D01*
X152853266Y-82234785D01*
X153344579Y-82235214D01*
X153798657Y-82047592D01*
X153983837Y-81862735D01*
X154416870Y-81862735D01*
X154466383Y-82088164D01*
X154931036Y-82247807D01*
X155421413Y-82217482D01*
X155733617Y-82088164D01*
X155740391Y-82057320D01*
X171130285Y-82057320D01*
X171259533Y-82350123D01*
X171959806Y-82618388D01*
X172709435Y-82598250D01*
X173308467Y-82350123D01*
X173437715Y-82057320D01*
X172284000Y-80903605D01*
X171130285Y-82057320D01*
X155740391Y-82057320D01*
X155783130Y-81862735D01*
X155100000Y-81179605D01*
X154416870Y-81862735D01*
X153983837Y-81862735D01*
X154146371Y-81700485D01*
X154160572Y-81666285D01*
X154237265Y-81683130D01*
X154920395Y-81000000D01*
X155279605Y-81000000D01*
X155962735Y-81683130D01*
X156188164Y-81633617D01*
X156347807Y-81168964D01*
X156317482Y-80678587D01*
X156202009Y-80399806D01*
X170389612Y-80399806D01*
X170409750Y-81149435D01*
X170657877Y-81748467D01*
X170950680Y-81877715D01*
X172104395Y-80724000D01*
X172463605Y-80724000D01*
X173617320Y-81877715D01*
X173910123Y-81748467D01*
X174159574Y-81097305D01*
X175398674Y-81097305D01*
X175685043Y-81790372D01*
X176214839Y-82321093D01*
X176907405Y-82608672D01*
X177657305Y-82609326D01*
X178350372Y-82322957D01*
X178881093Y-81793161D01*
X179168672Y-81100595D01*
X179169326Y-80350695D01*
X178882957Y-79657628D01*
X178699650Y-79474000D01*
X180386560Y-79474000D01*
X180386560Y-81974000D01*
X180430838Y-82209317D01*
X180569910Y-82425441D01*
X180782110Y-82570431D01*
X181034000Y-82621440D01*
X183534000Y-82621440D01*
X183769317Y-82577162D01*
X183985441Y-82438090D01*
X184130431Y-82225890D01*
X184181440Y-81974000D01*
X184181440Y-80422815D01*
X185964630Y-80422815D01*
X186288980Y-81207800D01*
X186889041Y-81808909D01*
X187673459Y-82134628D01*
X188522815Y-82135370D01*
X189307800Y-81811020D01*
X189908909Y-81210959D01*
X190234628Y-80426541D01*
X190235370Y-79577185D01*
X189911020Y-78792200D01*
X189310959Y-78191091D01*
X188526541Y-77865372D01*
X187677185Y-77864630D01*
X186892200Y-78188980D01*
X186291091Y-78789041D01*
X185965372Y-79573459D01*
X185964630Y-80422815D01*
X184181440Y-80422815D01*
X184181440Y-79474000D01*
X184137162Y-79238683D01*
X183998090Y-79022559D01*
X183785890Y-78877569D01*
X183534000Y-78826560D01*
X181034000Y-78826560D01*
X180798683Y-78870838D01*
X180582559Y-79009910D01*
X180437569Y-79222110D01*
X180386560Y-79474000D01*
X178699650Y-79474000D01*
X178353161Y-79126907D01*
X177660595Y-78839328D01*
X176910695Y-78838674D01*
X176217628Y-79125043D01*
X175686907Y-79654839D01*
X175399328Y-80347405D01*
X175398674Y-81097305D01*
X174159574Y-81097305D01*
X174178388Y-81048194D01*
X174158250Y-80298565D01*
X173910123Y-79699533D01*
X173617320Y-79570285D01*
X172463605Y-80724000D01*
X172104395Y-80724000D01*
X170950680Y-79570285D01*
X170657877Y-79699533D01*
X170389612Y-80399806D01*
X156202009Y-80399806D01*
X156188164Y-80366383D01*
X155962735Y-80316870D01*
X155279605Y-81000000D01*
X154920395Y-81000000D01*
X154237265Y-80316870D01*
X154160935Y-80333635D01*
X154147592Y-80301343D01*
X153846554Y-79999779D01*
X153983837Y-79862735D01*
X154416870Y-79862735D01*
X154447019Y-80000000D01*
X154416870Y-80137265D01*
X155100000Y-80820395D01*
X155783130Y-80137265D01*
X155752981Y-80000000D01*
X155783130Y-79862735D01*
X155100000Y-79179605D01*
X154416870Y-79862735D01*
X153983837Y-79862735D01*
X154146371Y-79700485D01*
X154160572Y-79666285D01*
X154237265Y-79683130D01*
X154920395Y-79000000D01*
X155279605Y-79000000D01*
X155962735Y-79683130D01*
X156188164Y-79633617D01*
X156271630Y-79390680D01*
X171130285Y-79390680D01*
X172284000Y-80544395D01*
X173437715Y-79390680D01*
X173308467Y-79097877D01*
X172608194Y-78829612D01*
X171858565Y-78849750D01*
X171259533Y-79097877D01*
X171130285Y-79390680D01*
X156271630Y-79390680D01*
X156347807Y-79168964D01*
X156317482Y-78678587D01*
X156188164Y-78366383D01*
X155962735Y-78316870D01*
X155279605Y-79000000D01*
X154920395Y-79000000D01*
X154237265Y-78316870D01*
X154160935Y-78333635D01*
X154147592Y-78301343D01*
X153983801Y-78137265D01*
X154416870Y-78137265D01*
X155100000Y-78820395D01*
X155783130Y-78137265D01*
X155733617Y-77911836D01*
X155268964Y-77752193D01*
X154778587Y-77782518D01*
X154466383Y-77911836D01*
X154416870Y-78137265D01*
X153983801Y-78137265D01*
X153800485Y-77953629D01*
X153346734Y-77765215D01*
X152855421Y-77764786D01*
X152401343Y-77952408D01*
X152099779Y-78253446D01*
X151800485Y-77953629D01*
X151346734Y-77765215D01*
X150855421Y-77764786D01*
X150401343Y-77952408D01*
X150099779Y-78253446D01*
X149800485Y-77953629D01*
X149346734Y-77765215D01*
X148855421Y-77764786D01*
X148401343Y-77952408D01*
X148099779Y-78253446D01*
X147800485Y-77953629D01*
X147346734Y-77765215D01*
X146855421Y-77764786D01*
X146401343Y-77952408D01*
X146099779Y-78253446D01*
X145800485Y-77953629D01*
X145346734Y-77765215D01*
X144855421Y-77764786D01*
X144401343Y-77952408D01*
X144099779Y-78253446D01*
X143800485Y-77953629D01*
X143346734Y-77765215D01*
X142855421Y-77764786D01*
X142401343Y-77952408D01*
X142099779Y-78253446D01*
X141800485Y-77953629D01*
X141346734Y-77765215D01*
X140855421Y-77764786D01*
X140401343Y-77952408D01*
X140099779Y-78253446D01*
X139800485Y-77953629D01*
X139346734Y-77765215D01*
X138855421Y-77764786D01*
X138401343Y-77952408D01*
X138099779Y-78253446D01*
X137800485Y-77953629D01*
X137346734Y-77765215D01*
X136855421Y-77764786D01*
X136401343Y-77952408D01*
X136099779Y-78253446D01*
X135800485Y-77953629D01*
X135346734Y-77765215D01*
X134855421Y-77764786D01*
X134401343Y-77952408D01*
X134099779Y-78253446D01*
X133800485Y-77953629D01*
X133346734Y-77765215D01*
X132855421Y-77764786D01*
X132401343Y-77952408D01*
X132099779Y-78253446D01*
X131800485Y-77953629D01*
X131346734Y-77765215D01*
X130855421Y-77764786D01*
X130401343Y-77952408D01*
X130099779Y-78253446D01*
X129800485Y-77953629D01*
X129346734Y-77765215D01*
X128855421Y-77764786D01*
X128401343Y-77952408D01*
X128099779Y-78253446D01*
X127800485Y-77953629D01*
X127346734Y-77765215D01*
X126855421Y-77764786D01*
X126401343Y-77952408D01*
X126099779Y-78253446D01*
X125800485Y-77953629D01*
X125346734Y-77765215D01*
X124855421Y-77764786D01*
X124401343Y-77952408D01*
X124099779Y-78253446D01*
X123800485Y-77953629D01*
X123346734Y-77765215D01*
X122855421Y-77764786D01*
X122401343Y-77952408D01*
X122099779Y-78253446D01*
X121800485Y-77953629D01*
X121346734Y-77765215D01*
X120855421Y-77764786D01*
X120401343Y-77952408D01*
X120099779Y-78253446D01*
X119800485Y-77953629D01*
X119346734Y-77765215D01*
X118855421Y-77764786D01*
X118401343Y-77952408D01*
X118053629Y-78299515D01*
X118039428Y-78333715D01*
X117962735Y-78316870D01*
X117279605Y-79000000D01*
X117293748Y-79014143D01*
X117114143Y-79193748D01*
X117100000Y-79179605D01*
X117085858Y-79193748D01*
X116906253Y-79014143D01*
X116920395Y-79000000D01*
X116237265Y-78316870D01*
X116011836Y-78366383D01*
X115852193Y-78831036D01*
X112927067Y-78831036D01*
X112911020Y-78792200D01*
X112310959Y-78191091D01*
X112181332Y-78137265D01*
X116416870Y-78137265D01*
X117100000Y-78820395D01*
X117783130Y-78137265D01*
X117733617Y-77911836D01*
X117268964Y-77752193D01*
X116778587Y-77782518D01*
X116466383Y-77911836D01*
X116416870Y-78137265D01*
X112181332Y-78137265D01*
X111526541Y-77865372D01*
X110677185Y-77864630D01*
X109892200Y-78188980D01*
X109291091Y-78789041D01*
X108965372Y-79573459D01*
X108964630Y-80422815D01*
X107785000Y-80422815D01*
X107785000Y-76685000D01*
X191414492Y-76685000D01*
X191414492Y-129315000D01*
X191414492Y-129315000D01*
G37*
X191414492Y-129315000D02*
X107785000Y-129315000D01*
X107785000Y-127819026D01*
X108921642Y-127819026D01*
X108924291Y-127834791D01*
X109178268Y-128362036D01*
X109614680Y-128751954D01*
X110167087Y-128945184D01*
X110402000Y-128800924D01*
X110402000Y-127587000D01*
X110656000Y-127587000D01*
X110656000Y-128800924D01*
X110890913Y-128945184D01*
X111443320Y-128751954D01*
X111799000Y-128434167D01*
X112154680Y-128751954D01*
X112707087Y-128945184D01*
X112942000Y-128800924D01*
X112942000Y-127587000D01*
X113196000Y-127587000D01*
X113196000Y-128800924D01*
X113430913Y-128945184D01*
X113983320Y-128751954D01*
X114339000Y-128434167D01*
X114694680Y-128751954D01*
X115247087Y-128945184D01*
X115482000Y-128800924D01*
X115482000Y-127587000D01*
X115736000Y-127587000D01*
X115736000Y-128800924D01*
X115970913Y-128945184D01*
X116523320Y-128751954D01*
X116879000Y-128434167D01*
X117234680Y-128751954D01*
X117787087Y-128945184D01*
X118022000Y-128800924D01*
X118022000Y-127587000D01*
X118276000Y-127587000D01*
X118276000Y-128800924D01*
X118510913Y-128945184D01*
X119063320Y-128751954D01*
X119419000Y-128434167D01*
X119774680Y-128751954D01*
X120327087Y-128945184D01*
X120562000Y-128800924D01*
X120562000Y-127587000D01*
X120816000Y-127587000D01*
X120816000Y-128800924D01*
X121050913Y-128945184D01*
X121603320Y-128751954D01*
X121959000Y-128434167D01*
X122314680Y-128751954D01*
X122867087Y-128945184D01*
X123102000Y-128800924D01*
X123102000Y-127587000D01*
X123356000Y-127587000D01*
X123356000Y-128800924D01*
X123590913Y-128945184D01*
X124143320Y-128751954D01*
X124499000Y-128434167D01*
X124854680Y-128751954D01*
X125407087Y-128945184D01*
X125642000Y-128800924D01*
X125642000Y-127587000D01*
X125896000Y-127587000D01*
X125896000Y-128800924D01*
X126130913Y-128945184D01*
X126683320Y-128751954D01*
X127039000Y-128434167D01*
X127394680Y-128751954D01*
X127947087Y-128945184D01*
X128182000Y-128800924D01*
X128182000Y-127587000D01*
X128436000Y-127587000D01*
X128436000Y-128800924D01*
X128670913Y-128945184D01*
X129223320Y-128751954D01*
X129659732Y-128362036D01*
X129913709Y-127834791D01*
X129916358Y-127819026D01*
X129795217Y-127587000D01*
X128436000Y-127587000D01*
X128182000Y-127587000D01*
X125896000Y-127587000D01*
X125642000Y-127587000D01*
X123356000Y-127587000D01*
X123102000Y-127587000D01*
X120816000Y-127587000D01*
X120562000Y-127587000D01*
X118276000Y-127587000D01*
X118022000Y-127587000D01*
X115736000Y-127587000D01*
X115482000Y-127587000D01*
X113196000Y-127587000D01*
X112942000Y-127587000D01*
X110656000Y-127587000D01*
X110402000Y-127587000D01*
X109042783Y-127587000D01*
X108921642Y-127819026D01*
X107785000Y-127819026D01*
X107785000Y-124920000D01*
X108845655Y-124920000D01*
X108959729Y-125493489D01*
X109284585Y-125979670D01*
X109594069Y-126186461D01*
X109178268Y-126557964D01*
X108924291Y-127085209D01*
X108921642Y-127100974D01*
X109042783Y-127333000D01*
X110402000Y-127333000D01*
X110402000Y-127313000D01*
X110656000Y-127313000D01*
X110656000Y-127333000D01*
X112942000Y-127333000D01*
X112942000Y-127313000D01*
X113196000Y-127313000D01*
X113196000Y-127333000D01*
X115482000Y-127333000D01*
X115482000Y-127313000D01*
X115736000Y-127313000D01*
X115736000Y-127333000D01*
X118022000Y-127333000D01*
X118022000Y-127313000D01*
X118276000Y-127313000D01*
X118276000Y-127333000D01*
X120562000Y-127333000D01*
X120562000Y-127313000D01*
X120816000Y-127313000D01*
X120816000Y-127333000D01*
X123102000Y-127333000D01*
X123102000Y-127313000D01*
X123356000Y-127313000D01*
X123356000Y-127333000D01*
X125642000Y-127333000D01*
X125642000Y-127313000D01*
X125896000Y-127313000D01*
X125896000Y-127333000D01*
X128182000Y-127333000D01*
X128182000Y-127313000D01*
X128436000Y-127313000D01*
X128436000Y-127333000D01*
X129795217Y-127333000D01*
X129916358Y-127100974D01*
X129913709Y-127085209D01*
X129659732Y-126557964D01*
X129243931Y-126186461D01*
X129553415Y-125979670D01*
X129878271Y-125493489D01*
X129992345Y-124920000D01*
X132848655Y-124920000D01*
X132962729Y-125493489D01*
X133287585Y-125979670D01*
X133602366Y-126190000D01*
X133287585Y-126400330D01*
X132962729Y-126886511D01*
X132848655Y-127460000D01*
X132962729Y-128033489D01*
X133287585Y-128519670D01*
X133773766Y-128844526D01*
X134347255Y-128958600D01*
X134716745Y-128958600D01*
X135290234Y-128844526D01*
X135776415Y-128519670D01*
X136101271Y-128033489D01*
X136143930Y-127819026D01*
X139401642Y-127819026D01*
X139404291Y-127834791D01*
X139658268Y-128362036D01*
X140094680Y-128751954D01*
X140647087Y-128945184D01*
X140882000Y-128800924D01*
X140882000Y-127587000D01*
X141136000Y-127587000D01*
X141136000Y-128800924D01*
X141370913Y-128945184D01*
X141923320Y-128751954D01*
X142279000Y-128434167D01*
X142634680Y-128751954D01*
X143187087Y-128945184D01*
X143422000Y-128800924D01*
X143422000Y-127587000D01*
X143676000Y-127587000D01*
X143676000Y-128800924D01*
X143910913Y-128945184D01*
X144463320Y-128751954D01*
X144819000Y-128434167D01*
X145174680Y-128751954D01*
X145727087Y-128945184D01*
X145962000Y-128800924D01*
X145962000Y-127587000D01*
X146216000Y-127587000D01*
X146216000Y-128800924D01*
X146450913Y-128945184D01*
X147003320Y-128751954D01*
X147359000Y-128434167D01*
X147714680Y-128751954D01*
X148267087Y-128945184D01*
X148502000Y-128800924D01*
X148502000Y-127587000D01*
X148756000Y-127587000D01*
X148756000Y-128800924D01*
X148990913Y-128945184D01*
X149543320Y-128751954D01*
X149899000Y-128434167D01*
X150254680Y-128751954D01*
X150807087Y-128945184D01*
X151042000Y-128800924D01*
X151042000Y-127587000D01*
X151296000Y-127587000D01*
X151296000Y-128800924D01*
X151530913Y-128945184D01*
X152083320Y-128751954D01*
X152439000Y-128434167D01*
X152794680Y-128751954D01*
X153347087Y-128945184D01*
X153582000Y-128800924D01*
X153582000Y-127587000D01*
X153836000Y-127587000D01*
X153836000Y-128800924D01*
X154070913Y-128945184D01*
X154623320Y-128751954D01*
X154979000Y-128434167D01*
X155334680Y-128751954D01*
X155887087Y-128945184D01*
X156122000Y-128800924D01*
X156122000Y-127587000D01*
X156376000Y-127587000D01*
X156376000Y-128800924D01*
X156610913Y-128945184D01*
X157163320Y-128751954D01*
X157519000Y-128434167D01*
X157874680Y-128751954D01*
X158427087Y-128945184D01*
X158662000Y-128800924D01*
X158662000Y-127587000D01*
X158916000Y-127587000D01*
X158916000Y-128800924D01*
X159150913Y-128945184D01*
X159703320Y-128751954D01*
X160139732Y-128362036D01*
X160393709Y-127834791D01*
X160396358Y-127819026D01*
X160275217Y-127587000D01*
X158916000Y-127587000D01*
X158662000Y-127587000D01*
X156376000Y-127587000D01*
X156122000Y-127587000D01*
X153836000Y-127587000D01*
X153582000Y-127587000D01*
X151296000Y-127587000D01*
X151042000Y-127587000D01*
X148756000Y-127587000D01*
X148502000Y-127587000D01*
X146216000Y-127587000D01*
X145962000Y-127587000D01*
X143676000Y-127587000D01*
X143422000Y-127587000D01*
X141136000Y-127587000D01*
X140882000Y-127587000D01*
X139522783Y-127587000D01*
X139401642Y-127819026D01*
X136143930Y-127819026D01*
X136215345Y-127460000D01*
X136101271Y-126886511D01*
X135776415Y-126400330D01*
X135461634Y-126190000D01*
X135776415Y-125979670D01*
X136101271Y-125493489D01*
X136215345Y-124920000D01*
X139325655Y-124920000D01*
X139439729Y-125493489D01*
X139764585Y-125979670D01*
X140074069Y-126186461D01*
X139658268Y-126557964D01*
X139404291Y-127085209D01*
X139401642Y-127100974D01*
X139522783Y-127333000D01*
X140882000Y-127333000D01*
X140882000Y-127313000D01*
X141136000Y-127313000D01*
X141136000Y-127333000D01*
X143422000Y-127333000D01*
X143422000Y-127313000D01*
X143676000Y-127313000D01*
X143676000Y-127333000D01*
X145962000Y-127333000D01*
X145962000Y-127313000D01*
X146216000Y-127313000D01*
X146216000Y-127333000D01*
X148502000Y-127333000D01*
X148502000Y-127313000D01*
X148756000Y-127313000D01*
X148756000Y-127333000D01*
X151042000Y-127333000D01*
X151042000Y-127313000D01*
X151296000Y-127313000D01*
X151296000Y-127333000D01*
X153582000Y-127333000D01*
X153582000Y-127313000D01*
X153836000Y-127313000D01*
X153836000Y-127333000D01*
X156122000Y-127333000D01*
X156122000Y-127313000D01*
X156376000Y-127313000D01*
X156376000Y-127333000D01*
X158662000Y-127333000D01*
X158662000Y-127313000D01*
X158916000Y-127313000D01*
X158916000Y-127333000D01*
X160275217Y-127333000D01*
X160396358Y-127100974D01*
X160393709Y-127085209D01*
X160139732Y-126557964D01*
X159723931Y-126186461D01*
X160033415Y-125979670D01*
X160358271Y-125493489D01*
X160472345Y-124920000D01*
X163328655Y-124920000D01*
X163442729Y-125493489D01*
X163767585Y-125979670D01*
X164082366Y-126190000D01*
X163767585Y-126400330D01*
X163442729Y-126886511D01*
X163328655Y-127460000D01*
X163442729Y-128033489D01*
X163767585Y-128519670D01*
X164253766Y-128844526D01*
X164827255Y-128958600D01*
X165196745Y-128958600D01*
X165770234Y-128844526D01*
X166256415Y-128519670D01*
X166581271Y-128033489D01*
X166695345Y-127460000D01*
X166643720Y-127200460D01*
X169520100Y-127200460D01*
X169520100Y-127475460D01*
X169655098Y-127900138D01*
X169942337Y-128240828D01*
X170353226Y-128442579D01*
X170528100Y-128316414D01*
X170528100Y-127200460D01*
X170782100Y-127200460D01*
X170782100Y-128316414D01*
X170956974Y-128442579D01*
X171367863Y-128240828D01*
X171655102Y-127900138D01*
X171790100Y-127475460D01*
X171790100Y-127200460D01*
X176520100Y-127200460D01*
X176520100Y-127475460D01*
X176655098Y-127900138D01*
X176942337Y-128240828D01*
X177353226Y-128442579D01*
X177528100Y-128316414D01*
X177528100Y-127200460D01*
X177782100Y-127200460D01*
X177782100Y-128316414D01*
X177956974Y-128442579D01*
X178367863Y-128240828D01*
X178655102Y-127900138D01*
X178790100Y-127475460D01*
X178790100Y-127200460D01*
X177782100Y-127200460D01*
X177528100Y-127200460D01*
X176520100Y-127200460D01*
X171790100Y-127200460D01*
X170782100Y-127200460D01*
X170528100Y-127200460D01*
X169520100Y-127200460D01*
X166643720Y-127200460D01*
X166581271Y-126886511D01*
X166437579Y-126671460D01*
X169520100Y-126671460D01*
X169520100Y-126946460D01*
X170528100Y-126946460D01*
X170528100Y-125830506D01*
X170782100Y-125830506D01*
X170782100Y-126946460D01*
X171790100Y-126946460D01*
X171790100Y-126671460D01*
X176520100Y-126671460D01*
X176520100Y-126946460D01*
X177528100Y-126946460D01*
X177528100Y-125830506D01*
X177782100Y-125830506D01*
X177782100Y-126946460D01*
X178790100Y-126946460D01*
X178790100Y-126671460D01*
X178655102Y-126246782D01*
X178367863Y-125906092D01*
X177956974Y-125704341D01*
X177782100Y-125830506D01*
X177528100Y-125830506D01*
X177353226Y-125704341D01*
X176942337Y-125906092D01*
X176655098Y-126246782D01*
X176520100Y-126671460D01*
X171790100Y-126671460D01*
X171655102Y-126246782D01*
X171367863Y-125906092D01*
X170956974Y-125704341D01*
X170782100Y-125830506D01*
X170528100Y-125830506D01*
X170353226Y-125704341D01*
X169942337Y-125906092D01*
X169655098Y-126246782D01*
X169520100Y-126671460D01*
X166437579Y-126671460D01*
X166256415Y-126400330D01*
X165941634Y-126190000D01*
X166256415Y-125979670D01*
X166581271Y-125493489D01*
X166695345Y-124920000D01*
X166645896Y-124671398D01*
X170435832Y-124671398D01*
X170619548Y-125045281D01*
X170944051Y-125333028D01*
X171353969Y-125474689D01*
X171528100Y-125326023D01*
X171528100Y-124500460D01*
X171782100Y-124500460D01*
X171782100Y-125326023D01*
X171956231Y-125474689D01*
X172366149Y-125333028D01*
X172690652Y-125045281D01*
X172874368Y-124671398D01*
X175435832Y-124671398D01*
X175619548Y-125045281D01*
X175944051Y-125333028D01*
X176353969Y-125474689D01*
X176528100Y-125326023D01*
X176528100Y-124500460D01*
X176782100Y-124500460D01*
X176782100Y-125326023D01*
X176956231Y-125474689D01*
X177366149Y-125333028D01*
X177690652Y-125045281D01*
X177874368Y-124671398D01*
X177747834Y-124500460D01*
X176782100Y-124500460D01*
X176528100Y-124500460D01*
X175562366Y-124500460D01*
X175435832Y-124671398D01*
X172874368Y-124671398D01*
X172747834Y-124500460D01*
X171782100Y-124500460D01*
X171528100Y-124500460D01*
X170562366Y-124500460D01*
X170435832Y-124671398D01*
X166645896Y-124671398D01*
X166581271Y-124346511D01*
X166400202Y-124075522D01*
X170435832Y-124075522D01*
X170562366Y-124246460D01*
X171528100Y-124246460D01*
X171528100Y-123420897D01*
X171782100Y-123420897D01*
X171782100Y-124246460D01*
X172747834Y-124246460D01*
X172874368Y-124075522D01*
X175435832Y-124075522D01*
X175562366Y-124246460D01*
X176528100Y-124246460D01*
X176528100Y-123420897D01*
X176782100Y-123420897D01*
X176782100Y-124246460D01*
X177747834Y-124246460D01*
X177874368Y-124075522D01*
X177690652Y-123701639D01*
X177366149Y-123413892D01*
X176956231Y-123272231D01*
X176782100Y-123420897D01*
X176528100Y-123420897D01*
X176353969Y-123272231D01*
X175944051Y-123413892D01*
X175619548Y-123701639D01*
X175435832Y-124075522D01*
X172874368Y-124075522D01*
X172690652Y-123701639D01*
X172366149Y-123413892D01*
X171956231Y-123272231D01*
X171782100Y-123420897D01*
X171528100Y-123420897D01*
X171353969Y-123272231D01*
X170944051Y-123413892D01*
X170619548Y-123701639D01*
X170435832Y-124075522D01*
X166400202Y-124075522D01*
X166256415Y-123860330D01*
X166242087Y-123850757D01*
X166263317Y-123846762D01*
X166479441Y-123707690D01*
X166624431Y-123495490D01*
X166675440Y-123243600D01*
X166675440Y-121516400D01*
X166669743Y-121486118D01*
X170760037Y-121486118D01*
X170902812Y-121831659D01*
X171166951Y-122096259D01*
X171512242Y-122239637D01*
X171886118Y-122239963D01*
X172231659Y-122097188D01*
X172496259Y-121833049D01*
X172639637Y-121487758D01*
X172639638Y-121486118D01*
X175035037Y-121486118D01*
X175177812Y-121831659D01*
X175441951Y-122096259D01*
X175787242Y-122239637D01*
X176161118Y-122239963D01*
X176506659Y-122097188D01*
X176771259Y-121833049D01*
X176914637Y-121487758D01*
X176914963Y-121113882D01*
X176772188Y-120768341D01*
X176508049Y-120503741D01*
X176162758Y-120360363D01*
X175788882Y-120360037D01*
X175443341Y-120502812D01*
X175178741Y-120766951D01*
X175035363Y-121112242D01*
X175035037Y-121486118D01*
X172639638Y-121486118D01*
X172639963Y-121113882D01*
X172497188Y-120768341D01*
X172233049Y-120503741D01*
X171887758Y-120360363D01*
X171513882Y-120360037D01*
X171168341Y-120502812D01*
X170903741Y-120766951D01*
X170760363Y-121112242D01*
X170760037Y-121486118D01*
X166669743Y-121486118D01*
X166631162Y-121281083D01*
X166492090Y-121064959D01*
X166279890Y-120919969D01*
X166028000Y-120868960D01*
X163996000Y-120868960D01*
X163760683Y-120913238D01*
X163544559Y-121052310D01*
X163399569Y-121264510D01*
X163348560Y-121516400D01*
X163348560Y-123243600D01*
X163392838Y-123478917D01*
X163531910Y-123695041D01*
X163744110Y-123840031D01*
X163785439Y-123848400D01*
X163767585Y-123860330D01*
X163442729Y-124346511D01*
X163328655Y-124920000D01*
X160472345Y-124920000D01*
X160358271Y-124346511D01*
X160033415Y-123860330D01*
X160019087Y-123850757D01*
X160040317Y-123846762D01*
X160256441Y-123707690D01*
X160401431Y-123495490D01*
X160452440Y-123243600D01*
X160452440Y-121516400D01*
X160408162Y-121281083D01*
X160269090Y-121064959D01*
X160056890Y-120919969D01*
X159805000Y-120868960D01*
X157773000Y-120868960D01*
X157537683Y-120913238D01*
X157521901Y-120923393D01*
X157516890Y-120919969D01*
X157265000Y-120868960D01*
X155233000Y-120868960D01*
X154997683Y-120913238D01*
X154981901Y-120923393D01*
X154976890Y-120919969D01*
X154725000Y-120868960D01*
X152693000Y-120868960D01*
X152457683Y-120913238D01*
X152441901Y-120923393D01*
X152436890Y-120919969D01*
X152185000Y-120868960D01*
X150153000Y-120868960D01*
X149917683Y-120913238D01*
X149901901Y-120923393D01*
X149896890Y-120919969D01*
X149645000Y-120868960D01*
X147613000Y-120868960D01*
X147377683Y-120913238D01*
X147361901Y-120923393D01*
X147356890Y-120919969D01*
X147105000Y-120868960D01*
X145073000Y-120868960D01*
X144837683Y-120913238D01*
X144821901Y-120923393D01*
X144816890Y-120919969D01*
X144565000Y-120868960D01*
X142533000Y-120868960D01*
X142297683Y-120913238D01*
X142281901Y-120923393D01*
X142276890Y-120919969D01*
X142025000Y-120868960D01*
X139993000Y-120868960D01*
X139757683Y-120913238D01*
X139541559Y-121052310D01*
X139396569Y-121264510D01*
X139345560Y-121516400D01*
X139345560Y-123243600D01*
X139389838Y-123478917D01*
X139528910Y-123695041D01*
X139741110Y-123840031D01*
X139782439Y-123848400D01*
X139764585Y-123860330D01*
X139439729Y-124346511D01*
X139325655Y-124920000D01*
X136215345Y-124920000D01*
X136101271Y-124346511D01*
X135776415Y-123860330D01*
X135762087Y-123850757D01*
X135783317Y-123846762D01*
X135999441Y-123707690D01*
X136144431Y-123495490D01*
X136195440Y-123243600D01*
X136195440Y-121516400D01*
X136151162Y-121281083D01*
X136012090Y-121064959D01*
X135799890Y-120919969D01*
X135548000Y-120868960D01*
X133516000Y-120868960D01*
X133280683Y-120913238D01*
X133064559Y-121052310D01*
X132919569Y-121264510D01*
X132868560Y-121516400D01*
X132868560Y-123243600D01*
X132912838Y-123478917D01*
X133051910Y-123695041D01*
X133264110Y-123840031D01*
X133305439Y-123848400D01*
X133287585Y-123860330D01*
X132962729Y-124346511D01*
X132848655Y-124920000D01*
X129992345Y-124920000D01*
X129878271Y-124346511D01*
X129553415Y-123860330D01*
X129539087Y-123850757D01*
X129560317Y-123846762D01*
X129776441Y-123707690D01*
X129921431Y-123495490D01*
X129972440Y-123243600D01*
X129972440Y-121516400D01*
X129928162Y-121281083D01*
X129789090Y-121064959D01*
X129576890Y-120919969D01*
X129325000Y-120868960D01*
X127293000Y-120868960D01*
X127057683Y-120913238D01*
X127041901Y-120923393D01*
X127036890Y-120919969D01*
X126785000Y-120868960D01*
X124753000Y-120868960D01*
X124517683Y-120913238D01*
X124501901Y-120923393D01*
X124496890Y-120919969D01*
X124245000Y-120868960D01*
X122213000Y-120868960D01*
X121977683Y-120913238D01*
X121961901Y-120923393D01*
X121956890Y-120919969D01*
X121705000Y-120868960D01*
X119673000Y-120868960D01*
X119437683Y-120913238D01*
X119421901Y-120923393D01*
X119416890Y-120919969D01*
X119165000Y-120868960D01*
X117133000Y-120868960D01*
X116897683Y-120913238D01*
X116881901Y-120923393D01*
X116876890Y-120919969D01*
X116625000Y-120868960D01*
X114593000Y-120868960D01*
X114357683Y-120913238D01*
X114341901Y-120923393D01*
X114336890Y-120919969D01*
X114085000Y-120868960D01*
X112053000Y-120868960D01*
X111817683Y-120913238D01*
X111801901Y-120923393D01*
X111796890Y-120919969D01*
X111545000Y-120868960D01*
X109513000Y-120868960D01*
X109277683Y-120913238D01*
X109061559Y-121052310D01*
X108916569Y-121264510D01*
X108865560Y-121516400D01*
X108865560Y-123243600D01*
X108909838Y-123478917D01*
X109048910Y-123695041D01*
X109261110Y-123840031D01*
X109302439Y-123848400D01*
X109284585Y-123860330D01*
X108959729Y-124346511D01*
X108845655Y-124920000D01*
X107785000Y-124920000D01*
X107785000Y-118776118D01*
X178990037Y-118776118D01*
X179132812Y-119121659D01*
X179396951Y-119386259D01*
X179742242Y-119529637D01*
X180116118Y-119529963D01*
X180461659Y-119387188D01*
X180726259Y-119123049D01*
X180869637Y-118777758D01*
X180869963Y-118403882D01*
X180727188Y-118058341D01*
X180463049Y-117793741D01*
X180117758Y-117650363D01*
X179743882Y-117650037D01*
X179398341Y-117792812D01*
X179133741Y-118056951D01*
X178990363Y-118402242D01*
X178990037Y-118776118D01*
X107785000Y-118776118D01*
X107785000Y-117166118D01*
X168930037Y-117166118D01*
X169072812Y-117511659D01*
X169336951Y-117776259D01*
X169682242Y-117919637D01*
X170056118Y-117919963D01*
X170401659Y-117777188D01*
X170666259Y-117513049D01*
X170809637Y-117167758D01*
X170809804Y-116976118D01*
X174090037Y-116976118D01*
X174232812Y-117321659D01*
X174496951Y-117586259D01*
X174842242Y-117729637D01*
X175216118Y-117729963D01*
X175561659Y-117587188D01*
X175826259Y-117323049D01*
X175969637Y-116977758D01*
X175969963Y-116603882D01*
X175827188Y-116258341D01*
X175563049Y-115993741D01*
X175327948Y-115896118D01*
X176600037Y-115896118D01*
X176742812Y-116241659D01*
X177006951Y-116506259D01*
X177352242Y-116649637D01*
X177726118Y-116649963D01*
X178071659Y-116507188D01*
X178336259Y-116243049D01*
X178479637Y-115897758D01*
X178479963Y-115523882D01*
X178337188Y-115178341D01*
X178073049Y-114913741D01*
X177727758Y-114770363D01*
X177353882Y-114770037D01*
X177008341Y-114912812D01*
X176743741Y-115176951D01*
X176600363Y-115522242D01*
X176600037Y-115896118D01*
X175327948Y-115896118D01*
X175217758Y-115850363D01*
X174843882Y-115850037D01*
X174498341Y-115992812D01*
X174233741Y-116256951D01*
X174090363Y-116602242D01*
X174090037Y-116976118D01*
X170809804Y-116976118D01*
X170809963Y-116793882D01*
X170667188Y-116448341D01*
X170403049Y-116183741D01*
X170057758Y-116040363D01*
X169683882Y-116040037D01*
X169338341Y-116182812D01*
X169073741Y-116446951D01*
X168930363Y-116792242D01*
X168930037Y-117166118D01*
X107785000Y-117166118D01*
X107785000Y-114816118D01*
X128710037Y-114816118D01*
X128852812Y-115161659D01*
X129116951Y-115426259D01*
X129233578Y-115474687D01*
X129372812Y-115811659D01*
X129636951Y-116076259D01*
X129982242Y-116219637D01*
X130356118Y-116219963D01*
X130701659Y-116077188D01*
X130966259Y-115813049D01*
X131109637Y-115467758D01*
X131109963Y-115093882D01*
X130967188Y-114748341D01*
X130903991Y-114685034D01*
X131066259Y-114523049D01*
X131209637Y-114177758D01*
X131209963Y-113803882D01*
X131095193Y-113526118D01*
X137670037Y-113526118D01*
X137812812Y-113871659D01*
X137930922Y-113989975D01*
X137813741Y-114106951D01*
X137670363Y-114452242D01*
X137670037Y-114826118D01*
X137812812Y-115171659D01*
X137940913Y-115299983D01*
X137823741Y-115416951D01*
X137680363Y-115762242D01*
X137680037Y-116136118D01*
X137822812Y-116481659D01*
X138086951Y-116746259D01*
X138432242Y-116889637D01*
X138806118Y-116889963D01*
X139151659Y-116747188D01*
X139416259Y-116483049D01*
X139549358Y-116162514D01*
X139731659Y-116087188D01*
X139996259Y-115823049D01*
X140139637Y-115477758D01*
X140139963Y-115103882D01*
X139997188Y-114758341D01*
X139884070Y-114645025D01*
X140006259Y-114523049D01*
X140149637Y-114177758D01*
X140149963Y-113803882D01*
X140007188Y-113458341D01*
X139895161Y-113346118D01*
X168870037Y-113346118D01*
X169012812Y-113691659D01*
X169276951Y-113956259D01*
X169622242Y-114099637D01*
X169996118Y-114099963D01*
X170247441Y-113996118D01*
X171390037Y-113996118D01*
X171532812Y-114341659D01*
X171796951Y-114606259D01*
X172142242Y-114749637D01*
X172516118Y-114749963D01*
X172861659Y-114607188D01*
X173126259Y-114343049D01*
X173269637Y-113997758D01*
X173269963Y-113623882D01*
X173127188Y-113278341D01*
X172863049Y-113013741D01*
X172517758Y-112870363D01*
X172143882Y-112870037D01*
X171798341Y-113012812D01*
X171533741Y-113276951D01*
X171390363Y-113622242D01*
X171390037Y-113996118D01*
X170247441Y-113996118D01*
X170341659Y-113957188D01*
X170606259Y-113693049D01*
X170749637Y-113347758D01*
X170749963Y-112973882D01*
X170607188Y-112628341D01*
X170343049Y-112363741D01*
X169997758Y-112220363D01*
X169623882Y-112220037D01*
X169278341Y-112362812D01*
X169013741Y-112626951D01*
X168870363Y-112972242D01*
X168870037Y-113346118D01*
X139895161Y-113346118D01*
X139879096Y-113330025D01*
X139986259Y-113223049D01*
X140129637Y-112877758D01*
X140129963Y-112503882D01*
X139987188Y-112158341D01*
X139879061Y-112050025D01*
X140006259Y-111923049D01*
X140149637Y-111577758D01*
X140149708Y-111496118D01*
X179330037Y-111496118D01*
X179472812Y-111841659D01*
X179736951Y-112106259D01*
X180082242Y-112249637D01*
X180456118Y-112249963D01*
X180801659Y-112107188D01*
X180986353Y-111922815D01*
X185964630Y-111922815D01*
X186288980Y-112707800D01*
X186889041Y-113308909D01*
X187673459Y-113634628D01*
X188522815Y-113635370D01*
X189307800Y-113311020D01*
X189908909Y-112710959D01*
X190234628Y-111926541D01*
X190235370Y-111077185D01*
X189911020Y-110292200D01*
X189310959Y-109691091D01*
X188526541Y-109365372D01*
X187677185Y-109364630D01*
X186892200Y-109688980D01*
X186291091Y-110289041D01*
X185965372Y-111073459D01*
X185964630Y-111922815D01*
X180986353Y-111922815D01*
X181066259Y-111843049D01*
X181209637Y-111497758D01*
X181209963Y-111123882D01*
X181067188Y-110778341D01*
X180803049Y-110513741D01*
X180457758Y-110370363D01*
X180083882Y-110370037D01*
X179738341Y-110512812D01*
X179473741Y-110776951D01*
X179330363Y-111122242D01*
X179330037Y-111496118D01*
X140149708Y-111496118D01*
X140149963Y-111203882D01*
X140007188Y-110858341D01*
X139743049Y-110593741D01*
X139553996Y-110515239D01*
X139427188Y-110208341D01*
X139163049Y-109943741D01*
X138817758Y-109800363D01*
X138443882Y-109800037D01*
X138098341Y-109942812D01*
X137833741Y-110206951D01*
X137690363Y-110552242D01*
X137690037Y-110926118D01*
X137832812Y-111271659D01*
X137955913Y-111394975D01*
X137843741Y-111506951D01*
X137700363Y-111852242D01*
X137700037Y-112226118D01*
X137842812Y-112571659D01*
X137945948Y-112674975D01*
X137813741Y-112806951D01*
X137670363Y-113152242D01*
X137670037Y-113526118D01*
X131095193Y-113526118D01*
X131067188Y-113458341D01*
X130949070Y-113340017D01*
X131076259Y-113213049D01*
X131219637Y-112867758D01*
X131219963Y-112493882D01*
X131077188Y-112148341D01*
X130989035Y-112060034D01*
X131126259Y-111923049D01*
X131269637Y-111577758D01*
X131269963Y-111203882D01*
X131127188Y-110858341D01*
X130863049Y-110593741D01*
X130637783Y-110500202D01*
X130517188Y-110208341D01*
X130253049Y-109943741D01*
X129907758Y-109800363D01*
X129533882Y-109800037D01*
X129188341Y-109942812D01*
X128923741Y-110206951D01*
X128780363Y-110552242D01*
X128780037Y-110926118D01*
X128922812Y-111271659D01*
X129010974Y-111359975D01*
X128863741Y-111506951D01*
X128720363Y-111852242D01*
X128720037Y-112226118D01*
X128862812Y-112571659D01*
X128985913Y-112694975D01*
X128873741Y-112806951D01*
X128730363Y-113152242D01*
X128730037Y-113526118D01*
X128872812Y-113871659D01*
X128975939Y-113974966D01*
X128853741Y-114096951D01*
X128710363Y-114442242D01*
X128710037Y-114816118D01*
X107785000Y-114816118D01*
X107785000Y-111922815D01*
X108964630Y-111922815D01*
X109288980Y-112707800D01*
X109889041Y-113308909D01*
X110673459Y-113634628D01*
X111522815Y-113635370D01*
X112307800Y-113311020D01*
X112908909Y-112710959D01*
X113234628Y-111926541D01*
X113235370Y-111077185D01*
X112911020Y-110292200D01*
X112310959Y-109691091D01*
X112106322Y-109606118D01*
X141040037Y-109606118D01*
X141182812Y-109951659D01*
X141446951Y-110216259D01*
X141792242Y-110359637D01*
X142166118Y-110359963D01*
X142511659Y-110217188D01*
X142776259Y-109953049D01*
X142919637Y-109607758D01*
X142919963Y-109233882D01*
X142777188Y-108888341D01*
X142513049Y-108623741D01*
X142195587Y-108491919D01*
X142521659Y-108357188D01*
X142786259Y-108093049D01*
X142926165Y-107756118D01*
X145950037Y-107756118D01*
X146092812Y-108101659D01*
X146356951Y-108366259D01*
X146655259Y-108490128D01*
X146358341Y-108612812D01*
X146093741Y-108876951D01*
X145950363Y-109222242D01*
X145950037Y-109596118D01*
X146092812Y-109941659D01*
X146356951Y-110206259D01*
X146702242Y-110349637D01*
X147076118Y-110349963D01*
X147421659Y-110207188D01*
X147686259Y-109943049D01*
X147705746Y-109896118D01*
X169250037Y-109896118D01*
X169392812Y-110241659D01*
X169656951Y-110506259D01*
X170002242Y-110649637D01*
X170376118Y-110649963D01*
X170721659Y-110507188D01*
X170986259Y-110243049D01*
X171129637Y-109897758D01*
X171129963Y-109523882D01*
X170987188Y-109178341D01*
X170723049Y-108913741D01*
X170377758Y-108770363D01*
X170003882Y-108770037D01*
X169658341Y-108912812D01*
X169393741Y-109176951D01*
X169250363Y-109522242D01*
X169250037Y-109896118D01*
X147705746Y-109896118D01*
X147829637Y-109597758D01*
X147829963Y-109223882D01*
X147687188Y-108878341D01*
X147423049Y-108613741D01*
X147124741Y-108489872D01*
X147421659Y-108367188D01*
X147600071Y-108189087D01*
X147766951Y-108356259D01*
X148112242Y-108499637D01*
X148486118Y-108499963D01*
X148831659Y-108357188D01*
X149096259Y-108093049D01*
X149239637Y-107747758D01*
X149239673Y-107706118D01*
X157910037Y-107706118D01*
X158052812Y-108051659D01*
X158105922Y-108104861D01*
X158053741Y-108156951D01*
X157910363Y-108502242D01*
X157910037Y-108876118D01*
X158052812Y-109221659D01*
X158316951Y-109486259D01*
X158662242Y-109629637D01*
X159036118Y-109629963D01*
X159381659Y-109487188D01*
X159646259Y-109223049D01*
X159789637Y-108877758D01*
X159789963Y-108503882D01*
X159647188Y-108158341D01*
X159594078Y-108105139D01*
X159613132Y-108086118D01*
X170940037Y-108086118D01*
X171082812Y-108431659D01*
X171346951Y-108696259D01*
X171692242Y-108839637D01*
X172066118Y-108839963D01*
X172411659Y-108697188D01*
X172676259Y-108433049D01*
X172819637Y-108087758D01*
X172819963Y-107713882D01*
X172677188Y-107368341D01*
X172413049Y-107103741D01*
X172067758Y-106960363D01*
X171693882Y-106960037D01*
X171348341Y-107102812D01*
X171083741Y-107366951D01*
X170940363Y-107712242D01*
X170940037Y-108086118D01*
X159613132Y-108086118D01*
X159646259Y-108053049D01*
X159789637Y-107707758D01*
X159789963Y-107333882D01*
X159647188Y-106988341D01*
X159383049Y-106723741D01*
X159037758Y-106580363D01*
X158663882Y-106580037D01*
X158318341Y-106722812D01*
X158053741Y-106986951D01*
X157910363Y-107332242D01*
X157910037Y-107706118D01*
X149239673Y-107706118D01*
X149239963Y-107373882D01*
X149097188Y-107028341D01*
X148833049Y-106763741D01*
X148487758Y-106620363D01*
X148113882Y-106620037D01*
X147768341Y-106762812D01*
X147589929Y-106940913D01*
X147423049Y-106773741D01*
X147077758Y-106630363D01*
X146703882Y-106630037D01*
X146358341Y-106772812D01*
X146093741Y-107036951D01*
X145950363Y-107382242D01*
X145950037Y-107756118D01*
X142926165Y-107756118D01*
X142929637Y-107747758D01*
X142929963Y-107373882D01*
X142787188Y-107028341D01*
X142523049Y-106763741D01*
X142177758Y-106620363D01*
X141803882Y-106620037D01*
X141458341Y-106762812D01*
X141193741Y-107026951D01*
X141050363Y-107372242D01*
X141050037Y-107746118D01*
X141192812Y-108091659D01*
X141456951Y-108356259D01*
X141774413Y-108488081D01*
X141448341Y-108622812D01*
X141183741Y-108886951D01*
X141040363Y-109232242D01*
X141040037Y-109606118D01*
X112106322Y-109606118D01*
X111526541Y-109365372D01*
X110677185Y-109364630D01*
X109892200Y-109688980D01*
X109291091Y-110289041D01*
X108965372Y-111073459D01*
X108964630Y-111922815D01*
X107785000Y-111922815D01*
X107785000Y-107755913D01*
X109170816Y-107755913D01*
X109364046Y-108308320D01*
X109753964Y-108744732D01*
X110281209Y-108998709D01*
X110296974Y-109001358D01*
X110529000Y-108880217D01*
X110529000Y-107521000D01*
X109315076Y-107521000D01*
X109170816Y-107755913D01*
X107785000Y-107755913D01*
X107785000Y-105215913D01*
X109170816Y-105215913D01*
X109364046Y-105768320D01*
X109681833Y-106124000D01*
X109364046Y-106479680D01*
X109170816Y-107032087D01*
X109315076Y-107267000D01*
X110529000Y-107267000D01*
X110529000Y-104981000D01*
X109315076Y-104981000D01*
X109170816Y-105215913D01*
X107785000Y-105215913D01*
X107785000Y-102675913D01*
X109170816Y-102675913D01*
X109364046Y-103228320D01*
X109681833Y-103584000D01*
X109364046Y-103939680D01*
X109170816Y-104492087D01*
X109315076Y-104727000D01*
X110529000Y-104727000D01*
X110529000Y-102441000D01*
X109315076Y-102441000D01*
X109170816Y-102675913D01*
X107785000Y-102675913D01*
X107785000Y-100135913D01*
X109170816Y-100135913D01*
X109364046Y-100688320D01*
X109681833Y-101044000D01*
X109364046Y-101399680D01*
X109170816Y-101952087D01*
X109315076Y-102187000D01*
X110529000Y-102187000D01*
X110529000Y-99901000D01*
X109315076Y-99901000D01*
X109170816Y-100135913D01*
X107785000Y-100135913D01*
X107785000Y-97595913D01*
X109170816Y-97595913D01*
X109364046Y-98148320D01*
X109681833Y-98504000D01*
X109364046Y-98859680D01*
X109170816Y-99412087D01*
X109315076Y-99647000D01*
X110529000Y-99647000D01*
X110529000Y-97361000D01*
X109315076Y-97361000D01*
X109170816Y-97595913D01*
X107785000Y-97595913D01*
X107785000Y-95055913D01*
X109170816Y-95055913D01*
X109364046Y-95608320D01*
X109681833Y-95964000D01*
X109364046Y-96319680D01*
X109170816Y-96872087D01*
X109315076Y-97107000D01*
X110529000Y-97107000D01*
X110529000Y-94821000D01*
X109315076Y-94821000D01*
X109170816Y-95055913D01*
X107785000Y-95055913D01*
X107785000Y-92515913D01*
X109170816Y-92515913D01*
X109364046Y-93068320D01*
X109681833Y-93424000D01*
X109364046Y-93779680D01*
X109170816Y-94332087D01*
X109315076Y-94567000D01*
X110529000Y-94567000D01*
X110529000Y-92281000D01*
X109315076Y-92281000D01*
X109170816Y-92515913D01*
X107785000Y-92515913D01*
X107785000Y-89975913D01*
X109170816Y-89975913D01*
X109364046Y-90528320D01*
X109681833Y-90884000D01*
X109364046Y-91239680D01*
X109170816Y-91792087D01*
X109315076Y-92027000D01*
X110529000Y-92027000D01*
X110529000Y-89741000D01*
X109315076Y-89741000D01*
X109170816Y-89975913D01*
X107785000Y-89975913D01*
X107785000Y-89252087D01*
X109170816Y-89252087D01*
X109315076Y-89487000D01*
X110529000Y-89487000D01*
X110529000Y-88127783D01*
X110783000Y-88127783D01*
X110783000Y-89487000D01*
X110803000Y-89487000D01*
X110803000Y-89741000D01*
X110783000Y-89741000D01*
X110783000Y-92027000D01*
X110803000Y-92027000D01*
X110803000Y-92281000D01*
X110783000Y-92281000D01*
X110783000Y-94567000D01*
X110803000Y-94567000D01*
X110803000Y-94821000D01*
X110783000Y-94821000D01*
X110783000Y-97107000D01*
X110803000Y-97107000D01*
X110803000Y-97361000D01*
X110783000Y-97361000D01*
X110783000Y-99647000D01*
X110803000Y-99647000D01*
X110803000Y-99901000D01*
X110783000Y-99901000D01*
X110783000Y-102187000D01*
X110803000Y-102187000D01*
X110803000Y-102441000D01*
X110783000Y-102441000D01*
X110783000Y-104727000D01*
X110803000Y-104727000D01*
X110803000Y-104981000D01*
X110783000Y-104981000D01*
X110783000Y-107267000D01*
X110803000Y-107267000D01*
X110803000Y-107521000D01*
X110783000Y-107521000D01*
X110783000Y-108880217D01*
X111015026Y-109001358D01*
X111030791Y-108998709D01*
X111558036Y-108744732D01*
X111929539Y-108328931D01*
X112136330Y-108638415D01*
X112622511Y-108963271D01*
X113196000Y-109077345D01*
X113769489Y-108963271D01*
X114255670Y-108638415D01*
X114265243Y-108624087D01*
X114269238Y-108645317D01*
X114408310Y-108861441D01*
X114620510Y-109006431D01*
X114872400Y-109057440D01*
X116599600Y-109057440D01*
X116834917Y-109013162D01*
X117051041Y-108874090D01*
X117196031Y-108661890D01*
X117247040Y-108410000D01*
X117247040Y-107686118D01*
X124270037Y-107686118D01*
X124412812Y-108031659D01*
X124676951Y-108296259D01*
X125022242Y-108439637D01*
X125396118Y-108439963D01*
X125741659Y-108297188D01*
X126006259Y-108033049D01*
X126149637Y-107687758D01*
X126149647Y-107676118D01*
X137800037Y-107676118D01*
X137942812Y-108021659D01*
X138206951Y-108286259D01*
X138552242Y-108429637D01*
X138926118Y-108429963D01*
X139271659Y-108287188D01*
X139536259Y-108023049D01*
X139679637Y-107677758D01*
X139679963Y-107303882D01*
X139537188Y-106958341D01*
X139273049Y-106693741D01*
X138927758Y-106550363D01*
X138553882Y-106550037D01*
X138208341Y-106692812D01*
X137943741Y-106956951D01*
X137800363Y-107302242D01*
X137800037Y-107676118D01*
X126149647Y-107676118D01*
X126149963Y-107313882D01*
X126007188Y-106968341D01*
X125743049Y-106703741D01*
X125397758Y-106560363D01*
X125023882Y-106560037D01*
X124678341Y-106702812D01*
X124413741Y-106966951D01*
X124270363Y-107312242D01*
X124270037Y-107686118D01*
X117247040Y-107686118D01*
X117247040Y-106378000D01*
X117202762Y-106142683D01*
X117192607Y-106126901D01*
X117196031Y-106121890D01*
X117247040Y-105870000D01*
X117247040Y-104876118D01*
X120840037Y-104876118D01*
X120982812Y-105221659D01*
X121246951Y-105486259D01*
X121592242Y-105629637D01*
X121966118Y-105629963D01*
X122311659Y-105487188D01*
X122576259Y-105223049D01*
X122719637Y-104877758D01*
X122719638Y-104876118D01*
X129470037Y-104876118D01*
X129612812Y-105221659D01*
X129876951Y-105486259D01*
X130222242Y-105629637D01*
X130596118Y-105629963D01*
X130941659Y-105487188D01*
X131082975Y-105346118D01*
X133720037Y-105346118D01*
X133862812Y-105691659D01*
X134126951Y-105956259D01*
X134472242Y-106099637D01*
X134846118Y-106099963D01*
X135191659Y-105957188D01*
X135456259Y-105693049D01*
X135599637Y-105347758D01*
X135599725Y-105246118D01*
X137640037Y-105246118D01*
X137782812Y-105591659D01*
X138046951Y-105856259D01*
X138392242Y-105999637D01*
X138766118Y-105999963D01*
X139111659Y-105857188D01*
X139376259Y-105593049D01*
X139519637Y-105247758D01*
X139519963Y-104873882D01*
X139377188Y-104528341D01*
X139113049Y-104263741D01*
X138767758Y-104120363D01*
X138393882Y-104120037D01*
X138048341Y-104262812D01*
X137783741Y-104526951D01*
X137640363Y-104872242D01*
X137640037Y-105246118D01*
X135599725Y-105246118D01*
X135599879Y-105069932D01*
X135912242Y-105199637D01*
X136286118Y-105199963D01*
X136631659Y-105057188D01*
X136896259Y-104793049D01*
X137039637Y-104447758D01*
X137039963Y-104073882D01*
X136912798Y-103766118D01*
X141130037Y-103766118D01*
X141272812Y-104111659D01*
X141536951Y-104376259D01*
X141882242Y-104519637D01*
X142256118Y-104519963D01*
X142601659Y-104377188D01*
X142866259Y-104113049D01*
X142997860Y-103796118D01*
X169480037Y-103796118D01*
X169622812Y-104141659D01*
X169886951Y-104406259D01*
X170232242Y-104549637D01*
X170606118Y-104549963D01*
X170951659Y-104407188D01*
X171216259Y-104143049D01*
X171359637Y-103797758D01*
X171359963Y-103423882D01*
X171217188Y-103078341D01*
X170953049Y-102813741D01*
X170607758Y-102670363D01*
X170233882Y-102670037D01*
X169888341Y-102812812D01*
X169623741Y-103076951D01*
X169480363Y-103422242D01*
X169480037Y-103796118D01*
X142997860Y-103796118D01*
X143009637Y-103767758D01*
X143009963Y-103393882D01*
X142867188Y-103048341D01*
X142603049Y-102783741D01*
X142257758Y-102640363D01*
X141883882Y-102640037D01*
X141538341Y-102782812D01*
X141273741Y-103046951D01*
X141130363Y-103392242D01*
X141130037Y-103766118D01*
X136912798Y-103766118D01*
X136897188Y-103728341D01*
X136633049Y-103463741D01*
X136287758Y-103320363D01*
X135913882Y-103320037D01*
X135568341Y-103462812D01*
X135303741Y-103726951D01*
X135160363Y-104072242D01*
X135160121Y-104350068D01*
X134847758Y-104220363D01*
X134473882Y-104220037D01*
X134128341Y-104362812D01*
X133863741Y-104626951D01*
X133720363Y-104972242D01*
X133720037Y-105346118D01*
X131082975Y-105346118D01*
X131206259Y-105223049D01*
X131349637Y-104877758D01*
X131349963Y-104503882D01*
X131207188Y-104158341D01*
X130943049Y-103893741D01*
X130597758Y-103750363D01*
X130223882Y-103750037D01*
X129878341Y-103892812D01*
X129613741Y-104156951D01*
X129470363Y-104502242D01*
X129470037Y-104876118D01*
X122719638Y-104876118D01*
X122719963Y-104503882D01*
X122577188Y-104158341D01*
X122313049Y-103893741D01*
X121967758Y-103750363D01*
X121593882Y-103750037D01*
X121248341Y-103892812D01*
X120983741Y-104156951D01*
X120840363Y-104502242D01*
X120840037Y-104876118D01*
X117247040Y-104876118D01*
X117247040Y-103838000D01*
X117202762Y-103602683D01*
X117192607Y-103586901D01*
X117196031Y-103581890D01*
X117221500Y-103456118D01*
X133100037Y-103456118D01*
X133242812Y-103801659D01*
X133506951Y-104066259D01*
X133852242Y-104209637D01*
X134226118Y-104209963D01*
X134571659Y-104067188D01*
X134836259Y-103803049D01*
X134979637Y-103457758D01*
X134979895Y-103162224D01*
X135142242Y-103229637D01*
X135516118Y-103229963D01*
X135861659Y-103087188D01*
X136126259Y-102823049D01*
X136269637Y-102477758D01*
X136269963Y-102103882D01*
X136210974Y-101961118D01*
X142685037Y-101961118D01*
X142827812Y-102306659D01*
X143091951Y-102571259D01*
X143437242Y-102714637D01*
X143811118Y-102714963D01*
X144156659Y-102572188D01*
X144421259Y-102308049D01*
X144564637Y-101962758D01*
X144564963Y-101588882D01*
X144422188Y-101243341D01*
X144158049Y-100978741D01*
X143812758Y-100835363D01*
X143438882Y-100835037D01*
X143093341Y-100977812D01*
X142828741Y-101241951D01*
X142685363Y-101587242D01*
X142685037Y-101961118D01*
X136210974Y-101961118D01*
X136127188Y-101758341D01*
X135863049Y-101493741D01*
X135517758Y-101350363D01*
X135143882Y-101350037D01*
X134798341Y-101492812D01*
X134533741Y-101756951D01*
X134390363Y-102102242D01*
X134390105Y-102397776D01*
X134227758Y-102330363D01*
X133853882Y-102330037D01*
X133508341Y-102472812D01*
X133243741Y-102736951D01*
X133100363Y-103082242D01*
X133100037Y-103456118D01*
X117221500Y-103456118D01*
X117247040Y-103330000D01*
X117247040Y-101298000D01*
X117202762Y-101062683D01*
X117192607Y-101046901D01*
X117196031Y-101041890D01*
X117247040Y-100790000D01*
X117247040Y-100466118D01*
X120700037Y-100466118D01*
X120842812Y-100811659D01*
X121106951Y-101076259D01*
X121452242Y-101219637D01*
X121826118Y-101219963D01*
X122171659Y-101077188D01*
X122436259Y-100813049D01*
X122579637Y-100467758D01*
X122579647Y-100456118D01*
X129480037Y-100456118D01*
X129622812Y-100801659D01*
X129886951Y-101066259D01*
X130232242Y-101209637D01*
X130606118Y-101209963D01*
X130951659Y-101067188D01*
X131216259Y-100803049D01*
X131359637Y-100457758D01*
X131359677Y-100411118D01*
X139635037Y-100411118D01*
X139777812Y-100756659D01*
X140041951Y-101021259D01*
X140387242Y-101164637D01*
X140761118Y-101164963D01*
X141106659Y-101022188D01*
X141371259Y-100758049D01*
X141514637Y-100412758D01*
X141514963Y-100038882D01*
X141398127Y-99756118D01*
X159490037Y-99756118D01*
X159632812Y-100101659D01*
X159896951Y-100366259D01*
X160242242Y-100509637D01*
X160616118Y-100509963D01*
X160961659Y-100367188D01*
X161226259Y-100103049D01*
X161369637Y-99757758D01*
X161369963Y-99383882D01*
X161227188Y-99038341D01*
X160963049Y-98773741D01*
X160617758Y-98630363D01*
X160243882Y-98630037D01*
X159898341Y-98772812D01*
X159633741Y-99036951D01*
X159490363Y-99382242D01*
X159490037Y-99756118D01*
X141398127Y-99756118D01*
X141372188Y-99693341D01*
X141108049Y-99428741D01*
X140762758Y-99285363D01*
X140388882Y-99285037D01*
X140043341Y-99427812D01*
X139778741Y-99691951D01*
X139635363Y-100037242D01*
X139635037Y-100411118D01*
X131359677Y-100411118D01*
X131359963Y-100083882D01*
X131217188Y-99738341D01*
X130953049Y-99473741D01*
X130607758Y-99330363D01*
X130233882Y-99330037D01*
X129888341Y-99472812D01*
X129623741Y-99736951D01*
X129480363Y-100082242D01*
X129480037Y-100456118D01*
X122579647Y-100456118D01*
X122579963Y-100093882D01*
X122437188Y-99748341D01*
X122173049Y-99483741D01*
X121827758Y-99340363D01*
X121453882Y-99340037D01*
X121108341Y-99482812D01*
X120843741Y-99746951D01*
X120700363Y-100092242D01*
X120700037Y-100466118D01*
X117247040Y-100466118D01*
X117247040Y-98758000D01*
X117202762Y-98522683D01*
X117192607Y-98506901D01*
X117194589Y-98504000D01*
X181788960Y-98504000D01*
X181788960Y-100536000D01*
X181833238Y-100771317D01*
X181843393Y-100787099D01*
X181839969Y-100792110D01*
X181788960Y-101044000D01*
X181788960Y-103076000D01*
X181833238Y-103311317D01*
X181843393Y-103327099D01*
X181839969Y-103332110D01*
X181788960Y-103584000D01*
X181788960Y-105616000D01*
X181833238Y-105851317D01*
X181843393Y-105867099D01*
X181839969Y-105872110D01*
X181788960Y-106124000D01*
X181788960Y-108156000D01*
X181833238Y-108391317D01*
X181972310Y-108607441D01*
X182184510Y-108752431D01*
X182436400Y-108803440D01*
X184163600Y-108803440D01*
X184398917Y-108759162D01*
X184615041Y-108620090D01*
X184760031Y-108407890D01*
X184768400Y-108366561D01*
X184780330Y-108384415D01*
X185266511Y-108709271D01*
X185840000Y-108823345D01*
X186413489Y-108709271D01*
X186899670Y-108384415D01*
X187106461Y-108074931D01*
X187477964Y-108490732D01*
X188005209Y-108744709D01*
X188020974Y-108747358D01*
X188253000Y-108626217D01*
X188253000Y-107267000D01*
X188507000Y-107267000D01*
X188507000Y-108626217D01*
X188739026Y-108747358D01*
X188754791Y-108744709D01*
X189282036Y-108490732D01*
X189671954Y-108054320D01*
X189865184Y-107501913D01*
X189720924Y-107267000D01*
X188507000Y-107267000D01*
X188253000Y-107267000D01*
X188233000Y-107267000D01*
X188233000Y-107013000D01*
X188253000Y-107013000D01*
X188253000Y-104727000D01*
X188507000Y-104727000D01*
X188507000Y-107013000D01*
X189720924Y-107013000D01*
X189865184Y-106778087D01*
X189671954Y-106225680D01*
X189354167Y-105870000D01*
X189671954Y-105514320D01*
X189865184Y-104961913D01*
X189720924Y-104727000D01*
X188507000Y-104727000D01*
X188253000Y-104727000D01*
X188233000Y-104727000D01*
X188233000Y-104473000D01*
X188253000Y-104473000D01*
X188253000Y-102187000D01*
X188507000Y-102187000D01*
X188507000Y-104473000D01*
X189720924Y-104473000D01*
X189865184Y-104238087D01*
X189671954Y-103685680D01*
X189354167Y-103330000D01*
X189671954Y-102974320D01*
X189865184Y-102421913D01*
X189720924Y-102187000D01*
X188507000Y-102187000D01*
X188253000Y-102187000D01*
X188233000Y-102187000D01*
X188233000Y-101933000D01*
X188253000Y-101933000D01*
X188253000Y-99647000D01*
X188507000Y-99647000D01*
X188507000Y-101933000D01*
X189720924Y-101933000D01*
X189865184Y-101698087D01*
X189671954Y-101145680D01*
X189354167Y-100790000D01*
X189671954Y-100434320D01*
X189865184Y-99881913D01*
X189720924Y-99647000D01*
X188507000Y-99647000D01*
X188253000Y-99647000D01*
X188233000Y-99647000D01*
X188233000Y-99393000D01*
X188253000Y-99393000D01*
X188253000Y-98033783D01*
X188507000Y-98033783D01*
X188507000Y-99393000D01*
X189720924Y-99393000D01*
X189865184Y-99158087D01*
X189671954Y-98605680D01*
X189282036Y-98169268D01*
X188754791Y-97915291D01*
X188739026Y-97912642D01*
X188507000Y-98033783D01*
X188253000Y-98033783D01*
X188020974Y-97912642D01*
X188005209Y-97915291D01*
X187477964Y-98169268D01*
X187106461Y-98585069D01*
X186899670Y-98275585D01*
X186413489Y-97950729D01*
X185840000Y-97836655D01*
X185266511Y-97950729D01*
X184780330Y-98275585D01*
X184770757Y-98289913D01*
X184766762Y-98268683D01*
X184627690Y-98052559D01*
X184415490Y-97907569D01*
X184163600Y-97856560D01*
X182436400Y-97856560D01*
X182201083Y-97900838D01*
X181984959Y-98039910D01*
X181839969Y-98252110D01*
X181788960Y-98504000D01*
X117194589Y-98504000D01*
X117196031Y-98501890D01*
X117247040Y-98250000D01*
X117247040Y-96218000D01*
X117245746Y-96211118D01*
X138725037Y-96211118D01*
X138867812Y-96556659D01*
X139131951Y-96821259D01*
X139477242Y-96964637D01*
X139851118Y-96964963D01*
X140196659Y-96822188D01*
X140461259Y-96558049D01*
X140584556Y-96261118D01*
X145335037Y-96261118D01*
X145477812Y-96606659D01*
X145741951Y-96871259D01*
X146087242Y-97014637D01*
X146461118Y-97014963D01*
X146806659Y-96872188D01*
X147071259Y-96608049D01*
X147214637Y-96262758D01*
X147214963Y-95888882D01*
X147184898Y-95816118D01*
X158150037Y-95816118D01*
X158292812Y-96161659D01*
X158556951Y-96426259D01*
X158902242Y-96569637D01*
X159276118Y-96569963D01*
X159621659Y-96427188D01*
X159886259Y-96163049D01*
X160029637Y-95817758D01*
X160029963Y-95443882D01*
X159887188Y-95098341D01*
X159762759Y-94973694D01*
X187115226Y-94973694D01*
X187363538Y-95574655D01*
X187822927Y-96034846D01*
X188423453Y-96284206D01*
X189073694Y-96284774D01*
X189674655Y-96036462D01*
X190134846Y-95577073D01*
X190384206Y-94976547D01*
X190384774Y-94326306D01*
X190136462Y-93725345D01*
X189677073Y-93265154D01*
X189076547Y-93015794D01*
X188426306Y-93015226D01*
X187825345Y-93263538D01*
X187365154Y-93722927D01*
X187115794Y-94323453D01*
X187115226Y-94973694D01*
X159762759Y-94973694D01*
X159623049Y-94833741D01*
X159277758Y-94690363D01*
X158903882Y-94690037D01*
X158558341Y-94832812D01*
X158293741Y-95096951D01*
X158150363Y-95442242D01*
X158150037Y-95816118D01*
X147184898Y-95816118D01*
X147072188Y-95543341D01*
X146808049Y-95278741D01*
X146462758Y-95135363D01*
X146088882Y-95135037D01*
X145743341Y-95277812D01*
X145478741Y-95541951D01*
X145335363Y-95887242D01*
X145335037Y-96261118D01*
X140584556Y-96261118D01*
X140604637Y-96212758D01*
X140604963Y-95838882D01*
X140462188Y-95493341D01*
X140198049Y-95228741D01*
X139852758Y-95085363D01*
X139478882Y-95085037D01*
X139133341Y-95227812D01*
X138868741Y-95491951D01*
X138725363Y-95837242D01*
X138725037Y-96211118D01*
X117245746Y-96211118D01*
X117202762Y-95982683D01*
X117192607Y-95966901D01*
X117196031Y-95961890D01*
X117247040Y-95710000D01*
X117247040Y-95256118D01*
X129440037Y-95256118D01*
X129582812Y-95601659D01*
X129846951Y-95866259D01*
X130192242Y-96009637D01*
X130566118Y-96009963D01*
X130911659Y-95867188D01*
X131176259Y-95603049D01*
X131319637Y-95257758D01*
X131319963Y-94883882D01*
X131177188Y-94538341D01*
X130913049Y-94273741D01*
X130567758Y-94130363D01*
X130193882Y-94130037D01*
X129848341Y-94272812D01*
X129583741Y-94536951D01*
X129440363Y-94882242D01*
X129440037Y-95256118D01*
X117247040Y-95256118D01*
X117247040Y-93678000D01*
X117246686Y-93676118D01*
X125090037Y-93676118D01*
X125232812Y-94021659D01*
X125496951Y-94286259D01*
X125842242Y-94429637D01*
X126216118Y-94429963D01*
X126561659Y-94287188D01*
X126781870Y-94067361D01*
X126882812Y-94311659D01*
X127146951Y-94576259D01*
X127492242Y-94719637D01*
X127866118Y-94719963D01*
X128211659Y-94577188D01*
X128476259Y-94313049D01*
X128619637Y-93967758D01*
X128619963Y-93593882D01*
X128477188Y-93248341D01*
X128415074Y-93186118D01*
X147800037Y-93186118D01*
X147942812Y-93531659D01*
X148206951Y-93796259D01*
X148552242Y-93939637D01*
X148926118Y-93939963D01*
X149271659Y-93797188D01*
X149536259Y-93533049D01*
X149679637Y-93187758D01*
X149679963Y-92813882D01*
X149537188Y-92468341D01*
X149273049Y-92203741D01*
X148965701Y-92076118D01*
X151110037Y-92076118D01*
X151252812Y-92421659D01*
X151516951Y-92686259D01*
X151862242Y-92829637D01*
X152236118Y-92829963D01*
X152581659Y-92687188D01*
X152846259Y-92423049D01*
X152989637Y-92077758D01*
X152989963Y-91703882D01*
X152847188Y-91358341D01*
X152583049Y-91093741D01*
X152237758Y-90950363D01*
X151863882Y-90950037D01*
X151518341Y-91092812D01*
X151253741Y-91356951D01*
X151110363Y-91702242D01*
X151110037Y-92076118D01*
X148965701Y-92076118D01*
X148927758Y-92060363D01*
X148553882Y-92060037D01*
X148208341Y-92202812D01*
X147943741Y-92466951D01*
X147800363Y-92812242D01*
X147800037Y-93186118D01*
X128415074Y-93186118D01*
X128213049Y-92983741D01*
X127867758Y-92840363D01*
X127493882Y-92840037D01*
X127148341Y-92982812D01*
X126928130Y-93202639D01*
X126827188Y-92958341D01*
X126563049Y-92693741D01*
X126217758Y-92550363D01*
X125843882Y-92550037D01*
X125498341Y-92692812D01*
X125233741Y-92956951D01*
X125090363Y-93302242D01*
X125090037Y-93676118D01*
X117246686Y-93676118D01*
X117202762Y-93442683D01*
X117192607Y-93426901D01*
X117196031Y-93421890D01*
X117247040Y-93170000D01*
X117247040Y-91996118D01*
X120450037Y-91996118D01*
X120592812Y-92341659D01*
X120856951Y-92606259D01*
X121202242Y-92749637D01*
X121576118Y-92749963D01*
X121921659Y-92607188D01*
X122186259Y-92343049D01*
X122329637Y-91997758D01*
X122329638Y-91996118D01*
X130230037Y-91996118D01*
X130372812Y-92341659D01*
X130636951Y-92606259D01*
X130982242Y-92749637D01*
X131356118Y-92749963D01*
X131701659Y-92607188D01*
X131966259Y-92343049D01*
X132109637Y-91997758D01*
X132109963Y-91623882D01*
X131967188Y-91278341D01*
X131703049Y-91013741D01*
X131357758Y-90870363D01*
X130983882Y-90870037D01*
X130638341Y-91012812D01*
X130373741Y-91276951D01*
X130230363Y-91622242D01*
X130230037Y-91996118D01*
X122329638Y-91996118D01*
X122329963Y-91623882D01*
X122187188Y-91278341D01*
X121923049Y-91013741D01*
X121577758Y-90870363D01*
X121203882Y-90870037D01*
X120858341Y-91012812D01*
X120593741Y-91276951D01*
X120450363Y-91622242D01*
X120450037Y-91996118D01*
X117247040Y-91996118D01*
X117247040Y-91138000D01*
X117202762Y-90902683D01*
X117192607Y-90886901D01*
X117196031Y-90881890D01*
X117247040Y-90630000D01*
X117247040Y-89616118D01*
X120280037Y-89616118D01*
X120422812Y-89961659D01*
X120686951Y-90226259D01*
X121032242Y-90369637D01*
X121406118Y-90369963D01*
X121751659Y-90227188D01*
X121902992Y-90076118D01*
X148010037Y-90076118D01*
X148152812Y-90421659D01*
X148416951Y-90686259D01*
X148762242Y-90829637D01*
X149136118Y-90829963D01*
X149481659Y-90687188D01*
X149746259Y-90423049D01*
X149889637Y-90077758D01*
X149889963Y-89703882D01*
X149747188Y-89358341D01*
X149483049Y-89093741D01*
X149137758Y-88950363D01*
X148763882Y-88950037D01*
X148418341Y-89092812D01*
X148153741Y-89356951D01*
X148010363Y-89702242D01*
X148010037Y-90076118D01*
X121902992Y-90076118D01*
X122016259Y-89963049D01*
X122159637Y-89617758D01*
X122159963Y-89243882D01*
X122028666Y-88926118D01*
X152780037Y-88926118D01*
X152922812Y-89271659D01*
X153186951Y-89536259D01*
X153532242Y-89679637D01*
X153906118Y-89679963D01*
X154251659Y-89537188D01*
X154516259Y-89273049D01*
X154659637Y-88927758D01*
X154659963Y-88553882D01*
X154517188Y-88208341D01*
X154253049Y-87943741D01*
X153907758Y-87800363D01*
X153533882Y-87800037D01*
X153188341Y-87942812D01*
X152923741Y-88206951D01*
X152780363Y-88552242D01*
X152780037Y-88926118D01*
X122028666Y-88926118D01*
X122017188Y-88898341D01*
X121753049Y-88633741D01*
X121407758Y-88490363D01*
X121033882Y-88490037D01*
X120688341Y-88632812D01*
X120423741Y-88896951D01*
X120280363Y-89242242D01*
X120280037Y-89616118D01*
X117247040Y-89616118D01*
X117247040Y-88598000D01*
X117202762Y-88362683D01*
X117063690Y-88146559D01*
X116851490Y-88001569D01*
X116599600Y-87950560D01*
X114872400Y-87950560D01*
X114637083Y-87994838D01*
X114420959Y-88133910D01*
X114275969Y-88346110D01*
X114267600Y-88387439D01*
X114255670Y-88369585D01*
X113769489Y-88044729D01*
X113196000Y-87930655D01*
X112622511Y-88044729D01*
X112136330Y-88369585D01*
X111929539Y-88679069D01*
X111558036Y-88263268D01*
X111030791Y-88009291D01*
X111015026Y-88006642D01*
X110783000Y-88127783D01*
X110529000Y-88127783D01*
X110296974Y-88006642D01*
X110281209Y-88009291D01*
X109753964Y-88263268D01*
X109364046Y-88699680D01*
X109170816Y-89252087D01*
X107785000Y-89252087D01*
X107785000Y-85251913D01*
X109204816Y-85251913D01*
X109398046Y-85804320D01*
X109787964Y-86240732D01*
X110315209Y-86494709D01*
X110330974Y-86497358D01*
X110563000Y-86376217D01*
X110563000Y-85017000D01*
X109349076Y-85017000D01*
X109204816Y-85251913D01*
X107785000Y-85251913D01*
X107785000Y-84528087D01*
X109204816Y-84528087D01*
X109349076Y-84763000D01*
X110563000Y-84763000D01*
X110563000Y-83403783D01*
X110817000Y-83403783D01*
X110817000Y-84763000D01*
X110837000Y-84763000D01*
X110837000Y-85017000D01*
X110817000Y-85017000D01*
X110817000Y-86376217D01*
X111049026Y-86497358D01*
X111064791Y-86494709D01*
X111592036Y-86240732D01*
X111963539Y-85824931D01*
X112170330Y-86134415D01*
X112656511Y-86459271D01*
X113230000Y-86573345D01*
X113803489Y-86459271D01*
X114289670Y-86134415D01*
X114500000Y-85819634D01*
X114710330Y-86134415D01*
X115196511Y-86459271D01*
X115770000Y-86573345D01*
X116343489Y-86459271D01*
X116829670Y-86134415D01*
X116839243Y-86120087D01*
X116843238Y-86141317D01*
X116982310Y-86357441D01*
X117194510Y-86502431D01*
X117446400Y-86553440D01*
X119173600Y-86553440D01*
X119350626Y-86520130D01*
X119313741Y-86556951D01*
X119170363Y-86902242D01*
X119170037Y-87276118D01*
X119312812Y-87621659D01*
X119576951Y-87886259D01*
X119922242Y-88029637D01*
X120296118Y-88029963D01*
X120641659Y-87887188D01*
X120682800Y-87846118D01*
X147650037Y-87846118D01*
X147792812Y-88191659D01*
X148056951Y-88456259D01*
X148402242Y-88599637D01*
X148776118Y-88599963D01*
X149121659Y-88457188D01*
X149386259Y-88193049D01*
X149529637Y-87847758D01*
X149529963Y-87473882D01*
X149387188Y-87128341D01*
X149123049Y-86863741D01*
X148887948Y-86766118D01*
X150950037Y-86766118D01*
X151092812Y-87111659D01*
X151356951Y-87376259D01*
X151702242Y-87519637D01*
X152076118Y-87519963D01*
X152421659Y-87377188D01*
X152686259Y-87113049D01*
X152829637Y-86767758D01*
X152829963Y-86393882D01*
X152687188Y-86048341D01*
X152423049Y-85783741D01*
X152077758Y-85640363D01*
X151703882Y-85640037D01*
X151358341Y-85782812D01*
X151093741Y-86046951D01*
X150950363Y-86392242D01*
X150950037Y-86766118D01*
X148887948Y-86766118D01*
X148777758Y-86720363D01*
X148403882Y-86720037D01*
X148058341Y-86862812D01*
X147793741Y-87126951D01*
X147650363Y-87472242D01*
X147650037Y-87846118D01*
X120682800Y-87846118D01*
X120906259Y-87623049D01*
X121034587Y-87314001D01*
X121072242Y-87329637D01*
X121446118Y-87329963D01*
X121791659Y-87187188D01*
X121922957Y-87056118D01*
X131160037Y-87056118D01*
X131302812Y-87401659D01*
X131566951Y-87666259D01*
X131912242Y-87809637D01*
X132286118Y-87809963D01*
X132631659Y-87667188D01*
X132896259Y-87403049D01*
X133039637Y-87057758D01*
X133039699Y-86986118D01*
X135110037Y-86986118D01*
X135252812Y-87331659D01*
X135516951Y-87596259D01*
X135862242Y-87739637D01*
X136236118Y-87739963D01*
X136581659Y-87597188D01*
X136846259Y-87333049D01*
X136989637Y-86987758D01*
X136989963Y-86613882D01*
X136847188Y-86268341D01*
X136583049Y-86003741D01*
X136237758Y-85860363D01*
X135863882Y-85860037D01*
X135518341Y-86002812D01*
X135253741Y-86266951D01*
X135110363Y-86612242D01*
X135110037Y-86986118D01*
X133039699Y-86986118D01*
X133039963Y-86683882D01*
X132897188Y-86338341D01*
X132633049Y-86073741D01*
X132287758Y-85930363D01*
X131913882Y-85930037D01*
X131568341Y-86072812D01*
X131303741Y-86336951D01*
X131160363Y-86682242D01*
X131160037Y-87056118D01*
X121922957Y-87056118D01*
X122056259Y-86923049D01*
X122199637Y-86577758D01*
X122199963Y-86203882D01*
X122057188Y-85858341D01*
X121793049Y-85593741D01*
X121447758Y-85450363D01*
X121073882Y-85450037D01*
X120728341Y-85592812D01*
X120463741Y-85856951D01*
X120335413Y-86165999D01*
X120297758Y-86150363D01*
X119923882Y-86150037D01*
X119716985Y-86235525D01*
X119770031Y-86157890D01*
X119821040Y-85906000D01*
X119821040Y-85086118D01*
X124530037Y-85086118D01*
X124672812Y-85431659D01*
X124936951Y-85696259D01*
X125282242Y-85839637D01*
X125656118Y-85839963D01*
X126001659Y-85697188D01*
X126054879Y-85644061D01*
X126126951Y-85716259D01*
X126472242Y-85859637D01*
X126846118Y-85859963D01*
X127191659Y-85717188D01*
X127456259Y-85453049D01*
X127599637Y-85107758D01*
X127599934Y-84766118D01*
X147880037Y-84766118D01*
X148022812Y-85111659D01*
X148286951Y-85376259D01*
X148632242Y-85519637D01*
X149006118Y-85519963D01*
X149351659Y-85377188D01*
X149616259Y-85113049D01*
X149740562Y-84813694D01*
X187115226Y-84813694D01*
X187363538Y-85414655D01*
X187822927Y-85874846D01*
X188423453Y-86124206D01*
X189073694Y-86124774D01*
X189674655Y-85876462D01*
X190134846Y-85417073D01*
X190384206Y-84816547D01*
X190384774Y-84166306D01*
X190136462Y-83565345D01*
X189677073Y-83105154D01*
X189076547Y-82855794D01*
X188426306Y-82855226D01*
X187825345Y-83103538D01*
X187365154Y-83562927D01*
X187115794Y-84163453D01*
X187115226Y-84813694D01*
X149740562Y-84813694D01*
X149759637Y-84767758D01*
X149759963Y-84393882D01*
X149617188Y-84048341D01*
X149353049Y-83783741D01*
X149007758Y-83640363D01*
X148633882Y-83640037D01*
X148288341Y-83782812D01*
X148023741Y-84046951D01*
X147880363Y-84392242D01*
X147880037Y-84766118D01*
X127599934Y-84766118D01*
X127599963Y-84733882D01*
X127457188Y-84388341D01*
X127193049Y-84123741D01*
X126847758Y-83980363D01*
X126473882Y-83980037D01*
X126128341Y-84122812D01*
X126075121Y-84175939D01*
X126003049Y-84103741D01*
X125657758Y-83960363D01*
X125283882Y-83960037D01*
X124938341Y-84102812D01*
X124673741Y-84366951D01*
X124530363Y-84712242D01*
X124530037Y-85086118D01*
X119821040Y-85086118D01*
X119821040Y-83874000D01*
X119776762Y-83638683D01*
X119768677Y-83626118D01*
X152800037Y-83626118D01*
X152942812Y-83971659D01*
X153206951Y-84236259D01*
X153552242Y-84379637D01*
X153926118Y-84379963D01*
X154271659Y-84237188D01*
X154536259Y-83973049D01*
X154679637Y-83627758D01*
X154679963Y-83253882D01*
X154537188Y-82908341D01*
X154273049Y-82643741D01*
X153927758Y-82500363D01*
X153553882Y-82500037D01*
X153208341Y-82642812D01*
X152943741Y-82906951D01*
X152800363Y-83252242D01*
X152800037Y-83626118D01*
X119768677Y-83626118D01*
X119637690Y-83422559D01*
X119425490Y-83277569D01*
X119173600Y-83226560D01*
X117446400Y-83226560D01*
X117211083Y-83270838D01*
X116994959Y-83409910D01*
X116849969Y-83622110D01*
X116841600Y-83663439D01*
X116829670Y-83645585D01*
X116343489Y-83320729D01*
X115770000Y-83206655D01*
X115196511Y-83320729D01*
X114710330Y-83645585D01*
X114500000Y-83960366D01*
X114289670Y-83645585D01*
X113803489Y-83320729D01*
X113230000Y-83206655D01*
X112656511Y-83320729D01*
X112170330Y-83645585D01*
X111963539Y-83955069D01*
X111592036Y-83539268D01*
X111064791Y-83285291D01*
X111049026Y-83282642D01*
X110817000Y-83403783D01*
X110563000Y-83403783D01*
X110330974Y-83282642D01*
X110315209Y-83285291D01*
X109787964Y-83539268D01*
X109398046Y-83975680D01*
X109204816Y-84528087D01*
X107785000Y-84528087D01*
X107785000Y-80422815D01*
X108964630Y-80422815D01*
X109288980Y-81207800D01*
X109889041Y-81808909D01*
X110673459Y-82134628D01*
X111522815Y-82135370D01*
X112307800Y-81811020D01*
X112833987Y-81285750D01*
X115865000Y-81285750D01*
X115865000Y-81726310D01*
X115961673Y-81959699D01*
X116140302Y-82138327D01*
X116373691Y-82235000D01*
X116814250Y-82235000D01*
X116973000Y-82076250D01*
X116973000Y-81127000D01*
X116023750Y-81127000D01*
X115865000Y-81285750D01*
X112833987Y-81285750D01*
X112908909Y-81210959D01*
X113234628Y-80426541D01*
X113235370Y-79577185D01*
X112927067Y-78831036D01*
X115852193Y-78831036D01*
X115882518Y-79321413D01*
X116011836Y-79633617D01*
X116237263Y-79683129D01*
X116121570Y-79798822D01*
X116171499Y-79848751D01*
X116140302Y-79861673D01*
X115961673Y-80040301D01*
X115865000Y-80273690D01*
X115865000Y-80714250D01*
X116023750Y-80873000D01*
X116973000Y-80873000D01*
X116973000Y-80853000D01*
X117227000Y-80853000D01*
X117227000Y-80873000D01*
X117247000Y-80873000D01*
X117247000Y-81127000D01*
X117227000Y-81127000D01*
X117227000Y-82076250D01*
X117385750Y-82235000D01*
X117826309Y-82235000D01*
X118059698Y-82138327D01*
X118238327Y-81959699D01*
X118260224Y-81906836D01*
X118399515Y-82046371D01*
X118853266Y-82234785D01*
X119344579Y-82235214D01*
X119798657Y-82047592D01*
X120100221Y-81746554D01*
X120399515Y-82046371D01*
X120853266Y-82234785D01*
X121344579Y-82235214D01*
X121798657Y-82047592D01*
X122100221Y-81746554D01*
X122399515Y-82046371D01*
X122853266Y-82234785D01*
X123344579Y-82235214D01*
X123798657Y-82047592D01*
X124100221Y-81746554D01*
X124399515Y-82046371D01*
X124853266Y-82234785D01*
X125344579Y-82235214D01*
X125798657Y-82047592D01*
X126100221Y-81746554D01*
X126399515Y-82046371D01*
X126853266Y-82234785D01*
X127201591Y-82235089D01*
X127282812Y-82431659D01*
X127546951Y-82696259D01*
X127892242Y-82839637D01*
X128266118Y-82839963D01*
X128611659Y-82697188D01*
X128876259Y-82433049D01*
X128958548Y-82234877D01*
X129181584Y-82235072D01*
X129262812Y-82431659D01*
X129526951Y-82696259D01*
X129872242Y-82839637D01*
X130246118Y-82839963D01*
X130591659Y-82697188D01*
X130856259Y-82433049D01*
X130938555Y-82234859D01*
X131344579Y-82235214D01*
X131798657Y-82047592D01*
X132100221Y-81746554D01*
X132399515Y-82046371D01*
X132853266Y-82234785D01*
X133344579Y-82235214D01*
X133798657Y-82047592D01*
X134100221Y-81746554D01*
X134399515Y-82046371D01*
X134853266Y-82234785D01*
X135344579Y-82235214D01*
X135798657Y-82047592D01*
X136100221Y-81746554D01*
X136399515Y-82046371D01*
X136853266Y-82234785D01*
X137344579Y-82235214D01*
X137798657Y-82047592D01*
X138100221Y-81746554D01*
X138399515Y-82046371D01*
X138853266Y-82234785D01*
X139344579Y-82235214D01*
X139798657Y-82047592D01*
X140100221Y-81746554D01*
X140399515Y-82046371D01*
X140853266Y-82234785D01*
X141344579Y-82235214D01*
X141798657Y-82047592D01*
X142100221Y-81746554D01*
X142399515Y-82046371D01*
X142853266Y-82234785D01*
X143344579Y-82235214D01*
X143798657Y-82047592D01*
X144100221Y-81746554D01*
X144399515Y-82046371D01*
X144853266Y-82234785D01*
X145344579Y-82235214D01*
X145798657Y-82047592D01*
X146100221Y-81746554D01*
X146399515Y-82046371D01*
X146853266Y-82234785D01*
X147344579Y-82235214D01*
X147798657Y-82047592D01*
X148100221Y-81746554D01*
X148399515Y-82046371D01*
X148853266Y-82234785D01*
X149344579Y-82235214D01*
X149798657Y-82047592D01*
X150100221Y-81746554D01*
X150399515Y-82046371D01*
X150853266Y-82234785D01*
X151344579Y-82235214D01*
X151798657Y-82047592D01*
X152100221Y-81746554D01*
X152399515Y-82046371D01*
X152853266Y-82234785D01*
X153344579Y-82235214D01*
X153798657Y-82047592D01*
X153983837Y-81862735D01*
X154416870Y-81862735D01*
X154466383Y-82088164D01*
X154931036Y-82247807D01*
X155421413Y-82217482D01*
X155733617Y-82088164D01*
X155740391Y-82057320D01*
X171130285Y-82057320D01*
X171259533Y-82350123D01*
X171959806Y-82618388D01*
X172709435Y-82598250D01*
X173308467Y-82350123D01*
X173437715Y-82057320D01*
X172284000Y-80903605D01*
X171130285Y-82057320D01*
X155740391Y-82057320D01*
X155783130Y-81862735D01*
X155100000Y-81179605D01*
X154416870Y-81862735D01*
X153983837Y-81862735D01*
X154146371Y-81700485D01*
X154160572Y-81666285D01*
X154237265Y-81683130D01*
X154920395Y-81000000D01*
X155279605Y-81000000D01*
X155962735Y-81683130D01*
X156188164Y-81633617D01*
X156347807Y-81168964D01*
X156317482Y-80678587D01*
X156202009Y-80399806D01*
X170389612Y-80399806D01*
X170409750Y-81149435D01*
X170657877Y-81748467D01*
X170950680Y-81877715D01*
X172104395Y-80724000D01*
X172463605Y-80724000D01*
X173617320Y-81877715D01*
X173910123Y-81748467D01*
X174159574Y-81097305D01*
X175398674Y-81097305D01*
X175685043Y-81790372D01*
X176214839Y-82321093D01*
X176907405Y-82608672D01*
X177657305Y-82609326D01*
X178350372Y-82322957D01*
X178881093Y-81793161D01*
X179168672Y-81100595D01*
X179169326Y-80350695D01*
X178882957Y-79657628D01*
X178699650Y-79474000D01*
X180386560Y-79474000D01*
X180386560Y-81974000D01*
X180430838Y-82209317D01*
X180569910Y-82425441D01*
X180782110Y-82570431D01*
X181034000Y-82621440D01*
X183534000Y-82621440D01*
X183769317Y-82577162D01*
X183985441Y-82438090D01*
X184130431Y-82225890D01*
X184181440Y-81974000D01*
X184181440Y-80422815D01*
X185964630Y-80422815D01*
X186288980Y-81207800D01*
X186889041Y-81808909D01*
X187673459Y-82134628D01*
X188522815Y-82135370D01*
X189307800Y-81811020D01*
X189908909Y-81210959D01*
X190234628Y-80426541D01*
X190235370Y-79577185D01*
X189911020Y-78792200D01*
X189310959Y-78191091D01*
X188526541Y-77865372D01*
X187677185Y-77864630D01*
X186892200Y-78188980D01*
X186291091Y-78789041D01*
X185965372Y-79573459D01*
X185964630Y-80422815D01*
X184181440Y-80422815D01*
X184181440Y-79474000D01*
X184137162Y-79238683D01*
X183998090Y-79022559D01*
X183785890Y-78877569D01*
X183534000Y-78826560D01*
X181034000Y-78826560D01*
X180798683Y-78870838D01*
X180582559Y-79009910D01*
X180437569Y-79222110D01*
X180386560Y-79474000D01*
X178699650Y-79474000D01*
X178353161Y-79126907D01*
X177660595Y-78839328D01*
X176910695Y-78838674D01*
X176217628Y-79125043D01*
X175686907Y-79654839D01*
X175399328Y-80347405D01*
X175398674Y-81097305D01*
X174159574Y-81097305D01*
X174178388Y-81048194D01*
X174158250Y-80298565D01*
X173910123Y-79699533D01*
X173617320Y-79570285D01*
X172463605Y-80724000D01*
X172104395Y-80724000D01*
X170950680Y-79570285D01*
X170657877Y-79699533D01*
X170389612Y-80399806D01*
X156202009Y-80399806D01*
X156188164Y-80366383D01*
X155962735Y-80316870D01*
X155279605Y-81000000D01*
X154920395Y-81000000D01*
X154237265Y-80316870D01*
X154160935Y-80333635D01*
X154147592Y-80301343D01*
X153846554Y-79999779D01*
X153983837Y-79862735D01*
X154416870Y-79862735D01*
X154447019Y-80000000D01*
X154416870Y-80137265D01*
X155100000Y-80820395D01*
X155783130Y-80137265D01*
X155752981Y-80000000D01*
X155783130Y-79862735D01*
X155100000Y-79179605D01*
X154416870Y-79862735D01*
X153983837Y-79862735D01*
X154146371Y-79700485D01*
X154160572Y-79666285D01*
X154237265Y-79683130D01*
X154920395Y-79000000D01*
X155279605Y-79000000D01*
X155962735Y-79683130D01*
X156188164Y-79633617D01*
X156271630Y-79390680D01*
X171130285Y-79390680D01*
X172284000Y-80544395D01*
X173437715Y-79390680D01*
X173308467Y-79097877D01*
X172608194Y-78829612D01*
X171858565Y-78849750D01*
X171259533Y-79097877D01*
X171130285Y-79390680D01*
X156271630Y-79390680D01*
X156347807Y-79168964D01*
X156317482Y-78678587D01*
X156188164Y-78366383D01*
X155962735Y-78316870D01*
X155279605Y-79000000D01*
X154920395Y-79000000D01*
X154237265Y-78316870D01*
X154160935Y-78333635D01*
X154147592Y-78301343D01*
X153983801Y-78137265D01*
X154416870Y-78137265D01*
X155100000Y-78820395D01*
X155783130Y-78137265D01*
X155733617Y-77911836D01*
X155268964Y-77752193D01*
X154778587Y-77782518D01*
X154466383Y-77911836D01*
X154416870Y-78137265D01*
X153983801Y-78137265D01*
X153800485Y-77953629D01*
X153346734Y-77765215D01*
X152855421Y-77764786D01*
X152401343Y-77952408D01*
X152099779Y-78253446D01*
X151800485Y-77953629D01*
X151346734Y-77765215D01*
X150855421Y-77764786D01*
X150401343Y-77952408D01*
X150099779Y-78253446D01*
X149800485Y-77953629D01*
X149346734Y-77765215D01*
X148855421Y-77764786D01*
X148401343Y-77952408D01*
X148099779Y-78253446D01*
X147800485Y-77953629D01*
X147346734Y-77765215D01*
X146855421Y-77764786D01*
X146401343Y-77952408D01*
X146099779Y-78253446D01*
X145800485Y-77953629D01*
X145346734Y-77765215D01*
X144855421Y-77764786D01*
X144401343Y-77952408D01*
X144099779Y-78253446D01*
X143800485Y-77953629D01*
X143346734Y-77765215D01*
X142855421Y-77764786D01*
X142401343Y-77952408D01*
X142099779Y-78253446D01*
X141800485Y-77953629D01*
X141346734Y-77765215D01*
X140855421Y-77764786D01*
X140401343Y-77952408D01*
X140099779Y-78253446D01*
X139800485Y-77953629D01*
X139346734Y-77765215D01*
X138855421Y-77764786D01*
X138401343Y-77952408D01*
X138099779Y-78253446D01*
X137800485Y-77953629D01*
X137346734Y-77765215D01*
X136855421Y-77764786D01*
X136401343Y-77952408D01*
X136099779Y-78253446D01*
X135800485Y-77953629D01*
X135346734Y-77765215D01*
X134855421Y-77764786D01*
X134401343Y-77952408D01*
X134099779Y-78253446D01*
X133800485Y-77953629D01*
X133346734Y-77765215D01*
X132855421Y-77764786D01*
X132401343Y-77952408D01*
X132099779Y-78253446D01*
X131800485Y-77953629D01*
X131346734Y-77765215D01*
X130855421Y-77764786D01*
X130401343Y-77952408D01*
X130099779Y-78253446D01*
X129800485Y-77953629D01*
X129346734Y-77765215D01*
X128855421Y-77764786D01*
X128401343Y-77952408D01*
X128099779Y-78253446D01*
X127800485Y-77953629D01*
X127346734Y-77765215D01*
X126855421Y-77764786D01*
X126401343Y-77952408D01*
X126099779Y-78253446D01*
X125800485Y-77953629D01*
X125346734Y-77765215D01*
X124855421Y-77764786D01*
X124401343Y-77952408D01*
X124099779Y-78253446D01*
X123800485Y-77953629D01*
X123346734Y-77765215D01*
X122855421Y-77764786D01*
X122401343Y-77952408D01*
X122099779Y-78253446D01*
X121800485Y-77953629D01*
X121346734Y-77765215D01*
X120855421Y-77764786D01*
X120401343Y-77952408D01*
X120099779Y-78253446D01*
X119800485Y-77953629D01*
X119346734Y-77765215D01*
X118855421Y-77764786D01*
X118401343Y-77952408D01*
X118053629Y-78299515D01*
X118039428Y-78333715D01*
X117962735Y-78316870D01*
X117279605Y-79000000D01*
X117293748Y-79014143D01*
X117114143Y-79193748D01*
X117100000Y-79179605D01*
X117085858Y-79193748D01*
X116906253Y-79014143D01*
X116920395Y-79000000D01*
X116237265Y-78316870D01*
X116011836Y-78366383D01*
X115852193Y-78831036D01*
X112927067Y-78831036D01*
X112911020Y-78792200D01*
X112310959Y-78191091D01*
X112181332Y-78137265D01*
X116416870Y-78137265D01*
X117100000Y-78820395D01*
X117783130Y-78137265D01*
X117733617Y-77911836D01*
X117268964Y-77752193D01*
X116778587Y-77782518D01*
X116466383Y-77911836D01*
X116416870Y-78137265D01*
X112181332Y-78137265D01*
X111526541Y-77865372D01*
X110677185Y-77864630D01*
X109892200Y-78188980D01*
X109291091Y-78789041D01*
X108965372Y-79573459D01*
X108964630Y-80422815D01*
X107785000Y-80422815D01*
X107785000Y-76685000D01*
X191414492Y-76685000D01*
X191414492Y-129315000D01*
M02*
