M48
;DRILL file {KiCad (2015-11-11 BZR 6310)-product} date Fri 18 Dec 2015 01:13:48 AM CST
;FORMAT={-:-/ absolute / inch / decimal}
FMAT,2
INCH,TZ
T1C0.016
T2C0.020
T3C0.022
T4C0.031
T5C0.040
T6C0.051
T7C0.098
%
G90
G05
M72
T1
X4.7287Y-3.4287
X4.7724Y-3.5209
X4.774Y-3.4012
X4.7791Y-3.6146
X4.789Y-3.948
X4.7898Y-3.7429
X4.7945Y-4.1217
X4.9295Y-4.2323
X4.9398Y-3.3425
X4.9594Y-3.6146
X4.9618Y-3.6807
X4.9638Y-3.9476
X4.965Y-3.2272
X4.965Y-4.1213
X4.9866Y-3.3433
X5.0268Y-3.6921
X5.0449Y-3.2268
X5.1043Y-4.513
X5.1047Y-4.411
X5.1051Y-4.4622
X5.1071Y-4.3598
X5.1083Y-4.2575
X5.1083Y-4.3087
X5.1248Y-4.5386
X5.1287Y-4.4878
X5.1291Y-4.4362
X5.1291Y-4.5819
X5.1311Y-4.3854
X5.1319Y-4.2319
X5.1319Y-4.2831
X5.1323Y-3.6398
X5.1331Y-3.7429
X5.1343Y-4.1217
X5.1346Y-3.9476
X5.1642Y-3.6146
X5.2008Y-3.4201
X5.2862Y-4.2319
X5.3563Y-3.4173
X5.3646Y-3.8929
X5.372Y-4.1276
X5.4091Y-3.9594
X5.4567Y-3.8669
X5.4571Y-4.4622
X5.4571Y-4.5134
X5.4575Y-4.565
X5.4579Y-4.3598
X5.4583Y-4.3087
X5.4583Y-4.411
X5.4622Y-4.2319
X5.4799Y-4.4366
X5.4803Y-4.539
X5.4807Y-4.3854
X5.4807Y-4.4878
X5.4839Y-3.9185
X5.5346Y-4.
X5.5732Y-4.1382
X5.5898Y-4.3079
X5.5902Y-4.2346
X5.6508Y-3.9417
X5.722Y-4.0004
X5.7232Y-4.0787
X5.7831Y-4.235
X5.7831Y-4.3075
X5.8161Y-4.1646
X5.8386Y-4.2346
X5.85Y-3.4512
X5.8559Y-3.6614
X5.8591Y-3.3299
X5.8642Y-3.539
X5.865Y-3.9079
X5.8874Y-4.0803
X5.8886Y-4.0429
X5.9799Y-3.4087
X5.9862Y-3.6177
X6.052Y-3.4937
X6.0528Y-3.285
X6.1268Y-3.8815
X6.1358Y-3.3791
X6.2539Y-4.2331
X6.2539Y-4.2791
X6.2626Y-3.8319
X6.2634Y-3.6988
X6.2634Y-3.765
X6.3161Y-3.9201
X6.437Y-3.189
X6.4665Y-3.9512
X6.5063Y-4.5055
X6.5862Y-4.0406
X6.6854Y-4.4551
X6.6878Y-4.5307
X6.6878Y-4.6055
X6.7004Y-4.3193
X6.7094Y-4.0791
X6.7366Y-3.9409
X6.737Y-3.4547
X6.7524Y-4.7012
X6.7669Y-4.248
X6.7846Y-4.4807
X6.8909Y-4.598
X6.9075Y-4.8409
X6.9346Y-4.7012
X6.9516Y-3.698
X6.9898Y-4.5555
X6.9909Y-4.5059
X6.9969Y-4.0929
X6.9972Y-4.1319
X7.0839Y-4.6689
X7.0972Y-4.3823
X7.1165Y-3.776
X7.1724Y-4.622
X7.1732Y-4.5559
T4
X4.6102Y-3.1102
X4.6102Y-3.189
X4.689Y-3.1102
X4.689Y-3.189
X4.7677Y-3.1102
X4.7677Y-3.189
X4.8465Y-3.1102
X4.8465Y-3.189
X4.9252Y-3.1102
X4.9252Y-3.189
X5.0039Y-3.1102
X5.0039Y-3.189
X5.0827Y-3.1102
X5.0827Y-3.189
X5.1614Y-3.1102
X5.1614Y-3.189
X5.2402Y-3.1102
X5.2402Y-3.189
X5.3189Y-3.1102
X5.3189Y-3.189
X5.3976Y-3.1102
X5.3976Y-3.189
X5.4764Y-3.1102
X5.4764Y-3.189
X5.5551Y-3.1102
X5.5551Y-3.189
X5.6339Y-3.1102
X5.6339Y-3.189
X5.7126Y-3.1102
X5.7126Y-3.189
X5.7913Y-3.1102
X5.7913Y-3.189
X5.8701Y-3.1102
X5.8701Y-3.189
X5.9488Y-3.1102
X5.9488Y-3.189
X6.0276Y-3.1102
X6.0276Y-3.189
X6.1063Y-3.1102
X6.1063Y-3.189
T5
X4.3515Y-4.8181
X4.3515Y-4.9181
X4.3515Y-5.0181
X4.3565Y-3.5281
X4.3565Y-3.6281
X4.3565Y-3.7281
X4.3565Y-3.8281
X4.3565Y-3.9281
X4.3565Y-4.0281
X4.3565Y-4.1281
X4.3565Y-4.2281
X4.3579Y-3.3421
X4.4515Y-4.8181
X4.4515Y-4.9181
X4.4515Y-5.0181
X4.4565Y-3.5281
X4.4565Y-3.6281
X4.4565Y-3.7281
X4.4565Y-3.8281
X4.4565Y-3.9281
X4.4565Y-4.0281
X4.4565Y-4.1281
X4.4565Y-4.2281
X4.4579Y-3.3421
X4.5515Y-4.8181
X4.5515Y-4.9181
X4.5515Y-5.0181
X4.5565Y-3.5281
X4.5565Y-3.6281
X4.5565Y-3.7281
X4.5565Y-3.8281
X4.5565Y-3.9281
X4.5565Y-4.0281
X4.5565Y-4.1281
X4.5565Y-4.2281
X4.5579Y-3.3421
X4.6515Y-4.8181
X4.6515Y-4.9181
X4.6515Y-5.0181
X4.6579Y-3.3421
X4.7515Y-4.8181
X4.7515Y-4.9181
X4.7515Y-5.0181
X4.8515Y-4.8181
X4.8515Y-4.9181
X4.8515Y-5.0181
X4.9515Y-4.8181
X4.9515Y-4.9181
X4.9515Y-5.0181
X5.0515Y-4.8181
X5.0515Y-4.9181
X5.0515Y-5.0181
X5.2965Y-4.8181
X5.2965Y-4.9181
X5.2965Y-5.0181
X5.5515Y-4.8181
X5.5515Y-4.9181
X5.5515Y-5.0181
X5.6515Y-4.8181
X5.6515Y-4.9181
X5.6515Y-5.0181
X5.7515Y-4.8181
X5.7515Y-4.9181
X5.7515Y-5.0181
X5.8515Y-4.8181
X5.8515Y-4.9181
X5.8515Y-5.0181
X5.9515Y-4.8181
X5.9515Y-4.9181
X5.9515Y-5.0181
X6.0515Y-4.8181
X6.0515Y-4.9181
X6.0515Y-5.0181
X6.1515Y-4.8181
X6.1515Y-4.9181
X6.1515Y-5.0181
X6.2515Y-4.8181
X6.2515Y-4.9181
X6.2515Y-5.0181
X6.4965Y-4.8181
X6.4965Y-4.9181
X6.4965Y-5.0181
X7.2165Y-3.9181
X7.2165Y-4.0181
X7.2165Y-4.1181
X7.2165Y-4.2181
X7.3165Y-3.9181
X7.3165Y-4.0181
X7.3165Y-4.1181
X7.3165Y-4.2181
X7.4165Y-3.9181
X7.4165Y-4.0181
X7.4165Y-4.1181
X7.4165Y-4.2181
T6
X6.7828Y-3.1781
X6.9797Y-3.1781
X7.1765Y-3.1781
T7
X4.374Y-3.1496
X4.374Y-4.3898
X7.4055Y-3.1496
X7.4055Y-4.3898
T2
X6.7187Y-5.0157G85X6.7187Y-4.9901
G05
X6.9943Y-5.0157G85X6.9943Y-4.9901
G05
T3
X6.7522Y-4.8966G85X6.764Y-4.8966
G05
X6.949Y-4.8966G85X6.9608Y-4.8966
G05
T0
M30
