G04 #@! TF.FileFunction,Paste,Top*
%FSLAX46Y46*%
G04 Gerber Fmt 4.6, Leading zero omitted, Abs format (unit mm)*
G04 Created by KiCad (PCBNEW (2015-11-11 BZR 6310)-product) date Tue 22 Dec 2015 12:34:02 AM CST*
%MOMM*%
G01*
G04 APERTURE LIST*
%ADD10C,0.100000*%
%ADD11R,0.400000X1.350000*%
%ADD12R,0.800100X0.800100*%
%ADD13R,4.600000X1.100000*%
%ADD14R,9.400000X10.800000*%
%ADD15R,0.900000X1.200000*%
%ADD16R,2.400300X3.500120*%
%ADD17R,1.200000X0.400000*%
%ADD18R,1.200000X0.750000*%
%ADD19R,1.450000X0.450000*%
%ADD20R,1.100000X0.400000*%
%ADD21R,1.400000X0.300000*%
%ADD22R,0.200000X0.550000*%
%ADD23R,0.550000X0.200000*%
%ADD24R,0.480000X0.525000*%
%ADD25R,1.200000X0.900000*%
%ADD26R,0.900000X1.700000*%
%ADD27R,2.301240X2.499360*%
%ADD28R,1.800860X2.499360*%
%ADD29R,1.250000X1.500000*%
%ADD30R,5.400040X2.900680*%
G04 APERTURE END LIST*
D10*
D11*
X172855100Y-124373460D03*
X173505100Y-124373460D03*
X174155100Y-124373460D03*
X174805100Y-124373460D03*
X175455100Y-124373460D03*
D12*
X148896000Y-91888760D03*
X150796000Y-91888760D03*
X149846000Y-89889780D03*
X148746000Y-86578760D03*
X150646000Y-86578760D03*
X149696000Y-84579780D03*
D13*
X161964000Y-97332000D03*
X161964000Y-95632000D03*
X161964000Y-92232000D03*
D14*
X171114000Y-93932000D03*
D13*
X161964000Y-93932000D03*
X161964000Y-90532000D03*
D15*
X174834000Y-119248000D03*
X174834000Y-121448000D03*
X172802000Y-119248000D03*
X172802000Y-121448000D03*
D16*
X163488000Y-84991200D03*
X163488000Y-78488800D03*
X164250000Y-109375200D03*
X164250000Y-102872800D03*
D17*
X176248000Y-116982500D03*
X176248000Y-116347500D03*
X176248000Y-115712500D03*
X176248000Y-115077500D03*
X176248000Y-114442500D03*
X176248000Y-113807500D03*
X176248000Y-113172500D03*
X176248000Y-112537500D03*
X171048000Y-112537500D03*
X171048000Y-113172500D03*
X171048000Y-113807500D03*
X171048000Y-114442500D03*
X171048000Y-115077500D03*
X171048000Y-115712500D03*
X171048000Y-116347500D03*
X171048000Y-116982500D03*
D18*
X168510000Y-114440000D03*
X166610000Y-114440000D03*
D19*
X129050000Y-105345000D03*
X129050000Y-104695000D03*
X129050000Y-104045000D03*
X129050000Y-103395000D03*
X123150000Y-103395000D03*
X123150000Y-104045000D03*
X123150000Y-104695000D03*
X123150000Y-105345000D03*
X129020000Y-92455000D03*
X129020000Y-91805000D03*
X129020000Y-91155000D03*
X129020000Y-90505000D03*
X123120000Y-90505000D03*
X123120000Y-91155000D03*
X123120000Y-91805000D03*
X123120000Y-92455000D03*
D20*
X131682000Y-107487000D03*
X131682000Y-108137000D03*
X131682000Y-108787000D03*
X131682000Y-109437000D03*
X131682000Y-110087000D03*
X131682000Y-110737000D03*
X131682000Y-111387000D03*
X131682000Y-112037000D03*
X131682000Y-112687000D03*
X131682000Y-113337000D03*
X131682000Y-113987000D03*
X131682000Y-114637000D03*
X131682000Y-115287000D03*
X131682000Y-115937000D03*
X137382000Y-115937000D03*
X137382000Y-115287000D03*
X137382000Y-114637000D03*
X137382000Y-113987000D03*
X137382000Y-113337000D03*
X137382000Y-112687000D03*
X137382000Y-112037000D03*
X137382000Y-111387000D03*
X137382000Y-110737000D03*
X137382000Y-110087000D03*
X137382000Y-109437000D03*
X137382000Y-108787000D03*
X137382000Y-108137000D03*
X137382000Y-107487000D03*
D21*
X176356000Y-104958000D03*
X176356000Y-104458000D03*
X176356000Y-103958000D03*
X176356000Y-103458000D03*
X176356000Y-102958000D03*
X171956000Y-102958000D03*
X171956000Y-103458000D03*
X171956000Y-103958000D03*
X171956000Y-104458000D03*
X171956000Y-104958000D03*
D19*
X129050000Y-100925000D03*
X129050000Y-100275000D03*
X129050000Y-99625000D03*
X129050000Y-98975000D03*
X129050000Y-98325000D03*
X129050000Y-97675000D03*
X129050000Y-97025000D03*
X129050000Y-96375000D03*
X129050000Y-95725000D03*
X129050000Y-95075000D03*
X123150000Y-95075000D03*
X123150000Y-95725000D03*
X123150000Y-96375000D03*
X123150000Y-97025000D03*
X123150000Y-97675000D03*
X123150000Y-98325000D03*
X123150000Y-98975000D03*
X123150000Y-99625000D03*
X123150000Y-100275000D03*
X123150000Y-100925000D03*
D22*
X138579000Y-104165000D03*
X138979000Y-104165000D03*
X139379000Y-104165000D03*
X139779000Y-104165000D03*
X140179000Y-104165000D03*
X140579000Y-104165000D03*
D23*
X141079000Y-103665000D03*
X141079000Y-103265000D03*
X141079000Y-102865000D03*
X141079000Y-102465000D03*
X141079000Y-102065000D03*
X141079000Y-101665000D03*
D22*
X140579000Y-101165000D03*
X140179000Y-101165000D03*
X139779000Y-101165000D03*
X139379000Y-101165000D03*
X138979000Y-101165000D03*
X138579000Y-101165000D03*
D23*
X138079000Y-101665000D03*
X138079000Y-102065000D03*
X138079000Y-102465000D03*
X138079000Y-102865000D03*
X138079000Y-103265000D03*
X138079000Y-103665000D03*
D24*
X139979000Y-102230000D03*
X139179000Y-102230000D03*
X139979000Y-103100000D03*
X139179000Y-103100000D03*
D25*
X174760000Y-109310000D03*
X172560000Y-109310000D03*
D12*
X180880000Y-115779240D03*
X178980000Y-115779240D03*
X179930000Y-117778220D03*
D26*
X121260000Y-84900000D03*
X124160000Y-84900000D03*
D12*
X138712000Y-99192760D03*
X140612000Y-99192760D03*
X139662000Y-97193780D03*
D27*
X180760000Y-89497160D03*
X180760000Y-93794840D03*
D28*
X155850000Y-92078980D03*
X155850000Y-88081020D03*
D29*
X168620000Y-119260000D03*
X168620000Y-121760000D03*
D26*
X184350000Y-111310000D03*
X181450000Y-111310000D03*
D30*
X152830000Y-95749540D03*
X152830000Y-105650460D03*
M02*
