G04 #@! TF.FileFunction,Copper,L3,Inr,Mixed*
%FSLAX46Y46*%
G04 Gerber Fmt 4.6, Leading zero omitted, Abs format (unit mm)*
G04 Created by KiCad (PCBNEW (2015-11-11 BZR 6310)-product) date Thu 17 Dec 2015 09:11:31 PM CST*
%MOMM*%
G01*
G04 APERTURE LIST*
%ADD10C,0.100000*%
%ADD11C,3.000000*%
%ADD12R,1.727200X2.032000*%
%ADD13O,1.727200X2.032000*%
%ADD14O,1.250000X0.950000*%
%ADD15O,1.000000X1.550000*%
%ADD16R,2.032000X1.727200*%
%ADD17O,2.032000X1.727200*%
%ADD18C,2.500000*%
%ADD19R,2.500000X2.500000*%
%ADD20R,1.200000X1.200000*%
%ADD21C,1.200000*%
%ADD22C,0.600000*%
%ADD23C,1.016000*%
%ADD24C,1.270000*%
%ADD25C,2.540000*%
%ADD26C,0.254000*%
G04 APERTURE END LIST*
D10*
D11*
X188100000Y-111500000D03*
X111100000Y-111500000D03*
X188100000Y-80000000D03*
X111100000Y-80000000D03*
D12*
X183300000Y-99520000D03*
D13*
X185840000Y-99520000D03*
X188380000Y-99520000D03*
D12*
X183300000Y-102060000D03*
D13*
X185840000Y-102060000D03*
X188380000Y-102060000D03*
D12*
X183300000Y-104600000D03*
D13*
X185840000Y-104600000D03*
X188380000Y-104600000D03*
D12*
X183300000Y-107140000D03*
D13*
X185840000Y-107140000D03*
X188380000Y-107140000D03*
D12*
X115736000Y-89614000D03*
D13*
X113196000Y-89614000D03*
X110656000Y-89614000D03*
D12*
X115736000Y-92154000D03*
D13*
X113196000Y-92154000D03*
X110656000Y-92154000D03*
D12*
X115736000Y-94694000D03*
D13*
X113196000Y-94694000D03*
X110656000Y-94694000D03*
D12*
X115736000Y-97234000D03*
D13*
X113196000Y-97234000D03*
X110656000Y-97234000D03*
D12*
X115736000Y-99774000D03*
D13*
X113196000Y-99774000D03*
X110656000Y-99774000D03*
D12*
X115736000Y-102314000D03*
D13*
X113196000Y-102314000D03*
X110656000Y-102314000D03*
D12*
X115736000Y-104854000D03*
D13*
X113196000Y-104854000D03*
X110656000Y-104854000D03*
D12*
X115736000Y-107394000D03*
D13*
X113196000Y-107394000D03*
X110656000Y-107394000D03*
D14*
X171655100Y-124373460D03*
X176655100Y-124373460D03*
D15*
X170655100Y-127073460D03*
X177655100Y-127073460D03*
D16*
X110529000Y-122380000D03*
D17*
X110529000Y-124920000D03*
X110529000Y-127460000D03*
D16*
X113069000Y-122380000D03*
D17*
X113069000Y-124920000D03*
X113069000Y-127460000D03*
D16*
X115609000Y-122380000D03*
D17*
X115609000Y-124920000D03*
X115609000Y-127460000D03*
D16*
X118149000Y-122380000D03*
D17*
X118149000Y-124920000D03*
X118149000Y-127460000D03*
D16*
X120689000Y-122380000D03*
D17*
X120689000Y-124920000D03*
X120689000Y-127460000D03*
D16*
X123229000Y-122380000D03*
D17*
X123229000Y-124920000D03*
X123229000Y-127460000D03*
D16*
X125769000Y-122380000D03*
D17*
X125769000Y-124920000D03*
X125769000Y-127460000D03*
D16*
X128309000Y-122380000D03*
D17*
X128309000Y-124920000D03*
X128309000Y-127460000D03*
D16*
X141009000Y-122380000D03*
D17*
X141009000Y-124920000D03*
X141009000Y-127460000D03*
D16*
X143549000Y-122380000D03*
D17*
X143549000Y-124920000D03*
X143549000Y-127460000D03*
D16*
X146089000Y-122380000D03*
D17*
X146089000Y-124920000D03*
X146089000Y-127460000D03*
D16*
X148629000Y-122380000D03*
D17*
X148629000Y-124920000D03*
X148629000Y-127460000D03*
D16*
X151169000Y-122380000D03*
D17*
X151169000Y-124920000D03*
X151169000Y-127460000D03*
D16*
X153709000Y-122380000D03*
D17*
X153709000Y-124920000D03*
X153709000Y-127460000D03*
D16*
X156249000Y-122380000D03*
D17*
X156249000Y-124920000D03*
X156249000Y-127460000D03*
D16*
X158789000Y-122380000D03*
D17*
X158789000Y-124920000D03*
X158789000Y-127460000D03*
D16*
X134532000Y-122380000D03*
D17*
X134532000Y-124920000D03*
X134532000Y-127460000D03*
D16*
X165012000Y-122380000D03*
D17*
X165012000Y-124920000D03*
X165012000Y-127460000D03*
D12*
X118310000Y-84890000D03*
D13*
X115770000Y-84890000D03*
X113230000Y-84890000D03*
X110690000Y-84890000D03*
D18*
X172284000Y-80724000D03*
D19*
X182284000Y-80724000D03*
D18*
X177284000Y-80724000D03*
D20*
X117100000Y-81000000D03*
D21*
X117100000Y-79000000D03*
X119100000Y-81000000D03*
X119100000Y-79000000D03*
X121100000Y-81000000D03*
X121100000Y-79000000D03*
X123100000Y-81000000D03*
X123100000Y-79000000D03*
X125100000Y-81000000D03*
X125100000Y-79000000D03*
X127100000Y-81000000D03*
X127100000Y-79000000D03*
X129100000Y-81000000D03*
X129100000Y-79000000D03*
X131100000Y-81000000D03*
X131100000Y-79000000D03*
X133100000Y-81000000D03*
X133100000Y-79000000D03*
X135100000Y-81000000D03*
X135100000Y-79000000D03*
X137100000Y-81000000D03*
X137100000Y-79000000D03*
X139100000Y-81000000D03*
X139100000Y-79000000D03*
X141100000Y-81000000D03*
X141100000Y-79000000D03*
X143100000Y-81000000D03*
X143100000Y-79000000D03*
X145100000Y-81000000D03*
X145100000Y-79000000D03*
X147100000Y-81000000D03*
X147100000Y-79000000D03*
X149100000Y-81000000D03*
X149100000Y-79000000D03*
X151100000Y-81000000D03*
X151100000Y-79000000D03*
X153100000Y-81000000D03*
X153100000Y-79000000D03*
X155100000Y-81000000D03*
X155100000Y-79000000D03*
D22*
X131170000Y-91810000D03*
X141560000Y-105110000D03*
X127680000Y-93780000D03*
X132100000Y-86870000D03*
X136050000Y-86800000D03*
X148740000Y-93000000D03*
X140580000Y-101600000D03*
X148590000Y-87660000D03*
X130410000Y-104690000D03*
X130420000Y-100270000D03*
X152050000Y-91890000D03*
X160430000Y-99570000D03*
X148950000Y-89890000D03*
X151890000Y-86580000D03*
X148300000Y-107560000D03*
X138630000Y-110740000D03*
X148820000Y-84580000D03*
X130280000Y-116380000D03*
X129750000Y-109440000D03*
X138640000Y-109440000D03*
X147730000Y-105780000D03*
X130360000Y-92450000D03*
X126110000Y-104680000D03*
X167290000Y-102630000D03*
X149540000Y-103640000D03*
X159070000Y-97330000D03*
X180760000Y-95910000D03*
X177730000Y-104950000D03*
X177720000Y-103960000D03*
X164250000Y-100360000D03*
X145340000Y-101610000D03*
X143530000Y-100120000D03*
X137390000Y-100570000D03*
X134270000Y-107490000D03*
X182180000Y-117400000D03*
X182200000Y-115720000D03*
X165260000Y-114440000D03*
X171510000Y-119410000D03*
X176140000Y-119410000D03*
X159090000Y-93950000D03*
X171110000Y-100100000D03*
X176570000Y-93930000D03*
X171120000Y-87750000D03*
X155850000Y-85830000D03*
X163500000Y-81000000D03*
X177570000Y-114450000D03*
X169870000Y-115080000D03*
X175450000Y-122960000D03*
X130350000Y-107490000D03*
X129750000Y-108140000D03*
X130350000Y-108790000D03*
X125970000Y-91810000D03*
X126080000Y-100270000D03*
X121660000Y-95070000D03*
X121260000Y-86390000D03*
X159090000Y-95630000D03*
X172330000Y-113810000D03*
X153740000Y-83440000D03*
X153720000Y-88740000D03*
X125470000Y-84900000D03*
X125210000Y-107500000D03*
X126030000Y-93490000D03*
X180270000Y-111310000D03*
X170420000Y-103610000D03*
X149570000Y-102690000D03*
X146890000Y-109410000D03*
X146890000Y-107570000D03*
X138740000Y-107490000D03*
X121640000Y-100280000D03*
X141990000Y-107560000D03*
X141980000Y-109420000D03*
X129720000Y-110740000D03*
X130330000Y-111390000D03*
X121780000Y-104690000D03*
X121390000Y-91810000D03*
X120110000Y-87090000D03*
X121220000Y-89430000D03*
X130380000Y-95070000D03*
X129660000Y-112040000D03*
X130280000Y-112680000D03*
X129670000Y-113340000D03*
X130270000Y-113990000D03*
X129650000Y-114630000D03*
X130170000Y-115280000D03*
X138620000Y-115950000D03*
X139200000Y-115290000D03*
X138610000Y-114640000D03*
X139210000Y-113990000D03*
X138610000Y-113340000D03*
X139190000Y-112690000D03*
X138640000Y-112040000D03*
X139210000Y-111390000D03*
X171880000Y-107900000D03*
X158850000Y-107520000D03*
X158850000Y-108690000D03*
X155620000Y-98590000D03*
X175030000Y-116790000D03*
X145370000Y-103600000D03*
X136450000Y-104840000D03*
X148970000Y-99260000D03*
X138600000Y-98220000D03*
X126110000Y-81970000D03*
X136260000Y-98880000D03*
X128140000Y-81960000D03*
X139290000Y-99530000D03*
X179930000Y-118590000D03*
X169810000Y-113160000D03*
X177540000Y-115710000D03*
X170190000Y-109710000D03*
X126660000Y-84920000D03*
X169870000Y-116980000D03*
D23*
X131170000Y-91810000D02*
X131170000Y-87800000D01*
X131170000Y-87800000D02*
X132100000Y-86870000D01*
X147440000Y-87140000D02*
X147440000Y-92310000D01*
X148130000Y-93000000D02*
X148740000Y-93000000D01*
X147440000Y-92310000D02*
X148130000Y-93000000D01*
X147440000Y-83290000D02*
X147440000Y-87140000D01*
X147960000Y-87660000D02*
X148590000Y-87660000D01*
X147440000Y-87140000D02*
X147960000Y-87660000D01*
X140580000Y-101600000D02*
X140580000Y-104130000D01*
X140580000Y-104130000D02*
X141560000Y-105110000D01*
X138700000Y-85940000D02*
X138700000Y-86090000D01*
X140580000Y-87970000D02*
X140580000Y-101600000D01*
X138700000Y-86090000D02*
X140580000Y-87970000D01*
X127680000Y-99600000D02*
X127680000Y-103770000D01*
X128600000Y-104690000D02*
X130410000Y-104690000D01*
X127680000Y-103770000D02*
X128600000Y-104690000D01*
X127680000Y-93780000D02*
X127680000Y-99600000D01*
X128350000Y-100270000D02*
X130420000Y-100270000D01*
X127680000Y-99600000D02*
X128350000Y-100270000D01*
X132100000Y-86870000D02*
X128250000Y-86870000D01*
X128250000Y-86870000D02*
X127680000Y-87440000D01*
X127680000Y-87440000D02*
X127680000Y-93780000D01*
X136050000Y-86800000D02*
X132170000Y-86800000D01*
X132170000Y-86800000D02*
X132100000Y-86870000D01*
X151100000Y-81000000D02*
X151100000Y-81100000D01*
X137840000Y-86800000D02*
X136050000Y-86800000D01*
X138700000Y-85940000D02*
X137840000Y-86800000D01*
X138700000Y-84010000D02*
X138700000Y-85940000D01*
X139420000Y-83290000D02*
X138700000Y-84010000D01*
X148910000Y-83290000D02*
X147440000Y-83290000D01*
X147440000Y-83290000D02*
X139420000Y-83290000D01*
X151100000Y-81100000D02*
X148910000Y-83290000D01*
D24*
X158850000Y-108690000D02*
X158850000Y-107520000D01*
X165012000Y-122380000D02*
X165012000Y-119337000D01*
X162110000Y-108690000D02*
X158850000Y-108690000D01*
X163560000Y-110140000D02*
X162110000Y-108690000D01*
X163560000Y-117885000D02*
X163560000Y-110140000D01*
X165012000Y-119337000D02*
X163560000Y-117885000D01*
D25*
X137350000Y-120760000D02*
X137350000Y-127180000D01*
X165012000Y-127460000D02*
X162660000Y-127460000D01*
X162660000Y-127460000D02*
X162110000Y-126910000D01*
X162110000Y-126910000D02*
X162110000Y-120630000D01*
X162110000Y-120630000D02*
X160225000Y-118745000D01*
X160225000Y-118745000D02*
X139365000Y-118745000D01*
X139365000Y-118745000D02*
X137350000Y-120760000D01*
X137350000Y-127180000D02*
X137070000Y-127460000D01*
X137070000Y-127460000D02*
X134532000Y-127460000D01*
X177284000Y-80724000D02*
X177284000Y-84186000D01*
X177284000Y-84186000D02*
X176560000Y-84910000D01*
X176560000Y-84910000D02*
X174805000Y-84910000D01*
X174805000Y-84910000D02*
X173990000Y-85725000D01*
X173990000Y-85725000D02*
X173990000Y-104775000D01*
X173990000Y-104775000D02*
X172720000Y-106045000D01*
X172720000Y-106045000D02*
X168910000Y-106045000D01*
X168910000Y-106045000D02*
X167640000Y-107315000D01*
X167640000Y-107315000D02*
X167640000Y-126810000D01*
X167640000Y-126810000D02*
X166990000Y-127460000D01*
X166990000Y-127460000D02*
X165012000Y-127460000D01*
D24*
X176560000Y-84910000D02*
X177284000Y-84186000D01*
X134532000Y-127460000D02*
X137070000Y-127460000D01*
X162110000Y-126910000D02*
X162660000Y-127460000D01*
X162110000Y-120630000D02*
X162110000Y-126910000D01*
X161450000Y-119970000D02*
X162110000Y-120630000D01*
X138140000Y-119970000D02*
X161450000Y-119970000D01*
X137350000Y-120760000D02*
X138140000Y-119970000D01*
X137070000Y-127460000D02*
X137350000Y-127180000D01*
D26*
G36*
X191414492Y-129315000D02*
X107785000Y-129315000D01*
X107785000Y-124920000D01*
X108845655Y-124920000D01*
X108959729Y-125493489D01*
X109284585Y-125979670D01*
X109599366Y-126190000D01*
X109284585Y-126400330D01*
X108959729Y-126886511D01*
X108845655Y-127460000D01*
X108959729Y-128033489D01*
X109284585Y-128519670D01*
X109770766Y-128844526D01*
X110344255Y-128958600D01*
X110713745Y-128958600D01*
X111287234Y-128844526D01*
X111773415Y-128519670D01*
X111799000Y-128481379D01*
X111824585Y-128519670D01*
X112310766Y-128844526D01*
X112884255Y-128958600D01*
X113253745Y-128958600D01*
X113827234Y-128844526D01*
X114313415Y-128519670D01*
X114339000Y-128481379D01*
X114364585Y-128519670D01*
X114850766Y-128844526D01*
X115424255Y-128958600D01*
X115793745Y-128958600D01*
X116367234Y-128844526D01*
X116853415Y-128519670D01*
X116879000Y-128481379D01*
X116904585Y-128519670D01*
X117390766Y-128844526D01*
X117964255Y-128958600D01*
X118333745Y-128958600D01*
X118907234Y-128844526D01*
X119393415Y-128519670D01*
X119419000Y-128481379D01*
X119444585Y-128519670D01*
X119930766Y-128844526D01*
X120504255Y-128958600D01*
X120873745Y-128958600D01*
X121447234Y-128844526D01*
X121933415Y-128519670D01*
X121959000Y-128481379D01*
X121984585Y-128519670D01*
X122470766Y-128844526D01*
X123044255Y-128958600D01*
X123413745Y-128958600D01*
X123987234Y-128844526D01*
X124473415Y-128519670D01*
X124499000Y-128481379D01*
X124524585Y-128519670D01*
X125010766Y-128844526D01*
X125584255Y-128958600D01*
X125953745Y-128958600D01*
X126527234Y-128844526D01*
X127013415Y-128519670D01*
X127039000Y-128481379D01*
X127064585Y-128519670D01*
X127550766Y-128844526D01*
X128124255Y-128958600D01*
X128493745Y-128958600D01*
X129067234Y-128844526D01*
X129553415Y-128519670D01*
X129878271Y-128033489D01*
X129992345Y-127460000D01*
X129878271Y-126886511D01*
X129553415Y-126400330D01*
X129238634Y-126190000D01*
X129553415Y-125979670D01*
X129878271Y-125493489D01*
X129992345Y-124920000D01*
X132848655Y-124920000D01*
X132962729Y-125493489D01*
X133287585Y-125979670D01*
X133602366Y-126190000D01*
X133287585Y-126400330D01*
X132962729Y-126886511D01*
X132848655Y-127460000D01*
X132962729Y-128033489D01*
X133287585Y-128519670D01*
X133773766Y-128844526D01*
X134347255Y-128958600D01*
X134716745Y-128958600D01*
X135290234Y-128844526D01*
X135461634Y-128730000D01*
X137069995Y-128730000D01*
X137070000Y-128730001D01*
X137556008Y-128633327D01*
X137968026Y-128358026D01*
X138248023Y-128078028D01*
X138248026Y-128078026D01*
X138523327Y-127666008D01*
X138564305Y-127460000D01*
X138620001Y-127180000D01*
X138620000Y-127179995D01*
X138620000Y-121286052D01*
X138666051Y-121240000D01*
X139413316Y-121240000D01*
X139396569Y-121264510D01*
X139345560Y-121516400D01*
X139345560Y-123243600D01*
X139389838Y-123478917D01*
X139528910Y-123695041D01*
X139741110Y-123840031D01*
X139782439Y-123848400D01*
X139764585Y-123860330D01*
X139439729Y-124346511D01*
X139325655Y-124920000D01*
X139439729Y-125493489D01*
X139764585Y-125979670D01*
X140079366Y-126190000D01*
X139764585Y-126400330D01*
X139439729Y-126886511D01*
X139325655Y-127460000D01*
X139439729Y-128033489D01*
X139764585Y-128519670D01*
X140250766Y-128844526D01*
X140824255Y-128958600D01*
X141193745Y-128958600D01*
X141767234Y-128844526D01*
X142253415Y-128519670D01*
X142279000Y-128481379D01*
X142304585Y-128519670D01*
X142790766Y-128844526D01*
X143364255Y-128958600D01*
X143733745Y-128958600D01*
X144307234Y-128844526D01*
X144793415Y-128519670D01*
X144819000Y-128481379D01*
X144844585Y-128519670D01*
X145330766Y-128844526D01*
X145904255Y-128958600D01*
X146273745Y-128958600D01*
X146847234Y-128844526D01*
X147333415Y-128519670D01*
X147359000Y-128481379D01*
X147384585Y-128519670D01*
X147870766Y-128844526D01*
X148444255Y-128958600D01*
X148813745Y-128958600D01*
X149387234Y-128844526D01*
X149873415Y-128519670D01*
X149899000Y-128481379D01*
X149924585Y-128519670D01*
X150410766Y-128844526D01*
X150984255Y-128958600D01*
X151353745Y-128958600D01*
X151927234Y-128844526D01*
X152413415Y-128519670D01*
X152439000Y-128481379D01*
X152464585Y-128519670D01*
X152950766Y-128844526D01*
X153524255Y-128958600D01*
X153893745Y-128958600D01*
X154467234Y-128844526D01*
X154953415Y-128519670D01*
X154979000Y-128481379D01*
X155004585Y-128519670D01*
X155490766Y-128844526D01*
X156064255Y-128958600D01*
X156433745Y-128958600D01*
X157007234Y-128844526D01*
X157493415Y-128519670D01*
X157519000Y-128481379D01*
X157544585Y-128519670D01*
X158030766Y-128844526D01*
X158604255Y-128958600D01*
X158973745Y-128958600D01*
X159547234Y-128844526D01*
X160033415Y-128519670D01*
X160358271Y-128033489D01*
X160472345Y-127460000D01*
X160358271Y-126886511D01*
X160033415Y-126400330D01*
X159718634Y-126190000D01*
X160033415Y-125979670D01*
X160358271Y-125493489D01*
X160472345Y-124920000D01*
X160358271Y-124346511D01*
X160033415Y-123860330D01*
X160019087Y-123850757D01*
X160040317Y-123846762D01*
X160256441Y-123707690D01*
X160401431Y-123495490D01*
X160452440Y-123243600D01*
X160452440Y-121516400D01*
X160408162Y-121281083D01*
X160381726Y-121240000D01*
X160840000Y-121240000D01*
X160840000Y-126909995D01*
X160839999Y-126910000D01*
X160936673Y-127396008D01*
X161211974Y-127808026D01*
X161761972Y-128358023D01*
X161761974Y-128358026D01*
X162173992Y-128633327D01*
X162660000Y-128730000D01*
X164082366Y-128730000D01*
X164253766Y-128844526D01*
X164827255Y-128958600D01*
X165196745Y-128958600D01*
X165770234Y-128844526D01*
X165941634Y-128730000D01*
X167109995Y-128730000D01*
X167110000Y-128730001D01*
X167596008Y-128633327D01*
X168008026Y-128358026D01*
X168598026Y-127768026D01*
X168873327Y-127356008D01*
X168970001Y-126870000D01*
X168970000Y-126869995D01*
X168970000Y-126770836D01*
X169520100Y-126770836D01*
X169520100Y-127376084D01*
X169606497Y-127810430D01*
X169852534Y-128178650D01*
X170220754Y-128424687D01*
X170655100Y-128511084D01*
X171089446Y-128424687D01*
X171457666Y-128178650D01*
X171703703Y-127810430D01*
X171790100Y-127376084D01*
X171790100Y-126770836D01*
X176520100Y-126770836D01*
X176520100Y-127376084D01*
X176606497Y-127810430D01*
X176852534Y-128178650D01*
X177220754Y-128424687D01*
X177655100Y-128511084D01*
X178089446Y-128424687D01*
X178457666Y-128178650D01*
X178703703Y-127810430D01*
X178790100Y-127376084D01*
X178790100Y-126770836D01*
X178703703Y-126336490D01*
X178457666Y-125968270D01*
X178089446Y-125722233D01*
X177655100Y-125635836D01*
X177220754Y-125722233D01*
X176852534Y-125968270D01*
X176606497Y-126336490D01*
X176520100Y-126770836D01*
X171790100Y-126770836D01*
X171703703Y-126336490D01*
X171457666Y-125968270D01*
X171089446Y-125722233D01*
X170655100Y-125635836D01*
X170220754Y-125722233D01*
X169852534Y-125968270D01*
X169606497Y-126336490D01*
X169520100Y-126770836D01*
X168970000Y-126770836D01*
X168970000Y-124373460D01*
X170370415Y-124373460D01*
X170454909Y-124798239D01*
X170695526Y-125158349D01*
X171055636Y-125398966D01*
X171480415Y-125483460D01*
X171829785Y-125483460D01*
X172254564Y-125398966D01*
X172614674Y-125158349D01*
X172855291Y-124798239D01*
X172939785Y-124373460D01*
X172855291Y-123948681D01*
X172614674Y-123588571D01*
X172254564Y-123347954D01*
X171829785Y-123263460D01*
X171480415Y-123263460D01*
X171055636Y-123347954D01*
X170695526Y-123588571D01*
X170454909Y-123948681D01*
X170370415Y-124373460D01*
X168970000Y-124373460D01*
X168970000Y-123145167D01*
X174514838Y-123145167D01*
X174656883Y-123488943D01*
X174919673Y-123752192D01*
X175263201Y-123894838D01*
X175490753Y-123895036D01*
X175454909Y-123948681D01*
X175370415Y-124373460D01*
X175454909Y-124798239D01*
X175695526Y-125158349D01*
X176055636Y-125398966D01*
X176480415Y-125483460D01*
X176829785Y-125483460D01*
X177254564Y-125398966D01*
X177614674Y-125158349D01*
X177855291Y-124798239D01*
X177939785Y-124373460D01*
X177855291Y-123948681D01*
X177614674Y-123588571D01*
X177254564Y-123347954D01*
X176829785Y-123263460D01*
X176480415Y-123263460D01*
X176323429Y-123294686D01*
X176384838Y-123146799D01*
X176385162Y-122774833D01*
X176243117Y-122431057D01*
X175980327Y-122167808D01*
X175636799Y-122025162D01*
X175264833Y-122024838D01*
X174921057Y-122166883D01*
X174657808Y-122429673D01*
X174515162Y-122773201D01*
X174514838Y-123145167D01*
X168970000Y-123145167D01*
X168970000Y-119595167D01*
X170574838Y-119595167D01*
X170716883Y-119938943D01*
X170979673Y-120202192D01*
X171323201Y-120344838D01*
X171695167Y-120345162D01*
X172038943Y-120203117D01*
X172302192Y-119940327D01*
X172444838Y-119596799D01*
X172444839Y-119595167D01*
X175204838Y-119595167D01*
X175346883Y-119938943D01*
X175609673Y-120202192D01*
X175953201Y-120344838D01*
X176325167Y-120345162D01*
X176668943Y-120203117D01*
X176932192Y-119940327D01*
X177074838Y-119596799D01*
X177075162Y-119224833D01*
X176933117Y-118881057D01*
X176827412Y-118775167D01*
X178994838Y-118775167D01*
X179136883Y-119118943D01*
X179399673Y-119382192D01*
X179743201Y-119524838D01*
X180115167Y-119525162D01*
X180458943Y-119383117D01*
X180722192Y-119120327D01*
X180864838Y-118776799D01*
X180865162Y-118404833D01*
X180723117Y-118061057D01*
X180460327Y-117797808D01*
X180116799Y-117655162D01*
X179744833Y-117654838D01*
X179401057Y-117796883D01*
X179137808Y-118059673D01*
X178995162Y-118403201D01*
X178994838Y-118775167D01*
X176827412Y-118775167D01*
X176670327Y-118617808D01*
X176326799Y-118475162D01*
X175954833Y-118474838D01*
X175611057Y-118616883D01*
X175347808Y-118879673D01*
X175205162Y-119223201D01*
X175204838Y-119595167D01*
X172444839Y-119595167D01*
X172445162Y-119224833D01*
X172303117Y-118881057D01*
X172040327Y-118617808D01*
X171696799Y-118475162D01*
X171324833Y-118474838D01*
X170981057Y-118616883D01*
X170717808Y-118879673D01*
X170575162Y-119223201D01*
X170574838Y-119595167D01*
X168970000Y-119595167D01*
X168970000Y-117250266D01*
X169076883Y-117508943D01*
X169339673Y-117772192D01*
X169683201Y-117914838D01*
X170055167Y-117915162D01*
X170398943Y-117773117D01*
X170662192Y-117510327D01*
X170804838Y-117166799D01*
X170805004Y-116975167D01*
X174094838Y-116975167D01*
X174236883Y-117318943D01*
X174499673Y-117582192D01*
X174843201Y-117724838D01*
X175215167Y-117725162D01*
X175553981Y-117585167D01*
X181244838Y-117585167D01*
X181386883Y-117928943D01*
X181649673Y-118192192D01*
X181993201Y-118334838D01*
X182365167Y-118335162D01*
X182708943Y-118193117D01*
X182972192Y-117930327D01*
X183114838Y-117586799D01*
X183115162Y-117214833D01*
X182973117Y-116871057D01*
X182710327Y-116607808D01*
X182605310Y-116564201D01*
X182728943Y-116513117D01*
X182992192Y-116250327D01*
X183134838Y-115906799D01*
X183135162Y-115534833D01*
X182993117Y-115191057D01*
X182730327Y-114927808D01*
X182386799Y-114785162D01*
X182014833Y-114784838D01*
X181671057Y-114926883D01*
X181407808Y-115189673D01*
X181265162Y-115533201D01*
X181264838Y-115905167D01*
X181406883Y-116248943D01*
X181669673Y-116512192D01*
X181774690Y-116555799D01*
X181651057Y-116606883D01*
X181387808Y-116869673D01*
X181245162Y-117213201D01*
X181244838Y-117585167D01*
X175553981Y-117585167D01*
X175558943Y-117583117D01*
X175822192Y-117320327D01*
X175964838Y-116976799D01*
X175965162Y-116604833D01*
X175823117Y-116261057D01*
X175560327Y-115997808D01*
X175313142Y-115895167D01*
X176604838Y-115895167D01*
X176746883Y-116238943D01*
X177009673Y-116502192D01*
X177353201Y-116644838D01*
X177725167Y-116645162D01*
X178068943Y-116503117D01*
X178332192Y-116240327D01*
X178474838Y-115896799D01*
X178475162Y-115524833D01*
X178333117Y-115181057D01*
X178247264Y-115095054D01*
X178362192Y-114980327D01*
X178504838Y-114636799D01*
X178505162Y-114264833D01*
X178363117Y-113921057D01*
X178100327Y-113657808D01*
X177756799Y-113515162D01*
X177384833Y-113514838D01*
X177041057Y-113656883D01*
X176777808Y-113919673D01*
X176635162Y-114263201D01*
X176634838Y-114635167D01*
X176776883Y-114978943D01*
X176862736Y-115064946D01*
X176747808Y-115179673D01*
X176605162Y-115523201D01*
X176604838Y-115895167D01*
X175313142Y-115895167D01*
X175216799Y-115855162D01*
X174844833Y-115854838D01*
X174501057Y-115996883D01*
X174237808Y-116259673D01*
X174095162Y-116603201D01*
X174094838Y-116975167D01*
X170805004Y-116975167D01*
X170805162Y-116794833D01*
X170663117Y-116451057D01*
X170400327Y-116187808D01*
X170056799Y-116045162D01*
X169684833Y-116044838D01*
X169341057Y-116186883D01*
X169077808Y-116449673D01*
X168970000Y-116709302D01*
X168970000Y-115350266D01*
X169076883Y-115608943D01*
X169339673Y-115872192D01*
X169683201Y-116014838D01*
X170055167Y-116015162D01*
X170398943Y-115873117D01*
X170662192Y-115610327D01*
X170804838Y-115266799D01*
X170805162Y-114894833D01*
X170663117Y-114551057D01*
X170400327Y-114287808D01*
X170056799Y-114145162D01*
X169684833Y-114144838D01*
X169341057Y-114286883D01*
X169077808Y-114549673D01*
X168970000Y-114809302D01*
X168970000Y-113575477D01*
X169016883Y-113688943D01*
X169279673Y-113952192D01*
X169623201Y-114094838D01*
X169995167Y-114095162D01*
X170237173Y-113995167D01*
X171394838Y-113995167D01*
X171536883Y-114338943D01*
X171799673Y-114602192D01*
X172143201Y-114744838D01*
X172515167Y-114745162D01*
X172858943Y-114603117D01*
X173122192Y-114340327D01*
X173264838Y-113996799D01*
X173265162Y-113624833D01*
X173123117Y-113281057D01*
X172860327Y-113017808D01*
X172516799Y-112875162D01*
X172144833Y-112874838D01*
X171801057Y-113016883D01*
X171537808Y-113279673D01*
X171395162Y-113623201D01*
X171394838Y-113995167D01*
X170237173Y-113995167D01*
X170338943Y-113953117D01*
X170602192Y-113690327D01*
X170744838Y-113346799D01*
X170745162Y-112974833D01*
X170603117Y-112631057D01*
X170340327Y-112367808D01*
X169996799Y-112225162D01*
X169624833Y-112224838D01*
X169281057Y-112366883D01*
X169017808Y-112629673D01*
X168970000Y-112744807D01*
X168970000Y-111922815D01*
X185964630Y-111922815D01*
X186288980Y-112707800D01*
X186889041Y-113308909D01*
X187673459Y-113634628D01*
X188522815Y-113635370D01*
X189307800Y-113311020D01*
X189908909Y-112710959D01*
X190234628Y-111926541D01*
X190235370Y-111077185D01*
X189911020Y-110292200D01*
X189310959Y-109691091D01*
X188526541Y-109365372D01*
X187677185Y-109364630D01*
X186892200Y-109688980D01*
X186291091Y-110289041D01*
X185965372Y-111073459D01*
X185964630Y-111922815D01*
X168970000Y-111922815D01*
X168970000Y-109895167D01*
X169254838Y-109895167D01*
X169396883Y-110238943D01*
X169659673Y-110502192D01*
X170003201Y-110644838D01*
X170375167Y-110645162D01*
X170718943Y-110503117D01*
X170982192Y-110240327D01*
X171124838Y-109896799D01*
X171125162Y-109524833D01*
X170983117Y-109181057D01*
X170720327Y-108917808D01*
X170376799Y-108775162D01*
X170004833Y-108774838D01*
X169661057Y-108916883D01*
X169397808Y-109179673D01*
X169255162Y-109523201D01*
X169254838Y-109895167D01*
X168970000Y-109895167D01*
X168970000Y-108085167D01*
X170944838Y-108085167D01*
X171086883Y-108428943D01*
X171349673Y-108692192D01*
X171693201Y-108834838D01*
X172065167Y-108835162D01*
X172408943Y-108693117D01*
X172672192Y-108430327D01*
X172814838Y-108086799D01*
X172815162Y-107714833D01*
X172673117Y-107371057D01*
X172410327Y-107107808D01*
X172066799Y-106965162D01*
X171694833Y-106964838D01*
X171351057Y-107106883D01*
X171087808Y-107369673D01*
X170945162Y-107713201D01*
X170944838Y-108085167D01*
X168970000Y-108085167D01*
X168970000Y-105636052D01*
X169598023Y-105008028D01*
X169598026Y-105008026D01*
X169873327Y-104596008D01*
X169885430Y-104535162D01*
X169963005Y-104145167D01*
X176784838Y-104145167D01*
X176917986Y-104467410D01*
X176795162Y-104763201D01*
X176794838Y-105135167D01*
X176936883Y-105478943D01*
X177199673Y-105742192D01*
X177543201Y-105884838D01*
X177915167Y-105885162D01*
X178258943Y-105743117D01*
X178522192Y-105480327D01*
X178664838Y-105136799D01*
X178665162Y-104764833D01*
X178532014Y-104442590D01*
X178654838Y-104146799D01*
X178655162Y-103774833D01*
X178513117Y-103431057D01*
X178250327Y-103167808D01*
X177906799Y-103025162D01*
X177534833Y-103024838D01*
X177191057Y-103166883D01*
X176927808Y-103429673D01*
X176785162Y-103773201D01*
X176784838Y-104145167D01*
X169963005Y-104145167D01*
X169970001Y-104110000D01*
X169970000Y-104109995D01*
X169970000Y-100285167D01*
X170174838Y-100285167D01*
X170316883Y-100628943D01*
X170579673Y-100892192D01*
X170923201Y-101034838D01*
X171295167Y-101035162D01*
X171638943Y-100893117D01*
X171902192Y-100630327D01*
X172044838Y-100286799D01*
X172045162Y-99914833D01*
X171903117Y-99571057D01*
X171640327Y-99307808D01*
X171296799Y-99165162D01*
X170924833Y-99164838D01*
X170581057Y-99306883D01*
X170317808Y-99569673D01*
X170175162Y-99913201D01*
X170174838Y-100285167D01*
X169970000Y-100285167D01*
X169970000Y-98504000D01*
X181788960Y-98504000D01*
X181788960Y-100536000D01*
X181833238Y-100771317D01*
X181843393Y-100787099D01*
X181839969Y-100792110D01*
X181788960Y-101044000D01*
X181788960Y-103076000D01*
X181833238Y-103311317D01*
X181843393Y-103327099D01*
X181839969Y-103332110D01*
X181788960Y-103584000D01*
X181788960Y-105616000D01*
X181833238Y-105851317D01*
X181843393Y-105867099D01*
X181839969Y-105872110D01*
X181788960Y-106124000D01*
X181788960Y-108156000D01*
X181833238Y-108391317D01*
X181972310Y-108607441D01*
X182184510Y-108752431D01*
X182436400Y-108803440D01*
X184163600Y-108803440D01*
X184398917Y-108759162D01*
X184615041Y-108620090D01*
X184760031Y-108407890D01*
X184768400Y-108366561D01*
X184780330Y-108384415D01*
X185266511Y-108709271D01*
X185840000Y-108823345D01*
X186413489Y-108709271D01*
X186899670Y-108384415D01*
X187110000Y-108069634D01*
X187320330Y-108384415D01*
X187806511Y-108709271D01*
X188380000Y-108823345D01*
X188953489Y-108709271D01*
X189439670Y-108384415D01*
X189764526Y-107898234D01*
X189878600Y-107324745D01*
X189878600Y-106955255D01*
X189764526Y-106381766D01*
X189439670Y-105895585D01*
X189401379Y-105870000D01*
X189439670Y-105844415D01*
X189764526Y-105358234D01*
X189878600Y-104784745D01*
X189878600Y-104415255D01*
X189764526Y-103841766D01*
X189439670Y-103355585D01*
X189401379Y-103330000D01*
X189439670Y-103304415D01*
X189764526Y-102818234D01*
X189878600Y-102244745D01*
X189878600Y-101875255D01*
X189764526Y-101301766D01*
X189439670Y-100815585D01*
X189401379Y-100790000D01*
X189439670Y-100764415D01*
X189764526Y-100278234D01*
X189878600Y-99704745D01*
X189878600Y-99335255D01*
X189764526Y-98761766D01*
X189439670Y-98275585D01*
X188953489Y-97950729D01*
X188380000Y-97836655D01*
X187806511Y-97950729D01*
X187320330Y-98275585D01*
X187110000Y-98590366D01*
X186899670Y-98275585D01*
X186413489Y-97950729D01*
X185840000Y-97836655D01*
X185266511Y-97950729D01*
X184780330Y-98275585D01*
X184770757Y-98289913D01*
X184766762Y-98268683D01*
X184627690Y-98052559D01*
X184415490Y-97907569D01*
X184163600Y-97856560D01*
X182436400Y-97856560D01*
X182201083Y-97900838D01*
X181984959Y-98039910D01*
X181839969Y-98252110D01*
X181788960Y-98504000D01*
X169970000Y-98504000D01*
X169970000Y-96095167D01*
X179824838Y-96095167D01*
X179966883Y-96438943D01*
X180229673Y-96702192D01*
X180573201Y-96844838D01*
X180945167Y-96845162D01*
X181288943Y-96703117D01*
X181552192Y-96440327D01*
X181694838Y-96096799D01*
X181695162Y-95724833D01*
X181553117Y-95381057D01*
X181290327Y-95117808D01*
X180946799Y-94975162D01*
X180574833Y-94974838D01*
X180231057Y-95116883D01*
X179967808Y-95379673D01*
X179825162Y-95723201D01*
X179824838Y-96095167D01*
X169970000Y-96095167D01*
X169970000Y-94115167D01*
X175634838Y-94115167D01*
X175776883Y-94458943D01*
X176039673Y-94722192D01*
X176383201Y-94864838D01*
X176755167Y-94865162D01*
X177098943Y-94723117D01*
X177362192Y-94460327D01*
X177504838Y-94116799D01*
X177505162Y-93744833D01*
X177363117Y-93401057D01*
X177100327Y-93137808D01*
X176756799Y-92995162D01*
X176384833Y-92994838D01*
X176041057Y-93136883D01*
X175777808Y-93399673D01*
X175635162Y-93743201D01*
X175634838Y-94115167D01*
X169970000Y-94115167D01*
X169970000Y-87935167D01*
X170184838Y-87935167D01*
X170326883Y-88278943D01*
X170589673Y-88542192D01*
X170933201Y-88684838D01*
X171305167Y-88685162D01*
X171648943Y-88543117D01*
X171912192Y-88280327D01*
X172054838Y-87936799D01*
X172055162Y-87564833D01*
X171913117Y-87221057D01*
X171650327Y-86957808D01*
X171306799Y-86815162D01*
X170934833Y-86814838D01*
X170591057Y-86956883D01*
X170327808Y-87219673D01*
X170185162Y-87563201D01*
X170184838Y-87935167D01*
X169970000Y-87935167D01*
X169970000Y-86506052D01*
X170296051Y-86180000D01*
X176559995Y-86180000D01*
X176560000Y-86180001D01*
X177046008Y-86083327D01*
X177458026Y-85808026D01*
X178182023Y-85084028D01*
X178182026Y-85084026D01*
X178457327Y-84672008D01*
X178504869Y-84433000D01*
X178554001Y-84186000D01*
X178554000Y-84185995D01*
X178554000Y-82119684D01*
X178881093Y-81793161D01*
X179168672Y-81100595D01*
X179169326Y-80350695D01*
X178882957Y-79657628D01*
X178699650Y-79474000D01*
X180386560Y-79474000D01*
X180386560Y-81974000D01*
X180430838Y-82209317D01*
X180569910Y-82425441D01*
X180782110Y-82570431D01*
X181034000Y-82621440D01*
X183534000Y-82621440D01*
X183769317Y-82577162D01*
X183985441Y-82438090D01*
X184130431Y-82225890D01*
X184181440Y-81974000D01*
X184181440Y-80422815D01*
X185964630Y-80422815D01*
X186288980Y-81207800D01*
X186889041Y-81808909D01*
X187673459Y-82134628D01*
X188522815Y-82135370D01*
X189307800Y-81811020D01*
X189908909Y-81210959D01*
X190234628Y-80426541D01*
X190235370Y-79577185D01*
X189911020Y-78792200D01*
X189310959Y-78191091D01*
X188526541Y-77865372D01*
X187677185Y-77864630D01*
X186892200Y-78188980D01*
X186291091Y-78789041D01*
X185965372Y-79573459D01*
X185964630Y-80422815D01*
X184181440Y-80422815D01*
X184181440Y-79474000D01*
X184137162Y-79238683D01*
X183998090Y-79022559D01*
X183785890Y-78877569D01*
X183534000Y-78826560D01*
X181034000Y-78826560D01*
X180798683Y-78870838D01*
X180582559Y-79009910D01*
X180437569Y-79222110D01*
X180386560Y-79474000D01*
X178699650Y-79474000D01*
X178353161Y-79126907D01*
X177660595Y-78839328D01*
X176910695Y-78838674D01*
X176217628Y-79125043D01*
X175686907Y-79654839D01*
X175399328Y-80347405D01*
X175398674Y-81097305D01*
X175685043Y-81790372D01*
X176014000Y-82119903D01*
X176014000Y-83640000D01*
X169770005Y-83640000D01*
X169770000Y-83639999D01*
X169330575Y-83727407D01*
X169283992Y-83736673D01*
X168871974Y-84011974D01*
X168871972Y-84011977D01*
X167801974Y-85081974D01*
X167526673Y-85493992D01*
X167429999Y-85980000D01*
X167430000Y-85980005D01*
X167430000Y-101695121D01*
X167104833Y-101694838D01*
X166761057Y-101836883D01*
X166497808Y-102099673D01*
X166355162Y-102443201D01*
X166354838Y-102815167D01*
X166496883Y-103158943D01*
X166759673Y-103422192D01*
X167103201Y-103564838D01*
X167430000Y-103565123D01*
X167430000Y-103583949D01*
X166801974Y-104211974D01*
X166526673Y-104623992D01*
X166429999Y-105110000D01*
X166430000Y-105110005D01*
X166430000Y-121022535D01*
X166282000Y-120921411D01*
X166282000Y-119972000D01*
X166185327Y-119485992D01*
X165910026Y-119073974D01*
X164830000Y-117993948D01*
X164830000Y-115273852D01*
X165073201Y-115374838D01*
X165445167Y-115375162D01*
X165788943Y-115233117D01*
X166052192Y-114970327D01*
X166194838Y-114626799D01*
X166195162Y-114254833D01*
X166053117Y-113911057D01*
X165790327Y-113647808D01*
X165446799Y-113505162D01*
X165074833Y-113504838D01*
X164830000Y-113606001D01*
X164830000Y-110140005D01*
X164830001Y-110140000D01*
X164733327Y-109653992D01*
X164618534Y-109482192D01*
X164458026Y-109241974D01*
X164458023Y-109241972D01*
X163008026Y-107791974D01*
X162596008Y-107516673D01*
X162110000Y-107419999D01*
X162109995Y-107420000D01*
X160100109Y-107420000D01*
X160023327Y-107033992D01*
X159748026Y-106621974D01*
X159336008Y-106346673D01*
X158850000Y-106250000D01*
X158363992Y-106346673D01*
X157951974Y-106621974D01*
X157676673Y-107033992D01*
X157580000Y-107520000D01*
X157580000Y-108690000D01*
X157676673Y-109176008D01*
X157951974Y-109588026D01*
X158363992Y-109863327D01*
X158850000Y-109960000D01*
X161583948Y-109960000D01*
X162290000Y-110666051D01*
X162290000Y-118519995D01*
X162289999Y-118520000D01*
X162386673Y-119006008D01*
X162597328Y-119321276D01*
X162348026Y-119071974D01*
X161936008Y-118796673D01*
X161450000Y-118699999D01*
X161449995Y-118700000D01*
X138140005Y-118700000D01*
X138140000Y-118699999D01*
X137653992Y-118796673D01*
X137241974Y-119071974D01*
X137241972Y-119071977D01*
X136451974Y-119861974D01*
X136176673Y-120273992D01*
X136079999Y-120760000D01*
X136080000Y-120760005D01*
X136080000Y-121170494D01*
X136012090Y-121064959D01*
X135799890Y-120919969D01*
X135548000Y-120868960D01*
X133516000Y-120868960D01*
X133280683Y-120913238D01*
X133064559Y-121052310D01*
X132919569Y-121264510D01*
X132868560Y-121516400D01*
X132868560Y-123243600D01*
X132912838Y-123478917D01*
X133051910Y-123695041D01*
X133264110Y-123840031D01*
X133305439Y-123848400D01*
X133287585Y-123860330D01*
X132962729Y-124346511D01*
X132848655Y-124920000D01*
X129992345Y-124920000D01*
X129878271Y-124346511D01*
X129553415Y-123860330D01*
X129539087Y-123850757D01*
X129560317Y-123846762D01*
X129776441Y-123707690D01*
X129921431Y-123495490D01*
X129972440Y-123243600D01*
X129972440Y-121516400D01*
X129928162Y-121281083D01*
X129789090Y-121064959D01*
X129576890Y-120919969D01*
X129325000Y-120868960D01*
X127293000Y-120868960D01*
X127057683Y-120913238D01*
X127041901Y-120923393D01*
X127036890Y-120919969D01*
X126785000Y-120868960D01*
X124753000Y-120868960D01*
X124517683Y-120913238D01*
X124501901Y-120923393D01*
X124496890Y-120919969D01*
X124245000Y-120868960D01*
X122213000Y-120868960D01*
X121977683Y-120913238D01*
X121961901Y-120923393D01*
X121956890Y-120919969D01*
X121705000Y-120868960D01*
X119673000Y-120868960D01*
X119437683Y-120913238D01*
X119421901Y-120923393D01*
X119416890Y-120919969D01*
X119165000Y-120868960D01*
X117133000Y-120868960D01*
X116897683Y-120913238D01*
X116881901Y-120923393D01*
X116876890Y-120919969D01*
X116625000Y-120868960D01*
X114593000Y-120868960D01*
X114357683Y-120913238D01*
X114341901Y-120923393D01*
X114336890Y-120919969D01*
X114085000Y-120868960D01*
X112053000Y-120868960D01*
X111817683Y-120913238D01*
X111801901Y-120923393D01*
X111796890Y-120919969D01*
X111545000Y-120868960D01*
X109513000Y-120868960D01*
X109277683Y-120913238D01*
X109061559Y-121052310D01*
X108916569Y-121264510D01*
X108865560Y-121516400D01*
X108865560Y-123243600D01*
X108909838Y-123478917D01*
X109048910Y-123695041D01*
X109261110Y-123840031D01*
X109302439Y-123848400D01*
X109284585Y-123860330D01*
X108959729Y-124346511D01*
X108845655Y-124920000D01*
X107785000Y-124920000D01*
X107785000Y-114815167D01*
X128714838Y-114815167D01*
X128856883Y-115158943D01*
X129119673Y-115422192D01*
X129237255Y-115471017D01*
X129376883Y-115808943D01*
X129467166Y-115899384D01*
X129345162Y-116193201D01*
X129344838Y-116565167D01*
X129486883Y-116908943D01*
X129749673Y-117172192D01*
X130093201Y-117314838D01*
X130465167Y-117315162D01*
X130808943Y-117173117D01*
X131072192Y-116910327D01*
X131214838Y-116566799D01*
X131215162Y-116194833D01*
X131073117Y-115851057D01*
X130982834Y-115760616D01*
X131104838Y-115466799D01*
X131105162Y-115094833D01*
X130963117Y-114751057D01*
X130897203Y-114685028D01*
X131062192Y-114520327D01*
X131204838Y-114176799D01*
X131205162Y-113804833D01*
X131089607Y-113525167D01*
X137674838Y-113525167D01*
X137816883Y-113868943D01*
X137937710Y-113989981D01*
X137817808Y-114109673D01*
X137675162Y-114453201D01*
X137674838Y-114825167D01*
X137816883Y-115168943D01*
X137947701Y-115299989D01*
X137827808Y-115419673D01*
X137685162Y-115763201D01*
X137684838Y-116135167D01*
X137826883Y-116478943D01*
X138089673Y-116742192D01*
X138433201Y-116884838D01*
X138805167Y-116885162D01*
X139148943Y-116743117D01*
X139412192Y-116480327D01*
X139545687Y-116158837D01*
X139728943Y-116083117D01*
X139992192Y-115820327D01*
X140134838Y-115476799D01*
X140135162Y-115104833D01*
X139993117Y-114761057D01*
X139877282Y-114645019D01*
X140002192Y-114520327D01*
X140144838Y-114176799D01*
X140145162Y-113804833D01*
X140003117Y-113461057D01*
X139872308Y-113330019D01*
X139982192Y-113220327D01*
X140124838Y-112876799D01*
X140125162Y-112504833D01*
X139983117Y-112161057D01*
X139872273Y-112050019D01*
X140002192Y-111920327D01*
X140144838Y-111576799D01*
X140145162Y-111204833D01*
X140003117Y-110861057D01*
X139740327Y-110597808D01*
X139550319Y-110518909D01*
X139423117Y-110211057D01*
X139307282Y-110095019D01*
X139432192Y-109970327D01*
X139574838Y-109626799D01*
X139574856Y-109605167D01*
X141044838Y-109605167D01*
X141186883Y-109948943D01*
X141449673Y-110212192D01*
X141793201Y-110354838D01*
X142165167Y-110355162D01*
X142508943Y-110213117D01*
X142772192Y-109950327D01*
X142914838Y-109606799D01*
X142915162Y-109234833D01*
X142773117Y-108891057D01*
X142510327Y-108627808D01*
X142183044Y-108491907D01*
X142518943Y-108353117D01*
X142782192Y-108090327D01*
X142924838Y-107746799D01*
X142925162Y-107374833D01*
X142783117Y-107031057D01*
X142520327Y-106767808D01*
X142176799Y-106625162D01*
X141804833Y-106624838D01*
X141461057Y-106766883D01*
X141197808Y-107029673D01*
X141055162Y-107373201D01*
X141054838Y-107745167D01*
X141196883Y-108088943D01*
X141459673Y-108352192D01*
X141786956Y-108488093D01*
X141451057Y-108626883D01*
X141187808Y-108889673D01*
X141045162Y-109233201D01*
X141044838Y-109605167D01*
X139574856Y-109605167D01*
X139575162Y-109254833D01*
X139433117Y-108911057D01*
X139170327Y-108647808D01*
X138826799Y-108505162D01*
X138454833Y-108504838D01*
X138111057Y-108646883D01*
X137847808Y-108909673D01*
X137705162Y-109253201D01*
X137704838Y-109625167D01*
X137846883Y-109968943D01*
X137962718Y-110084981D01*
X137837808Y-110209673D01*
X137695162Y-110553201D01*
X137694838Y-110925167D01*
X137836883Y-111268943D01*
X137962701Y-111394981D01*
X137847808Y-111509673D01*
X137705162Y-111853201D01*
X137704838Y-112225167D01*
X137846883Y-112568943D01*
X137952736Y-112674981D01*
X137817808Y-112809673D01*
X137675162Y-113153201D01*
X137674838Y-113525167D01*
X131089607Y-113525167D01*
X131063117Y-113461057D01*
X130942282Y-113340011D01*
X131072192Y-113210327D01*
X131214838Y-112866799D01*
X131215162Y-112494833D01*
X131073117Y-112151057D01*
X130982247Y-112060028D01*
X131122192Y-111920327D01*
X131264838Y-111576799D01*
X131265162Y-111204833D01*
X131123117Y-110861057D01*
X130860327Y-110597808D01*
X130634105Y-110503872D01*
X130513117Y-110211057D01*
X130407264Y-110105019D01*
X130542192Y-109970327D01*
X130666533Y-109670883D01*
X130878943Y-109583117D01*
X131142192Y-109320327D01*
X131284838Y-108976799D01*
X131285162Y-108604833D01*
X131143117Y-108261057D01*
X131022290Y-108140019D01*
X131142192Y-108020327D01*
X131284838Y-107676799D01*
X131284839Y-107675167D01*
X133334838Y-107675167D01*
X133476883Y-108018943D01*
X133739673Y-108282192D01*
X134083201Y-108424838D01*
X134455167Y-108425162D01*
X134798943Y-108283117D01*
X135062192Y-108020327D01*
X135204838Y-107676799D01*
X135205162Y-107304833D01*
X135063117Y-106961057D01*
X134800327Y-106697808D01*
X134456799Y-106555162D01*
X134084833Y-106554838D01*
X133741057Y-106696883D01*
X133477808Y-106959673D01*
X133335162Y-107303201D01*
X133334838Y-107675167D01*
X131284839Y-107675167D01*
X131285162Y-107304833D01*
X131143117Y-106961057D01*
X130880327Y-106697808D01*
X130536799Y-106555162D01*
X130164833Y-106554838D01*
X129821057Y-106696883D01*
X129557808Y-106959673D01*
X129433467Y-107259117D01*
X129221057Y-107346883D01*
X128957808Y-107609673D01*
X128815162Y-107953201D01*
X128814838Y-108325167D01*
X128956883Y-108668943D01*
X129077710Y-108789981D01*
X128957808Y-108909673D01*
X128815162Y-109253201D01*
X128814838Y-109625167D01*
X128956883Y-109968943D01*
X129062736Y-110074981D01*
X128927808Y-110209673D01*
X128785162Y-110553201D01*
X128784838Y-110925167D01*
X128926883Y-111268943D01*
X129017762Y-111359981D01*
X128867808Y-111509673D01*
X128725162Y-111853201D01*
X128724838Y-112225167D01*
X128866883Y-112568943D01*
X128992701Y-112694981D01*
X128877808Y-112809673D01*
X128735162Y-113153201D01*
X128734838Y-113525167D01*
X128876883Y-113868943D01*
X128982727Y-113974972D01*
X128857808Y-114099673D01*
X128715162Y-114443201D01*
X128714838Y-114815167D01*
X107785000Y-114815167D01*
X107785000Y-111922815D01*
X108964630Y-111922815D01*
X109288980Y-112707800D01*
X109889041Y-113308909D01*
X110673459Y-113634628D01*
X111522815Y-113635370D01*
X112307800Y-113311020D01*
X112908909Y-112710959D01*
X113234628Y-111926541D01*
X113235370Y-111077185D01*
X112911020Y-110292200D01*
X112310959Y-109691091D01*
X111526541Y-109365372D01*
X110677185Y-109364630D01*
X109892200Y-109688980D01*
X109291091Y-110289041D01*
X108965372Y-111073459D01*
X108964630Y-111922815D01*
X107785000Y-111922815D01*
X107785000Y-89429255D01*
X109157400Y-89429255D01*
X109157400Y-89798745D01*
X109271474Y-90372234D01*
X109596330Y-90858415D01*
X109634621Y-90884000D01*
X109596330Y-90909585D01*
X109271474Y-91395766D01*
X109157400Y-91969255D01*
X109157400Y-92338745D01*
X109271474Y-92912234D01*
X109596330Y-93398415D01*
X109634621Y-93424000D01*
X109596330Y-93449585D01*
X109271474Y-93935766D01*
X109157400Y-94509255D01*
X109157400Y-94878745D01*
X109271474Y-95452234D01*
X109596330Y-95938415D01*
X109634621Y-95964000D01*
X109596330Y-95989585D01*
X109271474Y-96475766D01*
X109157400Y-97049255D01*
X109157400Y-97418745D01*
X109271474Y-97992234D01*
X109596330Y-98478415D01*
X109634621Y-98504000D01*
X109596330Y-98529585D01*
X109271474Y-99015766D01*
X109157400Y-99589255D01*
X109157400Y-99958745D01*
X109271474Y-100532234D01*
X109596330Y-101018415D01*
X109634621Y-101044000D01*
X109596330Y-101069585D01*
X109271474Y-101555766D01*
X109157400Y-102129255D01*
X109157400Y-102498745D01*
X109271474Y-103072234D01*
X109596330Y-103558415D01*
X109634621Y-103584000D01*
X109596330Y-103609585D01*
X109271474Y-104095766D01*
X109157400Y-104669255D01*
X109157400Y-105038745D01*
X109271474Y-105612234D01*
X109596330Y-106098415D01*
X109634621Y-106124000D01*
X109596330Y-106149585D01*
X109271474Y-106635766D01*
X109157400Y-107209255D01*
X109157400Y-107578745D01*
X109271474Y-108152234D01*
X109596330Y-108638415D01*
X110082511Y-108963271D01*
X110656000Y-109077345D01*
X111229489Y-108963271D01*
X111715670Y-108638415D01*
X111926000Y-108323634D01*
X112136330Y-108638415D01*
X112622511Y-108963271D01*
X113196000Y-109077345D01*
X113769489Y-108963271D01*
X114255670Y-108638415D01*
X114265243Y-108624087D01*
X114269238Y-108645317D01*
X114408310Y-108861441D01*
X114620510Y-109006431D01*
X114872400Y-109057440D01*
X116599600Y-109057440D01*
X116834917Y-109013162D01*
X117051041Y-108874090D01*
X117196031Y-108661890D01*
X117247040Y-108410000D01*
X117247040Y-106378000D01*
X117202762Y-106142683D01*
X117192607Y-106126901D01*
X117196031Y-106121890D01*
X117247040Y-105870000D01*
X117247040Y-104875167D01*
X120844838Y-104875167D01*
X120986883Y-105218943D01*
X121249673Y-105482192D01*
X121593201Y-105624838D01*
X121965167Y-105625162D01*
X122308943Y-105483117D01*
X122572192Y-105220327D01*
X122714838Y-104876799D01*
X122715162Y-104504833D01*
X122573117Y-104161057D01*
X122310327Y-103897808D01*
X121966799Y-103755162D01*
X121594833Y-103754838D01*
X121251057Y-103896883D01*
X120987808Y-104159673D01*
X120845162Y-104503201D01*
X120844838Y-104875167D01*
X117247040Y-104875167D01*
X117247040Y-103838000D01*
X117202762Y-103602683D01*
X117192607Y-103586901D01*
X117196031Y-103581890D01*
X117247040Y-103330000D01*
X117247040Y-101298000D01*
X117202762Y-101062683D01*
X117192607Y-101046901D01*
X117196031Y-101041890D01*
X117247040Y-100790000D01*
X117247040Y-98758000D01*
X117202762Y-98522683D01*
X117192607Y-98506901D01*
X117196031Y-98501890D01*
X117247040Y-98250000D01*
X117247040Y-96218000D01*
X117202762Y-95982683D01*
X117192607Y-95966901D01*
X117196031Y-95961890D01*
X117247040Y-95710000D01*
X117247040Y-95255167D01*
X120724838Y-95255167D01*
X120866883Y-95598943D01*
X121129673Y-95862192D01*
X121473201Y-96004838D01*
X121845167Y-96005162D01*
X122188943Y-95863117D01*
X122452192Y-95600327D01*
X122594838Y-95256799D01*
X122595162Y-94884833D01*
X122453117Y-94541057D01*
X122190327Y-94277808D01*
X121846799Y-94135162D01*
X121474833Y-94134838D01*
X121131057Y-94276883D01*
X120867808Y-94539673D01*
X120725162Y-94883201D01*
X120724838Y-95255167D01*
X117247040Y-95255167D01*
X117247040Y-93678000D01*
X117202762Y-93442683D01*
X117192607Y-93426901D01*
X117196031Y-93421890D01*
X117247040Y-93170000D01*
X117247040Y-91995167D01*
X120454838Y-91995167D01*
X120596883Y-92338943D01*
X120859673Y-92602192D01*
X121203201Y-92744838D01*
X121575167Y-92745162D01*
X121918943Y-92603117D01*
X122182192Y-92340327D01*
X122324838Y-91996799D01*
X122325162Y-91624833D01*
X122183117Y-91281057D01*
X121920327Y-91017808D01*
X121576799Y-90875162D01*
X121204833Y-90874838D01*
X120861057Y-91016883D01*
X120597808Y-91279673D01*
X120455162Y-91623201D01*
X120454838Y-91995167D01*
X117247040Y-91995167D01*
X117247040Y-91138000D01*
X117202762Y-90902683D01*
X117192607Y-90886901D01*
X117196031Y-90881890D01*
X117247040Y-90630000D01*
X117247040Y-89615167D01*
X120284838Y-89615167D01*
X120426883Y-89958943D01*
X120689673Y-90222192D01*
X121033201Y-90364838D01*
X121405167Y-90365162D01*
X121748943Y-90223117D01*
X122012192Y-89960327D01*
X122154838Y-89616799D01*
X122155162Y-89244833D01*
X122013117Y-88901057D01*
X121750327Y-88637808D01*
X121406799Y-88495162D01*
X121034833Y-88494838D01*
X120691057Y-88636883D01*
X120427808Y-88899673D01*
X120285162Y-89243201D01*
X120284838Y-89615167D01*
X117247040Y-89615167D01*
X117247040Y-88598000D01*
X117202762Y-88362683D01*
X117063690Y-88146559D01*
X116851490Y-88001569D01*
X116599600Y-87950560D01*
X114872400Y-87950560D01*
X114637083Y-87994838D01*
X114420959Y-88133910D01*
X114275969Y-88346110D01*
X114267600Y-88387439D01*
X114255670Y-88369585D01*
X113769489Y-88044729D01*
X113196000Y-87930655D01*
X112622511Y-88044729D01*
X112136330Y-88369585D01*
X111926000Y-88684366D01*
X111715670Y-88369585D01*
X111229489Y-88044729D01*
X110656000Y-87930655D01*
X110082511Y-88044729D01*
X109596330Y-88369585D01*
X109271474Y-88855766D01*
X109157400Y-89429255D01*
X107785000Y-89429255D01*
X107785000Y-84705255D01*
X109191400Y-84705255D01*
X109191400Y-85074745D01*
X109305474Y-85648234D01*
X109630330Y-86134415D01*
X110116511Y-86459271D01*
X110690000Y-86573345D01*
X111263489Y-86459271D01*
X111749670Y-86134415D01*
X111960000Y-85819634D01*
X112170330Y-86134415D01*
X112656511Y-86459271D01*
X113230000Y-86573345D01*
X113803489Y-86459271D01*
X114289670Y-86134415D01*
X114500000Y-85819634D01*
X114710330Y-86134415D01*
X115196511Y-86459271D01*
X115770000Y-86573345D01*
X116343489Y-86459271D01*
X116829670Y-86134415D01*
X116839243Y-86120087D01*
X116843238Y-86141317D01*
X116982310Y-86357441D01*
X117194510Y-86502431D01*
X117446400Y-86553440D01*
X119173600Y-86553440D01*
X119358998Y-86518555D01*
X119317808Y-86559673D01*
X119175162Y-86903201D01*
X119174838Y-87275167D01*
X119316883Y-87618943D01*
X119579673Y-87882192D01*
X119923201Y-88024838D01*
X120295167Y-88025162D01*
X120638943Y-87883117D01*
X120902192Y-87620327D01*
X121031995Y-87307728D01*
X121073201Y-87324838D01*
X121445167Y-87325162D01*
X121788943Y-87183117D01*
X122052192Y-86920327D01*
X122194838Y-86576799D01*
X122195162Y-86204833D01*
X122053117Y-85861057D01*
X121790327Y-85597808D01*
X121446799Y-85455162D01*
X121074833Y-85454838D01*
X120731057Y-85596883D01*
X120467808Y-85859673D01*
X120338005Y-86172272D01*
X120296799Y-86155162D01*
X119924833Y-86154838D01*
X119712041Y-86242762D01*
X119770031Y-86157890D01*
X119821040Y-85906000D01*
X119821040Y-85105167D01*
X125724838Y-85105167D01*
X125866883Y-85448943D01*
X126129673Y-85712192D01*
X126473201Y-85854838D01*
X126845167Y-85855162D01*
X127188943Y-85713117D01*
X127452192Y-85450327D01*
X127594838Y-85106799D01*
X127595162Y-84734833D01*
X127453117Y-84391057D01*
X127190327Y-84127808D01*
X126846799Y-83985162D01*
X126474833Y-83984838D01*
X126131057Y-84126883D01*
X125867808Y-84389673D01*
X125725162Y-84733201D01*
X125724838Y-85105167D01*
X119821040Y-85105167D01*
X119821040Y-83874000D01*
X119776762Y-83638683D01*
X119637690Y-83422559D01*
X119425490Y-83277569D01*
X119173600Y-83226560D01*
X117446400Y-83226560D01*
X117211083Y-83270838D01*
X116994959Y-83409910D01*
X116849969Y-83622110D01*
X116841600Y-83663439D01*
X116829670Y-83645585D01*
X116343489Y-83320729D01*
X115770000Y-83206655D01*
X115196511Y-83320729D01*
X114710330Y-83645585D01*
X114500000Y-83960366D01*
X114289670Y-83645585D01*
X113803489Y-83320729D01*
X113230000Y-83206655D01*
X112656511Y-83320729D01*
X112170330Y-83645585D01*
X111960000Y-83960366D01*
X111749670Y-83645585D01*
X111263489Y-83320729D01*
X110690000Y-83206655D01*
X110116511Y-83320729D01*
X109630330Y-83645585D01*
X109305474Y-84131766D01*
X109191400Y-84705255D01*
X107785000Y-84705255D01*
X107785000Y-80422815D01*
X108964630Y-80422815D01*
X109288980Y-81207800D01*
X109889041Y-81808909D01*
X110673459Y-82134628D01*
X111522815Y-82135370D01*
X112307800Y-81811020D01*
X112908909Y-81210959D01*
X113234628Y-80426541D01*
X113234651Y-80400000D01*
X115852560Y-80400000D01*
X115852560Y-81600000D01*
X115896838Y-81835317D01*
X116035910Y-82051441D01*
X116248110Y-82196431D01*
X116500000Y-82247440D01*
X117700000Y-82247440D01*
X117935317Y-82203162D01*
X118151441Y-82064090D01*
X118259431Y-81906042D01*
X118399515Y-82046371D01*
X118853266Y-82234785D01*
X119344579Y-82235214D01*
X119798657Y-82047592D01*
X120100221Y-81746554D01*
X120399515Y-82046371D01*
X120853266Y-82234785D01*
X121344579Y-82235214D01*
X121798657Y-82047592D01*
X122100221Y-81746554D01*
X122399515Y-82046371D01*
X122853266Y-82234785D01*
X123344579Y-82235214D01*
X123798657Y-82047592D01*
X124100221Y-81746554D01*
X124399515Y-82046371D01*
X124853266Y-82234785D01*
X125207863Y-82235095D01*
X125316883Y-82498943D01*
X125579673Y-82762192D01*
X125923201Y-82904838D01*
X126295167Y-82905162D01*
X126638943Y-82763117D01*
X126902192Y-82500327D01*
X127012398Y-82234924D01*
X127242008Y-82235124D01*
X127346883Y-82488943D01*
X127609673Y-82752192D01*
X127953201Y-82894838D01*
X128325167Y-82895162D01*
X128668943Y-82753117D01*
X128932192Y-82490327D01*
X129038236Y-82234947D01*
X129344579Y-82235214D01*
X129798657Y-82047592D01*
X130100221Y-81746554D01*
X130399515Y-82046371D01*
X130853266Y-82234785D01*
X131344579Y-82235214D01*
X131798657Y-82047592D01*
X132100221Y-81746554D01*
X132399515Y-82046371D01*
X132853266Y-82234785D01*
X133344579Y-82235214D01*
X133798657Y-82047592D01*
X134100221Y-81746554D01*
X134399515Y-82046371D01*
X134853266Y-82234785D01*
X135344579Y-82235214D01*
X135798657Y-82047592D01*
X136100221Y-81746554D01*
X136399515Y-82046371D01*
X136853266Y-82234785D01*
X137344579Y-82235214D01*
X137798657Y-82047592D01*
X138100221Y-81746554D01*
X138399515Y-82046371D01*
X138853266Y-82234785D01*
X138981260Y-82234897D01*
X138611777Y-82481777D01*
X137891777Y-83201777D01*
X137644006Y-83572593D01*
X137557000Y-84010000D01*
X137557000Y-85466554D01*
X137366554Y-85657000D01*
X132170000Y-85657000D01*
X131818088Y-85727000D01*
X128250000Y-85727000D01*
X127812593Y-85814006D01*
X127441777Y-86061777D01*
X126871777Y-86631777D01*
X126624006Y-87002593D01*
X126537000Y-87440000D01*
X126537000Y-91054545D01*
X126500327Y-91017808D01*
X126156799Y-90875162D01*
X125784833Y-90874838D01*
X125441057Y-91016883D01*
X125177808Y-91279673D01*
X125035162Y-91623201D01*
X125034838Y-91995167D01*
X125176883Y-92338943D01*
X125439673Y-92602192D01*
X125783201Y-92744838D01*
X126155167Y-92745162D01*
X126498943Y-92603117D01*
X126537000Y-92565126D01*
X126537000Y-99447360D01*
X126266799Y-99335162D01*
X125894833Y-99334838D01*
X125551057Y-99476883D01*
X125287808Y-99739673D01*
X125145162Y-100083201D01*
X125144838Y-100455167D01*
X125286883Y-100798943D01*
X125549673Y-101062192D01*
X125893201Y-101204838D01*
X126265167Y-101205162D01*
X126537000Y-101092843D01*
X126537000Y-103770000D01*
X126553241Y-103851646D01*
X126296799Y-103745162D01*
X125924833Y-103744838D01*
X125581057Y-103886883D01*
X125317808Y-104149673D01*
X125175162Y-104493201D01*
X125174838Y-104865167D01*
X125316883Y-105208943D01*
X125579673Y-105472192D01*
X125923201Y-105614838D01*
X126295167Y-105615162D01*
X126638943Y-105473117D01*
X126902192Y-105210327D01*
X127044838Y-104866799D01*
X127044939Y-104751385D01*
X127791777Y-105498223D01*
X128162593Y-105745994D01*
X128600000Y-105833000D01*
X130410000Y-105833000D01*
X130847407Y-105745994D01*
X131218223Y-105498223D01*
X131465994Y-105127407D01*
X131486330Y-105025167D01*
X135514838Y-105025167D01*
X135656883Y-105368943D01*
X135919673Y-105632192D01*
X136263201Y-105774838D01*
X136635167Y-105775162D01*
X136978943Y-105633117D01*
X137242192Y-105370327D01*
X137384838Y-105026799D01*
X137385162Y-104654833D01*
X137243117Y-104311057D01*
X136980327Y-104047808D01*
X136636799Y-103905162D01*
X136264833Y-103904838D01*
X135921057Y-104046883D01*
X135657808Y-104309673D01*
X135515162Y-104653201D01*
X135514838Y-105025167D01*
X131486330Y-105025167D01*
X131553000Y-104690000D01*
X131465994Y-104252593D01*
X131218223Y-103881777D01*
X130847407Y-103634006D01*
X130410000Y-103547000D01*
X129073446Y-103547000D01*
X128823000Y-103296554D01*
X128823000Y-101413000D01*
X130420000Y-101413000D01*
X130857407Y-101325994D01*
X131228223Y-101078223D01*
X131444081Y-100755167D01*
X136454838Y-100755167D01*
X136596883Y-101098943D01*
X136859673Y-101362192D01*
X137203201Y-101504838D01*
X137575167Y-101505162D01*
X137918943Y-101363117D01*
X138182192Y-101100327D01*
X138324838Y-100756799D01*
X138325162Y-100384833D01*
X138183117Y-100041057D01*
X137920327Y-99777808D01*
X137576799Y-99635162D01*
X137204833Y-99634838D01*
X136861057Y-99776883D01*
X136597808Y-100039673D01*
X136455162Y-100383201D01*
X136454838Y-100755167D01*
X131444081Y-100755167D01*
X131475994Y-100707407D01*
X131563000Y-100270000D01*
X131475994Y-99832593D01*
X131228223Y-99461777D01*
X130857407Y-99214006D01*
X130420000Y-99127000D01*
X128823446Y-99127000D01*
X128823000Y-99126554D01*
X128823000Y-99065167D01*
X135324838Y-99065167D01*
X135466883Y-99408943D01*
X135729673Y-99672192D01*
X136073201Y-99814838D01*
X136445167Y-99815162D01*
X136788943Y-99673117D01*
X137052192Y-99410327D01*
X137194838Y-99066799D01*
X137195162Y-98694833D01*
X137053117Y-98351057D01*
X136790327Y-98087808D01*
X136446799Y-97945162D01*
X136074833Y-97944838D01*
X135731057Y-98086883D01*
X135467808Y-98349673D01*
X135325162Y-98693201D01*
X135324838Y-99065167D01*
X128823000Y-99065167D01*
X128823000Y-95255167D01*
X129444838Y-95255167D01*
X129586883Y-95598943D01*
X129849673Y-95862192D01*
X130193201Y-96004838D01*
X130565167Y-96005162D01*
X130908943Y-95863117D01*
X131172192Y-95600327D01*
X131314838Y-95256799D01*
X131315162Y-94884833D01*
X131173117Y-94541057D01*
X130910327Y-94277808D01*
X130566799Y-94135162D01*
X130194833Y-94134838D01*
X129851057Y-94276883D01*
X129587808Y-94539673D01*
X129445162Y-94883201D01*
X129444838Y-95255167D01*
X128823000Y-95255167D01*
X128823000Y-88013000D01*
X130027000Y-88013000D01*
X130027000Y-91575921D01*
X129831057Y-91656883D01*
X129567808Y-91919673D01*
X129425162Y-92263201D01*
X129424838Y-92635167D01*
X129566883Y-92978943D01*
X129829673Y-93242192D01*
X130173201Y-93384838D01*
X130545167Y-93385162D01*
X130888943Y-93243117D01*
X131152192Y-92980327D01*
X131164032Y-92951813D01*
X131170000Y-92953000D01*
X131607407Y-92865994D01*
X131978223Y-92618223D01*
X132225994Y-92247407D01*
X132313000Y-91810000D01*
X132313000Y-88273446D01*
X132643446Y-87943000D01*
X137840000Y-87943000D01*
X138277407Y-87855994D01*
X138620381Y-87626827D01*
X139437000Y-88443446D01*
X139437000Y-97797262D01*
X139393117Y-97691057D01*
X139130327Y-97427808D01*
X138786799Y-97285162D01*
X138414833Y-97284838D01*
X138071057Y-97426883D01*
X137807808Y-97689673D01*
X137665162Y-98033201D01*
X137664838Y-98405167D01*
X137806883Y-98748943D01*
X138069673Y-99012192D01*
X138413201Y-99154838D01*
X138433370Y-99154856D01*
X138355162Y-99343201D01*
X138354838Y-99715167D01*
X138496883Y-100058943D01*
X138759673Y-100322192D01*
X139103201Y-100464838D01*
X139437000Y-100465129D01*
X139437000Y-104130000D01*
X139524006Y-104567407D01*
X139771777Y-104938223D01*
X140751777Y-105918223D01*
X141122593Y-106165994D01*
X141560000Y-106253000D01*
X141997407Y-106165994D01*
X142297966Y-105965167D01*
X146794838Y-105965167D01*
X146936883Y-106308943D01*
X147199673Y-106572192D01*
X147543201Y-106714838D01*
X147896272Y-106715146D01*
X147771057Y-106766883D01*
X147507808Y-107029673D01*
X147365162Y-107373201D01*
X147364838Y-107745167D01*
X147506883Y-108088943D01*
X147769673Y-108352192D01*
X148113201Y-108494838D01*
X148485167Y-108495162D01*
X148828943Y-108353117D01*
X149092192Y-108090327D01*
X149234838Y-107746799D01*
X149235162Y-107374833D01*
X149093117Y-107031057D01*
X148830327Y-106767808D01*
X148486799Y-106625162D01*
X148133728Y-106624854D01*
X148258943Y-106573117D01*
X148522192Y-106310327D01*
X148664838Y-105966799D01*
X148665162Y-105594833D01*
X148523117Y-105251057D01*
X148260327Y-104987808D01*
X147916799Y-104845162D01*
X147544833Y-104844838D01*
X147201057Y-104986883D01*
X146937808Y-105249673D01*
X146795162Y-105593201D01*
X146794838Y-105965167D01*
X142297966Y-105965167D01*
X142368223Y-105918223D01*
X142615994Y-105547407D01*
X142703000Y-105110000D01*
X142615994Y-104672593D01*
X142368223Y-104301777D01*
X141851613Y-103785167D01*
X144434838Y-103785167D01*
X144576883Y-104128943D01*
X144839673Y-104392192D01*
X145183201Y-104534838D01*
X145555167Y-104535162D01*
X145898943Y-104393117D01*
X146162192Y-104130327D01*
X146288906Y-103825167D01*
X148604838Y-103825167D01*
X148746883Y-104168943D01*
X149009673Y-104432192D01*
X149353201Y-104574838D01*
X149725167Y-104575162D01*
X150068943Y-104433117D01*
X150332192Y-104170327D01*
X150474838Y-103826799D01*
X150475162Y-103454833D01*
X150333117Y-103111057D01*
X150070327Y-102847808D01*
X149726799Y-102705162D01*
X149354833Y-102704838D01*
X149011057Y-102846883D01*
X148747808Y-103109673D01*
X148605162Y-103453201D01*
X148604838Y-103825167D01*
X146288906Y-103825167D01*
X146304838Y-103786799D01*
X146305162Y-103414833D01*
X146163117Y-103071057D01*
X145900327Y-102807808D01*
X145556799Y-102665162D01*
X145184833Y-102664838D01*
X144841057Y-102806883D01*
X144577808Y-103069673D01*
X144435162Y-103413201D01*
X144434838Y-103785167D01*
X141851613Y-103785167D01*
X141723000Y-103656554D01*
X141723000Y-101795167D01*
X144404838Y-101795167D01*
X144546883Y-102138943D01*
X144809673Y-102402192D01*
X145153201Y-102544838D01*
X145525167Y-102545162D01*
X145868943Y-102403117D01*
X146132192Y-102140327D01*
X146274838Y-101796799D01*
X146275162Y-101424833D01*
X146133117Y-101081057D01*
X145870327Y-100817808D01*
X145526799Y-100675162D01*
X145154833Y-100674838D01*
X144811057Y-100816883D01*
X144547808Y-101079673D01*
X144405162Y-101423201D01*
X144404838Y-101795167D01*
X141723000Y-101795167D01*
X141723000Y-100305167D01*
X142594838Y-100305167D01*
X142736883Y-100648943D01*
X142999673Y-100912192D01*
X143343201Y-101054838D01*
X143715167Y-101055162D01*
X144058943Y-100913117D01*
X144322192Y-100650327D01*
X144365858Y-100545167D01*
X163314838Y-100545167D01*
X163456883Y-100888943D01*
X163719673Y-101152192D01*
X164063201Y-101294838D01*
X164435167Y-101295162D01*
X164778943Y-101153117D01*
X165042192Y-100890327D01*
X165184838Y-100546799D01*
X165185162Y-100174833D01*
X165043117Y-99831057D01*
X164780327Y-99567808D01*
X164436799Y-99425162D01*
X164064833Y-99424838D01*
X163721057Y-99566883D01*
X163457808Y-99829673D01*
X163315162Y-100173201D01*
X163314838Y-100545167D01*
X144365858Y-100545167D01*
X144464838Y-100306799D01*
X144465162Y-99934833D01*
X144323117Y-99591057D01*
X144177482Y-99445167D01*
X148034838Y-99445167D01*
X148176883Y-99788943D01*
X148439673Y-100052192D01*
X148783201Y-100194838D01*
X149155167Y-100195162D01*
X149498943Y-100053117D01*
X149762192Y-99790327D01*
X149776791Y-99755167D01*
X159494838Y-99755167D01*
X159636883Y-100098943D01*
X159899673Y-100362192D01*
X160243201Y-100504838D01*
X160615167Y-100505162D01*
X160958943Y-100363117D01*
X161222192Y-100100327D01*
X161364838Y-99756799D01*
X161365162Y-99384833D01*
X161223117Y-99041057D01*
X160960327Y-98777808D01*
X160616799Y-98635162D01*
X160244833Y-98634838D01*
X159901057Y-98776883D01*
X159637808Y-99039673D01*
X159495162Y-99383201D01*
X159494838Y-99755167D01*
X149776791Y-99755167D01*
X149904838Y-99446799D01*
X149905162Y-99074833D01*
X149781343Y-98775167D01*
X154684838Y-98775167D01*
X154826883Y-99118943D01*
X155089673Y-99382192D01*
X155433201Y-99524838D01*
X155805167Y-99525162D01*
X156148943Y-99383117D01*
X156412192Y-99120327D01*
X156554838Y-98776799D01*
X156555162Y-98404833D01*
X156413117Y-98061057D01*
X156150327Y-97797808D01*
X155806799Y-97655162D01*
X155434833Y-97654838D01*
X155091057Y-97796883D01*
X154827808Y-98059673D01*
X154685162Y-98403201D01*
X154684838Y-98775167D01*
X149781343Y-98775167D01*
X149763117Y-98731057D01*
X149500327Y-98467808D01*
X149156799Y-98325162D01*
X148784833Y-98324838D01*
X148441057Y-98466883D01*
X148177808Y-98729673D01*
X148035162Y-99073201D01*
X148034838Y-99445167D01*
X144177482Y-99445167D01*
X144060327Y-99327808D01*
X143716799Y-99185162D01*
X143344833Y-99184838D01*
X143001057Y-99326883D01*
X142737808Y-99589673D01*
X142595162Y-99933201D01*
X142594838Y-100305167D01*
X141723000Y-100305167D01*
X141723000Y-97515167D01*
X158134838Y-97515167D01*
X158276883Y-97858943D01*
X158539673Y-98122192D01*
X158883201Y-98264838D01*
X159255167Y-98265162D01*
X159598943Y-98123117D01*
X159862192Y-97860327D01*
X160004838Y-97516799D01*
X160005162Y-97144833D01*
X159863117Y-96801057D01*
X159600327Y-96537808D01*
X159471168Y-96484176D01*
X159618943Y-96423117D01*
X159882192Y-96160327D01*
X160024838Y-95816799D01*
X160025162Y-95444833D01*
X159883117Y-95101057D01*
X159620327Y-94837808D01*
X159505335Y-94790059D01*
X159618943Y-94743117D01*
X159882192Y-94480327D01*
X160024838Y-94136799D01*
X160025162Y-93764833D01*
X159883117Y-93421057D01*
X159620327Y-93157808D01*
X159276799Y-93015162D01*
X158904833Y-93014838D01*
X158561057Y-93156883D01*
X158297808Y-93419673D01*
X158155162Y-93763201D01*
X158154838Y-94135167D01*
X158296883Y-94478943D01*
X158559673Y-94742192D01*
X158674665Y-94789941D01*
X158561057Y-94836883D01*
X158297808Y-95099673D01*
X158155162Y-95443201D01*
X158154838Y-95815167D01*
X158296883Y-96158943D01*
X158559673Y-96422192D01*
X158688832Y-96475824D01*
X158541057Y-96536883D01*
X158277808Y-96799673D01*
X158135162Y-97143201D01*
X158134838Y-97515167D01*
X141723000Y-97515167D01*
X141723000Y-87970000D01*
X141635994Y-87532593D01*
X141388223Y-87161777D01*
X139843000Y-85616554D01*
X139843000Y-84483446D01*
X139893446Y-84433000D01*
X146297000Y-84433000D01*
X146297000Y-92310000D01*
X146384006Y-92747407D01*
X146631777Y-93118223D01*
X147321777Y-93808223D01*
X147692593Y-94055994D01*
X148130000Y-94143000D01*
X148740000Y-94143000D01*
X149177407Y-94055994D01*
X149548223Y-93808223D01*
X149795994Y-93437407D01*
X149883000Y-93000000D01*
X149795994Y-92562593D01*
X149548223Y-92191777D01*
X149373704Y-92075167D01*
X151114838Y-92075167D01*
X151256883Y-92418943D01*
X151519673Y-92682192D01*
X151863201Y-92824838D01*
X152235167Y-92825162D01*
X152578943Y-92683117D01*
X152842192Y-92420327D01*
X152984838Y-92076799D01*
X152985162Y-91704833D01*
X152843117Y-91361057D01*
X152580327Y-91097808D01*
X152236799Y-90955162D01*
X151864833Y-90954838D01*
X151521057Y-91096883D01*
X151257808Y-91359673D01*
X151115162Y-91703201D01*
X151114838Y-92075167D01*
X149373704Y-92075167D01*
X149177407Y-91944006D01*
X148740000Y-91857000D01*
X148603446Y-91857000D01*
X148583000Y-91836554D01*
X148583000Y-90750012D01*
X148763201Y-90824838D01*
X149135167Y-90825162D01*
X149478943Y-90683117D01*
X149742192Y-90420327D01*
X149884838Y-90076799D01*
X149885162Y-89704833D01*
X149743117Y-89361057D01*
X149480327Y-89097808D01*
X149136799Y-88955162D01*
X148764833Y-88954838D01*
X148583000Y-89029970D01*
X148583000Y-88803000D01*
X148590000Y-88803000D01*
X149027407Y-88715994D01*
X149398223Y-88468223D01*
X149645994Y-88097407D01*
X149733000Y-87660000D01*
X149645994Y-87222593D01*
X149398223Y-86851777D01*
X149268602Y-86765167D01*
X150954838Y-86765167D01*
X151096883Y-87108943D01*
X151359673Y-87372192D01*
X151703201Y-87514838D01*
X152075167Y-87515162D01*
X152418943Y-87373117D01*
X152682192Y-87110327D01*
X152824838Y-86766799D01*
X152825162Y-86394833D01*
X152683117Y-86051057D01*
X152647290Y-86015167D01*
X154914838Y-86015167D01*
X155056883Y-86358943D01*
X155319673Y-86622192D01*
X155663201Y-86764838D01*
X156035167Y-86765162D01*
X156378943Y-86623117D01*
X156642192Y-86360327D01*
X156784838Y-86016799D01*
X156785162Y-85644833D01*
X156643117Y-85301057D01*
X156380327Y-85037808D01*
X156036799Y-84895162D01*
X155664833Y-84894838D01*
X155321057Y-85036883D01*
X155057808Y-85299673D01*
X154915162Y-85643201D01*
X154914838Y-86015167D01*
X152647290Y-86015167D01*
X152420327Y-85787808D01*
X152076799Y-85645162D01*
X151704833Y-85644838D01*
X151361057Y-85786883D01*
X151097808Y-86049673D01*
X150955162Y-86393201D01*
X150954838Y-86765167D01*
X149268602Y-86765167D01*
X149027407Y-86604006D01*
X148590000Y-86517000D01*
X148583000Y-86517000D01*
X148583000Y-85493993D01*
X148633201Y-85514838D01*
X149005167Y-85515162D01*
X149348943Y-85373117D01*
X149612192Y-85110327D01*
X149754838Y-84766799D01*
X149755162Y-84394833D01*
X149651129Y-84143054D01*
X149718223Y-84098223D01*
X151747869Y-82068577D01*
X151798657Y-82047592D01*
X151983837Y-81862735D01*
X152416870Y-81862735D01*
X152466383Y-82088164D01*
X152931036Y-82247807D01*
X153421413Y-82217482D01*
X153733617Y-82088164D01*
X153783130Y-81862735D01*
X153100000Y-81179605D01*
X152416870Y-81862735D01*
X151983837Y-81862735D01*
X152146371Y-81700485D01*
X152160572Y-81666285D01*
X152237265Y-81683130D01*
X152920395Y-81000000D01*
X152237265Y-80316870D01*
X152160935Y-80333635D01*
X152147592Y-80301343D01*
X151846554Y-79999779D01*
X152100221Y-79746554D01*
X152399515Y-80046371D01*
X152433715Y-80060572D01*
X152416870Y-80137265D01*
X153100000Y-80820395D01*
X153783130Y-80137265D01*
X153766365Y-80060935D01*
X153798657Y-80047592D01*
X154100221Y-79746554D01*
X154353446Y-80000221D01*
X154053629Y-80299515D01*
X154039428Y-80333715D01*
X153962735Y-80316870D01*
X153279605Y-81000000D01*
X153962735Y-81683130D01*
X154039065Y-81666365D01*
X154052408Y-81698657D01*
X154399515Y-82046371D01*
X154853266Y-82234785D01*
X155344579Y-82235214D01*
X155798657Y-82047592D01*
X156146371Y-81700485D01*
X156334785Y-81246734D01*
X156334838Y-81185167D01*
X162564838Y-81185167D01*
X162706883Y-81528943D01*
X162969673Y-81792192D01*
X163313201Y-81934838D01*
X163685167Y-81935162D01*
X164028943Y-81793117D01*
X164292192Y-81530327D01*
X164434838Y-81186799D01*
X164434915Y-81097305D01*
X170398674Y-81097305D01*
X170685043Y-81790372D01*
X171214839Y-82321093D01*
X171907405Y-82608672D01*
X172657305Y-82609326D01*
X173350372Y-82322957D01*
X173881093Y-81793161D01*
X174168672Y-81100595D01*
X174169326Y-80350695D01*
X173882957Y-79657628D01*
X173353161Y-79126907D01*
X172660595Y-78839328D01*
X171910695Y-78838674D01*
X171217628Y-79125043D01*
X170686907Y-79654839D01*
X170399328Y-80347405D01*
X170398674Y-81097305D01*
X164434915Y-81097305D01*
X164435162Y-80814833D01*
X164293117Y-80471057D01*
X164030327Y-80207808D01*
X163686799Y-80065162D01*
X163314833Y-80064838D01*
X162971057Y-80206883D01*
X162707808Y-80469673D01*
X162565162Y-80813201D01*
X162564838Y-81185167D01*
X156334838Y-81185167D01*
X156335214Y-80755421D01*
X156147592Y-80301343D01*
X155846554Y-79999779D01*
X156146371Y-79700485D01*
X156334785Y-79246734D01*
X156335214Y-78755421D01*
X156147592Y-78301343D01*
X155800485Y-77953629D01*
X155346734Y-77765215D01*
X154855421Y-77764786D01*
X154401343Y-77952408D01*
X154099779Y-78253446D01*
X153800485Y-77953629D01*
X153346734Y-77765215D01*
X152855421Y-77764786D01*
X152401343Y-77952408D01*
X152099779Y-78253446D01*
X151800485Y-77953629D01*
X151346734Y-77765215D01*
X150855421Y-77764786D01*
X150401343Y-77952408D01*
X150099779Y-78253446D01*
X149800485Y-77953629D01*
X149346734Y-77765215D01*
X148855421Y-77764786D01*
X148401343Y-77952408D01*
X148099779Y-78253446D01*
X147800485Y-77953629D01*
X147346734Y-77765215D01*
X146855421Y-77764786D01*
X146401343Y-77952408D01*
X146099779Y-78253446D01*
X145800485Y-77953629D01*
X145346734Y-77765215D01*
X144855421Y-77764786D01*
X144401343Y-77952408D01*
X144099779Y-78253446D01*
X143800485Y-77953629D01*
X143346734Y-77765215D01*
X142855421Y-77764786D01*
X142401343Y-77952408D01*
X142099779Y-78253446D01*
X141800485Y-77953629D01*
X141346734Y-77765215D01*
X140855421Y-77764786D01*
X140401343Y-77952408D01*
X140099779Y-78253446D01*
X139800485Y-77953629D01*
X139346734Y-77765215D01*
X138855421Y-77764786D01*
X138401343Y-77952408D01*
X138099779Y-78253446D01*
X137800485Y-77953629D01*
X137346734Y-77765215D01*
X136855421Y-77764786D01*
X136401343Y-77952408D01*
X136099779Y-78253446D01*
X135800485Y-77953629D01*
X135346734Y-77765215D01*
X134855421Y-77764786D01*
X134401343Y-77952408D01*
X134099779Y-78253446D01*
X133800485Y-77953629D01*
X133346734Y-77765215D01*
X132855421Y-77764786D01*
X132401343Y-77952408D01*
X132099779Y-78253446D01*
X131800485Y-77953629D01*
X131346734Y-77765215D01*
X130855421Y-77764786D01*
X130401343Y-77952408D01*
X130099779Y-78253446D01*
X129800485Y-77953629D01*
X129346734Y-77765215D01*
X128855421Y-77764786D01*
X128401343Y-77952408D01*
X128099779Y-78253446D01*
X127800485Y-77953629D01*
X127346734Y-77765215D01*
X126855421Y-77764786D01*
X126401343Y-77952408D01*
X126099779Y-78253446D01*
X125800485Y-77953629D01*
X125346734Y-77765215D01*
X124855421Y-77764786D01*
X124401343Y-77952408D01*
X124099779Y-78253446D01*
X123800485Y-77953629D01*
X123346734Y-77765215D01*
X122855421Y-77764786D01*
X122401343Y-77952408D01*
X122099779Y-78253446D01*
X121800485Y-77953629D01*
X121346734Y-77765215D01*
X120855421Y-77764786D01*
X120401343Y-77952408D01*
X120099779Y-78253446D01*
X119800485Y-77953629D01*
X119346734Y-77765215D01*
X118855421Y-77764786D01*
X118401343Y-77952408D01*
X118099779Y-78253446D01*
X117800485Y-77953629D01*
X117346734Y-77765215D01*
X116855421Y-77764786D01*
X116401343Y-77952408D01*
X116053629Y-78299515D01*
X115865215Y-78753266D01*
X115864786Y-79244579D01*
X116052408Y-79698657D01*
X116195109Y-79841608D01*
X116048559Y-79935910D01*
X115903569Y-80148110D01*
X115852560Y-80400000D01*
X113234651Y-80400000D01*
X113235370Y-79577185D01*
X112911020Y-78792200D01*
X112310959Y-78191091D01*
X111526541Y-77865372D01*
X110677185Y-77864630D01*
X109892200Y-78188980D01*
X109291091Y-78789041D01*
X108965372Y-79573459D01*
X108964630Y-80422815D01*
X107785000Y-80422815D01*
X107785000Y-76685000D01*
X191414492Y-76685000D01*
X191414492Y-129315000D01*
X191414492Y-129315000D01*
G37*
X191414492Y-129315000D02*
X107785000Y-129315000D01*
X107785000Y-124920000D01*
X108845655Y-124920000D01*
X108959729Y-125493489D01*
X109284585Y-125979670D01*
X109599366Y-126190000D01*
X109284585Y-126400330D01*
X108959729Y-126886511D01*
X108845655Y-127460000D01*
X108959729Y-128033489D01*
X109284585Y-128519670D01*
X109770766Y-128844526D01*
X110344255Y-128958600D01*
X110713745Y-128958600D01*
X111287234Y-128844526D01*
X111773415Y-128519670D01*
X111799000Y-128481379D01*
X111824585Y-128519670D01*
X112310766Y-128844526D01*
X112884255Y-128958600D01*
X113253745Y-128958600D01*
X113827234Y-128844526D01*
X114313415Y-128519670D01*
X114339000Y-128481379D01*
X114364585Y-128519670D01*
X114850766Y-128844526D01*
X115424255Y-128958600D01*
X115793745Y-128958600D01*
X116367234Y-128844526D01*
X116853415Y-128519670D01*
X116879000Y-128481379D01*
X116904585Y-128519670D01*
X117390766Y-128844526D01*
X117964255Y-128958600D01*
X118333745Y-128958600D01*
X118907234Y-128844526D01*
X119393415Y-128519670D01*
X119419000Y-128481379D01*
X119444585Y-128519670D01*
X119930766Y-128844526D01*
X120504255Y-128958600D01*
X120873745Y-128958600D01*
X121447234Y-128844526D01*
X121933415Y-128519670D01*
X121959000Y-128481379D01*
X121984585Y-128519670D01*
X122470766Y-128844526D01*
X123044255Y-128958600D01*
X123413745Y-128958600D01*
X123987234Y-128844526D01*
X124473415Y-128519670D01*
X124499000Y-128481379D01*
X124524585Y-128519670D01*
X125010766Y-128844526D01*
X125584255Y-128958600D01*
X125953745Y-128958600D01*
X126527234Y-128844526D01*
X127013415Y-128519670D01*
X127039000Y-128481379D01*
X127064585Y-128519670D01*
X127550766Y-128844526D01*
X128124255Y-128958600D01*
X128493745Y-128958600D01*
X129067234Y-128844526D01*
X129553415Y-128519670D01*
X129878271Y-128033489D01*
X129992345Y-127460000D01*
X129878271Y-126886511D01*
X129553415Y-126400330D01*
X129238634Y-126190000D01*
X129553415Y-125979670D01*
X129878271Y-125493489D01*
X129992345Y-124920000D01*
X132848655Y-124920000D01*
X132962729Y-125493489D01*
X133287585Y-125979670D01*
X133602366Y-126190000D01*
X133287585Y-126400330D01*
X132962729Y-126886511D01*
X132848655Y-127460000D01*
X132962729Y-128033489D01*
X133287585Y-128519670D01*
X133773766Y-128844526D01*
X134347255Y-128958600D01*
X134716745Y-128958600D01*
X135290234Y-128844526D01*
X135461634Y-128730000D01*
X137069995Y-128730000D01*
X137070000Y-128730001D01*
X137556008Y-128633327D01*
X137968026Y-128358026D01*
X138248023Y-128078028D01*
X138248026Y-128078026D01*
X138523327Y-127666008D01*
X138564305Y-127460000D01*
X138620001Y-127180000D01*
X138620000Y-127179995D01*
X138620000Y-121286052D01*
X138666051Y-121240000D01*
X139413316Y-121240000D01*
X139396569Y-121264510D01*
X139345560Y-121516400D01*
X139345560Y-123243600D01*
X139389838Y-123478917D01*
X139528910Y-123695041D01*
X139741110Y-123840031D01*
X139782439Y-123848400D01*
X139764585Y-123860330D01*
X139439729Y-124346511D01*
X139325655Y-124920000D01*
X139439729Y-125493489D01*
X139764585Y-125979670D01*
X140079366Y-126190000D01*
X139764585Y-126400330D01*
X139439729Y-126886511D01*
X139325655Y-127460000D01*
X139439729Y-128033489D01*
X139764585Y-128519670D01*
X140250766Y-128844526D01*
X140824255Y-128958600D01*
X141193745Y-128958600D01*
X141767234Y-128844526D01*
X142253415Y-128519670D01*
X142279000Y-128481379D01*
X142304585Y-128519670D01*
X142790766Y-128844526D01*
X143364255Y-128958600D01*
X143733745Y-128958600D01*
X144307234Y-128844526D01*
X144793415Y-128519670D01*
X144819000Y-128481379D01*
X144844585Y-128519670D01*
X145330766Y-128844526D01*
X145904255Y-128958600D01*
X146273745Y-128958600D01*
X146847234Y-128844526D01*
X147333415Y-128519670D01*
X147359000Y-128481379D01*
X147384585Y-128519670D01*
X147870766Y-128844526D01*
X148444255Y-128958600D01*
X148813745Y-128958600D01*
X149387234Y-128844526D01*
X149873415Y-128519670D01*
X149899000Y-128481379D01*
X149924585Y-128519670D01*
X150410766Y-128844526D01*
X150984255Y-128958600D01*
X151353745Y-128958600D01*
X151927234Y-128844526D01*
X152413415Y-128519670D01*
X152439000Y-128481379D01*
X152464585Y-128519670D01*
X152950766Y-128844526D01*
X153524255Y-128958600D01*
X153893745Y-128958600D01*
X154467234Y-128844526D01*
X154953415Y-128519670D01*
X154979000Y-128481379D01*
X155004585Y-128519670D01*
X155490766Y-128844526D01*
X156064255Y-128958600D01*
X156433745Y-128958600D01*
X157007234Y-128844526D01*
X157493415Y-128519670D01*
X157519000Y-128481379D01*
X157544585Y-128519670D01*
X158030766Y-128844526D01*
X158604255Y-128958600D01*
X158973745Y-128958600D01*
X159547234Y-128844526D01*
X160033415Y-128519670D01*
X160358271Y-128033489D01*
X160472345Y-127460000D01*
X160358271Y-126886511D01*
X160033415Y-126400330D01*
X159718634Y-126190000D01*
X160033415Y-125979670D01*
X160358271Y-125493489D01*
X160472345Y-124920000D01*
X160358271Y-124346511D01*
X160033415Y-123860330D01*
X160019087Y-123850757D01*
X160040317Y-123846762D01*
X160256441Y-123707690D01*
X160401431Y-123495490D01*
X160452440Y-123243600D01*
X160452440Y-121516400D01*
X160408162Y-121281083D01*
X160381726Y-121240000D01*
X160840000Y-121240000D01*
X160840000Y-126909995D01*
X160839999Y-126910000D01*
X160936673Y-127396008D01*
X161211974Y-127808026D01*
X161761972Y-128358023D01*
X161761974Y-128358026D01*
X162173992Y-128633327D01*
X162660000Y-128730000D01*
X164082366Y-128730000D01*
X164253766Y-128844526D01*
X164827255Y-128958600D01*
X165196745Y-128958600D01*
X165770234Y-128844526D01*
X165941634Y-128730000D01*
X167109995Y-128730000D01*
X167110000Y-128730001D01*
X167596008Y-128633327D01*
X168008026Y-128358026D01*
X168598026Y-127768026D01*
X168873327Y-127356008D01*
X168970001Y-126870000D01*
X168970000Y-126869995D01*
X168970000Y-126770836D01*
X169520100Y-126770836D01*
X169520100Y-127376084D01*
X169606497Y-127810430D01*
X169852534Y-128178650D01*
X170220754Y-128424687D01*
X170655100Y-128511084D01*
X171089446Y-128424687D01*
X171457666Y-128178650D01*
X171703703Y-127810430D01*
X171790100Y-127376084D01*
X171790100Y-126770836D01*
X176520100Y-126770836D01*
X176520100Y-127376084D01*
X176606497Y-127810430D01*
X176852534Y-128178650D01*
X177220754Y-128424687D01*
X177655100Y-128511084D01*
X178089446Y-128424687D01*
X178457666Y-128178650D01*
X178703703Y-127810430D01*
X178790100Y-127376084D01*
X178790100Y-126770836D01*
X178703703Y-126336490D01*
X178457666Y-125968270D01*
X178089446Y-125722233D01*
X177655100Y-125635836D01*
X177220754Y-125722233D01*
X176852534Y-125968270D01*
X176606497Y-126336490D01*
X176520100Y-126770836D01*
X171790100Y-126770836D01*
X171703703Y-126336490D01*
X171457666Y-125968270D01*
X171089446Y-125722233D01*
X170655100Y-125635836D01*
X170220754Y-125722233D01*
X169852534Y-125968270D01*
X169606497Y-126336490D01*
X169520100Y-126770836D01*
X168970000Y-126770836D01*
X168970000Y-124373460D01*
X170370415Y-124373460D01*
X170454909Y-124798239D01*
X170695526Y-125158349D01*
X171055636Y-125398966D01*
X171480415Y-125483460D01*
X171829785Y-125483460D01*
X172254564Y-125398966D01*
X172614674Y-125158349D01*
X172855291Y-124798239D01*
X172939785Y-124373460D01*
X172855291Y-123948681D01*
X172614674Y-123588571D01*
X172254564Y-123347954D01*
X171829785Y-123263460D01*
X171480415Y-123263460D01*
X171055636Y-123347954D01*
X170695526Y-123588571D01*
X170454909Y-123948681D01*
X170370415Y-124373460D01*
X168970000Y-124373460D01*
X168970000Y-123145167D01*
X174514838Y-123145167D01*
X174656883Y-123488943D01*
X174919673Y-123752192D01*
X175263201Y-123894838D01*
X175490753Y-123895036D01*
X175454909Y-123948681D01*
X175370415Y-124373460D01*
X175454909Y-124798239D01*
X175695526Y-125158349D01*
X176055636Y-125398966D01*
X176480415Y-125483460D01*
X176829785Y-125483460D01*
X177254564Y-125398966D01*
X177614674Y-125158349D01*
X177855291Y-124798239D01*
X177939785Y-124373460D01*
X177855291Y-123948681D01*
X177614674Y-123588571D01*
X177254564Y-123347954D01*
X176829785Y-123263460D01*
X176480415Y-123263460D01*
X176323429Y-123294686D01*
X176384838Y-123146799D01*
X176385162Y-122774833D01*
X176243117Y-122431057D01*
X175980327Y-122167808D01*
X175636799Y-122025162D01*
X175264833Y-122024838D01*
X174921057Y-122166883D01*
X174657808Y-122429673D01*
X174515162Y-122773201D01*
X174514838Y-123145167D01*
X168970000Y-123145167D01*
X168970000Y-119595167D01*
X170574838Y-119595167D01*
X170716883Y-119938943D01*
X170979673Y-120202192D01*
X171323201Y-120344838D01*
X171695167Y-120345162D01*
X172038943Y-120203117D01*
X172302192Y-119940327D01*
X172444838Y-119596799D01*
X172444839Y-119595167D01*
X175204838Y-119595167D01*
X175346883Y-119938943D01*
X175609673Y-120202192D01*
X175953201Y-120344838D01*
X176325167Y-120345162D01*
X176668943Y-120203117D01*
X176932192Y-119940327D01*
X177074838Y-119596799D01*
X177075162Y-119224833D01*
X176933117Y-118881057D01*
X176827412Y-118775167D01*
X178994838Y-118775167D01*
X179136883Y-119118943D01*
X179399673Y-119382192D01*
X179743201Y-119524838D01*
X180115167Y-119525162D01*
X180458943Y-119383117D01*
X180722192Y-119120327D01*
X180864838Y-118776799D01*
X180865162Y-118404833D01*
X180723117Y-118061057D01*
X180460327Y-117797808D01*
X180116799Y-117655162D01*
X179744833Y-117654838D01*
X179401057Y-117796883D01*
X179137808Y-118059673D01*
X178995162Y-118403201D01*
X178994838Y-118775167D01*
X176827412Y-118775167D01*
X176670327Y-118617808D01*
X176326799Y-118475162D01*
X175954833Y-118474838D01*
X175611057Y-118616883D01*
X175347808Y-118879673D01*
X175205162Y-119223201D01*
X175204838Y-119595167D01*
X172444839Y-119595167D01*
X172445162Y-119224833D01*
X172303117Y-118881057D01*
X172040327Y-118617808D01*
X171696799Y-118475162D01*
X171324833Y-118474838D01*
X170981057Y-118616883D01*
X170717808Y-118879673D01*
X170575162Y-119223201D01*
X170574838Y-119595167D01*
X168970000Y-119595167D01*
X168970000Y-117250266D01*
X169076883Y-117508943D01*
X169339673Y-117772192D01*
X169683201Y-117914838D01*
X170055167Y-117915162D01*
X170398943Y-117773117D01*
X170662192Y-117510327D01*
X170804838Y-117166799D01*
X170805004Y-116975167D01*
X174094838Y-116975167D01*
X174236883Y-117318943D01*
X174499673Y-117582192D01*
X174843201Y-117724838D01*
X175215167Y-117725162D01*
X175553981Y-117585167D01*
X181244838Y-117585167D01*
X181386883Y-117928943D01*
X181649673Y-118192192D01*
X181993201Y-118334838D01*
X182365167Y-118335162D01*
X182708943Y-118193117D01*
X182972192Y-117930327D01*
X183114838Y-117586799D01*
X183115162Y-117214833D01*
X182973117Y-116871057D01*
X182710327Y-116607808D01*
X182605310Y-116564201D01*
X182728943Y-116513117D01*
X182992192Y-116250327D01*
X183134838Y-115906799D01*
X183135162Y-115534833D01*
X182993117Y-115191057D01*
X182730327Y-114927808D01*
X182386799Y-114785162D01*
X182014833Y-114784838D01*
X181671057Y-114926883D01*
X181407808Y-115189673D01*
X181265162Y-115533201D01*
X181264838Y-115905167D01*
X181406883Y-116248943D01*
X181669673Y-116512192D01*
X181774690Y-116555799D01*
X181651057Y-116606883D01*
X181387808Y-116869673D01*
X181245162Y-117213201D01*
X181244838Y-117585167D01*
X175553981Y-117585167D01*
X175558943Y-117583117D01*
X175822192Y-117320327D01*
X175964838Y-116976799D01*
X175965162Y-116604833D01*
X175823117Y-116261057D01*
X175560327Y-115997808D01*
X175313142Y-115895167D01*
X176604838Y-115895167D01*
X176746883Y-116238943D01*
X177009673Y-116502192D01*
X177353201Y-116644838D01*
X177725167Y-116645162D01*
X178068943Y-116503117D01*
X178332192Y-116240327D01*
X178474838Y-115896799D01*
X178475162Y-115524833D01*
X178333117Y-115181057D01*
X178247264Y-115095054D01*
X178362192Y-114980327D01*
X178504838Y-114636799D01*
X178505162Y-114264833D01*
X178363117Y-113921057D01*
X178100327Y-113657808D01*
X177756799Y-113515162D01*
X177384833Y-113514838D01*
X177041057Y-113656883D01*
X176777808Y-113919673D01*
X176635162Y-114263201D01*
X176634838Y-114635167D01*
X176776883Y-114978943D01*
X176862736Y-115064946D01*
X176747808Y-115179673D01*
X176605162Y-115523201D01*
X176604838Y-115895167D01*
X175313142Y-115895167D01*
X175216799Y-115855162D01*
X174844833Y-115854838D01*
X174501057Y-115996883D01*
X174237808Y-116259673D01*
X174095162Y-116603201D01*
X174094838Y-116975167D01*
X170805004Y-116975167D01*
X170805162Y-116794833D01*
X170663117Y-116451057D01*
X170400327Y-116187808D01*
X170056799Y-116045162D01*
X169684833Y-116044838D01*
X169341057Y-116186883D01*
X169077808Y-116449673D01*
X168970000Y-116709302D01*
X168970000Y-115350266D01*
X169076883Y-115608943D01*
X169339673Y-115872192D01*
X169683201Y-116014838D01*
X170055167Y-116015162D01*
X170398943Y-115873117D01*
X170662192Y-115610327D01*
X170804838Y-115266799D01*
X170805162Y-114894833D01*
X170663117Y-114551057D01*
X170400327Y-114287808D01*
X170056799Y-114145162D01*
X169684833Y-114144838D01*
X169341057Y-114286883D01*
X169077808Y-114549673D01*
X168970000Y-114809302D01*
X168970000Y-113575477D01*
X169016883Y-113688943D01*
X169279673Y-113952192D01*
X169623201Y-114094838D01*
X169995167Y-114095162D01*
X170237173Y-113995167D01*
X171394838Y-113995167D01*
X171536883Y-114338943D01*
X171799673Y-114602192D01*
X172143201Y-114744838D01*
X172515167Y-114745162D01*
X172858943Y-114603117D01*
X173122192Y-114340327D01*
X173264838Y-113996799D01*
X173265162Y-113624833D01*
X173123117Y-113281057D01*
X172860327Y-113017808D01*
X172516799Y-112875162D01*
X172144833Y-112874838D01*
X171801057Y-113016883D01*
X171537808Y-113279673D01*
X171395162Y-113623201D01*
X171394838Y-113995167D01*
X170237173Y-113995167D01*
X170338943Y-113953117D01*
X170602192Y-113690327D01*
X170744838Y-113346799D01*
X170745162Y-112974833D01*
X170603117Y-112631057D01*
X170340327Y-112367808D01*
X169996799Y-112225162D01*
X169624833Y-112224838D01*
X169281057Y-112366883D01*
X169017808Y-112629673D01*
X168970000Y-112744807D01*
X168970000Y-111922815D01*
X185964630Y-111922815D01*
X186288980Y-112707800D01*
X186889041Y-113308909D01*
X187673459Y-113634628D01*
X188522815Y-113635370D01*
X189307800Y-113311020D01*
X189908909Y-112710959D01*
X190234628Y-111926541D01*
X190235370Y-111077185D01*
X189911020Y-110292200D01*
X189310959Y-109691091D01*
X188526541Y-109365372D01*
X187677185Y-109364630D01*
X186892200Y-109688980D01*
X186291091Y-110289041D01*
X185965372Y-111073459D01*
X185964630Y-111922815D01*
X168970000Y-111922815D01*
X168970000Y-109895167D01*
X169254838Y-109895167D01*
X169396883Y-110238943D01*
X169659673Y-110502192D01*
X170003201Y-110644838D01*
X170375167Y-110645162D01*
X170718943Y-110503117D01*
X170982192Y-110240327D01*
X171124838Y-109896799D01*
X171125162Y-109524833D01*
X170983117Y-109181057D01*
X170720327Y-108917808D01*
X170376799Y-108775162D01*
X170004833Y-108774838D01*
X169661057Y-108916883D01*
X169397808Y-109179673D01*
X169255162Y-109523201D01*
X169254838Y-109895167D01*
X168970000Y-109895167D01*
X168970000Y-108085167D01*
X170944838Y-108085167D01*
X171086883Y-108428943D01*
X171349673Y-108692192D01*
X171693201Y-108834838D01*
X172065167Y-108835162D01*
X172408943Y-108693117D01*
X172672192Y-108430327D01*
X172814838Y-108086799D01*
X172815162Y-107714833D01*
X172673117Y-107371057D01*
X172410327Y-107107808D01*
X172066799Y-106965162D01*
X171694833Y-106964838D01*
X171351057Y-107106883D01*
X171087808Y-107369673D01*
X170945162Y-107713201D01*
X170944838Y-108085167D01*
X168970000Y-108085167D01*
X168970000Y-105636052D01*
X169598023Y-105008028D01*
X169598026Y-105008026D01*
X169873327Y-104596008D01*
X169885430Y-104535162D01*
X169963005Y-104145167D01*
X176784838Y-104145167D01*
X176917986Y-104467410D01*
X176795162Y-104763201D01*
X176794838Y-105135167D01*
X176936883Y-105478943D01*
X177199673Y-105742192D01*
X177543201Y-105884838D01*
X177915167Y-105885162D01*
X178258943Y-105743117D01*
X178522192Y-105480327D01*
X178664838Y-105136799D01*
X178665162Y-104764833D01*
X178532014Y-104442590D01*
X178654838Y-104146799D01*
X178655162Y-103774833D01*
X178513117Y-103431057D01*
X178250327Y-103167808D01*
X177906799Y-103025162D01*
X177534833Y-103024838D01*
X177191057Y-103166883D01*
X176927808Y-103429673D01*
X176785162Y-103773201D01*
X176784838Y-104145167D01*
X169963005Y-104145167D01*
X169970001Y-104110000D01*
X169970000Y-104109995D01*
X169970000Y-100285167D01*
X170174838Y-100285167D01*
X170316883Y-100628943D01*
X170579673Y-100892192D01*
X170923201Y-101034838D01*
X171295167Y-101035162D01*
X171638943Y-100893117D01*
X171902192Y-100630327D01*
X172044838Y-100286799D01*
X172045162Y-99914833D01*
X171903117Y-99571057D01*
X171640327Y-99307808D01*
X171296799Y-99165162D01*
X170924833Y-99164838D01*
X170581057Y-99306883D01*
X170317808Y-99569673D01*
X170175162Y-99913201D01*
X170174838Y-100285167D01*
X169970000Y-100285167D01*
X169970000Y-98504000D01*
X181788960Y-98504000D01*
X181788960Y-100536000D01*
X181833238Y-100771317D01*
X181843393Y-100787099D01*
X181839969Y-100792110D01*
X181788960Y-101044000D01*
X181788960Y-103076000D01*
X181833238Y-103311317D01*
X181843393Y-103327099D01*
X181839969Y-103332110D01*
X181788960Y-103584000D01*
X181788960Y-105616000D01*
X181833238Y-105851317D01*
X181843393Y-105867099D01*
X181839969Y-105872110D01*
X181788960Y-106124000D01*
X181788960Y-108156000D01*
X181833238Y-108391317D01*
X181972310Y-108607441D01*
X182184510Y-108752431D01*
X182436400Y-108803440D01*
X184163600Y-108803440D01*
X184398917Y-108759162D01*
X184615041Y-108620090D01*
X184760031Y-108407890D01*
X184768400Y-108366561D01*
X184780330Y-108384415D01*
X185266511Y-108709271D01*
X185840000Y-108823345D01*
X186413489Y-108709271D01*
X186899670Y-108384415D01*
X187110000Y-108069634D01*
X187320330Y-108384415D01*
X187806511Y-108709271D01*
X188380000Y-108823345D01*
X188953489Y-108709271D01*
X189439670Y-108384415D01*
X189764526Y-107898234D01*
X189878600Y-107324745D01*
X189878600Y-106955255D01*
X189764526Y-106381766D01*
X189439670Y-105895585D01*
X189401379Y-105870000D01*
X189439670Y-105844415D01*
X189764526Y-105358234D01*
X189878600Y-104784745D01*
X189878600Y-104415255D01*
X189764526Y-103841766D01*
X189439670Y-103355585D01*
X189401379Y-103330000D01*
X189439670Y-103304415D01*
X189764526Y-102818234D01*
X189878600Y-102244745D01*
X189878600Y-101875255D01*
X189764526Y-101301766D01*
X189439670Y-100815585D01*
X189401379Y-100790000D01*
X189439670Y-100764415D01*
X189764526Y-100278234D01*
X189878600Y-99704745D01*
X189878600Y-99335255D01*
X189764526Y-98761766D01*
X189439670Y-98275585D01*
X188953489Y-97950729D01*
X188380000Y-97836655D01*
X187806511Y-97950729D01*
X187320330Y-98275585D01*
X187110000Y-98590366D01*
X186899670Y-98275585D01*
X186413489Y-97950729D01*
X185840000Y-97836655D01*
X185266511Y-97950729D01*
X184780330Y-98275585D01*
X184770757Y-98289913D01*
X184766762Y-98268683D01*
X184627690Y-98052559D01*
X184415490Y-97907569D01*
X184163600Y-97856560D01*
X182436400Y-97856560D01*
X182201083Y-97900838D01*
X181984959Y-98039910D01*
X181839969Y-98252110D01*
X181788960Y-98504000D01*
X169970000Y-98504000D01*
X169970000Y-96095167D01*
X179824838Y-96095167D01*
X179966883Y-96438943D01*
X180229673Y-96702192D01*
X180573201Y-96844838D01*
X180945167Y-96845162D01*
X181288943Y-96703117D01*
X181552192Y-96440327D01*
X181694838Y-96096799D01*
X181695162Y-95724833D01*
X181553117Y-95381057D01*
X181290327Y-95117808D01*
X180946799Y-94975162D01*
X180574833Y-94974838D01*
X180231057Y-95116883D01*
X179967808Y-95379673D01*
X179825162Y-95723201D01*
X179824838Y-96095167D01*
X169970000Y-96095167D01*
X169970000Y-94115167D01*
X175634838Y-94115167D01*
X175776883Y-94458943D01*
X176039673Y-94722192D01*
X176383201Y-94864838D01*
X176755167Y-94865162D01*
X177098943Y-94723117D01*
X177362192Y-94460327D01*
X177504838Y-94116799D01*
X177505162Y-93744833D01*
X177363117Y-93401057D01*
X177100327Y-93137808D01*
X176756799Y-92995162D01*
X176384833Y-92994838D01*
X176041057Y-93136883D01*
X175777808Y-93399673D01*
X175635162Y-93743201D01*
X175634838Y-94115167D01*
X169970000Y-94115167D01*
X169970000Y-87935167D01*
X170184838Y-87935167D01*
X170326883Y-88278943D01*
X170589673Y-88542192D01*
X170933201Y-88684838D01*
X171305167Y-88685162D01*
X171648943Y-88543117D01*
X171912192Y-88280327D01*
X172054838Y-87936799D01*
X172055162Y-87564833D01*
X171913117Y-87221057D01*
X171650327Y-86957808D01*
X171306799Y-86815162D01*
X170934833Y-86814838D01*
X170591057Y-86956883D01*
X170327808Y-87219673D01*
X170185162Y-87563201D01*
X170184838Y-87935167D01*
X169970000Y-87935167D01*
X169970000Y-86506052D01*
X170296051Y-86180000D01*
X176559995Y-86180000D01*
X176560000Y-86180001D01*
X177046008Y-86083327D01*
X177458026Y-85808026D01*
X178182023Y-85084028D01*
X178182026Y-85084026D01*
X178457327Y-84672008D01*
X178504869Y-84433000D01*
X178554001Y-84186000D01*
X178554000Y-84185995D01*
X178554000Y-82119684D01*
X178881093Y-81793161D01*
X179168672Y-81100595D01*
X179169326Y-80350695D01*
X178882957Y-79657628D01*
X178699650Y-79474000D01*
X180386560Y-79474000D01*
X180386560Y-81974000D01*
X180430838Y-82209317D01*
X180569910Y-82425441D01*
X180782110Y-82570431D01*
X181034000Y-82621440D01*
X183534000Y-82621440D01*
X183769317Y-82577162D01*
X183985441Y-82438090D01*
X184130431Y-82225890D01*
X184181440Y-81974000D01*
X184181440Y-80422815D01*
X185964630Y-80422815D01*
X186288980Y-81207800D01*
X186889041Y-81808909D01*
X187673459Y-82134628D01*
X188522815Y-82135370D01*
X189307800Y-81811020D01*
X189908909Y-81210959D01*
X190234628Y-80426541D01*
X190235370Y-79577185D01*
X189911020Y-78792200D01*
X189310959Y-78191091D01*
X188526541Y-77865372D01*
X187677185Y-77864630D01*
X186892200Y-78188980D01*
X186291091Y-78789041D01*
X185965372Y-79573459D01*
X185964630Y-80422815D01*
X184181440Y-80422815D01*
X184181440Y-79474000D01*
X184137162Y-79238683D01*
X183998090Y-79022559D01*
X183785890Y-78877569D01*
X183534000Y-78826560D01*
X181034000Y-78826560D01*
X180798683Y-78870838D01*
X180582559Y-79009910D01*
X180437569Y-79222110D01*
X180386560Y-79474000D01*
X178699650Y-79474000D01*
X178353161Y-79126907D01*
X177660595Y-78839328D01*
X176910695Y-78838674D01*
X176217628Y-79125043D01*
X175686907Y-79654839D01*
X175399328Y-80347405D01*
X175398674Y-81097305D01*
X175685043Y-81790372D01*
X176014000Y-82119903D01*
X176014000Y-83640000D01*
X169770005Y-83640000D01*
X169770000Y-83639999D01*
X169330575Y-83727407D01*
X169283992Y-83736673D01*
X168871974Y-84011974D01*
X168871972Y-84011977D01*
X167801974Y-85081974D01*
X167526673Y-85493992D01*
X167429999Y-85980000D01*
X167430000Y-85980005D01*
X167430000Y-101695121D01*
X167104833Y-101694838D01*
X166761057Y-101836883D01*
X166497808Y-102099673D01*
X166355162Y-102443201D01*
X166354838Y-102815167D01*
X166496883Y-103158943D01*
X166759673Y-103422192D01*
X167103201Y-103564838D01*
X167430000Y-103565123D01*
X167430000Y-103583949D01*
X166801974Y-104211974D01*
X166526673Y-104623992D01*
X166429999Y-105110000D01*
X166430000Y-105110005D01*
X166430000Y-121022535D01*
X166282000Y-120921411D01*
X166282000Y-119972000D01*
X166185327Y-119485992D01*
X165910026Y-119073974D01*
X164830000Y-117993948D01*
X164830000Y-115273852D01*
X165073201Y-115374838D01*
X165445167Y-115375162D01*
X165788943Y-115233117D01*
X166052192Y-114970327D01*
X166194838Y-114626799D01*
X166195162Y-114254833D01*
X166053117Y-113911057D01*
X165790327Y-113647808D01*
X165446799Y-113505162D01*
X165074833Y-113504838D01*
X164830000Y-113606001D01*
X164830000Y-110140005D01*
X164830001Y-110140000D01*
X164733327Y-109653992D01*
X164618534Y-109482192D01*
X164458026Y-109241974D01*
X164458023Y-109241972D01*
X163008026Y-107791974D01*
X162596008Y-107516673D01*
X162110000Y-107419999D01*
X162109995Y-107420000D01*
X160100109Y-107420000D01*
X160023327Y-107033992D01*
X159748026Y-106621974D01*
X159336008Y-106346673D01*
X158850000Y-106250000D01*
X158363992Y-106346673D01*
X157951974Y-106621974D01*
X157676673Y-107033992D01*
X157580000Y-107520000D01*
X157580000Y-108690000D01*
X157676673Y-109176008D01*
X157951974Y-109588026D01*
X158363992Y-109863327D01*
X158850000Y-109960000D01*
X161583948Y-109960000D01*
X162290000Y-110666051D01*
X162290000Y-118519995D01*
X162289999Y-118520000D01*
X162386673Y-119006008D01*
X162597328Y-119321276D01*
X162348026Y-119071974D01*
X161936008Y-118796673D01*
X161450000Y-118699999D01*
X161449995Y-118700000D01*
X138140005Y-118700000D01*
X138140000Y-118699999D01*
X137653992Y-118796673D01*
X137241974Y-119071974D01*
X137241972Y-119071977D01*
X136451974Y-119861974D01*
X136176673Y-120273992D01*
X136079999Y-120760000D01*
X136080000Y-120760005D01*
X136080000Y-121170494D01*
X136012090Y-121064959D01*
X135799890Y-120919969D01*
X135548000Y-120868960D01*
X133516000Y-120868960D01*
X133280683Y-120913238D01*
X133064559Y-121052310D01*
X132919569Y-121264510D01*
X132868560Y-121516400D01*
X132868560Y-123243600D01*
X132912838Y-123478917D01*
X133051910Y-123695041D01*
X133264110Y-123840031D01*
X133305439Y-123848400D01*
X133287585Y-123860330D01*
X132962729Y-124346511D01*
X132848655Y-124920000D01*
X129992345Y-124920000D01*
X129878271Y-124346511D01*
X129553415Y-123860330D01*
X129539087Y-123850757D01*
X129560317Y-123846762D01*
X129776441Y-123707690D01*
X129921431Y-123495490D01*
X129972440Y-123243600D01*
X129972440Y-121516400D01*
X129928162Y-121281083D01*
X129789090Y-121064959D01*
X129576890Y-120919969D01*
X129325000Y-120868960D01*
X127293000Y-120868960D01*
X127057683Y-120913238D01*
X127041901Y-120923393D01*
X127036890Y-120919969D01*
X126785000Y-120868960D01*
X124753000Y-120868960D01*
X124517683Y-120913238D01*
X124501901Y-120923393D01*
X124496890Y-120919969D01*
X124245000Y-120868960D01*
X122213000Y-120868960D01*
X121977683Y-120913238D01*
X121961901Y-120923393D01*
X121956890Y-120919969D01*
X121705000Y-120868960D01*
X119673000Y-120868960D01*
X119437683Y-120913238D01*
X119421901Y-120923393D01*
X119416890Y-120919969D01*
X119165000Y-120868960D01*
X117133000Y-120868960D01*
X116897683Y-120913238D01*
X116881901Y-120923393D01*
X116876890Y-120919969D01*
X116625000Y-120868960D01*
X114593000Y-120868960D01*
X114357683Y-120913238D01*
X114341901Y-120923393D01*
X114336890Y-120919969D01*
X114085000Y-120868960D01*
X112053000Y-120868960D01*
X111817683Y-120913238D01*
X111801901Y-120923393D01*
X111796890Y-120919969D01*
X111545000Y-120868960D01*
X109513000Y-120868960D01*
X109277683Y-120913238D01*
X109061559Y-121052310D01*
X108916569Y-121264510D01*
X108865560Y-121516400D01*
X108865560Y-123243600D01*
X108909838Y-123478917D01*
X109048910Y-123695041D01*
X109261110Y-123840031D01*
X109302439Y-123848400D01*
X109284585Y-123860330D01*
X108959729Y-124346511D01*
X108845655Y-124920000D01*
X107785000Y-124920000D01*
X107785000Y-114815167D01*
X128714838Y-114815167D01*
X128856883Y-115158943D01*
X129119673Y-115422192D01*
X129237255Y-115471017D01*
X129376883Y-115808943D01*
X129467166Y-115899384D01*
X129345162Y-116193201D01*
X129344838Y-116565167D01*
X129486883Y-116908943D01*
X129749673Y-117172192D01*
X130093201Y-117314838D01*
X130465167Y-117315162D01*
X130808943Y-117173117D01*
X131072192Y-116910327D01*
X131214838Y-116566799D01*
X131215162Y-116194833D01*
X131073117Y-115851057D01*
X130982834Y-115760616D01*
X131104838Y-115466799D01*
X131105162Y-115094833D01*
X130963117Y-114751057D01*
X130897203Y-114685028D01*
X131062192Y-114520327D01*
X131204838Y-114176799D01*
X131205162Y-113804833D01*
X131089607Y-113525167D01*
X137674838Y-113525167D01*
X137816883Y-113868943D01*
X137937710Y-113989981D01*
X137817808Y-114109673D01*
X137675162Y-114453201D01*
X137674838Y-114825167D01*
X137816883Y-115168943D01*
X137947701Y-115299989D01*
X137827808Y-115419673D01*
X137685162Y-115763201D01*
X137684838Y-116135167D01*
X137826883Y-116478943D01*
X138089673Y-116742192D01*
X138433201Y-116884838D01*
X138805167Y-116885162D01*
X139148943Y-116743117D01*
X139412192Y-116480327D01*
X139545687Y-116158837D01*
X139728943Y-116083117D01*
X139992192Y-115820327D01*
X140134838Y-115476799D01*
X140135162Y-115104833D01*
X139993117Y-114761057D01*
X139877282Y-114645019D01*
X140002192Y-114520327D01*
X140144838Y-114176799D01*
X140145162Y-113804833D01*
X140003117Y-113461057D01*
X139872308Y-113330019D01*
X139982192Y-113220327D01*
X140124838Y-112876799D01*
X140125162Y-112504833D01*
X139983117Y-112161057D01*
X139872273Y-112050019D01*
X140002192Y-111920327D01*
X140144838Y-111576799D01*
X140145162Y-111204833D01*
X140003117Y-110861057D01*
X139740327Y-110597808D01*
X139550319Y-110518909D01*
X139423117Y-110211057D01*
X139307282Y-110095019D01*
X139432192Y-109970327D01*
X139574838Y-109626799D01*
X139574856Y-109605167D01*
X141044838Y-109605167D01*
X141186883Y-109948943D01*
X141449673Y-110212192D01*
X141793201Y-110354838D01*
X142165167Y-110355162D01*
X142508943Y-110213117D01*
X142772192Y-109950327D01*
X142914838Y-109606799D01*
X142915162Y-109234833D01*
X142773117Y-108891057D01*
X142510327Y-108627808D01*
X142183044Y-108491907D01*
X142518943Y-108353117D01*
X142782192Y-108090327D01*
X142924838Y-107746799D01*
X142925162Y-107374833D01*
X142783117Y-107031057D01*
X142520327Y-106767808D01*
X142176799Y-106625162D01*
X141804833Y-106624838D01*
X141461057Y-106766883D01*
X141197808Y-107029673D01*
X141055162Y-107373201D01*
X141054838Y-107745167D01*
X141196883Y-108088943D01*
X141459673Y-108352192D01*
X141786956Y-108488093D01*
X141451057Y-108626883D01*
X141187808Y-108889673D01*
X141045162Y-109233201D01*
X141044838Y-109605167D01*
X139574856Y-109605167D01*
X139575162Y-109254833D01*
X139433117Y-108911057D01*
X139170327Y-108647808D01*
X138826799Y-108505162D01*
X138454833Y-108504838D01*
X138111057Y-108646883D01*
X137847808Y-108909673D01*
X137705162Y-109253201D01*
X137704838Y-109625167D01*
X137846883Y-109968943D01*
X137962718Y-110084981D01*
X137837808Y-110209673D01*
X137695162Y-110553201D01*
X137694838Y-110925167D01*
X137836883Y-111268943D01*
X137962701Y-111394981D01*
X137847808Y-111509673D01*
X137705162Y-111853201D01*
X137704838Y-112225167D01*
X137846883Y-112568943D01*
X137952736Y-112674981D01*
X137817808Y-112809673D01*
X137675162Y-113153201D01*
X137674838Y-113525167D01*
X131089607Y-113525167D01*
X131063117Y-113461057D01*
X130942282Y-113340011D01*
X131072192Y-113210327D01*
X131214838Y-112866799D01*
X131215162Y-112494833D01*
X131073117Y-112151057D01*
X130982247Y-112060028D01*
X131122192Y-111920327D01*
X131264838Y-111576799D01*
X131265162Y-111204833D01*
X131123117Y-110861057D01*
X130860327Y-110597808D01*
X130634105Y-110503872D01*
X130513117Y-110211057D01*
X130407264Y-110105019D01*
X130542192Y-109970327D01*
X130666533Y-109670883D01*
X130878943Y-109583117D01*
X131142192Y-109320327D01*
X131284838Y-108976799D01*
X131285162Y-108604833D01*
X131143117Y-108261057D01*
X131022290Y-108140019D01*
X131142192Y-108020327D01*
X131284838Y-107676799D01*
X131284839Y-107675167D01*
X133334838Y-107675167D01*
X133476883Y-108018943D01*
X133739673Y-108282192D01*
X134083201Y-108424838D01*
X134455167Y-108425162D01*
X134798943Y-108283117D01*
X135062192Y-108020327D01*
X135204838Y-107676799D01*
X135205162Y-107304833D01*
X135063117Y-106961057D01*
X134800327Y-106697808D01*
X134456799Y-106555162D01*
X134084833Y-106554838D01*
X133741057Y-106696883D01*
X133477808Y-106959673D01*
X133335162Y-107303201D01*
X133334838Y-107675167D01*
X131284839Y-107675167D01*
X131285162Y-107304833D01*
X131143117Y-106961057D01*
X130880327Y-106697808D01*
X130536799Y-106555162D01*
X130164833Y-106554838D01*
X129821057Y-106696883D01*
X129557808Y-106959673D01*
X129433467Y-107259117D01*
X129221057Y-107346883D01*
X128957808Y-107609673D01*
X128815162Y-107953201D01*
X128814838Y-108325167D01*
X128956883Y-108668943D01*
X129077710Y-108789981D01*
X128957808Y-108909673D01*
X128815162Y-109253201D01*
X128814838Y-109625167D01*
X128956883Y-109968943D01*
X129062736Y-110074981D01*
X128927808Y-110209673D01*
X128785162Y-110553201D01*
X128784838Y-110925167D01*
X128926883Y-111268943D01*
X129017762Y-111359981D01*
X128867808Y-111509673D01*
X128725162Y-111853201D01*
X128724838Y-112225167D01*
X128866883Y-112568943D01*
X128992701Y-112694981D01*
X128877808Y-112809673D01*
X128735162Y-113153201D01*
X128734838Y-113525167D01*
X128876883Y-113868943D01*
X128982727Y-113974972D01*
X128857808Y-114099673D01*
X128715162Y-114443201D01*
X128714838Y-114815167D01*
X107785000Y-114815167D01*
X107785000Y-111922815D01*
X108964630Y-111922815D01*
X109288980Y-112707800D01*
X109889041Y-113308909D01*
X110673459Y-113634628D01*
X111522815Y-113635370D01*
X112307800Y-113311020D01*
X112908909Y-112710959D01*
X113234628Y-111926541D01*
X113235370Y-111077185D01*
X112911020Y-110292200D01*
X112310959Y-109691091D01*
X111526541Y-109365372D01*
X110677185Y-109364630D01*
X109892200Y-109688980D01*
X109291091Y-110289041D01*
X108965372Y-111073459D01*
X108964630Y-111922815D01*
X107785000Y-111922815D01*
X107785000Y-89429255D01*
X109157400Y-89429255D01*
X109157400Y-89798745D01*
X109271474Y-90372234D01*
X109596330Y-90858415D01*
X109634621Y-90884000D01*
X109596330Y-90909585D01*
X109271474Y-91395766D01*
X109157400Y-91969255D01*
X109157400Y-92338745D01*
X109271474Y-92912234D01*
X109596330Y-93398415D01*
X109634621Y-93424000D01*
X109596330Y-93449585D01*
X109271474Y-93935766D01*
X109157400Y-94509255D01*
X109157400Y-94878745D01*
X109271474Y-95452234D01*
X109596330Y-95938415D01*
X109634621Y-95964000D01*
X109596330Y-95989585D01*
X109271474Y-96475766D01*
X109157400Y-97049255D01*
X109157400Y-97418745D01*
X109271474Y-97992234D01*
X109596330Y-98478415D01*
X109634621Y-98504000D01*
X109596330Y-98529585D01*
X109271474Y-99015766D01*
X109157400Y-99589255D01*
X109157400Y-99958745D01*
X109271474Y-100532234D01*
X109596330Y-101018415D01*
X109634621Y-101044000D01*
X109596330Y-101069585D01*
X109271474Y-101555766D01*
X109157400Y-102129255D01*
X109157400Y-102498745D01*
X109271474Y-103072234D01*
X109596330Y-103558415D01*
X109634621Y-103584000D01*
X109596330Y-103609585D01*
X109271474Y-104095766D01*
X109157400Y-104669255D01*
X109157400Y-105038745D01*
X109271474Y-105612234D01*
X109596330Y-106098415D01*
X109634621Y-106124000D01*
X109596330Y-106149585D01*
X109271474Y-106635766D01*
X109157400Y-107209255D01*
X109157400Y-107578745D01*
X109271474Y-108152234D01*
X109596330Y-108638415D01*
X110082511Y-108963271D01*
X110656000Y-109077345D01*
X111229489Y-108963271D01*
X111715670Y-108638415D01*
X111926000Y-108323634D01*
X112136330Y-108638415D01*
X112622511Y-108963271D01*
X113196000Y-109077345D01*
X113769489Y-108963271D01*
X114255670Y-108638415D01*
X114265243Y-108624087D01*
X114269238Y-108645317D01*
X114408310Y-108861441D01*
X114620510Y-109006431D01*
X114872400Y-109057440D01*
X116599600Y-109057440D01*
X116834917Y-109013162D01*
X117051041Y-108874090D01*
X117196031Y-108661890D01*
X117247040Y-108410000D01*
X117247040Y-106378000D01*
X117202762Y-106142683D01*
X117192607Y-106126901D01*
X117196031Y-106121890D01*
X117247040Y-105870000D01*
X117247040Y-104875167D01*
X120844838Y-104875167D01*
X120986883Y-105218943D01*
X121249673Y-105482192D01*
X121593201Y-105624838D01*
X121965167Y-105625162D01*
X122308943Y-105483117D01*
X122572192Y-105220327D01*
X122714838Y-104876799D01*
X122715162Y-104504833D01*
X122573117Y-104161057D01*
X122310327Y-103897808D01*
X121966799Y-103755162D01*
X121594833Y-103754838D01*
X121251057Y-103896883D01*
X120987808Y-104159673D01*
X120845162Y-104503201D01*
X120844838Y-104875167D01*
X117247040Y-104875167D01*
X117247040Y-103838000D01*
X117202762Y-103602683D01*
X117192607Y-103586901D01*
X117196031Y-103581890D01*
X117247040Y-103330000D01*
X117247040Y-101298000D01*
X117202762Y-101062683D01*
X117192607Y-101046901D01*
X117196031Y-101041890D01*
X117247040Y-100790000D01*
X117247040Y-98758000D01*
X117202762Y-98522683D01*
X117192607Y-98506901D01*
X117196031Y-98501890D01*
X117247040Y-98250000D01*
X117247040Y-96218000D01*
X117202762Y-95982683D01*
X117192607Y-95966901D01*
X117196031Y-95961890D01*
X117247040Y-95710000D01*
X117247040Y-95255167D01*
X120724838Y-95255167D01*
X120866883Y-95598943D01*
X121129673Y-95862192D01*
X121473201Y-96004838D01*
X121845167Y-96005162D01*
X122188943Y-95863117D01*
X122452192Y-95600327D01*
X122594838Y-95256799D01*
X122595162Y-94884833D01*
X122453117Y-94541057D01*
X122190327Y-94277808D01*
X121846799Y-94135162D01*
X121474833Y-94134838D01*
X121131057Y-94276883D01*
X120867808Y-94539673D01*
X120725162Y-94883201D01*
X120724838Y-95255167D01*
X117247040Y-95255167D01*
X117247040Y-93678000D01*
X117202762Y-93442683D01*
X117192607Y-93426901D01*
X117196031Y-93421890D01*
X117247040Y-93170000D01*
X117247040Y-91995167D01*
X120454838Y-91995167D01*
X120596883Y-92338943D01*
X120859673Y-92602192D01*
X121203201Y-92744838D01*
X121575167Y-92745162D01*
X121918943Y-92603117D01*
X122182192Y-92340327D01*
X122324838Y-91996799D01*
X122325162Y-91624833D01*
X122183117Y-91281057D01*
X121920327Y-91017808D01*
X121576799Y-90875162D01*
X121204833Y-90874838D01*
X120861057Y-91016883D01*
X120597808Y-91279673D01*
X120455162Y-91623201D01*
X120454838Y-91995167D01*
X117247040Y-91995167D01*
X117247040Y-91138000D01*
X117202762Y-90902683D01*
X117192607Y-90886901D01*
X117196031Y-90881890D01*
X117247040Y-90630000D01*
X117247040Y-89615167D01*
X120284838Y-89615167D01*
X120426883Y-89958943D01*
X120689673Y-90222192D01*
X121033201Y-90364838D01*
X121405167Y-90365162D01*
X121748943Y-90223117D01*
X122012192Y-89960327D01*
X122154838Y-89616799D01*
X122155162Y-89244833D01*
X122013117Y-88901057D01*
X121750327Y-88637808D01*
X121406799Y-88495162D01*
X121034833Y-88494838D01*
X120691057Y-88636883D01*
X120427808Y-88899673D01*
X120285162Y-89243201D01*
X120284838Y-89615167D01*
X117247040Y-89615167D01*
X117247040Y-88598000D01*
X117202762Y-88362683D01*
X117063690Y-88146559D01*
X116851490Y-88001569D01*
X116599600Y-87950560D01*
X114872400Y-87950560D01*
X114637083Y-87994838D01*
X114420959Y-88133910D01*
X114275969Y-88346110D01*
X114267600Y-88387439D01*
X114255670Y-88369585D01*
X113769489Y-88044729D01*
X113196000Y-87930655D01*
X112622511Y-88044729D01*
X112136330Y-88369585D01*
X111926000Y-88684366D01*
X111715670Y-88369585D01*
X111229489Y-88044729D01*
X110656000Y-87930655D01*
X110082511Y-88044729D01*
X109596330Y-88369585D01*
X109271474Y-88855766D01*
X109157400Y-89429255D01*
X107785000Y-89429255D01*
X107785000Y-84705255D01*
X109191400Y-84705255D01*
X109191400Y-85074745D01*
X109305474Y-85648234D01*
X109630330Y-86134415D01*
X110116511Y-86459271D01*
X110690000Y-86573345D01*
X111263489Y-86459271D01*
X111749670Y-86134415D01*
X111960000Y-85819634D01*
X112170330Y-86134415D01*
X112656511Y-86459271D01*
X113230000Y-86573345D01*
X113803489Y-86459271D01*
X114289670Y-86134415D01*
X114500000Y-85819634D01*
X114710330Y-86134415D01*
X115196511Y-86459271D01*
X115770000Y-86573345D01*
X116343489Y-86459271D01*
X116829670Y-86134415D01*
X116839243Y-86120087D01*
X116843238Y-86141317D01*
X116982310Y-86357441D01*
X117194510Y-86502431D01*
X117446400Y-86553440D01*
X119173600Y-86553440D01*
X119358998Y-86518555D01*
X119317808Y-86559673D01*
X119175162Y-86903201D01*
X119174838Y-87275167D01*
X119316883Y-87618943D01*
X119579673Y-87882192D01*
X119923201Y-88024838D01*
X120295167Y-88025162D01*
X120638943Y-87883117D01*
X120902192Y-87620327D01*
X121031995Y-87307728D01*
X121073201Y-87324838D01*
X121445167Y-87325162D01*
X121788943Y-87183117D01*
X122052192Y-86920327D01*
X122194838Y-86576799D01*
X122195162Y-86204833D01*
X122053117Y-85861057D01*
X121790327Y-85597808D01*
X121446799Y-85455162D01*
X121074833Y-85454838D01*
X120731057Y-85596883D01*
X120467808Y-85859673D01*
X120338005Y-86172272D01*
X120296799Y-86155162D01*
X119924833Y-86154838D01*
X119712041Y-86242762D01*
X119770031Y-86157890D01*
X119821040Y-85906000D01*
X119821040Y-85105167D01*
X125724838Y-85105167D01*
X125866883Y-85448943D01*
X126129673Y-85712192D01*
X126473201Y-85854838D01*
X126845167Y-85855162D01*
X127188943Y-85713117D01*
X127452192Y-85450327D01*
X127594838Y-85106799D01*
X127595162Y-84734833D01*
X127453117Y-84391057D01*
X127190327Y-84127808D01*
X126846799Y-83985162D01*
X126474833Y-83984838D01*
X126131057Y-84126883D01*
X125867808Y-84389673D01*
X125725162Y-84733201D01*
X125724838Y-85105167D01*
X119821040Y-85105167D01*
X119821040Y-83874000D01*
X119776762Y-83638683D01*
X119637690Y-83422559D01*
X119425490Y-83277569D01*
X119173600Y-83226560D01*
X117446400Y-83226560D01*
X117211083Y-83270838D01*
X116994959Y-83409910D01*
X116849969Y-83622110D01*
X116841600Y-83663439D01*
X116829670Y-83645585D01*
X116343489Y-83320729D01*
X115770000Y-83206655D01*
X115196511Y-83320729D01*
X114710330Y-83645585D01*
X114500000Y-83960366D01*
X114289670Y-83645585D01*
X113803489Y-83320729D01*
X113230000Y-83206655D01*
X112656511Y-83320729D01*
X112170330Y-83645585D01*
X111960000Y-83960366D01*
X111749670Y-83645585D01*
X111263489Y-83320729D01*
X110690000Y-83206655D01*
X110116511Y-83320729D01*
X109630330Y-83645585D01*
X109305474Y-84131766D01*
X109191400Y-84705255D01*
X107785000Y-84705255D01*
X107785000Y-80422815D01*
X108964630Y-80422815D01*
X109288980Y-81207800D01*
X109889041Y-81808909D01*
X110673459Y-82134628D01*
X111522815Y-82135370D01*
X112307800Y-81811020D01*
X112908909Y-81210959D01*
X113234628Y-80426541D01*
X113234651Y-80400000D01*
X115852560Y-80400000D01*
X115852560Y-81600000D01*
X115896838Y-81835317D01*
X116035910Y-82051441D01*
X116248110Y-82196431D01*
X116500000Y-82247440D01*
X117700000Y-82247440D01*
X117935317Y-82203162D01*
X118151441Y-82064090D01*
X118259431Y-81906042D01*
X118399515Y-82046371D01*
X118853266Y-82234785D01*
X119344579Y-82235214D01*
X119798657Y-82047592D01*
X120100221Y-81746554D01*
X120399515Y-82046371D01*
X120853266Y-82234785D01*
X121344579Y-82235214D01*
X121798657Y-82047592D01*
X122100221Y-81746554D01*
X122399515Y-82046371D01*
X122853266Y-82234785D01*
X123344579Y-82235214D01*
X123798657Y-82047592D01*
X124100221Y-81746554D01*
X124399515Y-82046371D01*
X124853266Y-82234785D01*
X125207863Y-82235095D01*
X125316883Y-82498943D01*
X125579673Y-82762192D01*
X125923201Y-82904838D01*
X126295167Y-82905162D01*
X126638943Y-82763117D01*
X126902192Y-82500327D01*
X127012398Y-82234924D01*
X127242008Y-82235124D01*
X127346883Y-82488943D01*
X127609673Y-82752192D01*
X127953201Y-82894838D01*
X128325167Y-82895162D01*
X128668943Y-82753117D01*
X128932192Y-82490327D01*
X129038236Y-82234947D01*
X129344579Y-82235214D01*
X129798657Y-82047592D01*
X130100221Y-81746554D01*
X130399515Y-82046371D01*
X130853266Y-82234785D01*
X131344579Y-82235214D01*
X131798657Y-82047592D01*
X132100221Y-81746554D01*
X132399515Y-82046371D01*
X132853266Y-82234785D01*
X133344579Y-82235214D01*
X133798657Y-82047592D01*
X134100221Y-81746554D01*
X134399515Y-82046371D01*
X134853266Y-82234785D01*
X135344579Y-82235214D01*
X135798657Y-82047592D01*
X136100221Y-81746554D01*
X136399515Y-82046371D01*
X136853266Y-82234785D01*
X137344579Y-82235214D01*
X137798657Y-82047592D01*
X138100221Y-81746554D01*
X138399515Y-82046371D01*
X138853266Y-82234785D01*
X138981260Y-82234897D01*
X138611777Y-82481777D01*
X137891777Y-83201777D01*
X137644006Y-83572593D01*
X137557000Y-84010000D01*
X137557000Y-85466554D01*
X137366554Y-85657000D01*
X132170000Y-85657000D01*
X131818088Y-85727000D01*
X128250000Y-85727000D01*
X127812593Y-85814006D01*
X127441777Y-86061777D01*
X126871777Y-86631777D01*
X126624006Y-87002593D01*
X126537000Y-87440000D01*
X126537000Y-91054545D01*
X126500327Y-91017808D01*
X126156799Y-90875162D01*
X125784833Y-90874838D01*
X125441057Y-91016883D01*
X125177808Y-91279673D01*
X125035162Y-91623201D01*
X125034838Y-91995167D01*
X125176883Y-92338943D01*
X125439673Y-92602192D01*
X125783201Y-92744838D01*
X126155167Y-92745162D01*
X126498943Y-92603117D01*
X126537000Y-92565126D01*
X126537000Y-99447360D01*
X126266799Y-99335162D01*
X125894833Y-99334838D01*
X125551057Y-99476883D01*
X125287808Y-99739673D01*
X125145162Y-100083201D01*
X125144838Y-100455167D01*
X125286883Y-100798943D01*
X125549673Y-101062192D01*
X125893201Y-101204838D01*
X126265167Y-101205162D01*
X126537000Y-101092843D01*
X126537000Y-103770000D01*
X126553241Y-103851646D01*
X126296799Y-103745162D01*
X125924833Y-103744838D01*
X125581057Y-103886883D01*
X125317808Y-104149673D01*
X125175162Y-104493201D01*
X125174838Y-104865167D01*
X125316883Y-105208943D01*
X125579673Y-105472192D01*
X125923201Y-105614838D01*
X126295167Y-105615162D01*
X126638943Y-105473117D01*
X126902192Y-105210327D01*
X127044838Y-104866799D01*
X127044939Y-104751385D01*
X127791777Y-105498223D01*
X128162593Y-105745994D01*
X128600000Y-105833000D01*
X130410000Y-105833000D01*
X130847407Y-105745994D01*
X131218223Y-105498223D01*
X131465994Y-105127407D01*
X131486330Y-105025167D01*
X135514838Y-105025167D01*
X135656883Y-105368943D01*
X135919673Y-105632192D01*
X136263201Y-105774838D01*
X136635167Y-105775162D01*
X136978943Y-105633117D01*
X137242192Y-105370327D01*
X137384838Y-105026799D01*
X137385162Y-104654833D01*
X137243117Y-104311057D01*
X136980327Y-104047808D01*
X136636799Y-103905162D01*
X136264833Y-103904838D01*
X135921057Y-104046883D01*
X135657808Y-104309673D01*
X135515162Y-104653201D01*
X135514838Y-105025167D01*
X131486330Y-105025167D01*
X131553000Y-104690000D01*
X131465994Y-104252593D01*
X131218223Y-103881777D01*
X130847407Y-103634006D01*
X130410000Y-103547000D01*
X129073446Y-103547000D01*
X128823000Y-103296554D01*
X128823000Y-101413000D01*
X130420000Y-101413000D01*
X130857407Y-101325994D01*
X131228223Y-101078223D01*
X131444081Y-100755167D01*
X136454838Y-100755167D01*
X136596883Y-101098943D01*
X136859673Y-101362192D01*
X137203201Y-101504838D01*
X137575167Y-101505162D01*
X137918943Y-101363117D01*
X138182192Y-101100327D01*
X138324838Y-100756799D01*
X138325162Y-100384833D01*
X138183117Y-100041057D01*
X137920327Y-99777808D01*
X137576799Y-99635162D01*
X137204833Y-99634838D01*
X136861057Y-99776883D01*
X136597808Y-100039673D01*
X136455162Y-100383201D01*
X136454838Y-100755167D01*
X131444081Y-100755167D01*
X131475994Y-100707407D01*
X131563000Y-100270000D01*
X131475994Y-99832593D01*
X131228223Y-99461777D01*
X130857407Y-99214006D01*
X130420000Y-99127000D01*
X128823446Y-99127000D01*
X128823000Y-99126554D01*
X128823000Y-99065167D01*
X135324838Y-99065167D01*
X135466883Y-99408943D01*
X135729673Y-99672192D01*
X136073201Y-99814838D01*
X136445167Y-99815162D01*
X136788943Y-99673117D01*
X137052192Y-99410327D01*
X137194838Y-99066799D01*
X137195162Y-98694833D01*
X137053117Y-98351057D01*
X136790327Y-98087808D01*
X136446799Y-97945162D01*
X136074833Y-97944838D01*
X135731057Y-98086883D01*
X135467808Y-98349673D01*
X135325162Y-98693201D01*
X135324838Y-99065167D01*
X128823000Y-99065167D01*
X128823000Y-95255167D01*
X129444838Y-95255167D01*
X129586883Y-95598943D01*
X129849673Y-95862192D01*
X130193201Y-96004838D01*
X130565167Y-96005162D01*
X130908943Y-95863117D01*
X131172192Y-95600327D01*
X131314838Y-95256799D01*
X131315162Y-94884833D01*
X131173117Y-94541057D01*
X130910327Y-94277808D01*
X130566799Y-94135162D01*
X130194833Y-94134838D01*
X129851057Y-94276883D01*
X129587808Y-94539673D01*
X129445162Y-94883201D01*
X129444838Y-95255167D01*
X128823000Y-95255167D01*
X128823000Y-88013000D01*
X130027000Y-88013000D01*
X130027000Y-91575921D01*
X129831057Y-91656883D01*
X129567808Y-91919673D01*
X129425162Y-92263201D01*
X129424838Y-92635167D01*
X129566883Y-92978943D01*
X129829673Y-93242192D01*
X130173201Y-93384838D01*
X130545167Y-93385162D01*
X130888943Y-93243117D01*
X131152192Y-92980327D01*
X131164032Y-92951813D01*
X131170000Y-92953000D01*
X131607407Y-92865994D01*
X131978223Y-92618223D01*
X132225994Y-92247407D01*
X132313000Y-91810000D01*
X132313000Y-88273446D01*
X132643446Y-87943000D01*
X137840000Y-87943000D01*
X138277407Y-87855994D01*
X138620381Y-87626827D01*
X139437000Y-88443446D01*
X139437000Y-97797262D01*
X139393117Y-97691057D01*
X139130327Y-97427808D01*
X138786799Y-97285162D01*
X138414833Y-97284838D01*
X138071057Y-97426883D01*
X137807808Y-97689673D01*
X137665162Y-98033201D01*
X137664838Y-98405167D01*
X137806883Y-98748943D01*
X138069673Y-99012192D01*
X138413201Y-99154838D01*
X138433370Y-99154856D01*
X138355162Y-99343201D01*
X138354838Y-99715167D01*
X138496883Y-100058943D01*
X138759673Y-100322192D01*
X139103201Y-100464838D01*
X139437000Y-100465129D01*
X139437000Y-104130000D01*
X139524006Y-104567407D01*
X139771777Y-104938223D01*
X140751777Y-105918223D01*
X141122593Y-106165994D01*
X141560000Y-106253000D01*
X141997407Y-106165994D01*
X142297966Y-105965167D01*
X146794838Y-105965167D01*
X146936883Y-106308943D01*
X147199673Y-106572192D01*
X147543201Y-106714838D01*
X147896272Y-106715146D01*
X147771057Y-106766883D01*
X147507808Y-107029673D01*
X147365162Y-107373201D01*
X147364838Y-107745167D01*
X147506883Y-108088943D01*
X147769673Y-108352192D01*
X148113201Y-108494838D01*
X148485167Y-108495162D01*
X148828943Y-108353117D01*
X149092192Y-108090327D01*
X149234838Y-107746799D01*
X149235162Y-107374833D01*
X149093117Y-107031057D01*
X148830327Y-106767808D01*
X148486799Y-106625162D01*
X148133728Y-106624854D01*
X148258943Y-106573117D01*
X148522192Y-106310327D01*
X148664838Y-105966799D01*
X148665162Y-105594833D01*
X148523117Y-105251057D01*
X148260327Y-104987808D01*
X147916799Y-104845162D01*
X147544833Y-104844838D01*
X147201057Y-104986883D01*
X146937808Y-105249673D01*
X146795162Y-105593201D01*
X146794838Y-105965167D01*
X142297966Y-105965167D01*
X142368223Y-105918223D01*
X142615994Y-105547407D01*
X142703000Y-105110000D01*
X142615994Y-104672593D01*
X142368223Y-104301777D01*
X141851613Y-103785167D01*
X144434838Y-103785167D01*
X144576883Y-104128943D01*
X144839673Y-104392192D01*
X145183201Y-104534838D01*
X145555167Y-104535162D01*
X145898943Y-104393117D01*
X146162192Y-104130327D01*
X146288906Y-103825167D01*
X148604838Y-103825167D01*
X148746883Y-104168943D01*
X149009673Y-104432192D01*
X149353201Y-104574838D01*
X149725167Y-104575162D01*
X150068943Y-104433117D01*
X150332192Y-104170327D01*
X150474838Y-103826799D01*
X150475162Y-103454833D01*
X150333117Y-103111057D01*
X150070327Y-102847808D01*
X149726799Y-102705162D01*
X149354833Y-102704838D01*
X149011057Y-102846883D01*
X148747808Y-103109673D01*
X148605162Y-103453201D01*
X148604838Y-103825167D01*
X146288906Y-103825167D01*
X146304838Y-103786799D01*
X146305162Y-103414833D01*
X146163117Y-103071057D01*
X145900327Y-102807808D01*
X145556799Y-102665162D01*
X145184833Y-102664838D01*
X144841057Y-102806883D01*
X144577808Y-103069673D01*
X144435162Y-103413201D01*
X144434838Y-103785167D01*
X141851613Y-103785167D01*
X141723000Y-103656554D01*
X141723000Y-101795167D01*
X144404838Y-101795167D01*
X144546883Y-102138943D01*
X144809673Y-102402192D01*
X145153201Y-102544838D01*
X145525167Y-102545162D01*
X145868943Y-102403117D01*
X146132192Y-102140327D01*
X146274838Y-101796799D01*
X146275162Y-101424833D01*
X146133117Y-101081057D01*
X145870327Y-100817808D01*
X145526799Y-100675162D01*
X145154833Y-100674838D01*
X144811057Y-100816883D01*
X144547808Y-101079673D01*
X144405162Y-101423201D01*
X144404838Y-101795167D01*
X141723000Y-101795167D01*
X141723000Y-100305167D01*
X142594838Y-100305167D01*
X142736883Y-100648943D01*
X142999673Y-100912192D01*
X143343201Y-101054838D01*
X143715167Y-101055162D01*
X144058943Y-100913117D01*
X144322192Y-100650327D01*
X144365858Y-100545167D01*
X163314838Y-100545167D01*
X163456883Y-100888943D01*
X163719673Y-101152192D01*
X164063201Y-101294838D01*
X164435167Y-101295162D01*
X164778943Y-101153117D01*
X165042192Y-100890327D01*
X165184838Y-100546799D01*
X165185162Y-100174833D01*
X165043117Y-99831057D01*
X164780327Y-99567808D01*
X164436799Y-99425162D01*
X164064833Y-99424838D01*
X163721057Y-99566883D01*
X163457808Y-99829673D01*
X163315162Y-100173201D01*
X163314838Y-100545167D01*
X144365858Y-100545167D01*
X144464838Y-100306799D01*
X144465162Y-99934833D01*
X144323117Y-99591057D01*
X144177482Y-99445167D01*
X148034838Y-99445167D01*
X148176883Y-99788943D01*
X148439673Y-100052192D01*
X148783201Y-100194838D01*
X149155167Y-100195162D01*
X149498943Y-100053117D01*
X149762192Y-99790327D01*
X149776791Y-99755167D01*
X159494838Y-99755167D01*
X159636883Y-100098943D01*
X159899673Y-100362192D01*
X160243201Y-100504838D01*
X160615167Y-100505162D01*
X160958943Y-100363117D01*
X161222192Y-100100327D01*
X161364838Y-99756799D01*
X161365162Y-99384833D01*
X161223117Y-99041057D01*
X160960327Y-98777808D01*
X160616799Y-98635162D01*
X160244833Y-98634838D01*
X159901057Y-98776883D01*
X159637808Y-99039673D01*
X159495162Y-99383201D01*
X159494838Y-99755167D01*
X149776791Y-99755167D01*
X149904838Y-99446799D01*
X149905162Y-99074833D01*
X149781343Y-98775167D01*
X154684838Y-98775167D01*
X154826883Y-99118943D01*
X155089673Y-99382192D01*
X155433201Y-99524838D01*
X155805167Y-99525162D01*
X156148943Y-99383117D01*
X156412192Y-99120327D01*
X156554838Y-98776799D01*
X156555162Y-98404833D01*
X156413117Y-98061057D01*
X156150327Y-97797808D01*
X155806799Y-97655162D01*
X155434833Y-97654838D01*
X155091057Y-97796883D01*
X154827808Y-98059673D01*
X154685162Y-98403201D01*
X154684838Y-98775167D01*
X149781343Y-98775167D01*
X149763117Y-98731057D01*
X149500327Y-98467808D01*
X149156799Y-98325162D01*
X148784833Y-98324838D01*
X148441057Y-98466883D01*
X148177808Y-98729673D01*
X148035162Y-99073201D01*
X148034838Y-99445167D01*
X144177482Y-99445167D01*
X144060327Y-99327808D01*
X143716799Y-99185162D01*
X143344833Y-99184838D01*
X143001057Y-99326883D01*
X142737808Y-99589673D01*
X142595162Y-99933201D01*
X142594838Y-100305167D01*
X141723000Y-100305167D01*
X141723000Y-97515167D01*
X158134838Y-97515167D01*
X158276883Y-97858943D01*
X158539673Y-98122192D01*
X158883201Y-98264838D01*
X159255167Y-98265162D01*
X159598943Y-98123117D01*
X159862192Y-97860327D01*
X160004838Y-97516799D01*
X160005162Y-97144833D01*
X159863117Y-96801057D01*
X159600327Y-96537808D01*
X159471168Y-96484176D01*
X159618943Y-96423117D01*
X159882192Y-96160327D01*
X160024838Y-95816799D01*
X160025162Y-95444833D01*
X159883117Y-95101057D01*
X159620327Y-94837808D01*
X159505335Y-94790059D01*
X159618943Y-94743117D01*
X159882192Y-94480327D01*
X160024838Y-94136799D01*
X160025162Y-93764833D01*
X159883117Y-93421057D01*
X159620327Y-93157808D01*
X159276799Y-93015162D01*
X158904833Y-93014838D01*
X158561057Y-93156883D01*
X158297808Y-93419673D01*
X158155162Y-93763201D01*
X158154838Y-94135167D01*
X158296883Y-94478943D01*
X158559673Y-94742192D01*
X158674665Y-94789941D01*
X158561057Y-94836883D01*
X158297808Y-95099673D01*
X158155162Y-95443201D01*
X158154838Y-95815167D01*
X158296883Y-96158943D01*
X158559673Y-96422192D01*
X158688832Y-96475824D01*
X158541057Y-96536883D01*
X158277808Y-96799673D01*
X158135162Y-97143201D01*
X158134838Y-97515167D01*
X141723000Y-97515167D01*
X141723000Y-87970000D01*
X141635994Y-87532593D01*
X141388223Y-87161777D01*
X139843000Y-85616554D01*
X139843000Y-84483446D01*
X139893446Y-84433000D01*
X146297000Y-84433000D01*
X146297000Y-92310000D01*
X146384006Y-92747407D01*
X146631777Y-93118223D01*
X147321777Y-93808223D01*
X147692593Y-94055994D01*
X148130000Y-94143000D01*
X148740000Y-94143000D01*
X149177407Y-94055994D01*
X149548223Y-93808223D01*
X149795994Y-93437407D01*
X149883000Y-93000000D01*
X149795994Y-92562593D01*
X149548223Y-92191777D01*
X149373704Y-92075167D01*
X151114838Y-92075167D01*
X151256883Y-92418943D01*
X151519673Y-92682192D01*
X151863201Y-92824838D01*
X152235167Y-92825162D01*
X152578943Y-92683117D01*
X152842192Y-92420327D01*
X152984838Y-92076799D01*
X152985162Y-91704833D01*
X152843117Y-91361057D01*
X152580327Y-91097808D01*
X152236799Y-90955162D01*
X151864833Y-90954838D01*
X151521057Y-91096883D01*
X151257808Y-91359673D01*
X151115162Y-91703201D01*
X151114838Y-92075167D01*
X149373704Y-92075167D01*
X149177407Y-91944006D01*
X148740000Y-91857000D01*
X148603446Y-91857000D01*
X148583000Y-91836554D01*
X148583000Y-90750012D01*
X148763201Y-90824838D01*
X149135167Y-90825162D01*
X149478943Y-90683117D01*
X149742192Y-90420327D01*
X149884838Y-90076799D01*
X149885162Y-89704833D01*
X149743117Y-89361057D01*
X149480327Y-89097808D01*
X149136799Y-88955162D01*
X148764833Y-88954838D01*
X148583000Y-89029970D01*
X148583000Y-88803000D01*
X148590000Y-88803000D01*
X149027407Y-88715994D01*
X149398223Y-88468223D01*
X149645994Y-88097407D01*
X149733000Y-87660000D01*
X149645994Y-87222593D01*
X149398223Y-86851777D01*
X149268602Y-86765167D01*
X150954838Y-86765167D01*
X151096883Y-87108943D01*
X151359673Y-87372192D01*
X151703201Y-87514838D01*
X152075167Y-87515162D01*
X152418943Y-87373117D01*
X152682192Y-87110327D01*
X152824838Y-86766799D01*
X152825162Y-86394833D01*
X152683117Y-86051057D01*
X152647290Y-86015167D01*
X154914838Y-86015167D01*
X155056883Y-86358943D01*
X155319673Y-86622192D01*
X155663201Y-86764838D01*
X156035167Y-86765162D01*
X156378943Y-86623117D01*
X156642192Y-86360327D01*
X156784838Y-86016799D01*
X156785162Y-85644833D01*
X156643117Y-85301057D01*
X156380327Y-85037808D01*
X156036799Y-84895162D01*
X155664833Y-84894838D01*
X155321057Y-85036883D01*
X155057808Y-85299673D01*
X154915162Y-85643201D01*
X154914838Y-86015167D01*
X152647290Y-86015167D01*
X152420327Y-85787808D01*
X152076799Y-85645162D01*
X151704833Y-85644838D01*
X151361057Y-85786883D01*
X151097808Y-86049673D01*
X150955162Y-86393201D01*
X150954838Y-86765167D01*
X149268602Y-86765167D01*
X149027407Y-86604006D01*
X148590000Y-86517000D01*
X148583000Y-86517000D01*
X148583000Y-85493993D01*
X148633201Y-85514838D01*
X149005167Y-85515162D01*
X149348943Y-85373117D01*
X149612192Y-85110327D01*
X149754838Y-84766799D01*
X149755162Y-84394833D01*
X149651129Y-84143054D01*
X149718223Y-84098223D01*
X151747869Y-82068577D01*
X151798657Y-82047592D01*
X151983837Y-81862735D01*
X152416870Y-81862735D01*
X152466383Y-82088164D01*
X152931036Y-82247807D01*
X153421413Y-82217482D01*
X153733617Y-82088164D01*
X153783130Y-81862735D01*
X153100000Y-81179605D01*
X152416870Y-81862735D01*
X151983837Y-81862735D01*
X152146371Y-81700485D01*
X152160572Y-81666285D01*
X152237265Y-81683130D01*
X152920395Y-81000000D01*
X152237265Y-80316870D01*
X152160935Y-80333635D01*
X152147592Y-80301343D01*
X151846554Y-79999779D01*
X152100221Y-79746554D01*
X152399515Y-80046371D01*
X152433715Y-80060572D01*
X152416870Y-80137265D01*
X153100000Y-80820395D01*
X153783130Y-80137265D01*
X153766365Y-80060935D01*
X153798657Y-80047592D01*
X154100221Y-79746554D01*
X154353446Y-80000221D01*
X154053629Y-80299515D01*
X154039428Y-80333715D01*
X153962735Y-80316870D01*
X153279605Y-81000000D01*
X153962735Y-81683130D01*
X154039065Y-81666365D01*
X154052408Y-81698657D01*
X154399515Y-82046371D01*
X154853266Y-82234785D01*
X155344579Y-82235214D01*
X155798657Y-82047592D01*
X156146371Y-81700485D01*
X156334785Y-81246734D01*
X156334838Y-81185167D01*
X162564838Y-81185167D01*
X162706883Y-81528943D01*
X162969673Y-81792192D01*
X163313201Y-81934838D01*
X163685167Y-81935162D01*
X164028943Y-81793117D01*
X164292192Y-81530327D01*
X164434838Y-81186799D01*
X164434915Y-81097305D01*
X170398674Y-81097305D01*
X170685043Y-81790372D01*
X171214839Y-82321093D01*
X171907405Y-82608672D01*
X172657305Y-82609326D01*
X173350372Y-82322957D01*
X173881093Y-81793161D01*
X174168672Y-81100595D01*
X174169326Y-80350695D01*
X173882957Y-79657628D01*
X173353161Y-79126907D01*
X172660595Y-78839328D01*
X171910695Y-78838674D01*
X171217628Y-79125043D01*
X170686907Y-79654839D01*
X170399328Y-80347405D01*
X170398674Y-81097305D01*
X164434915Y-81097305D01*
X164435162Y-80814833D01*
X164293117Y-80471057D01*
X164030327Y-80207808D01*
X163686799Y-80065162D01*
X163314833Y-80064838D01*
X162971057Y-80206883D01*
X162707808Y-80469673D01*
X162565162Y-80813201D01*
X162564838Y-81185167D01*
X156334838Y-81185167D01*
X156335214Y-80755421D01*
X156147592Y-80301343D01*
X155846554Y-79999779D01*
X156146371Y-79700485D01*
X156334785Y-79246734D01*
X156335214Y-78755421D01*
X156147592Y-78301343D01*
X155800485Y-77953629D01*
X155346734Y-77765215D01*
X154855421Y-77764786D01*
X154401343Y-77952408D01*
X154099779Y-78253446D01*
X153800485Y-77953629D01*
X153346734Y-77765215D01*
X152855421Y-77764786D01*
X152401343Y-77952408D01*
X152099779Y-78253446D01*
X151800485Y-77953629D01*
X151346734Y-77765215D01*
X150855421Y-77764786D01*
X150401343Y-77952408D01*
X150099779Y-78253446D01*
X149800485Y-77953629D01*
X149346734Y-77765215D01*
X148855421Y-77764786D01*
X148401343Y-77952408D01*
X148099779Y-78253446D01*
X147800485Y-77953629D01*
X147346734Y-77765215D01*
X146855421Y-77764786D01*
X146401343Y-77952408D01*
X146099779Y-78253446D01*
X145800485Y-77953629D01*
X145346734Y-77765215D01*
X144855421Y-77764786D01*
X144401343Y-77952408D01*
X144099779Y-78253446D01*
X143800485Y-77953629D01*
X143346734Y-77765215D01*
X142855421Y-77764786D01*
X142401343Y-77952408D01*
X142099779Y-78253446D01*
X141800485Y-77953629D01*
X141346734Y-77765215D01*
X140855421Y-77764786D01*
X140401343Y-77952408D01*
X140099779Y-78253446D01*
X139800485Y-77953629D01*
X139346734Y-77765215D01*
X138855421Y-77764786D01*
X138401343Y-77952408D01*
X138099779Y-78253446D01*
X137800485Y-77953629D01*
X137346734Y-77765215D01*
X136855421Y-77764786D01*
X136401343Y-77952408D01*
X136099779Y-78253446D01*
X135800485Y-77953629D01*
X135346734Y-77765215D01*
X134855421Y-77764786D01*
X134401343Y-77952408D01*
X134099779Y-78253446D01*
X133800485Y-77953629D01*
X133346734Y-77765215D01*
X132855421Y-77764786D01*
X132401343Y-77952408D01*
X132099779Y-78253446D01*
X131800485Y-77953629D01*
X131346734Y-77765215D01*
X130855421Y-77764786D01*
X130401343Y-77952408D01*
X130099779Y-78253446D01*
X129800485Y-77953629D01*
X129346734Y-77765215D01*
X128855421Y-77764786D01*
X128401343Y-77952408D01*
X128099779Y-78253446D01*
X127800485Y-77953629D01*
X127346734Y-77765215D01*
X126855421Y-77764786D01*
X126401343Y-77952408D01*
X126099779Y-78253446D01*
X125800485Y-77953629D01*
X125346734Y-77765215D01*
X124855421Y-77764786D01*
X124401343Y-77952408D01*
X124099779Y-78253446D01*
X123800485Y-77953629D01*
X123346734Y-77765215D01*
X122855421Y-77764786D01*
X122401343Y-77952408D01*
X122099779Y-78253446D01*
X121800485Y-77953629D01*
X121346734Y-77765215D01*
X120855421Y-77764786D01*
X120401343Y-77952408D01*
X120099779Y-78253446D01*
X119800485Y-77953629D01*
X119346734Y-77765215D01*
X118855421Y-77764786D01*
X118401343Y-77952408D01*
X118099779Y-78253446D01*
X117800485Y-77953629D01*
X117346734Y-77765215D01*
X116855421Y-77764786D01*
X116401343Y-77952408D01*
X116053629Y-78299515D01*
X115865215Y-78753266D01*
X115864786Y-79244579D01*
X116052408Y-79698657D01*
X116195109Y-79841608D01*
X116048559Y-79935910D01*
X115903569Y-80148110D01*
X115852560Y-80400000D01*
X113234651Y-80400000D01*
X113235370Y-79577185D01*
X112911020Y-78792200D01*
X112310959Y-78191091D01*
X111526541Y-77865372D01*
X110677185Y-77864630D01*
X109892200Y-78188980D01*
X109291091Y-78789041D01*
X108965372Y-79573459D01*
X108964630Y-80422815D01*
X107785000Y-80422815D01*
X107785000Y-76685000D01*
X191414492Y-76685000D01*
X191414492Y-129315000D01*
M02*
