G04 #@! TF.FileFunction,Copper,L4,Bot,Signal*
%FSLAX46Y46*%
G04 Gerber Fmt 4.6, Leading zero omitted, Abs format (unit mm)*
G04 Created by KiCad (PCBNEW (2015-11-11 BZR 6310)-product) date Sun 20 Dec 2015 11:13:31 PM CST*
%MOMM*%
G01*
G04 APERTURE LIST*
%ADD10C,0.100000*%
%ADD11C,3.000000*%
%ADD12R,1.727200X2.032000*%
%ADD13O,1.727200X2.032000*%
%ADD14O,1.250000X0.950000*%
%ADD15O,1.000000X1.550000*%
%ADD16R,2.032000X1.727200*%
%ADD17O,2.032000X1.727200*%
%ADD18R,0.900000X1.200000*%
%ADD19R,1.200000X0.900000*%
%ADD20R,0.750000X1.200000*%
%ADD21R,1.200000X0.750000*%
%ADD22C,2.500000*%
%ADD23R,2.500000X2.500000*%
%ADD24R,1.200000X1.200000*%
%ADD25C,1.200000*%
%ADD26C,0.508000*%
%ADD27C,0.203200*%
%ADD28C,0.254000*%
%ADD29C,0.635000*%
%ADD30C,1.270000*%
G04 APERTURE END LIST*
D10*
D11*
X188100000Y-111500000D03*
X111100000Y-111500000D03*
X188100000Y-80000000D03*
X111100000Y-80000000D03*
D12*
X183300000Y-99520000D03*
D13*
X185840000Y-99520000D03*
X188380000Y-99520000D03*
D12*
X183300000Y-102060000D03*
D13*
X185840000Y-102060000D03*
X188380000Y-102060000D03*
D12*
X183300000Y-104600000D03*
D13*
X185840000Y-104600000D03*
X188380000Y-104600000D03*
D12*
X183300000Y-107140000D03*
D13*
X185840000Y-107140000D03*
X188380000Y-107140000D03*
D12*
X115736000Y-89614000D03*
D13*
X113196000Y-89614000D03*
X110656000Y-89614000D03*
D12*
X115736000Y-92154000D03*
D13*
X113196000Y-92154000D03*
X110656000Y-92154000D03*
D12*
X115736000Y-94694000D03*
D13*
X113196000Y-94694000D03*
X110656000Y-94694000D03*
D12*
X115736000Y-97234000D03*
D13*
X113196000Y-97234000D03*
X110656000Y-97234000D03*
D12*
X115736000Y-99774000D03*
D13*
X113196000Y-99774000D03*
X110656000Y-99774000D03*
D12*
X115736000Y-102314000D03*
D13*
X113196000Y-102314000D03*
X110656000Y-102314000D03*
D12*
X115736000Y-104854000D03*
D13*
X113196000Y-104854000D03*
X110656000Y-104854000D03*
D12*
X115736000Y-107394000D03*
D13*
X113196000Y-107394000D03*
X110656000Y-107394000D03*
D14*
X171655100Y-124373460D03*
X176655100Y-124373460D03*
D15*
X170655100Y-127073460D03*
X177655100Y-127073460D03*
D16*
X110529000Y-122380000D03*
D17*
X110529000Y-124920000D03*
X110529000Y-127460000D03*
D16*
X113069000Y-122380000D03*
D17*
X113069000Y-124920000D03*
X113069000Y-127460000D03*
D16*
X115609000Y-122380000D03*
D17*
X115609000Y-124920000D03*
X115609000Y-127460000D03*
D16*
X118149000Y-122380000D03*
D17*
X118149000Y-124920000D03*
X118149000Y-127460000D03*
D16*
X120689000Y-122380000D03*
D17*
X120689000Y-124920000D03*
X120689000Y-127460000D03*
D16*
X123229000Y-122380000D03*
D17*
X123229000Y-124920000D03*
X123229000Y-127460000D03*
D16*
X125769000Y-122380000D03*
D17*
X125769000Y-124920000D03*
X125769000Y-127460000D03*
D16*
X128309000Y-122380000D03*
D17*
X128309000Y-124920000D03*
X128309000Y-127460000D03*
D16*
X141009000Y-122380000D03*
D17*
X141009000Y-124920000D03*
X141009000Y-127460000D03*
D16*
X143549000Y-122380000D03*
D17*
X143549000Y-124920000D03*
X143549000Y-127460000D03*
D16*
X146089000Y-122380000D03*
D17*
X146089000Y-124920000D03*
X146089000Y-127460000D03*
D16*
X148629000Y-122380000D03*
D17*
X148629000Y-124920000D03*
X148629000Y-127460000D03*
D16*
X151169000Y-122380000D03*
D17*
X151169000Y-124920000D03*
X151169000Y-127460000D03*
D16*
X153709000Y-122380000D03*
D17*
X153709000Y-124920000D03*
X153709000Y-127460000D03*
D16*
X156249000Y-122380000D03*
D17*
X156249000Y-124920000D03*
X156249000Y-127460000D03*
D16*
X158789000Y-122380000D03*
D17*
X158789000Y-124920000D03*
X158789000Y-127460000D03*
D18*
X131090000Y-85380000D03*
X131090000Y-83180000D03*
X133100000Y-85380000D03*
X133100000Y-83180000D03*
X173810000Y-113700000D03*
X173810000Y-115900000D03*
X135090000Y-85380000D03*
X135090000Y-83180000D03*
X137100000Y-85380000D03*
X137100000Y-83180000D03*
D19*
X148746000Y-91904000D03*
X150946000Y-91904000D03*
X148596000Y-86594000D03*
X150796000Y-86594000D03*
X153720000Y-89880000D03*
X151520000Y-89880000D03*
X145550000Y-107570000D03*
X143350000Y-107570000D03*
X145550000Y-109410000D03*
X143350000Y-109410000D03*
D18*
X110529000Y-120051000D03*
X110529000Y-117851000D03*
X113069000Y-120051000D03*
X113069000Y-117851000D03*
D19*
X123010000Y-106500000D03*
X125210000Y-106500000D03*
X122730000Y-93490000D03*
X124930000Y-93490000D03*
X124860000Y-87650000D03*
X122660000Y-87650000D03*
X124880000Y-89430000D03*
X122680000Y-89430000D03*
X126980000Y-95070000D03*
X129180000Y-95070000D03*
D18*
X115609000Y-120051000D03*
X115609000Y-117851000D03*
X118149000Y-120051000D03*
X118149000Y-117851000D03*
X120689000Y-120051000D03*
X120689000Y-117851000D03*
X123229000Y-120051000D03*
X123229000Y-117851000D03*
X125769000Y-120051000D03*
X125769000Y-117851000D03*
X128309000Y-120051000D03*
X128309000Y-117851000D03*
X141009000Y-120051000D03*
X141009000Y-117851000D03*
X143549000Y-120051000D03*
X143549000Y-117851000D03*
X146089000Y-120051000D03*
X146089000Y-117851000D03*
X148629000Y-120051000D03*
X148629000Y-117851000D03*
X151169000Y-120051000D03*
X151169000Y-117851000D03*
X153709000Y-120051000D03*
X153709000Y-117851000D03*
X156249000Y-120051000D03*
X156249000Y-117851000D03*
X158789000Y-120051000D03*
X158789000Y-117851000D03*
D16*
X134532000Y-122380000D03*
D17*
X134532000Y-124920000D03*
X134532000Y-127460000D03*
D16*
X165012000Y-122380000D03*
D17*
X165012000Y-124920000D03*
X165012000Y-127460000D03*
D18*
X157660000Y-94870000D03*
X157660000Y-97070000D03*
X155614000Y-94864000D03*
X155614000Y-97064000D03*
D20*
X172802000Y-121298000D03*
X172802000Y-119398000D03*
X174834000Y-121298000D03*
X174834000Y-119398000D03*
D21*
X168490000Y-113160000D03*
X166590000Y-113160000D03*
D19*
X153740000Y-84570000D03*
X151540000Y-84570000D03*
D21*
X129170000Y-104680000D03*
X127270000Y-104680000D03*
X129130000Y-91810000D03*
X127230000Y-91810000D03*
X140595000Y-101265000D03*
X138695000Y-101265000D03*
X139640000Y-105030000D03*
X141540000Y-105030000D03*
X137340000Y-107490000D03*
X135440000Y-107490000D03*
X169200000Y-103600000D03*
X167300000Y-103600000D03*
D20*
X142575000Y-101775000D03*
X142575000Y-99875000D03*
D21*
X123010000Y-104690000D03*
X124910000Y-104690000D03*
X122750000Y-91810000D03*
X124650000Y-91810000D03*
X123010000Y-100270000D03*
X124910000Y-100270000D03*
X129170000Y-100270000D03*
X127270000Y-100270000D03*
D12*
X118310000Y-84890000D03*
D13*
X115770000Y-84890000D03*
X113230000Y-84890000D03*
X110690000Y-84890000D03*
D22*
X172284000Y-80724000D03*
D23*
X182284000Y-80724000D03*
D22*
X177284000Y-80724000D03*
D21*
X179010000Y-117400000D03*
X180910000Y-117400000D03*
X179010000Y-115720000D03*
X180910000Y-115720000D03*
D19*
X168540000Y-116980000D03*
X166340000Y-116980000D03*
D24*
X117100000Y-81000000D03*
D25*
X117100000Y-79000000D03*
X119100000Y-81000000D03*
X119100000Y-79000000D03*
X121100000Y-81000000D03*
X121100000Y-79000000D03*
X123100000Y-81000000D03*
X123100000Y-79000000D03*
X125100000Y-81000000D03*
X125100000Y-79000000D03*
X127100000Y-81000000D03*
X127100000Y-79000000D03*
X129100000Y-81000000D03*
X129100000Y-79000000D03*
X131100000Y-81000000D03*
X131100000Y-79000000D03*
X133100000Y-81000000D03*
X133100000Y-79000000D03*
X135100000Y-81000000D03*
X135100000Y-79000000D03*
X137100000Y-81000000D03*
X137100000Y-79000000D03*
X139100000Y-81000000D03*
X139100000Y-79000000D03*
X141100000Y-81000000D03*
X141100000Y-79000000D03*
X143100000Y-81000000D03*
X143100000Y-79000000D03*
X145100000Y-81000000D03*
X145100000Y-79000000D03*
X147100000Y-81000000D03*
X147100000Y-79000000D03*
X149100000Y-81000000D03*
X149100000Y-79000000D03*
X151100000Y-81000000D03*
X151100000Y-79000000D03*
X153100000Y-81000000D03*
X153100000Y-79000000D03*
X155100000Y-81000000D03*
X155100000Y-79000000D03*
D21*
X138712000Y-97176000D03*
X140612000Y-97176000D03*
X140612000Y-99208000D03*
X138712000Y-99208000D03*
D26*
X142070000Y-103580000D03*
X138580000Y-105060000D03*
X131170000Y-91810000D03*
X127680000Y-93780000D03*
X132100000Y-86870000D03*
X136050000Y-86800000D03*
X148740000Y-93000000D03*
X148590000Y-87660000D03*
X130410000Y-104690000D03*
X130420000Y-100270000D03*
X152050000Y-91890000D03*
X160430000Y-99570000D03*
X148950000Y-89890000D03*
X151890000Y-86580000D03*
X138630000Y-110740000D03*
X148820000Y-84580000D03*
X148300000Y-107560000D03*
X141375000Y-96075000D03*
X142575000Y-98625000D03*
X142780000Y-105030000D03*
X137230000Y-102060000D03*
X130280000Y-116380000D03*
X129750000Y-109440000D03*
X138640000Y-109440000D03*
X130360000Y-92450000D03*
X126110000Y-104680000D03*
X167290000Y-102630000D03*
X159070000Y-97330000D03*
X180760000Y-95910000D03*
X177730000Y-104950000D03*
X177720000Y-103960000D03*
X164250000Y-100360000D03*
X138585000Y-100255000D03*
X134270000Y-107490000D03*
X182180000Y-117400000D03*
X182200000Y-115720000D03*
X165260000Y-114440000D03*
X171510000Y-119410000D03*
X176140000Y-119410000D03*
X159090000Y-93950000D03*
X171110000Y-100100000D03*
X176570000Y-93930000D03*
X171120000Y-87750000D03*
X155850000Y-85830000D03*
X163500000Y-81000000D03*
X177570000Y-114450000D03*
X169870000Y-115080000D03*
X175450000Y-122960000D03*
X130350000Y-107490000D03*
X129750000Y-108140000D03*
X130350000Y-108790000D03*
X125970000Y-91810000D03*
X126080000Y-100270000D03*
X121660000Y-95070000D03*
X121260000Y-86390000D03*
X171700000Y-121300000D03*
X175975000Y-121300000D03*
X159090000Y-95630000D03*
X172330000Y-113810000D03*
X139665000Y-96025000D03*
X153740000Y-83440000D03*
X153720000Y-88740000D03*
X125470000Y-84900000D03*
X125210000Y-107500000D03*
X126030000Y-93490000D03*
X180270000Y-111310000D03*
X170420000Y-103610000D03*
X146890000Y-109410000D03*
X146890000Y-107570000D03*
X138740000Y-107490000D03*
X121640000Y-100280000D03*
X141990000Y-107560000D03*
X141980000Y-109420000D03*
X129720000Y-110740000D03*
X130330000Y-111390000D03*
X121780000Y-104690000D03*
X121390000Y-91810000D03*
X120110000Y-87090000D03*
X121220000Y-89430000D03*
X130380000Y-95070000D03*
X129660000Y-112040000D03*
X130280000Y-112680000D03*
X129670000Y-113340000D03*
X130270000Y-113990000D03*
X129650000Y-114630000D03*
X130170000Y-115280000D03*
X138620000Y-115950000D03*
X139200000Y-115290000D03*
X138610000Y-114640000D03*
X139210000Y-113990000D03*
X138610000Y-113340000D03*
X139190000Y-112690000D03*
X138640000Y-112040000D03*
X139210000Y-111390000D03*
X171880000Y-107900000D03*
X158850000Y-107520000D03*
X158850000Y-108690000D03*
X155620000Y-98590000D03*
X175030000Y-116790000D03*
X140575000Y-100225000D03*
X143625000Y-101775000D03*
X134660000Y-105160000D03*
X146275000Y-96075000D03*
X135330000Y-102290000D03*
X128080000Y-81900000D03*
X134040000Y-103270000D03*
X136100000Y-104260000D03*
X130060000Y-81900000D03*
X179930000Y-118590000D03*
X169810000Y-113160000D03*
X177540000Y-115710000D03*
X126660000Y-84920000D03*
X170190000Y-109710000D03*
X169870000Y-116980000D03*
D27*
X139610000Y-105060000D02*
X138580000Y-105060000D01*
X139610000Y-105060000D02*
X139640000Y-105030000D01*
D28*
X131170000Y-91810000D02*
X129130000Y-91810000D01*
X126980000Y-93980000D02*
X127180000Y-93780000D01*
X127180000Y-93780000D02*
X127680000Y-93780000D01*
X126980000Y-93980000D02*
X126980000Y-95070000D01*
X148746000Y-92994000D02*
X148740000Y-93000000D01*
X148746000Y-91904000D02*
X148746000Y-92994000D01*
X137100000Y-85380000D02*
X137100000Y-86470000D01*
X135090000Y-86450000D02*
X135440000Y-86800000D01*
X135440000Y-86800000D02*
X136050000Y-86800000D01*
X135090000Y-86450000D02*
X135090000Y-85380000D01*
X136770000Y-86800000D02*
X136050000Y-86800000D01*
X137100000Y-86470000D02*
X136770000Y-86800000D01*
X133100000Y-85380000D02*
X133100000Y-86530000D01*
X133100000Y-86530000D02*
X132760000Y-86870000D01*
X132760000Y-86870000D02*
X132100000Y-86870000D01*
X131090000Y-86510000D02*
X131450000Y-86870000D01*
X131090000Y-86510000D02*
X131090000Y-85380000D01*
X131450000Y-86870000D02*
X132100000Y-86870000D01*
X148596000Y-86594000D02*
X148596000Y-87654000D01*
X148596000Y-87654000D02*
X148590000Y-87660000D01*
X130400000Y-104680000D02*
X129170000Y-104680000D01*
X130410000Y-104690000D02*
X130400000Y-104680000D01*
X129170000Y-100270000D02*
X130420000Y-100270000D01*
X152050000Y-91890000D02*
X152036000Y-91904000D01*
X152036000Y-91904000D02*
X150946000Y-91904000D01*
X159760000Y-92370000D02*
X154010000Y-92370000D01*
X160430000Y-93040000D02*
X159760000Y-92370000D01*
X160430000Y-99570000D02*
X160430000Y-93040000D01*
X154010000Y-92370000D02*
X151520000Y-89880000D01*
X148960000Y-89880000D02*
X151520000Y-89880000D01*
X148950000Y-89890000D02*
X148960000Y-89880000D01*
X151876000Y-86594000D02*
X150796000Y-86594000D01*
X151890000Y-86580000D02*
X151876000Y-86594000D01*
X148830000Y-84570000D02*
X151540000Y-84570000D01*
X148820000Y-84580000D02*
X148830000Y-84570000D01*
X148300000Y-110420000D02*
X148300000Y-107560000D01*
X147990000Y-110730000D02*
X148300000Y-110420000D01*
X138640000Y-110730000D02*
X147990000Y-110730000D01*
X138630000Y-110740000D02*
X138640000Y-110730000D01*
X110529000Y-120051000D02*
X110529000Y-122380000D01*
X140612000Y-97176000D02*
X140612000Y-96313000D01*
X140850000Y-96075000D02*
X141375000Y-96075000D01*
X140612000Y-96313000D02*
X140850000Y-96075000D01*
D27*
X142575000Y-99875000D02*
X142575000Y-98625000D01*
X141540000Y-105030000D02*
X142780000Y-105030000D01*
D29*
X157660000Y-97070000D02*
X158810000Y-97070000D01*
X158810000Y-97070000D02*
X159070000Y-97330000D01*
D28*
X167300000Y-103600000D02*
X167300000Y-102640000D01*
X167300000Y-102640000D02*
X167290000Y-102630000D01*
X158810000Y-97070000D02*
X159070000Y-97330000D01*
D27*
X138585000Y-100255000D02*
X138585000Y-101155000D01*
X138585000Y-101155000D02*
X138695000Y-101265000D01*
X138585000Y-100255000D02*
X138585000Y-99335000D01*
X138585000Y-99335000D02*
X138712000Y-99208000D01*
D28*
X135440000Y-107490000D02*
X134270000Y-107490000D01*
X180910000Y-117400000D02*
X182180000Y-117400000D01*
X180910000Y-115720000D02*
X182200000Y-115720000D01*
X166590000Y-113160000D02*
X165520000Y-113160000D01*
X165260000Y-113420000D02*
X165260000Y-114440000D01*
X165520000Y-113160000D02*
X165260000Y-113420000D01*
X172802000Y-119398000D02*
X171522000Y-119398000D01*
X171522000Y-119398000D02*
X171510000Y-119410000D01*
X174834000Y-119398000D02*
X176128000Y-119398000D01*
X176128000Y-119398000D02*
X176140000Y-119410000D01*
X124650000Y-91810000D02*
X125970000Y-91810000D01*
X125970000Y-91810000D02*
X127230000Y-91810000D01*
X124910000Y-100270000D02*
X126080000Y-100270000D01*
X127270000Y-100270000D02*
X126080000Y-100270000D01*
X124910000Y-104690000D02*
X126100000Y-104690000D01*
X126110000Y-104680000D02*
X127270000Y-104680000D01*
X126100000Y-104690000D02*
X126110000Y-104680000D01*
X113069000Y-120051000D02*
X113069000Y-122380000D01*
X115609000Y-120051000D02*
X115609000Y-122380000D01*
X118149000Y-120051000D02*
X118149000Y-122380000D01*
X120689000Y-120051000D02*
X120689000Y-122380000D01*
X123229000Y-120051000D02*
X123229000Y-122380000D01*
X125769000Y-120051000D02*
X125769000Y-122380000D01*
X128309000Y-120051000D02*
X128309000Y-122380000D01*
X141009000Y-122380000D02*
X141009000Y-120051000D01*
X143549000Y-122380000D02*
X143549000Y-120051000D01*
X146089000Y-122380000D02*
X146089000Y-120051000D01*
X148629000Y-122380000D02*
X148629000Y-120051000D01*
X151169000Y-122380000D02*
X151169000Y-120051000D01*
X153709000Y-122380000D02*
X153709000Y-120051000D01*
X156249000Y-122380000D02*
X156249000Y-120051000D01*
X158789000Y-122380000D02*
X158789000Y-120051000D01*
X124860000Y-87650000D02*
X124860000Y-89410000D01*
X124860000Y-89410000D02*
X124880000Y-89430000D01*
X124860000Y-86780000D02*
X124860000Y-87650000D01*
X124470000Y-86390000D02*
X124860000Y-86780000D01*
X121260000Y-86390000D02*
X124470000Y-86390000D01*
D30*
X113196000Y-89614000D02*
X113196000Y-87814000D01*
X118310000Y-86790000D02*
X118310000Y-84890000D01*
X117700000Y-87400000D02*
X118310000Y-86790000D01*
X113610000Y-87400000D02*
X117700000Y-87400000D01*
X113196000Y-87814000D02*
X113610000Y-87400000D01*
X113196000Y-92154000D02*
X113196000Y-89614000D01*
X113196000Y-94694000D02*
X113196000Y-92154000D01*
X113196000Y-97234000D02*
X113196000Y-94694000D01*
X113196000Y-99774000D02*
X113196000Y-97234000D01*
X113196000Y-102314000D02*
X113196000Y-99774000D01*
X113196000Y-104854000D02*
X113196000Y-102314000D01*
X113196000Y-107394000D02*
X113196000Y-104854000D01*
D28*
X172802000Y-121298000D02*
X171702000Y-121298000D01*
X171702000Y-121298000D02*
X171700000Y-121300000D01*
X174834000Y-121298000D02*
X175973000Y-121298000D01*
X175973000Y-121298000D02*
X175975000Y-121300000D01*
D29*
X157660000Y-94870000D02*
X158330000Y-94870000D01*
X158330000Y-94870000D02*
X159090000Y-95630000D01*
X155614000Y-94864000D02*
X157654000Y-94864000D01*
X157654000Y-94864000D02*
X157660000Y-94870000D01*
D28*
X157660000Y-94870000D02*
X155620000Y-94870000D01*
X155620000Y-94870000D02*
X155614000Y-94864000D01*
X131090000Y-83180000D02*
X131090000Y-81010000D01*
X131090000Y-81010000D02*
X131100000Y-81000000D01*
X133100000Y-83180000D02*
X133100000Y-81000000D01*
X172340000Y-113820000D02*
X173690000Y-113820000D01*
X172330000Y-113810000D02*
X172340000Y-113820000D01*
X173690000Y-113820000D02*
X173810000Y-113700000D01*
X135090000Y-83180000D02*
X135090000Y-81010000D01*
X135090000Y-81010000D02*
X135100000Y-81000000D01*
X137100000Y-83180000D02*
X137100000Y-81000000D01*
X153720000Y-89880000D02*
X153720000Y-88740000D01*
X153740000Y-84570000D02*
X153740000Y-83440000D01*
X125210000Y-106500000D02*
X125210000Y-107500000D01*
X124930000Y-93490000D02*
X126030000Y-93490000D01*
X169200000Y-103600000D02*
X170410000Y-103600000D01*
X170410000Y-103600000D02*
X170420000Y-103610000D01*
X138712000Y-97176000D02*
X138712000Y-96238000D01*
X138925000Y-96025000D02*
X139665000Y-96025000D01*
X138712000Y-96238000D02*
X138925000Y-96025000D01*
X145550000Y-109410000D02*
X146890000Y-109410000D01*
X145550000Y-107570000D02*
X146890000Y-107570000D01*
X138740000Y-107490000D02*
X137340000Y-107490000D01*
X123010000Y-100270000D02*
X121650000Y-100270000D01*
X121650000Y-100270000D02*
X121640000Y-100280000D01*
X143350000Y-107570000D02*
X142000000Y-107570000D01*
X142000000Y-107570000D02*
X141990000Y-107560000D01*
X143350000Y-109410000D02*
X141990000Y-109410000D01*
X141990000Y-109410000D02*
X141980000Y-109420000D01*
X129720000Y-110740000D02*
X114540000Y-110740000D01*
X110529000Y-117851000D02*
X110529000Y-114331000D01*
X111000000Y-113860000D02*
X110529000Y-114331000D01*
X113570000Y-113860000D02*
X111000000Y-113860000D01*
X114050000Y-113380000D02*
X113570000Y-113860000D01*
X114050000Y-111230000D02*
X114050000Y-113380000D01*
X114540000Y-110740000D02*
X114050000Y-111230000D01*
X130320000Y-111400000D02*
X115300000Y-111400000D01*
X130330000Y-111390000D02*
X130320000Y-111400000D01*
X113069000Y-117851000D02*
X113069000Y-114871000D01*
X113430000Y-114510000D02*
X113069000Y-114871000D01*
X114490000Y-114510000D02*
X113430000Y-114510000D01*
X114830000Y-114170000D02*
X114490000Y-114510000D01*
X114830000Y-111870000D02*
X114830000Y-114170000D01*
X115300000Y-111400000D02*
X114830000Y-111870000D01*
X123010000Y-106500000D02*
X123010000Y-104690000D01*
X121780000Y-104690000D02*
X123010000Y-104690000D01*
X122730000Y-93490000D02*
X122730000Y-91830000D01*
X122730000Y-91830000D02*
X122750000Y-91810000D01*
X121390000Y-91810000D02*
X122750000Y-91810000D01*
X122660000Y-87650000D02*
X120670000Y-87650000D01*
X120670000Y-87650000D02*
X120110000Y-87090000D01*
X122680000Y-89430000D02*
X121220000Y-89430000D01*
X130380000Y-95070000D02*
X129180000Y-95070000D01*
X115609000Y-112541000D02*
X115609000Y-117851000D01*
X116110000Y-112040000D02*
X115609000Y-112541000D01*
X129660000Y-112040000D02*
X116110000Y-112040000D01*
X118670000Y-112680000D02*
X130280000Y-112680000D01*
X118670000Y-112680000D02*
X118149000Y-113201000D01*
X118149000Y-117851000D02*
X118149000Y-113201000D01*
X120689000Y-113791000D02*
X120689000Y-117851000D01*
X121150000Y-113330000D02*
X120689000Y-113791000D01*
X129660000Y-113330000D02*
X121150000Y-113330000D01*
X129670000Y-113340000D02*
X129660000Y-113330000D01*
X123610000Y-113990000D02*
X130270000Y-113990000D01*
X123610000Y-113990000D02*
X123229000Y-114371000D01*
X123229000Y-117851000D02*
X123229000Y-114371000D01*
X129650000Y-114630000D02*
X126110000Y-114630000D01*
X126110000Y-114630000D02*
X125769000Y-114971000D01*
X125769000Y-117851000D02*
X125769000Y-114971000D01*
X128309000Y-115671000D02*
X128309000Y-117851000D01*
X128700000Y-115280000D02*
X128309000Y-115671000D01*
X130170000Y-115280000D02*
X128700000Y-115280000D01*
X141009000Y-116279000D02*
X141009000Y-117851000D01*
X140680000Y-115950000D02*
X141009000Y-116279000D01*
X138620000Y-115950000D02*
X140680000Y-115950000D01*
X143549000Y-115799000D02*
X143549000Y-117851000D01*
X143040000Y-115290000D02*
X143549000Y-115799000D01*
X139200000Y-115290000D02*
X143040000Y-115290000D01*
X146089000Y-115179000D02*
X146089000Y-117851000D01*
X145550000Y-114640000D02*
X146089000Y-115179000D01*
X138610000Y-114640000D02*
X145550000Y-114640000D01*
X139210000Y-113990000D02*
X148140000Y-113990000D01*
X148629000Y-114479000D02*
X148629000Y-117851000D01*
X148140000Y-113990000D02*
X148629000Y-114479000D01*
X148629000Y-117409000D02*
X148629000Y-117851000D01*
X151169000Y-113799000D02*
X151169000Y-117851000D01*
X150720000Y-113350000D02*
X151169000Y-113799000D01*
X138620000Y-113350000D02*
X150720000Y-113350000D01*
X138610000Y-113340000D02*
X138620000Y-113350000D01*
X153709000Y-113099000D02*
X153709000Y-117851000D01*
X153290000Y-112680000D02*
X153709000Y-113099000D01*
X139200000Y-112680000D02*
X153290000Y-112680000D01*
X139190000Y-112670000D02*
X139200000Y-112680000D01*
X139190000Y-112690000D02*
X139190000Y-112670000D01*
X156249000Y-112429000D02*
X156249000Y-117851000D01*
X155860000Y-112040000D02*
X156249000Y-112429000D01*
X138640000Y-112040000D02*
X155860000Y-112040000D01*
X158789000Y-111849000D02*
X158789000Y-117851000D01*
X158340000Y-111400000D02*
X158789000Y-111849000D01*
X139220000Y-111400000D02*
X158340000Y-111400000D01*
X139210000Y-111390000D02*
X139220000Y-111400000D01*
X127100000Y-81000000D02*
X126100000Y-80000000D01*
X126650000Y-77160000D02*
X161560000Y-77160000D01*
X126100000Y-77710000D02*
X126650000Y-77160000D01*
X126100000Y-80000000D02*
X126100000Y-77710000D01*
X161940000Y-77540000D02*
X161560000Y-77160000D01*
X161940000Y-107590000D02*
X161940000Y-77540000D01*
X162250000Y-107900000D02*
X161940000Y-107590000D01*
X171880000Y-107900000D02*
X162250000Y-107900000D01*
D29*
X155614000Y-97064000D02*
X155614000Y-98584000D01*
X155614000Y-98584000D02*
X155620000Y-98590000D01*
D28*
X155614000Y-98584000D02*
X155620000Y-98590000D01*
X129100000Y-81000000D02*
X128090000Y-79990000D01*
X128600000Y-77720000D02*
X160960000Y-77720000D01*
X128090000Y-78230000D02*
X128600000Y-77720000D01*
X128090000Y-79990000D02*
X128090000Y-78230000D01*
X161420000Y-78180000D02*
X160960000Y-77720000D01*
X161420000Y-108110000D02*
X161420000Y-78180000D01*
X161820000Y-108510000D02*
X161420000Y-108110000D01*
X171000000Y-108510000D02*
X161820000Y-108510000D01*
X171600000Y-109110000D02*
X171000000Y-108510000D01*
X171600000Y-116770000D02*
X171600000Y-109110000D01*
X171810000Y-116980000D02*
X171600000Y-116770000D01*
X174840000Y-116980000D02*
X171810000Y-116980000D01*
X175030000Y-116790000D02*
X174840000Y-116980000D01*
D27*
X140575000Y-100225000D02*
X140575000Y-101245000D01*
X140575000Y-101245000D02*
X140595000Y-101265000D01*
X140575000Y-99245000D02*
X140575000Y-100225000D01*
X140575000Y-99245000D02*
X140612000Y-99208000D01*
X143625000Y-101775000D02*
X142575000Y-101775000D01*
X125100000Y-79000000D02*
X125090000Y-79000000D01*
X125090000Y-79000000D02*
X124130000Y-79960000D01*
X134660000Y-89345000D02*
X134660000Y-105160000D01*
X134165000Y-88850000D02*
X134660000Y-89345000D01*
X129090000Y-88850000D02*
X134165000Y-88850000D01*
X128820000Y-88580000D02*
X129090000Y-88850000D01*
X128820000Y-84537000D02*
X128820000Y-88580000D01*
X127873000Y-83590000D02*
X128820000Y-84537000D01*
X124650000Y-83590000D02*
X127873000Y-83590000D01*
X124130000Y-83070000D02*
X124650000Y-83590000D01*
X124130000Y-79960000D02*
X124130000Y-83070000D01*
X125100000Y-79000000D02*
X125100000Y-79010000D01*
X149100000Y-82700000D02*
X149100000Y-81000000D01*
X148625000Y-83175000D02*
X149100000Y-82700000D01*
X147125000Y-83175000D02*
X148625000Y-83175000D01*
X146775000Y-83525000D02*
X147125000Y-83175000D01*
X146775000Y-95575000D02*
X146775000Y-83525000D01*
X146275000Y-96075000D02*
X146775000Y-95575000D01*
X135330000Y-88820000D02*
X135330000Y-102290000D01*
X134890000Y-88380000D02*
X135330000Y-88820000D01*
X129620000Y-88380000D02*
X134890000Y-88380000D01*
X129330000Y-88090000D02*
X129620000Y-88380000D01*
X129330000Y-84033000D02*
X129330000Y-88090000D01*
X128080000Y-82783000D02*
X129330000Y-84033000D01*
X128080000Y-81900000D02*
X128080000Y-82783000D01*
X123100000Y-79000000D02*
X122100000Y-80000000D01*
X122840000Y-84180000D02*
X127510000Y-84180000D01*
X122100000Y-83440000D02*
X122840000Y-84180000D01*
X122100000Y-80000000D02*
X122100000Y-83440000D01*
X127510000Y-84180000D02*
X128280000Y-84950000D01*
X128280000Y-84950000D02*
X128280000Y-89210000D01*
X128280000Y-89210000D02*
X128510000Y-89440000D01*
X128510000Y-89440000D02*
X133595000Y-89440000D01*
X133595000Y-89440000D02*
X134040000Y-89885000D01*
X134040000Y-89885000D02*
X134040000Y-103270000D01*
X136100000Y-88435000D02*
X136100000Y-104260000D01*
X135663998Y-87998998D02*
X136100000Y-88435000D01*
X130358998Y-87998998D02*
X135663998Y-87998998D01*
X130060000Y-87700000D02*
X130358998Y-87998998D01*
X130060000Y-81900000D02*
X130060000Y-87700000D01*
D28*
X171020000Y-113460000D02*
X171020000Y-117860000D01*
X178380000Y-118030000D02*
X179010000Y-117400000D01*
X171190000Y-118030000D02*
X178380000Y-118030000D01*
X171020000Y-117860000D02*
X171190000Y-118030000D01*
X179930000Y-118590000D02*
X179140000Y-118590000D01*
X179140000Y-118590000D02*
X179010000Y-118460000D01*
X179010000Y-118460000D02*
X179010000Y-117400000D01*
X168490000Y-113160000D02*
X169810000Y-113160000D01*
X169810000Y-113160000D02*
X170720000Y-113160000D01*
X170720000Y-113160000D02*
X171020000Y-113460000D01*
X177540000Y-115710000D02*
X179000000Y-115710000D01*
X179000000Y-115710000D02*
X179010000Y-115720000D01*
X174640000Y-115900000D02*
X173810000Y-115900000D01*
X174830000Y-115710000D02*
X174640000Y-115900000D01*
X177540000Y-115710000D02*
X174830000Y-115710000D01*
X133900000Y-106110000D02*
X146640000Y-106110000D01*
X132745000Y-90010000D02*
X127990000Y-90010000D01*
X127990000Y-90010000D02*
X127640000Y-89660000D01*
X127640000Y-89660000D02*
X127640000Y-85350000D01*
X127640000Y-85350000D02*
X127210000Y-84920000D01*
X127210000Y-84920000D02*
X126660000Y-84920000D01*
X133240000Y-90505000D02*
X132745000Y-90010000D01*
X133240000Y-105450000D02*
X133240000Y-90505000D01*
X156660000Y-106420000D02*
X146950000Y-106420000D01*
X157020000Y-106780000D02*
X156660000Y-106420000D01*
X157020000Y-109310000D02*
X157020000Y-106780000D01*
X157420000Y-109710000D02*
X157020000Y-109310000D01*
X170190000Y-109710000D02*
X157420000Y-109710000D01*
X133900000Y-106110000D02*
X133240000Y-105450000D01*
X146640000Y-106110000D02*
X146950000Y-106420000D01*
X169860000Y-116980000D02*
X168540000Y-116980000D01*
X169870000Y-116990000D02*
X169860000Y-116980000D01*
X169870000Y-116980000D02*
X169870000Y-116990000D01*
X133120000Y-106640000D02*
X146320000Y-106640000D01*
X133120000Y-106640000D02*
X132320000Y-105840000D01*
X132320000Y-105840000D02*
X132320000Y-90890000D01*
X132320000Y-90890000D02*
X131880000Y-90450000D01*
X131880000Y-90450000D02*
X127450000Y-90450000D01*
X127450000Y-90450000D02*
X127110000Y-90110000D01*
X127110000Y-90110000D02*
X127110000Y-85690000D01*
X127110000Y-85690000D02*
X126960000Y-85540000D01*
X126960000Y-85540000D02*
X120560000Y-85540000D01*
X120560000Y-85540000D02*
X120100000Y-85080000D01*
X120100000Y-85080000D02*
X120100000Y-80000000D01*
X121100000Y-79000000D02*
X120100000Y-80000000D01*
X159870000Y-110720000D02*
X156730000Y-110720000D01*
X146591802Y-106911802D02*
X146320000Y-106640000D01*
X156021802Y-106911802D02*
X146591802Y-106911802D01*
X156320000Y-107210000D02*
X156021802Y-106911802D01*
X156320000Y-110310000D02*
X156320000Y-107210000D01*
X156730000Y-110720000D02*
X156320000Y-110310000D01*
X161030000Y-116980000D02*
X166340000Y-116980000D01*
X160520000Y-111370000D02*
X159870000Y-110720000D01*
X160520000Y-116470000D02*
X160520000Y-111370000D01*
X161030000Y-116980000D02*
X160520000Y-116470000D01*
M02*
