G04 #@! TF.FileFunction,Copper,L2,Inr,Mixed*
%FSLAX46Y46*%
G04 Gerber Fmt 4.6, Leading zero omitted, Abs format (unit mm)*
G04 Created by KiCad (PCBNEW (2015-11-11 BZR 6310)-product) date Fri 18 Dec 2015 01:13:21 AM CST*
%MOMM*%
G01*
G04 APERTURE LIST*
%ADD10C,0.100000*%
%ADD11C,3.000000*%
%ADD12R,1.727200X2.032000*%
%ADD13O,1.727200X2.032000*%
%ADD14O,1.250000X0.950000*%
%ADD15O,1.000000X1.550000*%
%ADD16R,2.032000X1.727200*%
%ADD17O,2.032000X1.727200*%
%ADD18C,2.500000*%
%ADD19R,2.500000X2.500000*%
%ADD20R,1.200000X1.200000*%
%ADD21C,1.200000*%
%ADD22C,0.600000*%
%ADD23C,0.254000*%
G04 APERTURE END LIST*
D10*
D11*
X188100000Y-111500000D03*
X111100000Y-111500000D03*
X188100000Y-80000000D03*
X111100000Y-80000000D03*
D12*
X183300000Y-99520000D03*
D13*
X185840000Y-99520000D03*
X188380000Y-99520000D03*
D12*
X183300000Y-102060000D03*
D13*
X185840000Y-102060000D03*
X188380000Y-102060000D03*
D12*
X183300000Y-104600000D03*
D13*
X185840000Y-104600000D03*
X188380000Y-104600000D03*
D12*
X183300000Y-107140000D03*
D13*
X185840000Y-107140000D03*
X188380000Y-107140000D03*
D12*
X115736000Y-89614000D03*
D13*
X113196000Y-89614000D03*
X110656000Y-89614000D03*
D12*
X115736000Y-92154000D03*
D13*
X113196000Y-92154000D03*
X110656000Y-92154000D03*
D12*
X115736000Y-94694000D03*
D13*
X113196000Y-94694000D03*
X110656000Y-94694000D03*
D12*
X115736000Y-97234000D03*
D13*
X113196000Y-97234000D03*
X110656000Y-97234000D03*
D12*
X115736000Y-99774000D03*
D13*
X113196000Y-99774000D03*
X110656000Y-99774000D03*
D12*
X115736000Y-102314000D03*
D13*
X113196000Y-102314000D03*
X110656000Y-102314000D03*
D12*
X115736000Y-104854000D03*
D13*
X113196000Y-104854000D03*
X110656000Y-104854000D03*
D12*
X115736000Y-107394000D03*
D13*
X113196000Y-107394000D03*
X110656000Y-107394000D03*
D14*
X171655100Y-124373460D03*
X176655100Y-124373460D03*
D15*
X170655100Y-127073460D03*
X177655100Y-127073460D03*
D16*
X110529000Y-122380000D03*
D17*
X110529000Y-124920000D03*
X110529000Y-127460000D03*
D16*
X113069000Y-122380000D03*
D17*
X113069000Y-124920000D03*
X113069000Y-127460000D03*
D16*
X115609000Y-122380000D03*
D17*
X115609000Y-124920000D03*
X115609000Y-127460000D03*
D16*
X118149000Y-122380000D03*
D17*
X118149000Y-124920000D03*
X118149000Y-127460000D03*
D16*
X120689000Y-122380000D03*
D17*
X120689000Y-124920000D03*
X120689000Y-127460000D03*
D16*
X123229000Y-122380000D03*
D17*
X123229000Y-124920000D03*
X123229000Y-127460000D03*
D16*
X125769000Y-122380000D03*
D17*
X125769000Y-124920000D03*
X125769000Y-127460000D03*
D16*
X128309000Y-122380000D03*
D17*
X128309000Y-124920000D03*
X128309000Y-127460000D03*
D16*
X141009000Y-122380000D03*
D17*
X141009000Y-124920000D03*
X141009000Y-127460000D03*
D16*
X143549000Y-122380000D03*
D17*
X143549000Y-124920000D03*
X143549000Y-127460000D03*
D16*
X146089000Y-122380000D03*
D17*
X146089000Y-124920000D03*
X146089000Y-127460000D03*
D16*
X148629000Y-122380000D03*
D17*
X148629000Y-124920000D03*
X148629000Y-127460000D03*
D16*
X151169000Y-122380000D03*
D17*
X151169000Y-124920000D03*
X151169000Y-127460000D03*
D16*
X153709000Y-122380000D03*
D17*
X153709000Y-124920000D03*
X153709000Y-127460000D03*
D16*
X156249000Y-122380000D03*
D17*
X156249000Y-124920000D03*
X156249000Y-127460000D03*
D16*
X158789000Y-122380000D03*
D17*
X158789000Y-124920000D03*
X158789000Y-127460000D03*
D16*
X134532000Y-122380000D03*
D17*
X134532000Y-124920000D03*
X134532000Y-127460000D03*
D16*
X165012000Y-122380000D03*
D17*
X165012000Y-124920000D03*
X165012000Y-127460000D03*
D12*
X118310000Y-84890000D03*
D13*
X115770000Y-84890000D03*
X113230000Y-84890000D03*
X110690000Y-84890000D03*
D18*
X172284000Y-80724000D03*
D19*
X182284000Y-80724000D03*
D18*
X177284000Y-80724000D03*
D20*
X117100000Y-81000000D03*
D21*
X117100000Y-79000000D03*
X119100000Y-81000000D03*
X119100000Y-79000000D03*
X121100000Y-81000000D03*
X121100000Y-79000000D03*
X123100000Y-81000000D03*
X123100000Y-79000000D03*
X125100000Y-81000000D03*
X125100000Y-79000000D03*
X127100000Y-81000000D03*
X127100000Y-79000000D03*
X129100000Y-81000000D03*
X129100000Y-79000000D03*
X131100000Y-81000000D03*
X131100000Y-79000000D03*
X133100000Y-81000000D03*
X133100000Y-79000000D03*
X135100000Y-81000000D03*
X135100000Y-79000000D03*
X137100000Y-81000000D03*
X137100000Y-79000000D03*
X139100000Y-81000000D03*
X139100000Y-79000000D03*
X141100000Y-81000000D03*
X141100000Y-79000000D03*
X143100000Y-81000000D03*
X143100000Y-79000000D03*
X145100000Y-81000000D03*
X145100000Y-79000000D03*
X147100000Y-81000000D03*
X147100000Y-79000000D03*
X149100000Y-81000000D03*
X149100000Y-79000000D03*
X151100000Y-81000000D03*
X151100000Y-79000000D03*
X153100000Y-81000000D03*
X153100000Y-79000000D03*
X155100000Y-81000000D03*
X155100000Y-79000000D03*
D22*
X131170000Y-91810000D03*
X141560000Y-105110000D03*
X127680000Y-93780000D03*
X132100000Y-86870000D03*
X136050000Y-86800000D03*
X148740000Y-93000000D03*
X140580000Y-101600000D03*
X148590000Y-87660000D03*
X130410000Y-104690000D03*
X130420000Y-100270000D03*
X152050000Y-91890000D03*
X160430000Y-99570000D03*
X148950000Y-89890000D03*
X151890000Y-86580000D03*
X148300000Y-107560000D03*
X138630000Y-110740000D03*
X148820000Y-84580000D03*
X130280000Y-116380000D03*
X129750000Y-109440000D03*
X138640000Y-109440000D03*
X147730000Y-105780000D03*
X130360000Y-92450000D03*
X126110000Y-104680000D03*
X167290000Y-102630000D03*
X149540000Y-103640000D03*
X159070000Y-97330000D03*
X180760000Y-95910000D03*
X177730000Y-104950000D03*
X177720000Y-103960000D03*
X164250000Y-100360000D03*
X145340000Y-101610000D03*
X143530000Y-100120000D03*
X137390000Y-100570000D03*
X134270000Y-107490000D03*
X182180000Y-117400000D03*
X182200000Y-115720000D03*
X165260000Y-114440000D03*
X171510000Y-119410000D03*
X176140000Y-119410000D03*
X159090000Y-93950000D03*
X171110000Y-100100000D03*
X176570000Y-93930000D03*
X171120000Y-87750000D03*
X155850000Y-85830000D03*
X163500000Y-81000000D03*
X177570000Y-114450000D03*
X169870000Y-115080000D03*
X175450000Y-122960000D03*
X130350000Y-107490000D03*
X129750000Y-108140000D03*
X130350000Y-108790000D03*
X125970000Y-91810000D03*
X126080000Y-100270000D03*
X121660000Y-95070000D03*
X121260000Y-86390000D03*
X159090000Y-95630000D03*
X172330000Y-113810000D03*
X153740000Y-83440000D03*
X153720000Y-88740000D03*
X125470000Y-84900000D03*
X125210000Y-107500000D03*
X126030000Y-93490000D03*
X180270000Y-111310000D03*
X170420000Y-103610000D03*
X149570000Y-102690000D03*
X146890000Y-109410000D03*
X146890000Y-107570000D03*
X138740000Y-107490000D03*
X121640000Y-100280000D03*
X141990000Y-107560000D03*
X141980000Y-109420000D03*
X129720000Y-110740000D03*
X130330000Y-111390000D03*
X121780000Y-104690000D03*
X121390000Y-91810000D03*
X120110000Y-87090000D03*
X121220000Y-89430000D03*
X130380000Y-95070000D03*
X129660000Y-112040000D03*
X130280000Y-112680000D03*
X129670000Y-113340000D03*
X130270000Y-113990000D03*
X129650000Y-114630000D03*
X130170000Y-115280000D03*
X138620000Y-115950000D03*
X139200000Y-115290000D03*
X138610000Y-114640000D03*
X139210000Y-113990000D03*
X138610000Y-113340000D03*
X139190000Y-112690000D03*
X138640000Y-112040000D03*
X139210000Y-111390000D03*
X171880000Y-107900000D03*
X158850000Y-107520000D03*
X158850000Y-108690000D03*
X155620000Y-98590000D03*
X175030000Y-116790000D03*
X145370000Y-103600000D03*
X136450000Y-104840000D03*
X148970000Y-99260000D03*
X138600000Y-98220000D03*
X126110000Y-81970000D03*
X136260000Y-98880000D03*
X128140000Y-81960000D03*
X139290000Y-99530000D03*
X179930000Y-118590000D03*
X169810000Y-113160000D03*
X177540000Y-115710000D03*
X170190000Y-109710000D03*
X126660000Y-84920000D03*
X169870000Y-116980000D03*
D23*
G36*
X191414492Y-129315000D02*
X107785000Y-129315000D01*
X107785000Y-127819026D01*
X108921642Y-127819026D01*
X108924291Y-127834791D01*
X109178268Y-128362036D01*
X109614680Y-128751954D01*
X110167087Y-128945184D01*
X110402000Y-128800924D01*
X110402000Y-127587000D01*
X110656000Y-127587000D01*
X110656000Y-128800924D01*
X110890913Y-128945184D01*
X111443320Y-128751954D01*
X111799000Y-128434167D01*
X112154680Y-128751954D01*
X112707087Y-128945184D01*
X112942000Y-128800924D01*
X112942000Y-127587000D01*
X113196000Y-127587000D01*
X113196000Y-128800924D01*
X113430913Y-128945184D01*
X113983320Y-128751954D01*
X114339000Y-128434167D01*
X114694680Y-128751954D01*
X115247087Y-128945184D01*
X115482000Y-128800924D01*
X115482000Y-127587000D01*
X115736000Y-127587000D01*
X115736000Y-128800924D01*
X115970913Y-128945184D01*
X116523320Y-128751954D01*
X116879000Y-128434167D01*
X117234680Y-128751954D01*
X117787087Y-128945184D01*
X118022000Y-128800924D01*
X118022000Y-127587000D01*
X118276000Y-127587000D01*
X118276000Y-128800924D01*
X118510913Y-128945184D01*
X119063320Y-128751954D01*
X119419000Y-128434167D01*
X119774680Y-128751954D01*
X120327087Y-128945184D01*
X120562000Y-128800924D01*
X120562000Y-127587000D01*
X120816000Y-127587000D01*
X120816000Y-128800924D01*
X121050913Y-128945184D01*
X121603320Y-128751954D01*
X121959000Y-128434167D01*
X122314680Y-128751954D01*
X122867087Y-128945184D01*
X123102000Y-128800924D01*
X123102000Y-127587000D01*
X123356000Y-127587000D01*
X123356000Y-128800924D01*
X123590913Y-128945184D01*
X124143320Y-128751954D01*
X124499000Y-128434167D01*
X124854680Y-128751954D01*
X125407087Y-128945184D01*
X125642000Y-128800924D01*
X125642000Y-127587000D01*
X125896000Y-127587000D01*
X125896000Y-128800924D01*
X126130913Y-128945184D01*
X126683320Y-128751954D01*
X127039000Y-128434167D01*
X127394680Y-128751954D01*
X127947087Y-128945184D01*
X128182000Y-128800924D01*
X128182000Y-127587000D01*
X128436000Y-127587000D01*
X128436000Y-128800924D01*
X128670913Y-128945184D01*
X129223320Y-128751954D01*
X129659732Y-128362036D01*
X129913709Y-127834791D01*
X129916358Y-127819026D01*
X129795217Y-127587000D01*
X128436000Y-127587000D01*
X128182000Y-127587000D01*
X125896000Y-127587000D01*
X125642000Y-127587000D01*
X123356000Y-127587000D01*
X123102000Y-127587000D01*
X120816000Y-127587000D01*
X120562000Y-127587000D01*
X118276000Y-127587000D01*
X118022000Y-127587000D01*
X115736000Y-127587000D01*
X115482000Y-127587000D01*
X113196000Y-127587000D01*
X112942000Y-127587000D01*
X110656000Y-127587000D01*
X110402000Y-127587000D01*
X109042783Y-127587000D01*
X108921642Y-127819026D01*
X107785000Y-127819026D01*
X107785000Y-124920000D01*
X108845655Y-124920000D01*
X108959729Y-125493489D01*
X109284585Y-125979670D01*
X109594069Y-126186461D01*
X109178268Y-126557964D01*
X108924291Y-127085209D01*
X108921642Y-127100974D01*
X109042783Y-127333000D01*
X110402000Y-127333000D01*
X110402000Y-127313000D01*
X110656000Y-127313000D01*
X110656000Y-127333000D01*
X112942000Y-127333000D01*
X112942000Y-127313000D01*
X113196000Y-127313000D01*
X113196000Y-127333000D01*
X115482000Y-127333000D01*
X115482000Y-127313000D01*
X115736000Y-127313000D01*
X115736000Y-127333000D01*
X118022000Y-127333000D01*
X118022000Y-127313000D01*
X118276000Y-127313000D01*
X118276000Y-127333000D01*
X120562000Y-127333000D01*
X120562000Y-127313000D01*
X120816000Y-127313000D01*
X120816000Y-127333000D01*
X123102000Y-127333000D01*
X123102000Y-127313000D01*
X123356000Y-127313000D01*
X123356000Y-127333000D01*
X125642000Y-127333000D01*
X125642000Y-127313000D01*
X125896000Y-127313000D01*
X125896000Y-127333000D01*
X128182000Y-127333000D01*
X128182000Y-127313000D01*
X128436000Y-127313000D01*
X128436000Y-127333000D01*
X129795217Y-127333000D01*
X129916358Y-127100974D01*
X129913709Y-127085209D01*
X129659732Y-126557964D01*
X129243931Y-126186461D01*
X129553415Y-125979670D01*
X129878271Y-125493489D01*
X129992345Y-124920000D01*
X132848655Y-124920000D01*
X132962729Y-125493489D01*
X133287585Y-125979670D01*
X133602366Y-126190000D01*
X133287585Y-126400330D01*
X132962729Y-126886511D01*
X132848655Y-127460000D01*
X132962729Y-128033489D01*
X133287585Y-128519670D01*
X133773766Y-128844526D01*
X134347255Y-128958600D01*
X134716745Y-128958600D01*
X135290234Y-128844526D01*
X135776415Y-128519670D01*
X136101271Y-128033489D01*
X136143930Y-127819026D01*
X139401642Y-127819026D01*
X139404291Y-127834791D01*
X139658268Y-128362036D01*
X140094680Y-128751954D01*
X140647087Y-128945184D01*
X140882000Y-128800924D01*
X140882000Y-127587000D01*
X141136000Y-127587000D01*
X141136000Y-128800924D01*
X141370913Y-128945184D01*
X141923320Y-128751954D01*
X142279000Y-128434167D01*
X142634680Y-128751954D01*
X143187087Y-128945184D01*
X143422000Y-128800924D01*
X143422000Y-127587000D01*
X143676000Y-127587000D01*
X143676000Y-128800924D01*
X143910913Y-128945184D01*
X144463320Y-128751954D01*
X144819000Y-128434167D01*
X145174680Y-128751954D01*
X145727087Y-128945184D01*
X145962000Y-128800924D01*
X145962000Y-127587000D01*
X146216000Y-127587000D01*
X146216000Y-128800924D01*
X146450913Y-128945184D01*
X147003320Y-128751954D01*
X147359000Y-128434167D01*
X147714680Y-128751954D01*
X148267087Y-128945184D01*
X148502000Y-128800924D01*
X148502000Y-127587000D01*
X148756000Y-127587000D01*
X148756000Y-128800924D01*
X148990913Y-128945184D01*
X149543320Y-128751954D01*
X149899000Y-128434167D01*
X150254680Y-128751954D01*
X150807087Y-128945184D01*
X151042000Y-128800924D01*
X151042000Y-127587000D01*
X151296000Y-127587000D01*
X151296000Y-128800924D01*
X151530913Y-128945184D01*
X152083320Y-128751954D01*
X152439000Y-128434167D01*
X152794680Y-128751954D01*
X153347087Y-128945184D01*
X153582000Y-128800924D01*
X153582000Y-127587000D01*
X153836000Y-127587000D01*
X153836000Y-128800924D01*
X154070913Y-128945184D01*
X154623320Y-128751954D01*
X154979000Y-128434167D01*
X155334680Y-128751954D01*
X155887087Y-128945184D01*
X156122000Y-128800924D01*
X156122000Y-127587000D01*
X156376000Y-127587000D01*
X156376000Y-128800924D01*
X156610913Y-128945184D01*
X157163320Y-128751954D01*
X157519000Y-128434167D01*
X157874680Y-128751954D01*
X158427087Y-128945184D01*
X158662000Y-128800924D01*
X158662000Y-127587000D01*
X158916000Y-127587000D01*
X158916000Y-128800924D01*
X159150913Y-128945184D01*
X159703320Y-128751954D01*
X160139732Y-128362036D01*
X160393709Y-127834791D01*
X160396358Y-127819026D01*
X160275217Y-127587000D01*
X158916000Y-127587000D01*
X158662000Y-127587000D01*
X156376000Y-127587000D01*
X156122000Y-127587000D01*
X153836000Y-127587000D01*
X153582000Y-127587000D01*
X151296000Y-127587000D01*
X151042000Y-127587000D01*
X148756000Y-127587000D01*
X148502000Y-127587000D01*
X146216000Y-127587000D01*
X145962000Y-127587000D01*
X143676000Y-127587000D01*
X143422000Y-127587000D01*
X141136000Y-127587000D01*
X140882000Y-127587000D01*
X139522783Y-127587000D01*
X139401642Y-127819026D01*
X136143930Y-127819026D01*
X136215345Y-127460000D01*
X136101271Y-126886511D01*
X135776415Y-126400330D01*
X135461634Y-126190000D01*
X135776415Y-125979670D01*
X136101271Y-125493489D01*
X136215345Y-124920000D01*
X139325655Y-124920000D01*
X139439729Y-125493489D01*
X139764585Y-125979670D01*
X140074069Y-126186461D01*
X139658268Y-126557964D01*
X139404291Y-127085209D01*
X139401642Y-127100974D01*
X139522783Y-127333000D01*
X140882000Y-127333000D01*
X140882000Y-127313000D01*
X141136000Y-127313000D01*
X141136000Y-127333000D01*
X143422000Y-127333000D01*
X143422000Y-127313000D01*
X143676000Y-127313000D01*
X143676000Y-127333000D01*
X145962000Y-127333000D01*
X145962000Y-127313000D01*
X146216000Y-127313000D01*
X146216000Y-127333000D01*
X148502000Y-127333000D01*
X148502000Y-127313000D01*
X148756000Y-127313000D01*
X148756000Y-127333000D01*
X151042000Y-127333000D01*
X151042000Y-127313000D01*
X151296000Y-127313000D01*
X151296000Y-127333000D01*
X153582000Y-127333000D01*
X153582000Y-127313000D01*
X153836000Y-127313000D01*
X153836000Y-127333000D01*
X156122000Y-127333000D01*
X156122000Y-127313000D01*
X156376000Y-127313000D01*
X156376000Y-127333000D01*
X158662000Y-127333000D01*
X158662000Y-127313000D01*
X158916000Y-127313000D01*
X158916000Y-127333000D01*
X160275217Y-127333000D01*
X160396358Y-127100974D01*
X160393709Y-127085209D01*
X160139732Y-126557964D01*
X159723931Y-126186461D01*
X160033415Y-125979670D01*
X160358271Y-125493489D01*
X160472345Y-124920000D01*
X163328655Y-124920000D01*
X163442729Y-125493489D01*
X163767585Y-125979670D01*
X164082366Y-126190000D01*
X163767585Y-126400330D01*
X163442729Y-126886511D01*
X163328655Y-127460000D01*
X163442729Y-128033489D01*
X163767585Y-128519670D01*
X164253766Y-128844526D01*
X164827255Y-128958600D01*
X165196745Y-128958600D01*
X165770234Y-128844526D01*
X166256415Y-128519670D01*
X166581271Y-128033489D01*
X166695345Y-127460000D01*
X166643720Y-127200460D01*
X169520100Y-127200460D01*
X169520100Y-127475460D01*
X169655098Y-127900138D01*
X169942337Y-128240828D01*
X170353226Y-128442579D01*
X170528100Y-128316414D01*
X170528100Y-127200460D01*
X170782100Y-127200460D01*
X170782100Y-128316414D01*
X170956974Y-128442579D01*
X171367863Y-128240828D01*
X171655102Y-127900138D01*
X171790100Y-127475460D01*
X171790100Y-127200460D01*
X176520100Y-127200460D01*
X176520100Y-127475460D01*
X176655098Y-127900138D01*
X176942337Y-128240828D01*
X177353226Y-128442579D01*
X177528100Y-128316414D01*
X177528100Y-127200460D01*
X177782100Y-127200460D01*
X177782100Y-128316414D01*
X177956974Y-128442579D01*
X178367863Y-128240828D01*
X178655102Y-127900138D01*
X178790100Y-127475460D01*
X178790100Y-127200460D01*
X177782100Y-127200460D01*
X177528100Y-127200460D01*
X176520100Y-127200460D01*
X171790100Y-127200460D01*
X170782100Y-127200460D01*
X170528100Y-127200460D01*
X169520100Y-127200460D01*
X166643720Y-127200460D01*
X166581271Y-126886511D01*
X166437579Y-126671460D01*
X169520100Y-126671460D01*
X169520100Y-126946460D01*
X170528100Y-126946460D01*
X170528100Y-125830506D01*
X170782100Y-125830506D01*
X170782100Y-126946460D01*
X171790100Y-126946460D01*
X171790100Y-126671460D01*
X176520100Y-126671460D01*
X176520100Y-126946460D01*
X177528100Y-126946460D01*
X177528100Y-125830506D01*
X177782100Y-125830506D01*
X177782100Y-126946460D01*
X178790100Y-126946460D01*
X178790100Y-126671460D01*
X178655102Y-126246782D01*
X178367863Y-125906092D01*
X177956974Y-125704341D01*
X177782100Y-125830506D01*
X177528100Y-125830506D01*
X177353226Y-125704341D01*
X176942337Y-125906092D01*
X176655098Y-126246782D01*
X176520100Y-126671460D01*
X171790100Y-126671460D01*
X171655102Y-126246782D01*
X171367863Y-125906092D01*
X170956974Y-125704341D01*
X170782100Y-125830506D01*
X170528100Y-125830506D01*
X170353226Y-125704341D01*
X169942337Y-125906092D01*
X169655098Y-126246782D01*
X169520100Y-126671460D01*
X166437579Y-126671460D01*
X166256415Y-126400330D01*
X165941634Y-126190000D01*
X166256415Y-125979670D01*
X166581271Y-125493489D01*
X166695345Y-124920000D01*
X166645896Y-124671398D01*
X170435832Y-124671398D01*
X170619548Y-125045281D01*
X170944051Y-125333028D01*
X171353969Y-125474689D01*
X171528100Y-125326023D01*
X171528100Y-124500460D01*
X171782100Y-124500460D01*
X171782100Y-125326023D01*
X171956231Y-125474689D01*
X172366149Y-125333028D01*
X172690652Y-125045281D01*
X172874368Y-124671398D01*
X175435832Y-124671398D01*
X175619548Y-125045281D01*
X175944051Y-125333028D01*
X176353969Y-125474689D01*
X176528100Y-125326023D01*
X176528100Y-124500460D01*
X176782100Y-124500460D01*
X176782100Y-125326023D01*
X176956231Y-125474689D01*
X177366149Y-125333028D01*
X177690652Y-125045281D01*
X177874368Y-124671398D01*
X177747834Y-124500460D01*
X176782100Y-124500460D01*
X176528100Y-124500460D01*
X175562366Y-124500460D01*
X175435832Y-124671398D01*
X172874368Y-124671398D01*
X172747834Y-124500460D01*
X171782100Y-124500460D01*
X171528100Y-124500460D01*
X170562366Y-124500460D01*
X170435832Y-124671398D01*
X166645896Y-124671398D01*
X166581271Y-124346511D01*
X166400202Y-124075522D01*
X170435832Y-124075522D01*
X170562366Y-124246460D01*
X171528100Y-124246460D01*
X171528100Y-123420897D01*
X171782100Y-123420897D01*
X171782100Y-124246460D01*
X172747834Y-124246460D01*
X172874368Y-124075522D01*
X175435832Y-124075522D01*
X175562366Y-124246460D01*
X176528100Y-124246460D01*
X176528100Y-123420897D01*
X176782100Y-123420897D01*
X176782100Y-124246460D01*
X177747834Y-124246460D01*
X177874368Y-124075522D01*
X177690652Y-123701639D01*
X177366149Y-123413892D01*
X176956231Y-123272231D01*
X176782100Y-123420897D01*
X176528100Y-123420897D01*
X176353969Y-123272231D01*
X175944051Y-123413892D01*
X175619548Y-123701639D01*
X175435832Y-124075522D01*
X172874368Y-124075522D01*
X172690652Y-123701639D01*
X172366149Y-123413892D01*
X171956231Y-123272231D01*
X171782100Y-123420897D01*
X171528100Y-123420897D01*
X171353969Y-123272231D01*
X170944051Y-123413892D01*
X170619548Y-123701639D01*
X170435832Y-124075522D01*
X166400202Y-124075522D01*
X166256415Y-123860330D01*
X166242087Y-123850757D01*
X166263317Y-123846762D01*
X166479441Y-123707690D01*
X166624431Y-123495490D01*
X166675440Y-123243600D01*
X166675440Y-121516400D01*
X166631162Y-121281083D01*
X166492090Y-121064959D01*
X166279890Y-120919969D01*
X166028000Y-120868960D01*
X163996000Y-120868960D01*
X163760683Y-120913238D01*
X163544559Y-121052310D01*
X163399569Y-121264510D01*
X163348560Y-121516400D01*
X163348560Y-123243600D01*
X163392838Y-123478917D01*
X163531910Y-123695041D01*
X163744110Y-123840031D01*
X163785439Y-123848400D01*
X163767585Y-123860330D01*
X163442729Y-124346511D01*
X163328655Y-124920000D01*
X160472345Y-124920000D01*
X160358271Y-124346511D01*
X160033415Y-123860330D01*
X160019087Y-123850757D01*
X160040317Y-123846762D01*
X160256441Y-123707690D01*
X160401431Y-123495490D01*
X160452440Y-123243600D01*
X160452440Y-121516400D01*
X160408162Y-121281083D01*
X160269090Y-121064959D01*
X160056890Y-120919969D01*
X159805000Y-120868960D01*
X157773000Y-120868960D01*
X157537683Y-120913238D01*
X157521901Y-120923393D01*
X157516890Y-120919969D01*
X157265000Y-120868960D01*
X155233000Y-120868960D01*
X154997683Y-120913238D01*
X154981901Y-120923393D01*
X154976890Y-120919969D01*
X154725000Y-120868960D01*
X152693000Y-120868960D01*
X152457683Y-120913238D01*
X152441901Y-120923393D01*
X152436890Y-120919969D01*
X152185000Y-120868960D01*
X150153000Y-120868960D01*
X149917683Y-120913238D01*
X149901901Y-120923393D01*
X149896890Y-120919969D01*
X149645000Y-120868960D01*
X147613000Y-120868960D01*
X147377683Y-120913238D01*
X147361901Y-120923393D01*
X147356890Y-120919969D01*
X147105000Y-120868960D01*
X145073000Y-120868960D01*
X144837683Y-120913238D01*
X144821901Y-120923393D01*
X144816890Y-120919969D01*
X144565000Y-120868960D01*
X142533000Y-120868960D01*
X142297683Y-120913238D01*
X142281901Y-120923393D01*
X142276890Y-120919969D01*
X142025000Y-120868960D01*
X139993000Y-120868960D01*
X139757683Y-120913238D01*
X139541559Y-121052310D01*
X139396569Y-121264510D01*
X139345560Y-121516400D01*
X139345560Y-123243600D01*
X139389838Y-123478917D01*
X139528910Y-123695041D01*
X139741110Y-123840031D01*
X139782439Y-123848400D01*
X139764585Y-123860330D01*
X139439729Y-124346511D01*
X139325655Y-124920000D01*
X136215345Y-124920000D01*
X136101271Y-124346511D01*
X135776415Y-123860330D01*
X135762087Y-123850757D01*
X135783317Y-123846762D01*
X135999441Y-123707690D01*
X136144431Y-123495490D01*
X136195440Y-123243600D01*
X136195440Y-121516400D01*
X136151162Y-121281083D01*
X136012090Y-121064959D01*
X135799890Y-120919969D01*
X135548000Y-120868960D01*
X133516000Y-120868960D01*
X133280683Y-120913238D01*
X133064559Y-121052310D01*
X132919569Y-121264510D01*
X132868560Y-121516400D01*
X132868560Y-123243600D01*
X132912838Y-123478917D01*
X133051910Y-123695041D01*
X133264110Y-123840031D01*
X133305439Y-123848400D01*
X133287585Y-123860330D01*
X132962729Y-124346511D01*
X132848655Y-124920000D01*
X129992345Y-124920000D01*
X129878271Y-124346511D01*
X129553415Y-123860330D01*
X129539087Y-123850757D01*
X129560317Y-123846762D01*
X129776441Y-123707690D01*
X129921431Y-123495490D01*
X129972440Y-123243600D01*
X129972440Y-121516400D01*
X129928162Y-121281083D01*
X129789090Y-121064959D01*
X129576890Y-120919969D01*
X129325000Y-120868960D01*
X127293000Y-120868960D01*
X127057683Y-120913238D01*
X127041901Y-120923393D01*
X127036890Y-120919969D01*
X126785000Y-120868960D01*
X124753000Y-120868960D01*
X124517683Y-120913238D01*
X124501901Y-120923393D01*
X124496890Y-120919969D01*
X124245000Y-120868960D01*
X122213000Y-120868960D01*
X121977683Y-120913238D01*
X121961901Y-120923393D01*
X121956890Y-120919969D01*
X121705000Y-120868960D01*
X119673000Y-120868960D01*
X119437683Y-120913238D01*
X119421901Y-120923393D01*
X119416890Y-120919969D01*
X119165000Y-120868960D01*
X117133000Y-120868960D01*
X116897683Y-120913238D01*
X116881901Y-120923393D01*
X116876890Y-120919969D01*
X116625000Y-120868960D01*
X114593000Y-120868960D01*
X114357683Y-120913238D01*
X114341901Y-120923393D01*
X114336890Y-120919969D01*
X114085000Y-120868960D01*
X112053000Y-120868960D01*
X111817683Y-120913238D01*
X111801901Y-120923393D01*
X111796890Y-120919969D01*
X111545000Y-120868960D01*
X109513000Y-120868960D01*
X109277683Y-120913238D01*
X109061559Y-121052310D01*
X108916569Y-121264510D01*
X108865560Y-121516400D01*
X108865560Y-123243600D01*
X108909838Y-123478917D01*
X109048910Y-123695041D01*
X109261110Y-123840031D01*
X109302439Y-123848400D01*
X109284585Y-123860330D01*
X108959729Y-124346511D01*
X108845655Y-124920000D01*
X107785000Y-124920000D01*
X107785000Y-118775167D01*
X178994838Y-118775167D01*
X179136883Y-119118943D01*
X179399673Y-119382192D01*
X179743201Y-119524838D01*
X180115167Y-119525162D01*
X180458943Y-119383117D01*
X180722192Y-119120327D01*
X180864838Y-118776799D01*
X180865162Y-118404833D01*
X180723117Y-118061057D01*
X180460327Y-117797808D01*
X180116799Y-117655162D01*
X179744833Y-117654838D01*
X179401057Y-117796883D01*
X179137808Y-118059673D01*
X178995162Y-118403201D01*
X178994838Y-118775167D01*
X107785000Y-118775167D01*
X107785000Y-117165167D01*
X168934838Y-117165167D01*
X169076883Y-117508943D01*
X169339673Y-117772192D01*
X169683201Y-117914838D01*
X170055167Y-117915162D01*
X170398943Y-117773117D01*
X170662192Y-117510327D01*
X170804838Y-117166799D01*
X170805004Y-116975167D01*
X174094838Y-116975167D01*
X174236883Y-117318943D01*
X174499673Y-117582192D01*
X174843201Y-117724838D01*
X175215167Y-117725162D01*
X175558943Y-117583117D01*
X175822192Y-117320327D01*
X175964838Y-116976799D01*
X175965162Y-116604833D01*
X175823117Y-116261057D01*
X175560327Y-115997808D01*
X175313142Y-115895167D01*
X176604838Y-115895167D01*
X176746883Y-116238943D01*
X177009673Y-116502192D01*
X177353201Y-116644838D01*
X177725167Y-116645162D01*
X178068943Y-116503117D01*
X178332192Y-116240327D01*
X178474838Y-115896799D01*
X178475162Y-115524833D01*
X178333117Y-115181057D01*
X178070327Y-114917808D01*
X177726799Y-114775162D01*
X177354833Y-114774838D01*
X177011057Y-114916883D01*
X176747808Y-115179673D01*
X176605162Y-115523201D01*
X176604838Y-115895167D01*
X175313142Y-115895167D01*
X175216799Y-115855162D01*
X174844833Y-115854838D01*
X174501057Y-115996883D01*
X174237808Y-116259673D01*
X174095162Y-116603201D01*
X174094838Y-116975167D01*
X170805004Y-116975167D01*
X170805162Y-116794833D01*
X170663117Y-116451057D01*
X170400327Y-116187808D01*
X170056799Y-116045162D01*
X169684833Y-116044838D01*
X169341057Y-116186883D01*
X169077808Y-116449673D01*
X168935162Y-116793201D01*
X168934838Y-117165167D01*
X107785000Y-117165167D01*
X107785000Y-114815167D01*
X128714838Y-114815167D01*
X128856883Y-115158943D01*
X129119673Y-115422192D01*
X129237255Y-115471017D01*
X129376883Y-115808943D01*
X129639673Y-116072192D01*
X129983201Y-116214838D01*
X130355167Y-116215162D01*
X130698943Y-116073117D01*
X130962192Y-115810327D01*
X131104838Y-115466799D01*
X131105162Y-115094833D01*
X130963117Y-114751057D01*
X130897203Y-114685028D01*
X131062192Y-114520327D01*
X131204838Y-114176799D01*
X131205162Y-113804833D01*
X131089607Y-113525167D01*
X137674838Y-113525167D01*
X137816883Y-113868943D01*
X137937710Y-113989981D01*
X137817808Y-114109673D01*
X137675162Y-114453201D01*
X137674838Y-114825167D01*
X137816883Y-115168943D01*
X137947701Y-115299989D01*
X137827808Y-115419673D01*
X137685162Y-115763201D01*
X137684838Y-116135167D01*
X137826883Y-116478943D01*
X138089673Y-116742192D01*
X138433201Y-116884838D01*
X138805167Y-116885162D01*
X139148943Y-116743117D01*
X139412192Y-116480327D01*
X139545687Y-116158837D01*
X139728943Y-116083117D01*
X139992192Y-115820327D01*
X140134838Y-115476799D01*
X140135162Y-115104833D01*
X139993117Y-114761057D01*
X139877282Y-114645019D01*
X140002192Y-114520327D01*
X140144838Y-114176799D01*
X140145162Y-113804833D01*
X140003117Y-113461057D01*
X139887430Y-113345167D01*
X168874838Y-113345167D01*
X169016883Y-113688943D01*
X169279673Y-113952192D01*
X169623201Y-114094838D01*
X169995167Y-114095162D01*
X170237173Y-113995167D01*
X171394838Y-113995167D01*
X171536883Y-114338943D01*
X171799673Y-114602192D01*
X172143201Y-114744838D01*
X172515167Y-114745162D01*
X172858943Y-114603117D01*
X173122192Y-114340327D01*
X173264838Y-113996799D01*
X173265162Y-113624833D01*
X173123117Y-113281057D01*
X172860327Y-113017808D01*
X172516799Y-112875162D01*
X172144833Y-112874838D01*
X171801057Y-113016883D01*
X171537808Y-113279673D01*
X171395162Y-113623201D01*
X171394838Y-113995167D01*
X170237173Y-113995167D01*
X170338943Y-113953117D01*
X170602192Y-113690327D01*
X170744838Y-113346799D01*
X170745162Y-112974833D01*
X170603117Y-112631057D01*
X170340327Y-112367808D01*
X169996799Y-112225162D01*
X169624833Y-112224838D01*
X169281057Y-112366883D01*
X169017808Y-112629673D01*
X168875162Y-112973201D01*
X168874838Y-113345167D01*
X139887430Y-113345167D01*
X139872308Y-113330019D01*
X139982192Y-113220327D01*
X140124838Y-112876799D01*
X140125162Y-112504833D01*
X139983117Y-112161057D01*
X139872273Y-112050019D01*
X140002192Y-111920327D01*
X140144838Y-111576799D01*
X140144909Y-111495167D01*
X179334838Y-111495167D01*
X179476883Y-111838943D01*
X179739673Y-112102192D01*
X180083201Y-112244838D01*
X180455167Y-112245162D01*
X180798943Y-112103117D01*
X180979559Y-111922815D01*
X185964630Y-111922815D01*
X186288980Y-112707800D01*
X186889041Y-113308909D01*
X187673459Y-113634628D01*
X188522815Y-113635370D01*
X189307800Y-113311020D01*
X189908909Y-112710959D01*
X190234628Y-111926541D01*
X190235370Y-111077185D01*
X189911020Y-110292200D01*
X189310959Y-109691091D01*
X188526541Y-109365372D01*
X187677185Y-109364630D01*
X186892200Y-109688980D01*
X186291091Y-110289041D01*
X185965372Y-111073459D01*
X185964630Y-111922815D01*
X180979559Y-111922815D01*
X181062192Y-111840327D01*
X181204838Y-111496799D01*
X181205162Y-111124833D01*
X181063117Y-110781057D01*
X180800327Y-110517808D01*
X180456799Y-110375162D01*
X180084833Y-110374838D01*
X179741057Y-110516883D01*
X179477808Y-110779673D01*
X179335162Y-111123201D01*
X179334838Y-111495167D01*
X140144909Y-111495167D01*
X140145162Y-111204833D01*
X140003117Y-110861057D01*
X139740327Y-110597808D01*
X139550319Y-110518909D01*
X139423117Y-110211057D01*
X139160327Y-109947808D01*
X138816799Y-109805162D01*
X138444833Y-109804838D01*
X138101057Y-109946883D01*
X137837808Y-110209673D01*
X137695162Y-110553201D01*
X137694838Y-110925167D01*
X137836883Y-111268943D01*
X137962701Y-111394981D01*
X137847808Y-111509673D01*
X137705162Y-111853201D01*
X137704838Y-112225167D01*
X137846883Y-112568943D01*
X137952736Y-112674981D01*
X137817808Y-112809673D01*
X137675162Y-113153201D01*
X137674838Y-113525167D01*
X131089607Y-113525167D01*
X131063117Y-113461057D01*
X130942282Y-113340011D01*
X131072192Y-113210327D01*
X131214838Y-112866799D01*
X131215162Y-112494833D01*
X131073117Y-112151057D01*
X130982247Y-112060028D01*
X131122192Y-111920327D01*
X131264838Y-111576799D01*
X131265162Y-111204833D01*
X131123117Y-110861057D01*
X130860327Y-110597808D01*
X130634105Y-110503872D01*
X130513117Y-110211057D01*
X130250327Y-109947808D01*
X129906799Y-109805162D01*
X129534833Y-109804838D01*
X129191057Y-109946883D01*
X128927808Y-110209673D01*
X128785162Y-110553201D01*
X128784838Y-110925167D01*
X128926883Y-111268943D01*
X129017762Y-111359981D01*
X128867808Y-111509673D01*
X128725162Y-111853201D01*
X128724838Y-112225167D01*
X128866883Y-112568943D01*
X128992701Y-112694981D01*
X128877808Y-112809673D01*
X128735162Y-113153201D01*
X128734838Y-113525167D01*
X128876883Y-113868943D01*
X128982727Y-113974972D01*
X128857808Y-114099673D01*
X128715162Y-114443201D01*
X128714838Y-114815167D01*
X107785000Y-114815167D01*
X107785000Y-111922815D01*
X108964630Y-111922815D01*
X109288980Y-112707800D01*
X109889041Y-113308909D01*
X110673459Y-113634628D01*
X111522815Y-113635370D01*
X112307800Y-113311020D01*
X112908909Y-112710959D01*
X113234628Y-111926541D01*
X113235370Y-111077185D01*
X112911020Y-110292200D01*
X112310959Y-109691091D01*
X112104032Y-109605167D01*
X141044838Y-109605167D01*
X141186883Y-109948943D01*
X141449673Y-110212192D01*
X141793201Y-110354838D01*
X142165167Y-110355162D01*
X142508943Y-110213117D01*
X142772192Y-109950327D01*
X142914838Y-109606799D01*
X142915162Y-109234833D01*
X142773117Y-108891057D01*
X142510327Y-108627808D01*
X142183044Y-108491907D01*
X142518943Y-108353117D01*
X142782192Y-108090327D01*
X142921363Y-107755167D01*
X145954838Y-107755167D01*
X146096883Y-108098943D01*
X146359673Y-108362192D01*
X146667802Y-108490139D01*
X146361057Y-108616883D01*
X146097808Y-108879673D01*
X145955162Y-109223201D01*
X145954838Y-109595167D01*
X146096883Y-109938943D01*
X146359673Y-110202192D01*
X146703201Y-110344838D01*
X147075167Y-110345162D01*
X147418943Y-110203117D01*
X147682192Y-109940327D01*
X147700944Y-109895167D01*
X169254838Y-109895167D01*
X169396883Y-110238943D01*
X169659673Y-110502192D01*
X170003201Y-110644838D01*
X170375167Y-110645162D01*
X170718943Y-110503117D01*
X170982192Y-110240327D01*
X171124838Y-109896799D01*
X171125162Y-109524833D01*
X170983117Y-109181057D01*
X170720327Y-108917808D01*
X170376799Y-108775162D01*
X170004833Y-108774838D01*
X169661057Y-108916883D01*
X169397808Y-109179673D01*
X169255162Y-109523201D01*
X169254838Y-109895167D01*
X147700944Y-109895167D01*
X147824838Y-109596799D01*
X147825162Y-109224833D01*
X147683117Y-108881057D01*
X147420327Y-108617808D01*
X147112198Y-108489861D01*
X147418943Y-108363117D01*
X147600077Y-108182299D01*
X147769673Y-108352192D01*
X148113201Y-108494838D01*
X148485167Y-108495162D01*
X148828943Y-108353117D01*
X149092192Y-108090327D01*
X149234838Y-107746799D01*
X149234874Y-107705167D01*
X157914838Y-107705167D01*
X158056883Y-108048943D01*
X158112710Y-108104867D01*
X158057808Y-108159673D01*
X157915162Y-108503201D01*
X157914838Y-108875167D01*
X158056883Y-109218943D01*
X158319673Y-109482192D01*
X158663201Y-109624838D01*
X159035167Y-109625162D01*
X159378943Y-109483117D01*
X159642192Y-109220327D01*
X159784838Y-108876799D01*
X159785162Y-108504833D01*
X159643117Y-108161057D01*
X159587290Y-108105133D01*
X159607290Y-108085167D01*
X170944838Y-108085167D01*
X171086883Y-108428943D01*
X171349673Y-108692192D01*
X171693201Y-108834838D01*
X172065167Y-108835162D01*
X172408943Y-108693117D01*
X172672192Y-108430327D01*
X172814838Y-108086799D01*
X172815162Y-107714833D01*
X172673117Y-107371057D01*
X172410327Y-107107808D01*
X172066799Y-106965162D01*
X171694833Y-106964838D01*
X171351057Y-107106883D01*
X171087808Y-107369673D01*
X170945162Y-107713201D01*
X170944838Y-108085167D01*
X159607290Y-108085167D01*
X159642192Y-108050327D01*
X159784838Y-107706799D01*
X159785162Y-107334833D01*
X159643117Y-106991057D01*
X159380327Y-106727808D01*
X159036799Y-106585162D01*
X158664833Y-106584838D01*
X158321057Y-106726883D01*
X158057808Y-106989673D01*
X157915162Y-107333201D01*
X157914838Y-107705167D01*
X149234874Y-107705167D01*
X149235162Y-107374833D01*
X149093117Y-107031057D01*
X148830327Y-106767808D01*
X148486799Y-106625162D01*
X148114833Y-106624838D01*
X147771057Y-106766883D01*
X147589923Y-106947701D01*
X147420327Y-106777808D01*
X147076799Y-106635162D01*
X146704833Y-106634838D01*
X146361057Y-106776883D01*
X146097808Y-107039673D01*
X145955162Y-107383201D01*
X145954838Y-107755167D01*
X142921363Y-107755167D01*
X142924838Y-107746799D01*
X142925162Y-107374833D01*
X142783117Y-107031057D01*
X142520327Y-106767808D01*
X142176799Y-106625162D01*
X141804833Y-106624838D01*
X141461057Y-106766883D01*
X141197808Y-107029673D01*
X141055162Y-107373201D01*
X141054838Y-107745167D01*
X141196883Y-108088943D01*
X141459673Y-108352192D01*
X141786956Y-108488093D01*
X141451057Y-108626883D01*
X141187808Y-108889673D01*
X141045162Y-109233201D01*
X141044838Y-109605167D01*
X112104032Y-109605167D01*
X111526541Y-109365372D01*
X110677185Y-109364630D01*
X109892200Y-109688980D01*
X109291091Y-110289041D01*
X108965372Y-111073459D01*
X108964630Y-111922815D01*
X107785000Y-111922815D01*
X107785000Y-107755913D01*
X109170816Y-107755913D01*
X109364046Y-108308320D01*
X109753964Y-108744732D01*
X110281209Y-108998709D01*
X110296974Y-109001358D01*
X110529000Y-108880217D01*
X110529000Y-107521000D01*
X109315076Y-107521000D01*
X109170816Y-107755913D01*
X107785000Y-107755913D01*
X107785000Y-105215913D01*
X109170816Y-105215913D01*
X109364046Y-105768320D01*
X109681833Y-106124000D01*
X109364046Y-106479680D01*
X109170816Y-107032087D01*
X109315076Y-107267000D01*
X110529000Y-107267000D01*
X110529000Y-104981000D01*
X109315076Y-104981000D01*
X109170816Y-105215913D01*
X107785000Y-105215913D01*
X107785000Y-102675913D01*
X109170816Y-102675913D01*
X109364046Y-103228320D01*
X109681833Y-103584000D01*
X109364046Y-103939680D01*
X109170816Y-104492087D01*
X109315076Y-104727000D01*
X110529000Y-104727000D01*
X110529000Y-102441000D01*
X109315076Y-102441000D01*
X109170816Y-102675913D01*
X107785000Y-102675913D01*
X107785000Y-100135913D01*
X109170816Y-100135913D01*
X109364046Y-100688320D01*
X109681833Y-101044000D01*
X109364046Y-101399680D01*
X109170816Y-101952087D01*
X109315076Y-102187000D01*
X110529000Y-102187000D01*
X110529000Y-99901000D01*
X109315076Y-99901000D01*
X109170816Y-100135913D01*
X107785000Y-100135913D01*
X107785000Y-97595913D01*
X109170816Y-97595913D01*
X109364046Y-98148320D01*
X109681833Y-98504000D01*
X109364046Y-98859680D01*
X109170816Y-99412087D01*
X109315076Y-99647000D01*
X110529000Y-99647000D01*
X110529000Y-97361000D01*
X109315076Y-97361000D01*
X109170816Y-97595913D01*
X107785000Y-97595913D01*
X107785000Y-95055913D01*
X109170816Y-95055913D01*
X109364046Y-95608320D01*
X109681833Y-95964000D01*
X109364046Y-96319680D01*
X109170816Y-96872087D01*
X109315076Y-97107000D01*
X110529000Y-97107000D01*
X110529000Y-94821000D01*
X109315076Y-94821000D01*
X109170816Y-95055913D01*
X107785000Y-95055913D01*
X107785000Y-92515913D01*
X109170816Y-92515913D01*
X109364046Y-93068320D01*
X109681833Y-93424000D01*
X109364046Y-93779680D01*
X109170816Y-94332087D01*
X109315076Y-94567000D01*
X110529000Y-94567000D01*
X110529000Y-92281000D01*
X109315076Y-92281000D01*
X109170816Y-92515913D01*
X107785000Y-92515913D01*
X107785000Y-89975913D01*
X109170816Y-89975913D01*
X109364046Y-90528320D01*
X109681833Y-90884000D01*
X109364046Y-91239680D01*
X109170816Y-91792087D01*
X109315076Y-92027000D01*
X110529000Y-92027000D01*
X110529000Y-89741000D01*
X109315076Y-89741000D01*
X109170816Y-89975913D01*
X107785000Y-89975913D01*
X107785000Y-89252087D01*
X109170816Y-89252087D01*
X109315076Y-89487000D01*
X110529000Y-89487000D01*
X110529000Y-88127783D01*
X110783000Y-88127783D01*
X110783000Y-89487000D01*
X110803000Y-89487000D01*
X110803000Y-89741000D01*
X110783000Y-89741000D01*
X110783000Y-92027000D01*
X110803000Y-92027000D01*
X110803000Y-92281000D01*
X110783000Y-92281000D01*
X110783000Y-94567000D01*
X110803000Y-94567000D01*
X110803000Y-94821000D01*
X110783000Y-94821000D01*
X110783000Y-97107000D01*
X110803000Y-97107000D01*
X110803000Y-97361000D01*
X110783000Y-97361000D01*
X110783000Y-99647000D01*
X110803000Y-99647000D01*
X110803000Y-99901000D01*
X110783000Y-99901000D01*
X110783000Y-102187000D01*
X110803000Y-102187000D01*
X110803000Y-102441000D01*
X110783000Y-102441000D01*
X110783000Y-104727000D01*
X110803000Y-104727000D01*
X110803000Y-104981000D01*
X110783000Y-104981000D01*
X110783000Y-107267000D01*
X110803000Y-107267000D01*
X110803000Y-107521000D01*
X110783000Y-107521000D01*
X110783000Y-108880217D01*
X111015026Y-109001358D01*
X111030791Y-108998709D01*
X111558036Y-108744732D01*
X111929539Y-108328931D01*
X112136330Y-108638415D01*
X112622511Y-108963271D01*
X113196000Y-109077345D01*
X113769489Y-108963271D01*
X114255670Y-108638415D01*
X114265243Y-108624087D01*
X114269238Y-108645317D01*
X114408310Y-108861441D01*
X114620510Y-109006431D01*
X114872400Y-109057440D01*
X116599600Y-109057440D01*
X116834917Y-109013162D01*
X117051041Y-108874090D01*
X117196031Y-108661890D01*
X117247040Y-108410000D01*
X117247040Y-107685167D01*
X124274838Y-107685167D01*
X124416883Y-108028943D01*
X124679673Y-108292192D01*
X125023201Y-108434838D01*
X125395167Y-108435162D01*
X125738943Y-108293117D01*
X126002192Y-108030327D01*
X126144838Y-107686799D01*
X126144848Y-107675167D01*
X137804838Y-107675167D01*
X137946883Y-108018943D01*
X138209673Y-108282192D01*
X138553201Y-108424838D01*
X138925167Y-108425162D01*
X139268943Y-108283117D01*
X139532192Y-108020327D01*
X139674838Y-107676799D01*
X139675162Y-107304833D01*
X139533117Y-106961057D01*
X139270327Y-106697808D01*
X138926799Y-106555162D01*
X138554833Y-106554838D01*
X138211057Y-106696883D01*
X137947808Y-106959673D01*
X137805162Y-107303201D01*
X137804838Y-107675167D01*
X126144848Y-107675167D01*
X126145162Y-107314833D01*
X126003117Y-106971057D01*
X125740327Y-106707808D01*
X125396799Y-106565162D01*
X125024833Y-106564838D01*
X124681057Y-106706883D01*
X124417808Y-106969673D01*
X124275162Y-107313201D01*
X124274838Y-107685167D01*
X117247040Y-107685167D01*
X117247040Y-106378000D01*
X117202762Y-106142683D01*
X117192607Y-106126901D01*
X117196031Y-106121890D01*
X117247040Y-105870000D01*
X117247040Y-104875167D01*
X120844838Y-104875167D01*
X120986883Y-105218943D01*
X121249673Y-105482192D01*
X121593201Y-105624838D01*
X121965167Y-105625162D01*
X122308943Y-105483117D01*
X122572192Y-105220327D01*
X122714838Y-104876799D01*
X122714839Y-104875167D01*
X129474838Y-104875167D01*
X129616883Y-105218943D01*
X129879673Y-105482192D01*
X130223201Y-105624838D01*
X130595167Y-105625162D01*
X130938943Y-105483117D01*
X131202192Y-105220327D01*
X131283229Y-105025167D01*
X135514838Y-105025167D01*
X135656883Y-105368943D01*
X135919673Y-105632192D01*
X136263201Y-105774838D01*
X136635167Y-105775162D01*
X136978943Y-105633117D01*
X137242192Y-105370327D01*
X137273401Y-105295167D01*
X140624838Y-105295167D01*
X140766883Y-105638943D01*
X141029673Y-105902192D01*
X141373201Y-106044838D01*
X141745167Y-106045162D01*
X142088943Y-105903117D01*
X142352192Y-105640327D01*
X142494838Y-105296799D01*
X142495162Y-104924833D01*
X142353117Y-104581057D01*
X142090327Y-104317808D01*
X141746799Y-104175162D01*
X141374833Y-104174838D01*
X141031057Y-104316883D01*
X140767808Y-104579673D01*
X140625162Y-104923201D01*
X140624838Y-105295167D01*
X137273401Y-105295167D01*
X137384838Y-105026799D01*
X137385162Y-104654833D01*
X137243117Y-104311057D01*
X136980327Y-104047808D01*
X136636799Y-103905162D01*
X136264833Y-103904838D01*
X135921057Y-104046883D01*
X135657808Y-104309673D01*
X135515162Y-104653201D01*
X135514838Y-105025167D01*
X131283229Y-105025167D01*
X131344838Y-104876799D01*
X131345162Y-104504833D01*
X131203117Y-104161057D01*
X130940327Y-103897808D01*
X130669059Y-103785167D01*
X144434838Y-103785167D01*
X144576883Y-104128943D01*
X144839673Y-104392192D01*
X145183201Y-104534838D01*
X145555167Y-104535162D01*
X145898943Y-104393117D01*
X146162192Y-104130327D01*
X146301363Y-103795167D01*
X169484838Y-103795167D01*
X169626883Y-104138943D01*
X169889673Y-104402192D01*
X170233201Y-104544838D01*
X170605167Y-104545162D01*
X170948943Y-104403117D01*
X171212192Y-104140327D01*
X171354838Y-103796799D01*
X171355162Y-103424833D01*
X171213117Y-103081057D01*
X170950327Y-102817808D01*
X170606799Y-102675162D01*
X170234833Y-102674838D01*
X169891057Y-102816883D01*
X169627808Y-103079673D01*
X169485162Y-103423201D01*
X169484838Y-103795167D01*
X146301363Y-103795167D01*
X146304838Y-103786799D01*
X146305162Y-103414833D01*
X146163117Y-103071057D01*
X145967569Y-102875167D01*
X148634838Y-102875167D01*
X148776883Y-103218943D01*
X149039673Y-103482192D01*
X149383201Y-103624838D01*
X149755167Y-103625162D01*
X150098943Y-103483117D01*
X150362192Y-103220327D01*
X150504838Y-102876799D01*
X150505162Y-102504833D01*
X150363117Y-102161057D01*
X150100327Y-101897808D01*
X149756799Y-101755162D01*
X149384833Y-101754838D01*
X149041057Y-101896883D01*
X148777808Y-102159673D01*
X148635162Y-102503201D01*
X148634838Y-102875167D01*
X145967569Y-102875167D01*
X145900327Y-102807808D01*
X145556799Y-102665162D01*
X145184833Y-102664838D01*
X144841057Y-102806883D01*
X144577808Y-103069673D01*
X144435162Y-103413201D01*
X144434838Y-103785167D01*
X130669059Y-103785167D01*
X130596799Y-103755162D01*
X130224833Y-103754838D01*
X129881057Y-103896883D01*
X129617808Y-104159673D01*
X129475162Y-104503201D01*
X129474838Y-104875167D01*
X122714839Y-104875167D01*
X122715162Y-104504833D01*
X122573117Y-104161057D01*
X122310327Y-103897808D01*
X121966799Y-103755162D01*
X121594833Y-103754838D01*
X121251057Y-103896883D01*
X120987808Y-104159673D01*
X120845162Y-104503201D01*
X120844838Y-104875167D01*
X117247040Y-104875167D01*
X117247040Y-103838000D01*
X117202762Y-103602683D01*
X117192607Y-103586901D01*
X117196031Y-103581890D01*
X117247040Y-103330000D01*
X117247040Y-101785167D01*
X139644838Y-101785167D01*
X139786883Y-102128943D01*
X140049673Y-102392192D01*
X140393201Y-102534838D01*
X140765167Y-102535162D01*
X141108943Y-102393117D01*
X141372192Y-102130327D01*
X141514838Y-101786799D01*
X141515162Y-101414833D01*
X141373117Y-101071057D01*
X141110327Y-100807808D01*
X140766799Y-100665162D01*
X140394833Y-100664838D01*
X140051057Y-100806883D01*
X139787808Y-101069673D01*
X139645162Y-101413201D01*
X139644838Y-101785167D01*
X117247040Y-101785167D01*
X117247040Y-101298000D01*
X117202762Y-101062683D01*
X117192607Y-101046901D01*
X117196031Y-101041890D01*
X117247040Y-100790000D01*
X117247040Y-100465167D01*
X120704838Y-100465167D01*
X120846883Y-100808943D01*
X121109673Y-101072192D01*
X121453201Y-101214838D01*
X121825167Y-101215162D01*
X122168943Y-101073117D01*
X122432192Y-100810327D01*
X122574838Y-100466799D01*
X122574848Y-100455167D01*
X129484838Y-100455167D01*
X129626883Y-100798943D01*
X129889673Y-101062192D01*
X130233201Y-101204838D01*
X130605167Y-101205162D01*
X130948943Y-101063117D01*
X131212192Y-100800327D01*
X131354838Y-100456799D01*
X131355162Y-100084833D01*
X131213117Y-99741057D01*
X130950327Y-99477808D01*
X130606799Y-99335162D01*
X130234833Y-99334838D01*
X129891057Y-99476883D01*
X129627808Y-99739673D01*
X129485162Y-100083201D01*
X129484838Y-100455167D01*
X122574848Y-100455167D01*
X122575162Y-100094833D01*
X122433117Y-99751057D01*
X122170327Y-99487808D01*
X121826799Y-99345162D01*
X121454833Y-99344838D01*
X121111057Y-99486883D01*
X120847808Y-99749673D01*
X120705162Y-100093201D01*
X120704838Y-100465167D01*
X117247040Y-100465167D01*
X117247040Y-99065167D01*
X135324838Y-99065167D01*
X135466883Y-99408943D01*
X135729673Y-99672192D01*
X136073201Y-99814838D01*
X136445167Y-99815162D01*
X136788943Y-99673117D01*
X137052192Y-99410327D01*
X137194838Y-99066799D01*
X137195162Y-98694833D01*
X137075475Y-98405167D01*
X137664838Y-98405167D01*
X137806883Y-98748943D01*
X138069673Y-99012192D01*
X138413201Y-99154838D01*
X138433370Y-99154856D01*
X138355162Y-99343201D01*
X138354838Y-99715167D01*
X138496883Y-100058943D01*
X138759673Y-100322192D01*
X139103201Y-100464838D01*
X139475167Y-100465162D01*
X139818943Y-100323117D01*
X140082192Y-100060327D01*
X140224838Y-99716799D01*
X140225074Y-99445167D01*
X148034838Y-99445167D01*
X148176883Y-99788943D01*
X148439673Y-100052192D01*
X148783201Y-100194838D01*
X149155167Y-100195162D01*
X149498943Y-100053117D01*
X149762192Y-99790327D01*
X149776791Y-99755167D01*
X159494838Y-99755167D01*
X159636883Y-100098943D01*
X159899673Y-100362192D01*
X160243201Y-100504838D01*
X160615167Y-100505162D01*
X160958943Y-100363117D01*
X161222192Y-100100327D01*
X161364838Y-99756799D01*
X161365162Y-99384833D01*
X161223117Y-99041057D01*
X160960327Y-98777808D01*
X160616799Y-98635162D01*
X160244833Y-98634838D01*
X159901057Y-98776883D01*
X159637808Y-99039673D01*
X159495162Y-99383201D01*
X159494838Y-99755167D01*
X149776791Y-99755167D01*
X149904838Y-99446799D01*
X149905162Y-99074833D01*
X149781343Y-98775167D01*
X154684838Y-98775167D01*
X154826883Y-99118943D01*
X155089673Y-99382192D01*
X155433201Y-99524838D01*
X155805167Y-99525162D01*
X156148943Y-99383117D01*
X156412192Y-99120327D01*
X156554838Y-98776799D01*
X156555075Y-98504000D01*
X181788960Y-98504000D01*
X181788960Y-100536000D01*
X181833238Y-100771317D01*
X181843393Y-100787099D01*
X181839969Y-100792110D01*
X181788960Y-101044000D01*
X181788960Y-103076000D01*
X181833238Y-103311317D01*
X181843393Y-103327099D01*
X181839969Y-103332110D01*
X181788960Y-103584000D01*
X181788960Y-105616000D01*
X181833238Y-105851317D01*
X181843393Y-105867099D01*
X181839969Y-105872110D01*
X181788960Y-106124000D01*
X181788960Y-108156000D01*
X181833238Y-108391317D01*
X181972310Y-108607441D01*
X182184510Y-108752431D01*
X182436400Y-108803440D01*
X184163600Y-108803440D01*
X184398917Y-108759162D01*
X184615041Y-108620090D01*
X184760031Y-108407890D01*
X184768400Y-108366561D01*
X184780330Y-108384415D01*
X185266511Y-108709271D01*
X185840000Y-108823345D01*
X186413489Y-108709271D01*
X186899670Y-108384415D01*
X187106461Y-108074931D01*
X187477964Y-108490732D01*
X188005209Y-108744709D01*
X188020974Y-108747358D01*
X188253000Y-108626217D01*
X188253000Y-107267000D01*
X188507000Y-107267000D01*
X188507000Y-108626217D01*
X188739026Y-108747358D01*
X188754791Y-108744709D01*
X189282036Y-108490732D01*
X189671954Y-108054320D01*
X189865184Y-107501913D01*
X189720924Y-107267000D01*
X188507000Y-107267000D01*
X188253000Y-107267000D01*
X188233000Y-107267000D01*
X188233000Y-107013000D01*
X188253000Y-107013000D01*
X188253000Y-104727000D01*
X188507000Y-104727000D01*
X188507000Y-107013000D01*
X189720924Y-107013000D01*
X189865184Y-106778087D01*
X189671954Y-106225680D01*
X189354167Y-105870000D01*
X189671954Y-105514320D01*
X189865184Y-104961913D01*
X189720924Y-104727000D01*
X188507000Y-104727000D01*
X188253000Y-104727000D01*
X188233000Y-104727000D01*
X188233000Y-104473000D01*
X188253000Y-104473000D01*
X188253000Y-102187000D01*
X188507000Y-102187000D01*
X188507000Y-104473000D01*
X189720924Y-104473000D01*
X189865184Y-104238087D01*
X189671954Y-103685680D01*
X189354167Y-103330000D01*
X189671954Y-102974320D01*
X189865184Y-102421913D01*
X189720924Y-102187000D01*
X188507000Y-102187000D01*
X188253000Y-102187000D01*
X188233000Y-102187000D01*
X188233000Y-101933000D01*
X188253000Y-101933000D01*
X188253000Y-99647000D01*
X188507000Y-99647000D01*
X188507000Y-101933000D01*
X189720924Y-101933000D01*
X189865184Y-101698087D01*
X189671954Y-101145680D01*
X189354167Y-100790000D01*
X189671954Y-100434320D01*
X189865184Y-99881913D01*
X189720924Y-99647000D01*
X188507000Y-99647000D01*
X188253000Y-99647000D01*
X188233000Y-99647000D01*
X188233000Y-99393000D01*
X188253000Y-99393000D01*
X188253000Y-98033783D01*
X188507000Y-98033783D01*
X188507000Y-99393000D01*
X189720924Y-99393000D01*
X189865184Y-99158087D01*
X189671954Y-98605680D01*
X189282036Y-98169268D01*
X188754791Y-97915291D01*
X188739026Y-97912642D01*
X188507000Y-98033783D01*
X188253000Y-98033783D01*
X188020974Y-97912642D01*
X188005209Y-97915291D01*
X187477964Y-98169268D01*
X187106461Y-98585069D01*
X186899670Y-98275585D01*
X186413489Y-97950729D01*
X185840000Y-97836655D01*
X185266511Y-97950729D01*
X184780330Y-98275585D01*
X184770757Y-98289913D01*
X184766762Y-98268683D01*
X184627690Y-98052559D01*
X184415490Y-97907569D01*
X184163600Y-97856560D01*
X182436400Y-97856560D01*
X182201083Y-97900838D01*
X181984959Y-98039910D01*
X181839969Y-98252110D01*
X181788960Y-98504000D01*
X156555075Y-98504000D01*
X156555162Y-98404833D01*
X156413117Y-98061057D01*
X156150327Y-97797808D01*
X155806799Y-97655162D01*
X155434833Y-97654838D01*
X155091057Y-97796883D01*
X154827808Y-98059673D01*
X154685162Y-98403201D01*
X154684838Y-98775167D01*
X149781343Y-98775167D01*
X149763117Y-98731057D01*
X149500327Y-98467808D01*
X149156799Y-98325162D01*
X148784833Y-98324838D01*
X148441057Y-98466883D01*
X148177808Y-98729673D01*
X148035162Y-99073201D01*
X148034838Y-99445167D01*
X140225074Y-99445167D01*
X140225162Y-99344833D01*
X140083117Y-99001057D01*
X139820327Y-98737808D01*
X139476799Y-98595162D01*
X139456630Y-98595144D01*
X139534838Y-98406799D01*
X139535162Y-98034833D01*
X139393117Y-97691057D01*
X139130327Y-97427808D01*
X138786799Y-97285162D01*
X138414833Y-97284838D01*
X138071057Y-97426883D01*
X137807808Y-97689673D01*
X137665162Y-98033201D01*
X137664838Y-98405167D01*
X137075475Y-98405167D01*
X137053117Y-98351057D01*
X136790327Y-98087808D01*
X136446799Y-97945162D01*
X136074833Y-97944838D01*
X135731057Y-98086883D01*
X135467808Y-98349673D01*
X135325162Y-98693201D01*
X135324838Y-99065167D01*
X117247040Y-99065167D01*
X117247040Y-98758000D01*
X117202762Y-98522683D01*
X117192607Y-98506901D01*
X117196031Y-98501890D01*
X117247040Y-98250000D01*
X117247040Y-96218000D01*
X117202762Y-95982683D01*
X117192607Y-95966901D01*
X117196031Y-95961890D01*
X117247040Y-95710000D01*
X117247040Y-95255167D01*
X129444838Y-95255167D01*
X129586883Y-95598943D01*
X129849673Y-95862192D01*
X130193201Y-96004838D01*
X130565167Y-96005162D01*
X130908943Y-95863117D01*
X130956976Y-95815167D01*
X158154838Y-95815167D01*
X158296883Y-96158943D01*
X158559673Y-96422192D01*
X158903201Y-96564838D01*
X159275167Y-96565162D01*
X159618943Y-96423117D01*
X159882192Y-96160327D01*
X160024838Y-95816799D01*
X160025162Y-95444833D01*
X159883117Y-95101057D01*
X159620327Y-94837808D01*
X159276799Y-94695162D01*
X158904833Y-94694838D01*
X158561057Y-94836883D01*
X158297808Y-95099673D01*
X158155162Y-95443201D01*
X158154838Y-95815167D01*
X130956976Y-95815167D01*
X131172192Y-95600327D01*
X131314838Y-95256799D01*
X131315162Y-94884833D01*
X131173117Y-94541057D01*
X130910327Y-94277808D01*
X130566799Y-94135162D01*
X130194833Y-94134838D01*
X129851057Y-94276883D01*
X129587808Y-94539673D01*
X129445162Y-94883201D01*
X129444838Y-95255167D01*
X117247040Y-95255167D01*
X117247040Y-93678000D01*
X117246507Y-93675167D01*
X125094838Y-93675167D01*
X125236883Y-94018943D01*
X125499673Y-94282192D01*
X125843201Y-94424838D01*
X126215167Y-94425162D01*
X126558943Y-94283117D01*
X126783563Y-94058889D01*
X126886883Y-94308943D01*
X127149673Y-94572192D01*
X127493201Y-94714838D01*
X127865167Y-94715162D01*
X128208943Y-94573117D01*
X128472192Y-94310327D01*
X128614838Y-93966799D01*
X128615162Y-93594833D01*
X128473117Y-93251057D01*
X128407342Y-93185167D01*
X147804838Y-93185167D01*
X147946883Y-93528943D01*
X148209673Y-93792192D01*
X148553201Y-93934838D01*
X148925167Y-93935162D01*
X149268943Y-93793117D01*
X149532192Y-93530327D01*
X149674838Y-93186799D01*
X149675162Y-92814833D01*
X149533117Y-92471057D01*
X149270327Y-92207808D01*
X148950894Y-92075167D01*
X151114838Y-92075167D01*
X151256883Y-92418943D01*
X151519673Y-92682192D01*
X151863201Y-92824838D01*
X152235167Y-92825162D01*
X152578943Y-92683117D01*
X152842192Y-92420327D01*
X152984838Y-92076799D01*
X152985162Y-91704833D01*
X152843117Y-91361057D01*
X152580327Y-91097808D01*
X152236799Y-90955162D01*
X151864833Y-90954838D01*
X151521057Y-91096883D01*
X151257808Y-91359673D01*
X151115162Y-91703201D01*
X151114838Y-92075167D01*
X148950894Y-92075167D01*
X148926799Y-92065162D01*
X148554833Y-92064838D01*
X148211057Y-92206883D01*
X147947808Y-92469673D01*
X147805162Y-92813201D01*
X147804838Y-93185167D01*
X128407342Y-93185167D01*
X128210327Y-92987808D01*
X127866799Y-92845162D01*
X127494833Y-92844838D01*
X127151057Y-92986883D01*
X126926437Y-93211111D01*
X126823117Y-92961057D01*
X126560327Y-92697808D01*
X126216799Y-92555162D01*
X125844833Y-92554838D01*
X125501057Y-92696883D01*
X125237808Y-92959673D01*
X125095162Y-93303201D01*
X125094838Y-93675167D01*
X117246507Y-93675167D01*
X117202762Y-93442683D01*
X117192607Y-93426901D01*
X117196031Y-93421890D01*
X117247040Y-93170000D01*
X117247040Y-91995167D01*
X120454838Y-91995167D01*
X120596883Y-92338943D01*
X120859673Y-92602192D01*
X121203201Y-92744838D01*
X121575167Y-92745162D01*
X121918943Y-92603117D01*
X122182192Y-92340327D01*
X122324838Y-91996799D01*
X122324839Y-91995167D01*
X130234838Y-91995167D01*
X130376883Y-92338943D01*
X130639673Y-92602192D01*
X130983201Y-92744838D01*
X131355167Y-92745162D01*
X131698943Y-92603117D01*
X131962192Y-92340327D01*
X132104838Y-91996799D01*
X132105162Y-91624833D01*
X131963117Y-91281057D01*
X131700327Y-91017808D01*
X131356799Y-90875162D01*
X130984833Y-90874838D01*
X130641057Y-91016883D01*
X130377808Y-91279673D01*
X130235162Y-91623201D01*
X130234838Y-91995167D01*
X122324839Y-91995167D01*
X122325162Y-91624833D01*
X122183117Y-91281057D01*
X121920327Y-91017808D01*
X121576799Y-90875162D01*
X121204833Y-90874838D01*
X120861057Y-91016883D01*
X120597808Y-91279673D01*
X120455162Y-91623201D01*
X120454838Y-91995167D01*
X117247040Y-91995167D01*
X117247040Y-91138000D01*
X117202762Y-90902683D01*
X117192607Y-90886901D01*
X117196031Y-90881890D01*
X117247040Y-90630000D01*
X117247040Y-89615167D01*
X120284838Y-89615167D01*
X120426883Y-89958943D01*
X120689673Y-90222192D01*
X121033201Y-90364838D01*
X121405167Y-90365162D01*
X121748943Y-90223117D01*
X121897151Y-90075167D01*
X148014838Y-90075167D01*
X148156883Y-90418943D01*
X148419673Y-90682192D01*
X148763201Y-90824838D01*
X149135167Y-90825162D01*
X149478943Y-90683117D01*
X149742192Y-90420327D01*
X149884838Y-90076799D01*
X149885162Y-89704833D01*
X149743117Y-89361057D01*
X149480327Y-89097808D01*
X149136799Y-88955162D01*
X148764833Y-88954838D01*
X148421057Y-89096883D01*
X148157808Y-89359673D01*
X148015162Y-89703201D01*
X148014838Y-90075167D01*
X121897151Y-90075167D01*
X122012192Y-89960327D01*
X122154838Y-89616799D01*
X122155162Y-89244833D01*
X122023080Y-88925167D01*
X152784838Y-88925167D01*
X152926883Y-89268943D01*
X153189673Y-89532192D01*
X153533201Y-89674838D01*
X153905167Y-89675162D01*
X154248943Y-89533117D01*
X154512192Y-89270327D01*
X154654838Y-88926799D01*
X154655162Y-88554833D01*
X154513117Y-88211057D01*
X154250327Y-87947808D01*
X153906799Y-87805162D01*
X153534833Y-87804838D01*
X153191057Y-87946883D01*
X152927808Y-88209673D01*
X152785162Y-88553201D01*
X152784838Y-88925167D01*
X122023080Y-88925167D01*
X122013117Y-88901057D01*
X121750327Y-88637808D01*
X121406799Y-88495162D01*
X121034833Y-88494838D01*
X120691057Y-88636883D01*
X120427808Y-88899673D01*
X120285162Y-89243201D01*
X120284838Y-89615167D01*
X117247040Y-89615167D01*
X117247040Y-88598000D01*
X117202762Y-88362683D01*
X117063690Y-88146559D01*
X116851490Y-88001569D01*
X116599600Y-87950560D01*
X114872400Y-87950560D01*
X114637083Y-87994838D01*
X114420959Y-88133910D01*
X114275969Y-88346110D01*
X114267600Y-88387439D01*
X114255670Y-88369585D01*
X113769489Y-88044729D01*
X113196000Y-87930655D01*
X112622511Y-88044729D01*
X112136330Y-88369585D01*
X111929539Y-88679069D01*
X111558036Y-88263268D01*
X111030791Y-88009291D01*
X111015026Y-88006642D01*
X110783000Y-88127783D01*
X110529000Y-88127783D01*
X110296974Y-88006642D01*
X110281209Y-88009291D01*
X109753964Y-88263268D01*
X109364046Y-88699680D01*
X109170816Y-89252087D01*
X107785000Y-89252087D01*
X107785000Y-85251913D01*
X109204816Y-85251913D01*
X109398046Y-85804320D01*
X109787964Y-86240732D01*
X110315209Y-86494709D01*
X110330974Y-86497358D01*
X110563000Y-86376217D01*
X110563000Y-85017000D01*
X109349076Y-85017000D01*
X109204816Y-85251913D01*
X107785000Y-85251913D01*
X107785000Y-84528087D01*
X109204816Y-84528087D01*
X109349076Y-84763000D01*
X110563000Y-84763000D01*
X110563000Y-83403783D01*
X110817000Y-83403783D01*
X110817000Y-84763000D01*
X110837000Y-84763000D01*
X110837000Y-85017000D01*
X110817000Y-85017000D01*
X110817000Y-86376217D01*
X111049026Y-86497358D01*
X111064791Y-86494709D01*
X111592036Y-86240732D01*
X111963539Y-85824931D01*
X112170330Y-86134415D01*
X112656511Y-86459271D01*
X113230000Y-86573345D01*
X113803489Y-86459271D01*
X114289670Y-86134415D01*
X114500000Y-85819634D01*
X114710330Y-86134415D01*
X115196511Y-86459271D01*
X115770000Y-86573345D01*
X116343489Y-86459271D01*
X116829670Y-86134415D01*
X116839243Y-86120087D01*
X116843238Y-86141317D01*
X116982310Y-86357441D01*
X117194510Y-86502431D01*
X117446400Y-86553440D01*
X119173600Y-86553440D01*
X119358998Y-86518555D01*
X119317808Y-86559673D01*
X119175162Y-86903201D01*
X119174838Y-87275167D01*
X119316883Y-87618943D01*
X119579673Y-87882192D01*
X119923201Y-88024838D01*
X120295167Y-88025162D01*
X120638943Y-87883117D01*
X120676959Y-87845167D01*
X147654838Y-87845167D01*
X147796883Y-88188943D01*
X148059673Y-88452192D01*
X148403201Y-88594838D01*
X148775167Y-88595162D01*
X149118943Y-88453117D01*
X149382192Y-88190327D01*
X149524838Y-87846799D01*
X149525162Y-87474833D01*
X149383117Y-87131057D01*
X149120327Y-86867808D01*
X148873142Y-86765167D01*
X150954838Y-86765167D01*
X151096883Y-87108943D01*
X151359673Y-87372192D01*
X151703201Y-87514838D01*
X152075167Y-87515162D01*
X152418943Y-87373117D01*
X152682192Y-87110327D01*
X152824838Y-86766799D01*
X152825162Y-86394833D01*
X152683117Y-86051057D01*
X152420327Y-85787808D01*
X152076799Y-85645162D01*
X151704833Y-85644838D01*
X151361057Y-85786883D01*
X151097808Y-86049673D01*
X150955162Y-86393201D01*
X150954838Y-86765167D01*
X148873142Y-86765167D01*
X148776799Y-86725162D01*
X148404833Y-86724838D01*
X148061057Y-86866883D01*
X147797808Y-87129673D01*
X147655162Y-87473201D01*
X147654838Y-87845167D01*
X120676959Y-87845167D01*
X120902192Y-87620327D01*
X121031995Y-87307728D01*
X121073201Y-87324838D01*
X121445167Y-87325162D01*
X121788943Y-87183117D01*
X121917116Y-87055167D01*
X131164838Y-87055167D01*
X131306883Y-87398943D01*
X131569673Y-87662192D01*
X131913201Y-87804838D01*
X132285167Y-87805162D01*
X132628943Y-87663117D01*
X132892192Y-87400327D01*
X133034838Y-87056799D01*
X133034900Y-86985167D01*
X135114838Y-86985167D01*
X135256883Y-87328943D01*
X135519673Y-87592192D01*
X135863201Y-87734838D01*
X136235167Y-87735162D01*
X136578943Y-87593117D01*
X136842192Y-87330327D01*
X136984838Y-86986799D01*
X136985162Y-86614833D01*
X136843117Y-86271057D01*
X136580327Y-86007808D01*
X136236799Y-85865162D01*
X135864833Y-85864838D01*
X135521057Y-86006883D01*
X135257808Y-86269673D01*
X135115162Y-86613201D01*
X135114838Y-86985167D01*
X133034900Y-86985167D01*
X133035162Y-86684833D01*
X132893117Y-86341057D01*
X132630327Y-86077808D01*
X132286799Y-85935162D01*
X131914833Y-85934838D01*
X131571057Y-86076883D01*
X131307808Y-86339673D01*
X131165162Y-86683201D01*
X131164838Y-87055167D01*
X121917116Y-87055167D01*
X122052192Y-86920327D01*
X122194838Y-86576799D01*
X122195162Y-86204833D01*
X122053117Y-85861057D01*
X121790327Y-85597808D01*
X121446799Y-85455162D01*
X121074833Y-85454838D01*
X120731057Y-85596883D01*
X120467808Y-85859673D01*
X120338005Y-86172272D01*
X120296799Y-86155162D01*
X119924833Y-86154838D01*
X119712041Y-86242762D01*
X119770031Y-86157890D01*
X119821040Y-85906000D01*
X119821040Y-85085167D01*
X124534838Y-85085167D01*
X124676883Y-85428943D01*
X124939673Y-85692192D01*
X125283201Y-85834838D01*
X125655167Y-85835162D01*
X125998943Y-85693117D01*
X126054885Y-85637273D01*
X126129673Y-85712192D01*
X126473201Y-85854838D01*
X126845167Y-85855162D01*
X127188943Y-85713117D01*
X127452192Y-85450327D01*
X127594838Y-85106799D01*
X127595135Y-84765167D01*
X147884838Y-84765167D01*
X148026883Y-85108943D01*
X148289673Y-85372192D01*
X148633201Y-85514838D01*
X149005167Y-85515162D01*
X149348943Y-85373117D01*
X149612192Y-85110327D01*
X149754838Y-84766799D01*
X149755162Y-84394833D01*
X149613117Y-84051057D01*
X149350327Y-83787808D01*
X149006799Y-83645162D01*
X148634833Y-83644838D01*
X148291057Y-83786883D01*
X148027808Y-84049673D01*
X147885162Y-84393201D01*
X147884838Y-84765167D01*
X127595135Y-84765167D01*
X127595162Y-84734833D01*
X127453117Y-84391057D01*
X127190327Y-84127808D01*
X126846799Y-83985162D01*
X126474833Y-83984838D01*
X126131057Y-84126883D01*
X126075115Y-84182727D01*
X126000327Y-84107808D01*
X125656799Y-83965162D01*
X125284833Y-83964838D01*
X124941057Y-84106883D01*
X124677808Y-84369673D01*
X124535162Y-84713201D01*
X124534838Y-85085167D01*
X119821040Y-85085167D01*
X119821040Y-83874000D01*
X119776762Y-83638683D01*
X119768065Y-83625167D01*
X152804838Y-83625167D01*
X152946883Y-83968943D01*
X153209673Y-84232192D01*
X153553201Y-84374838D01*
X153925167Y-84375162D01*
X154268943Y-84233117D01*
X154532192Y-83970327D01*
X154674838Y-83626799D01*
X154675162Y-83254833D01*
X154533117Y-82911057D01*
X154270327Y-82647808D01*
X153926799Y-82505162D01*
X153554833Y-82504838D01*
X153211057Y-82646883D01*
X152947808Y-82909673D01*
X152805162Y-83253201D01*
X152804838Y-83625167D01*
X119768065Y-83625167D01*
X119637690Y-83422559D01*
X119425490Y-83277569D01*
X119173600Y-83226560D01*
X117446400Y-83226560D01*
X117211083Y-83270838D01*
X116994959Y-83409910D01*
X116849969Y-83622110D01*
X116841600Y-83663439D01*
X116829670Y-83645585D01*
X116343489Y-83320729D01*
X115770000Y-83206655D01*
X115196511Y-83320729D01*
X114710330Y-83645585D01*
X114500000Y-83960366D01*
X114289670Y-83645585D01*
X113803489Y-83320729D01*
X113230000Y-83206655D01*
X112656511Y-83320729D01*
X112170330Y-83645585D01*
X111963539Y-83955069D01*
X111592036Y-83539268D01*
X111064791Y-83285291D01*
X111049026Y-83282642D01*
X110817000Y-83403783D01*
X110563000Y-83403783D01*
X110330974Y-83282642D01*
X110315209Y-83285291D01*
X109787964Y-83539268D01*
X109398046Y-83975680D01*
X109204816Y-84528087D01*
X107785000Y-84528087D01*
X107785000Y-80422815D01*
X108964630Y-80422815D01*
X109288980Y-81207800D01*
X109889041Y-81808909D01*
X110673459Y-82134628D01*
X111522815Y-82135370D01*
X112307800Y-81811020D01*
X112833987Y-81285750D01*
X115865000Y-81285750D01*
X115865000Y-81726310D01*
X115961673Y-81959699D01*
X116140302Y-82138327D01*
X116373691Y-82235000D01*
X116814250Y-82235000D01*
X116973000Y-82076250D01*
X116973000Y-81127000D01*
X116023750Y-81127000D01*
X115865000Y-81285750D01*
X112833987Y-81285750D01*
X112908909Y-81210959D01*
X113234628Y-80426541D01*
X113235370Y-79577185D01*
X112927067Y-78831036D01*
X115852193Y-78831036D01*
X115882518Y-79321413D01*
X116011836Y-79633617D01*
X116237263Y-79683129D01*
X116121570Y-79798822D01*
X116171499Y-79848751D01*
X116140302Y-79861673D01*
X115961673Y-80040301D01*
X115865000Y-80273690D01*
X115865000Y-80714250D01*
X116023750Y-80873000D01*
X116973000Y-80873000D01*
X116973000Y-80853000D01*
X117227000Y-80853000D01*
X117227000Y-80873000D01*
X117247000Y-80873000D01*
X117247000Y-81127000D01*
X117227000Y-81127000D01*
X117227000Y-82076250D01*
X117385750Y-82235000D01*
X117826309Y-82235000D01*
X118059698Y-82138327D01*
X118238327Y-81959699D01*
X118260224Y-81906836D01*
X118399515Y-82046371D01*
X118853266Y-82234785D01*
X119344579Y-82235214D01*
X119798657Y-82047592D01*
X120100221Y-81746554D01*
X120399515Y-82046371D01*
X120853266Y-82234785D01*
X121344579Y-82235214D01*
X121798657Y-82047592D01*
X122100221Y-81746554D01*
X122399515Y-82046371D01*
X122853266Y-82234785D01*
X123344579Y-82235214D01*
X123798657Y-82047592D01*
X124100221Y-81746554D01*
X124399515Y-82046371D01*
X124853266Y-82234785D01*
X125207863Y-82235095D01*
X125316883Y-82498943D01*
X125579673Y-82762192D01*
X125923201Y-82904838D01*
X126295167Y-82905162D01*
X126638943Y-82763117D01*
X126902192Y-82500327D01*
X127012398Y-82234924D01*
X127242008Y-82235124D01*
X127346883Y-82488943D01*
X127609673Y-82752192D01*
X127953201Y-82894838D01*
X128325167Y-82895162D01*
X128668943Y-82753117D01*
X128932192Y-82490327D01*
X129038236Y-82234947D01*
X129344579Y-82235214D01*
X129798657Y-82047592D01*
X130100221Y-81746554D01*
X130399515Y-82046371D01*
X130853266Y-82234785D01*
X131344579Y-82235214D01*
X131798657Y-82047592D01*
X132100221Y-81746554D01*
X132399515Y-82046371D01*
X132853266Y-82234785D01*
X133344579Y-82235214D01*
X133798657Y-82047592D01*
X134100221Y-81746554D01*
X134399515Y-82046371D01*
X134853266Y-82234785D01*
X135344579Y-82235214D01*
X135798657Y-82047592D01*
X136100221Y-81746554D01*
X136399515Y-82046371D01*
X136853266Y-82234785D01*
X137344579Y-82235214D01*
X137798657Y-82047592D01*
X138100221Y-81746554D01*
X138399515Y-82046371D01*
X138853266Y-82234785D01*
X139344579Y-82235214D01*
X139798657Y-82047592D01*
X140100221Y-81746554D01*
X140399515Y-82046371D01*
X140853266Y-82234785D01*
X141344579Y-82235214D01*
X141798657Y-82047592D01*
X142100221Y-81746554D01*
X142399515Y-82046371D01*
X142853266Y-82234785D01*
X143344579Y-82235214D01*
X143798657Y-82047592D01*
X144100221Y-81746554D01*
X144399515Y-82046371D01*
X144853266Y-82234785D01*
X145344579Y-82235214D01*
X145798657Y-82047592D01*
X146100221Y-81746554D01*
X146399515Y-82046371D01*
X146853266Y-82234785D01*
X147344579Y-82235214D01*
X147798657Y-82047592D01*
X148100221Y-81746554D01*
X148399515Y-82046371D01*
X148853266Y-82234785D01*
X149344579Y-82235214D01*
X149798657Y-82047592D01*
X150100221Y-81746554D01*
X150399515Y-82046371D01*
X150853266Y-82234785D01*
X151344579Y-82235214D01*
X151798657Y-82047592D01*
X152100221Y-81746554D01*
X152399515Y-82046371D01*
X152853266Y-82234785D01*
X153344579Y-82235214D01*
X153798657Y-82047592D01*
X153983837Y-81862735D01*
X154416870Y-81862735D01*
X154466383Y-82088164D01*
X154931036Y-82247807D01*
X155421413Y-82217482D01*
X155733617Y-82088164D01*
X155740391Y-82057320D01*
X171130285Y-82057320D01*
X171259533Y-82350123D01*
X171959806Y-82618388D01*
X172709435Y-82598250D01*
X173308467Y-82350123D01*
X173437715Y-82057320D01*
X172284000Y-80903605D01*
X171130285Y-82057320D01*
X155740391Y-82057320D01*
X155783130Y-81862735D01*
X155100000Y-81179605D01*
X154416870Y-81862735D01*
X153983837Y-81862735D01*
X154146371Y-81700485D01*
X154160572Y-81666285D01*
X154237265Y-81683130D01*
X154920395Y-81000000D01*
X155279605Y-81000000D01*
X155962735Y-81683130D01*
X156188164Y-81633617D01*
X156347807Y-81168964D01*
X156317482Y-80678587D01*
X156202009Y-80399806D01*
X170389612Y-80399806D01*
X170409750Y-81149435D01*
X170657877Y-81748467D01*
X170950680Y-81877715D01*
X172104395Y-80724000D01*
X172463605Y-80724000D01*
X173617320Y-81877715D01*
X173910123Y-81748467D01*
X174159574Y-81097305D01*
X175398674Y-81097305D01*
X175685043Y-81790372D01*
X176214839Y-82321093D01*
X176907405Y-82608672D01*
X177657305Y-82609326D01*
X178350372Y-82322957D01*
X178881093Y-81793161D01*
X179168672Y-81100595D01*
X179169326Y-80350695D01*
X178882957Y-79657628D01*
X178699650Y-79474000D01*
X180386560Y-79474000D01*
X180386560Y-81974000D01*
X180430838Y-82209317D01*
X180569910Y-82425441D01*
X180782110Y-82570431D01*
X181034000Y-82621440D01*
X183534000Y-82621440D01*
X183769317Y-82577162D01*
X183985441Y-82438090D01*
X184130431Y-82225890D01*
X184181440Y-81974000D01*
X184181440Y-80422815D01*
X185964630Y-80422815D01*
X186288980Y-81207800D01*
X186889041Y-81808909D01*
X187673459Y-82134628D01*
X188522815Y-82135370D01*
X189307800Y-81811020D01*
X189908909Y-81210959D01*
X190234628Y-80426541D01*
X190235370Y-79577185D01*
X189911020Y-78792200D01*
X189310959Y-78191091D01*
X188526541Y-77865372D01*
X187677185Y-77864630D01*
X186892200Y-78188980D01*
X186291091Y-78789041D01*
X185965372Y-79573459D01*
X185964630Y-80422815D01*
X184181440Y-80422815D01*
X184181440Y-79474000D01*
X184137162Y-79238683D01*
X183998090Y-79022559D01*
X183785890Y-78877569D01*
X183534000Y-78826560D01*
X181034000Y-78826560D01*
X180798683Y-78870838D01*
X180582559Y-79009910D01*
X180437569Y-79222110D01*
X180386560Y-79474000D01*
X178699650Y-79474000D01*
X178353161Y-79126907D01*
X177660595Y-78839328D01*
X176910695Y-78838674D01*
X176217628Y-79125043D01*
X175686907Y-79654839D01*
X175399328Y-80347405D01*
X175398674Y-81097305D01*
X174159574Y-81097305D01*
X174178388Y-81048194D01*
X174158250Y-80298565D01*
X173910123Y-79699533D01*
X173617320Y-79570285D01*
X172463605Y-80724000D01*
X172104395Y-80724000D01*
X170950680Y-79570285D01*
X170657877Y-79699533D01*
X170389612Y-80399806D01*
X156202009Y-80399806D01*
X156188164Y-80366383D01*
X155962735Y-80316870D01*
X155279605Y-81000000D01*
X154920395Y-81000000D01*
X154237265Y-80316870D01*
X154160935Y-80333635D01*
X154147592Y-80301343D01*
X153846554Y-79999779D01*
X153983837Y-79862735D01*
X154416870Y-79862735D01*
X154447019Y-80000000D01*
X154416870Y-80137265D01*
X155100000Y-80820395D01*
X155783130Y-80137265D01*
X155752981Y-80000000D01*
X155783130Y-79862735D01*
X155100000Y-79179605D01*
X154416870Y-79862735D01*
X153983837Y-79862735D01*
X154146371Y-79700485D01*
X154160572Y-79666285D01*
X154237265Y-79683130D01*
X154920395Y-79000000D01*
X155279605Y-79000000D01*
X155962735Y-79683130D01*
X156188164Y-79633617D01*
X156271630Y-79390680D01*
X171130285Y-79390680D01*
X172284000Y-80544395D01*
X173437715Y-79390680D01*
X173308467Y-79097877D01*
X172608194Y-78829612D01*
X171858565Y-78849750D01*
X171259533Y-79097877D01*
X171130285Y-79390680D01*
X156271630Y-79390680D01*
X156347807Y-79168964D01*
X156317482Y-78678587D01*
X156188164Y-78366383D01*
X155962735Y-78316870D01*
X155279605Y-79000000D01*
X154920395Y-79000000D01*
X154237265Y-78316870D01*
X154160935Y-78333635D01*
X154147592Y-78301343D01*
X153983801Y-78137265D01*
X154416870Y-78137265D01*
X155100000Y-78820395D01*
X155783130Y-78137265D01*
X155733617Y-77911836D01*
X155268964Y-77752193D01*
X154778587Y-77782518D01*
X154466383Y-77911836D01*
X154416870Y-78137265D01*
X153983801Y-78137265D01*
X153800485Y-77953629D01*
X153346734Y-77765215D01*
X152855421Y-77764786D01*
X152401343Y-77952408D01*
X152099779Y-78253446D01*
X151800485Y-77953629D01*
X151346734Y-77765215D01*
X150855421Y-77764786D01*
X150401343Y-77952408D01*
X150099779Y-78253446D01*
X149800485Y-77953629D01*
X149346734Y-77765215D01*
X148855421Y-77764786D01*
X148401343Y-77952408D01*
X148099779Y-78253446D01*
X147800485Y-77953629D01*
X147346734Y-77765215D01*
X146855421Y-77764786D01*
X146401343Y-77952408D01*
X146099779Y-78253446D01*
X145800485Y-77953629D01*
X145346734Y-77765215D01*
X144855421Y-77764786D01*
X144401343Y-77952408D01*
X144099779Y-78253446D01*
X143800485Y-77953629D01*
X143346734Y-77765215D01*
X142855421Y-77764786D01*
X142401343Y-77952408D01*
X142099779Y-78253446D01*
X141800485Y-77953629D01*
X141346734Y-77765215D01*
X140855421Y-77764786D01*
X140401343Y-77952408D01*
X140099779Y-78253446D01*
X139800485Y-77953629D01*
X139346734Y-77765215D01*
X138855421Y-77764786D01*
X138401343Y-77952408D01*
X138099779Y-78253446D01*
X137800485Y-77953629D01*
X137346734Y-77765215D01*
X136855421Y-77764786D01*
X136401343Y-77952408D01*
X136099779Y-78253446D01*
X135800485Y-77953629D01*
X135346734Y-77765215D01*
X134855421Y-77764786D01*
X134401343Y-77952408D01*
X134099779Y-78253446D01*
X133800485Y-77953629D01*
X133346734Y-77765215D01*
X132855421Y-77764786D01*
X132401343Y-77952408D01*
X132099779Y-78253446D01*
X131800485Y-77953629D01*
X131346734Y-77765215D01*
X130855421Y-77764786D01*
X130401343Y-77952408D01*
X130099779Y-78253446D01*
X129800485Y-77953629D01*
X129346734Y-77765215D01*
X128855421Y-77764786D01*
X128401343Y-77952408D01*
X128099779Y-78253446D01*
X127800485Y-77953629D01*
X127346734Y-77765215D01*
X126855421Y-77764786D01*
X126401343Y-77952408D01*
X126099779Y-78253446D01*
X125800485Y-77953629D01*
X125346734Y-77765215D01*
X124855421Y-77764786D01*
X124401343Y-77952408D01*
X124099779Y-78253446D01*
X123800485Y-77953629D01*
X123346734Y-77765215D01*
X122855421Y-77764786D01*
X122401343Y-77952408D01*
X122099779Y-78253446D01*
X121800485Y-77953629D01*
X121346734Y-77765215D01*
X120855421Y-77764786D01*
X120401343Y-77952408D01*
X120099779Y-78253446D01*
X119800485Y-77953629D01*
X119346734Y-77765215D01*
X118855421Y-77764786D01*
X118401343Y-77952408D01*
X118053629Y-78299515D01*
X118039428Y-78333715D01*
X117962735Y-78316870D01*
X117279605Y-79000000D01*
X117293748Y-79014143D01*
X117114143Y-79193748D01*
X117100000Y-79179605D01*
X117085858Y-79193748D01*
X116906253Y-79014143D01*
X116920395Y-79000000D01*
X116237265Y-78316870D01*
X116011836Y-78366383D01*
X115852193Y-78831036D01*
X112927067Y-78831036D01*
X112911020Y-78792200D01*
X112310959Y-78191091D01*
X112181332Y-78137265D01*
X116416870Y-78137265D01*
X117100000Y-78820395D01*
X117783130Y-78137265D01*
X117733617Y-77911836D01*
X117268964Y-77752193D01*
X116778587Y-77782518D01*
X116466383Y-77911836D01*
X116416870Y-78137265D01*
X112181332Y-78137265D01*
X111526541Y-77865372D01*
X110677185Y-77864630D01*
X109892200Y-78188980D01*
X109291091Y-78789041D01*
X108965372Y-79573459D01*
X108964630Y-80422815D01*
X107785000Y-80422815D01*
X107785000Y-76685000D01*
X191414492Y-76685000D01*
X191414492Y-129315000D01*
X191414492Y-129315000D01*
G37*
X191414492Y-129315000D02*
X107785000Y-129315000D01*
X107785000Y-127819026D01*
X108921642Y-127819026D01*
X108924291Y-127834791D01*
X109178268Y-128362036D01*
X109614680Y-128751954D01*
X110167087Y-128945184D01*
X110402000Y-128800924D01*
X110402000Y-127587000D01*
X110656000Y-127587000D01*
X110656000Y-128800924D01*
X110890913Y-128945184D01*
X111443320Y-128751954D01*
X111799000Y-128434167D01*
X112154680Y-128751954D01*
X112707087Y-128945184D01*
X112942000Y-128800924D01*
X112942000Y-127587000D01*
X113196000Y-127587000D01*
X113196000Y-128800924D01*
X113430913Y-128945184D01*
X113983320Y-128751954D01*
X114339000Y-128434167D01*
X114694680Y-128751954D01*
X115247087Y-128945184D01*
X115482000Y-128800924D01*
X115482000Y-127587000D01*
X115736000Y-127587000D01*
X115736000Y-128800924D01*
X115970913Y-128945184D01*
X116523320Y-128751954D01*
X116879000Y-128434167D01*
X117234680Y-128751954D01*
X117787087Y-128945184D01*
X118022000Y-128800924D01*
X118022000Y-127587000D01*
X118276000Y-127587000D01*
X118276000Y-128800924D01*
X118510913Y-128945184D01*
X119063320Y-128751954D01*
X119419000Y-128434167D01*
X119774680Y-128751954D01*
X120327087Y-128945184D01*
X120562000Y-128800924D01*
X120562000Y-127587000D01*
X120816000Y-127587000D01*
X120816000Y-128800924D01*
X121050913Y-128945184D01*
X121603320Y-128751954D01*
X121959000Y-128434167D01*
X122314680Y-128751954D01*
X122867087Y-128945184D01*
X123102000Y-128800924D01*
X123102000Y-127587000D01*
X123356000Y-127587000D01*
X123356000Y-128800924D01*
X123590913Y-128945184D01*
X124143320Y-128751954D01*
X124499000Y-128434167D01*
X124854680Y-128751954D01*
X125407087Y-128945184D01*
X125642000Y-128800924D01*
X125642000Y-127587000D01*
X125896000Y-127587000D01*
X125896000Y-128800924D01*
X126130913Y-128945184D01*
X126683320Y-128751954D01*
X127039000Y-128434167D01*
X127394680Y-128751954D01*
X127947087Y-128945184D01*
X128182000Y-128800924D01*
X128182000Y-127587000D01*
X128436000Y-127587000D01*
X128436000Y-128800924D01*
X128670913Y-128945184D01*
X129223320Y-128751954D01*
X129659732Y-128362036D01*
X129913709Y-127834791D01*
X129916358Y-127819026D01*
X129795217Y-127587000D01*
X128436000Y-127587000D01*
X128182000Y-127587000D01*
X125896000Y-127587000D01*
X125642000Y-127587000D01*
X123356000Y-127587000D01*
X123102000Y-127587000D01*
X120816000Y-127587000D01*
X120562000Y-127587000D01*
X118276000Y-127587000D01*
X118022000Y-127587000D01*
X115736000Y-127587000D01*
X115482000Y-127587000D01*
X113196000Y-127587000D01*
X112942000Y-127587000D01*
X110656000Y-127587000D01*
X110402000Y-127587000D01*
X109042783Y-127587000D01*
X108921642Y-127819026D01*
X107785000Y-127819026D01*
X107785000Y-124920000D01*
X108845655Y-124920000D01*
X108959729Y-125493489D01*
X109284585Y-125979670D01*
X109594069Y-126186461D01*
X109178268Y-126557964D01*
X108924291Y-127085209D01*
X108921642Y-127100974D01*
X109042783Y-127333000D01*
X110402000Y-127333000D01*
X110402000Y-127313000D01*
X110656000Y-127313000D01*
X110656000Y-127333000D01*
X112942000Y-127333000D01*
X112942000Y-127313000D01*
X113196000Y-127313000D01*
X113196000Y-127333000D01*
X115482000Y-127333000D01*
X115482000Y-127313000D01*
X115736000Y-127313000D01*
X115736000Y-127333000D01*
X118022000Y-127333000D01*
X118022000Y-127313000D01*
X118276000Y-127313000D01*
X118276000Y-127333000D01*
X120562000Y-127333000D01*
X120562000Y-127313000D01*
X120816000Y-127313000D01*
X120816000Y-127333000D01*
X123102000Y-127333000D01*
X123102000Y-127313000D01*
X123356000Y-127313000D01*
X123356000Y-127333000D01*
X125642000Y-127333000D01*
X125642000Y-127313000D01*
X125896000Y-127313000D01*
X125896000Y-127333000D01*
X128182000Y-127333000D01*
X128182000Y-127313000D01*
X128436000Y-127313000D01*
X128436000Y-127333000D01*
X129795217Y-127333000D01*
X129916358Y-127100974D01*
X129913709Y-127085209D01*
X129659732Y-126557964D01*
X129243931Y-126186461D01*
X129553415Y-125979670D01*
X129878271Y-125493489D01*
X129992345Y-124920000D01*
X132848655Y-124920000D01*
X132962729Y-125493489D01*
X133287585Y-125979670D01*
X133602366Y-126190000D01*
X133287585Y-126400330D01*
X132962729Y-126886511D01*
X132848655Y-127460000D01*
X132962729Y-128033489D01*
X133287585Y-128519670D01*
X133773766Y-128844526D01*
X134347255Y-128958600D01*
X134716745Y-128958600D01*
X135290234Y-128844526D01*
X135776415Y-128519670D01*
X136101271Y-128033489D01*
X136143930Y-127819026D01*
X139401642Y-127819026D01*
X139404291Y-127834791D01*
X139658268Y-128362036D01*
X140094680Y-128751954D01*
X140647087Y-128945184D01*
X140882000Y-128800924D01*
X140882000Y-127587000D01*
X141136000Y-127587000D01*
X141136000Y-128800924D01*
X141370913Y-128945184D01*
X141923320Y-128751954D01*
X142279000Y-128434167D01*
X142634680Y-128751954D01*
X143187087Y-128945184D01*
X143422000Y-128800924D01*
X143422000Y-127587000D01*
X143676000Y-127587000D01*
X143676000Y-128800924D01*
X143910913Y-128945184D01*
X144463320Y-128751954D01*
X144819000Y-128434167D01*
X145174680Y-128751954D01*
X145727087Y-128945184D01*
X145962000Y-128800924D01*
X145962000Y-127587000D01*
X146216000Y-127587000D01*
X146216000Y-128800924D01*
X146450913Y-128945184D01*
X147003320Y-128751954D01*
X147359000Y-128434167D01*
X147714680Y-128751954D01*
X148267087Y-128945184D01*
X148502000Y-128800924D01*
X148502000Y-127587000D01*
X148756000Y-127587000D01*
X148756000Y-128800924D01*
X148990913Y-128945184D01*
X149543320Y-128751954D01*
X149899000Y-128434167D01*
X150254680Y-128751954D01*
X150807087Y-128945184D01*
X151042000Y-128800924D01*
X151042000Y-127587000D01*
X151296000Y-127587000D01*
X151296000Y-128800924D01*
X151530913Y-128945184D01*
X152083320Y-128751954D01*
X152439000Y-128434167D01*
X152794680Y-128751954D01*
X153347087Y-128945184D01*
X153582000Y-128800924D01*
X153582000Y-127587000D01*
X153836000Y-127587000D01*
X153836000Y-128800924D01*
X154070913Y-128945184D01*
X154623320Y-128751954D01*
X154979000Y-128434167D01*
X155334680Y-128751954D01*
X155887087Y-128945184D01*
X156122000Y-128800924D01*
X156122000Y-127587000D01*
X156376000Y-127587000D01*
X156376000Y-128800924D01*
X156610913Y-128945184D01*
X157163320Y-128751954D01*
X157519000Y-128434167D01*
X157874680Y-128751954D01*
X158427087Y-128945184D01*
X158662000Y-128800924D01*
X158662000Y-127587000D01*
X158916000Y-127587000D01*
X158916000Y-128800924D01*
X159150913Y-128945184D01*
X159703320Y-128751954D01*
X160139732Y-128362036D01*
X160393709Y-127834791D01*
X160396358Y-127819026D01*
X160275217Y-127587000D01*
X158916000Y-127587000D01*
X158662000Y-127587000D01*
X156376000Y-127587000D01*
X156122000Y-127587000D01*
X153836000Y-127587000D01*
X153582000Y-127587000D01*
X151296000Y-127587000D01*
X151042000Y-127587000D01*
X148756000Y-127587000D01*
X148502000Y-127587000D01*
X146216000Y-127587000D01*
X145962000Y-127587000D01*
X143676000Y-127587000D01*
X143422000Y-127587000D01*
X141136000Y-127587000D01*
X140882000Y-127587000D01*
X139522783Y-127587000D01*
X139401642Y-127819026D01*
X136143930Y-127819026D01*
X136215345Y-127460000D01*
X136101271Y-126886511D01*
X135776415Y-126400330D01*
X135461634Y-126190000D01*
X135776415Y-125979670D01*
X136101271Y-125493489D01*
X136215345Y-124920000D01*
X139325655Y-124920000D01*
X139439729Y-125493489D01*
X139764585Y-125979670D01*
X140074069Y-126186461D01*
X139658268Y-126557964D01*
X139404291Y-127085209D01*
X139401642Y-127100974D01*
X139522783Y-127333000D01*
X140882000Y-127333000D01*
X140882000Y-127313000D01*
X141136000Y-127313000D01*
X141136000Y-127333000D01*
X143422000Y-127333000D01*
X143422000Y-127313000D01*
X143676000Y-127313000D01*
X143676000Y-127333000D01*
X145962000Y-127333000D01*
X145962000Y-127313000D01*
X146216000Y-127313000D01*
X146216000Y-127333000D01*
X148502000Y-127333000D01*
X148502000Y-127313000D01*
X148756000Y-127313000D01*
X148756000Y-127333000D01*
X151042000Y-127333000D01*
X151042000Y-127313000D01*
X151296000Y-127313000D01*
X151296000Y-127333000D01*
X153582000Y-127333000D01*
X153582000Y-127313000D01*
X153836000Y-127313000D01*
X153836000Y-127333000D01*
X156122000Y-127333000D01*
X156122000Y-127313000D01*
X156376000Y-127313000D01*
X156376000Y-127333000D01*
X158662000Y-127333000D01*
X158662000Y-127313000D01*
X158916000Y-127313000D01*
X158916000Y-127333000D01*
X160275217Y-127333000D01*
X160396358Y-127100974D01*
X160393709Y-127085209D01*
X160139732Y-126557964D01*
X159723931Y-126186461D01*
X160033415Y-125979670D01*
X160358271Y-125493489D01*
X160472345Y-124920000D01*
X163328655Y-124920000D01*
X163442729Y-125493489D01*
X163767585Y-125979670D01*
X164082366Y-126190000D01*
X163767585Y-126400330D01*
X163442729Y-126886511D01*
X163328655Y-127460000D01*
X163442729Y-128033489D01*
X163767585Y-128519670D01*
X164253766Y-128844526D01*
X164827255Y-128958600D01*
X165196745Y-128958600D01*
X165770234Y-128844526D01*
X166256415Y-128519670D01*
X166581271Y-128033489D01*
X166695345Y-127460000D01*
X166643720Y-127200460D01*
X169520100Y-127200460D01*
X169520100Y-127475460D01*
X169655098Y-127900138D01*
X169942337Y-128240828D01*
X170353226Y-128442579D01*
X170528100Y-128316414D01*
X170528100Y-127200460D01*
X170782100Y-127200460D01*
X170782100Y-128316414D01*
X170956974Y-128442579D01*
X171367863Y-128240828D01*
X171655102Y-127900138D01*
X171790100Y-127475460D01*
X171790100Y-127200460D01*
X176520100Y-127200460D01*
X176520100Y-127475460D01*
X176655098Y-127900138D01*
X176942337Y-128240828D01*
X177353226Y-128442579D01*
X177528100Y-128316414D01*
X177528100Y-127200460D01*
X177782100Y-127200460D01*
X177782100Y-128316414D01*
X177956974Y-128442579D01*
X178367863Y-128240828D01*
X178655102Y-127900138D01*
X178790100Y-127475460D01*
X178790100Y-127200460D01*
X177782100Y-127200460D01*
X177528100Y-127200460D01*
X176520100Y-127200460D01*
X171790100Y-127200460D01*
X170782100Y-127200460D01*
X170528100Y-127200460D01*
X169520100Y-127200460D01*
X166643720Y-127200460D01*
X166581271Y-126886511D01*
X166437579Y-126671460D01*
X169520100Y-126671460D01*
X169520100Y-126946460D01*
X170528100Y-126946460D01*
X170528100Y-125830506D01*
X170782100Y-125830506D01*
X170782100Y-126946460D01*
X171790100Y-126946460D01*
X171790100Y-126671460D01*
X176520100Y-126671460D01*
X176520100Y-126946460D01*
X177528100Y-126946460D01*
X177528100Y-125830506D01*
X177782100Y-125830506D01*
X177782100Y-126946460D01*
X178790100Y-126946460D01*
X178790100Y-126671460D01*
X178655102Y-126246782D01*
X178367863Y-125906092D01*
X177956974Y-125704341D01*
X177782100Y-125830506D01*
X177528100Y-125830506D01*
X177353226Y-125704341D01*
X176942337Y-125906092D01*
X176655098Y-126246782D01*
X176520100Y-126671460D01*
X171790100Y-126671460D01*
X171655102Y-126246782D01*
X171367863Y-125906092D01*
X170956974Y-125704341D01*
X170782100Y-125830506D01*
X170528100Y-125830506D01*
X170353226Y-125704341D01*
X169942337Y-125906092D01*
X169655098Y-126246782D01*
X169520100Y-126671460D01*
X166437579Y-126671460D01*
X166256415Y-126400330D01*
X165941634Y-126190000D01*
X166256415Y-125979670D01*
X166581271Y-125493489D01*
X166695345Y-124920000D01*
X166645896Y-124671398D01*
X170435832Y-124671398D01*
X170619548Y-125045281D01*
X170944051Y-125333028D01*
X171353969Y-125474689D01*
X171528100Y-125326023D01*
X171528100Y-124500460D01*
X171782100Y-124500460D01*
X171782100Y-125326023D01*
X171956231Y-125474689D01*
X172366149Y-125333028D01*
X172690652Y-125045281D01*
X172874368Y-124671398D01*
X175435832Y-124671398D01*
X175619548Y-125045281D01*
X175944051Y-125333028D01*
X176353969Y-125474689D01*
X176528100Y-125326023D01*
X176528100Y-124500460D01*
X176782100Y-124500460D01*
X176782100Y-125326023D01*
X176956231Y-125474689D01*
X177366149Y-125333028D01*
X177690652Y-125045281D01*
X177874368Y-124671398D01*
X177747834Y-124500460D01*
X176782100Y-124500460D01*
X176528100Y-124500460D01*
X175562366Y-124500460D01*
X175435832Y-124671398D01*
X172874368Y-124671398D01*
X172747834Y-124500460D01*
X171782100Y-124500460D01*
X171528100Y-124500460D01*
X170562366Y-124500460D01*
X170435832Y-124671398D01*
X166645896Y-124671398D01*
X166581271Y-124346511D01*
X166400202Y-124075522D01*
X170435832Y-124075522D01*
X170562366Y-124246460D01*
X171528100Y-124246460D01*
X171528100Y-123420897D01*
X171782100Y-123420897D01*
X171782100Y-124246460D01*
X172747834Y-124246460D01*
X172874368Y-124075522D01*
X175435832Y-124075522D01*
X175562366Y-124246460D01*
X176528100Y-124246460D01*
X176528100Y-123420897D01*
X176782100Y-123420897D01*
X176782100Y-124246460D01*
X177747834Y-124246460D01*
X177874368Y-124075522D01*
X177690652Y-123701639D01*
X177366149Y-123413892D01*
X176956231Y-123272231D01*
X176782100Y-123420897D01*
X176528100Y-123420897D01*
X176353969Y-123272231D01*
X175944051Y-123413892D01*
X175619548Y-123701639D01*
X175435832Y-124075522D01*
X172874368Y-124075522D01*
X172690652Y-123701639D01*
X172366149Y-123413892D01*
X171956231Y-123272231D01*
X171782100Y-123420897D01*
X171528100Y-123420897D01*
X171353969Y-123272231D01*
X170944051Y-123413892D01*
X170619548Y-123701639D01*
X170435832Y-124075522D01*
X166400202Y-124075522D01*
X166256415Y-123860330D01*
X166242087Y-123850757D01*
X166263317Y-123846762D01*
X166479441Y-123707690D01*
X166624431Y-123495490D01*
X166675440Y-123243600D01*
X166675440Y-121516400D01*
X166631162Y-121281083D01*
X166492090Y-121064959D01*
X166279890Y-120919969D01*
X166028000Y-120868960D01*
X163996000Y-120868960D01*
X163760683Y-120913238D01*
X163544559Y-121052310D01*
X163399569Y-121264510D01*
X163348560Y-121516400D01*
X163348560Y-123243600D01*
X163392838Y-123478917D01*
X163531910Y-123695041D01*
X163744110Y-123840031D01*
X163785439Y-123848400D01*
X163767585Y-123860330D01*
X163442729Y-124346511D01*
X163328655Y-124920000D01*
X160472345Y-124920000D01*
X160358271Y-124346511D01*
X160033415Y-123860330D01*
X160019087Y-123850757D01*
X160040317Y-123846762D01*
X160256441Y-123707690D01*
X160401431Y-123495490D01*
X160452440Y-123243600D01*
X160452440Y-121516400D01*
X160408162Y-121281083D01*
X160269090Y-121064959D01*
X160056890Y-120919969D01*
X159805000Y-120868960D01*
X157773000Y-120868960D01*
X157537683Y-120913238D01*
X157521901Y-120923393D01*
X157516890Y-120919969D01*
X157265000Y-120868960D01*
X155233000Y-120868960D01*
X154997683Y-120913238D01*
X154981901Y-120923393D01*
X154976890Y-120919969D01*
X154725000Y-120868960D01*
X152693000Y-120868960D01*
X152457683Y-120913238D01*
X152441901Y-120923393D01*
X152436890Y-120919969D01*
X152185000Y-120868960D01*
X150153000Y-120868960D01*
X149917683Y-120913238D01*
X149901901Y-120923393D01*
X149896890Y-120919969D01*
X149645000Y-120868960D01*
X147613000Y-120868960D01*
X147377683Y-120913238D01*
X147361901Y-120923393D01*
X147356890Y-120919969D01*
X147105000Y-120868960D01*
X145073000Y-120868960D01*
X144837683Y-120913238D01*
X144821901Y-120923393D01*
X144816890Y-120919969D01*
X144565000Y-120868960D01*
X142533000Y-120868960D01*
X142297683Y-120913238D01*
X142281901Y-120923393D01*
X142276890Y-120919969D01*
X142025000Y-120868960D01*
X139993000Y-120868960D01*
X139757683Y-120913238D01*
X139541559Y-121052310D01*
X139396569Y-121264510D01*
X139345560Y-121516400D01*
X139345560Y-123243600D01*
X139389838Y-123478917D01*
X139528910Y-123695041D01*
X139741110Y-123840031D01*
X139782439Y-123848400D01*
X139764585Y-123860330D01*
X139439729Y-124346511D01*
X139325655Y-124920000D01*
X136215345Y-124920000D01*
X136101271Y-124346511D01*
X135776415Y-123860330D01*
X135762087Y-123850757D01*
X135783317Y-123846762D01*
X135999441Y-123707690D01*
X136144431Y-123495490D01*
X136195440Y-123243600D01*
X136195440Y-121516400D01*
X136151162Y-121281083D01*
X136012090Y-121064959D01*
X135799890Y-120919969D01*
X135548000Y-120868960D01*
X133516000Y-120868960D01*
X133280683Y-120913238D01*
X133064559Y-121052310D01*
X132919569Y-121264510D01*
X132868560Y-121516400D01*
X132868560Y-123243600D01*
X132912838Y-123478917D01*
X133051910Y-123695041D01*
X133264110Y-123840031D01*
X133305439Y-123848400D01*
X133287585Y-123860330D01*
X132962729Y-124346511D01*
X132848655Y-124920000D01*
X129992345Y-124920000D01*
X129878271Y-124346511D01*
X129553415Y-123860330D01*
X129539087Y-123850757D01*
X129560317Y-123846762D01*
X129776441Y-123707690D01*
X129921431Y-123495490D01*
X129972440Y-123243600D01*
X129972440Y-121516400D01*
X129928162Y-121281083D01*
X129789090Y-121064959D01*
X129576890Y-120919969D01*
X129325000Y-120868960D01*
X127293000Y-120868960D01*
X127057683Y-120913238D01*
X127041901Y-120923393D01*
X127036890Y-120919969D01*
X126785000Y-120868960D01*
X124753000Y-120868960D01*
X124517683Y-120913238D01*
X124501901Y-120923393D01*
X124496890Y-120919969D01*
X124245000Y-120868960D01*
X122213000Y-120868960D01*
X121977683Y-120913238D01*
X121961901Y-120923393D01*
X121956890Y-120919969D01*
X121705000Y-120868960D01*
X119673000Y-120868960D01*
X119437683Y-120913238D01*
X119421901Y-120923393D01*
X119416890Y-120919969D01*
X119165000Y-120868960D01*
X117133000Y-120868960D01*
X116897683Y-120913238D01*
X116881901Y-120923393D01*
X116876890Y-120919969D01*
X116625000Y-120868960D01*
X114593000Y-120868960D01*
X114357683Y-120913238D01*
X114341901Y-120923393D01*
X114336890Y-120919969D01*
X114085000Y-120868960D01*
X112053000Y-120868960D01*
X111817683Y-120913238D01*
X111801901Y-120923393D01*
X111796890Y-120919969D01*
X111545000Y-120868960D01*
X109513000Y-120868960D01*
X109277683Y-120913238D01*
X109061559Y-121052310D01*
X108916569Y-121264510D01*
X108865560Y-121516400D01*
X108865560Y-123243600D01*
X108909838Y-123478917D01*
X109048910Y-123695041D01*
X109261110Y-123840031D01*
X109302439Y-123848400D01*
X109284585Y-123860330D01*
X108959729Y-124346511D01*
X108845655Y-124920000D01*
X107785000Y-124920000D01*
X107785000Y-118775167D01*
X178994838Y-118775167D01*
X179136883Y-119118943D01*
X179399673Y-119382192D01*
X179743201Y-119524838D01*
X180115167Y-119525162D01*
X180458943Y-119383117D01*
X180722192Y-119120327D01*
X180864838Y-118776799D01*
X180865162Y-118404833D01*
X180723117Y-118061057D01*
X180460327Y-117797808D01*
X180116799Y-117655162D01*
X179744833Y-117654838D01*
X179401057Y-117796883D01*
X179137808Y-118059673D01*
X178995162Y-118403201D01*
X178994838Y-118775167D01*
X107785000Y-118775167D01*
X107785000Y-117165167D01*
X168934838Y-117165167D01*
X169076883Y-117508943D01*
X169339673Y-117772192D01*
X169683201Y-117914838D01*
X170055167Y-117915162D01*
X170398943Y-117773117D01*
X170662192Y-117510327D01*
X170804838Y-117166799D01*
X170805004Y-116975167D01*
X174094838Y-116975167D01*
X174236883Y-117318943D01*
X174499673Y-117582192D01*
X174843201Y-117724838D01*
X175215167Y-117725162D01*
X175558943Y-117583117D01*
X175822192Y-117320327D01*
X175964838Y-116976799D01*
X175965162Y-116604833D01*
X175823117Y-116261057D01*
X175560327Y-115997808D01*
X175313142Y-115895167D01*
X176604838Y-115895167D01*
X176746883Y-116238943D01*
X177009673Y-116502192D01*
X177353201Y-116644838D01*
X177725167Y-116645162D01*
X178068943Y-116503117D01*
X178332192Y-116240327D01*
X178474838Y-115896799D01*
X178475162Y-115524833D01*
X178333117Y-115181057D01*
X178070327Y-114917808D01*
X177726799Y-114775162D01*
X177354833Y-114774838D01*
X177011057Y-114916883D01*
X176747808Y-115179673D01*
X176605162Y-115523201D01*
X176604838Y-115895167D01*
X175313142Y-115895167D01*
X175216799Y-115855162D01*
X174844833Y-115854838D01*
X174501057Y-115996883D01*
X174237808Y-116259673D01*
X174095162Y-116603201D01*
X174094838Y-116975167D01*
X170805004Y-116975167D01*
X170805162Y-116794833D01*
X170663117Y-116451057D01*
X170400327Y-116187808D01*
X170056799Y-116045162D01*
X169684833Y-116044838D01*
X169341057Y-116186883D01*
X169077808Y-116449673D01*
X168935162Y-116793201D01*
X168934838Y-117165167D01*
X107785000Y-117165167D01*
X107785000Y-114815167D01*
X128714838Y-114815167D01*
X128856883Y-115158943D01*
X129119673Y-115422192D01*
X129237255Y-115471017D01*
X129376883Y-115808943D01*
X129639673Y-116072192D01*
X129983201Y-116214838D01*
X130355167Y-116215162D01*
X130698943Y-116073117D01*
X130962192Y-115810327D01*
X131104838Y-115466799D01*
X131105162Y-115094833D01*
X130963117Y-114751057D01*
X130897203Y-114685028D01*
X131062192Y-114520327D01*
X131204838Y-114176799D01*
X131205162Y-113804833D01*
X131089607Y-113525167D01*
X137674838Y-113525167D01*
X137816883Y-113868943D01*
X137937710Y-113989981D01*
X137817808Y-114109673D01*
X137675162Y-114453201D01*
X137674838Y-114825167D01*
X137816883Y-115168943D01*
X137947701Y-115299989D01*
X137827808Y-115419673D01*
X137685162Y-115763201D01*
X137684838Y-116135167D01*
X137826883Y-116478943D01*
X138089673Y-116742192D01*
X138433201Y-116884838D01*
X138805167Y-116885162D01*
X139148943Y-116743117D01*
X139412192Y-116480327D01*
X139545687Y-116158837D01*
X139728943Y-116083117D01*
X139992192Y-115820327D01*
X140134838Y-115476799D01*
X140135162Y-115104833D01*
X139993117Y-114761057D01*
X139877282Y-114645019D01*
X140002192Y-114520327D01*
X140144838Y-114176799D01*
X140145162Y-113804833D01*
X140003117Y-113461057D01*
X139887430Y-113345167D01*
X168874838Y-113345167D01*
X169016883Y-113688943D01*
X169279673Y-113952192D01*
X169623201Y-114094838D01*
X169995167Y-114095162D01*
X170237173Y-113995167D01*
X171394838Y-113995167D01*
X171536883Y-114338943D01*
X171799673Y-114602192D01*
X172143201Y-114744838D01*
X172515167Y-114745162D01*
X172858943Y-114603117D01*
X173122192Y-114340327D01*
X173264838Y-113996799D01*
X173265162Y-113624833D01*
X173123117Y-113281057D01*
X172860327Y-113017808D01*
X172516799Y-112875162D01*
X172144833Y-112874838D01*
X171801057Y-113016883D01*
X171537808Y-113279673D01*
X171395162Y-113623201D01*
X171394838Y-113995167D01*
X170237173Y-113995167D01*
X170338943Y-113953117D01*
X170602192Y-113690327D01*
X170744838Y-113346799D01*
X170745162Y-112974833D01*
X170603117Y-112631057D01*
X170340327Y-112367808D01*
X169996799Y-112225162D01*
X169624833Y-112224838D01*
X169281057Y-112366883D01*
X169017808Y-112629673D01*
X168875162Y-112973201D01*
X168874838Y-113345167D01*
X139887430Y-113345167D01*
X139872308Y-113330019D01*
X139982192Y-113220327D01*
X140124838Y-112876799D01*
X140125162Y-112504833D01*
X139983117Y-112161057D01*
X139872273Y-112050019D01*
X140002192Y-111920327D01*
X140144838Y-111576799D01*
X140144909Y-111495167D01*
X179334838Y-111495167D01*
X179476883Y-111838943D01*
X179739673Y-112102192D01*
X180083201Y-112244838D01*
X180455167Y-112245162D01*
X180798943Y-112103117D01*
X180979559Y-111922815D01*
X185964630Y-111922815D01*
X186288980Y-112707800D01*
X186889041Y-113308909D01*
X187673459Y-113634628D01*
X188522815Y-113635370D01*
X189307800Y-113311020D01*
X189908909Y-112710959D01*
X190234628Y-111926541D01*
X190235370Y-111077185D01*
X189911020Y-110292200D01*
X189310959Y-109691091D01*
X188526541Y-109365372D01*
X187677185Y-109364630D01*
X186892200Y-109688980D01*
X186291091Y-110289041D01*
X185965372Y-111073459D01*
X185964630Y-111922815D01*
X180979559Y-111922815D01*
X181062192Y-111840327D01*
X181204838Y-111496799D01*
X181205162Y-111124833D01*
X181063117Y-110781057D01*
X180800327Y-110517808D01*
X180456799Y-110375162D01*
X180084833Y-110374838D01*
X179741057Y-110516883D01*
X179477808Y-110779673D01*
X179335162Y-111123201D01*
X179334838Y-111495167D01*
X140144909Y-111495167D01*
X140145162Y-111204833D01*
X140003117Y-110861057D01*
X139740327Y-110597808D01*
X139550319Y-110518909D01*
X139423117Y-110211057D01*
X139160327Y-109947808D01*
X138816799Y-109805162D01*
X138444833Y-109804838D01*
X138101057Y-109946883D01*
X137837808Y-110209673D01*
X137695162Y-110553201D01*
X137694838Y-110925167D01*
X137836883Y-111268943D01*
X137962701Y-111394981D01*
X137847808Y-111509673D01*
X137705162Y-111853201D01*
X137704838Y-112225167D01*
X137846883Y-112568943D01*
X137952736Y-112674981D01*
X137817808Y-112809673D01*
X137675162Y-113153201D01*
X137674838Y-113525167D01*
X131089607Y-113525167D01*
X131063117Y-113461057D01*
X130942282Y-113340011D01*
X131072192Y-113210327D01*
X131214838Y-112866799D01*
X131215162Y-112494833D01*
X131073117Y-112151057D01*
X130982247Y-112060028D01*
X131122192Y-111920327D01*
X131264838Y-111576799D01*
X131265162Y-111204833D01*
X131123117Y-110861057D01*
X130860327Y-110597808D01*
X130634105Y-110503872D01*
X130513117Y-110211057D01*
X130250327Y-109947808D01*
X129906799Y-109805162D01*
X129534833Y-109804838D01*
X129191057Y-109946883D01*
X128927808Y-110209673D01*
X128785162Y-110553201D01*
X128784838Y-110925167D01*
X128926883Y-111268943D01*
X129017762Y-111359981D01*
X128867808Y-111509673D01*
X128725162Y-111853201D01*
X128724838Y-112225167D01*
X128866883Y-112568943D01*
X128992701Y-112694981D01*
X128877808Y-112809673D01*
X128735162Y-113153201D01*
X128734838Y-113525167D01*
X128876883Y-113868943D01*
X128982727Y-113974972D01*
X128857808Y-114099673D01*
X128715162Y-114443201D01*
X128714838Y-114815167D01*
X107785000Y-114815167D01*
X107785000Y-111922815D01*
X108964630Y-111922815D01*
X109288980Y-112707800D01*
X109889041Y-113308909D01*
X110673459Y-113634628D01*
X111522815Y-113635370D01*
X112307800Y-113311020D01*
X112908909Y-112710959D01*
X113234628Y-111926541D01*
X113235370Y-111077185D01*
X112911020Y-110292200D01*
X112310959Y-109691091D01*
X112104032Y-109605167D01*
X141044838Y-109605167D01*
X141186883Y-109948943D01*
X141449673Y-110212192D01*
X141793201Y-110354838D01*
X142165167Y-110355162D01*
X142508943Y-110213117D01*
X142772192Y-109950327D01*
X142914838Y-109606799D01*
X142915162Y-109234833D01*
X142773117Y-108891057D01*
X142510327Y-108627808D01*
X142183044Y-108491907D01*
X142518943Y-108353117D01*
X142782192Y-108090327D01*
X142921363Y-107755167D01*
X145954838Y-107755167D01*
X146096883Y-108098943D01*
X146359673Y-108362192D01*
X146667802Y-108490139D01*
X146361057Y-108616883D01*
X146097808Y-108879673D01*
X145955162Y-109223201D01*
X145954838Y-109595167D01*
X146096883Y-109938943D01*
X146359673Y-110202192D01*
X146703201Y-110344838D01*
X147075167Y-110345162D01*
X147418943Y-110203117D01*
X147682192Y-109940327D01*
X147700944Y-109895167D01*
X169254838Y-109895167D01*
X169396883Y-110238943D01*
X169659673Y-110502192D01*
X170003201Y-110644838D01*
X170375167Y-110645162D01*
X170718943Y-110503117D01*
X170982192Y-110240327D01*
X171124838Y-109896799D01*
X171125162Y-109524833D01*
X170983117Y-109181057D01*
X170720327Y-108917808D01*
X170376799Y-108775162D01*
X170004833Y-108774838D01*
X169661057Y-108916883D01*
X169397808Y-109179673D01*
X169255162Y-109523201D01*
X169254838Y-109895167D01*
X147700944Y-109895167D01*
X147824838Y-109596799D01*
X147825162Y-109224833D01*
X147683117Y-108881057D01*
X147420327Y-108617808D01*
X147112198Y-108489861D01*
X147418943Y-108363117D01*
X147600077Y-108182299D01*
X147769673Y-108352192D01*
X148113201Y-108494838D01*
X148485167Y-108495162D01*
X148828943Y-108353117D01*
X149092192Y-108090327D01*
X149234838Y-107746799D01*
X149234874Y-107705167D01*
X157914838Y-107705167D01*
X158056883Y-108048943D01*
X158112710Y-108104867D01*
X158057808Y-108159673D01*
X157915162Y-108503201D01*
X157914838Y-108875167D01*
X158056883Y-109218943D01*
X158319673Y-109482192D01*
X158663201Y-109624838D01*
X159035167Y-109625162D01*
X159378943Y-109483117D01*
X159642192Y-109220327D01*
X159784838Y-108876799D01*
X159785162Y-108504833D01*
X159643117Y-108161057D01*
X159587290Y-108105133D01*
X159607290Y-108085167D01*
X170944838Y-108085167D01*
X171086883Y-108428943D01*
X171349673Y-108692192D01*
X171693201Y-108834838D01*
X172065167Y-108835162D01*
X172408943Y-108693117D01*
X172672192Y-108430327D01*
X172814838Y-108086799D01*
X172815162Y-107714833D01*
X172673117Y-107371057D01*
X172410327Y-107107808D01*
X172066799Y-106965162D01*
X171694833Y-106964838D01*
X171351057Y-107106883D01*
X171087808Y-107369673D01*
X170945162Y-107713201D01*
X170944838Y-108085167D01*
X159607290Y-108085167D01*
X159642192Y-108050327D01*
X159784838Y-107706799D01*
X159785162Y-107334833D01*
X159643117Y-106991057D01*
X159380327Y-106727808D01*
X159036799Y-106585162D01*
X158664833Y-106584838D01*
X158321057Y-106726883D01*
X158057808Y-106989673D01*
X157915162Y-107333201D01*
X157914838Y-107705167D01*
X149234874Y-107705167D01*
X149235162Y-107374833D01*
X149093117Y-107031057D01*
X148830327Y-106767808D01*
X148486799Y-106625162D01*
X148114833Y-106624838D01*
X147771057Y-106766883D01*
X147589923Y-106947701D01*
X147420327Y-106777808D01*
X147076799Y-106635162D01*
X146704833Y-106634838D01*
X146361057Y-106776883D01*
X146097808Y-107039673D01*
X145955162Y-107383201D01*
X145954838Y-107755167D01*
X142921363Y-107755167D01*
X142924838Y-107746799D01*
X142925162Y-107374833D01*
X142783117Y-107031057D01*
X142520327Y-106767808D01*
X142176799Y-106625162D01*
X141804833Y-106624838D01*
X141461057Y-106766883D01*
X141197808Y-107029673D01*
X141055162Y-107373201D01*
X141054838Y-107745167D01*
X141196883Y-108088943D01*
X141459673Y-108352192D01*
X141786956Y-108488093D01*
X141451057Y-108626883D01*
X141187808Y-108889673D01*
X141045162Y-109233201D01*
X141044838Y-109605167D01*
X112104032Y-109605167D01*
X111526541Y-109365372D01*
X110677185Y-109364630D01*
X109892200Y-109688980D01*
X109291091Y-110289041D01*
X108965372Y-111073459D01*
X108964630Y-111922815D01*
X107785000Y-111922815D01*
X107785000Y-107755913D01*
X109170816Y-107755913D01*
X109364046Y-108308320D01*
X109753964Y-108744732D01*
X110281209Y-108998709D01*
X110296974Y-109001358D01*
X110529000Y-108880217D01*
X110529000Y-107521000D01*
X109315076Y-107521000D01*
X109170816Y-107755913D01*
X107785000Y-107755913D01*
X107785000Y-105215913D01*
X109170816Y-105215913D01*
X109364046Y-105768320D01*
X109681833Y-106124000D01*
X109364046Y-106479680D01*
X109170816Y-107032087D01*
X109315076Y-107267000D01*
X110529000Y-107267000D01*
X110529000Y-104981000D01*
X109315076Y-104981000D01*
X109170816Y-105215913D01*
X107785000Y-105215913D01*
X107785000Y-102675913D01*
X109170816Y-102675913D01*
X109364046Y-103228320D01*
X109681833Y-103584000D01*
X109364046Y-103939680D01*
X109170816Y-104492087D01*
X109315076Y-104727000D01*
X110529000Y-104727000D01*
X110529000Y-102441000D01*
X109315076Y-102441000D01*
X109170816Y-102675913D01*
X107785000Y-102675913D01*
X107785000Y-100135913D01*
X109170816Y-100135913D01*
X109364046Y-100688320D01*
X109681833Y-101044000D01*
X109364046Y-101399680D01*
X109170816Y-101952087D01*
X109315076Y-102187000D01*
X110529000Y-102187000D01*
X110529000Y-99901000D01*
X109315076Y-99901000D01*
X109170816Y-100135913D01*
X107785000Y-100135913D01*
X107785000Y-97595913D01*
X109170816Y-97595913D01*
X109364046Y-98148320D01*
X109681833Y-98504000D01*
X109364046Y-98859680D01*
X109170816Y-99412087D01*
X109315076Y-99647000D01*
X110529000Y-99647000D01*
X110529000Y-97361000D01*
X109315076Y-97361000D01*
X109170816Y-97595913D01*
X107785000Y-97595913D01*
X107785000Y-95055913D01*
X109170816Y-95055913D01*
X109364046Y-95608320D01*
X109681833Y-95964000D01*
X109364046Y-96319680D01*
X109170816Y-96872087D01*
X109315076Y-97107000D01*
X110529000Y-97107000D01*
X110529000Y-94821000D01*
X109315076Y-94821000D01*
X109170816Y-95055913D01*
X107785000Y-95055913D01*
X107785000Y-92515913D01*
X109170816Y-92515913D01*
X109364046Y-93068320D01*
X109681833Y-93424000D01*
X109364046Y-93779680D01*
X109170816Y-94332087D01*
X109315076Y-94567000D01*
X110529000Y-94567000D01*
X110529000Y-92281000D01*
X109315076Y-92281000D01*
X109170816Y-92515913D01*
X107785000Y-92515913D01*
X107785000Y-89975913D01*
X109170816Y-89975913D01*
X109364046Y-90528320D01*
X109681833Y-90884000D01*
X109364046Y-91239680D01*
X109170816Y-91792087D01*
X109315076Y-92027000D01*
X110529000Y-92027000D01*
X110529000Y-89741000D01*
X109315076Y-89741000D01*
X109170816Y-89975913D01*
X107785000Y-89975913D01*
X107785000Y-89252087D01*
X109170816Y-89252087D01*
X109315076Y-89487000D01*
X110529000Y-89487000D01*
X110529000Y-88127783D01*
X110783000Y-88127783D01*
X110783000Y-89487000D01*
X110803000Y-89487000D01*
X110803000Y-89741000D01*
X110783000Y-89741000D01*
X110783000Y-92027000D01*
X110803000Y-92027000D01*
X110803000Y-92281000D01*
X110783000Y-92281000D01*
X110783000Y-94567000D01*
X110803000Y-94567000D01*
X110803000Y-94821000D01*
X110783000Y-94821000D01*
X110783000Y-97107000D01*
X110803000Y-97107000D01*
X110803000Y-97361000D01*
X110783000Y-97361000D01*
X110783000Y-99647000D01*
X110803000Y-99647000D01*
X110803000Y-99901000D01*
X110783000Y-99901000D01*
X110783000Y-102187000D01*
X110803000Y-102187000D01*
X110803000Y-102441000D01*
X110783000Y-102441000D01*
X110783000Y-104727000D01*
X110803000Y-104727000D01*
X110803000Y-104981000D01*
X110783000Y-104981000D01*
X110783000Y-107267000D01*
X110803000Y-107267000D01*
X110803000Y-107521000D01*
X110783000Y-107521000D01*
X110783000Y-108880217D01*
X111015026Y-109001358D01*
X111030791Y-108998709D01*
X111558036Y-108744732D01*
X111929539Y-108328931D01*
X112136330Y-108638415D01*
X112622511Y-108963271D01*
X113196000Y-109077345D01*
X113769489Y-108963271D01*
X114255670Y-108638415D01*
X114265243Y-108624087D01*
X114269238Y-108645317D01*
X114408310Y-108861441D01*
X114620510Y-109006431D01*
X114872400Y-109057440D01*
X116599600Y-109057440D01*
X116834917Y-109013162D01*
X117051041Y-108874090D01*
X117196031Y-108661890D01*
X117247040Y-108410000D01*
X117247040Y-107685167D01*
X124274838Y-107685167D01*
X124416883Y-108028943D01*
X124679673Y-108292192D01*
X125023201Y-108434838D01*
X125395167Y-108435162D01*
X125738943Y-108293117D01*
X126002192Y-108030327D01*
X126144838Y-107686799D01*
X126144848Y-107675167D01*
X137804838Y-107675167D01*
X137946883Y-108018943D01*
X138209673Y-108282192D01*
X138553201Y-108424838D01*
X138925167Y-108425162D01*
X139268943Y-108283117D01*
X139532192Y-108020327D01*
X139674838Y-107676799D01*
X139675162Y-107304833D01*
X139533117Y-106961057D01*
X139270327Y-106697808D01*
X138926799Y-106555162D01*
X138554833Y-106554838D01*
X138211057Y-106696883D01*
X137947808Y-106959673D01*
X137805162Y-107303201D01*
X137804838Y-107675167D01*
X126144848Y-107675167D01*
X126145162Y-107314833D01*
X126003117Y-106971057D01*
X125740327Y-106707808D01*
X125396799Y-106565162D01*
X125024833Y-106564838D01*
X124681057Y-106706883D01*
X124417808Y-106969673D01*
X124275162Y-107313201D01*
X124274838Y-107685167D01*
X117247040Y-107685167D01*
X117247040Y-106378000D01*
X117202762Y-106142683D01*
X117192607Y-106126901D01*
X117196031Y-106121890D01*
X117247040Y-105870000D01*
X117247040Y-104875167D01*
X120844838Y-104875167D01*
X120986883Y-105218943D01*
X121249673Y-105482192D01*
X121593201Y-105624838D01*
X121965167Y-105625162D01*
X122308943Y-105483117D01*
X122572192Y-105220327D01*
X122714838Y-104876799D01*
X122714839Y-104875167D01*
X129474838Y-104875167D01*
X129616883Y-105218943D01*
X129879673Y-105482192D01*
X130223201Y-105624838D01*
X130595167Y-105625162D01*
X130938943Y-105483117D01*
X131202192Y-105220327D01*
X131283229Y-105025167D01*
X135514838Y-105025167D01*
X135656883Y-105368943D01*
X135919673Y-105632192D01*
X136263201Y-105774838D01*
X136635167Y-105775162D01*
X136978943Y-105633117D01*
X137242192Y-105370327D01*
X137273401Y-105295167D01*
X140624838Y-105295167D01*
X140766883Y-105638943D01*
X141029673Y-105902192D01*
X141373201Y-106044838D01*
X141745167Y-106045162D01*
X142088943Y-105903117D01*
X142352192Y-105640327D01*
X142494838Y-105296799D01*
X142495162Y-104924833D01*
X142353117Y-104581057D01*
X142090327Y-104317808D01*
X141746799Y-104175162D01*
X141374833Y-104174838D01*
X141031057Y-104316883D01*
X140767808Y-104579673D01*
X140625162Y-104923201D01*
X140624838Y-105295167D01*
X137273401Y-105295167D01*
X137384838Y-105026799D01*
X137385162Y-104654833D01*
X137243117Y-104311057D01*
X136980327Y-104047808D01*
X136636799Y-103905162D01*
X136264833Y-103904838D01*
X135921057Y-104046883D01*
X135657808Y-104309673D01*
X135515162Y-104653201D01*
X135514838Y-105025167D01*
X131283229Y-105025167D01*
X131344838Y-104876799D01*
X131345162Y-104504833D01*
X131203117Y-104161057D01*
X130940327Y-103897808D01*
X130669059Y-103785167D01*
X144434838Y-103785167D01*
X144576883Y-104128943D01*
X144839673Y-104392192D01*
X145183201Y-104534838D01*
X145555167Y-104535162D01*
X145898943Y-104393117D01*
X146162192Y-104130327D01*
X146301363Y-103795167D01*
X169484838Y-103795167D01*
X169626883Y-104138943D01*
X169889673Y-104402192D01*
X170233201Y-104544838D01*
X170605167Y-104545162D01*
X170948943Y-104403117D01*
X171212192Y-104140327D01*
X171354838Y-103796799D01*
X171355162Y-103424833D01*
X171213117Y-103081057D01*
X170950327Y-102817808D01*
X170606799Y-102675162D01*
X170234833Y-102674838D01*
X169891057Y-102816883D01*
X169627808Y-103079673D01*
X169485162Y-103423201D01*
X169484838Y-103795167D01*
X146301363Y-103795167D01*
X146304838Y-103786799D01*
X146305162Y-103414833D01*
X146163117Y-103071057D01*
X145967569Y-102875167D01*
X148634838Y-102875167D01*
X148776883Y-103218943D01*
X149039673Y-103482192D01*
X149383201Y-103624838D01*
X149755167Y-103625162D01*
X150098943Y-103483117D01*
X150362192Y-103220327D01*
X150504838Y-102876799D01*
X150505162Y-102504833D01*
X150363117Y-102161057D01*
X150100327Y-101897808D01*
X149756799Y-101755162D01*
X149384833Y-101754838D01*
X149041057Y-101896883D01*
X148777808Y-102159673D01*
X148635162Y-102503201D01*
X148634838Y-102875167D01*
X145967569Y-102875167D01*
X145900327Y-102807808D01*
X145556799Y-102665162D01*
X145184833Y-102664838D01*
X144841057Y-102806883D01*
X144577808Y-103069673D01*
X144435162Y-103413201D01*
X144434838Y-103785167D01*
X130669059Y-103785167D01*
X130596799Y-103755162D01*
X130224833Y-103754838D01*
X129881057Y-103896883D01*
X129617808Y-104159673D01*
X129475162Y-104503201D01*
X129474838Y-104875167D01*
X122714839Y-104875167D01*
X122715162Y-104504833D01*
X122573117Y-104161057D01*
X122310327Y-103897808D01*
X121966799Y-103755162D01*
X121594833Y-103754838D01*
X121251057Y-103896883D01*
X120987808Y-104159673D01*
X120845162Y-104503201D01*
X120844838Y-104875167D01*
X117247040Y-104875167D01*
X117247040Y-103838000D01*
X117202762Y-103602683D01*
X117192607Y-103586901D01*
X117196031Y-103581890D01*
X117247040Y-103330000D01*
X117247040Y-101785167D01*
X139644838Y-101785167D01*
X139786883Y-102128943D01*
X140049673Y-102392192D01*
X140393201Y-102534838D01*
X140765167Y-102535162D01*
X141108943Y-102393117D01*
X141372192Y-102130327D01*
X141514838Y-101786799D01*
X141515162Y-101414833D01*
X141373117Y-101071057D01*
X141110327Y-100807808D01*
X140766799Y-100665162D01*
X140394833Y-100664838D01*
X140051057Y-100806883D01*
X139787808Y-101069673D01*
X139645162Y-101413201D01*
X139644838Y-101785167D01*
X117247040Y-101785167D01*
X117247040Y-101298000D01*
X117202762Y-101062683D01*
X117192607Y-101046901D01*
X117196031Y-101041890D01*
X117247040Y-100790000D01*
X117247040Y-100465167D01*
X120704838Y-100465167D01*
X120846883Y-100808943D01*
X121109673Y-101072192D01*
X121453201Y-101214838D01*
X121825167Y-101215162D01*
X122168943Y-101073117D01*
X122432192Y-100810327D01*
X122574838Y-100466799D01*
X122574848Y-100455167D01*
X129484838Y-100455167D01*
X129626883Y-100798943D01*
X129889673Y-101062192D01*
X130233201Y-101204838D01*
X130605167Y-101205162D01*
X130948943Y-101063117D01*
X131212192Y-100800327D01*
X131354838Y-100456799D01*
X131355162Y-100084833D01*
X131213117Y-99741057D01*
X130950327Y-99477808D01*
X130606799Y-99335162D01*
X130234833Y-99334838D01*
X129891057Y-99476883D01*
X129627808Y-99739673D01*
X129485162Y-100083201D01*
X129484838Y-100455167D01*
X122574848Y-100455167D01*
X122575162Y-100094833D01*
X122433117Y-99751057D01*
X122170327Y-99487808D01*
X121826799Y-99345162D01*
X121454833Y-99344838D01*
X121111057Y-99486883D01*
X120847808Y-99749673D01*
X120705162Y-100093201D01*
X120704838Y-100465167D01*
X117247040Y-100465167D01*
X117247040Y-99065167D01*
X135324838Y-99065167D01*
X135466883Y-99408943D01*
X135729673Y-99672192D01*
X136073201Y-99814838D01*
X136445167Y-99815162D01*
X136788943Y-99673117D01*
X137052192Y-99410327D01*
X137194838Y-99066799D01*
X137195162Y-98694833D01*
X137075475Y-98405167D01*
X137664838Y-98405167D01*
X137806883Y-98748943D01*
X138069673Y-99012192D01*
X138413201Y-99154838D01*
X138433370Y-99154856D01*
X138355162Y-99343201D01*
X138354838Y-99715167D01*
X138496883Y-100058943D01*
X138759673Y-100322192D01*
X139103201Y-100464838D01*
X139475167Y-100465162D01*
X139818943Y-100323117D01*
X140082192Y-100060327D01*
X140224838Y-99716799D01*
X140225074Y-99445167D01*
X148034838Y-99445167D01*
X148176883Y-99788943D01*
X148439673Y-100052192D01*
X148783201Y-100194838D01*
X149155167Y-100195162D01*
X149498943Y-100053117D01*
X149762192Y-99790327D01*
X149776791Y-99755167D01*
X159494838Y-99755167D01*
X159636883Y-100098943D01*
X159899673Y-100362192D01*
X160243201Y-100504838D01*
X160615167Y-100505162D01*
X160958943Y-100363117D01*
X161222192Y-100100327D01*
X161364838Y-99756799D01*
X161365162Y-99384833D01*
X161223117Y-99041057D01*
X160960327Y-98777808D01*
X160616799Y-98635162D01*
X160244833Y-98634838D01*
X159901057Y-98776883D01*
X159637808Y-99039673D01*
X159495162Y-99383201D01*
X159494838Y-99755167D01*
X149776791Y-99755167D01*
X149904838Y-99446799D01*
X149905162Y-99074833D01*
X149781343Y-98775167D01*
X154684838Y-98775167D01*
X154826883Y-99118943D01*
X155089673Y-99382192D01*
X155433201Y-99524838D01*
X155805167Y-99525162D01*
X156148943Y-99383117D01*
X156412192Y-99120327D01*
X156554838Y-98776799D01*
X156555075Y-98504000D01*
X181788960Y-98504000D01*
X181788960Y-100536000D01*
X181833238Y-100771317D01*
X181843393Y-100787099D01*
X181839969Y-100792110D01*
X181788960Y-101044000D01*
X181788960Y-103076000D01*
X181833238Y-103311317D01*
X181843393Y-103327099D01*
X181839969Y-103332110D01*
X181788960Y-103584000D01*
X181788960Y-105616000D01*
X181833238Y-105851317D01*
X181843393Y-105867099D01*
X181839969Y-105872110D01*
X181788960Y-106124000D01*
X181788960Y-108156000D01*
X181833238Y-108391317D01*
X181972310Y-108607441D01*
X182184510Y-108752431D01*
X182436400Y-108803440D01*
X184163600Y-108803440D01*
X184398917Y-108759162D01*
X184615041Y-108620090D01*
X184760031Y-108407890D01*
X184768400Y-108366561D01*
X184780330Y-108384415D01*
X185266511Y-108709271D01*
X185840000Y-108823345D01*
X186413489Y-108709271D01*
X186899670Y-108384415D01*
X187106461Y-108074931D01*
X187477964Y-108490732D01*
X188005209Y-108744709D01*
X188020974Y-108747358D01*
X188253000Y-108626217D01*
X188253000Y-107267000D01*
X188507000Y-107267000D01*
X188507000Y-108626217D01*
X188739026Y-108747358D01*
X188754791Y-108744709D01*
X189282036Y-108490732D01*
X189671954Y-108054320D01*
X189865184Y-107501913D01*
X189720924Y-107267000D01*
X188507000Y-107267000D01*
X188253000Y-107267000D01*
X188233000Y-107267000D01*
X188233000Y-107013000D01*
X188253000Y-107013000D01*
X188253000Y-104727000D01*
X188507000Y-104727000D01*
X188507000Y-107013000D01*
X189720924Y-107013000D01*
X189865184Y-106778087D01*
X189671954Y-106225680D01*
X189354167Y-105870000D01*
X189671954Y-105514320D01*
X189865184Y-104961913D01*
X189720924Y-104727000D01*
X188507000Y-104727000D01*
X188253000Y-104727000D01*
X188233000Y-104727000D01*
X188233000Y-104473000D01*
X188253000Y-104473000D01*
X188253000Y-102187000D01*
X188507000Y-102187000D01*
X188507000Y-104473000D01*
X189720924Y-104473000D01*
X189865184Y-104238087D01*
X189671954Y-103685680D01*
X189354167Y-103330000D01*
X189671954Y-102974320D01*
X189865184Y-102421913D01*
X189720924Y-102187000D01*
X188507000Y-102187000D01*
X188253000Y-102187000D01*
X188233000Y-102187000D01*
X188233000Y-101933000D01*
X188253000Y-101933000D01*
X188253000Y-99647000D01*
X188507000Y-99647000D01*
X188507000Y-101933000D01*
X189720924Y-101933000D01*
X189865184Y-101698087D01*
X189671954Y-101145680D01*
X189354167Y-100790000D01*
X189671954Y-100434320D01*
X189865184Y-99881913D01*
X189720924Y-99647000D01*
X188507000Y-99647000D01*
X188253000Y-99647000D01*
X188233000Y-99647000D01*
X188233000Y-99393000D01*
X188253000Y-99393000D01*
X188253000Y-98033783D01*
X188507000Y-98033783D01*
X188507000Y-99393000D01*
X189720924Y-99393000D01*
X189865184Y-99158087D01*
X189671954Y-98605680D01*
X189282036Y-98169268D01*
X188754791Y-97915291D01*
X188739026Y-97912642D01*
X188507000Y-98033783D01*
X188253000Y-98033783D01*
X188020974Y-97912642D01*
X188005209Y-97915291D01*
X187477964Y-98169268D01*
X187106461Y-98585069D01*
X186899670Y-98275585D01*
X186413489Y-97950729D01*
X185840000Y-97836655D01*
X185266511Y-97950729D01*
X184780330Y-98275585D01*
X184770757Y-98289913D01*
X184766762Y-98268683D01*
X184627690Y-98052559D01*
X184415490Y-97907569D01*
X184163600Y-97856560D01*
X182436400Y-97856560D01*
X182201083Y-97900838D01*
X181984959Y-98039910D01*
X181839969Y-98252110D01*
X181788960Y-98504000D01*
X156555075Y-98504000D01*
X156555162Y-98404833D01*
X156413117Y-98061057D01*
X156150327Y-97797808D01*
X155806799Y-97655162D01*
X155434833Y-97654838D01*
X155091057Y-97796883D01*
X154827808Y-98059673D01*
X154685162Y-98403201D01*
X154684838Y-98775167D01*
X149781343Y-98775167D01*
X149763117Y-98731057D01*
X149500327Y-98467808D01*
X149156799Y-98325162D01*
X148784833Y-98324838D01*
X148441057Y-98466883D01*
X148177808Y-98729673D01*
X148035162Y-99073201D01*
X148034838Y-99445167D01*
X140225074Y-99445167D01*
X140225162Y-99344833D01*
X140083117Y-99001057D01*
X139820327Y-98737808D01*
X139476799Y-98595162D01*
X139456630Y-98595144D01*
X139534838Y-98406799D01*
X139535162Y-98034833D01*
X139393117Y-97691057D01*
X139130327Y-97427808D01*
X138786799Y-97285162D01*
X138414833Y-97284838D01*
X138071057Y-97426883D01*
X137807808Y-97689673D01*
X137665162Y-98033201D01*
X137664838Y-98405167D01*
X137075475Y-98405167D01*
X137053117Y-98351057D01*
X136790327Y-98087808D01*
X136446799Y-97945162D01*
X136074833Y-97944838D01*
X135731057Y-98086883D01*
X135467808Y-98349673D01*
X135325162Y-98693201D01*
X135324838Y-99065167D01*
X117247040Y-99065167D01*
X117247040Y-98758000D01*
X117202762Y-98522683D01*
X117192607Y-98506901D01*
X117196031Y-98501890D01*
X117247040Y-98250000D01*
X117247040Y-96218000D01*
X117202762Y-95982683D01*
X117192607Y-95966901D01*
X117196031Y-95961890D01*
X117247040Y-95710000D01*
X117247040Y-95255167D01*
X129444838Y-95255167D01*
X129586883Y-95598943D01*
X129849673Y-95862192D01*
X130193201Y-96004838D01*
X130565167Y-96005162D01*
X130908943Y-95863117D01*
X130956976Y-95815167D01*
X158154838Y-95815167D01*
X158296883Y-96158943D01*
X158559673Y-96422192D01*
X158903201Y-96564838D01*
X159275167Y-96565162D01*
X159618943Y-96423117D01*
X159882192Y-96160327D01*
X160024838Y-95816799D01*
X160025162Y-95444833D01*
X159883117Y-95101057D01*
X159620327Y-94837808D01*
X159276799Y-94695162D01*
X158904833Y-94694838D01*
X158561057Y-94836883D01*
X158297808Y-95099673D01*
X158155162Y-95443201D01*
X158154838Y-95815167D01*
X130956976Y-95815167D01*
X131172192Y-95600327D01*
X131314838Y-95256799D01*
X131315162Y-94884833D01*
X131173117Y-94541057D01*
X130910327Y-94277808D01*
X130566799Y-94135162D01*
X130194833Y-94134838D01*
X129851057Y-94276883D01*
X129587808Y-94539673D01*
X129445162Y-94883201D01*
X129444838Y-95255167D01*
X117247040Y-95255167D01*
X117247040Y-93678000D01*
X117246507Y-93675167D01*
X125094838Y-93675167D01*
X125236883Y-94018943D01*
X125499673Y-94282192D01*
X125843201Y-94424838D01*
X126215167Y-94425162D01*
X126558943Y-94283117D01*
X126783563Y-94058889D01*
X126886883Y-94308943D01*
X127149673Y-94572192D01*
X127493201Y-94714838D01*
X127865167Y-94715162D01*
X128208943Y-94573117D01*
X128472192Y-94310327D01*
X128614838Y-93966799D01*
X128615162Y-93594833D01*
X128473117Y-93251057D01*
X128407342Y-93185167D01*
X147804838Y-93185167D01*
X147946883Y-93528943D01*
X148209673Y-93792192D01*
X148553201Y-93934838D01*
X148925167Y-93935162D01*
X149268943Y-93793117D01*
X149532192Y-93530327D01*
X149674838Y-93186799D01*
X149675162Y-92814833D01*
X149533117Y-92471057D01*
X149270327Y-92207808D01*
X148950894Y-92075167D01*
X151114838Y-92075167D01*
X151256883Y-92418943D01*
X151519673Y-92682192D01*
X151863201Y-92824838D01*
X152235167Y-92825162D01*
X152578943Y-92683117D01*
X152842192Y-92420327D01*
X152984838Y-92076799D01*
X152985162Y-91704833D01*
X152843117Y-91361057D01*
X152580327Y-91097808D01*
X152236799Y-90955162D01*
X151864833Y-90954838D01*
X151521057Y-91096883D01*
X151257808Y-91359673D01*
X151115162Y-91703201D01*
X151114838Y-92075167D01*
X148950894Y-92075167D01*
X148926799Y-92065162D01*
X148554833Y-92064838D01*
X148211057Y-92206883D01*
X147947808Y-92469673D01*
X147805162Y-92813201D01*
X147804838Y-93185167D01*
X128407342Y-93185167D01*
X128210327Y-92987808D01*
X127866799Y-92845162D01*
X127494833Y-92844838D01*
X127151057Y-92986883D01*
X126926437Y-93211111D01*
X126823117Y-92961057D01*
X126560327Y-92697808D01*
X126216799Y-92555162D01*
X125844833Y-92554838D01*
X125501057Y-92696883D01*
X125237808Y-92959673D01*
X125095162Y-93303201D01*
X125094838Y-93675167D01*
X117246507Y-93675167D01*
X117202762Y-93442683D01*
X117192607Y-93426901D01*
X117196031Y-93421890D01*
X117247040Y-93170000D01*
X117247040Y-91995167D01*
X120454838Y-91995167D01*
X120596883Y-92338943D01*
X120859673Y-92602192D01*
X121203201Y-92744838D01*
X121575167Y-92745162D01*
X121918943Y-92603117D01*
X122182192Y-92340327D01*
X122324838Y-91996799D01*
X122324839Y-91995167D01*
X130234838Y-91995167D01*
X130376883Y-92338943D01*
X130639673Y-92602192D01*
X130983201Y-92744838D01*
X131355167Y-92745162D01*
X131698943Y-92603117D01*
X131962192Y-92340327D01*
X132104838Y-91996799D01*
X132105162Y-91624833D01*
X131963117Y-91281057D01*
X131700327Y-91017808D01*
X131356799Y-90875162D01*
X130984833Y-90874838D01*
X130641057Y-91016883D01*
X130377808Y-91279673D01*
X130235162Y-91623201D01*
X130234838Y-91995167D01*
X122324839Y-91995167D01*
X122325162Y-91624833D01*
X122183117Y-91281057D01*
X121920327Y-91017808D01*
X121576799Y-90875162D01*
X121204833Y-90874838D01*
X120861057Y-91016883D01*
X120597808Y-91279673D01*
X120455162Y-91623201D01*
X120454838Y-91995167D01*
X117247040Y-91995167D01*
X117247040Y-91138000D01*
X117202762Y-90902683D01*
X117192607Y-90886901D01*
X117196031Y-90881890D01*
X117247040Y-90630000D01*
X117247040Y-89615167D01*
X120284838Y-89615167D01*
X120426883Y-89958943D01*
X120689673Y-90222192D01*
X121033201Y-90364838D01*
X121405167Y-90365162D01*
X121748943Y-90223117D01*
X121897151Y-90075167D01*
X148014838Y-90075167D01*
X148156883Y-90418943D01*
X148419673Y-90682192D01*
X148763201Y-90824838D01*
X149135167Y-90825162D01*
X149478943Y-90683117D01*
X149742192Y-90420327D01*
X149884838Y-90076799D01*
X149885162Y-89704833D01*
X149743117Y-89361057D01*
X149480327Y-89097808D01*
X149136799Y-88955162D01*
X148764833Y-88954838D01*
X148421057Y-89096883D01*
X148157808Y-89359673D01*
X148015162Y-89703201D01*
X148014838Y-90075167D01*
X121897151Y-90075167D01*
X122012192Y-89960327D01*
X122154838Y-89616799D01*
X122155162Y-89244833D01*
X122023080Y-88925167D01*
X152784838Y-88925167D01*
X152926883Y-89268943D01*
X153189673Y-89532192D01*
X153533201Y-89674838D01*
X153905167Y-89675162D01*
X154248943Y-89533117D01*
X154512192Y-89270327D01*
X154654838Y-88926799D01*
X154655162Y-88554833D01*
X154513117Y-88211057D01*
X154250327Y-87947808D01*
X153906799Y-87805162D01*
X153534833Y-87804838D01*
X153191057Y-87946883D01*
X152927808Y-88209673D01*
X152785162Y-88553201D01*
X152784838Y-88925167D01*
X122023080Y-88925167D01*
X122013117Y-88901057D01*
X121750327Y-88637808D01*
X121406799Y-88495162D01*
X121034833Y-88494838D01*
X120691057Y-88636883D01*
X120427808Y-88899673D01*
X120285162Y-89243201D01*
X120284838Y-89615167D01*
X117247040Y-89615167D01*
X117247040Y-88598000D01*
X117202762Y-88362683D01*
X117063690Y-88146559D01*
X116851490Y-88001569D01*
X116599600Y-87950560D01*
X114872400Y-87950560D01*
X114637083Y-87994838D01*
X114420959Y-88133910D01*
X114275969Y-88346110D01*
X114267600Y-88387439D01*
X114255670Y-88369585D01*
X113769489Y-88044729D01*
X113196000Y-87930655D01*
X112622511Y-88044729D01*
X112136330Y-88369585D01*
X111929539Y-88679069D01*
X111558036Y-88263268D01*
X111030791Y-88009291D01*
X111015026Y-88006642D01*
X110783000Y-88127783D01*
X110529000Y-88127783D01*
X110296974Y-88006642D01*
X110281209Y-88009291D01*
X109753964Y-88263268D01*
X109364046Y-88699680D01*
X109170816Y-89252087D01*
X107785000Y-89252087D01*
X107785000Y-85251913D01*
X109204816Y-85251913D01*
X109398046Y-85804320D01*
X109787964Y-86240732D01*
X110315209Y-86494709D01*
X110330974Y-86497358D01*
X110563000Y-86376217D01*
X110563000Y-85017000D01*
X109349076Y-85017000D01*
X109204816Y-85251913D01*
X107785000Y-85251913D01*
X107785000Y-84528087D01*
X109204816Y-84528087D01*
X109349076Y-84763000D01*
X110563000Y-84763000D01*
X110563000Y-83403783D01*
X110817000Y-83403783D01*
X110817000Y-84763000D01*
X110837000Y-84763000D01*
X110837000Y-85017000D01*
X110817000Y-85017000D01*
X110817000Y-86376217D01*
X111049026Y-86497358D01*
X111064791Y-86494709D01*
X111592036Y-86240732D01*
X111963539Y-85824931D01*
X112170330Y-86134415D01*
X112656511Y-86459271D01*
X113230000Y-86573345D01*
X113803489Y-86459271D01*
X114289670Y-86134415D01*
X114500000Y-85819634D01*
X114710330Y-86134415D01*
X115196511Y-86459271D01*
X115770000Y-86573345D01*
X116343489Y-86459271D01*
X116829670Y-86134415D01*
X116839243Y-86120087D01*
X116843238Y-86141317D01*
X116982310Y-86357441D01*
X117194510Y-86502431D01*
X117446400Y-86553440D01*
X119173600Y-86553440D01*
X119358998Y-86518555D01*
X119317808Y-86559673D01*
X119175162Y-86903201D01*
X119174838Y-87275167D01*
X119316883Y-87618943D01*
X119579673Y-87882192D01*
X119923201Y-88024838D01*
X120295167Y-88025162D01*
X120638943Y-87883117D01*
X120676959Y-87845167D01*
X147654838Y-87845167D01*
X147796883Y-88188943D01*
X148059673Y-88452192D01*
X148403201Y-88594838D01*
X148775167Y-88595162D01*
X149118943Y-88453117D01*
X149382192Y-88190327D01*
X149524838Y-87846799D01*
X149525162Y-87474833D01*
X149383117Y-87131057D01*
X149120327Y-86867808D01*
X148873142Y-86765167D01*
X150954838Y-86765167D01*
X151096883Y-87108943D01*
X151359673Y-87372192D01*
X151703201Y-87514838D01*
X152075167Y-87515162D01*
X152418943Y-87373117D01*
X152682192Y-87110327D01*
X152824838Y-86766799D01*
X152825162Y-86394833D01*
X152683117Y-86051057D01*
X152420327Y-85787808D01*
X152076799Y-85645162D01*
X151704833Y-85644838D01*
X151361057Y-85786883D01*
X151097808Y-86049673D01*
X150955162Y-86393201D01*
X150954838Y-86765167D01*
X148873142Y-86765167D01*
X148776799Y-86725162D01*
X148404833Y-86724838D01*
X148061057Y-86866883D01*
X147797808Y-87129673D01*
X147655162Y-87473201D01*
X147654838Y-87845167D01*
X120676959Y-87845167D01*
X120902192Y-87620327D01*
X121031995Y-87307728D01*
X121073201Y-87324838D01*
X121445167Y-87325162D01*
X121788943Y-87183117D01*
X121917116Y-87055167D01*
X131164838Y-87055167D01*
X131306883Y-87398943D01*
X131569673Y-87662192D01*
X131913201Y-87804838D01*
X132285167Y-87805162D01*
X132628943Y-87663117D01*
X132892192Y-87400327D01*
X133034838Y-87056799D01*
X133034900Y-86985167D01*
X135114838Y-86985167D01*
X135256883Y-87328943D01*
X135519673Y-87592192D01*
X135863201Y-87734838D01*
X136235167Y-87735162D01*
X136578943Y-87593117D01*
X136842192Y-87330327D01*
X136984838Y-86986799D01*
X136985162Y-86614833D01*
X136843117Y-86271057D01*
X136580327Y-86007808D01*
X136236799Y-85865162D01*
X135864833Y-85864838D01*
X135521057Y-86006883D01*
X135257808Y-86269673D01*
X135115162Y-86613201D01*
X135114838Y-86985167D01*
X133034900Y-86985167D01*
X133035162Y-86684833D01*
X132893117Y-86341057D01*
X132630327Y-86077808D01*
X132286799Y-85935162D01*
X131914833Y-85934838D01*
X131571057Y-86076883D01*
X131307808Y-86339673D01*
X131165162Y-86683201D01*
X131164838Y-87055167D01*
X121917116Y-87055167D01*
X122052192Y-86920327D01*
X122194838Y-86576799D01*
X122195162Y-86204833D01*
X122053117Y-85861057D01*
X121790327Y-85597808D01*
X121446799Y-85455162D01*
X121074833Y-85454838D01*
X120731057Y-85596883D01*
X120467808Y-85859673D01*
X120338005Y-86172272D01*
X120296799Y-86155162D01*
X119924833Y-86154838D01*
X119712041Y-86242762D01*
X119770031Y-86157890D01*
X119821040Y-85906000D01*
X119821040Y-85085167D01*
X124534838Y-85085167D01*
X124676883Y-85428943D01*
X124939673Y-85692192D01*
X125283201Y-85834838D01*
X125655167Y-85835162D01*
X125998943Y-85693117D01*
X126054885Y-85637273D01*
X126129673Y-85712192D01*
X126473201Y-85854838D01*
X126845167Y-85855162D01*
X127188943Y-85713117D01*
X127452192Y-85450327D01*
X127594838Y-85106799D01*
X127595135Y-84765167D01*
X147884838Y-84765167D01*
X148026883Y-85108943D01*
X148289673Y-85372192D01*
X148633201Y-85514838D01*
X149005167Y-85515162D01*
X149348943Y-85373117D01*
X149612192Y-85110327D01*
X149754838Y-84766799D01*
X149755162Y-84394833D01*
X149613117Y-84051057D01*
X149350327Y-83787808D01*
X149006799Y-83645162D01*
X148634833Y-83644838D01*
X148291057Y-83786883D01*
X148027808Y-84049673D01*
X147885162Y-84393201D01*
X147884838Y-84765167D01*
X127595135Y-84765167D01*
X127595162Y-84734833D01*
X127453117Y-84391057D01*
X127190327Y-84127808D01*
X126846799Y-83985162D01*
X126474833Y-83984838D01*
X126131057Y-84126883D01*
X126075115Y-84182727D01*
X126000327Y-84107808D01*
X125656799Y-83965162D01*
X125284833Y-83964838D01*
X124941057Y-84106883D01*
X124677808Y-84369673D01*
X124535162Y-84713201D01*
X124534838Y-85085167D01*
X119821040Y-85085167D01*
X119821040Y-83874000D01*
X119776762Y-83638683D01*
X119768065Y-83625167D01*
X152804838Y-83625167D01*
X152946883Y-83968943D01*
X153209673Y-84232192D01*
X153553201Y-84374838D01*
X153925167Y-84375162D01*
X154268943Y-84233117D01*
X154532192Y-83970327D01*
X154674838Y-83626799D01*
X154675162Y-83254833D01*
X154533117Y-82911057D01*
X154270327Y-82647808D01*
X153926799Y-82505162D01*
X153554833Y-82504838D01*
X153211057Y-82646883D01*
X152947808Y-82909673D01*
X152805162Y-83253201D01*
X152804838Y-83625167D01*
X119768065Y-83625167D01*
X119637690Y-83422559D01*
X119425490Y-83277569D01*
X119173600Y-83226560D01*
X117446400Y-83226560D01*
X117211083Y-83270838D01*
X116994959Y-83409910D01*
X116849969Y-83622110D01*
X116841600Y-83663439D01*
X116829670Y-83645585D01*
X116343489Y-83320729D01*
X115770000Y-83206655D01*
X115196511Y-83320729D01*
X114710330Y-83645585D01*
X114500000Y-83960366D01*
X114289670Y-83645585D01*
X113803489Y-83320729D01*
X113230000Y-83206655D01*
X112656511Y-83320729D01*
X112170330Y-83645585D01*
X111963539Y-83955069D01*
X111592036Y-83539268D01*
X111064791Y-83285291D01*
X111049026Y-83282642D01*
X110817000Y-83403783D01*
X110563000Y-83403783D01*
X110330974Y-83282642D01*
X110315209Y-83285291D01*
X109787964Y-83539268D01*
X109398046Y-83975680D01*
X109204816Y-84528087D01*
X107785000Y-84528087D01*
X107785000Y-80422815D01*
X108964630Y-80422815D01*
X109288980Y-81207800D01*
X109889041Y-81808909D01*
X110673459Y-82134628D01*
X111522815Y-82135370D01*
X112307800Y-81811020D01*
X112833987Y-81285750D01*
X115865000Y-81285750D01*
X115865000Y-81726310D01*
X115961673Y-81959699D01*
X116140302Y-82138327D01*
X116373691Y-82235000D01*
X116814250Y-82235000D01*
X116973000Y-82076250D01*
X116973000Y-81127000D01*
X116023750Y-81127000D01*
X115865000Y-81285750D01*
X112833987Y-81285750D01*
X112908909Y-81210959D01*
X113234628Y-80426541D01*
X113235370Y-79577185D01*
X112927067Y-78831036D01*
X115852193Y-78831036D01*
X115882518Y-79321413D01*
X116011836Y-79633617D01*
X116237263Y-79683129D01*
X116121570Y-79798822D01*
X116171499Y-79848751D01*
X116140302Y-79861673D01*
X115961673Y-80040301D01*
X115865000Y-80273690D01*
X115865000Y-80714250D01*
X116023750Y-80873000D01*
X116973000Y-80873000D01*
X116973000Y-80853000D01*
X117227000Y-80853000D01*
X117227000Y-80873000D01*
X117247000Y-80873000D01*
X117247000Y-81127000D01*
X117227000Y-81127000D01*
X117227000Y-82076250D01*
X117385750Y-82235000D01*
X117826309Y-82235000D01*
X118059698Y-82138327D01*
X118238327Y-81959699D01*
X118260224Y-81906836D01*
X118399515Y-82046371D01*
X118853266Y-82234785D01*
X119344579Y-82235214D01*
X119798657Y-82047592D01*
X120100221Y-81746554D01*
X120399515Y-82046371D01*
X120853266Y-82234785D01*
X121344579Y-82235214D01*
X121798657Y-82047592D01*
X122100221Y-81746554D01*
X122399515Y-82046371D01*
X122853266Y-82234785D01*
X123344579Y-82235214D01*
X123798657Y-82047592D01*
X124100221Y-81746554D01*
X124399515Y-82046371D01*
X124853266Y-82234785D01*
X125207863Y-82235095D01*
X125316883Y-82498943D01*
X125579673Y-82762192D01*
X125923201Y-82904838D01*
X126295167Y-82905162D01*
X126638943Y-82763117D01*
X126902192Y-82500327D01*
X127012398Y-82234924D01*
X127242008Y-82235124D01*
X127346883Y-82488943D01*
X127609673Y-82752192D01*
X127953201Y-82894838D01*
X128325167Y-82895162D01*
X128668943Y-82753117D01*
X128932192Y-82490327D01*
X129038236Y-82234947D01*
X129344579Y-82235214D01*
X129798657Y-82047592D01*
X130100221Y-81746554D01*
X130399515Y-82046371D01*
X130853266Y-82234785D01*
X131344579Y-82235214D01*
X131798657Y-82047592D01*
X132100221Y-81746554D01*
X132399515Y-82046371D01*
X132853266Y-82234785D01*
X133344579Y-82235214D01*
X133798657Y-82047592D01*
X134100221Y-81746554D01*
X134399515Y-82046371D01*
X134853266Y-82234785D01*
X135344579Y-82235214D01*
X135798657Y-82047592D01*
X136100221Y-81746554D01*
X136399515Y-82046371D01*
X136853266Y-82234785D01*
X137344579Y-82235214D01*
X137798657Y-82047592D01*
X138100221Y-81746554D01*
X138399515Y-82046371D01*
X138853266Y-82234785D01*
X139344579Y-82235214D01*
X139798657Y-82047592D01*
X140100221Y-81746554D01*
X140399515Y-82046371D01*
X140853266Y-82234785D01*
X141344579Y-82235214D01*
X141798657Y-82047592D01*
X142100221Y-81746554D01*
X142399515Y-82046371D01*
X142853266Y-82234785D01*
X143344579Y-82235214D01*
X143798657Y-82047592D01*
X144100221Y-81746554D01*
X144399515Y-82046371D01*
X144853266Y-82234785D01*
X145344579Y-82235214D01*
X145798657Y-82047592D01*
X146100221Y-81746554D01*
X146399515Y-82046371D01*
X146853266Y-82234785D01*
X147344579Y-82235214D01*
X147798657Y-82047592D01*
X148100221Y-81746554D01*
X148399515Y-82046371D01*
X148853266Y-82234785D01*
X149344579Y-82235214D01*
X149798657Y-82047592D01*
X150100221Y-81746554D01*
X150399515Y-82046371D01*
X150853266Y-82234785D01*
X151344579Y-82235214D01*
X151798657Y-82047592D01*
X152100221Y-81746554D01*
X152399515Y-82046371D01*
X152853266Y-82234785D01*
X153344579Y-82235214D01*
X153798657Y-82047592D01*
X153983837Y-81862735D01*
X154416870Y-81862735D01*
X154466383Y-82088164D01*
X154931036Y-82247807D01*
X155421413Y-82217482D01*
X155733617Y-82088164D01*
X155740391Y-82057320D01*
X171130285Y-82057320D01*
X171259533Y-82350123D01*
X171959806Y-82618388D01*
X172709435Y-82598250D01*
X173308467Y-82350123D01*
X173437715Y-82057320D01*
X172284000Y-80903605D01*
X171130285Y-82057320D01*
X155740391Y-82057320D01*
X155783130Y-81862735D01*
X155100000Y-81179605D01*
X154416870Y-81862735D01*
X153983837Y-81862735D01*
X154146371Y-81700485D01*
X154160572Y-81666285D01*
X154237265Y-81683130D01*
X154920395Y-81000000D01*
X155279605Y-81000000D01*
X155962735Y-81683130D01*
X156188164Y-81633617D01*
X156347807Y-81168964D01*
X156317482Y-80678587D01*
X156202009Y-80399806D01*
X170389612Y-80399806D01*
X170409750Y-81149435D01*
X170657877Y-81748467D01*
X170950680Y-81877715D01*
X172104395Y-80724000D01*
X172463605Y-80724000D01*
X173617320Y-81877715D01*
X173910123Y-81748467D01*
X174159574Y-81097305D01*
X175398674Y-81097305D01*
X175685043Y-81790372D01*
X176214839Y-82321093D01*
X176907405Y-82608672D01*
X177657305Y-82609326D01*
X178350372Y-82322957D01*
X178881093Y-81793161D01*
X179168672Y-81100595D01*
X179169326Y-80350695D01*
X178882957Y-79657628D01*
X178699650Y-79474000D01*
X180386560Y-79474000D01*
X180386560Y-81974000D01*
X180430838Y-82209317D01*
X180569910Y-82425441D01*
X180782110Y-82570431D01*
X181034000Y-82621440D01*
X183534000Y-82621440D01*
X183769317Y-82577162D01*
X183985441Y-82438090D01*
X184130431Y-82225890D01*
X184181440Y-81974000D01*
X184181440Y-80422815D01*
X185964630Y-80422815D01*
X186288980Y-81207800D01*
X186889041Y-81808909D01*
X187673459Y-82134628D01*
X188522815Y-82135370D01*
X189307800Y-81811020D01*
X189908909Y-81210959D01*
X190234628Y-80426541D01*
X190235370Y-79577185D01*
X189911020Y-78792200D01*
X189310959Y-78191091D01*
X188526541Y-77865372D01*
X187677185Y-77864630D01*
X186892200Y-78188980D01*
X186291091Y-78789041D01*
X185965372Y-79573459D01*
X185964630Y-80422815D01*
X184181440Y-80422815D01*
X184181440Y-79474000D01*
X184137162Y-79238683D01*
X183998090Y-79022559D01*
X183785890Y-78877569D01*
X183534000Y-78826560D01*
X181034000Y-78826560D01*
X180798683Y-78870838D01*
X180582559Y-79009910D01*
X180437569Y-79222110D01*
X180386560Y-79474000D01*
X178699650Y-79474000D01*
X178353161Y-79126907D01*
X177660595Y-78839328D01*
X176910695Y-78838674D01*
X176217628Y-79125043D01*
X175686907Y-79654839D01*
X175399328Y-80347405D01*
X175398674Y-81097305D01*
X174159574Y-81097305D01*
X174178388Y-81048194D01*
X174158250Y-80298565D01*
X173910123Y-79699533D01*
X173617320Y-79570285D01*
X172463605Y-80724000D01*
X172104395Y-80724000D01*
X170950680Y-79570285D01*
X170657877Y-79699533D01*
X170389612Y-80399806D01*
X156202009Y-80399806D01*
X156188164Y-80366383D01*
X155962735Y-80316870D01*
X155279605Y-81000000D01*
X154920395Y-81000000D01*
X154237265Y-80316870D01*
X154160935Y-80333635D01*
X154147592Y-80301343D01*
X153846554Y-79999779D01*
X153983837Y-79862735D01*
X154416870Y-79862735D01*
X154447019Y-80000000D01*
X154416870Y-80137265D01*
X155100000Y-80820395D01*
X155783130Y-80137265D01*
X155752981Y-80000000D01*
X155783130Y-79862735D01*
X155100000Y-79179605D01*
X154416870Y-79862735D01*
X153983837Y-79862735D01*
X154146371Y-79700485D01*
X154160572Y-79666285D01*
X154237265Y-79683130D01*
X154920395Y-79000000D01*
X155279605Y-79000000D01*
X155962735Y-79683130D01*
X156188164Y-79633617D01*
X156271630Y-79390680D01*
X171130285Y-79390680D01*
X172284000Y-80544395D01*
X173437715Y-79390680D01*
X173308467Y-79097877D01*
X172608194Y-78829612D01*
X171858565Y-78849750D01*
X171259533Y-79097877D01*
X171130285Y-79390680D01*
X156271630Y-79390680D01*
X156347807Y-79168964D01*
X156317482Y-78678587D01*
X156188164Y-78366383D01*
X155962735Y-78316870D01*
X155279605Y-79000000D01*
X154920395Y-79000000D01*
X154237265Y-78316870D01*
X154160935Y-78333635D01*
X154147592Y-78301343D01*
X153983801Y-78137265D01*
X154416870Y-78137265D01*
X155100000Y-78820395D01*
X155783130Y-78137265D01*
X155733617Y-77911836D01*
X155268964Y-77752193D01*
X154778587Y-77782518D01*
X154466383Y-77911836D01*
X154416870Y-78137265D01*
X153983801Y-78137265D01*
X153800485Y-77953629D01*
X153346734Y-77765215D01*
X152855421Y-77764786D01*
X152401343Y-77952408D01*
X152099779Y-78253446D01*
X151800485Y-77953629D01*
X151346734Y-77765215D01*
X150855421Y-77764786D01*
X150401343Y-77952408D01*
X150099779Y-78253446D01*
X149800485Y-77953629D01*
X149346734Y-77765215D01*
X148855421Y-77764786D01*
X148401343Y-77952408D01*
X148099779Y-78253446D01*
X147800485Y-77953629D01*
X147346734Y-77765215D01*
X146855421Y-77764786D01*
X146401343Y-77952408D01*
X146099779Y-78253446D01*
X145800485Y-77953629D01*
X145346734Y-77765215D01*
X144855421Y-77764786D01*
X144401343Y-77952408D01*
X144099779Y-78253446D01*
X143800485Y-77953629D01*
X143346734Y-77765215D01*
X142855421Y-77764786D01*
X142401343Y-77952408D01*
X142099779Y-78253446D01*
X141800485Y-77953629D01*
X141346734Y-77765215D01*
X140855421Y-77764786D01*
X140401343Y-77952408D01*
X140099779Y-78253446D01*
X139800485Y-77953629D01*
X139346734Y-77765215D01*
X138855421Y-77764786D01*
X138401343Y-77952408D01*
X138099779Y-78253446D01*
X137800485Y-77953629D01*
X137346734Y-77765215D01*
X136855421Y-77764786D01*
X136401343Y-77952408D01*
X136099779Y-78253446D01*
X135800485Y-77953629D01*
X135346734Y-77765215D01*
X134855421Y-77764786D01*
X134401343Y-77952408D01*
X134099779Y-78253446D01*
X133800485Y-77953629D01*
X133346734Y-77765215D01*
X132855421Y-77764786D01*
X132401343Y-77952408D01*
X132099779Y-78253446D01*
X131800485Y-77953629D01*
X131346734Y-77765215D01*
X130855421Y-77764786D01*
X130401343Y-77952408D01*
X130099779Y-78253446D01*
X129800485Y-77953629D01*
X129346734Y-77765215D01*
X128855421Y-77764786D01*
X128401343Y-77952408D01*
X128099779Y-78253446D01*
X127800485Y-77953629D01*
X127346734Y-77765215D01*
X126855421Y-77764786D01*
X126401343Y-77952408D01*
X126099779Y-78253446D01*
X125800485Y-77953629D01*
X125346734Y-77765215D01*
X124855421Y-77764786D01*
X124401343Y-77952408D01*
X124099779Y-78253446D01*
X123800485Y-77953629D01*
X123346734Y-77765215D01*
X122855421Y-77764786D01*
X122401343Y-77952408D01*
X122099779Y-78253446D01*
X121800485Y-77953629D01*
X121346734Y-77765215D01*
X120855421Y-77764786D01*
X120401343Y-77952408D01*
X120099779Y-78253446D01*
X119800485Y-77953629D01*
X119346734Y-77765215D01*
X118855421Y-77764786D01*
X118401343Y-77952408D01*
X118053629Y-78299515D01*
X118039428Y-78333715D01*
X117962735Y-78316870D01*
X117279605Y-79000000D01*
X117293748Y-79014143D01*
X117114143Y-79193748D01*
X117100000Y-79179605D01*
X117085858Y-79193748D01*
X116906253Y-79014143D01*
X116920395Y-79000000D01*
X116237265Y-78316870D01*
X116011836Y-78366383D01*
X115852193Y-78831036D01*
X112927067Y-78831036D01*
X112911020Y-78792200D01*
X112310959Y-78191091D01*
X112181332Y-78137265D01*
X116416870Y-78137265D01*
X117100000Y-78820395D01*
X117783130Y-78137265D01*
X117733617Y-77911836D01*
X117268964Y-77752193D01*
X116778587Y-77782518D01*
X116466383Y-77911836D01*
X116416870Y-78137265D01*
X112181332Y-78137265D01*
X111526541Y-77865372D01*
X110677185Y-77864630D01*
X109892200Y-78188980D01*
X109291091Y-78789041D01*
X108965372Y-79573459D01*
X108964630Y-80422815D01*
X107785000Y-80422815D01*
X107785000Y-76685000D01*
X191414492Y-76685000D01*
X191414492Y-129315000D01*
M02*
