G04 #@! TF.FileFunction,Legend,Top*
%FSLAX46Y46*%
G04 Gerber Fmt 4.6, Leading zero omitted, Abs format (unit mm)*
G04 Created by KiCad (PCBNEW (2015-11-11 BZR 6310)-product) date Thu 17 Dec 2015 09:32:04 PM CST*
%MOMM*%
G01*
G04 APERTURE LIST*
%ADD10C,0.100000*%
%ADD11C,0.150000*%
G04 APERTURE END LIST*
D10*
D11*
X184570000Y-100790000D02*
X189650000Y-100790000D01*
X189650000Y-100790000D02*
X189650000Y-98250000D01*
X189650000Y-98250000D02*
X184570000Y-98250000D01*
X181750000Y-97970000D02*
X183300000Y-97970000D01*
X184570000Y-98250000D02*
X184570000Y-100790000D01*
X183300000Y-101070000D02*
X181750000Y-101070000D01*
X181750000Y-101070000D02*
X181750000Y-97970000D01*
X184570000Y-103330000D02*
X189650000Y-103330000D01*
X189650000Y-103330000D02*
X189650000Y-100790000D01*
X189650000Y-100790000D02*
X184570000Y-100790000D01*
X181750000Y-100510000D02*
X183300000Y-100510000D01*
X184570000Y-100790000D02*
X184570000Y-103330000D01*
X183300000Y-103610000D02*
X181750000Y-103610000D01*
X181750000Y-103610000D02*
X181750000Y-100510000D01*
X184570000Y-105870000D02*
X189650000Y-105870000D01*
X189650000Y-105870000D02*
X189650000Y-103330000D01*
X189650000Y-103330000D02*
X184570000Y-103330000D01*
X181750000Y-103050000D02*
X183300000Y-103050000D01*
X184570000Y-103330000D02*
X184570000Y-105870000D01*
X183300000Y-106150000D02*
X181750000Y-106150000D01*
X181750000Y-106150000D02*
X181750000Y-103050000D01*
X184570000Y-108410000D02*
X189650000Y-108410000D01*
X189650000Y-108410000D02*
X189650000Y-105870000D01*
X189650000Y-105870000D02*
X184570000Y-105870000D01*
X181750000Y-105590000D02*
X183300000Y-105590000D01*
X184570000Y-105870000D02*
X184570000Y-108410000D01*
X183300000Y-108690000D02*
X181750000Y-108690000D01*
X181750000Y-108690000D02*
X181750000Y-105590000D01*
X114466000Y-88344000D02*
X109386000Y-88344000D01*
X109386000Y-88344000D02*
X109386000Y-90884000D01*
X109386000Y-90884000D02*
X114466000Y-90884000D01*
X117286000Y-91164000D02*
X115736000Y-91164000D01*
X114466000Y-90884000D02*
X114466000Y-88344000D01*
X115736000Y-88064000D02*
X117286000Y-88064000D01*
X117286000Y-88064000D02*
X117286000Y-91164000D01*
X114466000Y-90884000D02*
X109386000Y-90884000D01*
X109386000Y-90884000D02*
X109386000Y-93424000D01*
X109386000Y-93424000D02*
X114466000Y-93424000D01*
X117286000Y-93704000D02*
X115736000Y-93704000D01*
X114466000Y-93424000D02*
X114466000Y-90884000D01*
X115736000Y-90604000D02*
X117286000Y-90604000D01*
X117286000Y-90604000D02*
X117286000Y-93704000D01*
X114466000Y-93424000D02*
X109386000Y-93424000D01*
X109386000Y-93424000D02*
X109386000Y-95964000D01*
X109386000Y-95964000D02*
X114466000Y-95964000D01*
X117286000Y-96244000D02*
X115736000Y-96244000D01*
X114466000Y-95964000D02*
X114466000Y-93424000D01*
X115736000Y-93144000D02*
X117286000Y-93144000D01*
X117286000Y-93144000D02*
X117286000Y-96244000D01*
X114466000Y-95964000D02*
X109386000Y-95964000D01*
X109386000Y-95964000D02*
X109386000Y-98504000D01*
X109386000Y-98504000D02*
X114466000Y-98504000D01*
X117286000Y-98784000D02*
X115736000Y-98784000D01*
X114466000Y-98504000D02*
X114466000Y-95964000D01*
X115736000Y-95684000D02*
X117286000Y-95684000D01*
X117286000Y-95684000D02*
X117286000Y-98784000D01*
X114466000Y-98504000D02*
X109386000Y-98504000D01*
X109386000Y-98504000D02*
X109386000Y-101044000D01*
X109386000Y-101044000D02*
X114466000Y-101044000D01*
X117286000Y-101324000D02*
X115736000Y-101324000D01*
X114466000Y-101044000D02*
X114466000Y-98504000D01*
X115736000Y-98224000D02*
X117286000Y-98224000D01*
X117286000Y-98224000D02*
X117286000Y-101324000D01*
X114466000Y-101044000D02*
X109386000Y-101044000D01*
X109386000Y-101044000D02*
X109386000Y-103584000D01*
X109386000Y-103584000D02*
X114466000Y-103584000D01*
X117286000Y-103864000D02*
X115736000Y-103864000D01*
X114466000Y-103584000D02*
X114466000Y-101044000D01*
X115736000Y-100764000D02*
X117286000Y-100764000D01*
X117286000Y-100764000D02*
X117286000Y-103864000D01*
X114466000Y-103584000D02*
X109386000Y-103584000D01*
X109386000Y-103584000D02*
X109386000Y-106124000D01*
X109386000Y-106124000D02*
X114466000Y-106124000D01*
X117286000Y-106404000D02*
X115736000Y-106404000D01*
X114466000Y-106124000D02*
X114466000Y-103584000D01*
X115736000Y-103304000D02*
X117286000Y-103304000D01*
X117286000Y-103304000D02*
X117286000Y-106404000D01*
X114466000Y-106124000D02*
X109386000Y-106124000D01*
X109386000Y-106124000D02*
X109386000Y-108664000D01*
X109386000Y-108664000D02*
X114466000Y-108664000D01*
X117286000Y-108944000D02*
X115736000Y-108944000D01*
X114466000Y-108664000D02*
X114466000Y-106124000D01*
X115736000Y-105844000D02*
X117286000Y-105844000D01*
X117286000Y-105844000D02*
X117286000Y-108944000D01*
X169805100Y-129753460D02*
X178505100Y-129753460D01*
X169805100Y-123348460D02*
X178505100Y-123348460D01*
X178505100Y-123348460D02*
X178505100Y-129753460D01*
X178505100Y-128523460D02*
X169805100Y-128523460D01*
X169805100Y-129753460D02*
X169805100Y-123348460D01*
X151145160Y-90237760D02*
X151096900Y-90237760D01*
X148346180Y-90938800D02*
X148346180Y-90237760D01*
X148346180Y-90237760D02*
X148595100Y-90237760D01*
X151145160Y-90237760D02*
X151345820Y-90237760D01*
X151345820Y-90237760D02*
X151345820Y-90938800D01*
X150995160Y-84927760D02*
X150946900Y-84927760D01*
X148196180Y-85628800D02*
X148196180Y-84927760D01*
X148196180Y-84927760D02*
X148445100Y-84927760D01*
X150995160Y-84927760D02*
X151195820Y-84927760D01*
X151195820Y-84927760D02*
X151195820Y-85628800D01*
X109259000Y-123650000D02*
X109259000Y-128730000D01*
X109259000Y-128730000D02*
X111799000Y-128730000D01*
X111799000Y-128730000D02*
X111799000Y-123650000D01*
X112079000Y-120830000D02*
X112079000Y-122380000D01*
X111799000Y-123650000D02*
X109259000Y-123650000D01*
X108979000Y-122380000D02*
X108979000Y-120830000D01*
X108979000Y-120830000D02*
X112079000Y-120830000D01*
X111799000Y-123650000D02*
X111799000Y-128730000D01*
X111799000Y-128730000D02*
X114339000Y-128730000D01*
X114339000Y-128730000D02*
X114339000Y-123650000D01*
X114619000Y-120830000D02*
X114619000Y-122380000D01*
X114339000Y-123650000D02*
X111799000Y-123650000D01*
X111519000Y-122380000D02*
X111519000Y-120830000D01*
X111519000Y-120830000D02*
X114619000Y-120830000D01*
X114339000Y-123650000D02*
X114339000Y-128730000D01*
X114339000Y-128730000D02*
X116879000Y-128730000D01*
X116879000Y-128730000D02*
X116879000Y-123650000D01*
X117159000Y-120830000D02*
X117159000Y-122380000D01*
X116879000Y-123650000D02*
X114339000Y-123650000D01*
X114059000Y-122380000D02*
X114059000Y-120830000D01*
X114059000Y-120830000D02*
X117159000Y-120830000D01*
X116879000Y-123650000D02*
X116879000Y-128730000D01*
X116879000Y-128730000D02*
X119419000Y-128730000D01*
X119419000Y-128730000D02*
X119419000Y-123650000D01*
X119699000Y-120830000D02*
X119699000Y-122380000D01*
X119419000Y-123650000D02*
X116879000Y-123650000D01*
X116599000Y-122380000D02*
X116599000Y-120830000D01*
X116599000Y-120830000D02*
X119699000Y-120830000D01*
X119419000Y-123650000D02*
X119419000Y-128730000D01*
X119419000Y-128730000D02*
X121959000Y-128730000D01*
X121959000Y-128730000D02*
X121959000Y-123650000D01*
X122239000Y-120830000D02*
X122239000Y-122380000D01*
X121959000Y-123650000D02*
X119419000Y-123650000D01*
X119139000Y-122380000D02*
X119139000Y-120830000D01*
X119139000Y-120830000D02*
X122239000Y-120830000D01*
X121959000Y-123650000D02*
X121959000Y-128730000D01*
X121959000Y-128730000D02*
X124499000Y-128730000D01*
X124499000Y-128730000D02*
X124499000Y-123650000D01*
X124779000Y-120830000D02*
X124779000Y-122380000D01*
X124499000Y-123650000D02*
X121959000Y-123650000D01*
X121679000Y-122380000D02*
X121679000Y-120830000D01*
X121679000Y-120830000D02*
X124779000Y-120830000D01*
X124499000Y-123650000D02*
X124499000Y-128730000D01*
X124499000Y-128730000D02*
X127039000Y-128730000D01*
X127039000Y-128730000D02*
X127039000Y-123650000D01*
X127319000Y-120830000D02*
X127319000Y-122380000D01*
X127039000Y-123650000D02*
X124499000Y-123650000D01*
X124219000Y-122380000D02*
X124219000Y-120830000D01*
X124219000Y-120830000D02*
X127319000Y-120830000D01*
X127039000Y-123650000D02*
X127039000Y-128730000D01*
X127039000Y-128730000D02*
X129579000Y-128730000D01*
X129579000Y-128730000D02*
X129579000Y-123650000D01*
X129859000Y-120830000D02*
X129859000Y-122380000D01*
X129579000Y-123650000D02*
X127039000Y-123650000D01*
X126759000Y-122380000D02*
X126759000Y-120830000D01*
X126759000Y-120830000D02*
X129859000Y-120830000D01*
X139739000Y-123650000D02*
X139739000Y-128730000D01*
X139739000Y-128730000D02*
X142279000Y-128730000D01*
X142279000Y-128730000D02*
X142279000Y-123650000D01*
X142559000Y-120830000D02*
X142559000Y-122380000D01*
X142279000Y-123650000D02*
X139739000Y-123650000D01*
X139459000Y-122380000D02*
X139459000Y-120830000D01*
X139459000Y-120830000D02*
X142559000Y-120830000D01*
X142279000Y-123650000D02*
X142279000Y-128730000D01*
X142279000Y-128730000D02*
X144819000Y-128730000D01*
X144819000Y-128730000D02*
X144819000Y-123650000D01*
X145099000Y-120830000D02*
X145099000Y-122380000D01*
X144819000Y-123650000D02*
X142279000Y-123650000D01*
X141999000Y-122380000D02*
X141999000Y-120830000D01*
X141999000Y-120830000D02*
X145099000Y-120830000D01*
X144819000Y-123650000D02*
X144819000Y-128730000D01*
X144819000Y-128730000D02*
X147359000Y-128730000D01*
X147359000Y-128730000D02*
X147359000Y-123650000D01*
X147639000Y-120830000D02*
X147639000Y-122380000D01*
X147359000Y-123650000D02*
X144819000Y-123650000D01*
X144539000Y-122380000D02*
X144539000Y-120830000D01*
X144539000Y-120830000D02*
X147639000Y-120830000D01*
X147359000Y-123650000D02*
X147359000Y-128730000D01*
X147359000Y-128730000D02*
X149899000Y-128730000D01*
X149899000Y-128730000D02*
X149899000Y-123650000D01*
X150179000Y-120830000D02*
X150179000Y-122380000D01*
X149899000Y-123650000D02*
X147359000Y-123650000D01*
X147079000Y-122380000D02*
X147079000Y-120830000D01*
X147079000Y-120830000D02*
X150179000Y-120830000D01*
X149899000Y-123650000D02*
X149899000Y-128730000D01*
X149899000Y-128730000D02*
X152439000Y-128730000D01*
X152439000Y-128730000D02*
X152439000Y-123650000D01*
X152719000Y-120830000D02*
X152719000Y-122380000D01*
X152439000Y-123650000D02*
X149899000Y-123650000D01*
X149619000Y-122380000D02*
X149619000Y-120830000D01*
X149619000Y-120830000D02*
X152719000Y-120830000D01*
X152439000Y-123650000D02*
X152439000Y-128730000D01*
X152439000Y-128730000D02*
X154979000Y-128730000D01*
X154979000Y-128730000D02*
X154979000Y-123650000D01*
X155259000Y-120830000D02*
X155259000Y-122380000D01*
X154979000Y-123650000D02*
X152439000Y-123650000D01*
X152159000Y-122380000D02*
X152159000Y-120830000D01*
X152159000Y-120830000D02*
X155259000Y-120830000D01*
X154979000Y-123650000D02*
X154979000Y-128730000D01*
X154979000Y-128730000D02*
X157519000Y-128730000D01*
X157519000Y-128730000D02*
X157519000Y-123650000D01*
X157799000Y-120830000D02*
X157799000Y-122380000D01*
X157519000Y-123650000D02*
X154979000Y-123650000D01*
X154699000Y-122380000D02*
X154699000Y-120830000D01*
X154699000Y-120830000D02*
X157799000Y-120830000D01*
X157519000Y-123650000D02*
X157519000Y-128730000D01*
X157519000Y-128730000D02*
X160059000Y-128730000D01*
X160059000Y-128730000D02*
X160059000Y-123650000D01*
X160339000Y-120830000D02*
X160339000Y-122380000D01*
X160059000Y-123650000D02*
X157519000Y-123650000D01*
X157239000Y-122380000D02*
X157239000Y-120830000D01*
X157239000Y-120830000D02*
X160339000Y-120830000D01*
X164464000Y-98932000D02*
X164464000Y-97682000D01*
X164464000Y-98932000D02*
X165964000Y-98932000D01*
X164464000Y-88932000D02*
X165964000Y-88932000D01*
X164464000Y-88932000D02*
X164464000Y-90182000D01*
X174159000Y-120848000D02*
X174159000Y-119848000D01*
X175509000Y-119848000D02*
X175509000Y-120848000D01*
X172127000Y-120848000D02*
X172127000Y-119848000D01*
X173477000Y-119848000D02*
X173477000Y-120848000D01*
X133262000Y-123650000D02*
X133262000Y-128730000D01*
X133262000Y-128730000D02*
X135802000Y-128730000D01*
X135802000Y-128730000D02*
X135802000Y-123650000D01*
X136082000Y-120830000D02*
X136082000Y-122380000D01*
X135802000Y-123650000D02*
X133262000Y-123650000D01*
X132982000Y-122380000D02*
X132982000Y-120830000D01*
X132982000Y-120830000D02*
X136082000Y-120830000D01*
X163742000Y-123650000D02*
X163742000Y-128730000D01*
X163742000Y-128730000D02*
X166282000Y-128730000D01*
X166282000Y-128730000D02*
X166282000Y-123650000D01*
X166562000Y-120830000D02*
X166562000Y-122380000D01*
X166282000Y-123650000D02*
X163742000Y-123650000D01*
X163462000Y-122380000D02*
X163462000Y-120830000D01*
X163462000Y-120830000D02*
X166562000Y-120830000D01*
X164504000Y-77930000D02*
X162472000Y-77930000D01*
X162091000Y-78057000D02*
X164885000Y-78057000D01*
X165139000Y-78184000D02*
X161837000Y-78184000D01*
X161583000Y-78311000D02*
X165393000Y-78311000D01*
X161456000Y-78438000D02*
X165520000Y-78438000D01*
X165774000Y-78565000D02*
X161202000Y-78565000D01*
X167679000Y-77549000D02*
X159297000Y-77549000D01*
X159297000Y-77549000D02*
X159297000Y-85169000D01*
X159297000Y-85169000D02*
X160059000Y-85931000D01*
X160059000Y-85931000D02*
X166917000Y-85931000D01*
X166917000Y-85931000D02*
X167679000Y-85169000D01*
X167679000Y-85169000D02*
X167679000Y-77549000D01*
X163488000Y-85423000D02*
X163488000Y-84661000D01*
X163869000Y-85042000D02*
X163107000Y-85042000D01*
X167425000Y-81740000D02*
G75*
G03X167425000Y-81740000I-3937000J0D01*
G01*
X165266000Y-102314000D02*
X163234000Y-102314000D01*
X162853000Y-102441000D02*
X165647000Y-102441000D01*
X165901000Y-102568000D02*
X162599000Y-102568000D01*
X162345000Y-102695000D02*
X166155000Y-102695000D01*
X162218000Y-102822000D02*
X166282000Y-102822000D01*
X166536000Y-102949000D02*
X161964000Y-102949000D01*
X168441000Y-101933000D02*
X160059000Y-101933000D01*
X160059000Y-101933000D02*
X160059000Y-109553000D01*
X160059000Y-109553000D02*
X160821000Y-110315000D01*
X160821000Y-110315000D02*
X167679000Y-110315000D01*
X167679000Y-110315000D02*
X168441000Y-109553000D01*
X168441000Y-109553000D02*
X168441000Y-101933000D01*
X164250000Y-109807000D02*
X164250000Y-109045000D01*
X164631000Y-109426000D02*
X163869000Y-109426000D01*
X168187000Y-106124000D02*
G75*
G03X168187000Y-106124000I-3937000J0D01*
G01*
X156243920Y-97851220D02*
X156693500Y-98051880D01*
X156693500Y-98051880D02*
X157143080Y-98402400D01*
X157143080Y-98402400D02*
X157643460Y-98951040D01*
X157643460Y-98951040D02*
X158093040Y-99702880D01*
X158093040Y-99702880D02*
X158392760Y-100551240D01*
X158392760Y-100551240D02*
X158545160Y-101552000D01*
X158545160Y-101552000D02*
X158494360Y-102352100D01*
X158494360Y-102352100D02*
X158194640Y-103251260D01*
X158194640Y-103251260D02*
X157595200Y-104302820D01*
X157595200Y-104302820D02*
X156795100Y-105001320D01*
X156795100Y-105001320D02*
X156294720Y-105301040D01*
X152444080Y-105351840D02*
X151943700Y-105001320D01*
X151943700Y-105001320D02*
X151293460Y-104500940D01*
X151293460Y-104500940D02*
X150843880Y-103853240D01*
X150843880Y-103853240D02*
X150394300Y-103002340D01*
X150394300Y-103002340D02*
X150193640Y-102202240D01*
X150193640Y-102202240D02*
X150142840Y-101201480D01*
X150142840Y-101201480D02*
X150394300Y-100152460D01*
X150394300Y-100152460D02*
X150942940Y-99001840D01*
X150942940Y-99001840D02*
X151593180Y-98300800D01*
X151593180Y-98300800D02*
X152393280Y-97851220D01*
X152393280Y-97851220D02*
X152494880Y-97802960D01*
X152345020Y-108351580D02*
X149645000Y-103550980D01*
X149645000Y-103550980D02*
X149645000Y-99553020D01*
X149645000Y-99553020D02*
X152345020Y-94752420D01*
X156342980Y-108351580D02*
X159043000Y-103550980D01*
X159043000Y-103550980D02*
X159043000Y-99553020D01*
X159043000Y-99553020D02*
X156342980Y-94752420D01*
X175648000Y-112112500D02*
X171648000Y-112112500D01*
X176923000Y-117407500D02*
X171648000Y-117407500D01*
X167910000Y-115040000D02*
X167210000Y-115040000D01*
X167210000Y-113840000D02*
X167910000Y-113840000D01*
X121698780Y-114229860D02*
X122059460Y-115700520D01*
X122059460Y-115700520D02*
X122338860Y-114638800D01*
X122338860Y-114638800D02*
X122648740Y-115710680D01*
X122648740Y-115710680D02*
X122989100Y-114260340D01*
X120278920Y-114920740D02*
X121068860Y-114910580D01*
X121068860Y-114910580D02*
X121079020Y-114920740D01*
X121079020Y-114920740D02*
X121079020Y-114910580D01*
X121119660Y-114199380D02*
X121119660Y-115741160D01*
X120230660Y-114189220D02*
X120230660Y-115758940D01*
X120230660Y-115758940D02*
X120240820Y-115748780D01*
X119679480Y-114290820D02*
X119328960Y-114209540D01*
X119328960Y-114209540D02*
X119008920Y-114199380D01*
X119008920Y-114199380D02*
X118770160Y-114400040D01*
X118770160Y-114400040D02*
X118739680Y-114669280D01*
X118739680Y-114669280D02*
X118980980Y-114910580D01*
X118980980Y-114910580D02*
X119369600Y-115040120D01*
X119369600Y-115040120D02*
X119549940Y-115200140D01*
X119549940Y-115200140D02*
X119590580Y-115499860D01*
X119590580Y-115499860D02*
X119359440Y-115720840D01*
X119359440Y-115720840D02*
X119039400Y-115748780D01*
X119039400Y-115748780D02*
X118688880Y-115639560D01*
X117650020Y-114189220D02*
X117401100Y-114209540D01*
X117401100Y-114209540D02*
X117159800Y-114450840D01*
X117159800Y-114450840D02*
X117070900Y-114941060D01*
X117070900Y-114941060D02*
X117098840Y-115289040D01*
X117098840Y-115289040D02*
X117299500Y-115609080D01*
X117299500Y-115609080D02*
X117550960Y-115731000D01*
X117550960Y-115731000D02*
X117860840Y-115659880D01*
X117860840Y-115659880D02*
X118079280Y-115479540D01*
X118079280Y-115479540D02*
X118150400Y-115019800D01*
X118150400Y-115019800D02*
X118099600Y-114610860D01*
X118099600Y-114610860D02*
X117990380Y-114328920D01*
X117990380Y-114328920D02*
X117629700Y-114199380D01*
X118249460Y-112469640D02*
X117990380Y-113030980D01*
X117990380Y-113030980D02*
X118528860Y-113549140D01*
X118528860Y-113549140D02*
X119049560Y-113279900D01*
X119049560Y-113279900D02*
X119328960Y-113439920D01*
X120769140Y-113419600D02*
X121099340Y-113229100D01*
X121099340Y-113229100D02*
X121538760Y-113559300D01*
X121538760Y-113559300D02*
X122011200Y-113069080D01*
X122011200Y-113069080D02*
X121729260Y-112589020D01*
X121729260Y-112589020D02*
X121919760Y-112119120D01*
X121919760Y-112119120D02*
X122529360Y-111931160D01*
X122529360Y-111931160D02*
X122529360Y-111250440D01*
X122529360Y-111250440D02*
X121970560Y-111110740D01*
X121970560Y-111110740D02*
X121769900Y-110539240D01*
X121769900Y-110539240D02*
X122039140Y-110069340D01*
X122039140Y-110069340D02*
X121569240Y-109558800D01*
X121569240Y-109558800D02*
X121051080Y-109820420D01*
X121051080Y-109820420D02*
X120581180Y-109619760D01*
X120581180Y-109619760D02*
X120411000Y-109078740D01*
X120411000Y-109078740D02*
X119720120Y-109060960D01*
X119720120Y-109060960D02*
X119509300Y-109609600D01*
X119509300Y-109609600D02*
X119090200Y-109779780D01*
X119090200Y-109779780D02*
X118539020Y-109510540D01*
X118539020Y-109510540D02*
X118020860Y-110038860D01*
X118020860Y-110038860D02*
X118269780Y-110579880D01*
X118269780Y-110579880D02*
X118099600Y-111059940D01*
X118099600Y-111059940D02*
X117550960Y-111159000D01*
X117550960Y-111159000D02*
X117540800Y-111860040D01*
X117540800Y-111860040D02*
X118099600Y-112060700D01*
X118099600Y-112060700D02*
X118239300Y-112459480D01*
X120380520Y-112439160D02*
X120680240Y-112289300D01*
X120680240Y-112289300D02*
X120880900Y-112091180D01*
X120880900Y-112091180D02*
X121030760Y-111689860D01*
X121030760Y-111689860D02*
X121030760Y-111291080D01*
X121030760Y-111291080D02*
X120880900Y-110940560D01*
X120880900Y-110940560D02*
X120428780Y-110590040D01*
X120428780Y-110590040D02*
X119979200Y-110539240D01*
X119979200Y-110539240D02*
X119580420Y-110640840D01*
X119580420Y-110640840D02*
X119179100Y-110988820D01*
X119179100Y-110988820D02*
X119029240Y-111440940D01*
X119029240Y-111440940D02*
X119080040Y-111938780D01*
X119080040Y-111938780D02*
X119328960Y-112241040D01*
X119328960Y-112241040D02*
X119679480Y-112439160D01*
X119679480Y-112439160D02*
X119328960Y-113439920D01*
X120380520Y-112439160D02*
X120779300Y-113439920D01*
X128425000Y-105995000D02*
X128425000Y-105795000D01*
X123775000Y-105995000D02*
X123775000Y-105795000D01*
X123775000Y-102745000D02*
X123775000Y-102945000D01*
X128425000Y-102745000D02*
X128425000Y-102945000D01*
X128425000Y-105995000D02*
X123775000Y-105995000D01*
X128425000Y-102745000D02*
X123775000Y-102745000D01*
X128425000Y-105795000D02*
X129775000Y-105795000D01*
X128395000Y-93105000D02*
X128395000Y-92905000D01*
X123745000Y-93105000D02*
X123745000Y-92905000D01*
X123745000Y-89855000D02*
X123745000Y-90055000D01*
X128395000Y-89855000D02*
X128395000Y-90055000D01*
X128395000Y-93105000D02*
X123745000Y-93105000D01*
X128395000Y-89855000D02*
X123745000Y-89855000D01*
X128395000Y-92905000D02*
X129745000Y-92905000D01*
X145100000Y-105180000D02*
X145800000Y-105180000D01*
X145800000Y-106380000D02*
X145100000Y-106380000D01*
X132207000Y-106737000D02*
X132207000Y-107062000D01*
X136857000Y-106737000D02*
X136857000Y-107062000D01*
X136857000Y-116687000D02*
X136857000Y-116362000D01*
X132207000Y-116687000D02*
X132207000Y-116362000D01*
X132207000Y-106737000D02*
X136857000Y-106737000D01*
X132207000Y-116687000D02*
X136857000Y-116687000D01*
X132207000Y-107062000D02*
X131132000Y-107062000D01*
X175831000Y-105633000D02*
X175831000Y-105333000D01*
X172481000Y-105633000D02*
X172481000Y-105333000D01*
X172481000Y-102283000D02*
X172481000Y-102583000D01*
X175831000Y-102283000D02*
X175831000Y-102583000D01*
X175831000Y-105633000D02*
X172481000Y-105633000D01*
X175831000Y-102283000D02*
X172481000Y-102283000D01*
X175831000Y-105333000D02*
X177056000Y-105333000D01*
X117040000Y-83620000D02*
X109420000Y-83620000D01*
X117040000Y-86160000D02*
X109420000Y-86160000D01*
X119860000Y-86440000D02*
X118310000Y-86440000D01*
X109420000Y-83620000D02*
X109420000Y-86160000D01*
X117040000Y-86160000D02*
X117040000Y-83620000D01*
X118310000Y-83340000D02*
X119860000Y-83340000D01*
X119860000Y-83340000D02*
X119860000Y-86440000D01*
X128325000Y-94625000D02*
X123875000Y-94625000D01*
X129850000Y-101375000D02*
X123875000Y-101375000D01*
X141330000Y-104204000D02*
X141330000Y-103804000D01*
X141330000Y-104204000D02*
X141730000Y-104204000D01*
X144530000Y-104204000D02*
X144530000Y-103804000D01*
X144530000Y-104204000D02*
X144130000Y-104204000D01*
X144530000Y-101004000D02*
X144530000Y-101404000D01*
X144530000Y-101004000D02*
X144130000Y-101004000D01*
X141330000Y-101004000D02*
X141730000Y-101004000D01*
X174284000Y-80624000D02*
G75*
G03X174284000Y-80624000I-2000000J0D01*
G01*
X174784000Y-76624000D02*
X174784000Y-76124000D01*
X179784000Y-76624000D02*
X179784000Y-76124000D01*
X179284000Y-80624000D02*
G75*
G03X179284000Y-80624000I-2000000J0D01*
G01*
X184284000Y-80624000D02*
G75*
G03X184284000Y-80624000I-2000000J0D01*
G01*
X184784000Y-78124000D02*
X169784000Y-78124000D01*
X184784000Y-83024000D02*
X169784000Y-83024000D01*
X184784000Y-76624000D02*
X169784000Y-76624000D01*
X184784000Y-76124000D02*
X169784000Y-76124000D01*
X169784000Y-76124000D02*
X169784000Y-85924000D01*
X169784000Y-85924000D02*
X184784000Y-85924000D01*
X184784000Y-85924000D02*
X184784000Y-76124000D01*
X173160000Y-108635000D02*
X174160000Y-108635000D01*
X174160000Y-109985000D02*
X173160000Y-109985000D01*
X178630840Y-117430240D02*
X178679100Y-117430240D01*
X181429820Y-116729200D02*
X181429820Y-117430240D01*
X181429820Y-117430240D02*
X181180900Y-117430240D01*
X178630840Y-117430240D02*
X178430180Y-117430240D01*
X178430180Y-117430240D02*
X178430180Y-116729200D01*
X190920000Y-91392000D02*
X190920000Y-87328000D01*
X185840000Y-91392000D02*
X185840000Y-87328000D01*
X123710000Y-85975000D02*
X121710000Y-85975000D01*
X121710000Y-83825000D02*
X123710000Y-83825000D01*
X148053240Y-103986160D02*
X148053240Y-103937900D01*
X147352200Y-101187180D02*
X148053240Y-101187180D01*
X148053240Y-101187180D02*
X148053240Y-101436100D01*
X148053240Y-103986160D02*
X148053240Y-104186820D01*
X148053240Y-104186820D02*
X147352200Y-104186820D01*
X178960000Y-89339680D02*
X179159800Y-89339680D01*
X179010000Y-89796720D02*
X179159000Y-89796720D01*
X178960000Y-93942160D02*
X179109000Y-93942160D01*
X182560000Y-89344760D02*
X182411000Y-89344760D01*
X182560000Y-89796720D02*
X182411000Y-89796720D01*
X182560000Y-93947240D02*
X182411000Y-93947240D01*
X178811020Y-89796720D02*
X179009140Y-89796720D01*
X182758980Y-89796720D02*
X182560860Y-89796720D01*
X178763560Y-93942160D02*
X178961680Y-93942160D01*
X178763560Y-89339680D02*
X178763560Y-93942160D01*
X178763560Y-89339680D02*
X178961680Y-89339680D01*
X182758980Y-89344760D02*
X182560860Y-89344760D01*
X182758980Y-89344760D02*
X182758980Y-93947240D01*
X182758980Y-93947240D02*
X182560860Y-93947240D01*
X157600060Y-91879140D02*
X157249540Y-91879140D01*
X154099940Y-91879140D02*
X154450460Y-91879140D01*
X157600060Y-87829560D02*
X157249540Y-87829560D01*
X157600060Y-92330440D02*
X157249540Y-92330440D01*
X154099940Y-92330440D02*
X154450460Y-92330440D01*
X154099940Y-87829560D02*
X154450460Y-87829560D01*
X157600060Y-92330440D02*
X157600060Y-87829560D01*
X154099940Y-92330440D02*
X154099940Y-87829560D01*
X169470000Y-121010000D02*
X169470000Y-120010000D01*
X167770000Y-120010000D02*
X167770000Y-121010000D01*
X181900000Y-110235000D02*
X183900000Y-110235000D01*
X183900000Y-112385000D02*
X181900000Y-112385000D01*
X178013810Y-99686667D02*
X178490001Y-99686667D01*
X177918572Y-99972381D02*
X178251905Y-98972381D01*
X178585239Y-99972381D01*
X178918572Y-99972381D02*
X178918572Y-98972381D01*
X179394762Y-99972381D02*
X179394762Y-98972381D01*
X179966191Y-99972381D01*
X179966191Y-98972381D01*
X180966191Y-99972381D02*
X180394762Y-99972381D01*
X180680476Y-99972381D02*
X180680476Y-98972381D01*
X180585238Y-99115238D01*
X180490000Y-99210476D01*
X180394762Y-99258095D01*
X178013810Y-102226667D02*
X178490001Y-102226667D01*
X177918572Y-102512381D02*
X178251905Y-101512381D01*
X178585239Y-102512381D01*
X178918572Y-102512381D02*
X178918572Y-101512381D01*
X179394762Y-102512381D02*
X179394762Y-101512381D01*
X179966191Y-102512381D01*
X179966191Y-101512381D01*
X180394762Y-101607619D02*
X180442381Y-101560000D01*
X180537619Y-101512381D01*
X180775715Y-101512381D01*
X180870953Y-101560000D01*
X180918572Y-101607619D01*
X180966191Y-101702857D01*
X180966191Y-101798095D01*
X180918572Y-101940952D01*
X180347143Y-102512381D01*
X180966191Y-102512381D01*
X178013810Y-104766667D02*
X178490001Y-104766667D01*
X177918572Y-105052381D02*
X178251905Y-104052381D01*
X178585239Y-105052381D01*
X178918572Y-105052381D02*
X178918572Y-104052381D01*
X179394762Y-105052381D02*
X179394762Y-104052381D01*
X179966191Y-105052381D01*
X179966191Y-104052381D01*
X180347143Y-104052381D02*
X180966191Y-104052381D01*
X180632857Y-104433333D01*
X180775715Y-104433333D01*
X180870953Y-104480952D01*
X180918572Y-104528571D01*
X180966191Y-104623810D01*
X180966191Y-104861905D01*
X180918572Y-104957143D01*
X180870953Y-105004762D01*
X180775715Y-105052381D01*
X180490000Y-105052381D01*
X180394762Y-105004762D01*
X180347143Y-104957143D01*
X178013810Y-107306667D02*
X178490001Y-107306667D01*
X177918572Y-107592381D02*
X178251905Y-106592381D01*
X178585239Y-107592381D01*
X178918572Y-107592381D02*
X178918572Y-106592381D01*
X179394762Y-107592381D02*
X179394762Y-106592381D01*
X179966191Y-107592381D01*
X179966191Y-106592381D01*
X180870953Y-106925714D02*
X180870953Y-107592381D01*
X180632857Y-106544762D02*
X180394762Y-107259048D01*
X181013810Y-107259048D01*
X118387310Y-89177500D02*
X118292072Y-89129881D01*
X118149215Y-89129881D01*
X118006357Y-89177500D01*
X117911119Y-89272738D01*
X117863500Y-89367976D01*
X117815881Y-89558452D01*
X117815881Y-89701310D01*
X117863500Y-89891786D01*
X117911119Y-89987024D01*
X118006357Y-90082262D01*
X118149215Y-90129881D01*
X118244453Y-90129881D01*
X118387310Y-90082262D01*
X118434929Y-90034643D01*
X118434929Y-89701310D01*
X118244453Y-89701310D01*
X118863500Y-90129881D02*
X118863500Y-89129881D01*
X119244453Y-89129881D01*
X119339691Y-89177500D01*
X119387310Y-89225119D01*
X119434929Y-89320357D01*
X119434929Y-89463214D01*
X119387310Y-89558452D01*
X119339691Y-89606071D01*
X119244453Y-89653690D01*
X118863500Y-89653690D01*
X119863500Y-90129881D02*
X119863500Y-89129881D01*
X120530166Y-89129881D02*
X120720643Y-89129881D01*
X120815881Y-89177500D01*
X120911119Y-89272738D01*
X120958738Y-89463214D01*
X120958738Y-89796548D01*
X120911119Y-89987024D01*
X120815881Y-90082262D01*
X120720643Y-90129881D01*
X120530166Y-90129881D01*
X120434928Y-90082262D01*
X120339690Y-89987024D01*
X120292071Y-89796548D01*
X120292071Y-89463214D01*
X120339690Y-89272738D01*
X120434928Y-89177500D01*
X120530166Y-89129881D01*
X121911119Y-90129881D02*
X121339690Y-90129881D01*
X121625404Y-90129881D02*
X121625404Y-89129881D01*
X121530166Y-89272738D01*
X121434928Y-89367976D01*
X121339690Y-89415595D01*
X118387310Y-91717500D02*
X118292072Y-91669881D01*
X118149215Y-91669881D01*
X118006357Y-91717500D01*
X117911119Y-91812738D01*
X117863500Y-91907976D01*
X117815881Y-92098452D01*
X117815881Y-92241310D01*
X117863500Y-92431786D01*
X117911119Y-92527024D01*
X118006357Y-92622262D01*
X118149215Y-92669881D01*
X118244453Y-92669881D01*
X118387310Y-92622262D01*
X118434929Y-92574643D01*
X118434929Y-92241310D01*
X118244453Y-92241310D01*
X118863500Y-92669881D02*
X118863500Y-91669881D01*
X119244453Y-91669881D01*
X119339691Y-91717500D01*
X119387310Y-91765119D01*
X119434929Y-91860357D01*
X119434929Y-92003214D01*
X119387310Y-92098452D01*
X119339691Y-92146071D01*
X119244453Y-92193690D01*
X118863500Y-92193690D01*
X119863500Y-92669881D02*
X119863500Y-91669881D01*
X120530166Y-91669881D02*
X120720643Y-91669881D01*
X120815881Y-91717500D01*
X120911119Y-91812738D01*
X120958738Y-92003214D01*
X120958738Y-92336548D01*
X120911119Y-92527024D01*
X120815881Y-92622262D01*
X120720643Y-92669881D01*
X120530166Y-92669881D01*
X120434928Y-92622262D01*
X120339690Y-92527024D01*
X120292071Y-92336548D01*
X120292071Y-92003214D01*
X120339690Y-91812738D01*
X120434928Y-91717500D01*
X120530166Y-91669881D01*
X121339690Y-91765119D02*
X121387309Y-91717500D01*
X121482547Y-91669881D01*
X121720643Y-91669881D01*
X121815881Y-91717500D01*
X121863500Y-91765119D01*
X121911119Y-91860357D01*
X121911119Y-91955595D01*
X121863500Y-92098452D01*
X121292071Y-92669881D01*
X121911119Y-92669881D01*
X118387310Y-94257500D02*
X118292072Y-94209881D01*
X118149215Y-94209881D01*
X118006357Y-94257500D01*
X117911119Y-94352738D01*
X117863500Y-94447976D01*
X117815881Y-94638452D01*
X117815881Y-94781310D01*
X117863500Y-94971786D01*
X117911119Y-95067024D01*
X118006357Y-95162262D01*
X118149215Y-95209881D01*
X118244453Y-95209881D01*
X118387310Y-95162262D01*
X118434929Y-95114643D01*
X118434929Y-94781310D01*
X118244453Y-94781310D01*
X118863500Y-95209881D02*
X118863500Y-94209881D01*
X119244453Y-94209881D01*
X119339691Y-94257500D01*
X119387310Y-94305119D01*
X119434929Y-94400357D01*
X119434929Y-94543214D01*
X119387310Y-94638452D01*
X119339691Y-94686071D01*
X119244453Y-94733690D01*
X118863500Y-94733690D01*
X119863500Y-95209881D02*
X119863500Y-94209881D01*
X120530166Y-94209881D02*
X120720643Y-94209881D01*
X120815881Y-94257500D01*
X120911119Y-94352738D01*
X120958738Y-94543214D01*
X120958738Y-94876548D01*
X120911119Y-95067024D01*
X120815881Y-95162262D01*
X120720643Y-95209881D01*
X120530166Y-95209881D01*
X120434928Y-95162262D01*
X120339690Y-95067024D01*
X120292071Y-94876548D01*
X120292071Y-94543214D01*
X120339690Y-94352738D01*
X120434928Y-94257500D01*
X120530166Y-94209881D01*
X121292071Y-94209881D02*
X121911119Y-94209881D01*
X121577785Y-94590833D01*
X121720643Y-94590833D01*
X121815881Y-94638452D01*
X121863500Y-94686071D01*
X121911119Y-94781310D01*
X121911119Y-95019405D01*
X121863500Y-95114643D01*
X121815881Y-95162262D01*
X121720643Y-95209881D01*
X121434928Y-95209881D01*
X121339690Y-95162262D01*
X121292071Y-95114643D01*
X118387310Y-96797500D02*
X118292072Y-96749881D01*
X118149215Y-96749881D01*
X118006357Y-96797500D01*
X117911119Y-96892738D01*
X117863500Y-96987976D01*
X117815881Y-97178452D01*
X117815881Y-97321310D01*
X117863500Y-97511786D01*
X117911119Y-97607024D01*
X118006357Y-97702262D01*
X118149215Y-97749881D01*
X118244453Y-97749881D01*
X118387310Y-97702262D01*
X118434929Y-97654643D01*
X118434929Y-97321310D01*
X118244453Y-97321310D01*
X118863500Y-97749881D02*
X118863500Y-96749881D01*
X119244453Y-96749881D01*
X119339691Y-96797500D01*
X119387310Y-96845119D01*
X119434929Y-96940357D01*
X119434929Y-97083214D01*
X119387310Y-97178452D01*
X119339691Y-97226071D01*
X119244453Y-97273690D01*
X118863500Y-97273690D01*
X119863500Y-97749881D02*
X119863500Y-96749881D01*
X120530166Y-96749881D02*
X120720643Y-96749881D01*
X120815881Y-96797500D01*
X120911119Y-96892738D01*
X120958738Y-97083214D01*
X120958738Y-97416548D01*
X120911119Y-97607024D01*
X120815881Y-97702262D01*
X120720643Y-97749881D01*
X120530166Y-97749881D01*
X120434928Y-97702262D01*
X120339690Y-97607024D01*
X120292071Y-97416548D01*
X120292071Y-97083214D01*
X120339690Y-96892738D01*
X120434928Y-96797500D01*
X120530166Y-96749881D01*
X121815881Y-97083214D02*
X121815881Y-97749881D01*
X121577785Y-96702262D02*
X121339690Y-97416548D01*
X121958738Y-97416548D01*
X118387310Y-99337500D02*
X118292072Y-99289881D01*
X118149215Y-99289881D01*
X118006357Y-99337500D01*
X117911119Y-99432738D01*
X117863500Y-99527976D01*
X117815881Y-99718452D01*
X117815881Y-99861310D01*
X117863500Y-100051786D01*
X117911119Y-100147024D01*
X118006357Y-100242262D01*
X118149215Y-100289881D01*
X118244453Y-100289881D01*
X118387310Y-100242262D01*
X118434929Y-100194643D01*
X118434929Y-99861310D01*
X118244453Y-99861310D01*
X118863500Y-100289881D02*
X118863500Y-99289881D01*
X119244453Y-99289881D01*
X119339691Y-99337500D01*
X119387310Y-99385119D01*
X119434929Y-99480357D01*
X119434929Y-99623214D01*
X119387310Y-99718452D01*
X119339691Y-99766071D01*
X119244453Y-99813690D01*
X118863500Y-99813690D01*
X119863500Y-100289881D02*
X119863500Y-99289881D01*
X120530166Y-99289881D02*
X120720643Y-99289881D01*
X120815881Y-99337500D01*
X120911119Y-99432738D01*
X120958738Y-99623214D01*
X120958738Y-99956548D01*
X120911119Y-100147024D01*
X120815881Y-100242262D01*
X120720643Y-100289881D01*
X120530166Y-100289881D01*
X120434928Y-100242262D01*
X120339690Y-100147024D01*
X120292071Y-99956548D01*
X120292071Y-99623214D01*
X120339690Y-99432738D01*
X120434928Y-99337500D01*
X120530166Y-99289881D01*
X121863500Y-99289881D02*
X121387309Y-99289881D01*
X121339690Y-99766071D01*
X121387309Y-99718452D01*
X121482547Y-99670833D01*
X121720643Y-99670833D01*
X121815881Y-99718452D01*
X121863500Y-99766071D01*
X121911119Y-99861310D01*
X121911119Y-100099405D01*
X121863500Y-100194643D01*
X121815881Y-100242262D01*
X121720643Y-100289881D01*
X121482547Y-100289881D01*
X121387309Y-100242262D01*
X121339690Y-100194643D01*
X118387310Y-101877500D02*
X118292072Y-101829881D01*
X118149215Y-101829881D01*
X118006357Y-101877500D01*
X117911119Y-101972738D01*
X117863500Y-102067976D01*
X117815881Y-102258452D01*
X117815881Y-102401310D01*
X117863500Y-102591786D01*
X117911119Y-102687024D01*
X118006357Y-102782262D01*
X118149215Y-102829881D01*
X118244453Y-102829881D01*
X118387310Y-102782262D01*
X118434929Y-102734643D01*
X118434929Y-102401310D01*
X118244453Y-102401310D01*
X118863500Y-102829881D02*
X118863500Y-101829881D01*
X119244453Y-101829881D01*
X119339691Y-101877500D01*
X119387310Y-101925119D01*
X119434929Y-102020357D01*
X119434929Y-102163214D01*
X119387310Y-102258452D01*
X119339691Y-102306071D01*
X119244453Y-102353690D01*
X118863500Y-102353690D01*
X119863500Y-102829881D02*
X119863500Y-101829881D01*
X120530166Y-101829881D02*
X120720643Y-101829881D01*
X120815881Y-101877500D01*
X120911119Y-101972738D01*
X120958738Y-102163214D01*
X120958738Y-102496548D01*
X120911119Y-102687024D01*
X120815881Y-102782262D01*
X120720643Y-102829881D01*
X120530166Y-102829881D01*
X120434928Y-102782262D01*
X120339690Y-102687024D01*
X120292071Y-102496548D01*
X120292071Y-102163214D01*
X120339690Y-101972738D01*
X120434928Y-101877500D01*
X120530166Y-101829881D01*
X121815881Y-101829881D02*
X121625404Y-101829881D01*
X121530166Y-101877500D01*
X121482547Y-101925119D01*
X121387309Y-102067976D01*
X121339690Y-102258452D01*
X121339690Y-102639405D01*
X121387309Y-102734643D01*
X121434928Y-102782262D01*
X121530166Y-102829881D01*
X121720643Y-102829881D01*
X121815881Y-102782262D01*
X121863500Y-102734643D01*
X121911119Y-102639405D01*
X121911119Y-102401310D01*
X121863500Y-102306071D01*
X121815881Y-102258452D01*
X121720643Y-102210833D01*
X121530166Y-102210833D01*
X121434928Y-102258452D01*
X121387309Y-102306071D01*
X121339690Y-102401310D01*
X118387310Y-104417500D02*
X118292072Y-104369881D01*
X118149215Y-104369881D01*
X118006357Y-104417500D01*
X117911119Y-104512738D01*
X117863500Y-104607976D01*
X117815881Y-104798452D01*
X117815881Y-104941310D01*
X117863500Y-105131786D01*
X117911119Y-105227024D01*
X118006357Y-105322262D01*
X118149215Y-105369881D01*
X118244453Y-105369881D01*
X118387310Y-105322262D01*
X118434929Y-105274643D01*
X118434929Y-104941310D01*
X118244453Y-104941310D01*
X118863500Y-105369881D02*
X118863500Y-104369881D01*
X119244453Y-104369881D01*
X119339691Y-104417500D01*
X119387310Y-104465119D01*
X119434929Y-104560357D01*
X119434929Y-104703214D01*
X119387310Y-104798452D01*
X119339691Y-104846071D01*
X119244453Y-104893690D01*
X118863500Y-104893690D01*
X119863500Y-105369881D02*
X119863500Y-104369881D01*
X120530166Y-104369881D02*
X120720643Y-104369881D01*
X120815881Y-104417500D01*
X120911119Y-104512738D01*
X120958738Y-104703214D01*
X120958738Y-105036548D01*
X120911119Y-105227024D01*
X120815881Y-105322262D01*
X120720643Y-105369881D01*
X120530166Y-105369881D01*
X120434928Y-105322262D01*
X120339690Y-105227024D01*
X120292071Y-105036548D01*
X120292071Y-104703214D01*
X120339690Y-104512738D01*
X120434928Y-104417500D01*
X120530166Y-104369881D01*
X121292071Y-104369881D02*
X121958738Y-104369881D01*
X121530166Y-105369881D01*
X118387310Y-106957500D02*
X118292072Y-106909881D01*
X118149215Y-106909881D01*
X118006357Y-106957500D01*
X117911119Y-107052738D01*
X117863500Y-107147976D01*
X117815881Y-107338452D01*
X117815881Y-107481310D01*
X117863500Y-107671786D01*
X117911119Y-107767024D01*
X118006357Y-107862262D01*
X118149215Y-107909881D01*
X118244453Y-107909881D01*
X118387310Y-107862262D01*
X118434929Y-107814643D01*
X118434929Y-107481310D01*
X118244453Y-107481310D01*
X118863500Y-107909881D02*
X118863500Y-106909881D01*
X119244453Y-106909881D01*
X119339691Y-106957500D01*
X119387310Y-107005119D01*
X119434929Y-107100357D01*
X119434929Y-107243214D01*
X119387310Y-107338452D01*
X119339691Y-107386071D01*
X119244453Y-107433690D01*
X118863500Y-107433690D01*
X119863500Y-107909881D02*
X119863500Y-106909881D01*
X120530166Y-106909881D02*
X120720643Y-106909881D01*
X120815881Y-106957500D01*
X120911119Y-107052738D01*
X120958738Y-107243214D01*
X120958738Y-107576548D01*
X120911119Y-107767024D01*
X120815881Y-107862262D01*
X120720643Y-107909881D01*
X120530166Y-107909881D01*
X120434928Y-107862262D01*
X120339690Y-107767024D01*
X120292071Y-107576548D01*
X120292071Y-107243214D01*
X120339690Y-107052738D01*
X120434928Y-106957500D01*
X120530166Y-106909881D01*
X121530166Y-107338452D02*
X121434928Y-107290833D01*
X121387309Y-107243214D01*
X121339690Y-107147976D01*
X121339690Y-107100357D01*
X121387309Y-107005119D01*
X121434928Y-106957500D01*
X121530166Y-106909881D01*
X121720643Y-106909881D01*
X121815881Y-106957500D01*
X121863500Y-107005119D01*
X121911119Y-107100357D01*
X121911119Y-107147976D01*
X121863500Y-107243214D01*
X121815881Y-107290833D01*
X121720643Y-107338452D01*
X121530166Y-107338452D01*
X121434928Y-107386071D01*
X121387309Y-107433690D01*
X121339690Y-107528929D01*
X121339690Y-107719405D01*
X121387309Y-107814643D01*
X121434928Y-107862262D01*
X121530166Y-107909881D01*
X121720643Y-107909881D01*
X121815881Y-107862262D01*
X121863500Y-107814643D01*
X121911119Y-107719405D01*
X121911119Y-107528929D01*
X121863500Y-107433690D01*
X121815881Y-107386071D01*
X121720643Y-107338452D01*
X179221905Y-126312381D02*
X179221905Y-125312381D01*
X179602858Y-125312381D01*
X179698096Y-125360000D01*
X179745715Y-125407619D01*
X179793334Y-125502857D01*
X179793334Y-125645714D01*
X179745715Y-125740952D01*
X179698096Y-125788571D01*
X179602858Y-125836190D01*
X179221905Y-125836190D01*
X180745715Y-126312381D02*
X180174286Y-126312381D01*
X180460000Y-126312381D02*
X180460000Y-125312381D01*
X180364762Y-125455238D01*
X180269524Y-125550476D01*
X180174286Y-125598095D01*
X149664762Y-88947619D02*
X149569524Y-88900000D01*
X149474286Y-88804762D01*
X149331429Y-88661905D01*
X149236190Y-88614286D01*
X149140952Y-88614286D01*
X149188571Y-88852381D02*
X149093333Y-88804762D01*
X148998095Y-88709524D01*
X148950476Y-88519048D01*
X148950476Y-88185714D01*
X148998095Y-87995238D01*
X149093333Y-87900000D01*
X149188571Y-87852381D01*
X149379048Y-87852381D01*
X149474286Y-87900000D01*
X149569524Y-87995238D01*
X149617143Y-88185714D01*
X149617143Y-88519048D01*
X149569524Y-88709524D01*
X149474286Y-88804762D01*
X149379048Y-88852381D01*
X149188571Y-88852381D01*
X150569524Y-88852381D02*
X149998095Y-88852381D01*
X150283809Y-88852381D02*
X150283809Y-87852381D01*
X150188571Y-87995238D01*
X150093333Y-88090476D01*
X149998095Y-88138095D01*
X149600762Y-83875619D02*
X149505524Y-83828000D01*
X149410286Y-83732762D01*
X149267429Y-83589905D01*
X149172190Y-83542286D01*
X149076952Y-83542286D01*
X149124571Y-83780381D02*
X149029333Y-83732762D01*
X148934095Y-83637524D01*
X148886476Y-83447048D01*
X148886476Y-83113714D01*
X148934095Y-82923238D01*
X149029333Y-82828000D01*
X149124571Y-82780381D01*
X149315048Y-82780381D01*
X149410286Y-82828000D01*
X149505524Y-82923238D01*
X149553143Y-83113714D01*
X149553143Y-83447048D01*
X149505524Y-83637524D01*
X149410286Y-83732762D01*
X149315048Y-83780381D01*
X149124571Y-83780381D01*
X149934095Y-82875619D02*
X149981714Y-82828000D01*
X150076952Y-82780381D01*
X150315048Y-82780381D01*
X150410286Y-82828000D01*
X150457905Y-82875619D01*
X150505524Y-82970857D01*
X150505524Y-83066095D01*
X150457905Y-83208952D01*
X149886476Y-83780381D01*
X150505524Y-83780381D01*
X110933762Y-120260476D02*
X110981381Y-120117619D01*
X110981381Y-119879523D01*
X110933762Y-119784285D01*
X110886143Y-119736666D01*
X110790905Y-119689047D01*
X110695667Y-119689047D01*
X110600429Y-119736666D01*
X110552810Y-119784285D01*
X110505190Y-119879523D01*
X110457571Y-120070000D01*
X110409952Y-120165238D01*
X110362333Y-120212857D01*
X110267095Y-120260476D01*
X110171857Y-120260476D01*
X110076619Y-120212857D01*
X110029000Y-120165238D01*
X109981381Y-120070000D01*
X109981381Y-119831904D01*
X110029000Y-119689047D01*
X110981381Y-118689047D02*
X110505190Y-119022381D01*
X110981381Y-119260476D02*
X109981381Y-119260476D01*
X109981381Y-118879523D01*
X110029000Y-118784285D01*
X110076619Y-118736666D01*
X110171857Y-118689047D01*
X110314714Y-118689047D01*
X110409952Y-118736666D01*
X110457571Y-118784285D01*
X110505190Y-118879523D01*
X110505190Y-119260476D01*
X109981381Y-118403333D02*
X110981381Y-118070000D01*
X109981381Y-117736666D01*
X110981381Y-116879523D02*
X110981381Y-117450952D01*
X110981381Y-117165238D02*
X109981381Y-117165238D01*
X110124238Y-117260476D01*
X110219476Y-117355714D01*
X110267095Y-117450952D01*
X113473762Y-120260476D02*
X113521381Y-120117619D01*
X113521381Y-119879523D01*
X113473762Y-119784285D01*
X113426143Y-119736666D01*
X113330905Y-119689047D01*
X113235667Y-119689047D01*
X113140429Y-119736666D01*
X113092810Y-119784285D01*
X113045190Y-119879523D01*
X112997571Y-120070000D01*
X112949952Y-120165238D01*
X112902333Y-120212857D01*
X112807095Y-120260476D01*
X112711857Y-120260476D01*
X112616619Y-120212857D01*
X112569000Y-120165238D01*
X112521381Y-120070000D01*
X112521381Y-119831904D01*
X112569000Y-119689047D01*
X113521381Y-118689047D02*
X113045190Y-119022381D01*
X113521381Y-119260476D02*
X112521381Y-119260476D01*
X112521381Y-118879523D01*
X112569000Y-118784285D01*
X112616619Y-118736666D01*
X112711857Y-118689047D01*
X112854714Y-118689047D01*
X112949952Y-118736666D01*
X112997571Y-118784285D01*
X113045190Y-118879523D01*
X113045190Y-119260476D01*
X112521381Y-118403333D02*
X113521381Y-118070000D01*
X112521381Y-117736666D01*
X112616619Y-117450952D02*
X112569000Y-117403333D01*
X112521381Y-117308095D01*
X112521381Y-117069999D01*
X112569000Y-116974761D01*
X112616619Y-116927142D01*
X112711857Y-116879523D01*
X112807095Y-116879523D01*
X112949952Y-116927142D01*
X113521381Y-117498571D01*
X113521381Y-116879523D01*
X116013762Y-120260476D02*
X116061381Y-120117619D01*
X116061381Y-119879523D01*
X116013762Y-119784285D01*
X115966143Y-119736666D01*
X115870905Y-119689047D01*
X115775667Y-119689047D01*
X115680429Y-119736666D01*
X115632810Y-119784285D01*
X115585190Y-119879523D01*
X115537571Y-120070000D01*
X115489952Y-120165238D01*
X115442333Y-120212857D01*
X115347095Y-120260476D01*
X115251857Y-120260476D01*
X115156619Y-120212857D01*
X115109000Y-120165238D01*
X115061381Y-120070000D01*
X115061381Y-119831904D01*
X115109000Y-119689047D01*
X116061381Y-118689047D02*
X115585190Y-119022381D01*
X116061381Y-119260476D02*
X115061381Y-119260476D01*
X115061381Y-118879523D01*
X115109000Y-118784285D01*
X115156619Y-118736666D01*
X115251857Y-118689047D01*
X115394714Y-118689047D01*
X115489952Y-118736666D01*
X115537571Y-118784285D01*
X115585190Y-118879523D01*
X115585190Y-119260476D01*
X115061381Y-118403333D02*
X116061381Y-118070000D01*
X115061381Y-117736666D01*
X115061381Y-117498571D02*
X115061381Y-116879523D01*
X115442333Y-117212857D01*
X115442333Y-117069999D01*
X115489952Y-116974761D01*
X115537571Y-116927142D01*
X115632810Y-116879523D01*
X115870905Y-116879523D01*
X115966143Y-116927142D01*
X116013762Y-116974761D01*
X116061381Y-117069999D01*
X116061381Y-117355714D01*
X116013762Y-117450952D01*
X115966143Y-117498571D01*
X118553762Y-120260476D02*
X118601381Y-120117619D01*
X118601381Y-119879523D01*
X118553762Y-119784285D01*
X118506143Y-119736666D01*
X118410905Y-119689047D01*
X118315667Y-119689047D01*
X118220429Y-119736666D01*
X118172810Y-119784285D01*
X118125190Y-119879523D01*
X118077571Y-120070000D01*
X118029952Y-120165238D01*
X117982333Y-120212857D01*
X117887095Y-120260476D01*
X117791857Y-120260476D01*
X117696619Y-120212857D01*
X117649000Y-120165238D01*
X117601381Y-120070000D01*
X117601381Y-119831904D01*
X117649000Y-119689047D01*
X118601381Y-118689047D02*
X118125190Y-119022381D01*
X118601381Y-119260476D02*
X117601381Y-119260476D01*
X117601381Y-118879523D01*
X117649000Y-118784285D01*
X117696619Y-118736666D01*
X117791857Y-118689047D01*
X117934714Y-118689047D01*
X118029952Y-118736666D01*
X118077571Y-118784285D01*
X118125190Y-118879523D01*
X118125190Y-119260476D01*
X117601381Y-118403333D02*
X118601381Y-118070000D01*
X117601381Y-117736666D01*
X117934714Y-116974761D02*
X118601381Y-116974761D01*
X117553762Y-117212857D02*
X118268048Y-117450952D01*
X118268048Y-116831904D01*
X121093762Y-120260476D02*
X121141381Y-120117619D01*
X121141381Y-119879523D01*
X121093762Y-119784285D01*
X121046143Y-119736666D01*
X120950905Y-119689047D01*
X120855667Y-119689047D01*
X120760429Y-119736666D01*
X120712810Y-119784285D01*
X120665190Y-119879523D01*
X120617571Y-120070000D01*
X120569952Y-120165238D01*
X120522333Y-120212857D01*
X120427095Y-120260476D01*
X120331857Y-120260476D01*
X120236619Y-120212857D01*
X120189000Y-120165238D01*
X120141381Y-120070000D01*
X120141381Y-119831904D01*
X120189000Y-119689047D01*
X121141381Y-118689047D02*
X120665190Y-119022381D01*
X121141381Y-119260476D02*
X120141381Y-119260476D01*
X120141381Y-118879523D01*
X120189000Y-118784285D01*
X120236619Y-118736666D01*
X120331857Y-118689047D01*
X120474714Y-118689047D01*
X120569952Y-118736666D01*
X120617571Y-118784285D01*
X120665190Y-118879523D01*
X120665190Y-119260476D01*
X120141381Y-118403333D02*
X121141381Y-118070000D01*
X120141381Y-117736666D01*
X120141381Y-116927142D02*
X120141381Y-117403333D01*
X120617571Y-117450952D01*
X120569952Y-117403333D01*
X120522333Y-117308095D01*
X120522333Y-117069999D01*
X120569952Y-116974761D01*
X120617571Y-116927142D01*
X120712810Y-116879523D01*
X120950905Y-116879523D01*
X121046143Y-116927142D01*
X121093762Y-116974761D01*
X121141381Y-117069999D01*
X121141381Y-117308095D01*
X121093762Y-117403333D01*
X121046143Y-117450952D01*
X123633762Y-120260476D02*
X123681381Y-120117619D01*
X123681381Y-119879523D01*
X123633762Y-119784285D01*
X123586143Y-119736666D01*
X123490905Y-119689047D01*
X123395667Y-119689047D01*
X123300429Y-119736666D01*
X123252810Y-119784285D01*
X123205190Y-119879523D01*
X123157571Y-120070000D01*
X123109952Y-120165238D01*
X123062333Y-120212857D01*
X122967095Y-120260476D01*
X122871857Y-120260476D01*
X122776619Y-120212857D01*
X122729000Y-120165238D01*
X122681381Y-120070000D01*
X122681381Y-119831904D01*
X122729000Y-119689047D01*
X123681381Y-118689047D02*
X123205190Y-119022381D01*
X123681381Y-119260476D02*
X122681381Y-119260476D01*
X122681381Y-118879523D01*
X122729000Y-118784285D01*
X122776619Y-118736666D01*
X122871857Y-118689047D01*
X123014714Y-118689047D01*
X123109952Y-118736666D01*
X123157571Y-118784285D01*
X123205190Y-118879523D01*
X123205190Y-119260476D01*
X122681381Y-118403333D02*
X123681381Y-118070000D01*
X122681381Y-117736666D01*
X122681381Y-116974761D02*
X122681381Y-117165238D01*
X122729000Y-117260476D01*
X122776619Y-117308095D01*
X122919476Y-117403333D01*
X123109952Y-117450952D01*
X123490905Y-117450952D01*
X123586143Y-117403333D01*
X123633762Y-117355714D01*
X123681381Y-117260476D01*
X123681381Y-117069999D01*
X123633762Y-116974761D01*
X123586143Y-116927142D01*
X123490905Y-116879523D01*
X123252810Y-116879523D01*
X123157571Y-116927142D01*
X123109952Y-116974761D01*
X123062333Y-117069999D01*
X123062333Y-117260476D01*
X123109952Y-117355714D01*
X123157571Y-117403333D01*
X123252810Y-117450952D01*
X126173762Y-120260476D02*
X126221381Y-120117619D01*
X126221381Y-119879523D01*
X126173762Y-119784285D01*
X126126143Y-119736666D01*
X126030905Y-119689047D01*
X125935667Y-119689047D01*
X125840429Y-119736666D01*
X125792810Y-119784285D01*
X125745190Y-119879523D01*
X125697571Y-120070000D01*
X125649952Y-120165238D01*
X125602333Y-120212857D01*
X125507095Y-120260476D01*
X125411857Y-120260476D01*
X125316619Y-120212857D01*
X125269000Y-120165238D01*
X125221381Y-120070000D01*
X125221381Y-119831904D01*
X125269000Y-119689047D01*
X126221381Y-118689047D02*
X125745190Y-119022381D01*
X126221381Y-119260476D02*
X125221381Y-119260476D01*
X125221381Y-118879523D01*
X125269000Y-118784285D01*
X125316619Y-118736666D01*
X125411857Y-118689047D01*
X125554714Y-118689047D01*
X125649952Y-118736666D01*
X125697571Y-118784285D01*
X125745190Y-118879523D01*
X125745190Y-119260476D01*
X125221381Y-118403333D02*
X126221381Y-118070000D01*
X125221381Y-117736666D01*
X125221381Y-117498571D02*
X125221381Y-116831904D01*
X126221381Y-117260476D01*
X128713762Y-120260476D02*
X128761381Y-120117619D01*
X128761381Y-119879523D01*
X128713762Y-119784285D01*
X128666143Y-119736666D01*
X128570905Y-119689047D01*
X128475667Y-119689047D01*
X128380429Y-119736666D01*
X128332810Y-119784285D01*
X128285190Y-119879523D01*
X128237571Y-120070000D01*
X128189952Y-120165238D01*
X128142333Y-120212857D01*
X128047095Y-120260476D01*
X127951857Y-120260476D01*
X127856619Y-120212857D01*
X127809000Y-120165238D01*
X127761381Y-120070000D01*
X127761381Y-119831904D01*
X127809000Y-119689047D01*
X128761381Y-118689047D02*
X128285190Y-119022381D01*
X128761381Y-119260476D02*
X127761381Y-119260476D01*
X127761381Y-118879523D01*
X127809000Y-118784285D01*
X127856619Y-118736666D01*
X127951857Y-118689047D01*
X128094714Y-118689047D01*
X128189952Y-118736666D01*
X128237571Y-118784285D01*
X128285190Y-118879523D01*
X128285190Y-119260476D01*
X127761381Y-118403333D02*
X128761381Y-118070000D01*
X127761381Y-117736666D01*
X128189952Y-117260476D02*
X128142333Y-117355714D01*
X128094714Y-117403333D01*
X127999476Y-117450952D01*
X127951857Y-117450952D01*
X127856619Y-117403333D01*
X127809000Y-117355714D01*
X127761381Y-117260476D01*
X127761381Y-117069999D01*
X127809000Y-116974761D01*
X127856619Y-116927142D01*
X127951857Y-116879523D01*
X127999476Y-116879523D01*
X128094714Y-116927142D01*
X128142333Y-116974761D01*
X128189952Y-117069999D01*
X128189952Y-117260476D01*
X128237571Y-117355714D01*
X128285190Y-117403333D01*
X128380429Y-117450952D01*
X128570905Y-117450952D01*
X128666143Y-117403333D01*
X128713762Y-117355714D01*
X128761381Y-117260476D01*
X128761381Y-117069999D01*
X128713762Y-116974761D01*
X128666143Y-116927142D01*
X128570905Y-116879523D01*
X128380429Y-116879523D01*
X128285190Y-116927142D01*
X128237571Y-116974761D01*
X128189952Y-117069999D01*
X141413762Y-120260476D02*
X141461381Y-120117619D01*
X141461381Y-119879523D01*
X141413762Y-119784285D01*
X141366143Y-119736666D01*
X141270905Y-119689047D01*
X141175667Y-119689047D01*
X141080429Y-119736666D01*
X141032810Y-119784285D01*
X140985190Y-119879523D01*
X140937571Y-120070000D01*
X140889952Y-120165238D01*
X140842333Y-120212857D01*
X140747095Y-120260476D01*
X140651857Y-120260476D01*
X140556619Y-120212857D01*
X140509000Y-120165238D01*
X140461381Y-120070000D01*
X140461381Y-119831904D01*
X140509000Y-119689047D01*
X141461381Y-118689047D02*
X140985190Y-119022381D01*
X141461381Y-119260476D02*
X140461381Y-119260476D01*
X140461381Y-118879523D01*
X140509000Y-118784285D01*
X140556619Y-118736666D01*
X140651857Y-118689047D01*
X140794714Y-118689047D01*
X140889952Y-118736666D01*
X140937571Y-118784285D01*
X140985190Y-118879523D01*
X140985190Y-119260476D01*
X140461381Y-118403333D02*
X141461381Y-118070000D01*
X140461381Y-117736666D01*
X141461381Y-117355714D02*
X141461381Y-117165238D01*
X141413762Y-117069999D01*
X141366143Y-117022380D01*
X141223286Y-116927142D01*
X141032810Y-116879523D01*
X140651857Y-116879523D01*
X140556619Y-116927142D01*
X140509000Y-116974761D01*
X140461381Y-117069999D01*
X140461381Y-117260476D01*
X140509000Y-117355714D01*
X140556619Y-117403333D01*
X140651857Y-117450952D01*
X140889952Y-117450952D01*
X140985190Y-117403333D01*
X141032810Y-117355714D01*
X141080429Y-117260476D01*
X141080429Y-117069999D01*
X141032810Y-116974761D01*
X140985190Y-116927142D01*
X140889952Y-116879523D01*
X143953762Y-120101667D02*
X144001381Y-119958810D01*
X144001381Y-119720714D01*
X143953762Y-119625476D01*
X143906143Y-119577857D01*
X143810905Y-119530238D01*
X143715667Y-119530238D01*
X143620429Y-119577857D01*
X143572810Y-119625476D01*
X143525190Y-119720714D01*
X143477571Y-119911191D01*
X143429952Y-120006429D01*
X143382333Y-120054048D01*
X143287095Y-120101667D01*
X143191857Y-120101667D01*
X143096619Y-120054048D01*
X143049000Y-120006429D01*
X143001381Y-119911191D01*
X143001381Y-119673095D01*
X143049000Y-119530238D01*
X144001381Y-118530238D02*
X143525190Y-118863572D01*
X144001381Y-119101667D02*
X143001381Y-119101667D01*
X143001381Y-118720714D01*
X143049000Y-118625476D01*
X143096619Y-118577857D01*
X143191857Y-118530238D01*
X143334714Y-118530238D01*
X143429952Y-118577857D01*
X143477571Y-118625476D01*
X143525190Y-118720714D01*
X143525190Y-119101667D01*
X143001381Y-118244524D02*
X144001381Y-117911191D01*
X143001381Y-117577857D01*
X144001381Y-116720714D02*
X144001381Y-117292143D01*
X144001381Y-117006429D02*
X143001381Y-117006429D01*
X143144238Y-117101667D01*
X143239476Y-117196905D01*
X143287095Y-117292143D01*
X143001381Y-116101667D02*
X143001381Y-116006428D01*
X143049000Y-115911190D01*
X143096619Y-115863571D01*
X143191857Y-115815952D01*
X143382333Y-115768333D01*
X143620429Y-115768333D01*
X143810905Y-115815952D01*
X143906143Y-115863571D01*
X143953762Y-115911190D01*
X144001381Y-116006428D01*
X144001381Y-116101667D01*
X143953762Y-116196905D01*
X143906143Y-116244524D01*
X143810905Y-116292143D01*
X143620429Y-116339762D01*
X143382333Y-116339762D01*
X143191857Y-116292143D01*
X143096619Y-116244524D01*
X143049000Y-116196905D01*
X143001381Y-116101667D01*
X146493762Y-120101667D02*
X146541381Y-119958810D01*
X146541381Y-119720714D01*
X146493762Y-119625476D01*
X146446143Y-119577857D01*
X146350905Y-119530238D01*
X146255667Y-119530238D01*
X146160429Y-119577857D01*
X146112810Y-119625476D01*
X146065190Y-119720714D01*
X146017571Y-119911191D01*
X145969952Y-120006429D01*
X145922333Y-120054048D01*
X145827095Y-120101667D01*
X145731857Y-120101667D01*
X145636619Y-120054048D01*
X145589000Y-120006429D01*
X145541381Y-119911191D01*
X145541381Y-119673095D01*
X145589000Y-119530238D01*
X146541381Y-118530238D02*
X146065190Y-118863572D01*
X146541381Y-119101667D02*
X145541381Y-119101667D01*
X145541381Y-118720714D01*
X145589000Y-118625476D01*
X145636619Y-118577857D01*
X145731857Y-118530238D01*
X145874714Y-118530238D01*
X145969952Y-118577857D01*
X146017571Y-118625476D01*
X146065190Y-118720714D01*
X146065190Y-119101667D01*
X145541381Y-118244524D02*
X146541381Y-117911191D01*
X145541381Y-117577857D01*
X146541381Y-116720714D02*
X146541381Y-117292143D01*
X146541381Y-117006429D02*
X145541381Y-117006429D01*
X145684238Y-117101667D01*
X145779476Y-117196905D01*
X145827095Y-117292143D01*
X146541381Y-115768333D02*
X146541381Y-116339762D01*
X146541381Y-116054048D02*
X145541381Y-116054048D01*
X145684238Y-116149286D01*
X145779476Y-116244524D01*
X145827095Y-116339762D01*
X149033762Y-120101667D02*
X149081381Y-119958810D01*
X149081381Y-119720714D01*
X149033762Y-119625476D01*
X148986143Y-119577857D01*
X148890905Y-119530238D01*
X148795667Y-119530238D01*
X148700429Y-119577857D01*
X148652810Y-119625476D01*
X148605190Y-119720714D01*
X148557571Y-119911191D01*
X148509952Y-120006429D01*
X148462333Y-120054048D01*
X148367095Y-120101667D01*
X148271857Y-120101667D01*
X148176619Y-120054048D01*
X148129000Y-120006429D01*
X148081381Y-119911191D01*
X148081381Y-119673095D01*
X148129000Y-119530238D01*
X149081381Y-118530238D02*
X148605190Y-118863572D01*
X149081381Y-119101667D02*
X148081381Y-119101667D01*
X148081381Y-118720714D01*
X148129000Y-118625476D01*
X148176619Y-118577857D01*
X148271857Y-118530238D01*
X148414714Y-118530238D01*
X148509952Y-118577857D01*
X148557571Y-118625476D01*
X148605190Y-118720714D01*
X148605190Y-119101667D01*
X148081381Y-118244524D02*
X149081381Y-117911191D01*
X148081381Y-117577857D01*
X149081381Y-116720714D02*
X149081381Y-117292143D01*
X149081381Y-117006429D02*
X148081381Y-117006429D01*
X148224238Y-117101667D01*
X148319476Y-117196905D01*
X148367095Y-117292143D01*
X148176619Y-116339762D02*
X148129000Y-116292143D01*
X148081381Y-116196905D01*
X148081381Y-115958809D01*
X148129000Y-115863571D01*
X148176619Y-115815952D01*
X148271857Y-115768333D01*
X148367095Y-115768333D01*
X148509952Y-115815952D01*
X149081381Y-116387381D01*
X149081381Y-115768333D01*
X151573762Y-120101667D02*
X151621381Y-119958810D01*
X151621381Y-119720714D01*
X151573762Y-119625476D01*
X151526143Y-119577857D01*
X151430905Y-119530238D01*
X151335667Y-119530238D01*
X151240429Y-119577857D01*
X151192810Y-119625476D01*
X151145190Y-119720714D01*
X151097571Y-119911191D01*
X151049952Y-120006429D01*
X151002333Y-120054048D01*
X150907095Y-120101667D01*
X150811857Y-120101667D01*
X150716619Y-120054048D01*
X150669000Y-120006429D01*
X150621381Y-119911191D01*
X150621381Y-119673095D01*
X150669000Y-119530238D01*
X151621381Y-118530238D02*
X151145190Y-118863572D01*
X151621381Y-119101667D02*
X150621381Y-119101667D01*
X150621381Y-118720714D01*
X150669000Y-118625476D01*
X150716619Y-118577857D01*
X150811857Y-118530238D01*
X150954714Y-118530238D01*
X151049952Y-118577857D01*
X151097571Y-118625476D01*
X151145190Y-118720714D01*
X151145190Y-119101667D01*
X150621381Y-118244524D02*
X151621381Y-117911191D01*
X150621381Y-117577857D01*
X151621381Y-116720714D02*
X151621381Y-117292143D01*
X151621381Y-117006429D02*
X150621381Y-117006429D01*
X150764238Y-117101667D01*
X150859476Y-117196905D01*
X150907095Y-117292143D01*
X150621381Y-116387381D02*
X150621381Y-115768333D01*
X151002333Y-116101667D01*
X151002333Y-115958809D01*
X151049952Y-115863571D01*
X151097571Y-115815952D01*
X151192810Y-115768333D01*
X151430905Y-115768333D01*
X151526143Y-115815952D01*
X151573762Y-115863571D01*
X151621381Y-115958809D01*
X151621381Y-116244524D01*
X151573762Y-116339762D01*
X151526143Y-116387381D01*
X154113762Y-120101667D02*
X154161381Y-119958810D01*
X154161381Y-119720714D01*
X154113762Y-119625476D01*
X154066143Y-119577857D01*
X153970905Y-119530238D01*
X153875667Y-119530238D01*
X153780429Y-119577857D01*
X153732810Y-119625476D01*
X153685190Y-119720714D01*
X153637571Y-119911191D01*
X153589952Y-120006429D01*
X153542333Y-120054048D01*
X153447095Y-120101667D01*
X153351857Y-120101667D01*
X153256619Y-120054048D01*
X153209000Y-120006429D01*
X153161381Y-119911191D01*
X153161381Y-119673095D01*
X153209000Y-119530238D01*
X154161381Y-118530238D02*
X153685190Y-118863572D01*
X154161381Y-119101667D02*
X153161381Y-119101667D01*
X153161381Y-118720714D01*
X153209000Y-118625476D01*
X153256619Y-118577857D01*
X153351857Y-118530238D01*
X153494714Y-118530238D01*
X153589952Y-118577857D01*
X153637571Y-118625476D01*
X153685190Y-118720714D01*
X153685190Y-119101667D01*
X153161381Y-118244524D02*
X154161381Y-117911191D01*
X153161381Y-117577857D01*
X154161381Y-116720714D02*
X154161381Y-117292143D01*
X154161381Y-117006429D02*
X153161381Y-117006429D01*
X153304238Y-117101667D01*
X153399476Y-117196905D01*
X153447095Y-117292143D01*
X153494714Y-115863571D02*
X154161381Y-115863571D01*
X153113762Y-116101667D02*
X153828048Y-116339762D01*
X153828048Y-115720714D01*
X156653762Y-120101667D02*
X156701381Y-119958810D01*
X156701381Y-119720714D01*
X156653762Y-119625476D01*
X156606143Y-119577857D01*
X156510905Y-119530238D01*
X156415667Y-119530238D01*
X156320429Y-119577857D01*
X156272810Y-119625476D01*
X156225190Y-119720714D01*
X156177571Y-119911191D01*
X156129952Y-120006429D01*
X156082333Y-120054048D01*
X155987095Y-120101667D01*
X155891857Y-120101667D01*
X155796619Y-120054048D01*
X155749000Y-120006429D01*
X155701381Y-119911191D01*
X155701381Y-119673095D01*
X155749000Y-119530238D01*
X156701381Y-118530238D02*
X156225190Y-118863572D01*
X156701381Y-119101667D02*
X155701381Y-119101667D01*
X155701381Y-118720714D01*
X155749000Y-118625476D01*
X155796619Y-118577857D01*
X155891857Y-118530238D01*
X156034714Y-118530238D01*
X156129952Y-118577857D01*
X156177571Y-118625476D01*
X156225190Y-118720714D01*
X156225190Y-119101667D01*
X155701381Y-118244524D02*
X156701381Y-117911191D01*
X155701381Y-117577857D01*
X156701381Y-116720714D02*
X156701381Y-117292143D01*
X156701381Y-117006429D02*
X155701381Y-117006429D01*
X155844238Y-117101667D01*
X155939476Y-117196905D01*
X155987095Y-117292143D01*
X155701381Y-115815952D02*
X155701381Y-116292143D01*
X156177571Y-116339762D01*
X156129952Y-116292143D01*
X156082333Y-116196905D01*
X156082333Y-115958809D01*
X156129952Y-115863571D01*
X156177571Y-115815952D01*
X156272810Y-115768333D01*
X156510905Y-115768333D01*
X156606143Y-115815952D01*
X156653762Y-115863571D01*
X156701381Y-115958809D01*
X156701381Y-116196905D01*
X156653762Y-116292143D01*
X156606143Y-116339762D01*
X159193762Y-120101667D02*
X159241381Y-119958810D01*
X159241381Y-119720714D01*
X159193762Y-119625476D01*
X159146143Y-119577857D01*
X159050905Y-119530238D01*
X158955667Y-119530238D01*
X158860429Y-119577857D01*
X158812810Y-119625476D01*
X158765190Y-119720714D01*
X158717571Y-119911191D01*
X158669952Y-120006429D01*
X158622333Y-120054048D01*
X158527095Y-120101667D01*
X158431857Y-120101667D01*
X158336619Y-120054048D01*
X158289000Y-120006429D01*
X158241381Y-119911191D01*
X158241381Y-119673095D01*
X158289000Y-119530238D01*
X159241381Y-118530238D02*
X158765190Y-118863572D01*
X159241381Y-119101667D02*
X158241381Y-119101667D01*
X158241381Y-118720714D01*
X158289000Y-118625476D01*
X158336619Y-118577857D01*
X158431857Y-118530238D01*
X158574714Y-118530238D01*
X158669952Y-118577857D01*
X158717571Y-118625476D01*
X158765190Y-118720714D01*
X158765190Y-119101667D01*
X158241381Y-118244524D02*
X159241381Y-117911191D01*
X158241381Y-117577857D01*
X159241381Y-116720714D02*
X159241381Y-117292143D01*
X159241381Y-117006429D02*
X158241381Y-117006429D01*
X158384238Y-117101667D01*
X158479476Y-117196905D01*
X158527095Y-117292143D01*
X158241381Y-115863571D02*
X158241381Y-116054048D01*
X158289000Y-116149286D01*
X158336619Y-116196905D01*
X158479476Y-116292143D01*
X158669952Y-116339762D01*
X159050905Y-116339762D01*
X159146143Y-116292143D01*
X159193762Y-116244524D01*
X159241381Y-116149286D01*
X159241381Y-115958809D01*
X159193762Y-115863571D01*
X159146143Y-115815952D01*
X159050905Y-115768333D01*
X158812810Y-115768333D01*
X158717571Y-115815952D01*
X158669952Y-115863571D01*
X158622333Y-115958809D01*
X158622333Y-116149286D01*
X158669952Y-116244524D01*
X158717571Y-116292143D01*
X158812810Y-116339762D01*
X164916381Y-94693905D02*
X165725905Y-94693905D01*
X165821143Y-94646286D01*
X165868762Y-94598667D01*
X165916381Y-94503429D01*
X165916381Y-94312952D01*
X165868762Y-94217714D01*
X165821143Y-94170095D01*
X165725905Y-94122476D01*
X164916381Y-94122476D01*
X165916381Y-93122476D02*
X165916381Y-93693905D01*
X165916381Y-93408191D02*
X164916381Y-93408191D01*
X165059238Y-93503429D01*
X165154476Y-93598667D01*
X165202095Y-93693905D01*
X176810381Y-120514666D02*
X176334190Y-120848000D01*
X176810381Y-121086095D02*
X175810381Y-121086095D01*
X175810381Y-120705142D01*
X175858000Y-120609904D01*
X175905619Y-120562285D01*
X176000857Y-120514666D01*
X176143714Y-120514666D01*
X176238952Y-120562285D01*
X176286571Y-120609904D01*
X176334190Y-120705142D01*
X176334190Y-121086095D01*
X176143714Y-119657523D02*
X176810381Y-119657523D01*
X175762762Y-119895619D02*
X176477048Y-120133714D01*
X176477048Y-119514666D01*
X171730381Y-120514666D02*
X171254190Y-120848000D01*
X171730381Y-121086095D02*
X170730381Y-121086095D01*
X170730381Y-120705142D01*
X170778000Y-120609904D01*
X170825619Y-120562285D01*
X170920857Y-120514666D01*
X171063714Y-120514666D01*
X171158952Y-120562285D01*
X171206571Y-120609904D01*
X171254190Y-120705142D01*
X171254190Y-121086095D01*
X170730381Y-119609904D02*
X170730381Y-120086095D01*
X171206571Y-120133714D01*
X171158952Y-120086095D01*
X171111333Y-119990857D01*
X171111333Y-119752761D01*
X171158952Y-119657523D01*
X171206571Y-119609904D01*
X171301810Y-119562285D01*
X171539905Y-119562285D01*
X171635143Y-119609904D01*
X171682762Y-119657523D01*
X171730381Y-119752761D01*
X171730381Y-119990857D01*
X171682762Y-120086095D01*
X171635143Y-120133714D01*
X133698667Y-119292381D02*
X133698667Y-120006667D01*
X133651047Y-120149524D01*
X133555809Y-120244762D01*
X133412952Y-120292381D01*
X133317714Y-120292381D01*
X134508191Y-119768571D02*
X134651048Y-119816190D01*
X134698667Y-119863810D01*
X134746286Y-119959048D01*
X134746286Y-120101905D01*
X134698667Y-120197143D01*
X134651048Y-120244762D01*
X134555810Y-120292381D01*
X134174857Y-120292381D01*
X134174857Y-119292381D01*
X134508191Y-119292381D01*
X134603429Y-119340000D01*
X134651048Y-119387619D01*
X134698667Y-119482857D01*
X134698667Y-119578095D01*
X134651048Y-119673333D01*
X134603429Y-119720952D01*
X134508191Y-119768571D01*
X134174857Y-119768571D01*
X135127238Y-119387619D02*
X135174857Y-119340000D01*
X135270095Y-119292381D01*
X135508191Y-119292381D01*
X135603429Y-119340000D01*
X135651048Y-119387619D01*
X135698667Y-119482857D01*
X135698667Y-119578095D01*
X135651048Y-119720952D01*
X135079619Y-120292381D01*
X135698667Y-120292381D01*
X164178667Y-119292381D02*
X164178667Y-120006667D01*
X164131047Y-120149524D01*
X164035809Y-120244762D01*
X163892952Y-120292381D01*
X163797714Y-120292381D01*
X164988191Y-119768571D02*
X165131048Y-119816190D01*
X165178667Y-119863810D01*
X165226286Y-119959048D01*
X165226286Y-120101905D01*
X165178667Y-120197143D01*
X165131048Y-120244762D01*
X165035810Y-120292381D01*
X164654857Y-120292381D01*
X164654857Y-119292381D01*
X164988191Y-119292381D01*
X165083429Y-119340000D01*
X165131048Y-119387619D01*
X165178667Y-119482857D01*
X165178667Y-119578095D01*
X165131048Y-119673333D01*
X165083429Y-119720952D01*
X164988191Y-119768571D01*
X164654857Y-119768571D01*
X166083429Y-119625714D02*
X166083429Y-120292381D01*
X165845333Y-119244762D02*
X165607238Y-119959048D01*
X166226286Y-119959048D01*
X168925143Y-81906666D02*
X168972762Y-81954285D01*
X169020381Y-82097142D01*
X169020381Y-82192380D01*
X168972762Y-82335238D01*
X168877524Y-82430476D01*
X168782286Y-82478095D01*
X168591810Y-82525714D01*
X168448952Y-82525714D01*
X168258476Y-82478095D01*
X168163238Y-82430476D01*
X168068000Y-82335238D01*
X168020381Y-82192380D01*
X168020381Y-82097142D01*
X168068000Y-81954285D01*
X168115619Y-81906666D01*
X169020381Y-80954285D02*
X169020381Y-81525714D01*
X169020381Y-81240000D02*
X168020381Y-81240000D01*
X168163238Y-81335238D01*
X168258476Y-81430476D01*
X168306095Y-81525714D01*
X169687143Y-106290666D02*
X169734762Y-106338285D01*
X169782381Y-106481142D01*
X169782381Y-106576380D01*
X169734762Y-106719238D01*
X169639524Y-106814476D01*
X169544286Y-106862095D01*
X169353810Y-106909714D01*
X169210952Y-106909714D01*
X169020476Y-106862095D01*
X168925238Y-106814476D01*
X168830000Y-106719238D01*
X168782381Y-106576380D01*
X168782381Y-106481142D01*
X168830000Y-106338285D01*
X168877619Y-106290666D01*
X168782381Y-105433523D02*
X168782381Y-105624000D01*
X168830000Y-105719238D01*
X168877619Y-105766857D01*
X169020476Y-105862095D01*
X169210952Y-105909714D01*
X169591905Y-105909714D01*
X169687143Y-105862095D01*
X169734762Y-105814476D01*
X169782381Y-105719238D01*
X169782381Y-105528761D01*
X169734762Y-105433523D01*
X169687143Y-105385904D01*
X169591905Y-105338285D01*
X169353810Y-105338285D01*
X169258571Y-105385904D01*
X169210952Y-105433523D01*
X169163333Y-105528761D01*
X169163333Y-105719238D01*
X169210952Y-105814476D01*
X169258571Y-105862095D01*
X169353810Y-105909714D01*
X154796381Y-109973666D02*
X154796381Y-110449857D01*
X153796381Y-110449857D01*
X154796381Y-109116523D02*
X154796381Y-109687952D01*
X154796381Y-109402238D02*
X153796381Y-109402238D01*
X153939238Y-109497476D01*
X154034476Y-109592714D01*
X154082095Y-109687952D01*
X172968095Y-110852381D02*
X172968095Y-111661905D01*
X173015714Y-111757143D01*
X173063333Y-111804762D01*
X173158571Y-111852381D01*
X173349048Y-111852381D01*
X173444286Y-111804762D01*
X173491905Y-111757143D01*
X173539524Y-111661905D01*
X173539524Y-110852381D01*
X173968095Y-110947619D02*
X174015714Y-110900000D01*
X174110952Y-110852381D01*
X174349048Y-110852381D01*
X174444286Y-110900000D01*
X174491905Y-110947619D01*
X174539524Y-111042857D01*
X174539524Y-111138095D01*
X174491905Y-111280952D01*
X173920476Y-111852381D01*
X174539524Y-111852381D01*
X164345334Y-114797143D02*
X164297715Y-114844762D01*
X164154858Y-114892381D01*
X164059620Y-114892381D01*
X163916762Y-114844762D01*
X163821524Y-114749524D01*
X163773905Y-114654286D01*
X163726286Y-114463810D01*
X163726286Y-114320952D01*
X163773905Y-114130476D01*
X163821524Y-114035238D01*
X163916762Y-113940000D01*
X164059620Y-113892381D01*
X164154858Y-113892381D01*
X164297715Y-113940000D01*
X164345334Y-113987619D01*
X164726286Y-113987619D02*
X164773905Y-113940000D01*
X164869143Y-113892381D01*
X165107239Y-113892381D01*
X165202477Y-113940000D01*
X165250096Y-113987619D01*
X165297715Y-114082857D01*
X165297715Y-114178095D01*
X165250096Y-114320952D01*
X164678667Y-114892381D01*
X165297715Y-114892381D01*
X125478095Y-101592381D02*
X125478095Y-102401905D01*
X125525714Y-102497143D01*
X125573333Y-102544762D01*
X125668571Y-102592381D01*
X125859048Y-102592381D01*
X125954286Y-102544762D01*
X126001905Y-102497143D01*
X126049524Y-102401905D01*
X126049524Y-101592381D01*
X126954286Y-101925714D02*
X126954286Y-102592381D01*
X126716190Y-101544762D02*
X126478095Y-102259048D01*
X127097143Y-102259048D01*
X125308095Y-88646381D02*
X125308095Y-89455905D01*
X125355714Y-89551143D01*
X125403333Y-89598762D01*
X125498571Y-89646381D01*
X125689048Y-89646381D01*
X125784286Y-89598762D01*
X125831905Y-89551143D01*
X125879524Y-89455905D01*
X125879524Y-88646381D01*
X126831905Y-88646381D02*
X126355714Y-88646381D01*
X126308095Y-89122571D01*
X126355714Y-89074952D01*
X126450952Y-89027333D01*
X126689048Y-89027333D01*
X126784286Y-89074952D01*
X126831905Y-89122571D01*
X126879524Y-89217810D01*
X126879524Y-89455905D01*
X126831905Y-89551143D01*
X126784286Y-89598762D01*
X126689048Y-89646381D01*
X126450952Y-89646381D01*
X126355714Y-89598762D01*
X126308095Y-89551143D01*
X148127143Y-106277143D02*
X148079524Y-106324762D01*
X147936667Y-106372381D01*
X147841429Y-106372381D01*
X147698571Y-106324762D01*
X147603333Y-106229524D01*
X147555714Y-106134286D01*
X147508095Y-105943810D01*
X147508095Y-105800952D01*
X147555714Y-105610476D01*
X147603333Y-105515238D01*
X147698571Y-105420000D01*
X147841429Y-105372381D01*
X147936667Y-105372381D01*
X148079524Y-105420000D01*
X148127143Y-105467619D01*
X149079524Y-106372381D02*
X148508095Y-106372381D01*
X148793809Y-106372381D02*
X148793809Y-105372381D01*
X148698571Y-105515238D01*
X148603333Y-105610476D01*
X148508095Y-105658095D01*
X149412857Y-105372381D02*
X150031905Y-105372381D01*
X149698571Y-105753333D01*
X149841429Y-105753333D01*
X149936667Y-105800952D01*
X149984286Y-105848571D01*
X150031905Y-105943810D01*
X150031905Y-106181905D01*
X149984286Y-106277143D01*
X149936667Y-106324762D01*
X149841429Y-106372381D01*
X149555714Y-106372381D01*
X149460476Y-106324762D01*
X149412857Y-106277143D01*
X133728095Y-105482381D02*
X133728095Y-106291905D01*
X133775714Y-106387143D01*
X133823333Y-106434762D01*
X133918571Y-106482381D01*
X134109048Y-106482381D01*
X134204286Y-106434762D01*
X134251905Y-106387143D01*
X134299524Y-106291905D01*
X134299524Y-105482381D01*
X134680476Y-105482381D02*
X135299524Y-105482381D01*
X134966190Y-105863333D01*
X135109048Y-105863333D01*
X135204286Y-105910952D01*
X135251905Y-105958571D01*
X135299524Y-106053810D01*
X135299524Y-106291905D01*
X135251905Y-106387143D01*
X135204286Y-106434762D01*
X135109048Y-106482381D01*
X134823333Y-106482381D01*
X134728095Y-106434762D01*
X134680476Y-106387143D01*
X173394095Y-101124381D02*
X173394095Y-101933905D01*
X173441714Y-102029143D01*
X173489333Y-102076762D01*
X173584571Y-102124381D01*
X173775048Y-102124381D01*
X173870286Y-102076762D01*
X173917905Y-102029143D01*
X173965524Y-101933905D01*
X173965524Y-101124381D01*
X174346476Y-101124381D02*
X175013143Y-101124381D01*
X174584571Y-102124381D01*
X110278095Y-83292381D02*
X110278095Y-82292381D01*
X110278095Y-82768571D02*
X110849524Y-82768571D01*
X110849524Y-83292381D02*
X110849524Y-82292381D01*
X111325714Y-83292381D02*
X111325714Y-82292381D01*
X111563809Y-82292381D01*
X111706667Y-82340000D01*
X111801905Y-82435238D01*
X111849524Y-82530476D01*
X111897143Y-82720952D01*
X111897143Y-82863810D01*
X111849524Y-83054286D01*
X111801905Y-83149524D01*
X111706667Y-83244762D01*
X111563809Y-83292381D01*
X111325714Y-83292381D01*
X112897143Y-83292381D02*
X112563809Y-82816190D01*
X112325714Y-83292381D02*
X112325714Y-82292381D01*
X112706667Y-82292381D01*
X112801905Y-82340000D01*
X112849524Y-82387619D01*
X112897143Y-82482857D01*
X112897143Y-82625714D01*
X112849524Y-82720952D01*
X112801905Y-82768571D01*
X112706667Y-82816190D01*
X112325714Y-82816190D01*
X113278095Y-82387619D02*
X113325714Y-82340000D01*
X113420952Y-82292381D01*
X113659048Y-82292381D01*
X113754286Y-82340000D01*
X113801905Y-82387619D01*
X113849524Y-82482857D01*
X113849524Y-82578095D01*
X113801905Y-82720952D01*
X113230476Y-83292381D01*
X113849524Y-83292381D01*
X125238095Y-93402381D02*
X125238095Y-94211905D01*
X125285714Y-94307143D01*
X125333333Y-94354762D01*
X125428571Y-94402381D01*
X125619048Y-94402381D01*
X125714286Y-94354762D01*
X125761905Y-94307143D01*
X125809524Y-94211905D01*
X125809524Y-93402381D01*
X126428571Y-93830952D02*
X126333333Y-93783333D01*
X126285714Y-93735714D01*
X126238095Y-93640476D01*
X126238095Y-93592857D01*
X126285714Y-93497619D01*
X126333333Y-93450000D01*
X126428571Y-93402381D01*
X126619048Y-93402381D01*
X126714286Y-93450000D01*
X126761905Y-93497619D01*
X126809524Y-93592857D01*
X126809524Y-93640476D01*
X126761905Y-93735714D01*
X126714286Y-93783333D01*
X126619048Y-93830952D01*
X126428571Y-93830952D01*
X126333333Y-93878571D01*
X126285714Y-93926190D01*
X126238095Y-94021429D01*
X126238095Y-94211905D01*
X126285714Y-94307143D01*
X126333333Y-94354762D01*
X126428571Y-94402381D01*
X126619048Y-94402381D01*
X126714286Y-94354762D01*
X126761905Y-94307143D01*
X126809524Y-94211905D01*
X126809524Y-94021429D01*
X126761905Y-93926190D01*
X126714286Y-93878571D01*
X126619048Y-93830952D01*
X142168095Y-99262381D02*
X142168095Y-100071905D01*
X142215714Y-100167143D01*
X142263333Y-100214762D01*
X142358571Y-100262381D01*
X142549048Y-100262381D01*
X142644286Y-100214762D01*
X142691905Y-100167143D01*
X142739524Y-100071905D01*
X142739524Y-99262381D01*
X143644286Y-99262381D02*
X143453809Y-99262381D01*
X143358571Y-99310000D01*
X143310952Y-99357619D01*
X143215714Y-99500476D01*
X143168095Y-99690952D01*
X143168095Y-100071905D01*
X143215714Y-100167143D01*
X143263333Y-100214762D01*
X143358571Y-100262381D01*
X143549048Y-100262381D01*
X143644286Y-100214762D01*
X143691905Y-100167143D01*
X143739524Y-100071905D01*
X143739524Y-99833810D01*
X143691905Y-99738571D01*
X143644286Y-99690952D01*
X143549048Y-99643333D01*
X143358571Y-99643333D01*
X143263333Y-99690952D01*
X143215714Y-99738571D01*
X143168095Y-99833810D01*
X176513524Y-87177143D02*
X176465905Y-87224762D01*
X176323048Y-87272381D01*
X176227810Y-87272381D01*
X176084952Y-87224762D01*
X175989714Y-87129524D01*
X175942095Y-87034286D01*
X175894476Y-86843810D01*
X175894476Y-86700952D01*
X175942095Y-86510476D01*
X175989714Y-86415238D01*
X176084952Y-86320000D01*
X176227810Y-86272381D01*
X176323048Y-86272381D01*
X176465905Y-86320000D01*
X176513524Y-86367619D01*
X176942095Y-87272381D02*
X176942095Y-86272381D01*
X177513524Y-87272381D01*
X177513524Y-86272381D01*
X178513524Y-87272381D02*
X177942095Y-87272381D01*
X178227809Y-87272381D02*
X178227809Y-86272381D01*
X178132571Y-86415238D01*
X178037333Y-86510476D01*
X177942095Y-86558095D01*
X176573143Y-109762381D02*
X176239809Y-109286190D01*
X176001714Y-109762381D02*
X176001714Y-108762381D01*
X176382667Y-108762381D01*
X176477905Y-108810000D01*
X176525524Y-108857619D01*
X176573143Y-108952857D01*
X176573143Y-109095714D01*
X176525524Y-109190952D01*
X176477905Y-109238571D01*
X176382667Y-109286190D01*
X176001714Y-109286190D01*
X176906476Y-108762381D02*
X177525524Y-108762381D01*
X177192190Y-109143333D01*
X177335048Y-109143333D01*
X177430286Y-109190952D01*
X177477905Y-109238571D01*
X177525524Y-109333810D01*
X177525524Y-109571905D01*
X177477905Y-109667143D01*
X177430286Y-109714762D01*
X177335048Y-109762381D01*
X177049333Y-109762381D01*
X176954095Y-109714762D01*
X176906476Y-109667143D01*
X177858857Y-108762381D02*
X178525524Y-108762381D01*
X178096952Y-109762381D01*
X181788095Y-116122381D02*
X181788095Y-116931905D01*
X181835714Y-117027143D01*
X181883333Y-117074762D01*
X181978571Y-117122381D01*
X182169048Y-117122381D01*
X182264286Y-117074762D01*
X182311905Y-117027143D01*
X182359524Y-116931905D01*
X182359524Y-116122381D01*
X182883333Y-117122381D02*
X183073809Y-117122381D01*
X183169048Y-117074762D01*
X183216667Y-117027143D01*
X183311905Y-116884286D01*
X183359524Y-116693810D01*
X183359524Y-116312857D01*
X183311905Y-116217619D01*
X183264286Y-116170000D01*
X183169048Y-116122381D01*
X182978571Y-116122381D01*
X182883333Y-116170000D01*
X182835714Y-116217619D01*
X182788095Y-116312857D01*
X182788095Y-116550952D01*
X182835714Y-116646190D01*
X182883333Y-116693810D01*
X182978571Y-116741429D01*
X183169048Y-116741429D01*
X183264286Y-116693810D01*
X183311905Y-116646190D01*
X183359524Y-116550952D01*
X185192381Y-90686667D02*
X184192381Y-90686667D01*
X184192381Y-90305714D01*
X184240000Y-90210476D01*
X184287619Y-90162857D01*
X184382857Y-90115238D01*
X184525714Y-90115238D01*
X184620952Y-90162857D01*
X184668571Y-90210476D01*
X184716190Y-90305714D01*
X184716190Y-90686667D01*
X184668571Y-89353333D02*
X184668571Y-89686667D01*
X185192381Y-89686667D02*
X184192381Y-89686667D01*
X184192381Y-89210476D01*
X185192381Y-88305714D02*
X185192381Y-88877143D01*
X185192381Y-88591429D02*
X184192381Y-88591429D01*
X184335238Y-88686667D01*
X184430476Y-88781905D01*
X184478095Y-88877143D01*
X115552381Y-81761905D02*
X114552381Y-81761905D01*
X115028571Y-81761905D02*
X115028571Y-81190476D01*
X115552381Y-81190476D02*
X114552381Y-81190476D01*
X115552381Y-80714286D02*
X114552381Y-80714286D01*
X114552381Y-80476191D01*
X114600000Y-80333333D01*
X114695238Y-80238095D01*
X114790476Y-80190476D01*
X114980952Y-80142857D01*
X115123810Y-80142857D01*
X115314286Y-80190476D01*
X115409524Y-80238095D01*
X115504762Y-80333333D01*
X115552381Y-80476191D01*
X115552381Y-80714286D01*
X115552381Y-79142857D02*
X115076190Y-79476191D01*
X115552381Y-79714286D02*
X114552381Y-79714286D01*
X114552381Y-79333333D01*
X114600000Y-79238095D01*
X114647619Y-79190476D01*
X114742857Y-79142857D01*
X114885714Y-79142857D01*
X114980952Y-79190476D01*
X115028571Y-79238095D01*
X115076190Y-79333333D01*
X115076190Y-79714286D01*
X115552381Y-78190476D02*
X115552381Y-78761905D01*
X115552381Y-78476191D02*
X114552381Y-78476191D01*
X114695238Y-78571429D01*
X114790476Y-78666667D01*
X114838095Y-78761905D01*
X125423333Y-85352381D02*
X125423333Y-84352381D01*
X125804286Y-84352381D01*
X125899524Y-84400000D01*
X125947143Y-84447619D01*
X125994762Y-84542857D01*
X125994762Y-84685714D01*
X125947143Y-84780952D01*
X125899524Y-84828571D01*
X125804286Y-84876190D01*
X125423333Y-84876190D01*
X126756667Y-84828571D02*
X126423333Y-84828571D01*
X126423333Y-85352381D02*
X126423333Y-84352381D01*
X126899524Y-84352381D01*
X127232857Y-84447619D02*
X127280476Y-84400000D01*
X127375714Y-84352381D01*
X127613810Y-84352381D01*
X127709048Y-84400000D01*
X127756667Y-84447619D01*
X127804286Y-84542857D01*
X127804286Y-84638095D01*
X127756667Y-84780952D01*
X127185238Y-85352381D01*
X127804286Y-85352381D01*
X146001905Y-99612381D02*
X146001905Y-100421905D01*
X146049524Y-100517143D01*
X146097143Y-100564762D01*
X146192381Y-100612381D01*
X146382858Y-100612381D01*
X146478096Y-100564762D01*
X146525715Y-100517143D01*
X146573334Y-100421905D01*
X146573334Y-99612381D01*
X147573334Y-100612381D02*
X147001905Y-100612381D01*
X147287619Y-100612381D02*
X147287619Y-99612381D01*
X147192381Y-99755238D01*
X147097143Y-99850476D01*
X147001905Y-99898095D01*
X148192381Y-99612381D02*
X148287620Y-99612381D01*
X148382858Y-99660000D01*
X148430477Y-99707619D01*
X148478096Y-99802857D01*
X148525715Y-99993333D01*
X148525715Y-100231429D01*
X148478096Y-100421905D01*
X148430477Y-100517143D01*
X148382858Y-100564762D01*
X148287620Y-100612381D01*
X148192381Y-100612381D01*
X148097143Y-100564762D01*
X148049524Y-100517143D01*
X148001905Y-100421905D01*
X147954286Y-100231429D01*
X147954286Y-99993333D01*
X148001905Y-99802857D01*
X148049524Y-99707619D01*
X148097143Y-99660000D01*
X148192381Y-99612381D01*
X178202381Y-92438095D02*
X177202381Y-92438095D01*
X177202381Y-92200000D01*
X177250000Y-92057142D01*
X177345238Y-91961904D01*
X177440476Y-91914285D01*
X177630952Y-91866666D01*
X177773810Y-91866666D01*
X177964286Y-91914285D01*
X178059524Y-91961904D01*
X178154762Y-92057142D01*
X178202381Y-92200000D01*
X178202381Y-92438095D01*
X178202381Y-90914285D02*
X178202381Y-91485714D01*
X178202381Y-91200000D02*
X177202381Y-91200000D01*
X177345238Y-91295238D01*
X177440476Y-91390476D01*
X177488095Y-91485714D01*
X159088381Y-91022095D02*
X158088381Y-91022095D01*
X158088381Y-90784000D01*
X158136000Y-90641142D01*
X158231238Y-90545904D01*
X158326476Y-90498285D01*
X158516952Y-90450666D01*
X158659810Y-90450666D01*
X158850286Y-90498285D01*
X158945524Y-90545904D01*
X159040762Y-90641142D01*
X159088381Y-90784000D01*
X159088381Y-91022095D01*
X158183619Y-90069714D02*
X158136000Y-90022095D01*
X158088381Y-89926857D01*
X158088381Y-89688761D01*
X158136000Y-89593523D01*
X158183619Y-89545904D01*
X158278857Y-89498285D01*
X158374095Y-89498285D01*
X158516952Y-89545904D01*
X159088381Y-90117333D01*
X159088381Y-89498285D01*
X168598571Y-117653333D02*
X168598571Y-117986667D01*
X169122381Y-117986667D02*
X168122381Y-117986667D01*
X168122381Y-117510476D01*
X168598571Y-116796190D02*
X168646190Y-116653333D01*
X168693810Y-116605714D01*
X168789048Y-116558095D01*
X168931905Y-116558095D01*
X169027143Y-116605714D01*
X169074762Y-116653333D01*
X169122381Y-116748571D01*
X169122381Y-117129524D01*
X168122381Y-117129524D01*
X168122381Y-116796190D01*
X168170000Y-116700952D01*
X168217619Y-116653333D01*
X168312857Y-116605714D01*
X168408095Y-116605714D01*
X168503333Y-116653333D01*
X168550952Y-116700952D01*
X168598571Y-116796190D01*
X168598571Y-117129524D01*
X169122381Y-115605714D02*
X169122381Y-116177143D01*
X169122381Y-115891429D02*
X168122381Y-115891429D01*
X168265238Y-115986667D01*
X168360476Y-116081905D01*
X168408095Y-116177143D01*
X181733333Y-114062381D02*
X181733333Y-113062381D01*
X182114286Y-113062381D01*
X182209524Y-113110000D01*
X182257143Y-113157619D01*
X182304762Y-113252857D01*
X182304762Y-113395714D01*
X182257143Y-113490952D01*
X182209524Y-113538571D01*
X182114286Y-113586190D01*
X181733333Y-113586190D01*
X183066667Y-113538571D02*
X182733333Y-113538571D01*
X182733333Y-114062381D02*
X182733333Y-113062381D01*
X183209524Y-113062381D01*
X183495238Y-113062381D02*
X184114286Y-113062381D01*
X183780952Y-113443333D01*
X183923810Y-113443333D01*
X184019048Y-113490952D01*
X184066667Y-113538571D01*
X184114286Y-113633810D01*
X184114286Y-113871905D01*
X184066667Y-113967143D01*
X184019048Y-114014762D01*
X183923810Y-114062381D01*
X183638095Y-114062381D01*
X183542857Y-114014762D01*
X183495238Y-113967143D01*
M02*
