G04 #@! TF.FileFunction,Copper,L2,Inr,Mixed*
%FSLAX46Y46*%
G04 Gerber Fmt 4.6, Leading zero omitted, Abs format (unit mm)*
G04 Created by KiCad (PCBNEW (2015-11-11 BZR 6310)-product) date Sun 20 Dec 2015 11:13:31 PM CST*
%MOMM*%
G01*
G04 APERTURE LIST*
%ADD10C,0.100000*%
%ADD11C,3.000000*%
%ADD12R,1.727200X2.032000*%
%ADD13O,1.727200X2.032000*%
%ADD14O,1.250000X0.950000*%
%ADD15O,1.000000X1.550000*%
%ADD16R,2.032000X1.727200*%
%ADD17O,2.032000X1.727200*%
%ADD18C,2.500000*%
%ADD19R,2.500000X2.500000*%
%ADD20R,1.200000X1.200000*%
%ADD21C,1.200000*%
%ADD22C,0.508000*%
%ADD23C,0.254000*%
G04 APERTURE END LIST*
D10*
D11*
X188100000Y-111500000D03*
X111100000Y-111500000D03*
X188100000Y-80000000D03*
X111100000Y-80000000D03*
D12*
X183300000Y-99520000D03*
D13*
X185840000Y-99520000D03*
X188380000Y-99520000D03*
D12*
X183300000Y-102060000D03*
D13*
X185840000Y-102060000D03*
X188380000Y-102060000D03*
D12*
X183300000Y-104600000D03*
D13*
X185840000Y-104600000D03*
X188380000Y-104600000D03*
D12*
X183300000Y-107140000D03*
D13*
X185840000Y-107140000D03*
X188380000Y-107140000D03*
D12*
X115736000Y-89614000D03*
D13*
X113196000Y-89614000D03*
X110656000Y-89614000D03*
D12*
X115736000Y-92154000D03*
D13*
X113196000Y-92154000D03*
X110656000Y-92154000D03*
D12*
X115736000Y-94694000D03*
D13*
X113196000Y-94694000D03*
X110656000Y-94694000D03*
D12*
X115736000Y-97234000D03*
D13*
X113196000Y-97234000D03*
X110656000Y-97234000D03*
D12*
X115736000Y-99774000D03*
D13*
X113196000Y-99774000D03*
X110656000Y-99774000D03*
D12*
X115736000Y-102314000D03*
D13*
X113196000Y-102314000D03*
X110656000Y-102314000D03*
D12*
X115736000Y-104854000D03*
D13*
X113196000Y-104854000D03*
X110656000Y-104854000D03*
D12*
X115736000Y-107394000D03*
D13*
X113196000Y-107394000D03*
X110656000Y-107394000D03*
D14*
X171655100Y-124373460D03*
X176655100Y-124373460D03*
D15*
X170655100Y-127073460D03*
X177655100Y-127073460D03*
D16*
X110529000Y-122380000D03*
D17*
X110529000Y-124920000D03*
X110529000Y-127460000D03*
D16*
X113069000Y-122380000D03*
D17*
X113069000Y-124920000D03*
X113069000Y-127460000D03*
D16*
X115609000Y-122380000D03*
D17*
X115609000Y-124920000D03*
X115609000Y-127460000D03*
D16*
X118149000Y-122380000D03*
D17*
X118149000Y-124920000D03*
X118149000Y-127460000D03*
D16*
X120689000Y-122380000D03*
D17*
X120689000Y-124920000D03*
X120689000Y-127460000D03*
D16*
X123229000Y-122380000D03*
D17*
X123229000Y-124920000D03*
X123229000Y-127460000D03*
D16*
X125769000Y-122380000D03*
D17*
X125769000Y-124920000D03*
X125769000Y-127460000D03*
D16*
X128309000Y-122380000D03*
D17*
X128309000Y-124920000D03*
X128309000Y-127460000D03*
D16*
X141009000Y-122380000D03*
D17*
X141009000Y-124920000D03*
X141009000Y-127460000D03*
D16*
X143549000Y-122380000D03*
D17*
X143549000Y-124920000D03*
X143549000Y-127460000D03*
D16*
X146089000Y-122380000D03*
D17*
X146089000Y-124920000D03*
X146089000Y-127460000D03*
D16*
X148629000Y-122380000D03*
D17*
X148629000Y-124920000D03*
X148629000Y-127460000D03*
D16*
X151169000Y-122380000D03*
D17*
X151169000Y-124920000D03*
X151169000Y-127460000D03*
D16*
X153709000Y-122380000D03*
D17*
X153709000Y-124920000D03*
X153709000Y-127460000D03*
D16*
X156249000Y-122380000D03*
D17*
X156249000Y-124920000D03*
X156249000Y-127460000D03*
D16*
X158789000Y-122380000D03*
D17*
X158789000Y-124920000D03*
X158789000Y-127460000D03*
D16*
X134532000Y-122380000D03*
D17*
X134532000Y-124920000D03*
X134532000Y-127460000D03*
D16*
X165012000Y-122380000D03*
D17*
X165012000Y-124920000D03*
X165012000Y-127460000D03*
D12*
X118310000Y-84890000D03*
D13*
X115770000Y-84890000D03*
X113230000Y-84890000D03*
X110690000Y-84890000D03*
D18*
X172284000Y-80724000D03*
D19*
X182284000Y-80724000D03*
D18*
X177284000Y-80724000D03*
D20*
X117100000Y-81000000D03*
D21*
X117100000Y-79000000D03*
X119100000Y-81000000D03*
X119100000Y-79000000D03*
X121100000Y-81000000D03*
X121100000Y-79000000D03*
X123100000Y-81000000D03*
X123100000Y-79000000D03*
X125100000Y-81000000D03*
X125100000Y-79000000D03*
X127100000Y-81000000D03*
X127100000Y-79000000D03*
X129100000Y-81000000D03*
X129100000Y-79000000D03*
X131100000Y-81000000D03*
X131100000Y-79000000D03*
X133100000Y-81000000D03*
X133100000Y-79000000D03*
X135100000Y-81000000D03*
X135100000Y-79000000D03*
X137100000Y-81000000D03*
X137100000Y-79000000D03*
X139100000Y-81000000D03*
X139100000Y-79000000D03*
X141100000Y-81000000D03*
X141100000Y-79000000D03*
X143100000Y-81000000D03*
X143100000Y-79000000D03*
X145100000Y-81000000D03*
X145100000Y-79000000D03*
X147100000Y-81000000D03*
X147100000Y-79000000D03*
X149100000Y-81000000D03*
X149100000Y-79000000D03*
X151100000Y-81000000D03*
X151100000Y-79000000D03*
X153100000Y-81000000D03*
X153100000Y-79000000D03*
X155100000Y-81000000D03*
X155100000Y-79000000D03*
D22*
X142070000Y-103580000D03*
X138580000Y-105060000D03*
X131170000Y-91810000D03*
X127680000Y-93780000D03*
X132100000Y-86870000D03*
X136050000Y-86800000D03*
X148740000Y-93000000D03*
X148590000Y-87660000D03*
X130410000Y-104690000D03*
X130420000Y-100270000D03*
X152050000Y-91890000D03*
X160430000Y-99570000D03*
X148950000Y-89890000D03*
X151890000Y-86580000D03*
X138630000Y-110740000D03*
X148820000Y-84580000D03*
X148300000Y-107560000D03*
X141375000Y-96075000D03*
X142575000Y-98625000D03*
X142780000Y-105030000D03*
X137230000Y-102060000D03*
X130280000Y-116380000D03*
X129750000Y-109440000D03*
X138640000Y-109440000D03*
X130360000Y-92450000D03*
X126110000Y-104680000D03*
X167290000Y-102630000D03*
X159070000Y-97330000D03*
X180760000Y-95910000D03*
X177730000Y-104950000D03*
X177720000Y-103960000D03*
X164250000Y-100360000D03*
X138585000Y-100255000D03*
X134270000Y-107490000D03*
X182180000Y-117400000D03*
X182200000Y-115720000D03*
X165260000Y-114440000D03*
X171510000Y-119410000D03*
X176140000Y-119410000D03*
X159090000Y-93950000D03*
X171110000Y-100100000D03*
X176570000Y-93930000D03*
X171120000Y-87750000D03*
X155850000Y-85830000D03*
X163500000Y-81000000D03*
X177570000Y-114450000D03*
X169870000Y-115080000D03*
X175450000Y-122960000D03*
X130350000Y-107490000D03*
X129750000Y-108140000D03*
X130350000Y-108790000D03*
X125970000Y-91810000D03*
X126080000Y-100270000D03*
X121660000Y-95070000D03*
X121260000Y-86390000D03*
X171700000Y-121300000D03*
X175975000Y-121300000D03*
X159090000Y-95630000D03*
X172330000Y-113810000D03*
X139665000Y-96025000D03*
X153740000Y-83440000D03*
X153720000Y-88740000D03*
X125470000Y-84900000D03*
X125210000Y-107500000D03*
X126030000Y-93490000D03*
X180270000Y-111310000D03*
X170420000Y-103610000D03*
X146890000Y-109410000D03*
X146890000Y-107570000D03*
X138740000Y-107490000D03*
X121640000Y-100280000D03*
X141990000Y-107560000D03*
X141980000Y-109420000D03*
X129720000Y-110740000D03*
X130330000Y-111390000D03*
X121780000Y-104690000D03*
X121390000Y-91810000D03*
X120110000Y-87090000D03*
X121220000Y-89430000D03*
X130380000Y-95070000D03*
X129660000Y-112040000D03*
X130280000Y-112680000D03*
X129670000Y-113340000D03*
X130270000Y-113990000D03*
X129650000Y-114630000D03*
X130170000Y-115280000D03*
X138620000Y-115950000D03*
X139200000Y-115290000D03*
X138610000Y-114640000D03*
X139210000Y-113990000D03*
X138610000Y-113340000D03*
X139190000Y-112690000D03*
X138640000Y-112040000D03*
X139210000Y-111390000D03*
X171880000Y-107900000D03*
X158850000Y-107520000D03*
X158850000Y-108690000D03*
X155620000Y-98590000D03*
X175030000Y-116790000D03*
X140575000Y-100225000D03*
X143625000Y-101775000D03*
X134660000Y-105160000D03*
X146275000Y-96075000D03*
X135330000Y-102290000D03*
X128080000Y-81900000D03*
X134040000Y-103270000D03*
X136100000Y-104260000D03*
X130060000Y-81900000D03*
X179930000Y-118590000D03*
X169810000Y-113160000D03*
X177540000Y-115710000D03*
X126660000Y-84920000D03*
X170190000Y-109710000D03*
X169870000Y-116980000D03*
D23*
G36*
X191414492Y-129315000D02*
X107785000Y-129315000D01*
X107785000Y-127819026D01*
X108921642Y-127819026D01*
X108924291Y-127834791D01*
X109178268Y-128362036D01*
X109614680Y-128751954D01*
X110167087Y-128945184D01*
X110402000Y-128800924D01*
X110402000Y-127587000D01*
X110656000Y-127587000D01*
X110656000Y-128800924D01*
X110890913Y-128945184D01*
X111443320Y-128751954D01*
X111799000Y-128434167D01*
X112154680Y-128751954D01*
X112707087Y-128945184D01*
X112942000Y-128800924D01*
X112942000Y-127587000D01*
X113196000Y-127587000D01*
X113196000Y-128800924D01*
X113430913Y-128945184D01*
X113983320Y-128751954D01*
X114339000Y-128434167D01*
X114694680Y-128751954D01*
X115247087Y-128945184D01*
X115482000Y-128800924D01*
X115482000Y-127587000D01*
X115736000Y-127587000D01*
X115736000Y-128800924D01*
X115970913Y-128945184D01*
X116523320Y-128751954D01*
X116879000Y-128434167D01*
X117234680Y-128751954D01*
X117787087Y-128945184D01*
X118022000Y-128800924D01*
X118022000Y-127587000D01*
X118276000Y-127587000D01*
X118276000Y-128800924D01*
X118510913Y-128945184D01*
X119063320Y-128751954D01*
X119419000Y-128434167D01*
X119774680Y-128751954D01*
X120327087Y-128945184D01*
X120562000Y-128800924D01*
X120562000Y-127587000D01*
X120816000Y-127587000D01*
X120816000Y-128800924D01*
X121050913Y-128945184D01*
X121603320Y-128751954D01*
X121959000Y-128434167D01*
X122314680Y-128751954D01*
X122867087Y-128945184D01*
X123102000Y-128800924D01*
X123102000Y-127587000D01*
X123356000Y-127587000D01*
X123356000Y-128800924D01*
X123590913Y-128945184D01*
X124143320Y-128751954D01*
X124499000Y-128434167D01*
X124854680Y-128751954D01*
X125407087Y-128945184D01*
X125642000Y-128800924D01*
X125642000Y-127587000D01*
X125896000Y-127587000D01*
X125896000Y-128800924D01*
X126130913Y-128945184D01*
X126683320Y-128751954D01*
X127039000Y-128434167D01*
X127394680Y-128751954D01*
X127947087Y-128945184D01*
X128182000Y-128800924D01*
X128182000Y-127587000D01*
X128436000Y-127587000D01*
X128436000Y-128800924D01*
X128670913Y-128945184D01*
X129223320Y-128751954D01*
X129659732Y-128362036D01*
X129913709Y-127834791D01*
X129916358Y-127819026D01*
X129795217Y-127587000D01*
X128436000Y-127587000D01*
X128182000Y-127587000D01*
X125896000Y-127587000D01*
X125642000Y-127587000D01*
X123356000Y-127587000D01*
X123102000Y-127587000D01*
X120816000Y-127587000D01*
X120562000Y-127587000D01*
X118276000Y-127587000D01*
X118022000Y-127587000D01*
X115736000Y-127587000D01*
X115482000Y-127587000D01*
X113196000Y-127587000D01*
X112942000Y-127587000D01*
X110656000Y-127587000D01*
X110402000Y-127587000D01*
X109042783Y-127587000D01*
X108921642Y-127819026D01*
X107785000Y-127819026D01*
X107785000Y-124920000D01*
X108845655Y-124920000D01*
X108959729Y-125493489D01*
X109284585Y-125979670D01*
X109594069Y-126186461D01*
X109178268Y-126557964D01*
X108924291Y-127085209D01*
X108921642Y-127100974D01*
X109042783Y-127333000D01*
X110402000Y-127333000D01*
X110402000Y-127313000D01*
X110656000Y-127313000D01*
X110656000Y-127333000D01*
X112942000Y-127333000D01*
X112942000Y-127313000D01*
X113196000Y-127313000D01*
X113196000Y-127333000D01*
X115482000Y-127333000D01*
X115482000Y-127313000D01*
X115736000Y-127313000D01*
X115736000Y-127333000D01*
X118022000Y-127333000D01*
X118022000Y-127313000D01*
X118276000Y-127313000D01*
X118276000Y-127333000D01*
X120562000Y-127333000D01*
X120562000Y-127313000D01*
X120816000Y-127313000D01*
X120816000Y-127333000D01*
X123102000Y-127333000D01*
X123102000Y-127313000D01*
X123356000Y-127313000D01*
X123356000Y-127333000D01*
X125642000Y-127333000D01*
X125642000Y-127313000D01*
X125896000Y-127313000D01*
X125896000Y-127333000D01*
X128182000Y-127333000D01*
X128182000Y-127313000D01*
X128436000Y-127313000D01*
X128436000Y-127333000D01*
X129795217Y-127333000D01*
X129916358Y-127100974D01*
X129913709Y-127085209D01*
X129659732Y-126557964D01*
X129243931Y-126186461D01*
X129553415Y-125979670D01*
X129878271Y-125493489D01*
X129992345Y-124920000D01*
X132848655Y-124920000D01*
X132962729Y-125493489D01*
X133287585Y-125979670D01*
X133602366Y-126190000D01*
X133287585Y-126400330D01*
X132962729Y-126886511D01*
X132848655Y-127460000D01*
X132962729Y-128033489D01*
X133287585Y-128519670D01*
X133773766Y-128844526D01*
X134347255Y-128958600D01*
X134716745Y-128958600D01*
X135290234Y-128844526D01*
X135776415Y-128519670D01*
X136101271Y-128033489D01*
X136143930Y-127819026D01*
X139401642Y-127819026D01*
X139404291Y-127834791D01*
X139658268Y-128362036D01*
X140094680Y-128751954D01*
X140647087Y-128945184D01*
X140882000Y-128800924D01*
X140882000Y-127587000D01*
X141136000Y-127587000D01*
X141136000Y-128800924D01*
X141370913Y-128945184D01*
X141923320Y-128751954D01*
X142279000Y-128434167D01*
X142634680Y-128751954D01*
X143187087Y-128945184D01*
X143422000Y-128800924D01*
X143422000Y-127587000D01*
X143676000Y-127587000D01*
X143676000Y-128800924D01*
X143910913Y-128945184D01*
X144463320Y-128751954D01*
X144819000Y-128434167D01*
X145174680Y-128751954D01*
X145727087Y-128945184D01*
X145962000Y-128800924D01*
X145962000Y-127587000D01*
X146216000Y-127587000D01*
X146216000Y-128800924D01*
X146450913Y-128945184D01*
X147003320Y-128751954D01*
X147359000Y-128434167D01*
X147714680Y-128751954D01*
X148267087Y-128945184D01*
X148502000Y-128800924D01*
X148502000Y-127587000D01*
X148756000Y-127587000D01*
X148756000Y-128800924D01*
X148990913Y-128945184D01*
X149543320Y-128751954D01*
X149899000Y-128434167D01*
X150254680Y-128751954D01*
X150807087Y-128945184D01*
X151042000Y-128800924D01*
X151042000Y-127587000D01*
X151296000Y-127587000D01*
X151296000Y-128800924D01*
X151530913Y-128945184D01*
X152083320Y-128751954D01*
X152439000Y-128434167D01*
X152794680Y-128751954D01*
X153347087Y-128945184D01*
X153582000Y-128800924D01*
X153582000Y-127587000D01*
X153836000Y-127587000D01*
X153836000Y-128800924D01*
X154070913Y-128945184D01*
X154623320Y-128751954D01*
X154979000Y-128434167D01*
X155334680Y-128751954D01*
X155887087Y-128945184D01*
X156122000Y-128800924D01*
X156122000Y-127587000D01*
X156376000Y-127587000D01*
X156376000Y-128800924D01*
X156610913Y-128945184D01*
X157163320Y-128751954D01*
X157519000Y-128434167D01*
X157874680Y-128751954D01*
X158427087Y-128945184D01*
X158662000Y-128800924D01*
X158662000Y-127587000D01*
X158916000Y-127587000D01*
X158916000Y-128800924D01*
X159150913Y-128945184D01*
X159703320Y-128751954D01*
X160139732Y-128362036D01*
X160393709Y-127834791D01*
X160396358Y-127819026D01*
X160275217Y-127587000D01*
X158916000Y-127587000D01*
X158662000Y-127587000D01*
X156376000Y-127587000D01*
X156122000Y-127587000D01*
X153836000Y-127587000D01*
X153582000Y-127587000D01*
X151296000Y-127587000D01*
X151042000Y-127587000D01*
X148756000Y-127587000D01*
X148502000Y-127587000D01*
X146216000Y-127587000D01*
X145962000Y-127587000D01*
X143676000Y-127587000D01*
X143422000Y-127587000D01*
X141136000Y-127587000D01*
X140882000Y-127587000D01*
X139522783Y-127587000D01*
X139401642Y-127819026D01*
X136143930Y-127819026D01*
X136215345Y-127460000D01*
X136101271Y-126886511D01*
X135776415Y-126400330D01*
X135461634Y-126190000D01*
X135776415Y-125979670D01*
X136101271Y-125493489D01*
X136215345Y-124920000D01*
X139325655Y-124920000D01*
X139439729Y-125493489D01*
X139764585Y-125979670D01*
X140074069Y-126186461D01*
X139658268Y-126557964D01*
X139404291Y-127085209D01*
X139401642Y-127100974D01*
X139522783Y-127333000D01*
X140882000Y-127333000D01*
X140882000Y-127313000D01*
X141136000Y-127313000D01*
X141136000Y-127333000D01*
X143422000Y-127333000D01*
X143422000Y-127313000D01*
X143676000Y-127313000D01*
X143676000Y-127333000D01*
X145962000Y-127333000D01*
X145962000Y-127313000D01*
X146216000Y-127313000D01*
X146216000Y-127333000D01*
X148502000Y-127333000D01*
X148502000Y-127313000D01*
X148756000Y-127313000D01*
X148756000Y-127333000D01*
X151042000Y-127333000D01*
X151042000Y-127313000D01*
X151296000Y-127313000D01*
X151296000Y-127333000D01*
X153582000Y-127333000D01*
X153582000Y-127313000D01*
X153836000Y-127313000D01*
X153836000Y-127333000D01*
X156122000Y-127333000D01*
X156122000Y-127313000D01*
X156376000Y-127313000D01*
X156376000Y-127333000D01*
X158662000Y-127333000D01*
X158662000Y-127313000D01*
X158916000Y-127313000D01*
X158916000Y-127333000D01*
X160275217Y-127333000D01*
X160396358Y-127100974D01*
X160393709Y-127085209D01*
X160139732Y-126557964D01*
X159723931Y-126186461D01*
X160033415Y-125979670D01*
X160358271Y-125493489D01*
X160472345Y-124920000D01*
X163328655Y-124920000D01*
X163442729Y-125493489D01*
X163767585Y-125979670D01*
X164082366Y-126190000D01*
X163767585Y-126400330D01*
X163442729Y-126886511D01*
X163328655Y-127460000D01*
X163442729Y-128033489D01*
X163767585Y-128519670D01*
X164253766Y-128844526D01*
X164827255Y-128958600D01*
X165196745Y-128958600D01*
X165770234Y-128844526D01*
X166256415Y-128519670D01*
X166581271Y-128033489D01*
X166695345Y-127460000D01*
X166643720Y-127200460D01*
X169520100Y-127200460D01*
X169520100Y-127475460D01*
X169655098Y-127900138D01*
X169942337Y-128240828D01*
X170353226Y-128442579D01*
X170528100Y-128316414D01*
X170528100Y-127200460D01*
X170782100Y-127200460D01*
X170782100Y-128316414D01*
X170956974Y-128442579D01*
X171367863Y-128240828D01*
X171655102Y-127900138D01*
X171790100Y-127475460D01*
X171790100Y-127200460D01*
X176520100Y-127200460D01*
X176520100Y-127475460D01*
X176655098Y-127900138D01*
X176942337Y-128240828D01*
X177353226Y-128442579D01*
X177528100Y-128316414D01*
X177528100Y-127200460D01*
X177782100Y-127200460D01*
X177782100Y-128316414D01*
X177956974Y-128442579D01*
X178367863Y-128240828D01*
X178655102Y-127900138D01*
X178790100Y-127475460D01*
X178790100Y-127200460D01*
X177782100Y-127200460D01*
X177528100Y-127200460D01*
X176520100Y-127200460D01*
X171790100Y-127200460D01*
X170782100Y-127200460D01*
X170528100Y-127200460D01*
X169520100Y-127200460D01*
X166643720Y-127200460D01*
X166581271Y-126886511D01*
X166437579Y-126671460D01*
X169520100Y-126671460D01*
X169520100Y-126946460D01*
X170528100Y-126946460D01*
X170528100Y-125830506D01*
X170782100Y-125830506D01*
X170782100Y-126946460D01*
X171790100Y-126946460D01*
X171790100Y-126671460D01*
X176520100Y-126671460D01*
X176520100Y-126946460D01*
X177528100Y-126946460D01*
X177528100Y-125830506D01*
X177782100Y-125830506D01*
X177782100Y-126946460D01*
X178790100Y-126946460D01*
X178790100Y-126671460D01*
X178655102Y-126246782D01*
X178367863Y-125906092D01*
X177956974Y-125704341D01*
X177782100Y-125830506D01*
X177528100Y-125830506D01*
X177353226Y-125704341D01*
X176942337Y-125906092D01*
X176655098Y-126246782D01*
X176520100Y-126671460D01*
X171790100Y-126671460D01*
X171655102Y-126246782D01*
X171367863Y-125906092D01*
X170956974Y-125704341D01*
X170782100Y-125830506D01*
X170528100Y-125830506D01*
X170353226Y-125704341D01*
X169942337Y-125906092D01*
X169655098Y-126246782D01*
X169520100Y-126671460D01*
X166437579Y-126671460D01*
X166256415Y-126400330D01*
X165941634Y-126190000D01*
X166256415Y-125979670D01*
X166581271Y-125493489D01*
X166695345Y-124920000D01*
X166645896Y-124671398D01*
X170435832Y-124671398D01*
X170619548Y-125045281D01*
X170944051Y-125333028D01*
X171353969Y-125474689D01*
X171528100Y-125326023D01*
X171528100Y-124500460D01*
X171782100Y-124500460D01*
X171782100Y-125326023D01*
X171956231Y-125474689D01*
X172366149Y-125333028D01*
X172690652Y-125045281D01*
X172874368Y-124671398D01*
X175435832Y-124671398D01*
X175619548Y-125045281D01*
X175944051Y-125333028D01*
X176353969Y-125474689D01*
X176528100Y-125326023D01*
X176528100Y-124500460D01*
X176782100Y-124500460D01*
X176782100Y-125326023D01*
X176956231Y-125474689D01*
X177366149Y-125333028D01*
X177690652Y-125045281D01*
X177874368Y-124671398D01*
X177747834Y-124500460D01*
X176782100Y-124500460D01*
X176528100Y-124500460D01*
X175562366Y-124500460D01*
X175435832Y-124671398D01*
X172874368Y-124671398D01*
X172747834Y-124500460D01*
X171782100Y-124500460D01*
X171528100Y-124500460D01*
X170562366Y-124500460D01*
X170435832Y-124671398D01*
X166645896Y-124671398D01*
X166581271Y-124346511D01*
X166400202Y-124075522D01*
X170435832Y-124075522D01*
X170562366Y-124246460D01*
X171528100Y-124246460D01*
X171528100Y-123420897D01*
X171782100Y-123420897D01*
X171782100Y-124246460D01*
X172747834Y-124246460D01*
X172874368Y-124075522D01*
X175435832Y-124075522D01*
X175562366Y-124246460D01*
X176528100Y-124246460D01*
X176528100Y-123420897D01*
X176782100Y-123420897D01*
X176782100Y-124246460D01*
X177747834Y-124246460D01*
X177874368Y-124075522D01*
X177690652Y-123701639D01*
X177366149Y-123413892D01*
X176956231Y-123272231D01*
X176782100Y-123420897D01*
X176528100Y-123420897D01*
X176353969Y-123272231D01*
X175944051Y-123413892D01*
X175619548Y-123701639D01*
X175435832Y-124075522D01*
X172874368Y-124075522D01*
X172690652Y-123701639D01*
X172366149Y-123413892D01*
X171956231Y-123272231D01*
X171782100Y-123420897D01*
X171528100Y-123420897D01*
X171353969Y-123272231D01*
X170944051Y-123413892D01*
X170619548Y-123701639D01*
X170435832Y-124075522D01*
X166400202Y-124075522D01*
X166256415Y-123860330D01*
X166242087Y-123850757D01*
X166263317Y-123846762D01*
X166479441Y-123707690D01*
X166624431Y-123495490D01*
X166675440Y-123243600D01*
X166675440Y-121516400D01*
X166667849Y-121476057D01*
X170810846Y-121476057D01*
X170945903Y-121802920D01*
X171195764Y-122053218D01*
X171522391Y-122188846D01*
X171876057Y-122189154D01*
X172202920Y-122054097D01*
X172453218Y-121804236D01*
X172588846Y-121477609D01*
X172588847Y-121476057D01*
X175085846Y-121476057D01*
X175220903Y-121802920D01*
X175470764Y-122053218D01*
X175797391Y-122188846D01*
X176151057Y-122189154D01*
X176477920Y-122054097D01*
X176728218Y-121804236D01*
X176863846Y-121477609D01*
X176864154Y-121123943D01*
X176729097Y-120797080D01*
X176479236Y-120546782D01*
X176152609Y-120411154D01*
X175798943Y-120410846D01*
X175472080Y-120545903D01*
X175221782Y-120795764D01*
X175086154Y-121122391D01*
X175085846Y-121476057D01*
X172588847Y-121476057D01*
X172589154Y-121123943D01*
X172454097Y-120797080D01*
X172204236Y-120546782D01*
X171877609Y-120411154D01*
X171523943Y-120410846D01*
X171197080Y-120545903D01*
X170946782Y-120795764D01*
X170811154Y-121122391D01*
X170810846Y-121476057D01*
X166667849Y-121476057D01*
X166631162Y-121281083D01*
X166492090Y-121064959D01*
X166279890Y-120919969D01*
X166028000Y-120868960D01*
X163996000Y-120868960D01*
X163760683Y-120913238D01*
X163544559Y-121052310D01*
X163399569Y-121264510D01*
X163348560Y-121516400D01*
X163348560Y-123243600D01*
X163392838Y-123478917D01*
X163531910Y-123695041D01*
X163744110Y-123840031D01*
X163785439Y-123848400D01*
X163767585Y-123860330D01*
X163442729Y-124346511D01*
X163328655Y-124920000D01*
X160472345Y-124920000D01*
X160358271Y-124346511D01*
X160033415Y-123860330D01*
X160019087Y-123850757D01*
X160040317Y-123846762D01*
X160256441Y-123707690D01*
X160401431Y-123495490D01*
X160452440Y-123243600D01*
X160452440Y-121516400D01*
X160408162Y-121281083D01*
X160269090Y-121064959D01*
X160056890Y-120919969D01*
X159805000Y-120868960D01*
X157773000Y-120868960D01*
X157537683Y-120913238D01*
X157521901Y-120923393D01*
X157516890Y-120919969D01*
X157265000Y-120868960D01*
X155233000Y-120868960D01*
X154997683Y-120913238D01*
X154981901Y-120923393D01*
X154976890Y-120919969D01*
X154725000Y-120868960D01*
X152693000Y-120868960D01*
X152457683Y-120913238D01*
X152441901Y-120923393D01*
X152436890Y-120919969D01*
X152185000Y-120868960D01*
X150153000Y-120868960D01*
X149917683Y-120913238D01*
X149901901Y-120923393D01*
X149896890Y-120919969D01*
X149645000Y-120868960D01*
X147613000Y-120868960D01*
X147377683Y-120913238D01*
X147361901Y-120923393D01*
X147356890Y-120919969D01*
X147105000Y-120868960D01*
X145073000Y-120868960D01*
X144837683Y-120913238D01*
X144821901Y-120923393D01*
X144816890Y-120919969D01*
X144565000Y-120868960D01*
X142533000Y-120868960D01*
X142297683Y-120913238D01*
X142281901Y-120923393D01*
X142276890Y-120919969D01*
X142025000Y-120868960D01*
X139993000Y-120868960D01*
X139757683Y-120913238D01*
X139541559Y-121052310D01*
X139396569Y-121264510D01*
X139345560Y-121516400D01*
X139345560Y-123243600D01*
X139389838Y-123478917D01*
X139528910Y-123695041D01*
X139741110Y-123840031D01*
X139782439Y-123848400D01*
X139764585Y-123860330D01*
X139439729Y-124346511D01*
X139325655Y-124920000D01*
X136215345Y-124920000D01*
X136101271Y-124346511D01*
X135776415Y-123860330D01*
X135762087Y-123850757D01*
X135783317Y-123846762D01*
X135999441Y-123707690D01*
X136144431Y-123495490D01*
X136195440Y-123243600D01*
X136195440Y-121516400D01*
X136151162Y-121281083D01*
X136012090Y-121064959D01*
X135799890Y-120919969D01*
X135548000Y-120868960D01*
X133516000Y-120868960D01*
X133280683Y-120913238D01*
X133064559Y-121052310D01*
X132919569Y-121264510D01*
X132868560Y-121516400D01*
X132868560Y-123243600D01*
X132912838Y-123478917D01*
X133051910Y-123695041D01*
X133264110Y-123840031D01*
X133305439Y-123848400D01*
X133287585Y-123860330D01*
X132962729Y-124346511D01*
X132848655Y-124920000D01*
X129992345Y-124920000D01*
X129878271Y-124346511D01*
X129553415Y-123860330D01*
X129539087Y-123850757D01*
X129560317Y-123846762D01*
X129776441Y-123707690D01*
X129921431Y-123495490D01*
X129972440Y-123243600D01*
X129972440Y-121516400D01*
X129928162Y-121281083D01*
X129789090Y-121064959D01*
X129576890Y-120919969D01*
X129325000Y-120868960D01*
X127293000Y-120868960D01*
X127057683Y-120913238D01*
X127041901Y-120923393D01*
X127036890Y-120919969D01*
X126785000Y-120868960D01*
X124753000Y-120868960D01*
X124517683Y-120913238D01*
X124501901Y-120923393D01*
X124496890Y-120919969D01*
X124245000Y-120868960D01*
X122213000Y-120868960D01*
X121977683Y-120913238D01*
X121961901Y-120923393D01*
X121956890Y-120919969D01*
X121705000Y-120868960D01*
X119673000Y-120868960D01*
X119437683Y-120913238D01*
X119421901Y-120923393D01*
X119416890Y-120919969D01*
X119165000Y-120868960D01*
X117133000Y-120868960D01*
X116897683Y-120913238D01*
X116881901Y-120923393D01*
X116876890Y-120919969D01*
X116625000Y-120868960D01*
X114593000Y-120868960D01*
X114357683Y-120913238D01*
X114341901Y-120923393D01*
X114336890Y-120919969D01*
X114085000Y-120868960D01*
X112053000Y-120868960D01*
X111817683Y-120913238D01*
X111801901Y-120923393D01*
X111796890Y-120919969D01*
X111545000Y-120868960D01*
X109513000Y-120868960D01*
X109277683Y-120913238D01*
X109061559Y-121052310D01*
X108916569Y-121264510D01*
X108865560Y-121516400D01*
X108865560Y-123243600D01*
X108909838Y-123478917D01*
X109048910Y-123695041D01*
X109261110Y-123840031D01*
X109302439Y-123848400D01*
X109284585Y-123860330D01*
X108959729Y-124346511D01*
X108845655Y-124920000D01*
X107785000Y-124920000D01*
X107785000Y-118766057D01*
X179040846Y-118766057D01*
X179175903Y-119092920D01*
X179425764Y-119343218D01*
X179752391Y-119478846D01*
X180106057Y-119479154D01*
X180432920Y-119344097D01*
X180683218Y-119094236D01*
X180818846Y-118767609D01*
X180819154Y-118413943D01*
X180684097Y-118087080D01*
X180434236Y-117836782D01*
X180107609Y-117701154D01*
X179753943Y-117700846D01*
X179427080Y-117835903D01*
X179176782Y-118085764D01*
X179041154Y-118412391D01*
X179040846Y-118766057D01*
X107785000Y-118766057D01*
X107785000Y-117156057D01*
X168980846Y-117156057D01*
X169115903Y-117482920D01*
X169365764Y-117733218D01*
X169692391Y-117868846D01*
X170046057Y-117869154D01*
X170372920Y-117734097D01*
X170623218Y-117484236D01*
X170758846Y-117157609D01*
X170759012Y-116966057D01*
X174140846Y-116966057D01*
X174275903Y-117292920D01*
X174525764Y-117543218D01*
X174852391Y-117678846D01*
X175206057Y-117679154D01*
X175532920Y-117544097D01*
X175783218Y-117294236D01*
X175918846Y-116967609D01*
X175919154Y-116613943D01*
X175784097Y-116287080D01*
X175534236Y-116036782D01*
X175207609Y-115901154D01*
X174853943Y-115900846D01*
X174527080Y-116035903D01*
X174276782Y-116285764D01*
X174141154Y-116612391D01*
X174140846Y-116966057D01*
X170759012Y-116966057D01*
X170759154Y-116803943D01*
X170624097Y-116477080D01*
X170374236Y-116226782D01*
X170047609Y-116091154D01*
X169693943Y-116090846D01*
X169367080Y-116225903D01*
X169116782Y-116475764D01*
X168981154Y-116802391D01*
X168980846Y-117156057D01*
X107785000Y-117156057D01*
X107785000Y-114806057D01*
X128760846Y-114806057D01*
X128895903Y-115132920D01*
X129145764Y-115383218D01*
X129280861Y-115439315D01*
X129280846Y-115456057D01*
X129415903Y-115782920D01*
X129665764Y-116033218D01*
X129992391Y-116168846D01*
X130346057Y-116169154D01*
X130672920Y-116034097D01*
X130923218Y-115784236D01*
X131058846Y-115457609D01*
X131059154Y-115103943D01*
X130924097Y-114777080D01*
X130832149Y-114684971D01*
X131023218Y-114494236D01*
X131158846Y-114167609D01*
X131159154Y-113813943D01*
X131036071Y-113516057D01*
X137720846Y-113516057D01*
X137855903Y-113842920D01*
X138002764Y-113990037D01*
X137856782Y-114135764D01*
X137721154Y-114462391D01*
X137720846Y-114816057D01*
X137855903Y-115142920D01*
X138012755Y-115300046D01*
X137866782Y-115445764D01*
X137731154Y-115772391D01*
X137730846Y-116126057D01*
X137865903Y-116452920D01*
X138115764Y-116703218D01*
X138442391Y-116838846D01*
X138796057Y-116839154D01*
X139122920Y-116704097D01*
X139373218Y-116454236D01*
X139508846Y-116127609D01*
X139508849Y-116124286D01*
X139702920Y-116044097D01*
X139861236Y-115886057D01*
X176650846Y-115886057D01*
X176785903Y-116212920D01*
X177035764Y-116463218D01*
X177362391Y-116598846D01*
X177716057Y-116599154D01*
X178042920Y-116464097D01*
X178293218Y-116214236D01*
X178428846Y-115887609D01*
X178429154Y-115533943D01*
X178294097Y-115207080D01*
X178044236Y-114956782D01*
X177717609Y-114821154D01*
X177363943Y-114820846D01*
X177037080Y-114955903D01*
X176786782Y-115205764D01*
X176651154Y-115532391D01*
X176650846Y-115886057D01*
X139861236Y-115886057D01*
X139953218Y-115794236D01*
X140088846Y-115467609D01*
X140089154Y-115113943D01*
X139954097Y-114787080D01*
X139812228Y-114644963D01*
X139963218Y-114494236D01*
X140098846Y-114167609D01*
X140099154Y-113813943D01*
X139964097Y-113487080D01*
X139813338Y-113336057D01*
X168920846Y-113336057D01*
X169055903Y-113662920D01*
X169305764Y-113913218D01*
X169632391Y-114048846D01*
X169986057Y-114049154D01*
X170138763Y-113986057D01*
X171440846Y-113986057D01*
X171575903Y-114312920D01*
X171825764Y-114563218D01*
X172152391Y-114698846D01*
X172506057Y-114699154D01*
X172832920Y-114564097D01*
X173083218Y-114314236D01*
X173218846Y-113987609D01*
X173219154Y-113633943D01*
X173084097Y-113307080D01*
X172834236Y-113056782D01*
X172507609Y-112921154D01*
X172153943Y-112920846D01*
X171827080Y-113055903D01*
X171576782Y-113305764D01*
X171441154Y-113632391D01*
X171440846Y-113986057D01*
X170138763Y-113986057D01*
X170312920Y-113914097D01*
X170563218Y-113664236D01*
X170698846Y-113337609D01*
X170699154Y-112983943D01*
X170564097Y-112657080D01*
X170314236Y-112406782D01*
X169987609Y-112271154D01*
X169633943Y-112270846D01*
X169307080Y-112405903D01*
X169056782Y-112655764D01*
X168921154Y-112982391D01*
X168920846Y-113336057D01*
X139813338Y-113336057D01*
X139807254Y-113329963D01*
X139943218Y-113194236D01*
X140078846Y-112867609D01*
X140079154Y-112513943D01*
X139944097Y-112187080D01*
X139807219Y-112049963D01*
X139963218Y-111894236D01*
X140098846Y-111567609D01*
X140098917Y-111486057D01*
X179380846Y-111486057D01*
X179515903Y-111812920D01*
X179765764Y-112063218D01*
X180092391Y-112198846D01*
X180446057Y-112199154D01*
X180772920Y-112064097D01*
X180914449Y-111922815D01*
X185964630Y-111922815D01*
X186288980Y-112707800D01*
X186889041Y-113308909D01*
X187673459Y-113634628D01*
X188522815Y-113635370D01*
X189307800Y-113311020D01*
X189908909Y-112710959D01*
X190234628Y-111926541D01*
X190235370Y-111077185D01*
X189911020Y-110292200D01*
X189310959Y-109691091D01*
X188526541Y-109365372D01*
X187677185Y-109364630D01*
X186892200Y-109688980D01*
X186291091Y-110289041D01*
X185965372Y-111073459D01*
X185964630Y-111922815D01*
X180914449Y-111922815D01*
X181023218Y-111814236D01*
X181158846Y-111487609D01*
X181159154Y-111133943D01*
X181024097Y-110807080D01*
X180774236Y-110556782D01*
X180447609Y-110421154D01*
X180093943Y-110420846D01*
X179767080Y-110555903D01*
X179516782Y-110805764D01*
X179381154Y-111132391D01*
X179380846Y-111486057D01*
X140098917Y-111486057D01*
X140099154Y-111213943D01*
X139964097Y-110887080D01*
X139714236Y-110636782D01*
X139515081Y-110554085D01*
X139384097Y-110237080D01*
X139134236Y-109986782D01*
X138807609Y-109851154D01*
X138453943Y-109850846D01*
X138127080Y-109985903D01*
X137876782Y-110235764D01*
X137741154Y-110562391D01*
X137740846Y-110916057D01*
X137875903Y-111242920D01*
X138027755Y-111395037D01*
X137886782Y-111535764D01*
X137751154Y-111862391D01*
X137750846Y-112216057D01*
X137885903Y-112542920D01*
X138017790Y-112675037D01*
X137856782Y-112835764D01*
X137721154Y-113162391D01*
X137720846Y-113516057D01*
X131036071Y-113516057D01*
X131024097Y-113487080D01*
X130877228Y-113339954D01*
X131033218Y-113184236D01*
X131168846Y-112857609D01*
X131169154Y-112503943D01*
X131034097Y-112177080D01*
X130917193Y-112059971D01*
X131083218Y-111894236D01*
X131218846Y-111567609D01*
X131219154Y-111213943D01*
X131084097Y-110887080D01*
X130834236Y-110636782D01*
X130598868Y-110539048D01*
X130474097Y-110237080D01*
X130224236Y-109986782D01*
X129897609Y-109851154D01*
X129543943Y-109850846D01*
X129217080Y-109985903D01*
X128966782Y-110235764D01*
X128831154Y-110562391D01*
X128830846Y-110916057D01*
X128965903Y-111242920D01*
X129082816Y-111360037D01*
X128906782Y-111535764D01*
X128771154Y-111862391D01*
X128770846Y-112216057D01*
X128905903Y-112542920D01*
X129057755Y-112695037D01*
X128916782Y-112835764D01*
X128781154Y-113162391D01*
X128780846Y-113516057D01*
X128915903Y-113842920D01*
X129047781Y-113975029D01*
X128896782Y-114125764D01*
X128761154Y-114452391D01*
X128760846Y-114806057D01*
X107785000Y-114806057D01*
X107785000Y-111922815D01*
X108964630Y-111922815D01*
X109288980Y-112707800D01*
X109889041Y-113308909D01*
X110673459Y-113634628D01*
X111522815Y-113635370D01*
X112307800Y-113311020D01*
X112908909Y-112710959D01*
X113234628Y-111926541D01*
X113235370Y-111077185D01*
X112911020Y-110292200D01*
X112310959Y-109691091D01*
X112082092Y-109596057D01*
X141090846Y-109596057D01*
X141225903Y-109922920D01*
X141475764Y-110173218D01*
X141802391Y-110308846D01*
X142156057Y-110309154D01*
X142482920Y-110174097D01*
X142733218Y-109924236D01*
X142868846Y-109597609D01*
X142868856Y-109586057D01*
X146000846Y-109586057D01*
X146135903Y-109912920D01*
X146385764Y-110163218D01*
X146712391Y-110298846D01*
X147066057Y-110299154D01*
X147392920Y-110164097D01*
X147643218Y-109914236D01*
X147654918Y-109886057D01*
X169300846Y-109886057D01*
X169435903Y-110212920D01*
X169685764Y-110463218D01*
X170012391Y-110598846D01*
X170366057Y-110599154D01*
X170692920Y-110464097D01*
X170943218Y-110214236D01*
X171078846Y-109887609D01*
X171079154Y-109533943D01*
X170944097Y-109207080D01*
X170694236Y-108956782D01*
X170367609Y-108821154D01*
X170013943Y-108820846D01*
X169687080Y-108955903D01*
X169436782Y-109205764D01*
X169301154Y-109532391D01*
X169300846Y-109886057D01*
X147654918Y-109886057D01*
X147778846Y-109587609D01*
X147779154Y-109233943D01*
X147644097Y-108907080D01*
X147394236Y-108656782D01*
X147067609Y-108521154D01*
X146713943Y-108520846D01*
X146387080Y-108655903D01*
X146136782Y-108905764D01*
X146001154Y-109232391D01*
X146000846Y-109586057D01*
X142868856Y-109586057D01*
X142869154Y-109243943D01*
X142734097Y-108917080D01*
X142484236Y-108666782D01*
X142157609Y-108531154D01*
X141803943Y-108530846D01*
X141477080Y-108665903D01*
X141226782Y-108915764D01*
X141091154Y-109242391D01*
X141090846Y-109596057D01*
X112082092Y-109596057D01*
X111526541Y-109365372D01*
X110677185Y-109364630D01*
X109892200Y-109688980D01*
X109291091Y-110289041D01*
X108965372Y-111073459D01*
X108964630Y-111922815D01*
X107785000Y-111922815D01*
X107785000Y-107755913D01*
X109170816Y-107755913D01*
X109364046Y-108308320D01*
X109753964Y-108744732D01*
X110281209Y-108998709D01*
X110296974Y-109001358D01*
X110529000Y-108880217D01*
X110529000Y-107521000D01*
X109315076Y-107521000D01*
X109170816Y-107755913D01*
X107785000Y-107755913D01*
X107785000Y-105215913D01*
X109170816Y-105215913D01*
X109364046Y-105768320D01*
X109681833Y-106124000D01*
X109364046Y-106479680D01*
X109170816Y-107032087D01*
X109315076Y-107267000D01*
X110529000Y-107267000D01*
X110529000Y-104981000D01*
X109315076Y-104981000D01*
X109170816Y-105215913D01*
X107785000Y-105215913D01*
X107785000Y-102675913D01*
X109170816Y-102675913D01*
X109364046Y-103228320D01*
X109681833Y-103584000D01*
X109364046Y-103939680D01*
X109170816Y-104492087D01*
X109315076Y-104727000D01*
X110529000Y-104727000D01*
X110529000Y-102441000D01*
X109315076Y-102441000D01*
X109170816Y-102675913D01*
X107785000Y-102675913D01*
X107785000Y-100135913D01*
X109170816Y-100135913D01*
X109364046Y-100688320D01*
X109681833Y-101044000D01*
X109364046Y-101399680D01*
X109170816Y-101952087D01*
X109315076Y-102187000D01*
X110529000Y-102187000D01*
X110529000Y-99901000D01*
X109315076Y-99901000D01*
X109170816Y-100135913D01*
X107785000Y-100135913D01*
X107785000Y-97595913D01*
X109170816Y-97595913D01*
X109364046Y-98148320D01*
X109681833Y-98504000D01*
X109364046Y-98859680D01*
X109170816Y-99412087D01*
X109315076Y-99647000D01*
X110529000Y-99647000D01*
X110529000Y-97361000D01*
X109315076Y-97361000D01*
X109170816Y-97595913D01*
X107785000Y-97595913D01*
X107785000Y-95055913D01*
X109170816Y-95055913D01*
X109364046Y-95608320D01*
X109681833Y-95964000D01*
X109364046Y-96319680D01*
X109170816Y-96872087D01*
X109315076Y-97107000D01*
X110529000Y-97107000D01*
X110529000Y-94821000D01*
X109315076Y-94821000D01*
X109170816Y-95055913D01*
X107785000Y-95055913D01*
X107785000Y-92515913D01*
X109170816Y-92515913D01*
X109364046Y-93068320D01*
X109681833Y-93424000D01*
X109364046Y-93779680D01*
X109170816Y-94332087D01*
X109315076Y-94567000D01*
X110529000Y-94567000D01*
X110529000Y-92281000D01*
X109315076Y-92281000D01*
X109170816Y-92515913D01*
X107785000Y-92515913D01*
X107785000Y-89975913D01*
X109170816Y-89975913D01*
X109364046Y-90528320D01*
X109681833Y-90884000D01*
X109364046Y-91239680D01*
X109170816Y-91792087D01*
X109315076Y-92027000D01*
X110529000Y-92027000D01*
X110529000Y-89741000D01*
X109315076Y-89741000D01*
X109170816Y-89975913D01*
X107785000Y-89975913D01*
X107785000Y-89252087D01*
X109170816Y-89252087D01*
X109315076Y-89487000D01*
X110529000Y-89487000D01*
X110529000Y-88127783D01*
X110783000Y-88127783D01*
X110783000Y-89487000D01*
X110803000Y-89487000D01*
X110803000Y-89741000D01*
X110783000Y-89741000D01*
X110783000Y-92027000D01*
X110803000Y-92027000D01*
X110803000Y-92281000D01*
X110783000Y-92281000D01*
X110783000Y-94567000D01*
X110803000Y-94567000D01*
X110803000Y-94821000D01*
X110783000Y-94821000D01*
X110783000Y-97107000D01*
X110803000Y-97107000D01*
X110803000Y-97361000D01*
X110783000Y-97361000D01*
X110783000Y-99647000D01*
X110803000Y-99647000D01*
X110803000Y-99901000D01*
X110783000Y-99901000D01*
X110783000Y-102187000D01*
X110803000Y-102187000D01*
X110803000Y-102441000D01*
X110783000Y-102441000D01*
X110783000Y-104727000D01*
X110803000Y-104727000D01*
X110803000Y-104981000D01*
X110783000Y-104981000D01*
X110783000Y-107267000D01*
X110803000Y-107267000D01*
X110803000Y-107521000D01*
X110783000Y-107521000D01*
X110783000Y-108880217D01*
X111015026Y-109001358D01*
X111030791Y-108998709D01*
X111558036Y-108744732D01*
X111929539Y-108328931D01*
X112136330Y-108638415D01*
X112622511Y-108963271D01*
X113196000Y-109077345D01*
X113769489Y-108963271D01*
X114255670Y-108638415D01*
X114265243Y-108624087D01*
X114269238Y-108645317D01*
X114408310Y-108861441D01*
X114620510Y-109006431D01*
X114872400Y-109057440D01*
X116599600Y-109057440D01*
X116834917Y-109013162D01*
X117051041Y-108874090D01*
X117196031Y-108661890D01*
X117247040Y-108410000D01*
X117247040Y-107676057D01*
X124320846Y-107676057D01*
X124455903Y-108002920D01*
X124705764Y-108253218D01*
X125032391Y-108388846D01*
X125386057Y-108389154D01*
X125712920Y-108254097D01*
X125963218Y-108004236D01*
X126098846Y-107677609D01*
X126098856Y-107666057D01*
X137850846Y-107666057D01*
X137985903Y-107992920D01*
X138235764Y-108243218D01*
X138562391Y-108378846D01*
X138916057Y-108379154D01*
X139242920Y-108244097D01*
X139493218Y-107994236D01*
X139600423Y-107736057D01*
X141100846Y-107736057D01*
X141235903Y-108062920D01*
X141485764Y-108313218D01*
X141812391Y-108448846D01*
X142166057Y-108449154D01*
X142492920Y-108314097D01*
X142743218Y-108064236D01*
X142875338Y-107746057D01*
X146000846Y-107746057D01*
X146135903Y-108072920D01*
X146385764Y-108323218D01*
X146712391Y-108458846D01*
X147066057Y-108459154D01*
X147392920Y-108324097D01*
X147600133Y-108117245D01*
X147795764Y-108313218D01*
X148122391Y-108448846D01*
X148476057Y-108449154D01*
X148802920Y-108314097D01*
X149053218Y-108064236D01*
X149188846Y-107737609D01*
X149188882Y-107696057D01*
X157960846Y-107696057D01*
X158095903Y-108022920D01*
X158177764Y-108104924D01*
X158096782Y-108185764D01*
X157961154Y-108512391D01*
X157960846Y-108866057D01*
X158095903Y-109192920D01*
X158345764Y-109443218D01*
X158672391Y-109578846D01*
X159026057Y-109579154D01*
X159352920Y-109444097D01*
X159603218Y-109194236D01*
X159738846Y-108867609D01*
X159739154Y-108513943D01*
X159604097Y-108187080D01*
X159522236Y-108105076D01*
X159551305Y-108076057D01*
X170990846Y-108076057D01*
X171125903Y-108402920D01*
X171375764Y-108653218D01*
X171702391Y-108788846D01*
X172056057Y-108789154D01*
X172382920Y-108654097D01*
X172633218Y-108404236D01*
X172768846Y-108077609D01*
X172769154Y-107723943D01*
X172634097Y-107397080D01*
X172384236Y-107146782D01*
X172057609Y-107011154D01*
X171703943Y-107010846D01*
X171377080Y-107145903D01*
X171126782Y-107395764D01*
X170991154Y-107722391D01*
X170990846Y-108076057D01*
X159551305Y-108076057D01*
X159603218Y-108024236D01*
X159738846Y-107697609D01*
X159739154Y-107343943D01*
X159604097Y-107017080D01*
X159354236Y-106766782D01*
X159027609Y-106631154D01*
X158673943Y-106630846D01*
X158347080Y-106765903D01*
X158096782Y-107015764D01*
X157961154Y-107342391D01*
X157960846Y-107696057D01*
X149188882Y-107696057D01*
X149189154Y-107383943D01*
X149054097Y-107057080D01*
X148804236Y-106806782D01*
X148477609Y-106671154D01*
X148123943Y-106670846D01*
X147797080Y-106805903D01*
X147589867Y-107012755D01*
X147394236Y-106816782D01*
X147067609Y-106681154D01*
X146713943Y-106680846D01*
X146387080Y-106815903D01*
X146136782Y-107065764D01*
X146001154Y-107392391D01*
X146000846Y-107746057D01*
X142875338Y-107746057D01*
X142878846Y-107737609D01*
X142879154Y-107383943D01*
X142744097Y-107057080D01*
X142494236Y-106806782D01*
X142167609Y-106671154D01*
X141813943Y-106670846D01*
X141487080Y-106805903D01*
X141236782Y-107055764D01*
X141101154Y-107382391D01*
X141100846Y-107736057D01*
X139600423Y-107736057D01*
X139628846Y-107667609D01*
X139629154Y-107313943D01*
X139494097Y-106987080D01*
X139244236Y-106736782D01*
X138917609Y-106601154D01*
X138563943Y-106600846D01*
X138237080Y-106735903D01*
X137986782Y-106985764D01*
X137851154Y-107312391D01*
X137850846Y-107666057D01*
X126098856Y-107666057D01*
X126099154Y-107323943D01*
X125964097Y-106997080D01*
X125714236Y-106746782D01*
X125387609Y-106611154D01*
X125033943Y-106610846D01*
X124707080Y-106745903D01*
X124456782Y-106995764D01*
X124321154Y-107322391D01*
X124320846Y-107676057D01*
X117247040Y-107676057D01*
X117247040Y-106378000D01*
X117202762Y-106142683D01*
X117192607Y-106126901D01*
X117196031Y-106121890D01*
X117247040Y-105870000D01*
X117247040Y-104866057D01*
X120890846Y-104866057D01*
X121025903Y-105192920D01*
X121275764Y-105443218D01*
X121602391Y-105578846D01*
X121956057Y-105579154D01*
X122282920Y-105444097D01*
X122533218Y-105194236D01*
X122668846Y-104867609D01*
X122668847Y-104866057D01*
X129520846Y-104866057D01*
X129655903Y-105192920D01*
X129905764Y-105443218D01*
X130232391Y-105578846D01*
X130586057Y-105579154D01*
X130912920Y-105444097D01*
X131021148Y-105336057D01*
X133770846Y-105336057D01*
X133905903Y-105662920D01*
X134155764Y-105913218D01*
X134482391Y-106048846D01*
X134836057Y-106049154D01*
X135162920Y-105914097D01*
X135413218Y-105664236D01*
X135548846Y-105337609D01*
X135548934Y-105236057D01*
X137690846Y-105236057D01*
X137825903Y-105562920D01*
X138075764Y-105813218D01*
X138402391Y-105948846D01*
X138756057Y-105949154D01*
X139082920Y-105814097D01*
X139333218Y-105564236D01*
X139468846Y-105237609D01*
X139469154Y-104883943D01*
X139334097Y-104557080D01*
X139084236Y-104306782D01*
X138757609Y-104171154D01*
X138403943Y-104170846D01*
X138077080Y-104305903D01*
X137826782Y-104555764D01*
X137691154Y-104882391D01*
X137690846Y-105236057D01*
X135548934Y-105236057D01*
X135549154Y-104983943D01*
X135536875Y-104954226D01*
X135595764Y-105013218D01*
X135922391Y-105148846D01*
X136276057Y-105149154D01*
X136602920Y-105014097D01*
X136853218Y-104764236D01*
X136988846Y-104437609D01*
X136989154Y-104083943D01*
X136854097Y-103757080D01*
X136853076Y-103756057D01*
X141180846Y-103756057D01*
X141315903Y-104082920D01*
X141565764Y-104333218D01*
X141892391Y-104468846D01*
X142246057Y-104469154D01*
X142572920Y-104334097D01*
X142823218Y-104084236D01*
X142947033Y-103786057D01*
X169530846Y-103786057D01*
X169665903Y-104112920D01*
X169915764Y-104363218D01*
X170242391Y-104498846D01*
X170596057Y-104499154D01*
X170922920Y-104364097D01*
X171173218Y-104114236D01*
X171308846Y-103787609D01*
X171309154Y-103433943D01*
X171174097Y-103107080D01*
X170924236Y-102856782D01*
X170597609Y-102721154D01*
X170243943Y-102720846D01*
X169917080Y-102855903D01*
X169666782Y-103105764D01*
X169531154Y-103432391D01*
X169530846Y-103786057D01*
X142947033Y-103786057D01*
X142958846Y-103757609D01*
X142959154Y-103403943D01*
X142824097Y-103077080D01*
X142574236Y-102826782D01*
X142247609Y-102691154D01*
X141893943Y-102690846D01*
X141567080Y-102825903D01*
X141316782Y-103075764D01*
X141181154Y-103402391D01*
X141180846Y-103756057D01*
X136853076Y-103756057D01*
X136604236Y-103506782D01*
X136277609Y-103371154D01*
X135923943Y-103370846D01*
X135597080Y-103505903D01*
X135346782Y-103755764D01*
X135211154Y-104082391D01*
X135210846Y-104436057D01*
X135223125Y-104465774D01*
X135164236Y-104406782D01*
X134837609Y-104271154D01*
X134483943Y-104270846D01*
X134157080Y-104405903D01*
X133906782Y-104655764D01*
X133771154Y-104982391D01*
X133770846Y-105336057D01*
X131021148Y-105336057D01*
X131163218Y-105194236D01*
X131298846Y-104867609D01*
X131299154Y-104513943D01*
X131164097Y-104187080D01*
X130914236Y-103936782D01*
X130587609Y-103801154D01*
X130233943Y-103800846D01*
X129907080Y-103935903D01*
X129656782Y-104185764D01*
X129521154Y-104512391D01*
X129520846Y-104866057D01*
X122668847Y-104866057D01*
X122669154Y-104513943D01*
X122534097Y-104187080D01*
X122284236Y-103936782D01*
X121957609Y-103801154D01*
X121603943Y-103800846D01*
X121277080Y-103935903D01*
X121026782Y-104185764D01*
X120891154Y-104512391D01*
X120890846Y-104866057D01*
X117247040Y-104866057D01*
X117247040Y-103838000D01*
X117202762Y-103602683D01*
X117192607Y-103586901D01*
X117196031Y-103581890D01*
X117223537Y-103446057D01*
X133150846Y-103446057D01*
X133285903Y-103772920D01*
X133535764Y-104023218D01*
X133862391Y-104158846D01*
X134216057Y-104159154D01*
X134542920Y-104024097D01*
X134793218Y-103774236D01*
X134928846Y-103447609D01*
X134929154Y-103093943D01*
X134925267Y-103084535D01*
X135152391Y-103178846D01*
X135506057Y-103179154D01*
X135832920Y-103044097D01*
X136083218Y-102794236D01*
X136218846Y-102467609D01*
X136219154Y-102113943D01*
X136151851Y-101951057D01*
X142735846Y-101951057D01*
X142870903Y-102277920D01*
X143120764Y-102528218D01*
X143447391Y-102663846D01*
X143801057Y-102664154D01*
X144127920Y-102529097D01*
X144378218Y-102279236D01*
X144513846Y-101952609D01*
X144514154Y-101598943D01*
X144379097Y-101272080D01*
X144129236Y-101021782D01*
X143802609Y-100886154D01*
X143448943Y-100885846D01*
X143122080Y-101020903D01*
X142871782Y-101270764D01*
X142736154Y-101597391D01*
X142735846Y-101951057D01*
X136151851Y-101951057D01*
X136084097Y-101787080D01*
X135834236Y-101536782D01*
X135507609Y-101401154D01*
X135153943Y-101400846D01*
X134827080Y-101535903D01*
X134576782Y-101785764D01*
X134441154Y-102112391D01*
X134440846Y-102466057D01*
X134444733Y-102475465D01*
X134217609Y-102381154D01*
X133863943Y-102380846D01*
X133537080Y-102515903D01*
X133286782Y-102765764D01*
X133151154Y-103092391D01*
X133150846Y-103446057D01*
X117223537Y-103446057D01*
X117247040Y-103330000D01*
X117247040Y-101298000D01*
X117202762Y-101062683D01*
X117192607Y-101046901D01*
X117196031Y-101041890D01*
X117247040Y-100790000D01*
X117247040Y-100456057D01*
X120750846Y-100456057D01*
X120885903Y-100782920D01*
X121135764Y-101033218D01*
X121462391Y-101168846D01*
X121816057Y-101169154D01*
X122142920Y-101034097D01*
X122393218Y-100784236D01*
X122528846Y-100457609D01*
X122528856Y-100446057D01*
X129530846Y-100446057D01*
X129665903Y-100772920D01*
X129915764Y-101023218D01*
X130242391Y-101158846D01*
X130596057Y-101159154D01*
X130922920Y-101024097D01*
X131173218Y-100774236D01*
X131308846Y-100447609D01*
X131308886Y-100401057D01*
X139685846Y-100401057D01*
X139820903Y-100727920D01*
X140070764Y-100978218D01*
X140397391Y-101113846D01*
X140751057Y-101114154D01*
X141077920Y-100979097D01*
X141328218Y-100729236D01*
X141463846Y-100402609D01*
X141464154Y-100048943D01*
X141339005Y-99746057D01*
X159540846Y-99746057D01*
X159675903Y-100072920D01*
X159925764Y-100323218D01*
X160252391Y-100458846D01*
X160606057Y-100459154D01*
X160932920Y-100324097D01*
X161183218Y-100074236D01*
X161318846Y-99747609D01*
X161319154Y-99393943D01*
X161184097Y-99067080D01*
X160934236Y-98816782D01*
X160607609Y-98681154D01*
X160253943Y-98680846D01*
X159927080Y-98815903D01*
X159676782Y-99065764D01*
X159541154Y-99392391D01*
X159540846Y-99746057D01*
X141339005Y-99746057D01*
X141329097Y-99722080D01*
X141079236Y-99471782D01*
X140752609Y-99336154D01*
X140398943Y-99335846D01*
X140072080Y-99470903D01*
X139821782Y-99720764D01*
X139686154Y-100047391D01*
X139685846Y-100401057D01*
X131308886Y-100401057D01*
X131309154Y-100093943D01*
X131174097Y-99767080D01*
X130924236Y-99516782D01*
X130597609Y-99381154D01*
X130243943Y-99380846D01*
X129917080Y-99515903D01*
X129666782Y-99765764D01*
X129531154Y-100092391D01*
X129530846Y-100446057D01*
X122528856Y-100446057D01*
X122529154Y-100103943D01*
X122394097Y-99777080D01*
X122144236Y-99526782D01*
X121817609Y-99391154D01*
X121463943Y-99390846D01*
X121137080Y-99525903D01*
X120886782Y-99775764D01*
X120751154Y-100102391D01*
X120750846Y-100456057D01*
X117247040Y-100456057D01*
X117247040Y-98766057D01*
X154730846Y-98766057D01*
X154865903Y-99092920D01*
X155115764Y-99343218D01*
X155442391Y-99478846D01*
X155796057Y-99479154D01*
X156122920Y-99344097D01*
X156373218Y-99094236D01*
X156508846Y-98767609D01*
X156509075Y-98504000D01*
X181788960Y-98504000D01*
X181788960Y-100536000D01*
X181833238Y-100771317D01*
X181843393Y-100787099D01*
X181839969Y-100792110D01*
X181788960Y-101044000D01*
X181788960Y-103076000D01*
X181833238Y-103311317D01*
X181843393Y-103327099D01*
X181839969Y-103332110D01*
X181788960Y-103584000D01*
X181788960Y-105616000D01*
X181833238Y-105851317D01*
X181843393Y-105867099D01*
X181839969Y-105872110D01*
X181788960Y-106124000D01*
X181788960Y-108156000D01*
X181833238Y-108391317D01*
X181972310Y-108607441D01*
X182184510Y-108752431D01*
X182436400Y-108803440D01*
X184163600Y-108803440D01*
X184398917Y-108759162D01*
X184615041Y-108620090D01*
X184760031Y-108407890D01*
X184768400Y-108366561D01*
X184780330Y-108384415D01*
X185266511Y-108709271D01*
X185840000Y-108823345D01*
X186413489Y-108709271D01*
X186899670Y-108384415D01*
X187106461Y-108074931D01*
X187477964Y-108490732D01*
X188005209Y-108744709D01*
X188020974Y-108747358D01*
X188253000Y-108626217D01*
X188253000Y-107267000D01*
X188507000Y-107267000D01*
X188507000Y-108626217D01*
X188739026Y-108747358D01*
X188754791Y-108744709D01*
X189282036Y-108490732D01*
X189671954Y-108054320D01*
X189865184Y-107501913D01*
X189720924Y-107267000D01*
X188507000Y-107267000D01*
X188253000Y-107267000D01*
X188233000Y-107267000D01*
X188233000Y-107013000D01*
X188253000Y-107013000D01*
X188253000Y-104727000D01*
X188507000Y-104727000D01*
X188507000Y-107013000D01*
X189720924Y-107013000D01*
X189865184Y-106778087D01*
X189671954Y-106225680D01*
X189354167Y-105870000D01*
X189671954Y-105514320D01*
X189865184Y-104961913D01*
X189720924Y-104727000D01*
X188507000Y-104727000D01*
X188253000Y-104727000D01*
X188233000Y-104727000D01*
X188233000Y-104473000D01*
X188253000Y-104473000D01*
X188253000Y-102187000D01*
X188507000Y-102187000D01*
X188507000Y-104473000D01*
X189720924Y-104473000D01*
X189865184Y-104238087D01*
X189671954Y-103685680D01*
X189354167Y-103330000D01*
X189671954Y-102974320D01*
X189865184Y-102421913D01*
X189720924Y-102187000D01*
X188507000Y-102187000D01*
X188253000Y-102187000D01*
X188233000Y-102187000D01*
X188233000Y-101933000D01*
X188253000Y-101933000D01*
X188253000Y-99647000D01*
X188507000Y-99647000D01*
X188507000Y-101933000D01*
X189720924Y-101933000D01*
X189865184Y-101698087D01*
X189671954Y-101145680D01*
X189354167Y-100790000D01*
X189671954Y-100434320D01*
X189865184Y-99881913D01*
X189720924Y-99647000D01*
X188507000Y-99647000D01*
X188253000Y-99647000D01*
X188233000Y-99647000D01*
X188233000Y-99393000D01*
X188253000Y-99393000D01*
X188253000Y-98033783D01*
X188507000Y-98033783D01*
X188507000Y-99393000D01*
X189720924Y-99393000D01*
X189865184Y-99158087D01*
X189671954Y-98605680D01*
X189282036Y-98169268D01*
X188754791Y-97915291D01*
X188739026Y-97912642D01*
X188507000Y-98033783D01*
X188253000Y-98033783D01*
X188020974Y-97912642D01*
X188005209Y-97915291D01*
X187477964Y-98169268D01*
X187106461Y-98585069D01*
X186899670Y-98275585D01*
X186413489Y-97950729D01*
X185840000Y-97836655D01*
X185266511Y-97950729D01*
X184780330Y-98275585D01*
X184770757Y-98289913D01*
X184766762Y-98268683D01*
X184627690Y-98052559D01*
X184415490Y-97907569D01*
X184163600Y-97856560D01*
X182436400Y-97856560D01*
X182201083Y-97900838D01*
X181984959Y-98039910D01*
X181839969Y-98252110D01*
X181788960Y-98504000D01*
X156509075Y-98504000D01*
X156509154Y-98413943D01*
X156374097Y-98087080D01*
X156124236Y-97836782D01*
X155797609Y-97701154D01*
X155443943Y-97700846D01*
X155117080Y-97835903D01*
X154866782Y-98085764D01*
X154731154Y-98412391D01*
X154730846Y-98766057D01*
X117247040Y-98766057D01*
X117247040Y-98758000D01*
X117202762Y-98522683D01*
X117192607Y-98506901D01*
X117196031Y-98501890D01*
X117247040Y-98250000D01*
X117247040Y-96218000D01*
X117243852Y-96201057D01*
X138775846Y-96201057D01*
X138910903Y-96527920D01*
X139160764Y-96778218D01*
X139487391Y-96913846D01*
X139841057Y-96914154D01*
X140167920Y-96779097D01*
X140418218Y-96529236D01*
X140533728Y-96251057D01*
X145385846Y-96251057D01*
X145520903Y-96577920D01*
X145770764Y-96828218D01*
X146097391Y-96963846D01*
X146451057Y-96964154D01*
X146777920Y-96829097D01*
X147028218Y-96579236D01*
X147163846Y-96252609D01*
X147164154Y-95898943D01*
X147125775Y-95806057D01*
X158200846Y-95806057D01*
X158335903Y-96132920D01*
X158585764Y-96383218D01*
X158912391Y-96518846D01*
X159266057Y-96519154D01*
X159592920Y-96384097D01*
X159843218Y-96134236D01*
X159978846Y-95807609D01*
X159979154Y-95453943D01*
X159844097Y-95127080D01*
X159594236Y-94876782D01*
X159267609Y-94741154D01*
X158913943Y-94740846D01*
X158587080Y-94875903D01*
X158336782Y-95125764D01*
X158201154Y-95452391D01*
X158200846Y-95806057D01*
X147125775Y-95806057D01*
X147029097Y-95572080D01*
X146779236Y-95321782D01*
X146452609Y-95186154D01*
X146098943Y-95185846D01*
X145772080Y-95320903D01*
X145521782Y-95570764D01*
X145386154Y-95897391D01*
X145385846Y-96251057D01*
X140533728Y-96251057D01*
X140553846Y-96202609D01*
X140554154Y-95848943D01*
X140419097Y-95522080D01*
X140169236Y-95271782D01*
X139842609Y-95136154D01*
X139488943Y-95135846D01*
X139162080Y-95270903D01*
X138911782Y-95520764D01*
X138776154Y-95847391D01*
X138775846Y-96201057D01*
X117243852Y-96201057D01*
X117202762Y-95982683D01*
X117192607Y-95966901D01*
X117196031Y-95961890D01*
X117247040Y-95710000D01*
X117247040Y-95246057D01*
X129490846Y-95246057D01*
X129625903Y-95572920D01*
X129875764Y-95823218D01*
X130202391Y-95958846D01*
X130556057Y-95959154D01*
X130882920Y-95824097D01*
X131133218Y-95574236D01*
X131268846Y-95247609D01*
X131269154Y-94893943D01*
X131134097Y-94567080D01*
X130884236Y-94316782D01*
X130557609Y-94181154D01*
X130203943Y-94180846D01*
X129877080Y-94315903D01*
X129626782Y-94565764D01*
X129491154Y-94892391D01*
X129490846Y-95246057D01*
X117247040Y-95246057D01*
X117247040Y-93678000D01*
X117244793Y-93666057D01*
X125140846Y-93666057D01*
X125275903Y-93992920D01*
X125525764Y-94243218D01*
X125852391Y-94378846D01*
X126206057Y-94379154D01*
X126532920Y-94244097D01*
X126783218Y-93994236D01*
X126794949Y-93965986D01*
X126925903Y-94282920D01*
X127175764Y-94533218D01*
X127502391Y-94668846D01*
X127856057Y-94669154D01*
X128182920Y-94534097D01*
X128433218Y-94284236D01*
X128568846Y-93957609D01*
X128569154Y-93603943D01*
X128434097Y-93277080D01*
X128333251Y-93176057D01*
X147850846Y-93176057D01*
X147985903Y-93502920D01*
X148235764Y-93753218D01*
X148562391Y-93888846D01*
X148916057Y-93889154D01*
X149242920Y-93754097D01*
X149493218Y-93504236D01*
X149628846Y-93177609D01*
X149629154Y-92823943D01*
X149494097Y-92497080D01*
X149244236Y-92246782D01*
X148917609Y-92111154D01*
X148563943Y-92110846D01*
X148237080Y-92245903D01*
X147986782Y-92495764D01*
X147851154Y-92822391D01*
X147850846Y-93176057D01*
X128333251Y-93176057D01*
X128184236Y-93026782D01*
X127857609Y-92891154D01*
X127503943Y-92890846D01*
X127177080Y-93025903D01*
X126926782Y-93275764D01*
X126915051Y-93304014D01*
X126784097Y-92987080D01*
X126534236Y-92736782D01*
X126207609Y-92601154D01*
X125853943Y-92600846D01*
X125527080Y-92735903D01*
X125276782Y-92985764D01*
X125141154Y-93312391D01*
X125140846Y-93666057D01*
X117244793Y-93666057D01*
X117202762Y-93442683D01*
X117192607Y-93426901D01*
X117196031Y-93421890D01*
X117247040Y-93170000D01*
X117247040Y-91986057D01*
X120500846Y-91986057D01*
X120635903Y-92312920D01*
X120885764Y-92563218D01*
X121212391Y-92698846D01*
X121566057Y-92699154D01*
X121892920Y-92564097D01*
X122143218Y-92314236D01*
X122278846Y-91987609D01*
X122278847Y-91986057D01*
X130280846Y-91986057D01*
X130415903Y-92312920D01*
X130665764Y-92563218D01*
X130992391Y-92698846D01*
X131346057Y-92699154D01*
X131672920Y-92564097D01*
X131923218Y-92314236D01*
X132026271Y-92066057D01*
X151160846Y-92066057D01*
X151295903Y-92392920D01*
X151545764Y-92643218D01*
X151872391Y-92778846D01*
X152226057Y-92779154D01*
X152552920Y-92644097D01*
X152803218Y-92394236D01*
X152938846Y-92067609D01*
X152939154Y-91713943D01*
X152804097Y-91387080D01*
X152554236Y-91136782D01*
X152227609Y-91001154D01*
X151873943Y-91000846D01*
X151547080Y-91135903D01*
X151296782Y-91385764D01*
X151161154Y-91712391D01*
X151160846Y-92066057D01*
X132026271Y-92066057D01*
X132058846Y-91987609D01*
X132059154Y-91633943D01*
X131924097Y-91307080D01*
X131674236Y-91056782D01*
X131347609Y-90921154D01*
X130993943Y-90920846D01*
X130667080Y-91055903D01*
X130416782Y-91305764D01*
X130281154Y-91632391D01*
X130280846Y-91986057D01*
X122278847Y-91986057D01*
X122279154Y-91633943D01*
X122144097Y-91307080D01*
X121894236Y-91056782D01*
X121567609Y-90921154D01*
X121213943Y-90920846D01*
X120887080Y-91055903D01*
X120636782Y-91305764D01*
X120501154Y-91632391D01*
X120500846Y-91986057D01*
X117247040Y-91986057D01*
X117247040Y-91138000D01*
X117202762Y-90902683D01*
X117192607Y-90886901D01*
X117196031Y-90881890D01*
X117247040Y-90630000D01*
X117247040Y-89606057D01*
X120330846Y-89606057D01*
X120465903Y-89932920D01*
X120715764Y-90183218D01*
X121042391Y-90318846D01*
X121396057Y-90319154D01*
X121722920Y-90184097D01*
X121841166Y-90066057D01*
X148060846Y-90066057D01*
X148195903Y-90392920D01*
X148445764Y-90643218D01*
X148772391Y-90778846D01*
X149126057Y-90779154D01*
X149452920Y-90644097D01*
X149703218Y-90394236D01*
X149838846Y-90067609D01*
X149839154Y-89713943D01*
X149704097Y-89387080D01*
X149454236Y-89136782D01*
X149127609Y-89001154D01*
X148773943Y-89000846D01*
X148447080Y-89135903D01*
X148196782Y-89385764D01*
X148061154Y-89712391D01*
X148060846Y-90066057D01*
X121841166Y-90066057D01*
X121973218Y-89934236D01*
X122108846Y-89607609D01*
X122109154Y-89253943D01*
X121974097Y-88927080D01*
X121963094Y-88916057D01*
X152830846Y-88916057D01*
X152965903Y-89242920D01*
X153215764Y-89493218D01*
X153542391Y-89628846D01*
X153896057Y-89629154D01*
X154222920Y-89494097D01*
X154473218Y-89244236D01*
X154608846Y-88917609D01*
X154609154Y-88563943D01*
X154474097Y-88237080D01*
X154224236Y-87986782D01*
X153897609Y-87851154D01*
X153543943Y-87850846D01*
X153217080Y-87985903D01*
X152966782Y-88235764D01*
X152831154Y-88562391D01*
X152830846Y-88916057D01*
X121963094Y-88916057D01*
X121724236Y-88676782D01*
X121397609Y-88541154D01*
X121043943Y-88540846D01*
X120717080Y-88675903D01*
X120466782Y-88925764D01*
X120331154Y-89252391D01*
X120330846Y-89606057D01*
X117247040Y-89606057D01*
X117247040Y-88598000D01*
X117202762Y-88362683D01*
X117063690Y-88146559D01*
X116851490Y-88001569D01*
X116599600Y-87950560D01*
X114872400Y-87950560D01*
X114637083Y-87994838D01*
X114420959Y-88133910D01*
X114275969Y-88346110D01*
X114267600Y-88387439D01*
X114255670Y-88369585D01*
X113769489Y-88044729D01*
X113196000Y-87930655D01*
X112622511Y-88044729D01*
X112136330Y-88369585D01*
X111929539Y-88679069D01*
X111558036Y-88263268D01*
X111030791Y-88009291D01*
X111015026Y-88006642D01*
X110783000Y-88127783D01*
X110529000Y-88127783D01*
X110296974Y-88006642D01*
X110281209Y-88009291D01*
X109753964Y-88263268D01*
X109364046Y-88699680D01*
X109170816Y-89252087D01*
X107785000Y-89252087D01*
X107785000Y-85251913D01*
X109204816Y-85251913D01*
X109398046Y-85804320D01*
X109787964Y-86240732D01*
X110315209Y-86494709D01*
X110330974Y-86497358D01*
X110563000Y-86376217D01*
X110563000Y-85017000D01*
X109349076Y-85017000D01*
X109204816Y-85251913D01*
X107785000Y-85251913D01*
X107785000Y-84528087D01*
X109204816Y-84528087D01*
X109349076Y-84763000D01*
X110563000Y-84763000D01*
X110563000Y-83403783D01*
X110817000Y-83403783D01*
X110817000Y-84763000D01*
X110837000Y-84763000D01*
X110837000Y-85017000D01*
X110817000Y-85017000D01*
X110817000Y-86376217D01*
X111049026Y-86497358D01*
X111064791Y-86494709D01*
X111592036Y-86240732D01*
X111963539Y-85824931D01*
X112170330Y-86134415D01*
X112656511Y-86459271D01*
X113230000Y-86573345D01*
X113803489Y-86459271D01*
X114289670Y-86134415D01*
X114500000Y-85819634D01*
X114710330Y-86134415D01*
X115196511Y-86459271D01*
X115770000Y-86573345D01*
X116343489Y-86459271D01*
X116829670Y-86134415D01*
X116839243Y-86120087D01*
X116843238Y-86141317D01*
X116982310Y-86357441D01*
X117194510Y-86502431D01*
X117446400Y-86553440D01*
X119173600Y-86553440D01*
X119408917Y-86509162D01*
X119478139Y-86464619D01*
X119356782Y-86585764D01*
X119221154Y-86912391D01*
X119220846Y-87266057D01*
X119355903Y-87592920D01*
X119605764Y-87843218D01*
X119932391Y-87978846D01*
X120286057Y-87979154D01*
X120612920Y-87844097D01*
X120620974Y-87836057D01*
X147700846Y-87836057D01*
X147835903Y-88162920D01*
X148085764Y-88413218D01*
X148412391Y-88548846D01*
X148766057Y-88549154D01*
X149092920Y-88414097D01*
X149343218Y-88164236D01*
X149478846Y-87837609D01*
X149479154Y-87483943D01*
X149344097Y-87157080D01*
X149094236Y-86906782D01*
X148767609Y-86771154D01*
X148413943Y-86770846D01*
X148087080Y-86905903D01*
X147836782Y-87155764D01*
X147701154Y-87482391D01*
X147700846Y-87836057D01*
X120620974Y-87836057D01*
X120863218Y-87594236D01*
X120998846Y-87267609D01*
X120998866Y-87244163D01*
X121082391Y-87278846D01*
X121436057Y-87279154D01*
X121762920Y-87144097D01*
X121861131Y-87046057D01*
X131210846Y-87046057D01*
X131345903Y-87372920D01*
X131595764Y-87623218D01*
X131922391Y-87758846D01*
X132276057Y-87759154D01*
X132602920Y-87624097D01*
X132853218Y-87374236D01*
X132988846Y-87047609D01*
X132988908Y-86976057D01*
X135160846Y-86976057D01*
X135295903Y-87302920D01*
X135545764Y-87553218D01*
X135872391Y-87688846D01*
X136226057Y-87689154D01*
X136552920Y-87554097D01*
X136803218Y-87304236D01*
X136938846Y-86977609D01*
X136939038Y-86756057D01*
X151000846Y-86756057D01*
X151135903Y-87082920D01*
X151385764Y-87333218D01*
X151712391Y-87468846D01*
X152066057Y-87469154D01*
X152392920Y-87334097D01*
X152643218Y-87084236D01*
X152778846Y-86757609D01*
X152779154Y-86403943D01*
X152644097Y-86077080D01*
X152394236Y-85826782D01*
X152067609Y-85691154D01*
X151713943Y-85690846D01*
X151387080Y-85825903D01*
X151136782Y-86075764D01*
X151001154Y-86402391D01*
X151000846Y-86756057D01*
X136939038Y-86756057D01*
X136939154Y-86623943D01*
X136804097Y-86297080D01*
X136554236Y-86046782D01*
X136227609Y-85911154D01*
X135873943Y-85910846D01*
X135547080Y-86045903D01*
X135296782Y-86295764D01*
X135161154Y-86622391D01*
X135160846Y-86976057D01*
X132988908Y-86976057D01*
X132989154Y-86693943D01*
X132854097Y-86367080D01*
X132604236Y-86116782D01*
X132277609Y-85981154D01*
X131923943Y-85980846D01*
X131597080Y-86115903D01*
X131346782Y-86365764D01*
X131211154Y-86692391D01*
X131210846Y-87046057D01*
X121861131Y-87046057D01*
X122013218Y-86894236D01*
X122148846Y-86567609D01*
X122149154Y-86213943D01*
X122014097Y-85887080D01*
X121764236Y-85636782D01*
X121437609Y-85501154D01*
X121083943Y-85500846D01*
X120757080Y-85635903D01*
X120506782Y-85885764D01*
X120371154Y-86212391D01*
X120371134Y-86235837D01*
X120287609Y-86201154D01*
X119933943Y-86200846D01*
X119664654Y-86312114D01*
X119770031Y-86157890D01*
X119821040Y-85906000D01*
X119821040Y-85076057D01*
X124580846Y-85076057D01*
X124715903Y-85402920D01*
X124965764Y-85653218D01*
X125292391Y-85788846D01*
X125646057Y-85789154D01*
X125972920Y-85654097D01*
X126054941Y-85572219D01*
X126155764Y-85673218D01*
X126482391Y-85808846D01*
X126836057Y-85809154D01*
X127162920Y-85674097D01*
X127413218Y-85424236D01*
X127548846Y-85097609D01*
X127549143Y-84756057D01*
X147930846Y-84756057D01*
X148065903Y-85082920D01*
X148315764Y-85333218D01*
X148642391Y-85468846D01*
X148996057Y-85469154D01*
X149322920Y-85334097D01*
X149573218Y-85084236D01*
X149708846Y-84757609D01*
X149709154Y-84403943D01*
X149574097Y-84077080D01*
X149324236Y-83826782D01*
X148997609Y-83691154D01*
X148643943Y-83690846D01*
X148317080Y-83825903D01*
X148066782Y-84075764D01*
X147931154Y-84402391D01*
X147930846Y-84756057D01*
X127549143Y-84756057D01*
X127549154Y-84743943D01*
X127414097Y-84417080D01*
X127164236Y-84166782D01*
X126837609Y-84031154D01*
X126483943Y-84030846D01*
X126157080Y-84165903D01*
X126075059Y-84247781D01*
X125974236Y-84146782D01*
X125647609Y-84011154D01*
X125293943Y-84010846D01*
X124967080Y-84145903D01*
X124716782Y-84395764D01*
X124581154Y-84722391D01*
X124580846Y-85076057D01*
X119821040Y-85076057D01*
X119821040Y-83874000D01*
X119776762Y-83638683D01*
X119762203Y-83616057D01*
X152850846Y-83616057D01*
X152985903Y-83942920D01*
X153235764Y-84193218D01*
X153562391Y-84328846D01*
X153916057Y-84329154D01*
X154242920Y-84194097D01*
X154493218Y-83944236D01*
X154628846Y-83617609D01*
X154629154Y-83263943D01*
X154494097Y-82937080D01*
X154244236Y-82686782D01*
X153917609Y-82551154D01*
X153563943Y-82550846D01*
X153237080Y-82685903D01*
X152986782Y-82935764D01*
X152851154Y-83262391D01*
X152850846Y-83616057D01*
X119762203Y-83616057D01*
X119637690Y-83422559D01*
X119425490Y-83277569D01*
X119173600Y-83226560D01*
X117446400Y-83226560D01*
X117211083Y-83270838D01*
X116994959Y-83409910D01*
X116849969Y-83622110D01*
X116841600Y-83663439D01*
X116829670Y-83645585D01*
X116343489Y-83320729D01*
X115770000Y-83206655D01*
X115196511Y-83320729D01*
X114710330Y-83645585D01*
X114500000Y-83960366D01*
X114289670Y-83645585D01*
X113803489Y-83320729D01*
X113230000Y-83206655D01*
X112656511Y-83320729D01*
X112170330Y-83645585D01*
X111963539Y-83955069D01*
X111592036Y-83539268D01*
X111064791Y-83285291D01*
X111049026Y-83282642D01*
X110817000Y-83403783D01*
X110563000Y-83403783D01*
X110330974Y-83282642D01*
X110315209Y-83285291D01*
X109787964Y-83539268D01*
X109398046Y-83975680D01*
X109204816Y-84528087D01*
X107785000Y-84528087D01*
X107785000Y-80422815D01*
X108964630Y-80422815D01*
X109288980Y-81207800D01*
X109889041Y-81808909D01*
X110673459Y-82134628D01*
X111522815Y-82135370D01*
X112307800Y-81811020D01*
X112833987Y-81285750D01*
X115865000Y-81285750D01*
X115865000Y-81726310D01*
X115961673Y-81959699D01*
X116140302Y-82138327D01*
X116373691Y-82235000D01*
X116814250Y-82235000D01*
X116973000Y-82076250D01*
X116973000Y-81127000D01*
X116023750Y-81127000D01*
X115865000Y-81285750D01*
X112833987Y-81285750D01*
X112908909Y-81210959D01*
X113234628Y-80426541D01*
X113235370Y-79577185D01*
X112927067Y-78831036D01*
X115852193Y-78831036D01*
X115882518Y-79321413D01*
X116011836Y-79633617D01*
X116237263Y-79683129D01*
X116121570Y-79798822D01*
X116171499Y-79848751D01*
X116140302Y-79861673D01*
X115961673Y-80040301D01*
X115865000Y-80273690D01*
X115865000Y-80714250D01*
X116023750Y-80873000D01*
X116973000Y-80873000D01*
X116973000Y-80853000D01*
X117227000Y-80853000D01*
X117227000Y-80873000D01*
X117247000Y-80873000D01*
X117247000Y-81127000D01*
X117227000Y-81127000D01*
X117227000Y-82076250D01*
X117385750Y-82235000D01*
X117826309Y-82235000D01*
X118059698Y-82138327D01*
X118238327Y-81959699D01*
X118260224Y-81906836D01*
X118399515Y-82046371D01*
X118853266Y-82234785D01*
X119344579Y-82235214D01*
X119798657Y-82047592D01*
X120100221Y-81746554D01*
X120399515Y-82046371D01*
X120853266Y-82234785D01*
X121344579Y-82235214D01*
X121798657Y-82047592D01*
X122100221Y-81746554D01*
X122399515Y-82046371D01*
X122853266Y-82234785D01*
X123344579Y-82235214D01*
X123798657Y-82047592D01*
X124100221Y-81746554D01*
X124399515Y-82046371D01*
X124853266Y-82234785D01*
X125344579Y-82235214D01*
X125798657Y-82047592D01*
X126100221Y-81746554D01*
X126399515Y-82046371D01*
X126853266Y-82234785D01*
X127256577Y-82235137D01*
X127325903Y-82402920D01*
X127575764Y-82653218D01*
X127902391Y-82788846D01*
X128256057Y-82789154D01*
X128582920Y-82654097D01*
X128833218Y-82404236D01*
X128903562Y-82234829D01*
X129236569Y-82235120D01*
X129305903Y-82402920D01*
X129555764Y-82653218D01*
X129882391Y-82788846D01*
X130236057Y-82789154D01*
X130562920Y-82654097D01*
X130813218Y-82404236D01*
X130883570Y-82234811D01*
X131344579Y-82235214D01*
X131798657Y-82047592D01*
X132100221Y-81746554D01*
X132399515Y-82046371D01*
X132853266Y-82234785D01*
X133344579Y-82235214D01*
X133798657Y-82047592D01*
X134100221Y-81746554D01*
X134399515Y-82046371D01*
X134853266Y-82234785D01*
X135344579Y-82235214D01*
X135798657Y-82047592D01*
X136100221Y-81746554D01*
X136399515Y-82046371D01*
X136853266Y-82234785D01*
X137344579Y-82235214D01*
X137798657Y-82047592D01*
X138100221Y-81746554D01*
X138399515Y-82046371D01*
X138853266Y-82234785D01*
X139344579Y-82235214D01*
X139798657Y-82047592D01*
X140100221Y-81746554D01*
X140399515Y-82046371D01*
X140853266Y-82234785D01*
X141344579Y-82235214D01*
X141798657Y-82047592D01*
X142100221Y-81746554D01*
X142399515Y-82046371D01*
X142853266Y-82234785D01*
X143344579Y-82235214D01*
X143798657Y-82047592D01*
X144100221Y-81746554D01*
X144399515Y-82046371D01*
X144853266Y-82234785D01*
X145344579Y-82235214D01*
X145798657Y-82047592D01*
X146100221Y-81746554D01*
X146399515Y-82046371D01*
X146853266Y-82234785D01*
X147344579Y-82235214D01*
X147798657Y-82047592D01*
X148100221Y-81746554D01*
X148399515Y-82046371D01*
X148853266Y-82234785D01*
X149344579Y-82235214D01*
X149798657Y-82047592D01*
X150100221Y-81746554D01*
X150399515Y-82046371D01*
X150853266Y-82234785D01*
X151344579Y-82235214D01*
X151798657Y-82047592D01*
X152100221Y-81746554D01*
X152399515Y-82046371D01*
X152853266Y-82234785D01*
X153344579Y-82235214D01*
X153798657Y-82047592D01*
X153983837Y-81862735D01*
X154416870Y-81862735D01*
X154466383Y-82088164D01*
X154931036Y-82247807D01*
X155421413Y-82217482D01*
X155733617Y-82088164D01*
X155740391Y-82057320D01*
X171130285Y-82057320D01*
X171259533Y-82350123D01*
X171959806Y-82618388D01*
X172709435Y-82598250D01*
X173308467Y-82350123D01*
X173437715Y-82057320D01*
X172284000Y-80903605D01*
X171130285Y-82057320D01*
X155740391Y-82057320D01*
X155783130Y-81862735D01*
X155100000Y-81179605D01*
X154416870Y-81862735D01*
X153983837Y-81862735D01*
X154146371Y-81700485D01*
X154160572Y-81666285D01*
X154237265Y-81683130D01*
X154920395Y-81000000D01*
X155279605Y-81000000D01*
X155962735Y-81683130D01*
X156188164Y-81633617D01*
X156347807Y-81168964D01*
X156317482Y-80678587D01*
X156202009Y-80399806D01*
X170389612Y-80399806D01*
X170409750Y-81149435D01*
X170657877Y-81748467D01*
X170950680Y-81877715D01*
X172104395Y-80724000D01*
X172463605Y-80724000D01*
X173617320Y-81877715D01*
X173910123Y-81748467D01*
X174159574Y-81097305D01*
X175398674Y-81097305D01*
X175685043Y-81790372D01*
X176214839Y-82321093D01*
X176907405Y-82608672D01*
X177657305Y-82609326D01*
X178350372Y-82322957D01*
X178881093Y-81793161D01*
X179168672Y-81100595D01*
X179169326Y-80350695D01*
X178882957Y-79657628D01*
X178699650Y-79474000D01*
X180386560Y-79474000D01*
X180386560Y-81974000D01*
X180430838Y-82209317D01*
X180569910Y-82425441D01*
X180782110Y-82570431D01*
X181034000Y-82621440D01*
X183534000Y-82621440D01*
X183769317Y-82577162D01*
X183985441Y-82438090D01*
X184130431Y-82225890D01*
X184181440Y-81974000D01*
X184181440Y-80422815D01*
X185964630Y-80422815D01*
X186288980Y-81207800D01*
X186889041Y-81808909D01*
X187673459Y-82134628D01*
X188522815Y-82135370D01*
X189307800Y-81811020D01*
X189908909Y-81210959D01*
X190234628Y-80426541D01*
X190235370Y-79577185D01*
X189911020Y-78792200D01*
X189310959Y-78191091D01*
X188526541Y-77865372D01*
X187677185Y-77864630D01*
X186892200Y-78188980D01*
X186291091Y-78789041D01*
X185965372Y-79573459D01*
X185964630Y-80422815D01*
X184181440Y-80422815D01*
X184181440Y-79474000D01*
X184137162Y-79238683D01*
X183998090Y-79022559D01*
X183785890Y-78877569D01*
X183534000Y-78826560D01*
X181034000Y-78826560D01*
X180798683Y-78870838D01*
X180582559Y-79009910D01*
X180437569Y-79222110D01*
X180386560Y-79474000D01*
X178699650Y-79474000D01*
X178353161Y-79126907D01*
X177660595Y-78839328D01*
X176910695Y-78838674D01*
X176217628Y-79125043D01*
X175686907Y-79654839D01*
X175399328Y-80347405D01*
X175398674Y-81097305D01*
X174159574Y-81097305D01*
X174178388Y-81048194D01*
X174158250Y-80298565D01*
X173910123Y-79699533D01*
X173617320Y-79570285D01*
X172463605Y-80724000D01*
X172104395Y-80724000D01*
X170950680Y-79570285D01*
X170657877Y-79699533D01*
X170389612Y-80399806D01*
X156202009Y-80399806D01*
X156188164Y-80366383D01*
X155962735Y-80316870D01*
X155279605Y-81000000D01*
X154920395Y-81000000D01*
X154237265Y-80316870D01*
X154160935Y-80333635D01*
X154147592Y-80301343D01*
X153846554Y-79999779D01*
X153983837Y-79862735D01*
X154416870Y-79862735D01*
X154447019Y-80000000D01*
X154416870Y-80137265D01*
X155100000Y-80820395D01*
X155783130Y-80137265D01*
X155752981Y-80000000D01*
X155783130Y-79862735D01*
X155100000Y-79179605D01*
X154416870Y-79862735D01*
X153983837Y-79862735D01*
X154146371Y-79700485D01*
X154160572Y-79666285D01*
X154237265Y-79683130D01*
X154920395Y-79000000D01*
X155279605Y-79000000D01*
X155962735Y-79683130D01*
X156188164Y-79633617D01*
X156271630Y-79390680D01*
X171130285Y-79390680D01*
X172284000Y-80544395D01*
X173437715Y-79390680D01*
X173308467Y-79097877D01*
X172608194Y-78829612D01*
X171858565Y-78849750D01*
X171259533Y-79097877D01*
X171130285Y-79390680D01*
X156271630Y-79390680D01*
X156347807Y-79168964D01*
X156317482Y-78678587D01*
X156188164Y-78366383D01*
X155962735Y-78316870D01*
X155279605Y-79000000D01*
X154920395Y-79000000D01*
X154237265Y-78316870D01*
X154160935Y-78333635D01*
X154147592Y-78301343D01*
X153983801Y-78137265D01*
X154416870Y-78137265D01*
X155100000Y-78820395D01*
X155783130Y-78137265D01*
X155733617Y-77911836D01*
X155268964Y-77752193D01*
X154778587Y-77782518D01*
X154466383Y-77911836D01*
X154416870Y-78137265D01*
X153983801Y-78137265D01*
X153800485Y-77953629D01*
X153346734Y-77765215D01*
X152855421Y-77764786D01*
X152401343Y-77952408D01*
X152099779Y-78253446D01*
X151800485Y-77953629D01*
X151346734Y-77765215D01*
X150855421Y-77764786D01*
X150401343Y-77952408D01*
X150099779Y-78253446D01*
X149800485Y-77953629D01*
X149346734Y-77765215D01*
X148855421Y-77764786D01*
X148401343Y-77952408D01*
X148099779Y-78253446D01*
X147800485Y-77953629D01*
X147346734Y-77765215D01*
X146855421Y-77764786D01*
X146401343Y-77952408D01*
X146099779Y-78253446D01*
X145800485Y-77953629D01*
X145346734Y-77765215D01*
X144855421Y-77764786D01*
X144401343Y-77952408D01*
X144099779Y-78253446D01*
X143800485Y-77953629D01*
X143346734Y-77765215D01*
X142855421Y-77764786D01*
X142401343Y-77952408D01*
X142099779Y-78253446D01*
X141800485Y-77953629D01*
X141346734Y-77765215D01*
X140855421Y-77764786D01*
X140401343Y-77952408D01*
X140099779Y-78253446D01*
X139800485Y-77953629D01*
X139346734Y-77765215D01*
X138855421Y-77764786D01*
X138401343Y-77952408D01*
X138099779Y-78253446D01*
X137800485Y-77953629D01*
X137346734Y-77765215D01*
X136855421Y-77764786D01*
X136401343Y-77952408D01*
X136099779Y-78253446D01*
X135800485Y-77953629D01*
X135346734Y-77765215D01*
X134855421Y-77764786D01*
X134401343Y-77952408D01*
X134099779Y-78253446D01*
X133800485Y-77953629D01*
X133346734Y-77765215D01*
X132855421Y-77764786D01*
X132401343Y-77952408D01*
X132099779Y-78253446D01*
X131800485Y-77953629D01*
X131346734Y-77765215D01*
X130855421Y-77764786D01*
X130401343Y-77952408D01*
X130099779Y-78253446D01*
X129800485Y-77953629D01*
X129346734Y-77765215D01*
X128855421Y-77764786D01*
X128401343Y-77952408D01*
X128099779Y-78253446D01*
X127800485Y-77953629D01*
X127346734Y-77765215D01*
X126855421Y-77764786D01*
X126401343Y-77952408D01*
X126099779Y-78253446D01*
X125800485Y-77953629D01*
X125346734Y-77765215D01*
X124855421Y-77764786D01*
X124401343Y-77952408D01*
X124099779Y-78253446D01*
X123800485Y-77953629D01*
X123346734Y-77765215D01*
X122855421Y-77764786D01*
X122401343Y-77952408D01*
X122099779Y-78253446D01*
X121800485Y-77953629D01*
X121346734Y-77765215D01*
X120855421Y-77764786D01*
X120401343Y-77952408D01*
X120099779Y-78253446D01*
X119800485Y-77953629D01*
X119346734Y-77765215D01*
X118855421Y-77764786D01*
X118401343Y-77952408D01*
X118053629Y-78299515D01*
X118039428Y-78333715D01*
X117962735Y-78316870D01*
X117279605Y-79000000D01*
X117293748Y-79014143D01*
X117114143Y-79193748D01*
X117100000Y-79179605D01*
X117085858Y-79193748D01*
X116906253Y-79014143D01*
X116920395Y-79000000D01*
X116237265Y-78316870D01*
X116011836Y-78366383D01*
X115852193Y-78831036D01*
X112927067Y-78831036D01*
X112911020Y-78792200D01*
X112310959Y-78191091D01*
X112181332Y-78137265D01*
X116416870Y-78137265D01*
X117100000Y-78820395D01*
X117783130Y-78137265D01*
X117733617Y-77911836D01*
X117268964Y-77752193D01*
X116778587Y-77782518D01*
X116466383Y-77911836D01*
X116416870Y-78137265D01*
X112181332Y-78137265D01*
X111526541Y-77865372D01*
X110677185Y-77864630D01*
X109892200Y-78188980D01*
X109291091Y-78789041D01*
X108965372Y-79573459D01*
X108964630Y-80422815D01*
X107785000Y-80422815D01*
X107785000Y-76685000D01*
X191414492Y-76685000D01*
X191414492Y-129315000D01*
X191414492Y-129315000D01*
G37*
X191414492Y-129315000D02*
X107785000Y-129315000D01*
X107785000Y-127819026D01*
X108921642Y-127819026D01*
X108924291Y-127834791D01*
X109178268Y-128362036D01*
X109614680Y-128751954D01*
X110167087Y-128945184D01*
X110402000Y-128800924D01*
X110402000Y-127587000D01*
X110656000Y-127587000D01*
X110656000Y-128800924D01*
X110890913Y-128945184D01*
X111443320Y-128751954D01*
X111799000Y-128434167D01*
X112154680Y-128751954D01*
X112707087Y-128945184D01*
X112942000Y-128800924D01*
X112942000Y-127587000D01*
X113196000Y-127587000D01*
X113196000Y-128800924D01*
X113430913Y-128945184D01*
X113983320Y-128751954D01*
X114339000Y-128434167D01*
X114694680Y-128751954D01*
X115247087Y-128945184D01*
X115482000Y-128800924D01*
X115482000Y-127587000D01*
X115736000Y-127587000D01*
X115736000Y-128800924D01*
X115970913Y-128945184D01*
X116523320Y-128751954D01*
X116879000Y-128434167D01*
X117234680Y-128751954D01*
X117787087Y-128945184D01*
X118022000Y-128800924D01*
X118022000Y-127587000D01*
X118276000Y-127587000D01*
X118276000Y-128800924D01*
X118510913Y-128945184D01*
X119063320Y-128751954D01*
X119419000Y-128434167D01*
X119774680Y-128751954D01*
X120327087Y-128945184D01*
X120562000Y-128800924D01*
X120562000Y-127587000D01*
X120816000Y-127587000D01*
X120816000Y-128800924D01*
X121050913Y-128945184D01*
X121603320Y-128751954D01*
X121959000Y-128434167D01*
X122314680Y-128751954D01*
X122867087Y-128945184D01*
X123102000Y-128800924D01*
X123102000Y-127587000D01*
X123356000Y-127587000D01*
X123356000Y-128800924D01*
X123590913Y-128945184D01*
X124143320Y-128751954D01*
X124499000Y-128434167D01*
X124854680Y-128751954D01*
X125407087Y-128945184D01*
X125642000Y-128800924D01*
X125642000Y-127587000D01*
X125896000Y-127587000D01*
X125896000Y-128800924D01*
X126130913Y-128945184D01*
X126683320Y-128751954D01*
X127039000Y-128434167D01*
X127394680Y-128751954D01*
X127947087Y-128945184D01*
X128182000Y-128800924D01*
X128182000Y-127587000D01*
X128436000Y-127587000D01*
X128436000Y-128800924D01*
X128670913Y-128945184D01*
X129223320Y-128751954D01*
X129659732Y-128362036D01*
X129913709Y-127834791D01*
X129916358Y-127819026D01*
X129795217Y-127587000D01*
X128436000Y-127587000D01*
X128182000Y-127587000D01*
X125896000Y-127587000D01*
X125642000Y-127587000D01*
X123356000Y-127587000D01*
X123102000Y-127587000D01*
X120816000Y-127587000D01*
X120562000Y-127587000D01*
X118276000Y-127587000D01*
X118022000Y-127587000D01*
X115736000Y-127587000D01*
X115482000Y-127587000D01*
X113196000Y-127587000D01*
X112942000Y-127587000D01*
X110656000Y-127587000D01*
X110402000Y-127587000D01*
X109042783Y-127587000D01*
X108921642Y-127819026D01*
X107785000Y-127819026D01*
X107785000Y-124920000D01*
X108845655Y-124920000D01*
X108959729Y-125493489D01*
X109284585Y-125979670D01*
X109594069Y-126186461D01*
X109178268Y-126557964D01*
X108924291Y-127085209D01*
X108921642Y-127100974D01*
X109042783Y-127333000D01*
X110402000Y-127333000D01*
X110402000Y-127313000D01*
X110656000Y-127313000D01*
X110656000Y-127333000D01*
X112942000Y-127333000D01*
X112942000Y-127313000D01*
X113196000Y-127313000D01*
X113196000Y-127333000D01*
X115482000Y-127333000D01*
X115482000Y-127313000D01*
X115736000Y-127313000D01*
X115736000Y-127333000D01*
X118022000Y-127333000D01*
X118022000Y-127313000D01*
X118276000Y-127313000D01*
X118276000Y-127333000D01*
X120562000Y-127333000D01*
X120562000Y-127313000D01*
X120816000Y-127313000D01*
X120816000Y-127333000D01*
X123102000Y-127333000D01*
X123102000Y-127313000D01*
X123356000Y-127313000D01*
X123356000Y-127333000D01*
X125642000Y-127333000D01*
X125642000Y-127313000D01*
X125896000Y-127313000D01*
X125896000Y-127333000D01*
X128182000Y-127333000D01*
X128182000Y-127313000D01*
X128436000Y-127313000D01*
X128436000Y-127333000D01*
X129795217Y-127333000D01*
X129916358Y-127100974D01*
X129913709Y-127085209D01*
X129659732Y-126557964D01*
X129243931Y-126186461D01*
X129553415Y-125979670D01*
X129878271Y-125493489D01*
X129992345Y-124920000D01*
X132848655Y-124920000D01*
X132962729Y-125493489D01*
X133287585Y-125979670D01*
X133602366Y-126190000D01*
X133287585Y-126400330D01*
X132962729Y-126886511D01*
X132848655Y-127460000D01*
X132962729Y-128033489D01*
X133287585Y-128519670D01*
X133773766Y-128844526D01*
X134347255Y-128958600D01*
X134716745Y-128958600D01*
X135290234Y-128844526D01*
X135776415Y-128519670D01*
X136101271Y-128033489D01*
X136143930Y-127819026D01*
X139401642Y-127819026D01*
X139404291Y-127834791D01*
X139658268Y-128362036D01*
X140094680Y-128751954D01*
X140647087Y-128945184D01*
X140882000Y-128800924D01*
X140882000Y-127587000D01*
X141136000Y-127587000D01*
X141136000Y-128800924D01*
X141370913Y-128945184D01*
X141923320Y-128751954D01*
X142279000Y-128434167D01*
X142634680Y-128751954D01*
X143187087Y-128945184D01*
X143422000Y-128800924D01*
X143422000Y-127587000D01*
X143676000Y-127587000D01*
X143676000Y-128800924D01*
X143910913Y-128945184D01*
X144463320Y-128751954D01*
X144819000Y-128434167D01*
X145174680Y-128751954D01*
X145727087Y-128945184D01*
X145962000Y-128800924D01*
X145962000Y-127587000D01*
X146216000Y-127587000D01*
X146216000Y-128800924D01*
X146450913Y-128945184D01*
X147003320Y-128751954D01*
X147359000Y-128434167D01*
X147714680Y-128751954D01*
X148267087Y-128945184D01*
X148502000Y-128800924D01*
X148502000Y-127587000D01*
X148756000Y-127587000D01*
X148756000Y-128800924D01*
X148990913Y-128945184D01*
X149543320Y-128751954D01*
X149899000Y-128434167D01*
X150254680Y-128751954D01*
X150807087Y-128945184D01*
X151042000Y-128800924D01*
X151042000Y-127587000D01*
X151296000Y-127587000D01*
X151296000Y-128800924D01*
X151530913Y-128945184D01*
X152083320Y-128751954D01*
X152439000Y-128434167D01*
X152794680Y-128751954D01*
X153347087Y-128945184D01*
X153582000Y-128800924D01*
X153582000Y-127587000D01*
X153836000Y-127587000D01*
X153836000Y-128800924D01*
X154070913Y-128945184D01*
X154623320Y-128751954D01*
X154979000Y-128434167D01*
X155334680Y-128751954D01*
X155887087Y-128945184D01*
X156122000Y-128800924D01*
X156122000Y-127587000D01*
X156376000Y-127587000D01*
X156376000Y-128800924D01*
X156610913Y-128945184D01*
X157163320Y-128751954D01*
X157519000Y-128434167D01*
X157874680Y-128751954D01*
X158427087Y-128945184D01*
X158662000Y-128800924D01*
X158662000Y-127587000D01*
X158916000Y-127587000D01*
X158916000Y-128800924D01*
X159150913Y-128945184D01*
X159703320Y-128751954D01*
X160139732Y-128362036D01*
X160393709Y-127834791D01*
X160396358Y-127819026D01*
X160275217Y-127587000D01*
X158916000Y-127587000D01*
X158662000Y-127587000D01*
X156376000Y-127587000D01*
X156122000Y-127587000D01*
X153836000Y-127587000D01*
X153582000Y-127587000D01*
X151296000Y-127587000D01*
X151042000Y-127587000D01*
X148756000Y-127587000D01*
X148502000Y-127587000D01*
X146216000Y-127587000D01*
X145962000Y-127587000D01*
X143676000Y-127587000D01*
X143422000Y-127587000D01*
X141136000Y-127587000D01*
X140882000Y-127587000D01*
X139522783Y-127587000D01*
X139401642Y-127819026D01*
X136143930Y-127819026D01*
X136215345Y-127460000D01*
X136101271Y-126886511D01*
X135776415Y-126400330D01*
X135461634Y-126190000D01*
X135776415Y-125979670D01*
X136101271Y-125493489D01*
X136215345Y-124920000D01*
X139325655Y-124920000D01*
X139439729Y-125493489D01*
X139764585Y-125979670D01*
X140074069Y-126186461D01*
X139658268Y-126557964D01*
X139404291Y-127085209D01*
X139401642Y-127100974D01*
X139522783Y-127333000D01*
X140882000Y-127333000D01*
X140882000Y-127313000D01*
X141136000Y-127313000D01*
X141136000Y-127333000D01*
X143422000Y-127333000D01*
X143422000Y-127313000D01*
X143676000Y-127313000D01*
X143676000Y-127333000D01*
X145962000Y-127333000D01*
X145962000Y-127313000D01*
X146216000Y-127313000D01*
X146216000Y-127333000D01*
X148502000Y-127333000D01*
X148502000Y-127313000D01*
X148756000Y-127313000D01*
X148756000Y-127333000D01*
X151042000Y-127333000D01*
X151042000Y-127313000D01*
X151296000Y-127313000D01*
X151296000Y-127333000D01*
X153582000Y-127333000D01*
X153582000Y-127313000D01*
X153836000Y-127313000D01*
X153836000Y-127333000D01*
X156122000Y-127333000D01*
X156122000Y-127313000D01*
X156376000Y-127313000D01*
X156376000Y-127333000D01*
X158662000Y-127333000D01*
X158662000Y-127313000D01*
X158916000Y-127313000D01*
X158916000Y-127333000D01*
X160275217Y-127333000D01*
X160396358Y-127100974D01*
X160393709Y-127085209D01*
X160139732Y-126557964D01*
X159723931Y-126186461D01*
X160033415Y-125979670D01*
X160358271Y-125493489D01*
X160472345Y-124920000D01*
X163328655Y-124920000D01*
X163442729Y-125493489D01*
X163767585Y-125979670D01*
X164082366Y-126190000D01*
X163767585Y-126400330D01*
X163442729Y-126886511D01*
X163328655Y-127460000D01*
X163442729Y-128033489D01*
X163767585Y-128519670D01*
X164253766Y-128844526D01*
X164827255Y-128958600D01*
X165196745Y-128958600D01*
X165770234Y-128844526D01*
X166256415Y-128519670D01*
X166581271Y-128033489D01*
X166695345Y-127460000D01*
X166643720Y-127200460D01*
X169520100Y-127200460D01*
X169520100Y-127475460D01*
X169655098Y-127900138D01*
X169942337Y-128240828D01*
X170353226Y-128442579D01*
X170528100Y-128316414D01*
X170528100Y-127200460D01*
X170782100Y-127200460D01*
X170782100Y-128316414D01*
X170956974Y-128442579D01*
X171367863Y-128240828D01*
X171655102Y-127900138D01*
X171790100Y-127475460D01*
X171790100Y-127200460D01*
X176520100Y-127200460D01*
X176520100Y-127475460D01*
X176655098Y-127900138D01*
X176942337Y-128240828D01*
X177353226Y-128442579D01*
X177528100Y-128316414D01*
X177528100Y-127200460D01*
X177782100Y-127200460D01*
X177782100Y-128316414D01*
X177956974Y-128442579D01*
X178367863Y-128240828D01*
X178655102Y-127900138D01*
X178790100Y-127475460D01*
X178790100Y-127200460D01*
X177782100Y-127200460D01*
X177528100Y-127200460D01*
X176520100Y-127200460D01*
X171790100Y-127200460D01*
X170782100Y-127200460D01*
X170528100Y-127200460D01*
X169520100Y-127200460D01*
X166643720Y-127200460D01*
X166581271Y-126886511D01*
X166437579Y-126671460D01*
X169520100Y-126671460D01*
X169520100Y-126946460D01*
X170528100Y-126946460D01*
X170528100Y-125830506D01*
X170782100Y-125830506D01*
X170782100Y-126946460D01*
X171790100Y-126946460D01*
X171790100Y-126671460D01*
X176520100Y-126671460D01*
X176520100Y-126946460D01*
X177528100Y-126946460D01*
X177528100Y-125830506D01*
X177782100Y-125830506D01*
X177782100Y-126946460D01*
X178790100Y-126946460D01*
X178790100Y-126671460D01*
X178655102Y-126246782D01*
X178367863Y-125906092D01*
X177956974Y-125704341D01*
X177782100Y-125830506D01*
X177528100Y-125830506D01*
X177353226Y-125704341D01*
X176942337Y-125906092D01*
X176655098Y-126246782D01*
X176520100Y-126671460D01*
X171790100Y-126671460D01*
X171655102Y-126246782D01*
X171367863Y-125906092D01*
X170956974Y-125704341D01*
X170782100Y-125830506D01*
X170528100Y-125830506D01*
X170353226Y-125704341D01*
X169942337Y-125906092D01*
X169655098Y-126246782D01*
X169520100Y-126671460D01*
X166437579Y-126671460D01*
X166256415Y-126400330D01*
X165941634Y-126190000D01*
X166256415Y-125979670D01*
X166581271Y-125493489D01*
X166695345Y-124920000D01*
X166645896Y-124671398D01*
X170435832Y-124671398D01*
X170619548Y-125045281D01*
X170944051Y-125333028D01*
X171353969Y-125474689D01*
X171528100Y-125326023D01*
X171528100Y-124500460D01*
X171782100Y-124500460D01*
X171782100Y-125326023D01*
X171956231Y-125474689D01*
X172366149Y-125333028D01*
X172690652Y-125045281D01*
X172874368Y-124671398D01*
X175435832Y-124671398D01*
X175619548Y-125045281D01*
X175944051Y-125333028D01*
X176353969Y-125474689D01*
X176528100Y-125326023D01*
X176528100Y-124500460D01*
X176782100Y-124500460D01*
X176782100Y-125326023D01*
X176956231Y-125474689D01*
X177366149Y-125333028D01*
X177690652Y-125045281D01*
X177874368Y-124671398D01*
X177747834Y-124500460D01*
X176782100Y-124500460D01*
X176528100Y-124500460D01*
X175562366Y-124500460D01*
X175435832Y-124671398D01*
X172874368Y-124671398D01*
X172747834Y-124500460D01*
X171782100Y-124500460D01*
X171528100Y-124500460D01*
X170562366Y-124500460D01*
X170435832Y-124671398D01*
X166645896Y-124671398D01*
X166581271Y-124346511D01*
X166400202Y-124075522D01*
X170435832Y-124075522D01*
X170562366Y-124246460D01*
X171528100Y-124246460D01*
X171528100Y-123420897D01*
X171782100Y-123420897D01*
X171782100Y-124246460D01*
X172747834Y-124246460D01*
X172874368Y-124075522D01*
X175435832Y-124075522D01*
X175562366Y-124246460D01*
X176528100Y-124246460D01*
X176528100Y-123420897D01*
X176782100Y-123420897D01*
X176782100Y-124246460D01*
X177747834Y-124246460D01*
X177874368Y-124075522D01*
X177690652Y-123701639D01*
X177366149Y-123413892D01*
X176956231Y-123272231D01*
X176782100Y-123420897D01*
X176528100Y-123420897D01*
X176353969Y-123272231D01*
X175944051Y-123413892D01*
X175619548Y-123701639D01*
X175435832Y-124075522D01*
X172874368Y-124075522D01*
X172690652Y-123701639D01*
X172366149Y-123413892D01*
X171956231Y-123272231D01*
X171782100Y-123420897D01*
X171528100Y-123420897D01*
X171353969Y-123272231D01*
X170944051Y-123413892D01*
X170619548Y-123701639D01*
X170435832Y-124075522D01*
X166400202Y-124075522D01*
X166256415Y-123860330D01*
X166242087Y-123850757D01*
X166263317Y-123846762D01*
X166479441Y-123707690D01*
X166624431Y-123495490D01*
X166675440Y-123243600D01*
X166675440Y-121516400D01*
X166667849Y-121476057D01*
X170810846Y-121476057D01*
X170945903Y-121802920D01*
X171195764Y-122053218D01*
X171522391Y-122188846D01*
X171876057Y-122189154D01*
X172202920Y-122054097D01*
X172453218Y-121804236D01*
X172588846Y-121477609D01*
X172588847Y-121476057D01*
X175085846Y-121476057D01*
X175220903Y-121802920D01*
X175470764Y-122053218D01*
X175797391Y-122188846D01*
X176151057Y-122189154D01*
X176477920Y-122054097D01*
X176728218Y-121804236D01*
X176863846Y-121477609D01*
X176864154Y-121123943D01*
X176729097Y-120797080D01*
X176479236Y-120546782D01*
X176152609Y-120411154D01*
X175798943Y-120410846D01*
X175472080Y-120545903D01*
X175221782Y-120795764D01*
X175086154Y-121122391D01*
X175085846Y-121476057D01*
X172588847Y-121476057D01*
X172589154Y-121123943D01*
X172454097Y-120797080D01*
X172204236Y-120546782D01*
X171877609Y-120411154D01*
X171523943Y-120410846D01*
X171197080Y-120545903D01*
X170946782Y-120795764D01*
X170811154Y-121122391D01*
X170810846Y-121476057D01*
X166667849Y-121476057D01*
X166631162Y-121281083D01*
X166492090Y-121064959D01*
X166279890Y-120919969D01*
X166028000Y-120868960D01*
X163996000Y-120868960D01*
X163760683Y-120913238D01*
X163544559Y-121052310D01*
X163399569Y-121264510D01*
X163348560Y-121516400D01*
X163348560Y-123243600D01*
X163392838Y-123478917D01*
X163531910Y-123695041D01*
X163744110Y-123840031D01*
X163785439Y-123848400D01*
X163767585Y-123860330D01*
X163442729Y-124346511D01*
X163328655Y-124920000D01*
X160472345Y-124920000D01*
X160358271Y-124346511D01*
X160033415Y-123860330D01*
X160019087Y-123850757D01*
X160040317Y-123846762D01*
X160256441Y-123707690D01*
X160401431Y-123495490D01*
X160452440Y-123243600D01*
X160452440Y-121516400D01*
X160408162Y-121281083D01*
X160269090Y-121064959D01*
X160056890Y-120919969D01*
X159805000Y-120868960D01*
X157773000Y-120868960D01*
X157537683Y-120913238D01*
X157521901Y-120923393D01*
X157516890Y-120919969D01*
X157265000Y-120868960D01*
X155233000Y-120868960D01*
X154997683Y-120913238D01*
X154981901Y-120923393D01*
X154976890Y-120919969D01*
X154725000Y-120868960D01*
X152693000Y-120868960D01*
X152457683Y-120913238D01*
X152441901Y-120923393D01*
X152436890Y-120919969D01*
X152185000Y-120868960D01*
X150153000Y-120868960D01*
X149917683Y-120913238D01*
X149901901Y-120923393D01*
X149896890Y-120919969D01*
X149645000Y-120868960D01*
X147613000Y-120868960D01*
X147377683Y-120913238D01*
X147361901Y-120923393D01*
X147356890Y-120919969D01*
X147105000Y-120868960D01*
X145073000Y-120868960D01*
X144837683Y-120913238D01*
X144821901Y-120923393D01*
X144816890Y-120919969D01*
X144565000Y-120868960D01*
X142533000Y-120868960D01*
X142297683Y-120913238D01*
X142281901Y-120923393D01*
X142276890Y-120919969D01*
X142025000Y-120868960D01*
X139993000Y-120868960D01*
X139757683Y-120913238D01*
X139541559Y-121052310D01*
X139396569Y-121264510D01*
X139345560Y-121516400D01*
X139345560Y-123243600D01*
X139389838Y-123478917D01*
X139528910Y-123695041D01*
X139741110Y-123840031D01*
X139782439Y-123848400D01*
X139764585Y-123860330D01*
X139439729Y-124346511D01*
X139325655Y-124920000D01*
X136215345Y-124920000D01*
X136101271Y-124346511D01*
X135776415Y-123860330D01*
X135762087Y-123850757D01*
X135783317Y-123846762D01*
X135999441Y-123707690D01*
X136144431Y-123495490D01*
X136195440Y-123243600D01*
X136195440Y-121516400D01*
X136151162Y-121281083D01*
X136012090Y-121064959D01*
X135799890Y-120919969D01*
X135548000Y-120868960D01*
X133516000Y-120868960D01*
X133280683Y-120913238D01*
X133064559Y-121052310D01*
X132919569Y-121264510D01*
X132868560Y-121516400D01*
X132868560Y-123243600D01*
X132912838Y-123478917D01*
X133051910Y-123695041D01*
X133264110Y-123840031D01*
X133305439Y-123848400D01*
X133287585Y-123860330D01*
X132962729Y-124346511D01*
X132848655Y-124920000D01*
X129992345Y-124920000D01*
X129878271Y-124346511D01*
X129553415Y-123860330D01*
X129539087Y-123850757D01*
X129560317Y-123846762D01*
X129776441Y-123707690D01*
X129921431Y-123495490D01*
X129972440Y-123243600D01*
X129972440Y-121516400D01*
X129928162Y-121281083D01*
X129789090Y-121064959D01*
X129576890Y-120919969D01*
X129325000Y-120868960D01*
X127293000Y-120868960D01*
X127057683Y-120913238D01*
X127041901Y-120923393D01*
X127036890Y-120919969D01*
X126785000Y-120868960D01*
X124753000Y-120868960D01*
X124517683Y-120913238D01*
X124501901Y-120923393D01*
X124496890Y-120919969D01*
X124245000Y-120868960D01*
X122213000Y-120868960D01*
X121977683Y-120913238D01*
X121961901Y-120923393D01*
X121956890Y-120919969D01*
X121705000Y-120868960D01*
X119673000Y-120868960D01*
X119437683Y-120913238D01*
X119421901Y-120923393D01*
X119416890Y-120919969D01*
X119165000Y-120868960D01*
X117133000Y-120868960D01*
X116897683Y-120913238D01*
X116881901Y-120923393D01*
X116876890Y-120919969D01*
X116625000Y-120868960D01*
X114593000Y-120868960D01*
X114357683Y-120913238D01*
X114341901Y-120923393D01*
X114336890Y-120919969D01*
X114085000Y-120868960D01*
X112053000Y-120868960D01*
X111817683Y-120913238D01*
X111801901Y-120923393D01*
X111796890Y-120919969D01*
X111545000Y-120868960D01*
X109513000Y-120868960D01*
X109277683Y-120913238D01*
X109061559Y-121052310D01*
X108916569Y-121264510D01*
X108865560Y-121516400D01*
X108865560Y-123243600D01*
X108909838Y-123478917D01*
X109048910Y-123695041D01*
X109261110Y-123840031D01*
X109302439Y-123848400D01*
X109284585Y-123860330D01*
X108959729Y-124346511D01*
X108845655Y-124920000D01*
X107785000Y-124920000D01*
X107785000Y-118766057D01*
X179040846Y-118766057D01*
X179175903Y-119092920D01*
X179425764Y-119343218D01*
X179752391Y-119478846D01*
X180106057Y-119479154D01*
X180432920Y-119344097D01*
X180683218Y-119094236D01*
X180818846Y-118767609D01*
X180819154Y-118413943D01*
X180684097Y-118087080D01*
X180434236Y-117836782D01*
X180107609Y-117701154D01*
X179753943Y-117700846D01*
X179427080Y-117835903D01*
X179176782Y-118085764D01*
X179041154Y-118412391D01*
X179040846Y-118766057D01*
X107785000Y-118766057D01*
X107785000Y-117156057D01*
X168980846Y-117156057D01*
X169115903Y-117482920D01*
X169365764Y-117733218D01*
X169692391Y-117868846D01*
X170046057Y-117869154D01*
X170372920Y-117734097D01*
X170623218Y-117484236D01*
X170758846Y-117157609D01*
X170759012Y-116966057D01*
X174140846Y-116966057D01*
X174275903Y-117292920D01*
X174525764Y-117543218D01*
X174852391Y-117678846D01*
X175206057Y-117679154D01*
X175532920Y-117544097D01*
X175783218Y-117294236D01*
X175918846Y-116967609D01*
X175919154Y-116613943D01*
X175784097Y-116287080D01*
X175534236Y-116036782D01*
X175207609Y-115901154D01*
X174853943Y-115900846D01*
X174527080Y-116035903D01*
X174276782Y-116285764D01*
X174141154Y-116612391D01*
X174140846Y-116966057D01*
X170759012Y-116966057D01*
X170759154Y-116803943D01*
X170624097Y-116477080D01*
X170374236Y-116226782D01*
X170047609Y-116091154D01*
X169693943Y-116090846D01*
X169367080Y-116225903D01*
X169116782Y-116475764D01*
X168981154Y-116802391D01*
X168980846Y-117156057D01*
X107785000Y-117156057D01*
X107785000Y-114806057D01*
X128760846Y-114806057D01*
X128895903Y-115132920D01*
X129145764Y-115383218D01*
X129280861Y-115439315D01*
X129280846Y-115456057D01*
X129415903Y-115782920D01*
X129665764Y-116033218D01*
X129992391Y-116168846D01*
X130346057Y-116169154D01*
X130672920Y-116034097D01*
X130923218Y-115784236D01*
X131058846Y-115457609D01*
X131059154Y-115103943D01*
X130924097Y-114777080D01*
X130832149Y-114684971D01*
X131023218Y-114494236D01*
X131158846Y-114167609D01*
X131159154Y-113813943D01*
X131036071Y-113516057D01*
X137720846Y-113516057D01*
X137855903Y-113842920D01*
X138002764Y-113990037D01*
X137856782Y-114135764D01*
X137721154Y-114462391D01*
X137720846Y-114816057D01*
X137855903Y-115142920D01*
X138012755Y-115300046D01*
X137866782Y-115445764D01*
X137731154Y-115772391D01*
X137730846Y-116126057D01*
X137865903Y-116452920D01*
X138115764Y-116703218D01*
X138442391Y-116838846D01*
X138796057Y-116839154D01*
X139122920Y-116704097D01*
X139373218Y-116454236D01*
X139508846Y-116127609D01*
X139508849Y-116124286D01*
X139702920Y-116044097D01*
X139861236Y-115886057D01*
X176650846Y-115886057D01*
X176785903Y-116212920D01*
X177035764Y-116463218D01*
X177362391Y-116598846D01*
X177716057Y-116599154D01*
X178042920Y-116464097D01*
X178293218Y-116214236D01*
X178428846Y-115887609D01*
X178429154Y-115533943D01*
X178294097Y-115207080D01*
X178044236Y-114956782D01*
X177717609Y-114821154D01*
X177363943Y-114820846D01*
X177037080Y-114955903D01*
X176786782Y-115205764D01*
X176651154Y-115532391D01*
X176650846Y-115886057D01*
X139861236Y-115886057D01*
X139953218Y-115794236D01*
X140088846Y-115467609D01*
X140089154Y-115113943D01*
X139954097Y-114787080D01*
X139812228Y-114644963D01*
X139963218Y-114494236D01*
X140098846Y-114167609D01*
X140099154Y-113813943D01*
X139964097Y-113487080D01*
X139813338Y-113336057D01*
X168920846Y-113336057D01*
X169055903Y-113662920D01*
X169305764Y-113913218D01*
X169632391Y-114048846D01*
X169986057Y-114049154D01*
X170138763Y-113986057D01*
X171440846Y-113986057D01*
X171575903Y-114312920D01*
X171825764Y-114563218D01*
X172152391Y-114698846D01*
X172506057Y-114699154D01*
X172832920Y-114564097D01*
X173083218Y-114314236D01*
X173218846Y-113987609D01*
X173219154Y-113633943D01*
X173084097Y-113307080D01*
X172834236Y-113056782D01*
X172507609Y-112921154D01*
X172153943Y-112920846D01*
X171827080Y-113055903D01*
X171576782Y-113305764D01*
X171441154Y-113632391D01*
X171440846Y-113986057D01*
X170138763Y-113986057D01*
X170312920Y-113914097D01*
X170563218Y-113664236D01*
X170698846Y-113337609D01*
X170699154Y-112983943D01*
X170564097Y-112657080D01*
X170314236Y-112406782D01*
X169987609Y-112271154D01*
X169633943Y-112270846D01*
X169307080Y-112405903D01*
X169056782Y-112655764D01*
X168921154Y-112982391D01*
X168920846Y-113336057D01*
X139813338Y-113336057D01*
X139807254Y-113329963D01*
X139943218Y-113194236D01*
X140078846Y-112867609D01*
X140079154Y-112513943D01*
X139944097Y-112187080D01*
X139807219Y-112049963D01*
X139963218Y-111894236D01*
X140098846Y-111567609D01*
X140098917Y-111486057D01*
X179380846Y-111486057D01*
X179515903Y-111812920D01*
X179765764Y-112063218D01*
X180092391Y-112198846D01*
X180446057Y-112199154D01*
X180772920Y-112064097D01*
X180914449Y-111922815D01*
X185964630Y-111922815D01*
X186288980Y-112707800D01*
X186889041Y-113308909D01*
X187673459Y-113634628D01*
X188522815Y-113635370D01*
X189307800Y-113311020D01*
X189908909Y-112710959D01*
X190234628Y-111926541D01*
X190235370Y-111077185D01*
X189911020Y-110292200D01*
X189310959Y-109691091D01*
X188526541Y-109365372D01*
X187677185Y-109364630D01*
X186892200Y-109688980D01*
X186291091Y-110289041D01*
X185965372Y-111073459D01*
X185964630Y-111922815D01*
X180914449Y-111922815D01*
X181023218Y-111814236D01*
X181158846Y-111487609D01*
X181159154Y-111133943D01*
X181024097Y-110807080D01*
X180774236Y-110556782D01*
X180447609Y-110421154D01*
X180093943Y-110420846D01*
X179767080Y-110555903D01*
X179516782Y-110805764D01*
X179381154Y-111132391D01*
X179380846Y-111486057D01*
X140098917Y-111486057D01*
X140099154Y-111213943D01*
X139964097Y-110887080D01*
X139714236Y-110636782D01*
X139515081Y-110554085D01*
X139384097Y-110237080D01*
X139134236Y-109986782D01*
X138807609Y-109851154D01*
X138453943Y-109850846D01*
X138127080Y-109985903D01*
X137876782Y-110235764D01*
X137741154Y-110562391D01*
X137740846Y-110916057D01*
X137875903Y-111242920D01*
X138027755Y-111395037D01*
X137886782Y-111535764D01*
X137751154Y-111862391D01*
X137750846Y-112216057D01*
X137885903Y-112542920D01*
X138017790Y-112675037D01*
X137856782Y-112835764D01*
X137721154Y-113162391D01*
X137720846Y-113516057D01*
X131036071Y-113516057D01*
X131024097Y-113487080D01*
X130877228Y-113339954D01*
X131033218Y-113184236D01*
X131168846Y-112857609D01*
X131169154Y-112503943D01*
X131034097Y-112177080D01*
X130917193Y-112059971D01*
X131083218Y-111894236D01*
X131218846Y-111567609D01*
X131219154Y-111213943D01*
X131084097Y-110887080D01*
X130834236Y-110636782D01*
X130598868Y-110539048D01*
X130474097Y-110237080D01*
X130224236Y-109986782D01*
X129897609Y-109851154D01*
X129543943Y-109850846D01*
X129217080Y-109985903D01*
X128966782Y-110235764D01*
X128831154Y-110562391D01*
X128830846Y-110916057D01*
X128965903Y-111242920D01*
X129082816Y-111360037D01*
X128906782Y-111535764D01*
X128771154Y-111862391D01*
X128770846Y-112216057D01*
X128905903Y-112542920D01*
X129057755Y-112695037D01*
X128916782Y-112835764D01*
X128781154Y-113162391D01*
X128780846Y-113516057D01*
X128915903Y-113842920D01*
X129047781Y-113975029D01*
X128896782Y-114125764D01*
X128761154Y-114452391D01*
X128760846Y-114806057D01*
X107785000Y-114806057D01*
X107785000Y-111922815D01*
X108964630Y-111922815D01*
X109288980Y-112707800D01*
X109889041Y-113308909D01*
X110673459Y-113634628D01*
X111522815Y-113635370D01*
X112307800Y-113311020D01*
X112908909Y-112710959D01*
X113234628Y-111926541D01*
X113235370Y-111077185D01*
X112911020Y-110292200D01*
X112310959Y-109691091D01*
X112082092Y-109596057D01*
X141090846Y-109596057D01*
X141225903Y-109922920D01*
X141475764Y-110173218D01*
X141802391Y-110308846D01*
X142156057Y-110309154D01*
X142482920Y-110174097D01*
X142733218Y-109924236D01*
X142868846Y-109597609D01*
X142868856Y-109586057D01*
X146000846Y-109586057D01*
X146135903Y-109912920D01*
X146385764Y-110163218D01*
X146712391Y-110298846D01*
X147066057Y-110299154D01*
X147392920Y-110164097D01*
X147643218Y-109914236D01*
X147654918Y-109886057D01*
X169300846Y-109886057D01*
X169435903Y-110212920D01*
X169685764Y-110463218D01*
X170012391Y-110598846D01*
X170366057Y-110599154D01*
X170692920Y-110464097D01*
X170943218Y-110214236D01*
X171078846Y-109887609D01*
X171079154Y-109533943D01*
X170944097Y-109207080D01*
X170694236Y-108956782D01*
X170367609Y-108821154D01*
X170013943Y-108820846D01*
X169687080Y-108955903D01*
X169436782Y-109205764D01*
X169301154Y-109532391D01*
X169300846Y-109886057D01*
X147654918Y-109886057D01*
X147778846Y-109587609D01*
X147779154Y-109233943D01*
X147644097Y-108907080D01*
X147394236Y-108656782D01*
X147067609Y-108521154D01*
X146713943Y-108520846D01*
X146387080Y-108655903D01*
X146136782Y-108905764D01*
X146001154Y-109232391D01*
X146000846Y-109586057D01*
X142868856Y-109586057D01*
X142869154Y-109243943D01*
X142734097Y-108917080D01*
X142484236Y-108666782D01*
X142157609Y-108531154D01*
X141803943Y-108530846D01*
X141477080Y-108665903D01*
X141226782Y-108915764D01*
X141091154Y-109242391D01*
X141090846Y-109596057D01*
X112082092Y-109596057D01*
X111526541Y-109365372D01*
X110677185Y-109364630D01*
X109892200Y-109688980D01*
X109291091Y-110289041D01*
X108965372Y-111073459D01*
X108964630Y-111922815D01*
X107785000Y-111922815D01*
X107785000Y-107755913D01*
X109170816Y-107755913D01*
X109364046Y-108308320D01*
X109753964Y-108744732D01*
X110281209Y-108998709D01*
X110296974Y-109001358D01*
X110529000Y-108880217D01*
X110529000Y-107521000D01*
X109315076Y-107521000D01*
X109170816Y-107755913D01*
X107785000Y-107755913D01*
X107785000Y-105215913D01*
X109170816Y-105215913D01*
X109364046Y-105768320D01*
X109681833Y-106124000D01*
X109364046Y-106479680D01*
X109170816Y-107032087D01*
X109315076Y-107267000D01*
X110529000Y-107267000D01*
X110529000Y-104981000D01*
X109315076Y-104981000D01*
X109170816Y-105215913D01*
X107785000Y-105215913D01*
X107785000Y-102675913D01*
X109170816Y-102675913D01*
X109364046Y-103228320D01*
X109681833Y-103584000D01*
X109364046Y-103939680D01*
X109170816Y-104492087D01*
X109315076Y-104727000D01*
X110529000Y-104727000D01*
X110529000Y-102441000D01*
X109315076Y-102441000D01*
X109170816Y-102675913D01*
X107785000Y-102675913D01*
X107785000Y-100135913D01*
X109170816Y-100135913D01*
X109364046Y-100688320D01*
X109681833Y-101044000D01*
X109364046Y-101399680D01*
X109170816Y-101952087D01*
X109315076Y-102187000D01*
X110529000Y-102187000D01*
X110529000Y-99901000D01*
X109315076Y-99901000D01*
X109170816Y-100135913D01*
X107785000Y-100135913D01*
X107785000Y-97595913D01*
X109170816Y-97595913D01*
X109364046Y-98148320D01*
X109681833Y-98504000D01*
X109364046Y-98859680D01*
X109170816Y-99412087D01*
X109315076Y-99647000D01*
X110529000Y-99647000D01*
X110529000Y-97361000D01*
X109315076Y-97361000D01*
X109170816Y-97595913D01*
X107785000Y-97595913D01*
X107785000Y-95055913D01*
X109170816Y-95055913D01*
X109364046Y-95608320D01*
X109681833Y-95964000D01*
X109364046Y-96319680D01*
X109170816Y-96872087D01*
X109315076Y-97107000D01*
X110529000Y-97107000D01*
X110529000Y-94821000D01*
X109315076Y-94821000D01*
X109170816Y-95055913D01*
X107785000Y-95055913D01*
X107785000Y-92515913D01*
X109170816Y-92515913D01*
X109364046Y-93068320D01*
X109681833Y-93424000D01*
X109364046Y-93779680D01*
X109170816Y-94332087D01*
X109315076Y-94567000D01*
X110529000Y-94567000D01*
X110529000Y-92281000D01*
X109315076Y-92281000D01*
X109170816Y-92515913D01*
X107785000Y-92515913D01*
X107785000Y-89975913D01*
X109170816Y-89975913D01*
X109364046Y-90528320D01*
X109681833Y-90884000D01*
X109364046Y-91239680D01*
X109170816Y-91792087D01*
X109315076Y-92027000D01*
X110529000Y-92027000D01*
X110529000Y-89741000D01*
X109315076Y-89741000D01*
X109170816Y-89975913D01*
X107785000Y-89975913D01*
X107785000Y-89252087D01*
X109170816Y-89252087D01*
X109315076Y-89487000D01*
X110529000Y-89487000D01*
X110529000Y-88127783D01*
X110783000Y-88127783D01*
X110783000Y-89487000D01*
X110803000Y-89487000D01*
X110803000Y-89741000D01*
X110783000Y-89741000D01*
X110783000Y-92027000D01*
X110803000Y-92027000D01*
X110803000Y-92281000D01*
X110783000Y-92281000D01*
X110783000Y-94567000D01*
X110803000Y-94567000D01*
X110803000Y-94821000D01*
X110783000Y-94821000D01*
X110783000Y-97107000D01*
X110803000Y-97107000D01*
X110803000Y-97361000D01*
X110783000Y-97361000D01*
X110783000Y-99647000D01*
X110803000Y-99647000D01*
X110803000Y-99901000D01*
X110783000Y-99901000D01*
X110783000Y-102187000D01*
X110803000Y-102187000D01*
X110803000Y-102441000D01*
X110783000Y-102441000D01*
X110783000Y-104727000D01*
X110803000Y-104727000D01*
X110803000Y-104981000D01*
X110783000Y-104981000D01*
X110783000Y-107267000D01*
X110803000Y-107267000D01*
X110803000Y-107521000D01*
X110783000Y-107521000D01*
X110783000Y-108880217D01*
X111015026Y-109001358D01*
X111030791Y-108998709D01*
X111558036Y-108744732D01*
X111929539Y-108328931D01*
X112136330Y-108638415D01*
X112622511Y-108963271D01*
X113196000Y-109077345D01*
X113769489Y-108963271D01*
X114255670Y-108638415D01*
X114265243Y-108624087D01*
X114269238Y-108645317D01*
X114408310Y-108861441D01*
X114620510Y-109006431D01*
X114872400Y-109057440D01*
X116599600Y-109057440D01*
X116834917Y-109013162D01*
X117051041Y-108874090D01*
X117196031Y-108661890D01*
X117247040Y-108410000D01*
X117247040Y-107676057D01*
X124320846Y-107676057D01*
X124455903Y-108002920D01*
X124705764Y-108253218D01*
X125032391Y-108388846D01*
X125386057Y-108389154D01*
X125712920Y-108254097D01*
X125963218Y-108004236D01*
X126098846Y-107677609D01*
X126098856Y-107666057D01*
X137850846Y-107666057D01*
X137985903Y-107992920D01*
X138235764Y-108243218D01*
X138562391Y-108378846D01*
X138916057Y-108379154D01*
X139242920Y-108244097D01*
X139493218Y-107994236D01*
X139600423Y-107736057D01*
X141100846Y-107736057D01*
X141235903Y-108062920D01*
X141485764Y-108313218D01*
X141812391Y-108448846D01*
X142166057Y-108449154D01*
X142492920Y-108314097D01*
X142743218Y-108064236D01*
X142875338Y-107746057D01*
X146000846Y-107746057D01*
X146135903Y-108072920D01*
X146385764Y-108323218D01*
X146712391Y-108458846D01*
X147066057Y-108459154D01*
X147392920Y-108324097D01*
X147600133Y-108117245D01*
X147795764Y-108313218D01*
X148122391Y-108448846D01*
X148476057Y-108449154D01*
X148802920Y-108314097D01*
X149053218Y-108064236D01*
X149188846Y-107737609D01*
X149188882Y-107696057D01*
X157960846Y-107696057D01*
X158095903Y-108022920D01*
X158177764Y-108104924D01*
X158096782Y-108185764D01*
X157961154Y-108512391D01*
X157960846Y-108866057D01*
X158095903Y-109192920D01*
X158345764Y-109443218D01*
X158672391Y-109578846D01*
X159026057Y-109579154D01*
X159352920Y-109444097D01*
X159603218Y-109194236D01*
X159738846Y-108867609D01*
X159739154Y-108513943D01*
X159604097Y-108187080D01*
X159522236Y-108105076D01*
X159551305Y-108076057D01*
X170990846Y-108076057D01*
X171125903Y-108402920D01*
X171375764Y-108653218D01*
X171702391Y-108788846D01*
X172056057Y-108789154D01*
X172382920Y-108654097D01*
X172633218Y-108404236D01*
X172768846Y-108077609D01*
X172769154Y-107723943D01*
X172634097Y-107397080D01*
X172384236Y-107146782D01*
X172057609Y-107011154D01*
X171703943Y-107010846D01*
X171377080Y-107145903D01*
X171126782Y-107395764D01*
X170991154Y-107722391D01*
X170990846Y-108076057D01*
X159551305Y-108076057D01*
X159603218Y-108024236D01*
X159738846Y-107697609D01*
X159739154Y-107343943D01*
X159604097Y-107017080D01*
X159354236Y-106766782D01*
X159027609Y-106631154D01*
X158673943Y-106630846D01*
X158347080Y-106765903D01*
X158096782Y-107015764D01*
X157961154Y-107342391D01*
X157960846Y-107696057D01*
X149188882Y-107696057D01*
X149189154Y-107383943D01*
X149054097Y-107057080D01*
X148804236Y-106806782D01*
X148477609Y-106671154D01*
X148123943Y-106670846D01*
X147797080Y-106805903D01*
X147589867Y-107012755D01*
X147394236Y-106816782D01*
X147067609Y-106681154D01*
X146713943Y-106680846D01*
X146387080Y-106815903D01*
X146136782Y-107065764D01*
X146001154Y-107392391D01*
X146000846Y-107746057D01*
X142875338Y-107746057D01*
X142878846Y-107737609D01*
X142879154Y-107383943D01*
X142744097Y-107057080D01*
X142494236Y-106806782D01*
X142167609Y-106671154D01*
X141813943Y-106670846D01*
X141487080Y-106805903D01*
X141236782Y-107055764D01*
X141101154Y-107382391D01*
X141100846Y-107736057D01*
X139600423Y-107736057D01*
X139628846Y-107667609D01*
X139629154Y-107313943D01*
X139494097Y-106987080D01*
X139244236Y-106736782D01*
X138917609Y-106601154D01*
X138563943Y-106600846D01*
X138237080Y-106735903D01*
X137986782Y-106985764D01*
X137851154Y-107312391D01*
X137850846Y-107666057D01*
X126098856Y-107666057D01*
X126099154Y-107323943D01*
X125964097Y-106997080D01*
X125714236Y-106746782D01*
X125387609Y-106611154D01*
X125033943Y-106610846D01*
X124707080Y-106745903D01*
X124456782Y-106995764D01*
X124321154Y-107322391D01*
X124320846Y-107676057D01*
X117247040Y-107676057D01*
X117247040Y-106378000D01*
X117202762Y-106142683D01*
X117192607Y-106126901D01*
X117196031Y-106121890D01*
X117247040Y-105870000D01*
X117247040Y-104866057D01*
X120890846Y-104866057D01*
X121025903Y-105192920D01*
X121275764Y-105443218D01*
X121602391Y-105578846D01*
X121956057Y-105579154D01*
X122282920Y-105444097D01*
X122533218Y-105194236D01*
X122668846Y-104867609D01*
X122668847Y-104866057D01*
X129520846Y-104866057D01*
X129655903Y-105192920D01*
X129905764Y-105443218D01*
X130232391Y-105578846D01*
X130586057Y-105579154D01*
X130912920Y-105444097D01*
X131021148Y-105336057D01*
X133770846Y-105336057D01*
X133905903Y-105662920D01*
X134155764Y-105913218D01*
X134482391Y-106048846D01*
X134836057Y-106049154D01*
X135162920Y-105914097D01*
X135413218Y-105664236D01*
X135548846Y-105337609D01*
X135548934Y-105236057D01*
X137690846Y-105236057D01*
X137825903Y-105562920D01*
X138075764Y-105813218D01*
X138402391Y-105948846D01*
X138756057Y-105949154D01*
X139082920Y-105814097D01*
X139333218Y-105564236D01*
X139468846Y-105237609D01*
X139469154Y-104883943D01*
X139334097Y-104557080D01*
X139084236Y-104306782D01*
X138757609Y-104171154D01*
X138403943Y-104170846D01*
X138077080Y-104305903D01*
X137826782Y-104555764D01*
X137691154Y-104882391D01*
X137690846Y-105236057D01*
X135548934Y-105236057D01*
X135549154Y-104983943D01*
X135536875Y-104954226D01*
X135595764Y-105013218D01*
X135922391Y-105148846D01*
X136276057Y-105149154D01*
X136602920Y-105014097D01*
X136853218Y-104764236D01*
X136988846Y-104437609D01*
X136989154Y-104083943D01*
X136854097Y-103757080D01*
X136853076Y-103756057D01*
X141180846Y-103756057D01*
X141315903Y-104082920D01*
X141565764Y-104333218D01*
X141892391Y-104468846D01*
X142246057Y-104469154D01*
X142572920Y-104334097D01*
X142823218Y-104084236D01*
X142947033Y-103786057D01*
X169530846Y-103786057D01*
X169665903Y-104112920D01*
X169915764Y-104363218D01*
X170242391Y-104498846D01*
X170596057Y-104499154D01*
X170922920Y-104364097D01*
X171173218Y-104114236D01*
X171308846Y-103787609D01*
X171309154Y-103433943D01*
X171174097Y-103107080D01*
X170924236Y-102856782D01*
X170597609Y-102721154D01*
X170243943Y-102720846D01*
X169917080Y-102855903D01*
X169666782Y-103105764D01*
X169531154Y-103432391D01*
X169530846Y-103786057D01*
X142947033Y-103786057D01*
X142958846Y-103757609D01*
X142959154Y-103403943D01*
X142824097Y-103077080D01*
X142574236Y-102826782D01*
X142247609Y-102691154D01*
X141893943Y-102690846D01*
X141567080Y-102825903D01*
X141316782Y-103075764D01*
X141181154Y-103402391D01*
X141180846Y-103756057D01*
X136853076Y-103756057D01*
X136604236Y-103506782D01*
X136277609Y-103371154D01*
X135923943Y-103370846D01*
X135597080Y-103505903D01*
X135346782Y-103755764D01*
X135211154Y-104082391D01*
X135210846Y-104436057D01*
X135223125Y-104465774D01*
X135164236Y-104406782D01*
X134837609Y-104271154D01*
X134483943Y-104270846D01*
X134157080Y-104405903D01*
X133906782Y-104655764D01*
X133771154Y-104982391D01*
X133770846Y-105336057D01*
X131021148Y-105336057D01*
X131163218Y-105194236D01*
X131298846Y-104867609D01*
X131299154Y-104513943D01*
X131164097Y-104187080D01*
X130914236Y-103936782D01*
X130587609Y-103801154D01*
X130233943Y-103800846D01*
X129907080Y-103935903D01*
X129656782Y-104185764D01*
X129521154Y-104512391D01*
X129520846Y-104866057D01*
X122668847Y-104866057D01*
X122669154Y-104513943D01*
X122534097Y-104187080D01*
X122284236Y-103936782D01*
X121957609Y-103801154D01*
X121603943Y-103800846D01*
X121277080Y-103935903D01*
X121026782Y-104185764D01*
X120891154Y-104512391D01*
X120890846Y-104866057D01*
X117247040Y-104866057D01*
X117247040Y-103838000D01*
X117202762Y-103602683D01*
X117192607Y-103586901D01*
X117196031Y-103581890D01*
X117223537Y-103446057D01*
X133150846Y-103446057D01*
X133285903Y-103772920D01*
X133535764Y-104023218D01*
X133862391Y-104158846D01*
X134216057Y-104159154D01*
X134542920Y-104024097D01*
X134793218Y-103774236D01*
X134928846Y-103447609D01*
X134929154Y-103093943D01*
X134925267Y-103084535D01*
X135152391Y-103178846D01*
X135506057Y-103179154D01*
X135832920Y-103044097D01*
X136083218Y-102794236D01*
X136218846Y-102467609D01*
X136219154Y-102113943D01*
X136151851Y-101951057D01*
X142735846Y-101951057D01*
X142870903Y-102277920D01*
X143120764Y-102528218D01*
X143447391Y-102663846D01*
X143801057Y-102664154D01*
X144127920Y-102529097D01*
X144378218Y-102279236D01*
X144513846Y-101952609D01*
X144514154Y-101598943D01*
X144379097Y-101272080D01*
X144129236Y-101021782D01*
X143802609Y-100886154D01*
X143448943Y-100885846D01*
X143122080Y-101020903D01*
X142871782Y-101270764D01*
X142736154Y-101597391D01*
X142735846Y-101951057D01*
X136151851Y-101951057D01*
X136084097Y-101787080D01*
X135834236Y-101536782D01*
X135507609Y-101401154D01*
X135153943Y-101400846D01*
X134827080Y-101535903D01*
X134576782Y-101785764D01*
X134441154Y-102112391D01*
X134440846Y-102466057D01*
X134444733Y-102475465D01*
X134217609Y-102381154D01*
X133863943Y-102380846D01*
X133537080Y-102515903D01*
X133286782Y-102765764D01*
X133151154Y-103092391D01*
X133150846Y-103446057D01*
X117223537Y-103446057D01*
X117247040Y-103330000D01*
X117247040Y-101298000D01*
X117202762Y-101062683D01*
X117192607Y-101046901D01*
X117196031Y-101041890D01*
X117247040Y-100790000D01*
X117247040Y-100456057D01*
X120750846Y-100456057D01*
X120885903Y-100782920D01*
X121135764Y-101033218D01*
X121462391Y-101168846D01*
X121816057Y-101169154D01*
X122142920Y-101034097D01*
X122393218Y-100784236D01*
X122528846Y-100457609D01*
X122528856Y-100446057D01*
X129530846Y-100446057D01*
X129665903Y-100772920D01*
X129915764Y-101023218D01*
X130242391Y-101158846D01*
X130596057Y-101159154D01*
X130922920Y-101024097D01*
X131173218Y-100774236D01*
X131308846Y-100447609D01*
X131308886Y-100401057D01*
X139685846Y-100401057D01*
X139820903Y-100727920D01*
X140070764Y-100978218D01*
X140397391Y-101113846D01*
X140751057Y-101114154D01*
X141077920Y-100979097D01*
X141328218Y-100729236D01*
X141463846Y-100402609D01*
X141464154Y-100048943D01*
X141339005Y-99746057D01*
X159540846Y-99746057D01*
X159675903Y-100072920D01*
X159925764Y-100323218D01*
X160252391Y-100458846D01*
X160606057Y-100459154D01*
X160932920Y-100324097D01*
X161183218Y-100074236D01*
X161318846Y-99747609D01*
X161319154Y-99393943D01*
X161184097Y-99067080D01*
X160934236Y-98816782D01*
X160607609Y-98681154D01*
X160253943Y-98680846D01*
X159927080Y-98815903D01*
X159676782Y-99065764D01*
X159541154Y-99392391D01*
X159540846Y-99746057D01*
X141339005Y-99746057D01*
X141329097Y-99722080D01*
X141079236Y-99471782D01*
X140752609Y-99336154D01*
X140398943Y-99335846D01*
X140072080Y-99470903D01*
X139821782Y-99720764D01*
X139686154Y-100047391D01*
X139685846Y-100401057D01*
X131308886Y-100401057D01*
X131309154Y-100093943D01*
X131174097Y-99767080D01*
X130924236Y-99516782D01*
X130597609Y-99381154D01*
X130243943Y-99380846D01*
X129917080Y-99515903D01*
X129666782Y-99765764D01*
X129531154Y-100092391D01*
X129530846Y-100446057D01*
X122528856Y-100446057D01*
X122529154Y-100103943D01*
X122394097Y-99777080D01*
X122144236Y-99526782D01*
X121817609Y-99391154D01*
X121463943Y-99390846D01*
X121137080Y-99525903D01*
X120886782Y-99775764D01*
X120751154Y-100102391D01*
X120750846Y-100456057D01*
X117247040Y-100456057D01*
X117247040Y-98766057D01*
X154730846Y-98766057D01*
X154865903Y-99092920D01*
X155115764Y-99343218D01*
X155442391Y-99478846D01*
X155796057Y-99479154D01*
X156122920Y-99344097D01*
X156373218Y-99094236D01*
X156508846Y-98767609D01*
X156509075Y-98504000D01*
X181788960Y-98504000D01*
X181788960Y-100536000D01*
X181833238Y-100771317D01*
X181843393Y-100787099D01*
X181839969Y-100792110D01*
X181788960Y-101044000D01*
X181788960Y-103076000D01*
X181833238Y-103311317D01*
X181843393Y-103327099D01*
X181839969Y-103332110D01*
X181788960Y-103584000D01*
X181788960Y-105616000D01*
X181833238Y-105851317D01*
X181843393Y-105867099D01*
X181839969Y-105872110D01*
X181788960Y-106124000D01*
X181788960Y-108156000D01*
X181833238Y-108391317D01*
X181972310Y-108607441D01*
X182184510Y-108752431D01*
X182436400Y-108803440D01*
X184163600Y-108803440D01*
X184398917Y-108759162D01*
X184615041Y-108620090D01*
X184760031Y-108407890D01*
X184768400Y-108366561D01*
X184780330Y-108384415D01*
X185266511Y-108709271D01*
X185840000Y-108823345D01*
X186413489Y-108709271D01*
X186899670Y-108384415D01*
X187106461Y-108074931D01*
X187477964Y-108490732D01*
X188005209Y-108744709D01*
X188020974Y-108747358D01*
X188253000Y-108626217D01*
X188253000Y-107267000D01*
X188507000Y-107267000D01*
X188507000Y-108626217D01*
X188739026Y-108747358D01*
X188754791Y-108744709D01*
X189282036Y-108490732D01*
X189671954Y-108054320D01*
X189865184Y-107501913D01*
X189720924Y-107267000D01*
X188507000Y-107267000D01*
X188253000Y-107267000D01*
X188233000Y-107267000D01*
X188233000Y-107013000D01*
X188253000Y-107013000D01*
X188253000Y-104727000D01*
X188507000Y-104727000D01*
X188507000Y-107013000D01*
X189720924Y-107013000D01*
X189865184Y-106778087D01*
X189671954Y-106225680D01*
X189354167Y-105870000D01*
X189671954Y-105514320D01*
X189865184Y-104961913D01*
X189720924Y-104727000D01*
X188507000Y-104727000D01*
X188253000Y-104727000D01*
X188233000Y-104727000D01*
X188233000Y-104473000D01*
X188253000Y-104473000D01*
X188253000Y-102187000D01*
X188507000Y-102187000D01*
X188507000Y-104473000D01*
X189720924Y-104473000D01*
X189865184Y-104238087D01*
X189671954Y-103685680D01*
X189354167Y-103330000D01*
X189671954Y-102974320D01*
X189865184Y-102421913D01*
X189720924Y-102187000D01*
X188507000Y-102187000D01*
X188253000Y-102187000D01*
X188233000Y-102187000D01*
X188233000Y-101933000D01*
X188253000Y-101933000D01*
X188253000Y-99647000D01*
X188507000Y-99647000D01*
X188507000Y-101933000D01*
X189720924Y-101933000D01*
X189865184Y-101698087D01*
X189671954Y-101145680D01*
X189354167Y-100790000D01*
X189671954Y-100434320D01*
X189865184Y-99881913D01*
X189720924Y-99647000D01*
X188507000Y-99647000D01*
X188253000Y-99647000D01*
X188233000Y-99647000D01*
X188233000Y-99393000D01*
X188253000Y-99393000D01*
X188253000Y-98033783D01*
X188507000Y-98033783D01*
X188507000Y-99393000D01*
X189720924Y-99393000D01*
X189865184Y-99158087D01*
X189671954Y-98605680D01*
X189282036Y-98169268D01*
X188754791Y-97915291D01*
X188739026Y-97912642D01*
X188507000Y-98033783D01*
X188253000Y-98033783D01*
X188020974Y-97912642D01*
X188005209Y-97915291D01*
X187477964Y-98169268D01*
X187106461Y-98585069D01*
X186899670Y-98275585D01*
X186413489Y-97950729D01*
X185840000Y-97836655D01*
X185266511Y-97950729D01*
X184780330Y-98275585D01*
X184770757Y-98289913D01*
X184766762Y-98268683D01*
X184627690Y-98052559D01*
X184415490Y-97907569D01*
X184163600Y-97856560D01*
X182436400Y-97856560D01*
X182201083Y-97900838D01*
X181984959Y-98039910D01*
X181839969Y-98252110D01*
X181788960Y-98504000D01*
X156509075Y-98504000D01*
X156509154Y-98413943D01*
X156374097Y-98087080D01*
X156124236Y-97836782D01*
X155797609Y-97701154D01*
X155443943Y-97700846D01*
X155117080Y-97835903D01*
X154866782Y-98085764D01*
X154731154Y-98412391D01*
X154730846Y-98766057D01*
X117247040Y-98766057D01*
X117247040Y-98758000D01*
X117202762Y-98522683D01*
X117192607Y-98506901D01*
X117196031Y-98501890D01*
X117247040Y-98250000D01*
X117247040Y-96218000D01*
X117243852Y-96201057D01*
X138775846Y-96201057D01*
X138910903Y-96527920D01*
X139160764Y-96778218D01*
X139487391Y-96913846D01*
X139841057Y-96914154D01*
X140167920Y-96779097D01*
X140418218Y-96529236D01*
X140533728Y-96251057D01*
X145385846Y-96251057D01*
X145520903Y-96577920D01*
X145770764Y-96828218D01*
X146097391Y-96963846D01*
X146451057Y-96964154D01*
X146777920Y-96829097D01*
X147028218Y-96579236D01*
X147163846Y-96252609D01*
X147164154Y-95898943D01*
X147125775Y-95806057D01*
X158200846Y-95806057D01*
X158335903Y-96132920D01*
X158585764Y-96383218D01*
X158912391Y-96518846D01*
X159266057Y-96519154D01*
X159592920Y-96384097D01*
X159843218Y-96134236D01*
X159978846Y-95807609D01*
X159979154Y-95453943D01*
X159844097Y-95127080D01*
X159594236Y-94876782D01*
X159267609Y-94741154D01*
X158913943Y-94740846D01*
X158587080Y-94875903D01*
X158336782Y-95125764D01*
X158201154Y-95452391D01*
X158200846Y-95806057D01*
X147125775Y-95806057D01*
X147029097Y-95572080D01*
X146779236Y-95321782D01*
X146452609Y-95186154D01*
X146098943Y-95185846D01*
X145772080Y-95320903D01*
X145521782Y-95570764D01*
X145386154Y-95897391D01*
X145385846Y-96251057D01*
X140533728Y-96251057D01*
X140553846Y-96202609D01*
X140554154Y-95848943D01*
X140419097Y-95522080D01*
X140169236Y-95271782D01*
X139842609Y-95136154D01*
X139488943Y-95135846D01*
X139162080Y-95270903D01*
X138911782Y-95520764D01*
X138776154Y-95847391D01*
X138775846Y-96201057D01*
X117243852Y-96201057D01*
X117202762Y-95982683D01*
X117192607Y-95966901D01*
X117196031Y-95961890D01*
X117247040Y-95710000D01*
X117247040Y-95246057D01*
X129490846Y-95246057D01*
X129625903Y-95572920D01*
X129875764Y-95823218D01*
X130202391Y-95958846D01*
X130556057Y-95959154D01*
X130882920Y-95824097D01*
X131133218Y-95574236D01*
X131268846Y-95247609D01*
X131269154Y-94893943D01*
X131134097Y-94567080D01*
X130884236Y-94316782D01*
X130557609Y-94181154D01*
X130203943Y-94180846D01*
X129877080Y-94315903D01*
X129626782Y-94565764D01*
X129491154Y-94892391D01*
X129490846Y-95246057D01*
X117247040Y-95246057D01*
X117247040Y-93678000D01*
X117244793Y-93666057D01*
X125140846Y-93666057D01*
X125275903Y-93992920D01*
X125525764Y-94243218D01*
X125852391Y-94378846D01*
X126206057Y-94379154D01*
X126532920Y-94244097D01*
X126783218Y-93994236D01*
X126794949Y-93965986D01*
X126925903Y-94282920D01*
X127175764Y-94533218D01*
X127502391Y-94668846D01*
X127856057Y-94669154D01*
X128182920Y-94534097D01*
X128433218Y-94284236D01*
X128568846Y-93957609D01*
X128569154Y-93603943D01*
X128434097Y-93277080D01*
X128333251Y-93176057D01*
X147850846Y-93176057D01*
X147985903Y-93502920D01*
X148235764Y-93753218D01*
X148562391Y-93888846D01*
X148916057Y-93889154D01*
X149242920Y-93754097D01*
X149493218Y-93504236D01*
X149628846Y-93177609D01*
X149629154Y-92823943D01*
X149494097Y-92497080D01*
X149244236Y-92246782D01*
X148917609Y-92111154D01*
X148563943Y-92110846D01*
X148237080Y-92245903D01*
X147986782Y-92495764D01*
X147851154Y-92822391D01*
X147850846Y-93176057D01*
X128333251Y-93176057D01*
X128184236Y-93026782D01*
X127857609Y-92891154D01*
X127503943Y-92890846D01*
X127177080Y-93025903D01*
X126926782Y-93275764D01*
X126915051Y-93304014D01*
X126784097Y-92987080D01*
X126534236Y-92736782D01*
X126207609Y-92601154D01*
X125853943Y-92600846D01*
X125527080Y-92735903D01*
X125276782Y-92985764D01*
X125141154Y-93312391D01*
X125140846Y-93666057D01*
X117244793Y-93666057D01*
X117202762Y-93442683D01*
X117192607Y-93426901D01*
X117196031Y-93421890D01*
X117247040Y-93170000D01*
X117247040Y-91986057D01*
X120500846Y-91986057D01*
X120635903Y-92312920D01*
X120885764Y-92563218D01*
X121212391Y-92698846D01*
X121566057Y-92699154D01*
X121892920Y-92564097D01*
X122143218Y-92314236D01*
X122278846Y-91987609D01*
X122278847Y-91986057D01*
X130280846Y-91986057D01*
X130415903Y-92312920D01*
X130665764Y-92563218D01*
X130992391Y-92698846D01*
X131346057Y-92699154D01*
X131672920Y-92564097D01*
X131923218Y-92314236D01*
X132026271Y-92066057D01*
X151160846Y-92066057D01*
X151295903Y-92392920D01*
X151545764Y-92643218D01*
X151872391Y-92778846D01*
X152226057Y-92779154D01*
X152552920Y-92644097D01*
X152803218Y-92394236D01*
X152938846Y-92067609D01*
X152939154Y-91713943D01*
X152804097Y-91387080D01*
X152554236Y-91136782D01*
X152227609Y-91001154D01*
X151873943Y-91000846D01*
X151547080Y-91135903D01*
X151296782Y-91385764D01*
X151161154Y-91712391D01*
X151160846Y-92066057D01*
X132026271Y-92066057D01*
X132058846Y-91987609D01*
X132059154Y-91633943D01*
X131924097Y-91307080D01*
X131674236Y-91056782D01*
X131347609Y-90921154D01*
X130993943Y-90920846D01*
X130667080Y-91055903D01*
X130416782Y-91305764D01*
X130281154Y-91632391D01*
X130280846Y-91986057D01*
X122278847Y-91986057D01*
X122279154Y-91633943D01*
X122144097Y-91307080D01*
X121894236Y-91056782D01*
X121567609Y-90921154D01*
X121213943Y-90920846D01*
X120887080Y-91055903D01*
X120636782Y-91305764D01*
X120501154Y-91632391D01*
X120500846Y-91986057D01*
X117247040Y-91986057D01*
X117247040Y-91138000D01*
X117202762Y-90902683D01*
X117192607Y-90886901D01*
X117196031Y-90881890D01*
X117247040Y-90630000D01*
X117247040Y-89606057D01*
X120330846Y-89606057D01*
X120465903Y-89932920D01*
X120715764Y-90183218D01*
X121042391Y-90318846D01*
X121396057Y-90319154D01*
X121722920Y-90184097D01*
X121841166Y-90066057D01*
X148060846Y-90066057D01*
X148195903Y-90392920D01*
X148445764Y-90643218D01*
X148772391Y-90778846D01*
X149126057Y-90779154D01*
X149452920Y-90644097D01*
X149703218Y-90394236D01*
X149838846Y-90067609D01*
X149839154Y-89713943D01*
X149704097Y-89387080D01*
X149454236Y-89136782D01*
X149127609Y-89001154D01*
X148773943Y-89000846D01*
X148447080Y-89135903D01*
X148196782Y-89385764D01*
X148061154Y-89712391D01*
X148060846Y-90066057D01*
X121841166Y-90066057D01*
X121973218Y-89934236D01*
X122108846Y-89607609D01*
X122109154Y-89253943D01*
X121974097Y-88927080D01*
X121963094Y-88916057D01*
X152830846Y-88916057D01*
X152965903Y-89242920D01*
X153215764Y-89493218D01*
X153542391Y-89628846D01*
X153896057Y-89629154D01*
X154222920Y-89494097D01*
X154473218Y-89244236D01*
X154608846Y-88917609D01*
X154609154Y-88563943D01*
X154474097Y-88237080D01*
X154224236Y-87986782D01*
X153897609Y-87851154D01*
X153543943Y-87850846D01*
X153217080Y-87985903D01*
X152966782Y-88235764D01*
X152831154Y-88562391D01*
X152830846Y-88916057D01*
X121963094Y-88916057D01*
X121724236Y-88676782D01*
X121397609Y-88541154D01*
X121043943Y-88540846D01*
X120717080Y-88675903D01*
X120466782Y-88925764D01*
X120331154Y-89252391D01*
X120330846Y-89606057D01*
X117247040Y-89606057D01*
X117247040Y-88598000D01*
X117202762Y-88362683D01*
X117063690Y-88146559D01*
X116851490Y-88001569D01*
X116599600Y-87950560D01*
X114872400Y-87950560D01*
X114637083Y-87994838D01*
X114420959Y-88133910D01*
X114275969Y-88346110D01*
X114267600Y-88387439D01*
X114255670Y-88369585D01*
X113769489Y-88044729D01*
X113196000Y-87930655D01*
X112622511Y-88044729D01*
X112136330Y-88369585D01*
X111929539Y-88679069D01*
X111558036Y-88263268D01*
X111030791Y-88009291D01*
X111015026Y-88006642D01*
X110783000Y-88127783D01*
X110529000Y-88127783D01*
X110296974Y-88006642D01*
X110281209Y-88009291D01*
X109753964Y-88263268D01*
X109364046Y-88699680D01*
X109170816Y-89252087D01*
X107785000Y-89252087D01*
X107785000Y-85251913D01*
X109204816Y-85251913D01*
X109398046Y-85804320D01*
X109787964Y-86240732D01*
X110315209Y-86494709D01*
X110330974Y-86497358D01*
X110563000Y-86376217D01*
X110563000Y-85017000D01*
X109349076Y-85017000D01*
X109204816Y-85251913D01*
X107785000Y-85251913D01*
X107785000Y-84528087D01*
X109204816Y-84528087D01*
X109349076Y-84763000D01*
X110563000Y-84763000D01*
X110563000Y-83403783D01*
X110817000Y-83403783D01*
X110817000Y-84763000D01*
X110837000Y-84763000D01*
X110837000Y-85017000D01*
X110817000Y-85017000D01*
X110817000Y-86376217D01*
X111049026Y-86497358D01*
X111064791Y-86494709D01*
X111592036Y-86240732D01*
X111963539Y-85824931D01*
X112170330Y-86134415D01*
X112656511Y-86459271D01*
X113230000Y-86573345D01*
X113803489Y-86459271D01*
X114289670Y-86134415D01*
X114500000Y-85819634D01*
X114710330Y-86134415D01*
X115196511Y-86459271D01*
X115770000Y-86573345D01*
X116343489Y-86459271D01*
X116829670Y-86134415D01*
X116839243Y-86120087D01*
X116843238Y-86141317D01*
X116982310Y-86357441D01*
X117194510Y-86502431D01*
X117446400Y-86553440D01*
X119173600Y-86553440D01*
X119408917Y-86509162D01*
X119478139Y-86464619D01*
X119356782Y-86585764D01*
X119221154Y-86912391D01*
X119220846Y-87266057D01*
X119355903Y-87592920D01*
X119605764Y-87843218D01*
X119932391Y-87978846D01*
X120286057Y-87979154D01*
X120612920Y-87844097D01*
X120620974Y-87836057D01*
X147700846Y-87836057D01*
X147835903Y-88162920D01*
X148085764Y-88413218D01*
X148412391Y-88548846D01*
X148766057Y-88549154D01*
X149092920Y-88414097D01*
X149343218Y-88164236D01*
X149478846Y-87837609D01*
X149479154Y-87483943D01*
X149344097Y-87157080D01*
X149094236Y-86906782D01*
X148767609Y-86771154D01*
X148413943Y-86770846D01*
X148087080Y-86905903D01*
X147836782Y-87155764D01*
X147701154Y-87482391D01*
X147700846Y-87836057D01*
X120620974Y-87836057D01*
X120863218Y-87594236D01*
X120998846Y-87267609D01*
X120998866Y-87244163D01*
X121082391Y-87278846D01*
X121436057Y-87279154D01*
X121762920Y-87144097D01*
X121861131Y-87046057D01*
X131210846Y-87046057D01*
X131345903Y-87372920D01*
X131595764Y-87623218D01*
X131922391Y-87758846D01*
X132276057Y-87759154D01*
X132602920Y-87624097D01*
X132853218Y-87374236D01*
X132988846Y-87047609D01*
X132988908Y-86976057D01*
X135160846Y-86976057D01*
X135295903Y-87302920D01*
X135545764Y-87553218D01*
X135872391Y-87688846D01*
X136226057Y-87689154D01*
X136552920Y-87554097D01*
X136803218Y-87304236D01*
X136938846Y-86977609D01*
X136939038Y-86756057D01*
X151000846Y-86756057D01*
X151135903Y-87082920D01*
X151385764Y-87333218D01*
X151712391Y-87468846D01*
X152066057Y-87469154D01*
X152392920Y-87334097D01*
X152643218Y-87084236D01*
X152778846Y-86757609D01*
X152779154Y-86403943D01*
X152644097Y-86077080D01*
X152394236Y-85826782D01*
X152067609Y-85691154D01*
X151713943Y-85690846D01*
X151387080Y-85825903D01*
X151136782Y-86075764D01*
X151001154Y-86402391D01*
X151000846Y-86756057D01*
X136939038Y-86756057D01*
X136939154Y-86623943D01*
X136804097Y-86297080D01*
X136554236Y-86046782D01*
X136227609Y-85911154D01*
X135873943Y-85910846D01*
X135547080Y-86045903D01*
X135296782Y-86295764D01*
X135161154Y-86622391D01*
X135160846Y-86976057D01*
X132988908Y-86976057D01*
X132989154Y-86693943D01*
X132854097Y-86367080D01*
X132604236Y-86116782D01*
X132277609Y-85981154D01*
X131923943Y-85980846D01*
X131597080Y-86115903D01*
X131346782Y-86365764D01*
X131211154Y-86692391D01*
X131210846Y-87046057D01*
X121861131Y-87046057D01*
X122013218Y-86894236D01*
X122148846Y-86567609D01*
X122149154Y-86213943D01*
X122014097Y-85887080D01*
X121764236Y-85636782D01*
X121437609Y-85501154D01*
X121083943Y-85500846D01*
X120757080Y-85635903D01*
X120506782Y-85885764D01*
X120371154Y-86212391D01*
X120371134Y-86235837D01*
X120287609Y-86201154D01*
X119933943Y-86200846D01*
X119664654Y-86312114D01*
X119770031Y-86157890D01*
X119821040Y-85906000D01*
X119821040Y-85076057D01*
X124580846Y-85076057D01*
X124715903Y-85402920D01*
X124965764Y-85653218D01*
X125292391Y-85788846D01*
X125646057Y-85789154D01*
X125972920Y-85654097D01*
X126054941Y-85572219D01*
X126155764Y-85673218D01*
X126482391Y-85808846D01*
X126836057Y-85809154D01*
X127162920Y-85674097D01*
X127413218Y-85424236D01*
X127548846Y-85097609D01*
X127549143Y-84756057D01*
X147930846Y-84756057D01*
X148065903Y-85082920D01*
X148315764Y-85333218D01*
X148642391Y-85468846D01*
X148996057Y-85469154D01*
X149322920Y-85334097D01*
X149573218Y-85084236D01*
X149708846Y-84757609D01*
X149709154Y-84403943D01*
X149574097Y-84077080D01*
X149324236Y-83826782D01*
X148997609Y-83691154D01*
X148643943Y-83690846D01*
X148317080Y-83825903D01*
X148066782Y-84075764D01*
X147931154Y-84402391D01*
X147930846Y-84756057D01*
X127549143Y-84756057D01*
X127549154Y-84743943D01*
X127414097Y-84417080D01*
X127164236Y-84166782D01*
X126837609Y-84031154D01*
X126483943Y-84030846D01*
X126157080Y-84165903D01*
X126075059Y-84247781D01*
X125974236Y-84146782D01*
X125647609Y-84011154D01*
X125293943Y-84010846D01*
X124967080Y-84145903D01*
X124716782Y-84395764D01*
X124581154Y-84722391D01*
X124580846Y-85076057D01*
X119821040Y-85076057D01*
X119821040Y-83874000D01*
X119776762Y-83638683D01*
X119762203Y-83616057D01*
X152850846Y-83616057D01*
X152985903Y-83942920D01*
X153235764Y-84193218D01*
X153562391Y-84328846D01*
X153916057Y-84329154D01*
X154242920Y-84194097D01*
X154493218Y-83944236D01*
X154628846Y-83617609D01*
X154629154Y-83263943D01*
X154494097Y-82937080D01*
X154244236Y-82686782D01*
X153917609Y-82551154D01*
X153563943Y-82550846D01*
X153237080Y-82685903D01*
X152986782Y-82935764D01*
X152851154Y-83262391D01*
X152850846Y-83616057D01*
X119762203Y-83616057D01*
X119637690Y-83422559D01*
X119425490Y-83277569D01*
X119173600Y-83226560D01*
X117446400Y-83226560D01*
X117211083Y-83270838D01*
X116994959Y-83409910D01*
X116849969Y-83622110D01*
X116841600Y-83663439D01*
X116829670Y-83645585D01*
X116343489Y-83320729D01*
X115770000Y-83206655D01*
X115196511Y-83320729D01*
X114710330Y-83645585D01*
X114500000Y-83960366D01*
X114289670Y-83645585D01*
X113803489Y-83320729D01*
X113230000Y-83206655D01*
X112656511Y-83320729D01*
X112170330Y-83645585D01*
X111963539Y-83955069D01*
X111592036Y-83539268D01*
X111064791Y-83285291D01*
X111049026Y-83282642D01*
X110817000Y-83403783D01*
X110563000Y-83403783D01*
X110330974Y-83282642D01*
X110315209Y-83285291D01*
X109787964Y-83539268D01*
X109398046Y-83975680D01*
X109204816Y-84528087D01*
X107785000Y-84528087D01*
X107785000Y-80422815D01*
X108964630Y-80422815D01*
X109288980Y-81207800D01*
X109889041Y-81808909D01*
X110673459Y-82134628D01*
X111522815Y-82135370D01*
X112307800Y-81811020D01*
X112833987Y-81285750D01*
X115865000Y-81285750D01*
X115865000Y-81726310D01*
X115961673Y-81959699D01*
X116140302Y-82138327D01*
X116373691Y-82235000D01*
X116814250Y-82235000D01*
X116973000Y-82076250D01*
X116973000Y-81127000D01*
X116023750Y-81127000D01*
X115865000Y-81285750D01*
X112833987Y-81285750D01*
X112908909Y-81210959D01*
X113234628Y-80426541D01*
X113235370Y-79577185D01*
X112927067Y-78831036D01*
X115852193Y-78831036D01*
X115882518Y-79321413D01*
X116011836Y-79633617D01*
X116237263Y-79683129D01*
X116121570Y-79798822D01*
X116171499Y-79848751D01*
X116140302Y-79861673D01*
X115961673Y-80040301D01*
X115865000Y-80273690D01*
X115865000Y-80714250D01*
X116023750Y-80873000D01*
X116973000Y-80873000D01*
X116973000Y-80853000D01*
X117227000Y-80853000D01*
X117227000Y-80873000D01*
X117247000Y-80873000D01*
X117247000Y-81127000D01*
X117227000Y-81127000D01*
X117227000Y-82076250D01*
X117385750Y-82235000D01*
X117826309Y-82235000D01*
X118059698Y-82138327D01*
X118238327Y-81959699D01*
X118260224Y-81906836D01*
X118399515Y-82046371D01*
X118853266Y-82234785D01*
X119344579Y-82235214D01*
X119798657Y-82047592D01*
X120100221Y-81746554D01*
X120399515Y-82046371D01*
X120853266Y-82234785D01*
X121344579Y-82235214D01*
X121798657Y-82047592D01*
X122100221Y-81746554D01*
X122399515Y-82046371D01*
X122853266Y-82234785D01*
X123344579Y-82235214D01*
X123798657Y-82047592D01*
X124100221Y-81746554D01*
X124399515Y-82046371D01*
X124853266Y-82234785D01*
X125344579Y-82235214D01*
X125798657Y-82047592D01*
X126100221Y-81746554D01*
X126399515Y-82046371D01*
X126853266Y-82234785D01*
X127256577Y-82235137D01*
X127325903Y-82402920D01*
X127575764Y-82653218D01*
X127902391Y-82788846D01*
X128256057Y-82789154D01*
X128582920Y-82654097D01*
X128833218Y-82404236D01*
X128903562Y-82234829D01*
X129236569Y-82235120D01*
X129305903Y-82402920D01*
X129555764Y-82653218D01*
X129882391Y-82788846D01*
X130236057Y-82789154D01*
X130562920Y-82654097D01*
X130813218Y-82404236D01*
X130883570Y-82234811D01*
X131344579Y-82235214D01*
X131798657Y-82047592D01*
X132100221Y-81746554D01*
X132399515Y-82046371D01*
X132853266Y-82234785D01*
X133344579Y-82235214D01*
X133798657Y-82047592D01*
X134100221Y-81746554D01*
X134399515Y-82046371D01*
X134853266Y-82234785D01*
X135344579Y-82235214D01*
X135798657Y-82047592D01*
X136100221Y-81746554D01*
X136399515Y-82046371D01*
X136853266Y-82234785D01*
X137344579Y-82235214D01*
X137798657Y-82047592D01*
X138100221Y-81746554D01*
X138399515Y-82046371D01*
X138853266Y-82234785D01*
X139344579Y-82235214D01*
X139798657Y-82047592D01*
X140100221Y-81746554D01*
X140399515Y-82046371D01*
X140853266Y-82234785D01*
X141344579Y-82235214D01*
X141798657Y-82047592D01*
X142100221Y-81746554D01*
X142399515Y-82046371D01*
X142853266Y-82234785D01*
X143344579Y-82235214D01*
X143798657Y-82047592D01*
X144100221Y-81746554D01*
X144399515Y-82046371D01*
X144853266Y-82234785D01*
X145344579Y-82235214D01*
X145798657Y-82047592D01*
X146100221Y-81746554D01*
X146399515Y-82046371D01*
X146853266Y-82234785D01*
X147344579Y-82235214D01*
X147798657Y-82047592D01*
X148100221Y-81746554D01*
X148399515Y-82046371D01*
X148853266Y-82234785D01*
X149344579Y-82235214D01*
X149798657Y-82047592D01*
X150100221Y-81746554D01*
X150399515Y-82046371D01*
X150853266Y-82234785D01*
X151344579Y-82235214D01*
X151798657Y-82047592D01*
X152100221Y-81746554D01*
X152399515Y-82046371D01*
X152853266Y-82234785D01*
X153344579Y-82235214D01*
X153798657Y-82047592D01*
X153983837Y-81862735D01*
X154416870Y-81862735D01*
X154466383Y-82088164D01*
X154931036Y-82247807D01*
X155421413Y-82217482D01*
X155733617Y-82088164D01*
X155740391Y-82057320D01*
X171130285Y-82057320D01*
X171259533Y-82350123D01*
X171959806Y-82618388D01*
X172709435Y-82598250D01*
X173308467Y-82350123D01*
X173437715Y-82057320D01*
X172284000Y-80903605D01*
X171130285Y-82057320D01*
X155740391Y-82057320D01*
X155783130Y-81862735D01*
X155100000Y-81179605D01*
X154416870Y-81862735D01*
X153983837Y-81862735D01*
X154146371Y-81700485D01*
X154160572Y-81666285D01*
X154237265Y-81683130D01*
X154920395Y-81000000D01*
X155279605Y-81000000D01*
X155962735Y-81683130D01*
X156188164Y-81633617D01*
X156347807Y-81168964D01*
X156317482Y-80678587D01*
X156202009Y-80399806D01*
X170389612Y-80399806D01*
X170409750Y-81149435D01*
X170657877Y-81748467D01*
X170950680Y-81877715D01*
X172104395Y-80724000D01*
X172463605Y-80724000D01*
X173617320Y-81877715D01*
X173910123Y-81748467D01*
X174159574Y-81097305D01*
X175398674Y-81097305D01*
X175685043Y-81790372D01*
X176214839Y-82321093D01*
X176907405Y-82608672D01*
X177657305Y-82609326D01*
X178350372Y-82322957D01*
X178881093Y-81793161D01*
X179168672Y-81100595D01*
X179169326Y-80350695D01*
X178882957Y-79657628D01*
X178699650Y-79474000D01*
X180386560Y-79474000D01*
X180386560Y-81974000D01*
X180430838Y-82209317D01*
X180569910Y-82425441D01*
X180782110Y-82570431D01*
X181034000Y-82621440D01*
X183534000Y-82621440D01*
X183769317Y-82577162D01*
X183985441Y-82438090D01*
X184130431Y-82225890D01*
X184181440Y-81974000D01*
X184181440Y-80422815D01*
X185964630Y-80422815D01*
X186288980Y-81207800D01*
X186889041Y-81808909D01*
X187673459Y-82134628D01*
X188522815Y-82135370D01*
X189307800Y-81811020D01*
X189908909Y-81210959D01*
X190234628Y-80426541D01*
X190235370Y-79577185D01*
X189911020Y-78792200D01*
X189310959Y-78191091D01*
X188526541Y-77865372D01*
X187677185Y-77864630D01*
X186892200Y-78188980D01*
X186291091Y-78789041D01*
X185965372Y-79573459D01*
X185964630Y-80422815D01*
X184181440Y-80422815D01*
X184181440Y-79474000D01*
X184137162Y-79238683D01*
X183998090Y-79022559D01*
X183785890Y-78877569D01*
X183534000Y-78826560D01*
X181034000Y-78826560D01*
X180798683Y-78870838D01*
X180582559Y-79009910D01*
X180437569Y-79222110D01*
X180386560Y-79474000D01*
X178699650Y-79474000D01*
X178353161Y-79126907D01*
X177660595Y-78839328D01*
X176910695Y-78838674D01*
X176217628Y-79125043D01*
X175686907Y-79654839D01*
X175399328Y-80347405D01*
X175398674Y-81097305D01*
X174159574Y-81097305D01*
X174178388Y-81048194D01*
X174158250Y-80298565D01*
X173910123Y-79699533D01*
X173617320Y-79570285D01*
X172463605Y-80724000D01*
X172104395Y-80724000D01*
X170950680Y-79570285D01*
X170657877Y-79699533D01*
X170389612Y-80399806D01*
X156202009Y-80399806D01*
X156188164Y-80366383D01*
X155962735Y-80316870D01*
X155279605Y-81000000D01*
X154920395Y-81000000D01*
X154237265Y-80316870D01*
X154160935Y-80333635D01*
X154147592Y-80301343D01*
X153846554Y-79999779D01*
X153983837Y-79862735D01*
X154416870Y-79862735D01*
X154447019Y-80000000D01*
X154416870Y-80137265D01*
X155100000Y-80820395D01*
X155783130Y-80137265D01*
X155752981Y-80000000D01*
X155783130Y-79862735D01*
X155100000Y-79179605D01*
X154416870Y-79862735D01*
X153983837Y-79862735D01*
X154146371Y-79700485D01*
X154160572Y-79666285D01*
X154237265Y-79683130D01*
X154920395Y-79000000D01*
X155279605Y-79000000D01*
X155962735Y-79683130D01*
X156188164Y-79633617D01*
X156271630Y-79390680D01*
X171130285Y-79390680D01*
X172284000Y-80544395D01*
X173437715Y-79390680D01*
X173308467Y-79097877D01*
X172608194Y-78829612D01*
X171858565Y-78849750D01*
X171259533Y-79097877D01*
X171130285Y-79390680D01*
X156271630Y-79390680D01*
X156347807Y-79168964D01*
X156317482Y-78678587D01*
X156188164Y-78366383D01*
X155962735Y-78316870D01*
X155279605Y-79000000D01*
X154920395Y-79000000D01*
X154237265Y-78316870D01*
X154160935Y-78333635D01*
X154147592Y-78301343D01*
X153983801Y-78137265D01*
X154416870Y-78137265D01*
X155100000Y-78820395D01*
X155783130Y-78137265D01*
X155733617Y-77911836D01*
X155268964Y-77752193D01*
X154778587Y-77782518D01*
X154466383Y-77911836D01*
X154416870Y-78137265D01*
X153983801Y-78137265D01*
X153800485Y-77953629D01*
X153346734Y-77765215D01*
X152855421Y-77764786D01*
X152401343Y-77952408D01*
X152099779Y-78253446D01*
X151800485Y-77953629D01*
X151346734Y-77765215D01*
X150855421Y-77764786D01*
X150401343Y-77952408D01*
X150099779Y-78253446D01*
X149800485Y-77953629D01*
X149346734Y-77765215D01*
X148855421Y-77764786D01*
X148401343Y-77952408D01*
X148099779Y-78253446D01*
X147800485Y-77953629D01*
X147346734Y-77765215D01*
X146855421Y-77764786D01*
X146401343Y-77952408D01*
X146099779Y-78253446D01*
X145800485Y-77953629D01*
X145346734Y-77765215D01*
X144855421Y-77764786D01*
X144401343Y-77952408D01*
X144099779Y-78253446D01*
X143800485Y-77953629D01*
X143346734Y-77765215D01*
X142855421Y-77764786D01*
X142401343Y-77952408D01*
X142099779Y-78253446D01*
X141800485Y-77953629D01*
X141346734Y-77765215D01*
X140855421Y-77764786D01*
X140401343Y-77952408D01*
X140099779Y-78253446D01*
X139800485Y-77953629D01*
X139346734Y-77765215D01*
X138855421Y-77764786D01*
X138401343Y-77952408D01*
X138099779Y-78253446D01*
X137800485Y-77953629D01*
X137346734Y-77765215D01*
X136855421Y-77764786D01*
X136401343Y-77952408D01*
X136099779Y-78253446D01*
X135800485Y-77953629D01*
X135346734Y-77765215D01*
X134855421Y-77764786D01*
X134401343Y-77952408D01*
X134099779Y-78253446D01*
X133800485Y-77953629D01*
X133346734Y-77765215D01*
X132855421Y-77764786D01*
X132401343Y-77952408D01*
X132099779Y-78253446D01*
X131800485Y-77953629D01*
X131346734Y-77765215D01*
X130855421Y-77764786D01*
X130401343Y-77952408D01*
X130099779Y-78253446D01*
X129800485Y-77953629D01*
X129346734Y-77765215D01*
X128855421Y-77764786D01*
X128401343Y-77952408D01*
X128099779Y-78253446D01*
X127800485Y-77953629D01*
X127346734Y-77765215D01*
X126855421Y-77764786D01*
X126401343Y-77952408D01*
X126099779Y-78253446D01*
X125800485Y-77953629D01*
X125346734Y-77765215D01*
X124855421Y-77764786D01*
X124401343Y-77952408D01*
X124099779Y-78253446D01*
X123800485Y-77953629D01*
X123346734Y-77765215D01*
X122855421Y-77764786D01*
X122401343Y-77952408D01*
X122099779Y-78253446D01*
X121800485Y-77953629D01*
X121346734Y-77765215D01*
X120855421Y-77764786D01*
X120401343Y-77952408D01*
X120099779Y-78253446D01*
X119800485Y-77953629D01*
X119346734Y-77765215D01*
X118855421Y-77764786D01*
X118401343Y-77952408D01*
X118053629Y-78299515D01*
X118039428Y-78333715D01*
X117962735Y-78316870D01*
X117279605Y-79000000D01*
X117293748Y-79014143D01*
X117114143Y-79193748D01*
X117100000Y-79179605D01*
X117085858Y-79193748D01*
X116906253Y-79014143D01*
X116920395Y-79000000D01*
X116237265Y-78316870D01*
X116011836Y-78366383D01*
X115852193Y-78831036D01*
X112927067Y-78831036D01*
X112911020Y-78792200D01*
X112310959Y-78191091D01*
X112181332Y-78137265D01*
X116416870Y-78137265D01*
X117100000Y-78820395D01*
X117783130Y-78137265D01*
X117733617Y-77911836D01*
X117268964Y-77752193D01*
X116778587Y-77782518D01*
X116466383Y-77911836D01*
X116416870Y-78137265D01*
X112181332Y-78137265D01*
X111526541Y-77865372D01*
X110677185Y-77864630D01*
X109892200Y-78188980D01*
X109291091Y-78789041D01*
X108965372Y-79573459D01*
X108964630Y-80422815D01*
X107785000Y-80422815D01*
X107785000Y-76685000D01*
X191414492Y-76685000D01*
X191414492Y-129315000D01*
M02*
